<?xml version="1.0" encoding="UTF-8"?>
<svg xmlns="http://www.w3.org/2000/svg" xmlns:xlink="http://www.w3.org/1999/xlink" width="102pt" height="32pt" viewBox="0 0 102 32" version="1.1">
<g id="surface180">
<path style=" stroke:none;fill-rule:evenodd;fill:rgb(0%,0%,0%);fill-opacity:1;" d="M 7.605469 14.324219 C 7.621094 14.253906 7.648438 14.167969 7.648438 14.085938 C 7.648438 13.878906 7.480469 13.738281 7.273438 13.738281 C 7.148438 13.738281 6.855469 13.792969 6.742188 14.210938 L 5.714844 18.300781 C 5.644531 18.550781 5.644531 18.578125 5.535156 18.730469 C 5.257813 19.121094 4.796875 19.59375 4.128906 19.59375 C 3.351563 19.59375 3.28125 18.828125 3.28125 18.453125 C 3.28125 17.660156 3.65625 16.589844 4.03125 15.589844 C 4.183594 15.183594 4.269531 14.988281 4.269531 14.710938 C 4.269531 14.128906 3.851563 13.597656 3.167969 13.597656 C 1.890625 13.597656 1.375 15.613281 1.375 15.726563 C 1.375 15.78125 1.429688 15.851563 1.527344 15.851563 C 1.652344 15.851563 1.667969 15.796875 1.722656 15.601563 C 2.054688 14.433594 2.585938 13.878906 3.128906 13.878906 C 3.253906 13.878906 3.488281 13.878906 3.488281 14.335938 C 3.488281 14.699219 3.335938 15.101563 3.128906 15.628906 C 2.445313 17.449219 2.445313 17.910156 2.445313 18.246094 C 2.445313 19.566406 3.390625 19.871094 4.085938 19.871094 C 4.492188 19.871094 4.992188 19.746094 5.476563 19.234375 L 5.492188 19.246094 C 5.28125 20.066406 5.144531 20.609375 4.65625 21.289063 C 4.28125 21.820313 3.738281 22.292969 3.058594 22.292969 C 2.890625 22.292969 2.222656 22.265625 2.015625 21.625 C 2.054688 21.636719 2.15625 21.636719 2.15625 21.636719 C 2.570313 21.636719 2.851563 21.277344 2.851563 20.957031 C 2.851563 20.636719 2.585938 20.523438 2.375 20.523438 C 2.15625 20.523438 1.667969 20.691406 1.667969 21.375 C 1.667969 22.082031 2.265625 22.570313 3.058594 22.570313 C 4.449219 22.570313 5.851563 21.289063 6.242188 19.746094 Z M 7.605469 14.324219 "/>
<path style=" stroke:none;fill-rule:evenodd;fill:rgb(0%,0%,0%);fill-opacity:1;" d="M 21.832031 14.976563 C 21.832031 14.710938 21.59375 14.710938 21.386719 14.710938 L 13.195313 14.710938 C 13 14.710938 12.75 14.710938 12.75 14.960938 C 12.75 15.226563 12.988281 15.226563 13.195313 15.226563 L 21.386719 15.226563 C 21.582031 15.226563 21.832031 15.226563 21.832031 14.976563 Z M 21.832031 17.5625 C 21.832031 17.296875 21.59375 17.296875 21.386719 17.296875 L 13.195313 17.296875 C 13 17.296875 12.75 17.296875 12.75 17.550781 C 12.75 17.8125 12.988281 17.8125 13.195313 17.8125 L 21.386719 17.8125 C 21.582031 17.8125 21.832031 17.8125 21.832031 17.5625 Z M 21.832031 17.5625 "/>
<path style=" stroke:none;fill-rule:evenodd;fill:rgb(0%,0%,0%);fill-opacity:1;" d="M 33.105469 14.324219 C 33.121094 14.253906 33.148438 14.167969 33.148438 14.085938 C 33.148438 13.878906 32.980469 13.738281 32.773438 13.738281 C 32.648438 13.738281 32.355469 13.792969 32.242188 14.210938 L 31.214844 18.300781 C 31.144531 18.550781 31.144531 18.578125 31.035156 18.730469 C 30.757813 19.121094 30.296875 19.59375 29.628906 19.59375 C 28.851563 19.59375 28.78125 18.828125 28.78125 18.453125 C 28.78125 17.660156 29.15625 16.589844 29.53125 15.589844 C 29.683594 15.183594 29.769531 14.988281 29.769531 14.710938 C 29.769531 14.128906 29.351563 13.597656 28.667969 13.597656 C 27.390625 13.597656 26.875 15.613281 26.875 15.726563 C 26.875 15.78125 26.929688 15.851563 27.027344 15.851563 C 27.152344 15.851563 27.167969 15.796875 27.222656 15.601563 C 27.554688 14.433594 28.085938 13.878906 28.628906 13.878906 C 28.753906 13.878906 28.988281 13.878906 28.988281 14.335938 C 28.988281 14.699219 28.835938 15.101563 28.628906 15.628906 C 27.945313 17.449219 27.945313 17.910156 27.945313 18.246094 C 27.945313 19.566406 28.890625 19.871094 29.585938 19.871094 C 29.992188 19.871094 30.492188 19.746094 30.976563 19.234375 L 30.992188 19.246094 C 30.78125 20.066406 30.644531 20.609375 30.15625 21.289063 C 29.78125 21.820313 29.238281 22.292969 28.558594 22.292969 C 28.390625 22.292969 27.722656 22.265625 27.515625 21.625 C 27.554688 21.636719 27.65625 21.636719 27.65625 21.636719 C 28.070313 21.636719 28.351563 21.277344 28.351563 20.957031 C 28.351563 20.636719 28.085938 20.523438 27.875 20.523438 C 27.65625 20.523438 27.167969 20.691406 27.167969 21.375 C 27.167969 22.082031 27.765625 22.570313 28.558594 22.570313 C 29.949219 22.570313 31.351563 21.289063 31.742188 19.746094 Z M 33.105469 14.324219 "/>
<path style=" stroke:none;fill-rule:evenodd;fill:rgb(0%,0%,0%);fill-opacity:1;" d="M 41.152344 21.832031 L 41.152344 21.53125 C 40.644531 21.53125 40.398438 21.53125 40.390625 21.234375 L 40.390625 19.367188 C 40.390625 18.527344 40.390625 18.222656 40.085938 17.871094 C 39.949219 17.703125 39.625 17.507813 39.058594 17.507813 C 38.238281 17.507813 37.804688 18.097656 37.640625 18.46875 C 37.503906 17.617188 36.78125 17.507813 36.339844 17.507813 C 35.625 17.507813 35.164063 17.929688 34.890625 18.535156 L 34.890625 17.507813 L 33.511719 17.617188 L 33.511719 17.917969 C 34.195313 17.917969 34.277344 17.988281 34.277344 18.46875 L 34.277344 21.089844 C 34.277344 21.53125 34.167969 21.53125 33.511719 21.53125 L 33.511719 21.832031 L 34.617188 21.804688 L 35.714844 21.832031 L 35.714844 21.53125 C 35.058594 21.53125 34.949219 21.53125 34.949219 21.089844 L 34.949219 19.289063 C 34.949219 18.273438 35.644531 17.726563 36.273438 17.726563 C 36.886719 17.726563 36.996094 18.253906 36.996094 18.808594 L 36.996094 21.089844 C 36.996094 21.53125 36.886719 21.53125 36.234375 21.53125 L 36.234375 21.832031 L 37.335938 21.804688 L 38.433594 21.832031 L 38.433594 21.53125 C 37.777344 21.53125 37.671875 21.53125 37.671875 21.089844 L 37.671875 19.289063 C 37.671875 18.273438 38.363281 17.726563 38.992188 17.726563 C 39.605469 17.726563 39.714844 18.253906 39.714844 18.808594 L 39.714844 21.089844 C 39.714844 21.53125 39.605469 21.53125 38.953125 21.53125 L 38.953125 21.832031 L 40.054688 21.804688 Z M 41.152344 21.832031 "/>
<path style=" stroke:none;fill-rule:evenodd;fill:rgb(0%,0%,0%);fill-opacity:1;" d="M 46.023438 20.960938 L 46.023438 20.414063 L 45.78125 20.414063 L 45.78125 20.960938 C 45.78125 21.53125 45.535156 21.589844 45.429688 21.589844 C 45.105469 21.589844 45.066406 21.148438 45.066406 21.101563 L 45.066406 19.144531 C 45.066406 18.734375 45.066406 18.351563 44.714844 17.988281 C 44.332031 17.605469 43.84375 17.449219 43.375 17.449219 C 42.570313 17.449219 41.898438 17.910156 41.898438 18.554688 C 41.898438 18.851563 42.09375 19.015625 42.347656 19.015625 C 42.621094 19.015625 42.796875 18.820313 42.796875 18.566406 C 42.796875 18.449219 42.746094 18.125 42.296875 18.113281 C 42.5625 17.773438 43.039063 17.664063 43.355469 17.664063 C 43.832031 17.664063 44.390625 18.046875 44.390625 18.917969 L 44.390625 19.28125 C 43.890625 19.308594 43.207031 19.339844 42.589844 19.632813 C 41.859375 19.964844 41.613281 20.472656 41.613281 20.902344 C 41.613281 21.695313 42.5625 21.941406 43.179688 21.941406 C 43.824219 21.941406 44.273438 21.546875 44.460938 21.089844 C 44.5 21.480469 44.761719 21.890625 45.222656 21.890625 C 45.429688 21.890625 46.023438 21.753906 46.023438 20.960938 Z M 44.390625 20.464844 C 44.390625 21.390625 43.6875 21.726563 43.246094 21.726563 C 42.765625 21.726563 42.367188 21.382813 42.367188 20.894531 C 42.367188 20.355469 42.777344 19.542969 44.390625 19.484375 Z M 44.390625 20.464844 "/>
<path style=" stroke:none;fill-rule:evenodd;fill:rgb(0%,0%,0%);fill-opacity:1;" d="M 51.246094 21.832031 L 51.246094 21.53125 C 50.71875 21.53125 50.542969 21.507813 50.316406 21.226563 L 49.007813 19.535156 C 49.300781 19.164063 49.671875 18.683594 49.90625 18.429688 C 50.210938 18.074219 50.609375 17.929688 51.070313 17.917969 L 51.070313 17.617188 C 50.816406 17.636719 50.523438 17.648438 50.269531 17.648438 C 49.976563 17.648438 49.457031 17.625 49.332031 17.617188 L 49.332031 17.917969 C 49.535156 17.941406 49.613281 18.066406 49.613281 18.222656 C 49.613281 18.378906 49.515625 18.507813 49.46875 18.566406 L 48.859375 19.328125 L 48.097656 18.339844 C 48.011719 18.242188 48.011719 18.222656 48.011719 18.164063 C 48.011719 18.019531 48.15625 17.929688 48.351563 17.917969 L 48.351563 17.617188 L 47.296875 17.648438 C 47.089844 17.648438 46.628906 17.636719 46.367188 17.617188 L 46.367188 17.917969 C 47.050781 17.917969 47.0625 17.929688 47.519531 18.515625 L 48.488281 19.777344 C 48.03125 20.367188 48.03125 20.386719 47.570313 20.941406 C 47.101563 21.507813 46.523438 21.53125 46.316406 21.53125 L 46.316406 21.832031 C 46.574219 21.8125 46.875 21.804688 47.128906 21.804688 L 48.058594 21.832031 L 48.058594 21.53125 C 47.84375 21.5 47.777344 21.375 47.777344 21.226563 C 47.777344 21.011719 48.058594 20.6875 48.65625 19.984375 L 49.398438 20.960938 C 49.476563 21.070313 49.601563 21.226563 49.601563 21.285156 C 49.601563 21.375 49.515625 21.519531 49.253906 21.53125 L 49.253906 21.832031 L 50.308594 21.804688 C 50.574219 21.804688 50.953125 21.8125 51.246094 21.832031 Z M 51.246094 21.832031 "/>
<path style=" stroke:none;fill-rule:evenodd;fill:rgb(0%,0%,0%);fill-opacity:1;" d="M 57.671875 16.253906 C 57.671875 15.851563 57.335938 15.519531 56.933594 15.519531 C 56.53125 15.519531 56.195313 15.851563 56.195313 16.253906 C 56.195313 16.660156 56.53125 16.992188 56.933594 16.992188 C 57.335938 16.992188 57.671875 16.660156 57.671875 16.253906 Z M 57.671875 16.253906 "/>
<path style=" stroke:none;fill-rule:evenodd;fill:rgb(0%,0%,0%);fill-opacity:1;" d="M 68.496094 8.089844 C 68.496094 7.882813 68.496094 7.492188 68.050781 7.046875 C 67.703125 6.714844 67.371094 6.644531 66.621094 6.492188 C 66.246094 6.40625 65.644531 6.28125 65.644531 5.65625 C 65.644531 5.378906 65.894531 4.378906 67.21875 4.378906 C 67.800781 4.378906 68.371094 4.597656 68.511719 5.101563 C 67.898438 5.101563 67.871094 5.644531 67.871094 5.644531 C 67.871094 5.933594 68.136719 6.019531 68.261719 6.019531 C 68.457031 6.019531 68.84375 5.863281 68.84375 5.28125 C 68.84375 4.699219 68.316406 4.097656 67.230469 4.097656 C 65.410156 4.097656 64.921875 5.53125 64.921875 6.101563 C 64.921875 7.160156 65.953125 7.378906 66.269531 7.449219 C 66.507813 7.492188 66.882813 7.574219 66.964844 7.589844 C 67.148438 7.644531 67.773438 7.867188 67.773438 8.535156 C 67.773438 8.964844 67.382813 10.09375 65.769531 10.09375 C 65.480469 10.09375 64.433594 10.050781 64.15625 9.285156 C 64.714844 9.355469 64.992188 8.925781 64.992188 8.621094 C 64.992188 8.328125 64.796875 8.175781 64.519531 8.175781 C 64.214844 8.175781 63.808594 8.410156 63.808594 9.035156 C 63.808594 9.855469 64.644531 10.371094 65.757813 10.371094 C 67.871094 10.371094 68.496094 8.8125 68.496094 8.089844 Z M 68.496094 8.089844 "/>
<path style=" stroke:none;fill-rule:evenodd;fill:rgb(0%,0%,0%);fill-opacity:1;" d="M 74.910156 3.832031 C 74.910156 3.734375 74.824219 3.734375 74.792969 3.734375 C 74.695313 3.734375 74.6875 3.773438 74.65625 3.910156 C 74.519531 4.457031 74.335938 5.125 73.925781 5.125 C 73.71875 5.125 73.621094 4.996094 73.621094 4.675781 C 73.621094 4.457031 73.738281 4 73.816406 3.65625 L 74.089844 2.601563 C 74.121094 2.453125 74.21875 2.082031 74.257813 1.933594 C 74.304688 1.710938 74.402344 1.339844 74.402344 1.28125 C 74.402344 1.105469 74.265625 1.015625 74.121094 1.015625 C 74.070313 1.015625 73.816406 1.027344 73.738281 1.359375 L 73.003906 4.300781 C 72.996094 4.339844 72.605469 5.125 71.890625 5.125 C 71.378906 5.125 71.285156 4.683594 71.285156 4.324219 C 71.285156 3.773438 71.558594 3.003906 71.8125 2.328125 C 71.929688 2.035156 71.976563 1.894531 71.976563 1.710938 C 71.976563 1.269531 71.664063 0.910156 71.175781 0.910156 C 70.246094 0.910156 69.886719 2.328125 69.886719 2.414063 C 69.886719 2.511719 70.003906 2.511719 70.003906 2.511719 C 70.097656 2.511719 70.109375 2.492188 70.160156 2.335938 C 70.402344 1.488281 70.773438 1.125 71.144531 1.125 C 71.234375 1.125 71.390625 1.132813 71.390625 1.445313 C 71.390625 1.683594 71.285156 1.964844 71.222656 2.113281 C 70.863281 3.082031 70.65625 3.6875 70.65625 4.167969 C 70.65625 5.09375 71.332031 5.339844 71.859375 5.339844 C 72.503906 5.339844 72.859375 4.898438 73.023438 4.683594 C 73.132813 5.085938 73.472656 5.339844 73.894531 5.339844 C 74.238281 5.339844 74.460938 5.113281 74.617188 4.800781 C 74.785156 4.449219 74.910156 3.832031 74.910156 3.832031 Z M 74.910156 3.832031 "/>
<path style=" stroke:none;fill-rule:evenodd;fill:rgb(0%,0%,0%);fill-opacity:1;" d="M 88.351563 6.753906 C 88.351563 6.476563 88.089844 6.476563 87.894531 6.476563 L 80.3125 6.476563 C 80.121094 6.476563 79.855469 6.476563 79.855469 6.753906 C 79.855469 7.035156 80.121094 7.035156 80.3125 7.035156 L 87.894531 7.035156 C 88.089844 7.035156 88.351563 7.035156 88.351563 6.753906 Z M 88.351563 6.753906 "/>
<path style=" stroke:none;fill-rule:evenodd;fill:rgb(0%,0%,0%);fill-opacity:1;" d="M 98.402344 10.230469 L 98.402344 9.828125 L 97.972656 9.828125 C 96.746094 9.828125 96.707031 9.660156 96.707031 9.160156 L 96.707031 1.316406 C 96.707031 0.996094 96.707031 0.984375 96.425781 0.984375 C 96.09375 1.359375 95.398438 1.875 93.964844 1.875 L 93.964844 2.277344 C 94.285156 2.277344 94.980469 2.277344 95.746094 1.914063 L 95.746094 9.160156 C 95.746094 9.660156 95.707031 9.828125 94.480469 9.828125 L 94.050781 9.828125 L 94.050781 10.230469 C 94.425781 10.203125 95.773438 10.203125 96.234375 10.203125 C 96.691406 10.203125 98.027344 10.203125 98.402344 10.230469 Z M 98.402344 10.230469 "/>
<path style="fill:none;stroke-width:0.558005;stroke-linecap:square;stroke-linejoin:miter;stroke:rgb(0%,0%,0%);stroke-opacity:1;stroke-miterlimit:10;" d="M 63.125 16.207031 L 99.519531 16.207031 "/>
<path style=" stroke:none;fill-rule:evenodd;fill:rgb(0%,0%,0%);fill-opacity:1;" d="M 68.597656 27.089844 C 68.597656 26.882813 68.597656 26.492188 68.152344 26.046875 C 67.804688 25.714844 67.46875 25.644531 66.71875 25.492188 C 66.34375 25.40625 65.746094 25.28125 65.746094 24.65625 C 65.746094 24.378906 65.996094 23.378906 67.316406 23.378906 C 67.902344 23.378906 68.472656 23.601563 68.609375 24.101563 C 68 24.101563 67.972656 24.644531 67.972656 24.644531 C 67.972656 24.9375 68.234375 25.019531 68.359375 25.019531 C 68.554688 25.019531 68.945313 24.867188 68.945313 24.28125 C 68.945313 23.699219 68.417969 23.101563 67.332031 23.101563 C 65.511719 23.101563 65.023438 24.53125 65.023438 25.101563 C 65.023438 26.160156 66.050781 26.382813 66.371094 26.453125 C 66.609375 26.492188 66.984375 26.578125 67.066406 26.589844 C 67.246094 26.644531 67.875 26.867188 67.875 27.535156 C 67.875 27.96875 67.484375 29.09375 65.871094 29.09375 C 65.578125 29.09375 64.535156 29.050781 64.257813 28.289063 C 64.8125 28.355469 65.089844 27.925781 65.089844 27.621094 C 65.089844 27.328125 64.898438 27.175781 64.621094 27.175781 C 64.3125 27.175781 63.910156 27.410156 63.910156 28.039063 C 63.910156 28.859375 64.746094 29.371094 65.855469 29.371094 C 67.972656 29.371094 68.597656 27.8125 68.597656 27.089844 Z M 68.597656 27.089844 "/>
<path style=" stroke:none;fill-rule:evenodd;fill:rgb(0%,0%,0%);fill-opacity:1;" d="M 75.011719 23.835938 C 75.011719 23.734375 74.925781 23.734375 74.894531 23.734375 C 74.796875 23.734375 74.785156 23.773438 74.757813 23.914063 C 74.621094 24.460938 74.433594 25.125 74.023438 25.125 C 73.816406 25.125 73.722656 25 73.722656 24.675781 C 73.722656 24.460938 73.839844 24 73.917969 23.65625 L 74.191406 22.601563 C 74.21875 22.453125 74.316406 22.082031 74.355469 21.9375 C 74.40625 21.710938 74.503906 21.339844 74.503906 21.28125 C 74.503906 21.105469 74.367188 21.015625 74.21875 21.015625 C 74.171875 21.015625 73.917969 21.027344 73.839844 21.359375 L 73.105469 24.304688 C 73.09375 24.34375 72.703125 25.125 71.988281 25.125 C 71.480469 25.125 71.382813 24.683594 71.382813 24.324219 C 71.382813 23.773438 71.65625 23.003906 71.910156 22.328125 C 72.027344 22.035156 72.078125 21.898438 72.078125 21.710938 C 72.078125 21.273438 71.765625 20.910156 71.277344 20.910156 C 70.347656 20.910156 69.984375 22.328125 69.984375 22.414063 C 69.984375 22.515625 70.101563 22.515625 70.101563 22.515625 C 70.199219 22.515625 70.210938 22.492188 70.257813 22.335938 C 70.503906 21.488281 70.875 21.125 71.246094 21.125 C 71.332031 21.125 71.492188 21.132813 71.492188 21.445313 C 71.492188 21.683594 71.382813 21.964844 71.324219 22.113281 C 70.964844 23.082031 70.757813 23.6875 70.757813 24.167969 C 70.757813 25.09375 71.433594 25.339844 71.960938 25.339844 C 72.605469 25.339844 72.957031 24.898438 73.125 24.683594 C 73.230469 25.085938 73.574219 25.339844 73.996094 25.339844 C 74.335938 25.339844 74.5625 25.117188 74.71875 24.804688 C 74.886719 24.449219 75.011719 23.835938 75.011719 23.835938 Z M 75.011719 23.835938 "/>
<path style=" stroke:none;fill-rule:evenodd;fill:rgb(0%,0%,0%);fill-opacity:1;" d="M 88.734375 25.769531 C 88.734375 25.507813 88.496094 25.507813 88.289063 25.507813 L 84.449219 25.507813 L 84.449219 21.667969 C 84.449219 21.472656 84.449219 21.222656 84.199219 21.222656 C 83.933594 21.222656 83.933594 21.460938 83.933594 21.667969 L 83.933594 25.507813 L 80.097656 25.507813 C 79.902344 25.507813 79.652344 25.507813 79.652344 25.757813 C 79.652344 26.019531 79.886719 26.019531 80.097656 26.019531 L 83.933594 26.019531 L 83.933594 29.859375 C 83.933594 30.054688 83.933594 30.304688 84.183594 30.304688 C 84.449219 30.304688 84.449219 30.066406 84.449219 29.859375 L 84.449219 26.019531 L 88.289063 26.019531 C 88.484375 26.019531 88.734375 26.019531 88.734375 25.769531 Z M 88.734375 25.769531 "/>
<path style=" stroke:none;fill-rule:evenodd;fill:rgb(0%,0%,0%);fill-opacity:1;" d="M 98.300781 29.234375 L 98.300781 28.828125 L 97.871094 28.828125 C 96.648438 28.828125 96.605469 28.664063 96.605469 28.164063 L 96.605469 20.316406 C 96.605469 19.996094 96.605469 19.984375 96.328125 19.984375 C 95.996094 20.359375 95.300781 20.875 93.867188 20.875 L 93.867188 21.277344 C 94.1875 21.277344 94.882813 21.277344 95.644531 20.914063 L 95.644531 28.164063 C 95.644531 28.664063 95.605469 28.828125 94.378906 28.828125 L 93.949219 28.828125 L 93.949219 29.234375 C 94.324219 29.203125 95.675781 29.203125 96.132813 29.203125 C 96.589844 29.203125 97.925781 29.203125 98.300781 29.234375 Z M 98.300781 29.234375 "/>
</g>
</svg>
