<?xml version="1.0" encoding="UTF-8"?>
<svg xmlns="http://www.w3.org/2000/svg" xmlns:xlink="http://www.w3.org/1999/xlink" width="77pt" height="19pt" viewBox="0 0 77 19" version="1.1">
<g id="surface24">
<path style=" stroke:none;fill-rule:evenodd;fill:rgb(0%,0%,0%);fill-opacity:1;" d="M 7.605469 7.589844 C 7.621094 7.519531 7.644531 7.4375 7.644531 7.351563 C 7.644531 7.144531 7.480469 7.007813 7.269531 7.007813 C 7.144531 7.007813 6.855469 7.0625 6.742188 7.476563 L 5.714844 11.566406 C 5.644531 11.816406 5.644531 11.84375 5.535156 12 C 5.257813 12.386719 4.796875 12.859375 4.128906 12.859375 C 3.351563 12.859375 3.28125 12.09375 3.28125 11.71875 C 3.28125 10.929688 3.65625 9.855469 4.03125 8.855469 C 4.183594 8.453125 4.269531 8.257813 4.269531 7.980469 C 4.269531 7.394531 3.851563 6.867188 3.167969 6.867188 C 1.890625 6.867188 1.375 8.882813 1.375 8.996094 C 1.375 9.050781 1.429688 9.121094 1.527344 9.121094 C 1.652344 9.121094 1.667969 9.0625 1.722656 8.871094 C 2.054688 7.703125 2.585938 7.144531 3.128906 7.144531 C 3.253906 7.144531 3.488281 7.144531 3.488281 7.605469 C 3.488281 7.964844 3.335938 8.367188 3.128906 8.898438 C 2.445313 10.71875 2.445313 11.179688 2.445313 11.511719 C 2.445313 12.832031 3.390625 13.140625 4.085938 13.140625 C 4.492188 13.140625 4.992188 13.015625 5.476563 12.5 L 5.492188 12.511719 C 5.28125 13.335938 5.144531 13.875 4.65625 14.558594 C 4.28125 15.085938 3.738281 15.558594 3.058594 15.558594 C 2.890625 15.558594 2.222656 15.53125 2.015625 14.890625 C 2.054688 14.90625 2.15625 14.90625 2.15625 14.90625 C 2.570313 14.90625 2.851563 14.542969 2.851563 14.222656 C 2.851563 13.90625 2.585938 13.792969 2.375 13.792969 C 2.15625 13.792969 1.667969 13.960938 1.667969 14.640625 C 1.667969 15.351563 2.265625 15.835938 3.058594 15.835938 C 4.449219 15.835938 5.851563 14.558594 6.242188 13.015625 Z M 7.605469 7.589844 "/>
<path style=" stroke:none;fill-rule:evenodd;fill:rgb(0%,0%,0%);fill-opacity:1;" d="M 21.832031 8.242188 C 21.832031 7.980469 21.59375 7.980469 21.386719 7.980469 L 13.195313 7.980469 C 13 7.980469 12.75 7.980469 12.75 8.230469 C 12.75 8.492188 12.988281 8.492188 13.195313 8.492188 L 21.386719 8.492188 C 21.582031 8.492188 21.832031 8.492188 21.832031 8.242188 Z M 21.832031 10.832031 C 21.832031 10.566406 21.59375 10.566406 21.386719 10.566406 L 13.195313 10.566406 C 13 10.566406 12.75 10.566406 12.75 10.816406 C 12.75 11.082031 12.988281 11.082031 13.195313 11.082031 L 21.386719 11.082031 C 21.582031 11.082031 21.832031 11.082031 21.832031 10.832031 Z M 21.832031 10.832031 "/>
<path style=" stroke:none;fill-rule:evenodd;fill:rgb(0%,0%,0%);fill-opacity:1;" d="M 33.839844 11.011719 C 33.839844 10.941406 33.785156 10.886719 33.703125 10.886719 C 33.574219 10.886719 33.5625 10.957031 33.507813 11.164063 C 33.257813 12.125 33.003906 12.859375 32.449219 12.859375 C 32.03125 12.859375 32.03125 12.402344 32.03125 12.222656 C 32.03125 11.902344 32.074219 11.761719 32.214844 11.179688 L 32.492188 10.039063 L 33.0625 7.769531 C 33.160156 7.421875 33.160156 7.394531 33.160156 7.351563 C 33.160156 7.144531 32.992188 7.007813 32.785156 7.007813 C 32.378906 7.007813 32.285156 7.351563 32.199219 7.703125 L 31.210938 11.71875 C 31.210938 11.71875 30.65625 12.859375 29.640625 12.859375 C 28.917969 12.859375 28.78125 12.234375 28.78125 11.71875 C 28.78125 10.929688 29.167969 9.816406 29.53125 8.882813 C 29.695313 8.4375 29.765625 8.257813 29.765625 7.980469 C 29.765625 7.382813 29.335938 6.867188 28.667969 6.867188 C 27.390625 6.867188 26.875 8.882813 26.875 8.996094 C 26.875 9.050781 26.929688 9.121094 27.027344 9.121094 C 27.152344 9.121094 27.164063 9.0625 27.222656 8.871094 C 27.554688 7.671875 28.097656 7.144531 28.625 7.144531 C 28.765625 7.144531 28.988281 7.160156 28.988281 7.605469 C 28.988281 7.964844 28.835938 8.367188 28.625 8.898438 C 28.015625 10.550781 27.945313 11.082031 27.945313 11.5 C 27.945313 12.917969 29.015625 13.140625 29.585938 13.140625 C 30.476563 13.140625 30.960938 12.527344 31.238281 12.195313 C 31.421875 12.972656 32.089844 13.140625 32.421875 13.140625 C 32.867188 13.140625 33.199219 12.847656 33.425781 12.375 C 33.660156 11.875 33.839844 11.054688 33.839844 11.011719 Z M 33.839844 11.011719 "/>
<path style=" stroke:none;fill-rule:evenodd;fill:rgb(0%,0%,0%);fill-opacity:1;" d="M 40.066406 9.523438 C 40.066406 9.121094 39.734375 8.785156 39.332031 8.785156 C 38.925781 8.785156 38.59375 9.121094 38.59375 9.523438 C 38.59375 9.925781 38.925781 10.261719 39.332031 10.261719 C 39.734375 10.261719 40.066406 9.925781 40.066406 9.523438 Z M 40.066406 9.523438 "/>
<path style=" stroke:none;fill-rule:evenodd;fill:rgb(0%,0%,0%);fill-opacity:1;" d="M 50.210938 11.484375 C 50.210938 11.398438 50.125 11.332031 50.070313 11.332031 C 50.03125 11.332031 50.015625 11.34375 49.890625 11.46875 C 49 12.652344 47.679688 12.859375 47.148438 12.859375 C 46.359375 12.859375 45.941406 12.234375 45.941406 11.207031 C 45.941406 11.011719 45.941406 10.664063 46.148438 9.773438 L 46.886719 9.773438 C 47.261719 9.773438 48.207031 9.746094 48.875 9.496094 C 49.929688 9.09375 50.03125 8.285156 50.03125 8.035156 C 50.03125 7.421875 49.5 6.867188 48.582031 6.867188 C 47.125 6.867188 45.023438 8.1875 45.023438 10.664063 C 45.023438 12.125 45.859375 13.140625 47.125 13.140625 C 49.015625 13.140625 50.210938 11.664063 50.210938 11.484375 Z M 49.613281 8.035156 C 49.613281 9.496094 47.386719 9.496094 46.804688 9.496094 L 46.21875 9.496094 C 46.816406 7.351563 48.136719 7.144531 48.582031 7.144531 C 49.195313 7.144531 49.613281 7.507813 49.613281 8.035156 Z M 49.613281 8.035156 "/>
<path style=" stroke:none;fill-rule:evenodd;fill:rgb(0%,0%,0%);fill-opacity:1;" d="M 56.007813 5.800781 C 56.007813 5.703125 55.917969 5.703125 55.890625 5.703125 C 55.792969 5.703125 55.78125 5.742188 55.753906 5.878906 C 55.617188 6.425781 55.429688 7.09375 55.019531 7.09375 C 54.8125 7.09375 54.714844 6.964844 54.714844 6.640625 C 54.714844 6.425781 54.832031 5.96875 54.910156 5.625 L 55.183594 4.570313 C 55.214844 4.421875 55.3125 4.050781 55.351563 3.902344 C 55.402344 3.679688 55.5 3.308594 55.5 3.25 C 55.5 3.074219 55.363281 2.984375 55.214844 2.984375 C 55.167969 2.984375 54.910156 2.996094 54.832031 3.328125 L 54.097656 6.269531 C 54.089844 6.308594 53.699219 7.09375 52.984375 7.09375 C 52.476563 7.09375 52.378906 6.652344 52.378906 6.289063 C 52.378906 5.742188 52.652344 4.972656 52.90625 4.296875 C 53.023438 4.003906 53.074219 3.863281 53.074219 3.679688 C 53.074219 3.238281 52.761719 2.878906 52.273438 2.878906 C 51.34375 2.878906 50.980469 4.296875 50.980469 4.382813 C 50.980469 4.480469 51.097656 4.480469 51.097656 4.480469 C 51.195313 4.480469 51.207031 4.460938 51.253906 4.304688 C 51.5 3.457031 51.871094 3.09375 52.242188 3.09375 C 52.328125 3.09375 52.488281 3.101563 52.488281 3.414063 C 52.488281 3.652344 52.378906 3.933594 52.320313 4.082031 C 51.960938 5.046875 51.753906 5.65625 51.753906 6.132813 C 51.753906 7.0625 52.429688 7.308594 52.957031 7.308594 C 53.601563 7.308594 53.953125 6.867188 54.121094 6.652344 C 54.226563 7.054688 54.570313 7.308594 54.988281 7.308594 C 55.332031 7.308594 55.558594 7.082031 55.714844 6.769531 C 55.878906 6.417969 56.007813 5.800781 56.007813 5.800781 Z M 56.007813 5.800781 "/>
<path style=" stroke:none;fill-rule:evenodd;fill:rgb(0%,0%,0%);fill-opacity:1;" d="M 59.894531 6.113281 C 59.894531 5.746094 59.507813 5.601563 59.152344 5.601563 C 58.785156 5.601563 58.46875 5.746094 58.160156 6.097656 C 58.03125 5.671875 57.605469 5.601563 57.433594 5.601563 C 57.175781 5.601563 57 5.761719 56.886719 5.957031 C 56.722656 6.234375 56.625 6.640625 56.625 6.675781 C 56.625 6.765625 56.722656 6.765625 56.746094 6.765625 C 56.84375 6.765625 56.851563 6.746094 56.902344 6.554688 C 57.003906 6.128906 57.140625 5.796875 57.414063 5.796875 C 57.597656 5.796875 57.644531 5.953125 57.644531 6.140625 C 57.644531 6.273438 57.582031 6.535156 57.535156 6.726563 L 57.378906 7.359375 L 57.152344 8.257813 C 57.125 8.347656 57.082031 8.523438 57.082031 8.546875 C 57.082031 8.699219 57.210938 8.769531 57.324219 8.769531 C 57.425781 8.769531 57.566406 8.707031 57.625 8.566406 C 57.636719 8.523438 57.714844 8.214844 57.757813 8.039063 L 57.949219 7.28125 C 57.957031 7.238281 58.117188 6.605469 58.128906 6.570313 C 58.144531 6.515625 58.347656 6.164063 58.574219 5.992188 C 58.652344 5.9375 58.839844 5.796875 59.144531 5.796875 C 59.214844 5.796875 59.390625 5.804688 59.53125 5.894531 C 59.304688 5.957031 59.222656 6.15625 59.222656 6.28125 C 59.222656 6.4375 59.339844 6.542969 59.503906 6.542969 C 59.664063 6.542969 59.894531 6.40625 59.894531 6.113281 Z M 59.894531 6.113281 "/>
<path style=" stroke:none;fill-rule:evenodd;fill:rgb(0%,0%,0%);fill-opacity:1;" d="M 62.574219 4.753906 C 62.574219 4.472656 62.339844 4.238281 62.054688 4.238281 C 61.773438 4.238281 61.535156 4.472656 61.535156 4.753906 C 61.535156 5.039063 61.773438 5.273438 62.054688 5.273438 C 62.339844 5.273438 62.574219 5.039063 62.574219 4.753906 Z M 62.574219 4.753906 "/>
<path style=" stroke:none;fill-rule:evenodd;fill:rgb(0%,0%,0%);fill-opacity:1;" d="M 68.707031 5.800781 C 68.707031 5.703125 68.617188 5.703125 68.589844 5.703125 C 68.492188 5.703125 68.480469 5.742188 68.453125 5.878906 C 68.316406 6.425781 68.128906 7.09375 67.71875 7.09375 C 67.511719 7.09375 67.414063 6.964844 67.414063 6.640625 C 67.414063 6.425781 67.53125 5.96875 67.609375 5.625 L 67.882813 4.570313 C 67.914063 4.421875 68.011719 4.050781 68.050781 3.902344 C 68.101563 3.679688 68.199219 3.308594 68.199219 3.25 C 68.199219 3.074219 68.0625 2.984375 67.914063 2.984375 C 67.867188 2.984375 67.609375 2.996094 67.53125 3.328125 L 66.796875 6.269531 C 66.789063 6.308594 66.398438 7.09375 65.683594 7.09375 C 65.175781 7.09375 65.078125 6.652344 65.078125 6.289063 C 65.078125 5.742188 65.351563 4.972656 65.605469 4.296875 C 65.722656 4.003906 65.773438 3.863281 65.773438 3.679688 C 65.773438 3.238281 65.460938 2.878906 64.972656 2.878906 C 64.042969 2.878906 63.679688 4.296875 63.679688 4.382813 C 63.679688 4.480469 63.796875 4.480469 63.796875 4.480469 C 63.894531 4.480469 63.90625 4.460938 63.953125 4.304688 C 64.199219 3.457031 64.570313 3.09375 64.941406 3.09375 C 65.027344 3.09375 65.1875 3.101563 65.1875 3.414063 C 65.1875 3.652344 65.078125 3.933594 65.019531 4.082031 C 64.660156 5.046875 64.453125 5.65625 64.453125 6.132813 C 64.453125 7.0625 65.128906 7.308594 65.65625 7.308594 C 66.300781 7.308594 66.652344 6.867188 66.820313 6.652344 C 66.925781 7.054688 67.269531 7.308594 67.6875 7.308594 C 68.03125 7.308594 68.257813 7.082031 68.414063 6.769531 C 68.578125 6.417969 68.707031 5.800781 68.707031 5.800781 Z M 68.707031 5.800781 "/>
<path style=" stroke:none;fill-rule:evenodd;fill:rgb(0%,0%,0%);fill-opacity:1;" d="M 74.359375 5.390625 L 74.546875 4.046875 C 74.546875 3.949219 74.464844 3.949219 74.335938 3.949219 L 70.015625 3.949219 C 69.839844 3.949219 69.824219 3.949219 69.773438 4.097656 L 69.332031 5.339844 C 69.324219 5.367188 69.296875 5.429688 69.296875 5.464844 C 69.296875 5.492188 69.3125 5.566406 69.417969 5.566406 C 69.507813 5.566406 69.523438 5.53125 69.5625 5.394531 C 69.972656 4.269531 70.203125 4.203125 71.273438 4.203125 L 71.570313 4.203125 C 71.78125 4.203125 71.785156 4.207031 71.785156 4.269531 C 71.785156 4.269531 71.785156 4.3125 71.757813 4.417969 L 70.828125 8.117188 C 70.765625 8.375 70.746094 8.445313 70.007813 8.445313 C 69.753906 8.445313 69.691406 8.445313 69.691406 8.601563 C 69.691406 8.625 69.703125 8.699219 69.8125 8.699219 C 70.007813 8.699219 70.21875 8.679688 70.414063 8.679688 L 71.019531 8.671875 L 71.652344 8.679688 C 71.84375 8.6875 72.054688 8.699219 72.242188 8.699219 C 72.300781 8.699219 72.40625 8.699219 72.40625 8.546875 C 72.40625 8.445313 72.335938 8.445313 72.117188 8.445313 C 71.984375 8.445313 71.84375 8.441406 71.710938 8.433594 C 71.46875 8.414063 71.457031 8.382813 71.457031 8.300781 C 71.457031 8.25 71.457031 8.234375 71.484375 8.136719 L 72.414063 4.449219 C 72.460938 4.246094 72.476563 4.222656 72.628906 4.207031 C 72.664063 4.203125 72.910156 4.203125 73.050781 4.203125 C 73.480469 4.203125 73.664063 4.203125 73.839844 4.257813 C 74.15625 4.355469 74.167969 4.558594 74.167969 4.8125 C 74.167969 4.925781 74.167969 5.015625 74.121094 5.382813 L 74.105469 5.460938 C 74.105469 5.53125 74.15625 5.566406 74.226563 5.566406 C 74.332031 5.566406 74.34375 5.503906 74.359375 5.390625 Z M 74.359375 5.390625 "/>
</g>
</svg>
