<?xml version="1.0" encoding="UTF-8"?>
<svg xmlns="http://www.w3.org/2000/svg" xmlns:xlink="http://www.w3.org/1999/xlink" width="256pt" height="54pt" viewBox="0 0 256 54" version="1.1">
<g id="surface6">
<path style=" stroke:none;fill-rule:evenodd;fill:rgb(0%,0%,0%);fill-opacity:1;" d="M 8.34375 28.152344 C 8.34375 28.085938 8.289063 28.027344 8.203125 28.027344 C 8.078125 28.027344 8.066406 28.097656 8.007813 28.304688 C 7.757813 29.265625 7.507813 30.003906 6.953125 30.003906 C 6.535156 30.003906 6.535156 29.542969 6.535156 29.363281 C 6.535156 29.042969 6.578125 28.90625 6.714844 28.320313 L 6.992188 27.179688 L 7.5625 24.914063 C 7.660156 24.566406 7.660156 24.539063 7.660156 24.496094 C 7.660156 24.289063 7.496094 24.148438 7.285156 24.148438 C 6.882813 24.148438 6.785156 24.496094 6.703125 24.84375 L 5.714844 28.863281 C 5.714844 28.863281 5.15625 30.003906 4.144531 30.003906 C 3.421875 30.003906 3.28125 29.375 3.28125 28.863281 C 3.28125 28.070313 3.671875 26.957031 4.03125 26.023438 C 4.199219 25.582031 4.269531 25.398438 4.269531 25.121094 C 4.269531 24.523438 3.835938 24.007813 3.167969 24.007813 C 1.890625 24.007813 1.375 26.023438 1.375 26.136719 C 1.375 26.191406 1.429688 26.261719 1.527344 26.261719 C 1.652344 26.261719 1.667969 26.207031 1.722656 26.011719 C 2.054688 24.816406 2.601563 24.289063 3.128906 24.289063 C 3.265625 24.289063 3.488281 24.300781 3.488281 24.746094 C 3.488281 25.109375 3.335938 25.511719 3.128906 26.039063 C 2.515625 27.695313 2.445313 28.222656 2.445313 28.640625 C 2.445313 30.058594 3.515625 30.28125 4.085938 30.28125 C 4.976563 30.28125 5.464844 29.667969 5.742188 29.335938 C 5.921875 30.113281 6.589844 30.28125 6.925781 30.28125 C 7.367188 30.28125 7.703125 29.988281 7.925781 29.515625 C 8.164063 29.015625 8.34375 28.195313 8.34375 28.152344 Z M 8.34375 28.152344 "/>
<path style=" stroke:none;fill-rule:evenodd;fill:rgb(0%,0%,0%);fill-opacity:1;" d="M 13.320313 33.523438 C 13.320313 33.480469 13.320313 33.453125 13.082031 33.214844 C 11.691406 31.8125 10.914063 29.515625 10.914063 26.679688 C 10.914063 23.980469 11.566406 21.660156 13.179688 20.015625 C 13.320313 19.890625 13.320313 19.863281 13.320313 19.824219 C 13.320313 19.738281 13.25 19.710938 13.195313 19.710938 C 13.015625 19.710938 11.875 20.710938 11.191406 22.078125 C 10.484375 23.480469 10.164063 24.96875 10.164063 26.679688 C 10.164063 27.917969 10.359375 29.570313 11.082031 31.058594 C 11.902344 32.730469 13.042969 33.632813 13.195313 33.632813 C 13.25 33.632813 13.320313 33.605469 13.320313 33.523438 Z M 13.320313 33.523438 "/>
<path style=" stroke:none;fill-rule:evenodd;fill:rgb(0%,0%,0%);fill-opacity:1;" d="M 18.328125 28.152344 C 18.328125 28.070313 18.273438 28.027344 18.1875 28.027344 C 18.1875 28.027344 18.105469 28.027344 18.078125 28.085938 C 18.078125 28.085938 18.050781 28.113281 17.953125 28.335938 C 17.660156 29.03125 17.019531 30.003906 16.214844 30.003906 C 15.796875 30.003906 15.769531 29.65625 15.769531 29.351563 C 15.769531 29.351563 15.769531 29.070313 15.8125 28.90625 L 16.894531 24.550781 L 18.175781 24.550781 C 18.4375 24.550781 18.578125 24.550781 18.578125 24.300781 C 18.578125 24.148438 18.496094 24.148438 18.21875 24.148438 L 16.992188 24.148438 L 17.507813 22.117188 C 17.5625 21.921875 17.5625 21.894531 17.5625 21.796875 C 17.5625 21.574219 17.382813 21.449219 17.203125 21.449219 C 17.089844 21.449219 16.769531 21.492188 16.660156 21.9375 L 16.117188 24.148438 L 14.808594 24.148438 C 14.53125 24.148438 14.40625 24.148438 14.40625 24.414063 C 14.40625 24.550781 14.503906 24.550781 14.765625 24.550781 L 16.003906 24.550781 L 15.085938 28.222656 C 14.976563 28.710938 14.933594 28.847656 14.933594 29.03125 C 14.933594 29.683594 15.394531 30.28125 16.171875 30.28125 C 17.578125 30.28125 18.328125 28.25 18.328125 28.152344 Z M 18.328125 28.152344 "/>
<path style=" stroke:none;fill-rule:evenodd;fill:rgb(0%,0%,0%);fill-opacity:1;" d="M 22.921875 26.679688 C 22.921875 25.621094 22.78125 23.898438 22.003906 22.285156 C 21.183594 20.617188 20.042969 19.710938 19.890625 19.710938 C 19.835938 19.710938 19.765625 19.738281 19.765625 19.824219 C 19.765625 19.863281 19.765625 19.890625 20 20.128906 C 21.390625 21.535156 22.171875 23.828125 22.171875 26.664063 C 22.171875 29.363281 21.515625 31.6875 19.90625 33.328125 C 19.765625 33.453125 19.765625 33.480469 19.765625 33.523438 C 19.765625 33.605469 19.835938 33.632813 19.890625 33.632813 C 20.070313 33.632813 21.210938 32.632813 21.890625 31.269531 C 22.601563 29.851563 22.921875 28.347656 22.921875 26.679688 Z M 22.921875 26.679688 "/>
<path style=" stroke:none;fill-rule:evenodd;fill:rgb(0%,0%,0%);fill-opacity:1;" d="M 38.03125 25.386719 C 38.03125 25.121094 37.792969 25.121094 37.585938 25.121094 L 29.394531 25.121094 C 29.203125 25.121094 28.953125 25.121094 28.953125 25.371094 C 28.953125 25.636719 29.1875 25.636719 29.394531 25.636719 L 37.585938 25.636719 C 37.78125 25.636719 38.03125 25.636719 38.03125 25.386719 Z M 38.03125 27.972656 C 38.03125 27.707031 37.792969 27.707031 37.585938 27.707031 L 29.394531 27.707031 C 29.203125 27.707031 28.953125 27.707031 28.953125 27.960938 C 28.953125 28.222656 29.1875 28.222656 29.394531 28.222656 L 37.585938 28.222656 C 37.78125 28.222656 38.03125 28.222656 38.03125 27.972656 Z M 38.03125 27.972656 "/>
<path style=" stroke:none;fill-rule:evenodd;fill:rgb(0%,0%,0%);fill-opacity:1;" d="M 49.375 28.152344 C 49.375 28.085938 49.320313 28.027344 49.234375 28.027344 C 49.109375 28.027344 49.097656 28.085938 49.042969 28.304688 C 48.847656 29.03125 48.554688 30.003906 47.84375 30.003906 C 47.566406 30.003906 47.386719 29.863281 47.386719 29.335938 C 47.386719 29.070313 47.441406 28.765625 47.496094 28.554688 C 47.550781 28.304688 47.550781 28.292969 47.550781 28.125 C 47.550781 27.304688 46.816406 26.847656 45.535156 26.679688 C 46.035156 26.375 46.539063 25.832031 46.730469 25.621094 C 47.527344 24.734375 48.066406 24.289063 48.707031 24.289063 C 49.027344 24.289063 49.109375 24.371094 49.207031 24.453125 C 48.691406 24.507813 48.5 24.871094 48.5 25.148438 C 48.5 25.484375 48.761719 25.59375 48.957031 25.59375 C 49.332031 25.59375 49.667969 25.273438 49.667969 24.828125 C 49.667969 24.425781 49.347656 24.007813 48.722656 24.007813 C 47.957031 24.007813 47.332031 24.550781 46.34375 25.664063 C 46.203125 25.832031 45.691406 26.359375 45.175781 26.554688 L 46.605469 20.835938 C 46.621094 20.78125 46.648438 20.699219 46.648438 20.628906 C 46.648438 20.492188 46.480469 20.492188 46.480469 20.492188 L 45.714844 20.558594 C 45.480469 20.574219 45.273438 20.601563 45.019531 20.617188 C 44.6875 20.644531 44.589844 20.65625 44.589844 20.90625 C 44.589844 21.046875 44.730469 21.046875 44.867188 21.046875 C 45.578125 21.046875 45.578125 21.171875 45.578125 21.3125 C 45.578125 21.367188 45.578125 21.394531 45.507813 21.644531 L 43.519531 29.601563 C 43.464844 29.808594 43.464844 29.835938 43.464844 29.921875 C 43.464844 30.226563 43.699219 30.28125 43.839844 30.28125 C 44.230469 30.28125 44.3125 29.976563 44.425781 29.542969 C 44.550781 29.03125 44.492188 29.226563 45.078125 26.945313 C 46.078125 27.054688 46.675781 27.472656 46.675781 28.140625 C 46.675781 28.222656 46.675781 28.277344 46.636719 28.488281 C 46.578125 28.695313 46.578125 28.863281 46.578125 28.933594 C 46.578125 29.738281 47.105469 30.28125 47.816406 30.28125 C 48.457031 30.28125 48.789063 29.695313 48.902344 29.503906 C 49.195313 28.988281 49.375 28.210938 49.375 28.152344 Z M 49.375 28.152344 "/>
<path style=" stroke:none;fill-rule:evenodd;fill:rgb(0%,0%,0%);fill-opacity:1;" d="M 57.800781 26.757813 C 58.105469 26.757813 58.191406 26.757813 58.191406 26.5625 C 58.21875 16.8125 59.34375 8.722656 64.210938 1.921875 C 64.308594 1.792969 64.308594 1.769531 64.308594 1.738281 C 64.308594 1.601563 64.210938 1.601563 63.988281 1.601563 C 63.765625 1.601563 63.738281 1.601563 63.710938 1.628906 C 63.65625 1.667969 61.890625 3.699219 60.484375 6.496094 C 58.648438 10.167969 57.496094 14.382813 56.980469 19.441406 C 56.9375 19.875 56.644531 22.765625 56.644531 26.0625 L 56.644531 26.605469 C 56.660156 26.757813 56.742188 26.757813 57.035156 26.757813 Z M 57.800781 26.757813 "/>
<path style=" stroke:none;fill-rule:evenodd;fill:rgb(0%,0%,0%);fill-opacity:1;" d="M 57.035156 26.546875 C 56.742188 26.546875 56.660156 26.546875 56.644531 26.699219 L 56.644531 27.242188 C 56.644531 35.738281 58.160156 40.71875 58.59375 42.125 C 59.539063 45.210938 61.082031 48.464844 63.40625 51.328125 C 63.613281 51.578125 63.667969 51.648438 63.722656 51.675781 C 63.753906 51.691406 63.765625 51.703125 63.988281 51.703125 C 64.210938 51.703125 64.308594 51.703125 64.308594 51.566406 C 64.308594 51.539063 64.308594 51.511719 64.226563 51.382813 C 59.59375 44.960938 58.203125 37.226563 58.191406 26.742188 C 58.191406 26.546875 58.105469 26.546875 57.800781 26.546875 Z M 57.035156 26.546875 "/>
<path style=" stroke:none;fill-rule:evenodd;fill:rgb(0%,0%,0%);fill-opacity:1;" d="M 70.613281 28.625 C 70.613281 28.542969 70.527344 28.472656 70.472656 28.472656 C 70.433594 28.472656 70.417969 28.488281 70.292969 28.613281 C 69.402344 29.792969 68.082031 30.003906 67.550781 30.003906 C 66.761719 30.003906 66.34375 29.375 66.34375 28.347656 C 66.34375 28.152344 66.34375 27.804688 66.550781 26.914063 L 67.289063 26.914063 C 67.664063 26.914063 68.609375 26.886719 69.277344 26.636719 C 70.332031 26.234375 70.433594 25.429688 70.433594 25.175781 C 70.433594 24.566406 69.902344 24.007813 68.984375 24.007813 C 67.527344 24.007813 65.425781 25.328125 65.425781 27.804688 C 65.425781 29.265625 66.261719 30.28125 67.527344 30.28125 C 69.417969 30.28125 70.613281 28.808594 70.613281 28.625 Z M 70.015625 25.175781 C 70.015625 26.636719 67.789063 26.636719 67.207031 26.636719 L 66.621094 26.636719 C 67.21875 24.496094 68.539063 24.289063 68.984375 24.289063 C 69.597656 24.289063 70.015625 24.648438 70.015625 25.175781 Z M 70.015625 25.175781 "/>
<path style=" stroke:none;fill-rule:evenodd;fill:rgb(0%,0%,0%);fill-opacity:1;" d="M 75.621094 33.523438 C 75.621094 33.480469 75.621094 33.453125 75.382813 33.214844 C 73.992188 31.8125 73.214844 29.515625 73.214844 26.679688 C 73.214844 23.980469 73.867188 21.660156 75.480469 20.015625 C 75.621094 19.890625 75.621094 19.863281 75.621094 19.824219 C 75.621094 19.738281 75.550781 19.710938 75.496094 19.710938 C 75.3125 19.710938 74.171875 20.710938 73.492188 22.078125 C 72.78125 23.480469 72.460938 24.96875 72.460938 26.679688 C 72.460938 27.917969 72.65625 29.570313 73.378906 31.058594 C 74.199219 32.730469 75.339844 33.632813 75.496094 33.632813 C 75.550781 33.632813 75.621094 33.605469 75.621094 33.523438 Z M 75.621094 33.523438 "/>
<path style=" stroke:none;fill-rule:evenodd;fill:rgb(0%,0%,0%);fill-opacity:1;" d="M 80.628906 28.152344 C 80.628906 28.070313 80.570313 28.027344 80.488281 28.027344 C 80.488281 28.027344 80.402344 28.027344 80.378906 28.085938 C 80.378906 28.085938 80.347656 28.113281 80.25 28.335938 C 79.960938 29.03125 79.320313 30.003906 78.511719 30.003906 C 78.097656 30.003906 78.066406 29.65625 78.066406 29.351563 C 78.066406 29.351563 78.066406 29.070313 78.109375 28.90625 L 79.195313 24.550781 L 80.472656 24.550781 C 80.738281 24.550781 80.878906 24.550781 80.878906 24.300781 C 80.878906 24.148438 80.792969 24.148438 80.515625 24.148438 L 79.292969 24.148438 L 79.808594 22.117188 C 79.863281 21.921875 79.863281 21.894531 79.863281 21.796875 C 79.863281 21.574219 79.683594 21.449219 79.5 21.449219 C 79.390625 21.449219 79.070313 21.492188 78.957031 21.9375 L 78.417969 24.148438 L 77.109375 24.148438 C 76.832031 24.148438 76.707031 24.148438 76.707031 24.414063 C 76.707031 24.550781 76.800781 24.550781 77.066406 24.550781 L 78.304688 24.550781 L 77.386719 28.222656 C 77.277344 28.710938 77.234375 28.847656 77.234375 29.03125 C 77.234375 29.683594 77.691406 30.28125 78.472656 30.28125 C 79.875 30.28125 80.628906 28.25 80.628906 28.152344 Z M 80.628906 28.152344 "/>
<path style=" stroke:none;fill-rule:evenodd;fill:rgb(0%,0%,0%);fill-opacity:1;" d="M 85.320313 26.679688 C 85.320313 25.621094 85.183594 23.898438 84.402344 22.285156 C 83.582031 20.617188 82.441406 19.710938 82.289063 19.710938 C 82.234375 19.710938 82.164063 19.738281 82.164063 19.824219 C 82.164063 19.863281 82.164063 19.890625 82.402344 20.128906 C 83.792969 21.535156 84.570313 23.828125 84.570313 26.664063 C 84.570313 29.363281 83.917969 31.6875 82.304688 33.328125 C 82.164063 33.453125 82.164063 33.480469 82.164063 33.523438 C 82.164063 33.605469 82.234375 33.632813 82.289063 33.632813 C 82.46875 33.632813 83.609375 32.632813 84.292969 31.269531 C 85 29.851563 85.320313 28.347656 85.320313 26.679688 Z M 85.320313 26.679688 "/>
<path style=" stroke:none;fill-rule:evenodd;fill:rgb(0%,0%,0%);fill-opacity:1;" d="M 99.632813 26.679688 C 99.632813 26.414063 99.394531 26.414063 99.1875 26.414063 L 95.347656 26.414063 L 95.347656 22.578125 C 95.347656 22.382813 95.347656 22.132813 95.097656 22.132813 C 94.832031 22.132813 94.832031 22.367188 94.832031 22.578125 L 94.832031 26.414063 L 90.992188 26.414063 C 90.800781 26.414063 90.550781 26.414063 90.550781 26.664063 C 90.550781 26.929688 90.785156 26.929688 90.992188 26.929688 L 94.832031 26.929688 L 94.832031 30.769531 C 94.832031 30.960938 94.832031 31.210938 95.082031 31.210938 C 95.347656 31.210938 95.347656 30.976563 95.347656 30.769531 L 95.347656 26.929688 L 99.1875 26.929688 C 99.382813 26.929688 99.632813 26.929688 99.632813 26.679688 Z M 99.632813 26.679688 "/>
<path style=" stroke:none;fill-rule:evenodd;fill:rgb(0%,0%,0%);fill-opacity:1;" d="M 112.902344 20.742188 L 112.902344 20.339844 L 112.46875 20.339844 C 111.246094 20.339844 111.203125 20.171875 111.203125 19.671875 L 111.203125 11.828125 C 111.203125 11.507813 111.203125 11.496094 110.925781 11.496094 C 110.59375 11.871094 109.898438 12.386719 108.464844 12.386719 L 108.464844 12.789063 C 108.785156 12.789063 109.480469 12.789063 110.242188 12.425781 L 110.242188 19.671875 C 110.242188 20.171875 110.203125 20.339844 108.980469 20.339844 L 108.546875 20.339844 L 108.546875 20.742188 C 108.921875 20.714844 110.273438 20.714844 110.730469 20.714844 C 111.191406 20.714844 112.527344 20.714844 112.902344 20.742188 Z M 112.902344 20.742188 "/>
<path style="fill:none;stroke-width:0.557992;stroke-linecap:square;stroke-linejoin:miter;stroke:rgb(0%,0%,0%);stroke-opacity:1;stroke-miterlimit:10;" d="M 104.691406 26.679688 L 116.558594 26.679688 "/>
<path style=" stroke:none;fill-rule:evenodd;fill:rgb(0%,0%,0%);fill-opacity:1;" d="M 113.890625 33.121094 L 114.292969 30.660156 C 114.320313 30.535156 114.320313 30.507813 114.320313 30.464844 C 114.320313 30.3125 114.238281 30.3125 113.960938 30.3125 L 106.355469 30.3125 C 106.03125 30.3125 106.019531 30.328125 105.9375 30.578125 L 105.085938 33.082031 C 105.074219 33.109375 105.03125 33.273438 105.03125 33.273438 C 105.03125 33.34375 105.085938 33.414063 105.171875 33.414063 C 105.28125 33.414063 105.3125 33.359375 105.367188 33.179688 C 105.949219 31.496094 106.242188 30.71875 108.09375 30.71875 L 109.023438 30.71875 C 109.359375 30.71875 109.496094 30.71875 109.496094 30.867188 C 109.496094 30.910156 109.496094 30.9375 109.425781 31.1875 L 107.566406 38.65625 C 107.425781 39.199219 107.398438 39.339844 105.921875 39.339844 C 105.574219 39.339844 105.476563 39.339844 105.476563 39.601563 C 105.476563 39.742188 105.628906 39.742188 105.699219 39.742188 C 106.046875 39.742188 106.410156 39.714844 106.757813 39.714844 L 108.925781 39.714844 C 109.273438 39.714844 109.652344 39.742188 109.996094 39.742188 C 110.152344 39.742188 110.289063 39.742188 110.289063 39.476563 C 110.289063 39.339844 110.191406 39.339844 109.828125 39.339844 C 108.578125 39.339844 108.578125 39.214844 108.578125 39.003906 C 108.578125 39.003906 108.578125 38.894531 108.632813 38.671875 L 110.5 31.257813 C 110.582031 30.925781 110.609375 30.800781 110.816406 30.742188 C 110.929688 30.71875 111.386719 30.71875 111.679688 30.71875 C 113.070313 30.71875 113.722656 30.773438 113.722656 31.855469 C 113.722656 32.066406 113.667969 32.59375 113.585938 33.109375 L 113.570313 33.273438 C 113.570313 33.332031 113.625 33.414063 113.710938 33.414063 C 113.851563 33.414063 113.851563 33.34375 113.890625 33.121094 Z M 113.890625 33.121094 "/>
<path style=" stroke:none;fill-rule:evenodd;fill:rgb(0%,0%,0%);fill-opacity:1;" d="M 115.476563 35.730469 C 115.476563 35.53125 115.339844 35.375 115.113281 35.375 C 114.851563 35.375 114.585938 35.632813 114.585938 35.894531 C 114.585938 36.082031 114.722656 36.246094 114.957031 36.246094 C 115.183594 36.246094 115.476563 36.023438 115.476563 35.730469 Z M 115.5625 40.445313 C 115.5625 40.34375 115.476563 40.34375 115.445313 40.34375 C 115.347656 40.34375 115.347656 40.375 115.300781 40.523438 C 115.125 41.136719 114.800781 41.734375 114.304688 41.734375 C 114.136719 41.734375 114.066406 41.636719 114.066406 41.414063 C 114.066406 41.167969 114.125 41.03125 114.351563 40.433594 L 114.734375 39.40625 C 114.851563 39.125 114.851563 39.101563 114.949219 38.839844 C 115.027344 38.644531 115.074219 38.507813 115.074219 38.320313 C 115.074219 37.882813 114.761719 37.519531 114.273438 37.519531 C 113.351563 37.519531 112.984375 38.9375 112.984375 39.023438 C 112.984375 39.125 113.101563 39.125 113.101563 39.125 C 113.195313 39.125 113.207031 39.101563 113.257813 38.945313 C 113.519531 38.027344 113.910156 37.734375 114.242188 37.734375 C 114.320313 37.734375 114.488281 37.734375 114.488281 38.046875 C 114.488281 38.253906 114.421875 38.457031 114.382813 38.554688 C 114.304688 38.808594 113.863281 39.945313 113.707031 40.367188 C 113.609375 40.621094 113.480469 40.941406 113.480469 41.148438 C 113.480469 41.609375 113.816406 41.949219 114.28125 41.949219 C 115.203125 41.949219 115.5625 40.53125 115.5625 40.445313 Z M 115.5625 40.445313 "/>
<path style=" stroke:none;fill-rule:evenodd;fill:rgb(0%,0%,0%);fill-opacity:1;" d="M 131.46875 7.042969 C 131.46875 6.945313 131.390625 6.945313 131.351563 6.945313 C 131.265625 6.945313 131.253906 6.976563 131.207031 7.082031 C 130.785156 8.101563 130.265625 8.335938 129.933594 8.335938 C 129.726563 8.335938 129.632813 8.207031 129.632813 7.886719 C 129.632813 7.652344 129.648438 7.582031 129.6875 7.417969 L 130.414063 4.53125 L 131.332031 4.53125 C 131.527344 4.53125 131.625 4.53125 131.625 4.335938 C 131.625 4.226563 131.527344 4.226563 131.351563 4.226563 L 130.492188 4.226563 C 130.84375 2.839844 130.890625 2.644531 130.890625 2.582031 C 130.890625 2.417969 130.773438 2.320313 130.609375 2.320313 C 130.578125 2.320313 130.304688 2.332031 130.21875 2.671875 L 129.835938 4.226563 L 128.917969 4.226563 C 128.722656 4.226563 128.625 4.226563 128.625 4.414063 C 128.625 4.53125 128.703125 4.53125 128.894531 4.53125 L 129.757813 4.53125 C 129.054688 7.308594 129.015625 7.472656 129.015625 7.652344 C 129.015625 8.179688 129.386719 8.550781 129.914063 8.550781 C 130.914063 8.550781 131.46875 7.121094 131.46875 7.042969 Z M 131.46875 7.042969 "/>
<path style=" stroke:none;fill-rule:evenodd;fill:rgb(0%,0%,0%);fill-opacity:1;" d="M 121.546875 41.417969 C 121.988281 41.390625 122.226563 41.085938 122.226563 40.734375 C 122.226563 40.277344 121.878906 40.054688 121.558594 40.054688 C 121.226563 40.054688 120.875 40.265625 120.875 40.75 C 120.875 41.460938 121.570313 42.042969 122.421875 42.042969 C 124.535156 42.042969 125.328125 38.789063 126.316406 34.757813 C 127.386719 30.363281 128.289063 25.925781 129.039063 21.460938 C 129.554688 18.5 130.070313 15.71875 130.542969 13.921875 C 130.710938 13.242188 131.183594 11.449219 131.726563 11.449219 C 132.15625 11.449219 132.503906 11.714844 132.558594 11.769531 C 132.101563 11.796875 131.863281 12.101563 131.863281 12.449219 C 131.863281 12.910156 132.210938 13.132813 132.53125 13.132813 C 132.863281 13.132813 133.210938 12.921875 133.210938 12.4375 C 133.210938 11.683594 132.460938 11.144531 131.695313 11.144531 C 130.640625 11.144531 129.859375 12.660156 129.097656 15.496094 C 129.054688 15.648438 127.164063 22.628906 125.632813 31.726563 C 125.269531 33.851563 124.867188 36.175781 124.410156 38.109375 C 124.160156 39.125 123.519531 41.738281 122.394531 41.738281 C 121.890625 41.738281 121.558594 41.417969 121.546875 41.417969 Z M 121.546875 41.417969 "/>
<path style=" stroke:none;fill-rule:evenodd;fill:rgb(0%,0%,0%);fill-opacity:1;" d="M 125.996094 47.511719 C 125.996094 46.730469 125.949219 45.945313 125.605469 45.222656 C 125.15625 44.285156 124.355469 44.128906 123.941406 44.128906 C 123.355469 44.128906 122.640625 44.382813 122.242188 45.292969 C 121.929688 45.96875 121.878906 46.730469 121.878906 47.511719 C 121.878906 48.246094 121.917969 49.125 122.320313 49.867188 C 122.742188 50.664063 123.453125 50.859375 123.933594 50.859375 C 124.460938 50.859375 125.203125 50.652344 125.636719 49.722656 C 125.949219 49.046875 125.996094 48.285156 125.996094 47.511719 Z M 125.1875 47.394531 C 125.1875 48.128906 125.1875 48.792969 125.078125 49.421875 C 124.929688 50.347656 124.375 50.640625 123.933594 50.640625 C 123.554688 50.640625 122.976563 50.398438 122.800781 49.460938 C 122.691406 48.871094 122.691406 47.972656 122.691406 47.394531 C 122.691406 46.769531 122.691406 46.125 122.769531 45.59375 C 122.957031 44.429688 123.6875 44.34375 123.933594 44.34375 C 124.257813 44.34375 124.902344 44.519531 125.085938 45.488281 C 125.1875 46.035156 125.1875 46.777344 125.1875 47.394531 Z M 125.1875 47.394531 "/>
<path style=" stroke:none;fill-rule:evenodd;fill:rgb(0%,0%,0%);fill-opacity:1;" d="M 142.210938 28.625 C 142.210938 28.542969 142.128906 28.472656 142.070313 28.472656 C 142.03125 28.472656 142.015625 28.488281 141.890625 28.613281 C 141 29.792969 139.679688 30.003906 139.152344 30.003906 C 138.359375 30.003906 137.941406 29.375 137.941406 28.347656 C 137.941406 28.152344 137.941406 27.804688 138.148438 26.914063 L 138.886719 26.914063 C 139.265625 26.914063 140.210938 26.886719 140.875 26.636719 C 141.933594 26.234375 142.03125 25.429688 142.03125 25.175781 C 142.03125 24.566406 141.503906 24.007813 140.585938 24.007813 C 139.125 24.007813 137.023438 25.328125 137.023438 27.804688 C 137.023438 29.265625 137.859375 30.28125 139.125 30.28125 C 141.015625 30.28125 142.210938 28.808594 142.210938 28.625 Z M 141.613281 25.175781 C 141.613281 26.636719 139.390625 26.636719 138.804688 26.636719 L 138.21875 26.636719 C 138.816406 24.496094 140.140625 24.289063 140.585938 24.289063 C 141.195313 24.289063 141.613281 24.648438 141.613281 25.175781 Z M 141.613281 25.175781 "/>
<path style=" stroke:none;fill-rule:evenodd;fill:rgb(0%,0%,0%);fill-opacity:1;" d="M 147.21875 33.523438 C 147.21875 33.480469 147.21875 33.453125 146.980469 33.214844 C 145.589844 31.8125 144.8125 29.515625 144.8125 26.679688 C 144.8125 23.980469 145.464844 21.660156 147.078125 20.015625 C 147.21875 19.890625 147.21875 19.863281 147.21875 19.824219 C 147.21875 19.738281 147.148438 19.710938 147.09375 19.710938 C 146.910156 19.710938 145.769531 20.710938 145.089844 22.078125 C 144.382813 23.480469 144.0625 24.96875 144.0625 26.679688 C 144.0625 27.917969 144.257813 29.570313 144.980469 31.058594 C 145.800781 32.730469 146.941406 33.632813 147.09375 33.632813 C 147.148438 33.632813 147.21875 33.605469 147.21875 33.523438 Z M 147.21875 33.523438 "/>
<path style=" stroke:none;fill-rule:evenodd;fill:rgb(0%,0%,0%);fill-opacity:1;" d="M 154.9375 24.453125 C 154.9375 24.148438 154.671875 24.148438 154.421875 24.148438 L 150.597656 24.148438 C 150.277344 24.148438 149.804688 24.148438 149.167969 24.828125 C 148.804688 25.234375 148.359375 25.96875 148.359375 26.054688 C 148.359375 26.136719 148.429688 26.164063 148.511719 26.164063 C 148.609375 26.164063 148.625 26.125 148.691406 26.039063 C 149.417969 24.898438 150.140625 24.898438 150.488281 24.898438 L 151.640625 24.898438 L 150.195313 29.667969 C 150.125 29.878906 150.125 29.90625 150.125 29.945313 C 150.125 30.101563 150.222656 30.296875 150.5 30.296875 C 150.933594 30.296875 151.003906 29.921875 151.042969 29.710938 L 151.988281 24.898438 L 154.296875 24.898438 C 154.480469 24.898438 154.9375 24.898438 154.9375 24.453125 Z M 154.9375 24.453125 "/>
<path style=" stroke:none;fill-rule:evenodd;fill:rgb(0%,0%,0%);fill-opacity:1;" d="M 159.417969 26.679688 C 159.417969 25.621094 159.28125 23.898438 158.503906 22.285156 C 157.679688 20.617188 156.542969 19.710938 156.390625 19.710938 C 156.332031 19.710938 156.265625 19.738281 156.265625 19.824219 C 156.265625 19.863281 156.265625 19.890625 156.5 20.128906 C 157.890625 21.535156 158.667969 23.828125 158.667969 26.664063 C 158.667969 29.363281 158.015625 31.6875 156.402344 33.328125 C 156.265625 33.453125 156.265625 33.480469 156.265625 33.523438 C 156.265625 33.605469 156.332031 33.632813 156.390625 33.632813 C 156.566406 33.632813 157.707031 32.632813 158.390625 31.269531 C 159.101563 29.851563 159.417969 28.347656 159.417969 26.679688 Z M 159.417969 26.679688 "/>
<path style=" stroke:none;fill-rule:evenodd;fill:rgb(0%,0%,0%);fill-opacity:1;" d="M 167.542969 28.152344 C 167.542969 28.085938 167.488281 28.027344 167.402344 28.027344 C 167.277344 28.027344 167.265625 28.097656 167.207031 28.304688 C 167 29.125 166.738281 30.003906 166.167969 30.003906 C 165.765625 30.003906 165.734375 29.640625 165.734375 29.363281 C 165.734375 29.308594 165.734375 29.015625 165.832031 28.625 L 167.792969 20.835938 C 167.808594 20.78125 167.835938 20.699219 167.835938 20.628906 C 167.835938 20.492188 167.667969 20.492188 167.667969 20.492188 C 167.667969 20.492188 166.972656 20.546875 166.902344 20.558594 C 166.667969 20.574219 166.457031 20.601563 166.207031 20.617188 C 165.859375 20.644531 165.765625 20.65625 165.765625 20.90625 C 165.765625 21.046875 165.875 21.046875 166.066406 21.046875 C 166.75 21.046875 166.765625 21.171875 166.765625 21.3125 C 166.765625 21.394531 166.738281 21.507813 166.722656 21.546875 L 165.875 24.925781 C 165.722656 24.566406 165.34375 24.007813 164.621094 24.007813 C 163.050781 24.007813 161.355469 26.039063 161.355469 28.097656 C 161.355469 29.476563 162.160156 30.28125 163.105469 30.28125 C 163.871094 30.28125 164.523438 29.683594 164.914063 29.226563 C 165.054688 30.046875 165.707031 30.28125 166.125 30.28125 C 166.542969 30.28125 166.875 30.03125 167.125 29.53125 C 167.347656 29.058594 167.542969 28.210938 167.542969 28.152344 Z M 164.984375 28.488281 C 164.914063 28.722656 164.914063 28.75 164.71875 29.015625 C 164.414063 29.40625 163.804688 30.003906 163.148438 30.003906 C 162.578125 30.003906 162.257813 29.488281 162.257813 28.667969 C 162.257813 27.902344 162.6875 26.34375 162.953125 25.761719 C 163.425781 24.789063 164.082031 24.289063 164.621094 24.289063 C 165.539063 24.289063 165.722656 25.429688 165.722656 25.539063 C 165.722656 25.539063 165.679688 25.734375 165.664063 25.761719 Z M 164.984375 28.488281 "/>
<path style=" stroke:none;fill-rule:evenodd;fill:rgb(0%,0%,0%);fill-opacity:1;" d="M 174.835938 24.453125 C 174.835938 24.148438 174.574219 24.148438 174.324219 24.148438 L 170.496094 24.148438 C 170.179688 24.148438 169.707031 24.148438 169.066406 24.828125 C 168.703125 25.234375 168.257813 25.96875 168.257813 26.054688 C 168.257813 26.136719 168.328125 26.164063 168.410156 26.164063 C 168.511719 26.164063 168.523438 26.125 168.59375 26.039063 C 169.316406 24.898438 170.039063 24.898438 170.386719 24.898438 L 171.542969 24.898438 L 170.09375 29.667969 C 170.027344 29.878906 170.027344 29.90625 170.027344 29.945313 C 170.027344 30.101563 170.121094 30.296875 170.402344 30.296875 C 170.832031 30.296875 170.902344 29.921875 170.941406 29.710938 L 171.890625 24.898438 L 174.199219 24.898438 C 174.378906 24.898438 174.835938 24.898438 174.835938 24.453125 Z M 174.835938 24.453125 "/>
<path style=" stroke:none;fill-rule:evenodd;fill:rgb(0%,0%,0%);fill-opacity:1;" d="M 188.332031 26.679688 C 188.332031 26.414063 188.09375 26.414063 187.886719 26.414063 L 184.046875 26.414063 L 184.046875 22.578125 C 184.046875 22.382813 184.046875 22.132813 183.796875 22.132813 C 183.53125 22.132813 183.53125 22.367188 183.53125 22.578125 L 183.53125 26.414063 L 179.691406 26.414063 C 179.5 26.414063 179.25 26.414063 179.25 26.664063 C 179.25 26.929688 179.484375 26.929688 179.691406 26.929688 L 183.53125 26.929688 L 183.53125 30.769531 C 183.53125 30.960938 183.53125 31.210938 183.78125 31.210938 C 184.046875 31.210938 184.046875 30.976563 184.046875 30.769531 L 184.046875 26.929688 L 187.886719 26.929688 C 188.082031 26.929688 188.332031 26.929688 188.332031 26.679688 Z M 188.332031 26.679688 "/>
<path style=" stroke:none;fill-rule:evenodd;fill:rgb(0%,0%,0%);fill-opacity:1;" d="M 201.390625 23.523438 L 201.792969 21.0625 C 201.820313 20.9375 201.820313 20.90625 201.820313 20.867188 C 201.820313 20.710938 201.738281 20.710938 201.460938 20.710938 L 193.851563 20.710938 C 193.53125 20.710938 193.519531 20.726563 193.433594 20.976563 L 192.585938 23.480469 C 192.574219 23.507813 192.53125 23.675781 192.53125 23.675781 C 192.53125 23.746094 192.585938 23.8125 192.671875 23.8125 C 192.78125 23.8125 192.808594 23.757813 192.863281 23.578125 C 193.449219 21.894531 193.742188 21.117188 195.589844 21.117188 L 196.523438 21.117188 C 196.855469 21.117188 196.996094 21.117188 196.996094 21.269531 C 196.996094 21.3125 196.996094 21.339844 196.925781 21.589844 L 195.0625 29.058594 C 194.925781 29.601563 194.894531 29.738281 193.421875 29.738281 C 193.074219 29.738281 192.976563 29.738281 192.976563 30.003906 C 192.976563 30.140625 193.128906 30.140625 193.199219 30.140625 C 193.546875 30.140625 193.910156 30.113281 194.253906 30.113281 L 196.425781 30.113281 C 196.773438 30.113281 197.148438 30.140625 197.496094 30.140625 C 197.648438 30.140625 197.789063 30.140625 197.789063 29.878906 C 197.789063 29.738281 197.691406 29.738281 197.328125 29.738281 C 196.078125 29.738281 196.078125 29.613281 196.078125 29.40625 C 196.078125 29.40625 196.078125 29.292969 196.132813 29.070313 L 197.996094 21.660156 C 198.082031 21.324219 198.109375 21.199219 198.316406 21.144531 C 198.425781 21.117188 198.886719 21.117188 199.179688 21.117188 C 200.570313 21.117188 201.222656 21.171875 201.222656 22.257813 C 201.222656 22.464844 201.167969 22.992188 201.082031 23.507813 L 201.070313 23.675781 C 201.070313 23.730469 201.125 23.8125 201.210938 23.8125 C 201.347656 23.8125 201.347656 23.746094 201.390625 23.523438 Z M 201.390625 23.523438 "/>
<path style=" stroke:none;fill-rule:evenodd;fill:rgb(0%,0%,0%);fill-opacity:1;" d="M 205.066406 30.84375 C 205.066406 30.746094 204.980469 30.746094 204.949219 30.746094 C 204.851563 30.746094 204.84375 30.785156 204.8125 30.921875 C 204.648438 31.558594 204.472656 32.132813 204.070313 32.132813 C 203.804688 32.132813 203.777344 31.878906 203.777344 31.683594 C 203.777344 31.449219 203.796875 31.382813 203.835938 31.214844 L 205.246094 25.5625 C 205.246094 25.5625 205.246094 25.453125 205.117188 25.453125 C 204.96875 25.453125 204.042969 25.542969 203.875 25.5625 C 203.796875 25.570313 203.738281 25.621094 203.738281 25.75 C 203.738281 25.867188 203.824219 25.867188 203.972656 25.867188 C 204.441406 25.867188 204.460938 25.933594 204.460938 26.03125 L 204.429688 26.226563 L 203.84375 28.546875 C 203.667969 28.183594 203.386719 27.917969 202.945313 27.917969 C 201.800781 27.917969 200.589844 29.355469 200.589844 30.785156 C 200.589844 31.703125 201.128906 32.351563 201.890625 32.351563 C 202.085938 32.351563 202.574219 32.3125 203.160156 31.617188 C 203.238281 32.027344 203.582031 32.351563 204.050781 32.351563 C 204.390625 32.351563 204.617188 32.125 204.773438 31.8125 C 204.941406 31.460938 205.066406 30.84375 205.066406 30.84375 Z M 203.699219 29.160156 L 203.210938 31.078125 C 203.160156 31.253906 203.160156 31.273438 203.015625 31.441406 C 202.582031 31.976563 202.183594 32.132813 201.910156 32.132813 C 201.417969 32.132813 201.285156 31.597656 201.285156 31.214844 C 201.285156 30.726563 201.59375 29.523438 201.820313 29.074219 C 202.125 28.496094 202.5625 28.132813 202.957031 28.132813 C 203.589844 28.132813 203.726563 28.9375 203.726563 28.996094 C 203.726563 29.054688 203.707031 29.113281 203.699219 29.160156 Z M 203.699219 29.160156 "/>
<path style=" stroke:none;fill-rule:evenodd;fill:rgb(0%,0%,0%);fill-opacity:1;" d="M 216.140625 18.753906 C 216.140625 18.683594 216.085938 18.628906 216.003906 18.628906 C 215.878906 18.628906 215.863281 18.699219 215.808594 18.90625 C 215.601563 19.726563 215.335938 20.601563 214.765625 20.601563 C 214.363281 20.601563 214.335938 20.242188 214.335938 19.964844 C 214.335938 19.90625 214.335938 19.617188 214.429688 19.226563 L 216.390625 11.4375 C 216.40625 11.382813 216.433594 11.296875 216.433594 11.230469 C 216.433594 11.089844 216.265625 11.089844 216.265625 11.089844 C 216.265625 11.089844 215.570313 11.148438 215.503906 11.160156 C 215.265625 11.171875 215.058594 11.203125 214.804688 11.214844 C 214.460938 11.246094 214.363281 11.257813 214.363281 11.507813 C 214.363281 11.648438 214.472656 11.648438 214.667969 11.648438 C 215.347656 11.648438 215.363281 11.773438 215.363281 11.910156 C 215.363281 11.996094 215.335938 12.105469 215.320313 12.148438 L 214.472656 15.527344 C 214.320313 15.164063 213.945313 14.609375 213.222656 14.609375 C 211.648438 14.609375 209.953125 16.640625 209.953125 18.699219 C 209.953125 20.074219 210.761719 20.882813 211.707031 20.882813 C 212.46875 20.882813 213.125 20.28125 213.515625 19.824219 C 213.652344 20.644531 214.304688 20.882813 214.722656 20.882813 C 215.140625 20.882813 215.476563 20.632813 215.726563 20.128906 C 215.945313 19.65625 216.140625 18.808594 216.140625 18.753906 Z M 213.582031 19.085938 C 213.515625 19.324219 213.515625 19.351563 213.320313 19.617188 C 213.011719 20.003906 212.402344 20.601563 211.746094 20.601563 C 211.175781 20.601563 210.859375 20.089844 210.859375 19.269531 C 210.859375 18.503906 211.289063 16.945313 211.554688 16.359375 C 212.023438 15.386719 212.679688 14.886719 213.222656 14.886719 C 214.140625 14.886719 214.320313 16.027344 214.320313 16.140625 C 214.320313 16.140625 214.277344 16.335938 214.265625 16.359375 Z M 213.582031 19.085938 "/>
<path style="fill:none;stroke-width:0.557992;stroke-linecap:square;stroke-linejoin:miter;stroke:rgb(0%,0%,0%);stroke-opacity:1;stroke-miterlimit:10;" d="M 206.976563 26.679688 L 219.003906 26.679688 "/>
<path style=" stroke:none;fill-rule:evenodd;fill:rgb(0%,0%,0%);fill-opacity:1;" d="M 213.742188 37.753906 C 213.742188 37.683594 213.6875 37.628906 213.601563 37.628906 C 213.476563 37.628906 213.464844 37.699219 213.40625 37.90625 C 213.199219 38.726563 212.9375 39.601563 212.367188 39.601563 C 211.964844 39.601563 211.933594 39.242188 211.933594 38.964844 C 211.933594 38.90625 211.933594 38.617188 212.03125 38.226563 L 213.992188 30.4375 C 214.007813 30.382813 214.035156 30.296875 214.035156 30.230469 C 214.035156 30.089844 213.867188 30.089844 213.867188 30.089844 C 213.867188 30.089844 213.171875 30.148438 213.101563 30.160156 C 212.867188 30.171875 212.65625 30.203125 212.40625 30.214844 C 212.058594 30.242188 211.964844 30.257813 211.964844 30.507813 C 211.964844 30.648438 212.074219 30.648438 212.265625 30.648438 C 212.949219 30.648438 212.964844 30.773438 212.964844 30.910156 C 212.964844 30.996094 212.9375 31.105469 212.921875 31.148438 L 212.074219 34.527344 C 211.921875 34.164063 211.542969 33.609375 210.820313 33.609375 C 209.25 33.609375 207.554688 35.640625 207.554688 37.699219 C 207.554688 39.074219 208.359375 39.882813 209.304688 39.882813 C 210.070313 39.882813 210.722656 39.28125 211.113281 38.824219 C 211.253906 39.644531 211.90625 39.882813 212.324219 39.882813 C 212.742188 39.882813 213.074219 39.632813 213.324219 39.128906 C 213.546875 38.65625 213.742188 37.808594 213.742188 37.753906 Z M 211.183594 38.085938 C 211.113281 38.324219 211.113281 38.351563 210.917969 38.617188 C 210.613281 39.003906 210.003906 39.601563 209.347656 39.601563 C 208.777344 39.601563 208.457031 39.089844 208.457031 38.269531 C 208.457031 37.503906 208.886719 35.945313 209.152344 35.359375 C 209.625 34.386719 210.28125 33.886719 210.820313 33.886719 C 211.738281 33.886719 211.921875 35.027344 211.921875 35.140625 C 211.921875 35.140625 211.878906 35.335938 211.863281 35.359375 Z M 211.183594 38.085938 "/>
<path style=" stroke:none;fill-rule:evenodd;fill:rgb(0%,0%,0%);fill-opacity:1;" d="M 218.324219 37.753906 C 218.324219 37.671875 218.269531 37.628906 218.1875 37.628906 C 218.1875 37.628906 218.101563 37.628906 218.074219 37.683594 C 218.074219 37.683594 218.046875 37.710938 217.949219 37.933594 C 217.65625 38.628906 217.015625 39.601563 216.210938 39.601563 C 215.792969 39.601563 215.765625 39.253906 215.765625 38.949219 C 215.765625 38.949219 215.765625 38.671875 215.808594 38.503906 L 216.890625 34.152344 L 218.171875 34.152344 C 218.4375 34.152344 218.574219 34.152344 218.574219 33.902344 C 218.574219 33.75 218.492188 33.75 218.214844 33.75 L 216.988281 33.75 L 217.503906 31.71875 C 217.558594 31.523438 217.558594 31.496094 217.558594 31.398438 C 217.558594 31.175781 217.378906 31.050781 217.199219 31.050781 C 217.089844 31.050781 216.765625 31.09375 216.65625 31.539063 L 216.113281 33.75 L 214.804688 33.75 C 214.527344 33.75 214.402344 33.75 214.402344 34.011719 C 214.402344 34.152344 214.5 34.152344 214.765625 34.152344 L 216.003906 34.152344 L 215.085938 37.824219 C 214.972656 38.308594 214.929688 38.449219 214.929688 38.628906 C 214.929688 39.28125 215.390625 39.882813 216.167969 39.882813 C 217.574219 39.882813 218.324219 37.851563 218.324219 37.753906 Z M 218.324219 37.753906 "/>
<path style=" stroke:none;fill-rule:evenodd;fill:rgb(0%,0%,0%);fill-opacity:1;" d="M 226.011719 28.625 C 226.011719 28.542969 225.925781 28.472656 225.871094 28.472656 C 225.828125 28.472656 225.816406 28.488281 225.691406 28.613281 C 224.800781 29.792969 223.480469 30.003906 222.949219 30.003906 C 222.15625 30.003906 221.742188 29.375 221.742188 28.347656 C 221.742188 28.152344 221.742188 27.804688 221.949219 26.914063 L 222.6875 26.914063 C 223.0625 26.914063 224.007813 26.886719 224.675781 26.636719 C 225.730469 26.234375 225.828125 25.429688 225.828125 25.175781 C 225.828125 24.566406 225.300781 24.007813 224.382813 24.007813 C 222.925781 24.007813 220.824219 25.328125 220.824219 27.804688 C 220.824219 29.265625 221.65625 30.28125 222.925781 30.28125 C 224.8125 30.28125 226.011719 28.808594 226.011719 28.625 Z M 225.414063 25.175781 C 225.414063 26.636719 223.1875 26.636719 222.601563 26.636719 L 222.019531 26.636719 C 222.617188 24.496094 223.9375 24.289063 224.382813 24.289063 C 224.996094 24.289063 225.414063 24.648438 225.414063 25.175781 Z M 225.414063 25.175781 "/>
<path style=" stroke:none;fill-rule:evenodd;fill:rgb(0%,0%,0%);fill-opacity:1;" d="M 231.015625 33.523438 C 231.015625 33.480469 231.015625 33.453125 230.78125 33.214844 C 229.390625 31.8125 228.609375 29.515625 228.609375 26.679688 C 228.609375 23.980469 229.265625 21.660156 230.878906 20.015625 C 231.015625 19.890625 231.015625 19.863281 231.015625 19.824219 C 231.015625 19.738281 230.945313 19.710938 230.890625 19.710938 C 230.710938 19.710938 229.570313 20.710938 228.890625 22.078125 C 228.179688 23.480469 227.859375 24.96875 227.859375 26.679688 C 227.859375 27.917969 228.054688 29.570313 228.777344 31.058594 C 229.597656 32.730469 230.738281 33.632813 230.890625 33.632813 C 230.945313 33.632813 231.015625 33.605469 231.015625 33.523438 Z M 231.015625 33.523438 "/>
<path style=" stroke:none;fill-rule:evenodd;fill:rgb(0%,0%,0%);fill-opacity:1;" d="M 236.023438 28.152344 C 236.023438 28.070313 235.96875 28.027344 235.886719 28.027344 C 235.886719 28.027344 235.800781 28.027344 235.773438 28.085938 C 235.773438 28.085938 235.746094 28.113281 235.648438 28.335938 C 235.359375 29.03125 234.71875 30.003906 233.910156 30.003906 C 233.492188 30.003906 233.464844 29.65625 233.464844 29.351563 C 233.464844 29.351563 233.464844 29.070313 233.507813 28.90625 L 234.59375 24.550781 L 235.871094 24.550781 C 236.136719 24.550781 236.273438 24.550781 236.273438 24.300781 C 236.273438 24.148438 236.191406 24.148438 235.914063 24.148438 L 234.6875 24.148438 L 235.203125 22.117188 C 235.261719 21.921875 235.261719 21.894531 235.261719 21.796875 C 235.261719 21.574219 235.078125 21.449219 234.898438 21.449219 C 234.789063 21.449219 234.46875 21.492188 234.355469 21.9375 L 233.8125 24.148438 L 232.507813 24.148438 C 232.226563 24.148438 232.101563 24.148438 232.101563 24.414063 C 232.101563 24.550781 232.199219 24.550781 232.464844 24.550781 L 233.703125 24.550781 L 232.785156 28.222656 C 232.675781 28.710938 232.632813 28.847656 232.632813 29.03125 C 232.632813 29.683594 233.089844 30.28125 233.867188 30.28125 C 235.273438 30.28125 236.023438 28.25 236.023438 28.152344 Z M 236.023438 28.152344 "/>
<path style=" stroke:none;fill-rule:evenodd;fill:rgb(0%,0%,0%);fill-opacity:1;" d="M 240.71875 26.679688 C 240.71875 25.621094 240.578125 23.898438 239.800781 22.285156 C 238.980469 20.617188 237.839844 19.710938 237.6875 19.710938 C 237.628906 19.710938 237.5625 19.738281 237.5625 19.824219 C 237.5625 19.863281 237.5625 19.890625 237.796875 20.128906 C 239.1875 21.535156 239.964844 23.828125 239.964844 26.664063 C 239.964844 29.363281 239.3125 31.6875 237.703125 33.328125 C 237.5625 33.453125 237.5625 33.480469 237.5625 33.523438 C 237.5625 33.605469 237.628906 33.632813 237.6875 33.632813 C 237.867188 33.632813 239.007813 32.632813 239.6875 31.269531 C 240.398438 29.851563 240.71875 28.347656 240.71875 26.679688 Z M 240.71875 26.679688 "/>
<path style=" stroke:none;fill-rule:evenodd;fill:rgb(0%,0%,0%);fill-opacity:1;" d="M 250.203125 26.0625 C 250.203125 17.566406 248.6875 12.585938 248.257813 11.183594 C 247.3125 8.09375 245.769531 4.839844 243.445313 1.976563 C 243.238281 1.726563 243.179688 1.65625 243.125 1.628906 C 243.097656 1.613281 243.085938 1.601563 242.863281 1.601563 C 242.652344 1.601563 242.542969 1.601563 242.542969 1.738281 C 242.542969 1.769531 242.542969 1.792969 242.722656 2.046875 C 247.5625 8.804688 248.648438 17.148438 248.660156 26.5625 C 248.660156 26.757813 248.742188 26.757813 249.050781 26.757813 L 249.816406 26.757813 C 250.109375 26.757813 250.191406 26.757813 250.203125 26.605469 Z M 250.203125 26.0625 "/>
<path style=" stroke:none;fill-rule:evenodd;fill:rgb(0%,0%,0%);fill-opacity:1;" d="M 250.203125 26.699219 C 250.191406 26.546875 250.109375 26.546875 249.816406 26.546875 L 249.050781 26.546875 C 248.742188 26.546875 248.660156 26.546875 248.660156 26.742188 C 248.660156 28.171875 248.648438 31.484375 248.285156 34.945313 C 247.535156 42.136719 245.683594 47.117188 242.640625 51.382813 C 242.542969 51.511719 242.542969 51.539063 242.542969 51.566406 C 242.542969 51.703125 242.652344 51.703125 242.863281 51.703125 C 243.085938 51.703125 243.113281 51.703125 243.140625 51.675781 C 243.195313 51.636719 244.960938 49.605469 246.367188 46.808594 C 248.203125 43.136719 249.355469 38.925781 249.871094 33.863281 C 249.914063 33.429688 250.203125 30.539063 250.203125 27.242188 Z M 250.203125 26.699219 "/>
</g>
</svg>
