<?xml version="1.0" encoding="UTF-8"?>
<svg xmlns="http://www.w3.org/2000/svg" xmlns:xlink="http://www.w3.org/1999/xlink" width="64pt" height="50pt" viewBox="0 0 64 50" version="1.1">
<g id="surface56">
<path style=" stroke:none;fill-rule:evenodd;fill:rgb(0%,0%,0%);fill-opacity:1;" d="M 5.972656 10.152344 C 5.972656 9.734375 5.640625 9.472656 5.304688 9.472656 C 4.914063 9.472656 4.625 9.777344 4.625 10.152344 C 4.625 10.515625 4.929688 10.820313 5.289063 10.820313 C 5.710938 10.820313 5.972656 10.488281 5.972656 10.152344 Z M 5.972656 10.152344 "/>
<path style=" stroke:none;fill-rule:evenodd;fill:rgb(0%,0%,0%);fill-opacity:1;" d="M 7.675781 16.5625 C 7.675781 16.496094 7.621094 16.4375 7.535156 16.4375 C 7.410156 16.4375 7.394531 16.507813 7.355469 16.621094 C 6.980469 17.84375 6.171875 18.414063 5.546875 18.414063 C 5.0625 18.414063 4.796875 18.050781 4.796875 17.480469 C 4.796875 17.175781 4.851563 16.953125 5.074219 16.035156 L 5.5625 14.144531 C 5.769531 13.308594 6.242188 12.699219 6.882813 12.699219 C 6.882813 12.699219 7.300781 12.699219 7.589844 12.878906 C 7.144531 12.960938 6.980469 13.296875 6.980469 13.5625 C 6.980469 13.894531 7.242188 14.003906 7.4375 14.003906 C 7.855469 14.003906 8.148438 13.644531 8.148438 13.269531 C 8.148438 12.683594 7.480469 12.421875 6.894531 12.421875 C 6.046875 12.421875 5.574219 13.253906 5.449219 13.519531 C 5.128906 12.476563 4.269531 12.421875 4.015625 12.421875 C 2.601563 12.421875 1.847656 14.242188 1.847656 14.546875 C 1.847656 14.601563 1.90625 14.671875 2 14.671875 C 2.113281 14.671875 2.140625 14.589844 2.167969 14.535156 C 2.640625 12.992188 3.574219 12.699219 3.976563 12.699219 C 4.601563 12.699219 4.726563 13.28125 4.726563 13.617188 C 4.726563 13.921875 4.644531 14.242188 4.476563 14.910156 L 4.003906 16.8125 C 3.796875 17.648438 3.390625 18.414063 2.65625 18.414063 C 2.585938 18.414063 2.238281 18.414063 1.945313 18.230469 C 2.445313 18.136719 2.558594 17.71875 2.558594 17.550781 C 2.558594 17.273438 2.347656 17.105469 2.085938 17.105469 C 1.75 17.105469 1.390625 17.398438 1.390625 17.84375 C 1.390625 18.425781 2.042969 18.691406 2.640625 18.691406 C 3.308594 18.691406 3.78125 18.164063 4.074219 17.59375 C 4.296875 18.414063 4.992188 18.691406 5.507813 18.691406 C 6.925781 18.691406 7.675781 16.871094 7.675781 16.5625 Z M 7.675781 16.5625 "/>
<path style=" stroke:none;fill-rule:evenodd;fill:rgb(0%,0%,0%);fill-opacity:1;" d="M 22.429688 13.796875 C 22.429688 13.53125 22.195313 13.53125 21.984375 13.53125 L 13.792969 13.53125 C 13.601563 13.53125 13.351563 13.53125 13.351563 13.78125 C 13.351563 14.046875 13.585938 14.046875 13.792969 14.046875 L 21.984375 14.046875 C 22.179688 14.046875 22.429688 14.046875 22.429688 13.796875 Z M 22.429688 16.382813 C 22.429688 16.117188 22.195313 16.117188 21.984375 16.117188 L 13.792969 16.117188 C 13.601563 16.117188 13.351563 16.117188 13.351563 16.371094 C 13.351563 16.632813 13.585938 16.632813 13.792969 16.632813 L 21.984375 16.632813 C 22.179688 16.632813 22.429688 16.632813 22.429688 16.382813 Z M 22.429688 16.382813 "/>
<path style=" stroke:none;fill-rule:evenodd;fill:rgb(0%,0%,0%);fill-opacity:1;" d="M 35.640625 7.164063 C 35.640625 7.09375 35.585938 7.039063 35.503906 7.039063 C 35.375 7.039063 35.363281 7.109375 35.308594 7.316406 C 35.058594 8.277344 34.804688 9.015625 34.25 9.015625 C 33.832031 9.015625 33.832031 8.554688 33.832031 8.375 C 33.832031 8.054688 33.875 7.914063 34.011719 7.332031 L 34.292969 6.191406 L 34.863281 3.921875 C 34.957031 3.578125 34.957031 3.546875 34.957031 3.507813 C 34.957031 3.296875 34.792969 3.160156 34.582031 3.160156 C 34.179688 3.160156 34.082031 3.507813 34 3.855469 L 33.011719 7.875 C 33.011719 7.875 32.457031 9.015625 31.441406 9.015625 C 30.71875 9.015625 30.578125 8.386719 30.578125 7.875 C 30.578125 7.082031 30.96875 5.96875 31.328125 5.035156 C 31.496094 4.59375 31.566406 4.410156 31.566406 4.132813 C 31.566406 3.535156 31.136719 3.019531 30.46875 3.019531 C 29.1875 3.019531 28.671875 5.035156 28.671875 5.148438 C 28.671875 5.203125 28.730469 5.273438 28.828125 5.273438 C 28.953125 5.273438 28.964844 5.21875 29.023438 5.023438 C 29.355469 3.828125 29.898438 3.296875 30.425781 3.296875 C 30.566406 3.296875 30.789063 3.3125 30.789063 3.757813 C 30.789063 4.117188 30.632813 4.523438 30.425781 5.050781 C 29.8125 6.703125 29.746094 7.234375 29.746094 7.652344 C 29.746094 9.070313 30.816406 9.292969 31.386719 9.292969 C 32.277344 9.292969 32.761719 8.679688 33.039063 8.347656 C 33.222656 9.125 33.886719 9.292969 34.222656 9.292969 C 34.667969 9.292969 35 9 35.222656 8.527344 C 35.460938 8.027344 35.640625 7.207031 35.640625 7.164063 Z M 35.640625 7.164063 "/>
<path style=" stroke:none;fill-rule:evenodd;fill:rgb(0%,0%,0%);fill-opacity:1;" d="M 48.847656 5.675781 C 48.847656 5.398438 48.585938 5.398438 48.390625 5.398438 L 40.808594 5.398438 C 40.617188 5.398438 40.351563 5.398438 40.351563 5.675781 C 40.351563 5.953125 40.617188 5.953125 40.808594 5.953125 L 48.390625 5.953125 C 48.585938 5.953125 48.847656 5.953125 48.847656 5.675781 Z M 48.847656 5.675781 "/>
<path style=" stroke:none;fill-rule:evenodd;fill:rgb(0%,0%,0%);fill-opacity:1;" d="M 59.769531 7.164063 C 59.769531 7.09375 59.714844 7.039063 59.632813 7.039063 C 59.507813 7.039063 59.492188 7.109375 59.453125 7.21875 C 59.074219 8.445313 58.269531 9.015625 57.644531 9.015625 C 57.15625 9.015625 56.894531 8.652344 56.894531 8.082031 C 56.894531 7.777344 56.949219 7.554688 57.171875 6.636719 L 57.65625 4.746094 C 57.867188 3.910156 58.339844 3.296875 58.980469 3.296875 C 58.980469 3.296875 59.394531 3.296875 59.6875 3.480469 C 59.242188 3.5625 59.074219 3.898438 59.074219 4.160156 C 59.074219 4.492188 59.339844 4.605469 59.535156 4.605469 C 59.953125 4.605469 60.246094 4.242188 60.246094 3.867188 C 60.246094 3.285156 59.578125 3.019531 58.992188 3.019531 C 58.144531 3.019531 57.671875 3.855469 57.546875 4.117188 C 57.226563 3.074219 56.367188 3.019531 56.113281 3.019531 C 54.695313 3.019531 53.945313 4.84375 53.945313 5.148438 C 53.945313 5.203125 54 5.273438 54.097656 5.273438 C 54.210938 5.273438 54.238281 5.1875 54.265625 5.132813 C 54.738281 3.589844 55.671875 3.296875 56.074219 3.296875 C 56.699219 3.296875 56.824219 3.882813 56.824219 4.214844 C 56.824219 4.523438 56.742188 4.84375 56.574219 5.507813 L 56.101563 7.414063 C 55.890625 8.25 55.488281 9.015625 54.75 9.015625 C 54.683594 9.015625 54.335938 9.015625 54.042969 8.832031 C 54.542969 8.734375 54.65625 8.320313 54.65625 8.152344 C 54.65625 7.875 54.445313 7.707031 54.179688 7.707031 C 53.847656 7.707031 53.484375 8 53.484375 8.445313 C 53.484375 9.027344 54.140625 9.292969 54.738281 9.292969 C 55.40625 9.292969 55.878906 8.765625 56.167969 8.195313 C 56.390625 9.015625 57.085938 9.292969 57.601563 9.292969 C 59.019531 9.292969 59.769531 7.46875 59.769531 7.164063 Z M 59.769531 7.164063 "/>
<path style="fill:none;stroke-width:0.557965;stroke-linecap:square;stroke-linejoin:miter;stroke:rgb(0%,0%,0%);stroke-opacity:1;stroke-miterlimit:10;" d="M 28.320313 15.078125 L 60.902344 15.078125 "/>
<path style=" stroke:none;fill-rule:evenodd;fill:rgb(0%,0%,0%);fill-opacity:1;" d="M 47.835938 22.464844 C 47.835938 22.160156 47.570313 22.160156 47.320313 22.160156 L 43.496094 22.160156 C 43.179688 22.160156 42.707031 22.160156 42.066406 22.839844 C 41.703125 23.242188 41.257813 23.980469 41.257813 24.0625 C 41.257813 24.148438 41.328125 24.175781 41.410156 24.175781 C 41.511719 24.175781 41.523438 24.132813 41.59375 24.050781 C 42.316406 22.910156 43.039063 22.910156 43.386719 22.910156 L 44.542969 22.910156 L 43.09375 27.679688 C 43.027344 27.886719 43.027344 27.914063 43.027344 27.957031 C 43.027344 28.109375 43.121094 28.304688 43.402344 28.304688 C 43.832031 28.304688 43.902344 27.929688 43.941406 27.71875 L 44.886719 22.910156 L 47.195313 22.910156 C 47.378906 22.910156 47.835938 22.910156 47.835938 22.464844 Z M 47.835938 22.464844 "/>
<path style=" stroke:none;fill-rule:evenodd;fill:rgb(0%,0%,0%);fill-opacity:1;" d="M 8.207031 38.441406 C 8.21875 38.371094 8.246094 38.289063 8.246094 38.203125 C 8.246094 37.996094 8.082031 37.859375 7.871094 37.859375 C 7.746094 37.859375 7.453125 37.914063 7.34375 38.328125 L 6.3125 42.417969 C 6.246094 42.667969 6.246094 42.695313 6.132813 42.847656 C 5.855469 43.238281 5.398438 43.710938 4.730469 43.710938 C 3.949219 43.710938 3.882813 42.945313 3.882813 42.570313 C 3.882813 41.777344 4.257813 40.707031 4.632813 39.707031 C 4.785156 39.304688 4.867188 39.109375 4.867188 38.832031 C 4.867188 38.246094 4.453125 37.71875 3.769531 37.71875 C 2.492188 37.71875 1.976563 39.734375 1.976563 39.847656 C 1.976563 39.902344 2.03125 39.972656 2.128906 39.972656 C 2.253906 39.972656 2.265625 39.914063 2.324219 39.722656 C 2.65625 38.554688 3.1875 37.996094 3.726563 37.996094 C 3.851563 37.996094 4.089844 37.996094 4.089844 38.457031 C 4.089844 38.816406 3.9375 39.21875 3.726563 39.746094 C 3.046875 41.570313 3.046875 42.027344 3.046875 42.363281 C 3.046875 43.683594 3.992188 43.988281 4.6875 43.988281 C 5.089844 43.988281 5.589844 43.863281 6.078125 43.351563 L 6.09375 43.363281 C 5.882813 44.183594 5.742188 44.726563 5.257813 45.410156 C 4.882813 45.9375 4.339844 46.410156 3.65625 46.410156 C 3.492188 46.410156 2.824219 46.382813 2.617188 45.742188 C 2.65625 45.753906 2.753906 45.753906 2.753906 45.753906 C 3.171875 45.753906 3.449219 45.394531 3.449219 45.074219 C 3.449219 44.753906 3.1875 44.644531 2.976563 44.644531 C 2.753906 44.644531 2.265625 44.808594 2.265625 45.492188 C 2.265625 46.199219 2.867188 46.6875 3.65625 46.6875 C 5.046875 46.6875 6.453125 45.410156 6.84375 43.863281 Z M 8.207031 38.441406 "/>
<path style=" stroke:none;fill-rule:evenodd;fill:rgb(0%,0%,0%);fill-opacity:1;" d="M 22.429688 39.09375 C 22.429688 38.832031 22.195313 38.832031 21.984375 38.832031 L 13.792969 38.832031 C 13.601563 38.832031 13.351563 38.832031 13.351563 39.082031 C 13.351563 39.34375 13.585938 39.34375 13.792969 39.34375 L 21.984375 39.34375 C 22.179688 39.34375 22.429688 39.34375 22.429688 39.09375 Z M 22.429688 41.683594 C 22.429688 41.417969 22.195313 41.417969 21.984375 41.417969 L 13.792969 41.417969 C 13.601563 41.417969 13.351563 41.417969 13.351563 41.667969 C 13.351563 41.933594 13.585938 41.933594 13.792969 41.933594 L 21.984375 41.933594 C 22.179688 41.933594 22.429688 41.933594 22.429688 41.683594 Z M 22.429688 41.683594 "/>
<path style=" stroke:none;fill-rule:evenodd;fill:rgb(0%,0%,0%);fill-opacity:1;" d="M 33.773438 41.863281 C 33.773438 41.792969 33.71875 41.738281 33.632813 41.738281 C 33.507813 41.738281 33.496094 41.808594 33.453125 41.917969 C 33.078125 43.140625 32.269531 43.710938 31.644531 43.710938 C 31.160156 43.710938 30.894531 43.351563 30.894531 42.78125 C 30.894531 42.472656 30.949219 42.25 31.171875 41.332031 L 31.660156 39.445313 C 31.867188 38.605469 32.339844 37.996094 32.980469 37.996094 C 32.980469 37.996094 33.398438 37.996094 33.691406 38.179688 C 33.246094 38.261719 33.078125 38.59375 33.078125 38.859375 C 33.078125 39.191406 33.339844 39.304688 33.535156 39.304688 C 33.953125 39.304688 34.246094 38.941406 34.246094 38.566406 C 34.246094 37.984375 33.578125 37.71875 32.996094 37.71875 C 32.144531 37.71875 31.671875 38.554688 31.546875 38.816406 C 31.226563 37.773438 30.367188 37.71875 30.117188 37.71875 C 28.699219 37.71875 27.945313 39.539063 27.945313 39.847656 C 27.945313 39.902344 28.003906 39.972656 28.101563 39.972656 C 28.210938 39.972656 28.238281 39.886719 28.265625 39.832031 C 28.738281 38.289063 29.671875 37.996094 30.074219 37.996094 C 30.699219 37.996094 30.824219 38.582031 30.824219 38.914063 C 30.824219 39.21875 30.742188 39.539063 30.574219 40.207031 L 30.101563 42.113281 C 29.894531 42.945313 29.492188 43.710938 28.753906 43.710938 C 28.683594 43.710938 28.335938 43.710938 28.042969 43.53125 C 28.546875 43.433594 28.65625 43.015625 28.65625 42.847656 C 28.65625 42.570313 28.445313 42.402344 28.183594 42.402344 C 27.851563 42.402344 27.488281 42.695313 27.488281 43.140625 C 27.488281 43.726563 28.140625 43.988281 28.738281 43.988281 C 29.40625 43.988281 29.878906 43.460938 30.171875 42.890625 C 30.394531 43.710938 31.089844 43.988281 31.605469 43.988281 C 33.023438 43.988281 33.773438 42.167969 33.773438 41.863281 Z M 33.773438 41.863281 "/>
</g>
</svg>
