<?xml version="1.0" encoding="UTF-8"?>
<svg xmlns="http://www.w3.org/2000/svg" xmlns:xlink="http://www.w3.org/1999/xlink" width="102pt" height="92pt" viewBox="0 0 102 92" version="1.1">
<g id="surface100">
<path style=" stroke:none;fill-rule:evenodd;fill:rgb(0%,0%,0%);fill-opacity:1;" d="M 14.105469 20.570313 C 14.121094 20.5 14.148438 20.417969 14.148438 20.332031 C 14.148438 20.125 13.980469 19.984375 13.773438 19.984375 C 13.648438 19.984375 13.355469 20.039063 13.246094 20.457031 L 12.214844 24.546875 C 12.144531 24.796875 12.144531 24.824219 12.035156 24.976563 C 11.757813 25.367188 11.296875 25.839844 10.628906 25.839844 C 9.851563 25.839844 9.78125 25.074219 9.78125 24.699219 C 9.78125 23.90625 10.15625 22.835938 10.53125 21.835938 C 10.683594 21.433594 10.769531 21.238281 10.769531 20.960938 C 10.769531 20.375 10.351563 19.847656 9.667969 19.847656 C 8.390625 19.847656 7.875 21.863281 7.875 21.976563 C 7.875 22.03125 7.933594 22.101563 8.027344 22.101563 C 8.152344 22.101563 8.167969 22.042969 8.222656 21.851563 C 8.558594 20.679688 9.085938 20.125 9.628906 20.125 C 9.753906 20.125 9.988281 20.125 9.988281 20.585938 C 9.988281 20.945313 9.835938 21.347656 9.628906 21.875 C 8.949219 23.699219 8.949219 24.15625 8.949219 24.492188 C 8.949219 25.8125 9.894531 26.117188 10.589844 26.117188 C 10.992188 26.117188 11.492188 25.992188 11.976563 25.480469 L 11.992188 25.492188 C 11.78125 26.3125 11.644531 26.855469 11.15625 27.539063 C 10.78125 28.066406 10.238281 28.539063 9.558594 28.539063 C 9.390625 28.539063 8.722656 28.511719 8.515625 27.871094 C 8.558594 27.882813 8.65625 27.882813 8.65625 27.882813 C 9.074219 27.882813 9.351563 27.523438 9.351563 27.203125 C 9.351563 26.882813 9.085938 26.773438 8.878906 26.773438 C 8.65625 26.773438 8.167969 26.9375 8.167969 27.621094 C 8.167969 28.328125 8.765625 28.816406 9.558594 28.816406 C 10.949219 28.816406 12.351563 27.539063 12.746094 25.992188 Z M 14.105469 20.570313 "/>
<path style=" stroke:none;fill-rule:evenodd;fill:rgb(0%,0%,0%);fill-opacity:1;" d="M 28.332031 21.222656 C 28.332031 20.960938 28.09375 20.960938 27.886719 20.960938 L 19.695313 20.960938 C 19.5 20.960938 19.25 20.960938 19.25 21.210938 C 19.25 21.472656 19.488281 21.472656 19.695313 21.472656 L 27.886719 21.472656 C 28.082031 21.472656 28.332031 21.472656 28.332031 21.222656 Z M 28.332031 23.8125 C 28.332031 23.546875 28.09375 23.546875 27.886719 23.546875 L 19.695313 23.546875 C 19.5 23.546875 19.25 23.546875 19.25 23.796875 C 19.25 24.0625 19.488281 24.0625 19.695313 24.0625 L 27.886719 24.0625 C 28.082031 24.0625 28.332031 24.0625 28.332031 23.8125 Z M 28.332031 23.8125 "/>
<path style=" stroke:none;fill-rule:evenodd;fill:rgb(0%,0%,0%);fill-opacity:1;" d="M 41.53125 8.578125 L 41.53125 8.277344 C 41.023438 8.277344 40.78125 8.277344 40.769531 7.984375 L 40.769531 6.117188 C 40.769531 5.273438 40.769531 4.96875 40.46875 4.617188 C 40.328125 4.453125 40.007813 4.257813 39.4375 4.257813 C 38.726563 4.257813 38.265625 4.675781 37.992188 5.28125 L 37.992188 4.257813 L 36.613281 4.363281 L 36.613281 4.667969 C 37.296875 4.667969 37.375 4.734375 37.375 5.214844 L 37.375 7.835938 C 37.375 8.277344 37.269531 8.277344 36.613281 8.277344 L 36.613281 8.578125 L 37.71875 8.550781 L 38.8125 8.578125 L 38.8125 8.277344 C 38.15625 8.277344 38.050781 8.277344 38.050781 7.835938 L 38.050781 6.035156 C 38.050781 5.019531 38.746094 4.472656 39.371094 4.472656 C 39.988281 4.472656 40.09375 5 40.09375 5.558594 L 40.09375 7.835938 C 40.09375 8.277344 39.988281 8.277344 39.332031 8.277344 L 39.332031 8.578125 L 40.4375 8.550781 Z M 41.53125 8.578125 "/>
<path style=" stroke:none;fill-rule:evenodd;fill:rgb(0%,0%,0%);fill-opacity:1;" d="M 44.117188 8.578125 L 44.117188 8.277344 C 43.46875 8.277344 43.429688 8.226563 43.429688 7.847656 L 43.429688 4.257813 L 42.0625 4.363281 L 42.0625 4.667969 C 42.695313 4.667969 42.785156 4.726563 42.785156 5.203125 L 42.785156 7.835938 C 42.785156 8.277344 42.679688 8.277344 42.023438 8.277344 L 42.023438 8.578125 L 43.097656 8.550781 C 43.441406 8.550781 43.78125 8.570313 44.117188 8.578125 Z M 43.578125 2.671875 C 43.578125 2.40625 43.351563 2.152344 43.058594 2.152344 C 42.726563 2.152344 42.53125 2.429688 42.53125 2.671875 C 42.53125 2.9375 42.757813 3.191406 43.050781 3.191406 C 43.382813 3.191406 43.578125 2.917969 43.578125 2.671875 Z M 43.578125 2.671875 "/>
<path style=" stroke:none;fill-rule:evenodd;fill:rgb(0%,0%,0%);fill-opacity:1;" d="M 49.632813 8.578125 L 49.632813 8.277344 C 49.125 8.277344 48.878906 8.277344 48.871094 7.984375 L 48.871094 6.117188 C 48.871094 5.273438 48.871094 4.96875 48.566406 4.617188 C 48.429688 4.453125 48.105469 4.257813 47.539063 4.257813 C 46.824219 4.257813 46.367188 4.675781 46.09375 5.28125 L 46.09375 4.257813 L 44.710938 4.363281 L 44.710938 4.667969 C 45.398438 4.667969 45.476563 4.734375 45.476563 5.214844 L 45.476563 7.835938 C 45.476563 8.277344 45.367188 8.277344 44.710938 8.277344 L 44.710938 8.578125 L 45.820313 8.550781 L 46.914063 8.578125 L 46.914063 8.277344 C 46.257813 8.277344 46.148438 8.277344 46.148438 7.835938 L 46.148438 6.035156 C 46.148438 5.019531 46.84375 4.472656 47.472656 4.472656 C 48.085938 4.472656 48.195313 5 48.195313 5.558594 L 48.195313 7.835938 C 48.195313 8.277344 48.085938 8.277344 47.433594 8.277344 L 47.433594 8.578125 L 48.539063 8.550781 Z M 49.632813 8.578125 "/>
<path style=" stroke:none;fill-rule:evenodd;fill:rgb(0%,0%,0%);fill-opacity:1;" d="M 50.605469 32.148438 L 52.289063 27.699219 L 51.941406 27.699219 C 51.398438 29.144531 49.925781 30.09375 48.324219 30.507813 C 48.035156 30.578125 46.671875 30.9375 44 30.9375 L 35.613281 30.9375 L 42.695313 22.636719 C 42.789063 22.527344 42.820313 22.484375 42.820313 22.414063 C 42.820313 22.386719 42.820313 22.34375 42.722656 22.207031 L 36.242188 13.347656 L 43.859375 13.347656 C 45.726563 13.347656 46.992188 13.542969 47.117188 13.570313 C 47.867188 13.679688 49.078125 13.917969 50.175781 14.613281 C 50.523438 14.835938 51.46875 15.460938 51.941406 16.585938 L 52.289063 16.585938 L 50.605469 12.679688 L 34.167969 12.679688 C 33.847656 12.679688 33.835938 12.695313 33.792969 12.777344 C 33.777344 12.820313 33.777344 13.082031 33.777344 13.234375 L 41.136719 23.304688 L 33.929688 31.746094 C 33.792969 31.914063 33.792969 31.984375 33.792969 31.996094 C 33.792969 32.148438 33.917969 32.148438 34.167969 32.148438 Z M 50.605469 32.148438 "/>
<path style=" stroke:none;fill-rule:evenodd;fill:rgb(0%,0%,0%);fill-opacity:1;" d="M 37.878906 36.265625 C 37.878906 36.070313 37.742188 35.914063 37.515625 35.914063 C 37.25 35.914063 36.988281 36.167969 36.988281 36.433594 C 36.988281 36.617188 37.125 36.785156 37.359375 36.785156 C 37.585938 36.785156 37.878906 36.558594 37.878906 36.265625 Z M 37.964844 40.980469 C 37.964844 40.882813 37.878906 40.882813 37.847656 40.882813 C 37.75 40.882813 37.75 40.914063 37.703125 41.058594 C 37.523438 41.675781 37.203125 42.273438 36.703125 42.273438 C 36.539063 42.273438 36.46875 42.175781 36.46875 41.949219 C 36.46875 41.703125 36.527344 41.566406 36.753906 40.972656 L 37.132813 39.945313 C 37.25 39.660156 37.25 39.640625 37.351563 39.375 C 37.429688 39.179688 37.476563 39.042969 37.476563 38.859375 C 37.476563 38.417969 37.164063 38.054688 36.675781 38.054688 C 35.753906 38.054688 35.382813 39.476563 35.382813 39.5625 C 35.382813 39.660156 35.5 39.660156 35.5 39.660156 C 35.597656 39.660156 35.609375 39.640625 35.65625 39.484375 C 35.921875 38.566406 36.3125 38.273438 36.644531 38.273438 C 36.722656 38.273438 36.890625 38.273438 36.890625 38.585938 C 36.890625 38.789063 36.820313 38.996094 36.78125 39.09375 C 36.703125 39.347656 36.265625 40.484375 36.109375 40.902344 C 36.007813 41.15625 35.882813 41.480469 35.882813 41.683594 C 35.882813 42.144531 36.214844 42.488281 36.683594 42.488281 C 37.605469 42.488281 37.964844 41.070313 37.964844 40.980469 Z M 37.964844 40.980469 "/>
<path style=" stroke:none;fill-rule:evenodd;fill:rgb(0%,0%,0%);fill-opacity:1;" d="M 45.550781 38.984375 C 45.550781 38.789063 45.367188 38.789063 45.230469 38.789063 L 39.371094 38.789063 C 39.234375 38.789063 39.046875 38.789063 39.046875 38.984375 C 39.046875 39.179688 39.234375 39.179688 39.378906 39.179688 L 45.21875 39.179688 C 45.367188 39.179688 45.550781 39.179688 45.550781 38.984375 Z M 45.550781 40.882813 C 45.550781 40.6875 45.367188 40.6875 45.21875 40.6875 L 39.378906 40.6875 C 39.234375 40.6875 39.046875 40.6875 39.046875 40.882813 C 39.046875 41.078125 39.234375 41.078125 39.371094 41.078125 L 45.230469 41.078125 C 45.367188 41.078125 45.550781 41.078125 45.550781 40.882813 Z M 45.550781 40.882813 "/>
<path style=" stroke:none;fill-rule:evenodd;fill:rgb(0%,0%,0%);fill-opacity:1;" d="M 50.199219 42.378906 L 50.199219 42.078125 L 49.886719 42.078125 C 49.003906 42.078125 48.976563 41.96875 48.976563 41.605469 L 48.976563 36.121094 C 48.976563 35.886719 48.976563 35.867188 48.75 35.867188 C 48.144531 36.492188 47.28125 36.492188 46.96875 36.492188 L 46.96875 36.796875 C 47.164063 36.796875 47.742188 36.796875 48.25 36.539063 L 48.25 41.605469 C 48.25 41.960938 48.222656 42.078125 47.34375 42.078125 L 47.03125 42.078125 L 47.03125 42.378906 C 47.371094 42.351563 48.222656 42.351563 48.613281 42.351563 C 49.003906 42.351563 49.855469 42.351563 50.199219 42.378906 Z M 50.199219 42.378906 "/>
<path style=" stroke:none;fill-rule:evenodd;fill:rgb(0%,0%,0%);fill-opacity:1;" d="M 62.84375 23.992188 C 62.84375 23.921875 62.785156 23.867188 62.703125 23.867188 C 62.578125 23.867188 62.566406 23.9375 62.507813 24.144531 C 62.257813 25.101563 62.007813 25.839844 61.453125 25.839844 C 61.035156 25.839844 61.035156 25.382813 61.035156 25.203125 C 61.035156 24.882813 61.078125 24.742188 61.214844 24.15625 L 61.492188 23.015625 L 62.0625 20.75 C 62.160156 20.402344 62.160156 20.375 62.160156 20.332031 C 62.160156 20.125 61.996094 19.984375 61.785156 19.984375 C 61.382813 19.984375 61.285156 20.332031 61.203125 20.679688 L 60.214844 24.699219 C 60.214844 24.699219 59.65625 25.839844 58.644531 25.839844 C 57.921875 25.839844 57.78125 25.214844 57.78125 24.699219 C 57.78125 23.90625 58.171875 22.796875 58.53125 21.863281 C 58.699219 21.417969 58.769531 21.238281 58.769531 20.960938 C 58.769531 20.359375 58.335938 19.847656 57.667969 19.847656 C 56.390625 19.847656 55.875 21.863281 55.875 21.976563 C 55.875 22.03125 55.929688 22.101563 56.027344 22.101563 C 56.152344 22.101563 56.167969 22.042969 56.222656 21.851563 C 56.554688 20.652344 57.101563 20.125 57.628906 20.125 C 57.765625 20.125 57.988281 20.140625 57.988281 20.585938 C 57.988281 20.945313 57.835938 21.347656 57.628906 21.875 C 57.015625 23.53125 56.945313 24.0625 56.945313 24.476563 C 56.945313 25.898438 58.015625 26.117188 58.585938 26.117188 C 59.476563 26.117188 59.964844 25.507813 60.242188 25.171875 C 60.421875 25.953125 61.089844 26.117188 61.425781 26.117188 C 61.867188 26.117188 62.203125 25.828125 62.425781 25.351563 C 62.660156 24.851563 62.84375 24.03125 62.84375 23.992188 Z M 62.84375 23.992188 "/>
<path style=" stroke:none;fill-rule:evenodd;fill:rgb(0%,0%,0%);fill-opacity:1;" d="M 65.976563 21.96875 C 65.976563 21.769531 65.839844 21.613281 65.613281 21.613281 C 65.351563 21.613281 65.085938 21.867188 65.085938 22.132813 C 65.085938 22.320313 65.222656 22.484375 65.457031 22.484375 C 65.683594 22.484375 65.976563 22.257813 65.976563 21.96875 Z M 66.066406 26.679688 C 66.066406 26.582031 65.976563 26.582031 65.949219 26.582031 C 65.847656 26.582031 65.847656 26.613281 65.800781 26.757813 C 65.625 27.375 65.300781 27.972656 64.804688 27.972656 C 64.636719 27.972656 64.566406 27.875 64.566406 27.648438 C 64.566406 27.40625 64.628906 27.265625 64.851563 26.671875 L 65.234375 25.644531 C 65.351563 25.359375 65.351563 25.339844 65.449219 25.078125 C 65.527344 24.882813 65.574219 24.742188 65.574219 24.558594 C 65.574219 24.117188 65.261719 23.757813 64.773438 23.757813 C 63.855469 23.757813 63.484375 25.175781 63.484375 25.261719 C 63.484375 25.359375 63.601563 25.359375 63.601563 25.359375 C 63.699219 25.359375 63.707031 25.339844 63.757813 25.183594 C 64.019531 24.265625 64.410156 23.972656 64.746094 23.972656 C 64.824219 23.972656 64.988281 23.972656 64.988281 24.285156 C 64.988281 24.492188 64.921875 24.695313 64.882813 24.792969 C 64.804688 25.046875 64.363281 26.183594 64.207031 26.601563 C 64.109375 26.859375 63.980469 27.179688 63.980469 27.386719 C 63.980469 27.84375 64.316406 28.1875 64.785156 28.1875 C 65.703125 28.1875 66.066406 26.769531 66.066406 26.679688 Z M 66.066406 26.679688 "/>
<path style=" stroke:none;fill-rule:evenodd;fill:rgb(0%,0%,0%);fill-opacity:1;" d="M 72.871094 22.503906 C 72.871094 22.101563 72.535156 21.765625 72.132813 21.765625 C 71.730469 21.765625 71.394531 22.101563 71.394531 22.503906 C 71.394531 22.90625 71.730469 23.242188 72.132813 23.242188 C 72.535156 23.242188 72.871094 22.90625 72.871094 22.503906 Z M 72.871094 22.503906 "/>
<path style=" stroke:none;fill-rule:evenodd;fill:rgb(0%,0%,0%);fill-opacity:1;" d="M 85.753906 24.242188 C 86.074219 23.433594 86.585938 21.597656 86.585938 20.777344 C 86.585938 19.929688 86.15625 19.847656 86.03125 19.847656 C 85.695313 19.847656 85.390625 20.179688 85.390625 20.457031 C 85.390625 20.625 85.488281 20.722656 85.558594 20.777344 C 85.683594 20.902344 86.042969 21.28125 86.042969 22 C 86.042969 22.476563 85.65625 23.78125 85.363281 24.4375 C 84.972656 25.285156 84.457031 25.839844 83.734375 25.839844 C 82.957031 25.839844 82.707031 25.257813 82.707031 24.617188 C 82.707031 24.214844 82.832031 23.726563 82.886719 23.492188 L 83.472656 21.152344 C 83.542969 20.875 83.667969 20.390625 83.667969 20.332031 C 83.667969 20.125 83.5 19.984375 83.289063 19.984375 C 82.886719 19.984375 82.789063 20.332031 82.707031 20.667969 L 81.925781 23.867188 C 81.871094 24.101563 81.871094 24.253906 81.871094 24.5625 C 81.871094 24.894531 81.425781 25.421875 81.414063 25.453125 C 81.261719 25.605469 81.039063 25.839844 80.605469 25.839844 C 79.507813 25.839844 79.507813 24.796875 79.507813 24.5625 C 79.507813 24.117188 79.605469 23.503906 80.230469 21.851563 C 80.398438 21.417969 80.46875 21.238281 80.46875 20.960938 C 80.46875 20.375 80.050781 19.847656 79.367188 19.847656 C 78.089844 19.847656 77.574219 21.863281 77.574219 21.976563 C 77.574219 22.03125 77.628906 22.101563 77.726563 22.101563 C 77.851563 22.101563 77.867188 22.042969 77.921875 21.851563 C 78.269531 20.625 78.8125 20.125 79.328125 20.125 C 79.464844 20.125 79.6875 20.140625 79.6875 20.585938 C 79.6875 20.652344 79.6875 20.945313 79.453125 21.558594 C 78.800781 23.296875 78.660156 23.867188 78.660156 24.394531 C 78.660156 25.855469 79.855469 26.117188 80.566406 26.117188 C 80.800781 26.117188 81.425781 26.117188 81.984375 25.132813 C 82.289063 25.964844 83.152344 26.117188 83.679688 26.117188 C 84.738281 26.117188 85.363281 25.203125 85.753906 24.242188 Z M 85.753906 24.242188 "/>
<path style=" stroke:none;fill-rule:evenodd;fill:rgb(0%,0%,0%);fill-opacity:1;" d="M 89.675781 21.96875 C 89.675781 21.769531 89.539063 21.613281 89.316406 21.613281 C 89.050781 21.613281 88.785156 21.867188 88.785156 22.132813 C 88.785156 22.320313 88.925781 22.484375 89.160156 22.484375 C 89.382813 22.484375 89.675781 22.257813 89.675781 21.96875 Z M 89.765625 26.679688 C 89.765625 26.582031 89.675781 26.582031 89.648438 26.582031 C 89.550781 26.582031 89.550781 26.613281 89.5 26.757813 C 89.324219 27.375 89.003906 27.972656 88.503906 27.972656 C 88.335938 27.972656 88.269531 27.875 88.269531 27.648438 C 88.269531 27.40625 88.328125 27.265625 88.550781 26.671875 L 88.933594 25.644531 C 89.050781 25.359375 89.050781 25.339844 89.148438 25.078125 C 89.226563 24.882813 89.277344 24.742188 89.277344 24.558594 C 89.277344 24.117188 88.964844 23.757813 88.472656 23.757813 C 87.554688 23.757813 87.183594 25.175781 87.183594 25.261719 C 87.183594 25.359375 87.300781 25.359375 87.300781 25.359375 C 87.398438 25.359375 87.410156 25.339844 87.457031 25.183594 C 87.722656 24.265625 88.113281 23.972656 88.445313 23.972656 C 88.523438 23.972656 88.691406 23.972656 88.691406 24.285156 C 88.691406 24.492188 88.621094 24.695313 88.582031 24.792969 C 88.503906 25.046875 88.0625 26.183594 87.90625 26.601563 C 87.808594 26.859375 87.683594 27.179688 87.683594 27.386719 C 87.683594 27.84375 88.015625 28.1875 88.484375 28.1875 C 89.402344 28.1875 89.765625 26.769531 89.765625 26.679688 Z M 89.765625 26.679688 "/>
<path style=" stroke:none;fill-rule:evenodd;fill:rgb(0%,0%,0%);fill-opacity:1;" d="M 9.554688 65.238281 C 9.875 64.433594 10.386719 62.597656 10.386719 61.777344 C 10.386719 60.929688 9.957031 60.847656 9.832031 60.847656 C 9.496094 60.847656 9.191406 61.179688 9.191406 61.457031 C 9.191406 61.625 9.289063 61.722656 9.359375 61.777344 C 9.484375 61.902344 9.847656 62.277344 9.847656 63 C 9.847656 63.472656 9.457031 64.78125 9.164063 65.433594 C 8.773438 66.285156 8.261719 66.839844 7.535156 66.839844 C 6.757813 66.839844 6.507813 66.253906 6.507813 65.617188 C 6.507813 65.214844 6.632813 64.726563 6.6875 64.488281 L 7.273438 62.152344 C 7.34375 61.875 7.46875 61.386719 7.46875 61.332031 C 7.46875 61.125 7.300781 60.984375 7.089844 60.984375 C 6.6875 60.984375 6.589844 61.332031 6.507813 61.667969 L 5.730469 64.863281 C 5.675781 65.101563 5.675781 65.253906 5.675781 65.558594 C 5.675781 65.894531 5.230469 66.421875 5.214844 66.449219 C 5.0625 66.605469 4.839844 66.839844 4.410156 66.839844 C 3.308594 66.839844 3.308594 65.796875 3.308594 65.558594 C 3.308594 65.113281 3.40625 64.503906 4.03125 62.847656 C 4.199219 62.417969 4.269531 62.238281 4.269531 61.957031 C 4.269531 61.375 3.851563 60.847656 3.167969 60.847656 C 1.890625 60.847656 1.375 62.863281 1.375 62.972656 C 1.375 63.027344 1.433594 63.097656 1.527344 63.097656 C 1.652344 63.097656 1.667969 63.042969 1.722656 62.847656 C 2.070313 61.625 2.613281 61.125 3.128906 61.125 C 3.269531 61.125 3.488281 61.136719 3.488281 61.582031 C 3.488281 61.652344 3.488281 61.945313 3.253906 62.558594 C 2.601563 64.292969 2.460938 64.863281 2.460938 65.394531 C 2.460938 66.855469 3.65625 67.117188 4.367188 67.117188 C 4.601563 67.117188 5.230469 67.117188 5.785156 66.128906 C 6.089844 66.964844 6.953125 67.117188 7.480469 67.117188 C 8.539063 67.117188 9.164063 66.199219 9.554688 65.238281 Z M 9.554688 65.238281 "/>
<path style=" stroke:none;fill-rule:evenodd;fill:rgb(0%,0%,0%);fill-opacity:1;" d="M 13.578125 62.964844 C 13.578125 62.769531 13.441406 62.613281 13.214844 62.613281 C 12.953125 62.613281 12.6875 62.867188 12.6875 63.132813 C 12.6875 63.316406 12.824219 63.484375 13.058594 63.484375 C 13.285156 63.484375 13.578125 63.257813 13.578125 62.964844 Z M 13.664063 67.679688 C 13.664063 67.582031 13.578125 67.582031 13.546875 67.582031 C 13.449219 67.582031 13.449219 67.613281 13.402344 67.757813 C 13.226563 68.375 12.902344 68.972656 12.40625 68.972656 C 12.238281 68.972656 12.167969 68.875 12.167969 68.648438 C 12.167969 68.402344 12.226563 68.265625 12.453125 67.671875 L 12.835938 66.644531 C 12.953125 66.359375 12.953125 66.339844 13.050781 66.074219 C 13.128906 65.878906 13.175781 65.742188 13.175781 65.558594 C 13.175781 65.117188 12.863281 64.753906 12.375 64.753906 C 11.457031 64.753906 11.085938 66.175781 11.085938 66.261719 C 11.085938 66.359375 11.203125 66.359375 11.203125 66.359375 C 11.296875 66.359375 11.308594 66.339844 11.359375 66.183594 C 11.621094 65.265625 12.011719 64.972656 12.34375 64.972656 C 12.421875 64.972656 12.589844 64.972656 12.589844 65.285156 C 12.589844 65.488281 12.523438 65.695313 12.484375 65.792969 C 12.40625 66.046875 11.964844 67.183594 11.808594 67.601563 C 11.710938 67.855469 11.582031 68.179688 11.582031 68.386719 C 11.582031 68.84375 11.914063 69.1875 12.386719 69.1875 C 13.304688 69.1875 13.664063 67.769531 13.664063 67.679688 Z M 13.664063 67.679688 "/>
<path style=" stroke:none;fill-rule:evenodd;fill:rgb(0%,0%,0%);fill-opacity:1;" d="M 28.332031 62.222656 C 28.332031 61.957031 28.09375 61.957031 27.886719 61.957031 L 19.695313 61.957031 C 19.5 61.957031 19.25 61.957031 19.25 62.207031 C 19.25 62.472656 19.488281 62.472656 19.695313 62.472656 L 27.886719 62.472656 C 28.082031 62.472656 28.332031 62.472656 28.332031 62.222656 Z M 28.332031 64.808594 C 28.332031 64.542969 28.09375 64.542969 27.886719 64.542969 L 19.695313 64.542969 C 19.5 64.542969 19.25 64.542969 19.25 64.796875 C 19.25 65.058594 19.488281 65.058594 19.695313 65.058594 L 27.886719 65.058594 C 28.082031 65.058594 28.332031 65.058594 28.332031 64.808594 Z M 28.332031 64.808594 "/>
<path style=" stroke:none;fill-rule:evenodd;fill:rgb(0%,0%,0%);fill-opacity:1;" d="M 52.269531 51.988281 L 52.269531 51.585938 C 51.921875 51.613281 51.671875 51.613281 51.238281 51.613281 L 50.054688 51.585938 L 50.054688 51.988281 C 50.683594 52.015625 50.851563 52.390625 50.851563 52.65625 C 50.851563 52.65625 50.851563 52.765625 50.792969 52.90625 L 49.515625 56.550781 L 48.125 52.613281 C 48.054688 52.449219 48.054688 52.417969 48.054688 52.378906 C 48.054688 51.988281 48.570313 51.988281 48.859375 51.988281 L 48.859375 51.585938 C 48.472656 51.613281 47.902344 51.613281 47.5 51.613281 L 46.246094 51.585938 L 46.246094 51.988281 C 46.773438 51.988281 46.957031 52.015625 47.109375 52.195313 C 47.179688 52.28125 47.34375 52.738281 47.441406 53.019531 L 46.261719 56.410156 L 44.925781 52.628906 C 44.855469 52.449219 44.855469 52.417969 44.855469 52.363281 C 44.855469 51.988281 45.398438 51.988281 45.664063 51.988281 L 45.664063 51.585938 C 45.3125 51.613281 44.617188 51.613281 44.242188 51.613281 L 42.949219 51.585938 L 42.949219 51.988281 C 43.660156 51.988281 43.796875 52.042969 43.953125 52.488281 L 45.703125 57.46875 C 45.757813 57.621094 45.800781 57.71875 45.953125 57.71875 C 46.078125 57.71875 46.148438 57.675781 46.21875 57.453125 L 47.609375 53.488281 L 49 57.453125 C 49.070313 57.675781 49.140625 57.71875 49.265625 57.71875 C 49.417969 57.71875 49.460938 57.621094 49.515625 57.46875 L 51.113281 52.90625 C 51.421875 52.03125 52.03125 52.003906 52.269531 51.988281 Z M 52.269531 51.988281 "/>
<path style=" stroke:none;fill-rule:evenodd;fill:rgb(0%,0%,0%);fill-opacity:1;" d="M 57.859375 55.925781 C 57.859375 55.839844 57.789063 55.785156 57.707031 55.785156 C 57.59375 55.785156 57.570313 55.855469 57.539063 55.925781 C 57.179688 57.089844 56.246094 57.410156 55.664063 57.410156 C 55.078125 57.410156 53.671875 57.023438 53.671875 54.617188 L 53.671875 54.351563 L 57.527344 54.351563 C 57.832031 54.351563 57.859375 54.351563 57.859375 54.089844 C 57.859375 52.683594 57.109375 51.375 55.425781 51.375 C 53.839844 51.375 52.617188 52.808594 52.617188 54.535156 C 52.617188 56.371094 54.035156 57.71875 55.578125 57.71875 C 57.234375 57.71875 57.859375 56.214844 57.859375 55.925781 Z M 57 54.089844 L 53.6875 54.089844 C 53.800781 51.90625 55.023438 51.652344 55.414063 51.652344 C 56.898438 51.652344 56.984375 53.613281 57 54.089844 Z M 57 54.089844 "/>
<path style=" stroke:none;fill-rule:evenodd;fill:rgb(0%,0%,0%);fill-opacity:1;" d="M 61.652344 57.578125 L 61.652344 57.175781 C 60.746094 57.175781 60.691406 57.105469 60.691406 56.5625 L 60.691406 51.445313 L 58.800781 51.597656 L 58.800781 52.003906 C 59.691406 52.003906 59.816406 52.085938 59.816406 52.765625 L 59.816406 56.550781 C 59.816406 57.175781 59.664063 57.175781 58.757813 57.175781 L 58.757813 57.578125 C 59.148438 57.550781 59.816406 57.550781 60.21875 57.550781 C 60.371094 57.550781 61.175781 57.550781 61.652344 57.578125 Z M 60.871094 49.179688 C 60.871094 48.761719 60.539063 48.496094 60.203125 48.496094 C 59.816406 48.496094 59.523438 48.804688 59.523438 49.179688 C 59.523438 49.539063 59.828125 49.847656 60.191406 49.847656 C 60.609375 49.847656 60.871094 49.511719 60.871094 49.179688 Z M 60.871094 49.179688 "/>
<path style=" stroke:none;fill-rule:evenodd;fill:rgb(0%,0%,0%);fill-opacity:1;" d="M 68.707031 51.933594 C 68.707031 51.683594 68.511719 51.292969 68.023438 51.292969 C 67.300781 51.292969 66.757813 51.738281 66.5625 51.945313 C 66.144531 51.628906 65.660156 51.445313 65.128906 51.445313 C 63.878906 51.445313 62.949219 52.390625 62.949219 53.460938 C 62.949219 54.253906 63.433594 54.769531 63.574219 54.894531 C 63.40625 55.105469 63.15625 55.507813 63.15625 56.050781 C 63.15625 56.855469 63.644531 57.203125 63.753906 57.273438 C 63.113281 57.453125 62.472656 57.953125 62.472656 58.675781 C 62.472656 59.636719 63.78125 60.429688 65.492188 60.429688 C 67.148438 60.429688 68.523438 59.691406 68.523438 58.648438 C 68.523438 58.300781 68.425781 57.480469 67.59375 57.050781 C 66.882813 56.6875 66.1875 56.6875 64.992188 56.6875 C 64.144531 56.6875 64.046875 56.6875 63.796875 56.425781 C 63.65625 56.285156 63.53125 56.019531 63.53125 55.730469 C 63.53125 55.492188 63.613281 55.257813 63.753906 55.0625 C 64.410156 55.492188 64.964844 55.492188 65.117188 55.492188 C 66.367188 55.492188 67.300781 54.546875 67.300781 53.476563 C 67.300781 53.101563 67.191406 52.574219 66.746094 52.128906 C 67.285156 51.570313 67.941406 51.570313 68.011719 51.570313 C 68.066406 51.570313 68.136719 51.570313 68.191406 51.597656 C 68.050781 51.652344 67.980469 51.792969 67.980469 51.945313 C 67.980469 52.140625 68.121094 52.308594 68.34375 52.308594 C 68.457031 52.308594 68.707031 52.238281 68.707031 51.933594 Z M 66.339844 53.460938 C 66.339844 53.714844 66.339844 54.285156 66.105469 54.660156 C 65.839844 55.0625 65.421875 55.199219 65.128906 55.199219 C 63.90625 55.199219 63.90625 53.796875 63.90625 53.476563 C 63.90625 53.226563 63.90625 52.65625 64.144531 52.28125 C 64.410156 51.878906 64.824219 51.738281 65.117188 51.738281 C 66.339844 51.738281 66.339844 53.144531 66.339844 53.460938 Z M 67.84375 58.664063 C 67.84375 59.484375 66.785156 60.136719 65.507813 60.136719 C 64.171875 60.136719 63.15625 59.457031 63.15625 58.664063 C 63.15625 58.550781 63.183594 58.011719 63.710938 57.648438 C 64.019531 57.453125 64.144531 57.453125 65.117188 57.453125 C 66.269531 57.453125 67.84375 57.453125 67.84375 58.664063 Z M 67.84375 58.664063 "/>
<path style=" stroke:none;fill-rule:evenodd;fill:rgb(0%,0%,0%);fill-opacity:1;" d="M 76.144531 57.578125 L 76.144531 57.175781 C 75.449219 57.175781 75.101563 57.175781 75.089844 56.757813 L 75.089844 54.199219 C 75.089844 52.90625 75.089844 52.515625 74.769531 52.070313 C 74.363281 51.527344 73.710938 51.445313 73.238281 51.445313 C 72.042969 51.445313 71.488281 52.347656 71.292969 52.78125 L 71.277344 52.78125 L 71.277344 47.925781 L 69.34375 48.082031 L 69.34375 48.484375 C 70.289063 48.484375 70.402344 48.582031 70.402344 49.261719 L 70.402344 56.550781 C 70.402344 57.175781 70.246094 57.175781 69.34375 57.175781 L 69.34375 57.578125 C 69.707031 57.550781 70.457031 57.550781 70.847656 57.550781 C 71.25 57.550781 72 57.550781 72.363281 57.578125 L 72.363281 57.175781 C 71.472656 57.175781 71.304688 57.175781 71.304688 56.550781 L 71.304688 53.964844 C 71.304688 52.503906 72.265625 51.722656 73.128906 51.722656 C 73.988281 51.722656 74.183594 52.433594 74.183594 53.28125 L 74.183594 56.550781 C 74.183594 57.175781 74.03125 57.175781 73.128906 57.175781 L 73.128906 57.578125 C 73.488281 57.550781 74.238281 57.550781 74.628906 57.550781 C 75.03125 57.550781 75.785156 57.550781 76.144531 57.578125 Z M 76.144531 57.578125 "/>
<path style=" stroke:none;fill-rule:evenodd;fill:rgb(0%,0%,0%);fill-opacity:1;" d="M 80.632813 55.855469 L 80.632813 55.0625 L 80.328125 55.0625 L 80.328125 55.828125 C 80.328125 56.828125 79.925781 57.410156 79.382813 57.410156 C 78.433594 57.410156 78.433594 56.117188 78.433594 55.882813 L 78.433594 51.988281 L 80.394531 51.988281 L 80.394531 51.585938 L 78.433594 51.585938 L 78.433594 49.027344 L 78.128906 49.027344 C 78.117188 50.332031 77.613281 51.667969 76.347656 51.710938 L 76.347656 51.988281 L 77.53125 51.988281 L 77.53125 55.855469 C 77.53125 57.398438 78.558594 57.71875 79.296875 57.71875 C 80.175781 57.71875 80.632813 56.855469 80.632813 55.855469 Z M 80.632813 55.855469 "/>
<path style=" stroke:none;fill-rule:evenodd;fill:rgb(0%,0%,0%);fill-opacity:1;" d="M 86.292969 55.8125 C 86.292969 55.0625 85.835938 54.617188 85.710938 54.492188 C 85.210938 54.058594 84.832031 53.976563 83.917969 53.808594 C 83.5 53.726563 82.484375 53.53125 82.484375 52.699219 C 82.484375 52.265625 82.777344 51.628906 84.027344 51.628906 C 85.542969 51.628906 85.628906 52.917969 85.65625 53.351563 C 85.667969 53.460938 85.765625 53.460938 85.808594 53.460938 C 85.960938 53.460938 85.960938 53.394531 85.960938 53.144531 L 85.960938 51.695313 C 85.960938 51.445313 85.960938 51.375 85.820313 51.375 C 85.710938 51.375 85.445313 51.683594 85.347656 51.808594 C 84.917969 51.460938 84.488281 51.375 84.042969 51.375 C 82.359375 51.375 81.859375 52.292969 81.859375 53.058594 C 81.859375 53.210938 81.859375 53.699219 82.386719 54.183594 C 82.832031 54.574219 83.304688 54.671875 83.945313 54.796875 C 84.707031 54.949219 84.890625 54.992188 85.238281 55.269531 C 85.488281 55.480469 85.667969 55.785156 85.667969 56.175781 C 85.667969 56.773438 85.320313 57.441406 84.097656 57.441406 C 83.179688 57.441406 82.511719 56.910156 82.207031 55.519531 C 82.152344 55.269531 82.136719 55.242188 82.136719 55.242188 C 82.109375 55.1875 82.050781 55.1875 82.011719 55.1875 C 81.859375 55.1875 81.859375 55.257813 81.859375 55.507813 L 81.859375 57.398438 C 81.859375 57.648438 81.859375 57.71875 81.996094 57.71875 C 82.066406 57.71875 82.082031 57.703125 82.316406 57.410156 C 82.386719 57.316406 82.386719 57.285156 82.59375 57.066406 C 83.125 57.71875 83.875 57.71875 84.113281 57.71875 C 85.570313 57.71875 86.292969 56.910156 86.292969 55.8125 Z M 86.292969 55.8125 "/>
<path style=" stroke:none;fill-rule:evenodd;fill:rgb(0%,0%,0%);fill-opacity:1;" d="M 89.578125 54.667969 C 89.578125 54.46875 89.441406 54.3125 89.214844 54.3125 C 88.949219 54.3125 88.6875 54.566406 88.6875 54.832031 C 88.6875 55.019531 88.824219 55.183594 89.058594 55.183594 C 89.285156 55.183594 89.578125 54.957031 89.578125 54.667969 Z M 89.664063 59.378906 C 89.664063 59.28125 89.578125 59.28125 89.546875 59.28125 C 89.449219 59.28125 89.449219 59.3125 89.402344 59.457031 C 89.222656 60.074219 88.902344 60.671875 88.402344 60.671875 C 88.238281 60.671875 88.167969 60.574219 88.167969 60.347656 C 88.167969 60.105469 88.226563 59.964844 88.453125 59.371094 L 88.832031 58.34375 C 88.949219 58.058594 88.949219 58.039063 89.050781 57.777344 C 89.128906 57.582031 89.175781 57.441406 89.175781 57.257813 C 89.175781 56.816406 88.863281 56.457031 88.375 56.457031 C 87.453125 56.457031 87.082031 57.875 87.082031 57.960938 C 87.082031 58.058594 87.199219 58.058594 87.199219 58.058594 C 87.296875 58.058594 87.308594 58.039063 87.355469 57.882813 C 87.621094 56.964844 88.011719 56.671875 88.34375 56.671875 C 88.421875 56.671875 88.589844 56.671875 88.589844 56.984375 C 88.589844 57.191406 88.519531 57.394531 88.480469 57.492188 C 88.402344 57.746094 87.964844 58.882813 87.808594 59.300781 C 87.707031 59.558594 87.582031 59.878906 87.582031 60.085938 C 87.582031 60.542969 87.914063 60.886719 88.382813 60.886719 C 89.304688 60.886719 89.664063 59.46875 89.664063 59.378906 Z M 89.664063 59.378906 "/>
<path style="fill:none;stroke-width:0.557991;stroke-linecap:square;stroke-linejoin:miter;stroke:rgb(0%,0%,0%);stroke-opacity:1;stroke-miterlimit:10;" d="M 34.1875 63.484375 L 99.175781 63.484375 "/>
<path style=" stroke:none;fill-rule:evenodd;fill:rgb(0%,0%,0%);fill-opacity:1;" d="M 40.054688 73.503906 L 35.117188 79.609375 C 35.007813 79.75 34.992188 79.777344 34.992188 79.832031 C 34.992188 79.988281 35.117188 79.988281 35.367188 79.988281 L 46.898438 79.988281 L 48.09375 76.523438 L 47.746094 76.523438 C 47.398438 77.566406 46.464844 78.414063 45.285156 78.816406 C 45.0625 78.886719 44.101563 79.222656 42.058594 79.222656 L 36.148438 79.222656 L 40.972656 73.253906 C 41.070313 73.128906 41.097656 73.089844 41.097656 73.03125 C 41.097656 72.976563 41.085938 72.964844 41 72.839844 L 36.480469 66.636719 L 41.988281 66.636719 C 43.574219 66.636719 46.773438 66.730469 47.746094 69.332031 L 48.09375 69.332031 L 46.898438 66.078125 L 35.367188 66.078125 C 34.992188 66.078125 34.976563 66.09375 34.976563 66.523438 Z M 40.054688 73.503906 "/>
<path style=" stroke:none;fill-rule:evenodd;fill:rgb(0%,0%,0%);fill-opacity:1;" d="M 42.679688 82.667969 C 42.679688 82.46875 42.539063 82.3125 42.316406 82.3125 C 42.050781 82.3125 41.789063 82.566406 41.789063 82.832031 C 41.789063 83.019531 41.925781 83.183594 42.160156 83.183594 C 42.382813 83.183594 42.679688 82.957031 42.679688 82.667969 Z M 42.765625 87.378906 C 42.765625 87.28125 42.679688 87.28125 42.648438 87.28125 C 42.550781 87.28125 42.550781 87.3125 42.5 87.457031 C 42.324219 88.074219 42.003906 88.671875 41.503906 88.671875 C 41.335938 88.671875 41.269531 88.574219 41.269531 88.347656 C 41.269531 88.105469 41.328125 87.964844 41.554688 87.371094 L 41.933594 86.34375 C 42.050781 86.058594 42.050781 86.039063 42.148438 85.777344 C 42.226563 85.582031 42.277344 85.441406 42.277344 85.257813 C 42.277344 84.816406 41.964844 84.457031 41.476563 84.457031 C 40.554688 84.457031 40.183594 85.875 40.183594 85.960938 C 40.183594 86.058594 40.300781 86.058594 40.300781 86.058594 C 40.398438 86.058594 40.410156 86.039063 40.457031 85.882813 C 40.722656 84.964844 41.113281 84.671875 41.445313 84.671875 C 41.523438 84.671875 41.691406 84.671875 41.691406 84.984375 C 41.691406 85.191406 41.621094 85.394531 41.582031 85.492188 C 41.503906 85.746094 41.0625 86.882813 40.90625 87.300781 C 40.808594 87.558594 40.683594 87.878906 40.683594 88.085938 C 40.683594 88.542969 41.015625 88.886719 41.484375 88.886719 C 42.40625 88.886719 42.765625 87.46875 42.765625 87.378906 Z M 42.765625 87.378906 "/>
<path style=" stroke:none;fill-rule:evenodd;fill:rgb(0%,0%,0%);fill-opacity:1;" d="M 60.769531 70.988281 L 60.769531 70.585938 C 60.417969 70.613281 60.171875 70.613281 59.738281 70.613281 L 58.554688 70.585938 L 58.554688 70.988281 C 59.183594 71.015625 59.351563 71.390625 59.351563 71.65625 C 59.351563 71.65625 59.351563 71.765625 59.292969 71.90625 L 58.015625 75.550781 L 56.625 71.613281 C 56.554688 71.449219 56.554688 71.417969 56.554688 71.378906 C 56.554688 70.988281 57.070313 70.988281 57.359375 70.988281 L 57.359375 70.585938 C 56.972656 70.613281 56.402344 70.613281 56 70.613281 L 54.746094 70.585938 L 54.746094 70.988281 C 55.273438 70.988281 55.457031 71.015625 55.609375 71.195313 C 55.679688 71.28125 55.84375 71.738281 55.941406 72.019531 L 54.761719 75.410156 L 53.425781 71.628906 C 53.355469 71.449219 53.355469 71.417969 53.355469 71.363281 C 53.355469 70.988281 53.898438 70.988281 54.164063 70.988281 L 54.164063 70.585938 C 53.8125 70.613281 53.117188 70.613281 52.742188 70.613281 L 51.449219 70.585938 L 51.449219 70.988281 C 52.160156 70.988281 52.296875 71.042969 52.453125 71.488281 L 54.203125 76.46875 C 54.257813 76.621094 54.300781 76.71875 54.453125 76.71875 C 54.578125 76.71875 54.648438 76.675781 54.71875 76.453125 L 56.109375 72.488281 L 57.5 76.453125 C 57.570313 76.675781 57.640625 76.71875 57.765625 76.71875 C 57.917969 76.71875 57.960938 76.621094 58.015625 76.46875 L 59.613281 71.90625 C 59.921875 71.03125 60.53125 71.003906 60.769531 70.988281 Z M 60.769531 70.988281 "/>
<path style=" stroke:none;fill-rule:evenodd;fill:rgb(0%,0%,0%);fill-opacity:1;" d="M 66.359375 74.925781 C 66.359375 74.839844 66.289063 74.785156 66.207031 74.785156 C 66.09375 74.785156 66.066406 74.855469 66.039063 74.925781 C 65.675781 76.089844 64.746094 76.410156 64.160156 76.410156 C 63.578125 76.410156 62.171875 76.023438 62.171875 73.617188 L 62.171875 73.351563 L 66.027344 73.351563 C 66.332031 73.351563 66.359375 73.351563 66.359375 73.089844 C 66.359375 71.683594 65.609375 70.375 63.925781 70.375 C 62.339844 70.375 61.117188 71.808594 61.117188 73.535156 C 61.117188 75.371094 62.535156 76.71875 64.078125 76.71875 C 65.734375 76.71875 66.359375 75.214844 66.359375 74.925781 Z M 65.496094 73.089844 L 62.1875 73.089844 C 62.300781 70.90625 63.523438 70.652344 63.910156 70.652344 C 65.398438 70.652344 65.484375 72.613281 65.496094 73.089844 Z M 65.496094 73.089844 "/>
<path style=" stroke:none;fill-rule:evenodd;fill:rgb(0%,0%,0%);fill-opacity:1;" d="M 70.152344 76.578125 L 70.152344 76.175781 C 69.246094 76.175781 69.191406 76.105469 69.191406 75.5625 L 69.191406 70.445313 L 67.300781 70.597656 L 67.300781 71.003906 C 68.191406 71.003906 68.316406 71.085938 68.316406 71.765625 L 68.316406 75.550781 C 68.316406 76.175781 68.160156 76.175781 67.257813 76.175781 L 67.257813 76.578125 C 67.648438 76.550781 68.316406 76.550781 68.71875 76.550781 C 68.871094 76.550781 69.675781 76.550781 70.152344 76.578125 Z M 69.371094 68.179688 C 69.371094 67.761719 69.039063 67.496094 68.703125 67.496094 C 68.316406 67.496094 68.023438 67.804688 68.023438 68.179688 C 68.023438 68.539063 68.328125 68.847656 68.691406 68.847656 C 69.109375 68.847656 69.371094 68.511719 69.371094 68.179688 Z M 69.371094 68.179688 "/>
<path style=" stroke:none;fill-rule:evenodd;fill:rgb(0%,0%,0%);fill-opacity:1;" d="M 77.207031 70.933594 C 77.207031 70.683594 77.011719 70.292969 76.523438 70.292969 C 75.800781 70.292969 75.257813 70.738281 75.0625 70.945313 C 74.644531 70.628906 74.160156 70.445313 73.628906 70.445313 C 72.378906 70.445313 71.449219 71.390625 71.449219 72.460938 C 71.449219 73.253906 71.933594 73.769531 72.074219 73.894531 C 71.90625 74.105469 71.65625 74.507813 71.65625 75.050781 C 71.65625 75.855469 72.144531 76.203125 72.253906 76.273438 C 71.613281 76.453125 70.972656 76.953125 70.972656 77.675781 C 70.972656 78.636719 72.28125 79.429688 73.992188 79.429688 C 75.648438 79.429688 77.023438 78.691406 77.023438 77.648438 C 77.023438 77.300781 76.925781 76.480469 76.09375 76.050781 C 75.382813 75.6875 74.6875 75.6875 73.492188 75.6875 C 72.644531 75.6875 72.546875 75.6875 72.296875 75.425781 C 72.15625 75.285156 72.03125 75.019531 72.03125 74.730469 C 72.03125 74.492188 72.113281 74.257813 72.253906 74.0625 C 72.910156 74.492188 73.464844 74.492188 73.617188 74.492188 C 74.867188 74.492188 75.800781 73.546875 75.800781 72.476563 C 75.800781 72.101563 75.691406 71.574219 75.246094 71.128906 C 75.785156 70.570313 76.441406 70.570313 76.511719 70.570313 C 76.566406 70.570313 76.636719 70.570313 76.691406 70.597656 C 76.550781 70.652344 76.480469 70.792969 76.480469 70.945313 C 76.480469 71.140625 76.621094 71.308594 76.84375 71.308594 C 76.957031 71.308594 77.207031 71.238281 77.207031 70.933594 Z M 74.839844 72.460938 C 74.839844 72.714844 74.839844 73.285156 74.605469 73.660156 C 74.339844 74.0625 73.921875 74.199219 73.628906 74.199219 C 72.40625 74.199219 72.40625 72.796875 72.40625 72.476563 C 72.40625 72.226563 72.40625 71.65625 72.644531 71.28125 C 72.910156 70.878906 73.324219 70.738281 73.617188 70.738281 C 74.839844 70.738281 74.839844 72.144531 74.839844 72.460938 Z M 76.34375 77.664063 C 76.34375 78.484375 75.285156 79.136719 74.007813 79.136719 C 72.671875 79.136719 71.65625 78.457031 71.65625 77.664063 C 71.65625 77.550781 71.683594 77.011719 72.210938 76.648438 C 72.519531 76.453125 72.644531 76.453125 73.617188 76.453125 C 74.769531 76.453125 76.34375 76.453125 76.34375 77.664063 Z M 76.34375 77.664063 "/>
<path style=" stroke:none;fill-rule:evenodd;fill:rgb(0%,0%,0%);fill-opacity:1;" d="M 84.644531 76.578125 L 84.644531 76.175781 C 83.949219 76.175781 83.601563 76.175781 83.589844 75.757813 L 83.589844 73.199219 C 83.589844 71.90625 83.589844 71.515625 83.269531 71.070313 C 82.863281 70.527344 82.210938 70.445313 81.738281 70.445313 C 80.542969 70.445313 79.988281 71.347656 79.792969 71.78125 L 79.777344 71.78125 L 79.777344 66.925781 L 77.84375 67.082031 L 77.84375 67.484375 C 78.789063 67.484375 78.902344 67.582031 78.902344 68.261719 L 78.902344 75.550781 C 78.902344 76.175781 78.746094 76.175781 77.84375 76.175781 L 77.84375 76.578125 C 78.207031 76.550781 78.957031 76.550781 79.347656 76.550781 C 79.75 76.550781 80.5 76.550781 80.863281 76.578125 L 80.863281 76.175781 C 79.972656 76.175781 79.804688 76.175781 79.804688 75.550781 L 79.804688 72.964844 C 79.804688 71.503906 80.765625 70.722656 81.628906 70.722656 C 82.488281 70.722656 82.683594 71.433594 82.683594 72.28125 L 82.683594 75.550781 C 82.683594 76.175781 82.53125 76.175781 81.628906 76.175781 L 81.628906 76.578125 C 81.988281 76.550781 82.738281 76.550781 83.128906 76.550781 C 83.53125 76.550781 84.285156 76.550781 84.644531 76.578125 Z M 84.644531 76.578125 "/>
<path style=" stroke:none;fill-rule:evenodd;fill:rgb(0%,0%,0%);fill-opacity:1;" d="M 89.132813 74.855469 L 89.132813 74.0625 L 88.828125 74.0625 L 88.828125 74.828125 C 88.828125 75.828125 88.425781 76.410156 87.882813 76.410156 C 86.933594 76.410156 86.933594 75.117188 86.933594 74.882813 L 86.933594 70.988281 L 88.894531 70.988281 L 88.894531 70.585938 L 86.933594 70.585938 L 86.933594 68.027344 L 86.628906 68.027344 C 86.617188 69.332031 86.113281 70.667969 84.847656 70.710938 L 84.847656 70.988281 L 86.03125 70.988281 L 86.03125 74.855469 C 86.03125 76.398438 87.058594 76.71875 87.796875 76.71875 C 88.675781 76.71875 89.132813 75.855469 89.132813 74.855469 Z M 89.132813 74.855469 "/>
<path style=" stroke:none;fill-rule:evenodd;fill:rgb(0%,0%,0%);fill-opacity:1;" d="M 94.792969 74.8125 C 94.792969 74.0625 94.335938 73.617188 94.210938 73.492188 C 93.710938 73.058594 93.332031 72.976563 92.417969 72.808594 C 92 72.726563 90.984375 72.53125 90.984375 71.699219 C 90.984375 71.265625 91.277344 70.628906 92.527344 70.628906 C 94.042969 70.628906 94.128906 71.917969 94.15625 72.351563 C 94.167969 72.460938 94.265625 72.460938 94.308594 72.460938 C 94.460938 72.460938 94.460938 72.394531 94.460938 72.144531 L 94.460938 70.695313 C 94.460938 70.445313 94.460938 70.375 94.320313 70.375 C 94.210938 70.375 93.945313 70.683594 93.847656 70.808594 C 93.417969 70.460938 92.988281 70.375 92.542969 70.375 C 90.859375 70.375 90.359375 71.292969 90.359375 72.058594 C 90.359375 72.210938 90.359375 72.699219 90.886719 73.183594 C 91.332031 73.574219 91.804688 73.671875 92.445313 73.796875 C 93.207031 73.949219 93.390625 73.992188 93.738281 74.269531 C 93.988281 74.480469 94.167969 74.785156 94.167969 75.175781 C 94.167969 75.773438 93.820313 76.441406 92.597656 76.441406 C 91.679688 76.441406 91.011719 75.910156 90.707031 74.519531 C 90.652344 74.269531 90.636719 74.242188 90.636719 74.242188 C 90.609375 74.1875 90.550781 74.1875 90.511719 74.1875 C 90.359375 74.1875 90.359375 74.257813 90.359375 74.507813 L 90.359375 76.398438 C 90.359375 76.648438 90.359375 76.71875 90.496094 76.71875 C 90.566406 76.71875 90.582031 76.703125 90.816406 76.410156 C 90.886719 76.316406 90.886719 76.285156 91.09375 76.066406 C 91.625 76.71875 92.375 76.71875 92.613281 76.71875 C 94.070313 76.71875 94.792969 75.910156 94.792969 74.8125 Z M 94.792969 74.8125 "/>
<path style=" stroke:none;fill-rule:evenodd;fill:rgb(0%,0%,0%);fill-opacity:1;" d="M 98.078125 73.667969 C 98.078125 73.46875 97.941406 73.3125 97.714844 73.3125 C 97.449219 73.3125 97.1875 73.566406 97.1875 73.832031 C 97.1875 74.019531 97.324219 74.183594 97.558594 74.183594 C 97.785156 74.183594 98.078125 73.957031 98.078125 73.667969 Z M 98.164063 78.378906 C 98.164063 78.28125 98.078125 78.28125 98.046875 78.28125 C 97.949219 78.28125 97.949219 78.3125 97.902344 78.457031 C 97.722656 79.074219 97.402344 79.671875 96.902344 79.671875 C 96.738281 79.671875 96.667969 79.574219 96.667969 79.347656 C 96.667969 79.105469 96.726563 78.964844 96.953125 78.371094 L 97.332031 77.34375 C 97.449219 77.058594 97.449219 77.039063 97.550781 76.777344 C 97.628906 76.582031 97.675781 76.441406 97.675781 76.257813 C 97.675781 75.816406 97.363281 75.457031 96.875 75.457031 C 95.953125 75.457031 95.582031 76.875 95.582031 76.960938 C 95.582031 77.058594 95.699219 77.058594 95.699219 77.058594 C 95.796875 77.058594 95.808594 77.039063 95.855469 76.882813 C 96.121094 75.964844 96.511719 75.671875 96.84375 75.671875 C 96.921875 75.671875 97.089844 75.671875 97.089844 75.984375 C 97.089844 76.191406 97.019531 76.394531 96.980469 76.492188 C 96.902344 76.746094 96.464844 77.882813 96.308594 78.300781 C 96.207031 78.558594 96.082031 78.878906 96.082031 79.085938 C 96.082031 79.542969 96.414063 79.886719 96.882813 79.886719 C 97.804688 79.886719 98.164063 78.46875 98.164063 78.378906 Z M 98.164063 78.378906 "/>
</g>
</svg>
