<?xml version="1.0" encoding="UTF-8"?>
<svg xmlns="http://www.w3.org/2000/svg" xmlns:xlink="http://www.w3.org/1999/xlink" width="62pt" height="45pt" viewBox="0 0 62 45" version="1.1">
<g id="surface112">
<path style=" stroke:none;fill-rule:evenodd;fill:rgb(0%,0%,0%);fill-opacity:1;" d="M 7.605469 20.589844 C 7.621094 20.519531 7.648438 20.4375 7.648438 20.351563 C 7.648438 20.144531 7.480469 20.007813 7.273438 20.007813 C 7.148438 20.007813 6.855469 20.0625 6.742188 20.476563 L 5.714844 24.566406 C 5.644531 24.816406 5.644531 24.84375 5.535156 25 C 5.257813 25.386719 4.796875 25.859375 4.128906 25.859375 C 3.351563 25.859375 3.28125 25.09375 3.28125 24.71875 C 3.28125 23.929688 3.65625 22.855469 4.03125 21.855469 C 4.183594 21.453125 4.269531 21.257813 4.269531 20.980469 C 4.269531 20.394531 3.851563 19.867188 3.167969 19.867188 C 1.890625 19.867188 1.375 21.882813 1.375 21.996094 C 1.375 22.050781 1.429688 22.121094 1.527344 22.121094 C 1.652344 22.121094 1.667969 22.0625 1.722656 21.871094 C 2.054688 20.703125 2.585938 20.144531 3.128906 20.144531 C 3.253906 20.144531 3.488281 20.144531 3.488281 20.605469 C 3.488281 20.964844 3.335938 21.367188 3.128906 21.898438 C 2.445313 23.71875 2.445313 24.179688 2.445313 24.511719 C 2.445313 25.832031 3.390625 26.140625 4.085938 26.140625 C 4.492188 26.140625 4.992188 26.015625 5.476563 25.5 L 5.492188 25.511719 C 5.28125 26.335938 5.144531 26.875 4.65625 27.558594 C 4.28125 28.085938 3.738281 28.558594 3.058594 28.558594 C 2.890625 28.558594 2.222656 28.53125 2.015625 27.890625 C 2.054688 27.90625 2.15625 27.90625 2.15625 27.90625 C 2.570313 27.90625 2.851563 27.542969 2.851563 27.222656 C 2.851563 26.90625 2.585938 26.792969 2.375 26.792969 C 2.15625 26.792969 1.667969 26.960938 1.667969 27.640625 C 1.667969 28.351563 2.265625 28.835938 3.058594 28.835938 C 4.449219 28.835938 5.851563 27.558594 6.242188 26.015625 Z M 7.605469 20.589844 "/>
<path style=" stroke:none;fill-rule:evenodd;fill:rgb(0%,0%,0%);fill-opacity:1;" d="M 21.832031 21.242188 C 21.832031 20.980469 21.59375 20.980469 21.386719 20.980469 L 13.195313 20.980469 C 13 20.980469 12.75 20.980469 12.75 21.230469 C 12.75 21.492188 12.988281 21.492188 13.195313 21.492188 L 21.386719 21.492188 C 21.582031 21.492188 21.832031 21.492188 21.832031 21.242188 Z M 21.832031 23.832031 C 21.832031 23.566406 21.59375 23.566406 21.386719 23.566406 L 13.195313 23.566406 C 13 23.566406 12.75 23.566406 12.75 23.816406 C 12.75 24.082031 12.988281 24.082031 13.195313 24.082031 L 21.386719 24.082031 C 21.582031 24.082031 21.832031 24.082031 21.832031 23.832031 Z M 21.832031 23.832031 "/>
<path style=" stroke:none;fill-rule:evenodd;fill:rgb(0%,0%,0%);fill-opacity:1;" d="M 35.03125 8.5 L 35.03125 8.195313 C 34.523438 8.195313 34.277344 8.195313 34.269531 7.902344 L 34.269531 6.035156 C 34.269531 5.195313 34.269531 4.890625 33.964844 4.539063 C 33.828125 4.371094 33.503906 4.175781 32.9375 4.175781 C 32.222656 4.175781 31.765625 4.597656 31.492188 5.203125 L 31.492188 4.175781 L 30.113281 4.285156 L 30.113281 4.585938 C 30.796875 4.585938 30.875 4.65625 30.875 5.136719 L 30.875 7.757813 C 30.875 8.195313 30.769531 8.195313 30.113281 8.195313 L 30.113281 8.5 L 31.21875 8.46875 L 32.3125 8.5 L 32.3125 8.195313 C 31.65625 8.195313 31.550781 8.195313 31.550781 7.757813 L 31.550781 5.957031 C 31.550781 4.941406 32.246094 4.390625 32.871094 4.390625 C 33.488281 4.390625 33.59375 4.921875 33.59375 5.476563 L 33.59375 7.757813 C 33.59375 8.195313 33.488281 8.195313 32.832031 8.195313 L 32.832031 8.5 L 33.9375 8.46875 Z M 35.03125 8.5 "/>
<path style=" stroke:none;fill-rule:evenodd;fill:rgb(0%,0%,0%);fill-opacity:1;" d="M 37.613281 8.5 L 37.613281 8.195313 C 36.96875 8.195313 36.929688 8.148438 36.929688 7.765625 L 36.929688 4.175781 L 35.5625 4.285156 L 35.5625 4.585938 C 36.195313 4.585938 36.285156 4.648438 36.285156 5.125 L 36.285156 7.757813 C 36.285156 8.195313 36.175781 8.195313 35.523438 8.195313 L 35.523438 8.5 L 36.597656 8.46875 C 36.941406 8.46875 37.28125 8.492188 37.613281 8.5 Z M 37.078125 2.59375 C 37.078125 2.328125 36.851563 2.074219 36.558594 2.074219 C 36.226563 2.074219 36.03125 2.347656 36.03125 2.59375 C 36.03125 2.855469 36.253906 3.109375 36.550781 3.109375 C 36.882813 3.109375 37.078125 2.839844 37.078125 2.59375 Z M 37.078125 2.59375 "/>
<path style=" stroke:none;fill-rule:evenodd;fill:rgb(0%,0%,0%);fill-opacity:1;" d="M 43.230469 8.5 L 43.230469 8.195313 C 42.722656 8.195313 42.480469 8.195313 42.46875 7.902344 L 42.46875 6.035156 C 42.46875 5.195313 42.46875 4.890625 42.167969 4.539063 C 42.027344 4.371094 41.707031 4.175781 41.136719 4.175781 C 40.425781 4.175781 39.964844 4.597656 39.691406 5.203125 L 39.691406 4.175781 L 38.3125 4.285156 L 38.3125 4.585938 C 38.996094 4.585938 39.074219 4.65625 39.074219 5.136719 L 39.074219 7.757813 C 39.074219 8.195313 38.96875 8.195313 38.3125 8.195313 L 38.3125 8.5 L 39.417969 8.46875 L 40.511719 8.5 L 40.511719 8.195313 C 39.855469 8.195313 39.75 8.195313 39.75 7.757813 L 39.75 5.957031 C 39.75 4.941406 40.445313 4.390625 41.070313 4.390625 C 41.6875 4.390625 41.792969 4.921875 41.792969 5.476563 L 41.792969 7.757813 C 41.792969 8.195313 41.6875 8.195313 41.03125 8.195313 L 41.03125 8.5 L 42.136719 8.46875 Z M 43.230469 8.5 "/>
<path style=" stroke:none;fill-rule:evenodd;fill:rgb(0%,0%,0%);fill-opacity:1;" d="M 44.105469 32.171875 L 45.789063 27.71875 L 45.441406 27.71875 C 44.898438 29.164063 43.425781 30.113281 41.824219 30.53125 C 41.535156 30.597656 40.167969 30.960938 37.5 30.960938 L 29.113281 30.960938 L 36.191406 22.65625 C 36.289063 22.546875 36.316406 22.503906 36.316406 22.433594 C 36.316406 22.40625 36.316406 22.367188 36.222656 22.226563 L 29.738281 13.367188 L 37.359375 13.367188 C 39.222656 13.367188 40.488281 13.5625 40.613281 13.589844 C 41.367188 13.703125 42.574219 13.9375 43.675781 14.632813 C 44.023438 14.855469 44.96875 15.480469 45.441406 16.609375 L 45.789063 16.609375 L 44.105469 12.699219 L 27.667969 12.699219 C 27.347656 12.699219 27.332031 12.714844 27.292969 12.796875 C 27.277344 12.839844 27.277344 13.101563 27.277344 13.257813 L 34.636719 23.324219 L 27.429688 31.765625 C 27.292969 31.933594 27.292969 32.003906 27.292969 32.015625 C 27.292969 32.171875 27.417969 32.171875 27.667969 32.171875 Z M 44.105469 32.171875 "/>
<path style=" stroke:none;fill-rule:evenodd;fill:rgb(0%,0%,0%);fill-opacity:1;" d="M 31.476563 36.289063 C 31.476563 36.089844 31.339844 35.933594 31.113281 35.933594 C 30.851563 35.933594 30.585938 36.1875 30.585938 36.453125 C 30.585938 36.640625 30.722656 36.804688 30.957031 36.804688 C 31.183594 36.804688 31.476563 36.578125 31.476563 36.289063 Z M 31.566406 41 C 31.566406 40.902344 31.476563 40.902344 31.449219 40.902344 C 31.347656 40.902344 31.347656 40.933594 31.300781 41.078125 C 31.125 41.695313 30.800781 42.292969 30.304688 42.292969 C 30.136719 42.292969 30.066406 42.195313 30.066406 41.96875 C 30.066406 41.726563 30.128906 41.585938 30.351563 40.992188 L 30.734375 39.964844 C 30.851563 39.679688 30.851563 39.660156 30.949219 39.398438 C 31.027344 39.203125 31.074219 39.0625 31.074219 38.878906 C 31.074219 38.4375 30.761719 38.078125 30.273438 38.078125 C 29.355469 38.078125 28.984375 39.496094 28.984375 39.582031 C 28.984375 39.679688 29.101563 39.679688 29.101563 39.679688 C 29.199219 39.679688 29.207031 39.660156 29.257813 39.503906 C 29.519531 38.585938 29.910156 38.292969 30.246094 38.292969 C 30.324219 38.292969 30.488281 38.292969 30.488281 38.605469 C 30.488281 38.8125 30.421875 39.015625 30.382813 39.113281 C 30.304688 39.367188 29.863281 40.503906 29.707031 40.921875 C 29.609375 41.179688 29.480469 41.5 29.480469 41.707031 C 29.480469 42.164063 29.816406 42.507813 30.285156 42.507813 C 31.203125 42.507813 31.566406 41.089844 31.566406 41 Z M 31.566406 41 "/>
<path style=" stroke:none;fill-rule:evenodd;fill:rgb(0%,0%,0%);fill-opacity:1;" d="M 39.050781 39.007813 C 39.050781 38.8125 38.863281 38.8125 38.730469 38.8125 L 32.871094 38.8125 C 32.730469 38.8125 32.546875 38.8125 32.546875 39.007813 C 32.546875 39.203125 32.730469 39.203125 32.878906 39.203125 L 38.71875 39.203125 C 38.863281 39.203125 39.050781 39.203125 39.050781 39.007813 Z M 39.050781 40.902344 C 39.050781 40.707031 38.863281 40.707031 38.71875 40.707031 L 32.878906 40.707031 C 32.730469 40.707031 32.546875 40.707031 32.546875 40.902344 C 32.546875 41.097656 32.730469 41.097656 32.871094 41.097656 L 38.730469 41.097656 C 38.863281 41.097656 39.050781 41.097656 39.050781 40.902344 Z M 39.050781 40.902344 "/>
<path style=" stroke:none;fill-rule:evenodd;fill:rgb(0%,0%,0%);fill-opacity:1;" d="M 43.699219 42.398438 L 43.699219 42.097656 L 43.386719 42.097656 C 42.503906 42.097656 42.472656 41.988281 42.472656 41.625 L 42.472656 36.140625 C 42.472656 35.90625 42.472656 35.886719 42.25 35.886719 C 41.644531 36.511719 40.78125 36.511719 40.46875 36.511719 L 40.46875 36.816406 C 40.664063 36.816406 41.242188 36.816406 41.75 36.5625 L 41.75 41.625 C 41.75 41.980469 41.722656 42.097656 40.839844 42.097656 L 40.527344 42.097656 L 40.527344 42.398438 C 40.871094 42.371094 41.722656 42.371094 42.113281 42.371094 C 42.503906 42.371094 43.355469 42.371094 43.699219 42.398438 Z M 43.699219 42.398438 "/>
<path style=" stroke:none;fill-rule:evenodd;fill:rgb(0%,0%,0%);fill-opacity:1;" d="M 56.34375 24.011719 C 56.34375 23.941406 56.285156 23.886719 56.203125 23.886719 C 56.078125 23.886719 56.066406 23.957031 56.007813 24.164063 C 55.757813 25.125 55.507813 25.859375 54.949219 25.859375 C 54.535156 25.859375 54.535156 25.402344 54.535156 25.222656 C 54.535156 24.902344 54.574219 24.761719 54.714844 24.179688 L 54.992188 23.039063 L 55.5625 20.769531 C 55.660156 20.421875 55.660156 20.394531 55.660156 20.351563 C 55.660156 20.144531 55.496094 20.007813 55.285156 20.007813 C 54.882813 20.007813 54.785156 20.351563 54.699219 20.703125 L 53.714844 24.71875 C 53.714844 24.71875 53.15625 25.859375 52.144531 25.859375 C 51.417969 25.859375 51.28125 25.234375 51.28125 24.71875 C 51.28125 23.929688 51.667969 22.816406 52.03125 21.882813 C 52.199219 21.4375 52.269531 21.257813 52.269531 20.980469 C 52.269531 20.382813 51.835938 19.867188 51.167969 19.867188 C 49.890625 19.867188 49.375 21.882813 49.375 21.996094 C 49.375 22.050781 49.429688 22.121094 49.527344 22.121094 C 49.652344 22.121094 49.667969 22.0625 49.722656 21.871094 C 50.054688 20.671875 50.597656 20.144531 51.128906 20.144531 C 51.265625 20.144531 51.488281 20.160156 51.488281 20.605469 C 51.488281 20.964844 51.335938 21.367188 51.128906 21.898438 C 50.515625 23.550781 50.445313 24.082031 50.445313 24.5 C 50.445313 25.917969 51.515625 26.140625 52.085938 26.140625 C 52.976563 26.140625 53.464844 25.527344 53.742188 25.195313 C 53.921875 25.972656 54.589844 26.140625 54.925781 26.140625 C 55.367188 26.140625 55.703125 25.847656 55.925781 25.375 C 56.160156 24.875 56.34375 24.054688 56.34375 24.011719 Z M 56.34375 24.011719 "/>
<path style=" stroke:none;fill-rule:evenodd;fill:rgb(0%,0%,0%);fill-opacity:1;" d="M 59.578125 21.988281 C 59.578125 21.789063 59.441406 21.632813 59.214844 21.632813 C 58.949219 21.632813 58.6875 21.890625 58.6875 22.152344 C 58.6875 22.339844 58.824219 22.503906 59.058594 22.503906 C 59.285156 22.503906 59.578125 22.28125 59.578125 21.988281 Z M 59.664063 26.703125 C 59.664063 26.601563 59.578125 26.601563 59.546875 26.601563 C 59.449219 26.601563 59.449219 26.632813 59.402344 26.78125 C 59.222656 27.394531 58.902344 27.992188 58.402344 27.992188 C 58.238281 27.992188 58.167969 27.894531 58.167969 27.671875 C 58.167969 27.425781 58.226563 27.289063 58.453125 26.691406 L 58.832031 25.664063 C 58.949219 25.382813 58.949219 25.359375 59.050781 25.097656 C 59.128906 24.902344 59.175781 24.765625 59.175781 24.578125 C 59.175781 24.140625 58.863281 23.777344 58.375 23.777344 C 57.453125 23.777344 57.082031 25.195313 57.082031 25.28125 C 57.082031 25.382813 57.199219 25.382813 57.199219 25.382813 C 57.296875 25.382813 57.308594 25.359375 57.355469 25.203125 C 57.621094 24.285156 58.011719 23.992188 58.34375 23.992188 C 58.421875 23.992188 58.589844 23.992188 58.589844 24.304688 C 58.589844 24.511719 58.519531 24.714844 58.480469 24.8125 C 58.402344 25.066406 57.964844 26.203125 57.808594 26.625 C 57.707031 26.878906 57.582031 27.199219 57.582031 27.40625 C 57.582031 27.867188 57.914063 28.207031 58.382813 28.207031 C 59.304688 28.207031 59.664063 26.789063 59.664063 26.703125 Z M 59.664063 26.703125 "/>
</g>
</svg>
