<?xml version="1.0" encoding="UTF-8"?>
<svg xmlns="http://www.w3.org/2000/svg" xmlns:xlink="http://www.w3.org/1999/xlink" width="53pt" height="30pt" viewBox="0 0 53 30" version="1.1">
<g id="surface76">
<path style=" stroke:none;fill-rule:evenodd;fill:rgb(0%,0%,0%);fill-opacity:1;" d="M 7.609375 13.769531 C 7.621094 13.699219 7.648438 13.617188 7.648438 13.53125 C 7.648438 13.324219 7.484375 13.1875 7.273438 13.1875 C 7.148438 13.1875 6.855469 13.242188 6.746094 13.65625 L 5.71875 17.746094 C 5.648438 17.996094 5.648438 18.023438 5.539063 18.179688 C 5.257813 18.566406 4.800781 19.039063 4.132813 19.039063 C 3.351563 19.039063 3.285156 18.273438 3.285156 17.898438 C 3.285156 17.109375 3.660156 16.035156 4.035156 15.035156 C 4.1875 14.632813 4.273438 14.4375 4.273438 14.160156 C 4.273438 13.574219 3.855469 13.046875 3.171875 13.046875 C 1.894531 13.046875 1.378906 15.0625 1.378906 15.175781 C 1.378906 15.230469 1.433594 15.300781 1.53125 15.300781 C 1.65625 15.300781 1.671875 15.242188 1.726563 15.050781 C 2.058594 13.882813 2.589844 13.324219 3.132813 13.324219 C 3.257813 13.324219 3.492188 13.324219 3.492188 13.785156 C 3.492188 14.144531 3.339844 14.546875 3.132813 15.078125 C 2.449219 16.898438 2.449219 17.359375 2.449219 17.691406 C 2.449219 19.011719 3.394531 19.320313 4.089844 19.320313 C 4.492188 19.320313 4.992188 19.195313 5.480469 18.679688 L 5.496094 18.691406 C 5.285156 19.515625 5.148438 20.054688 4.660156 20.738281 C 4.285156 21.265625 3.742188 21.738281 3.0625 21.738281 C 2.894531 21.738281 2.226563 21.710938 2.019531 21.070313 C 2.058594 21.082031 2.15625 21.082031 2.15625 21.082031 C 2.574219 21.082031 2.851563 20.722656 2.851563 20.402344 C 2.851563 20.085938 2.589844 19.972656 2.378906 19.972656 C 2.15625 19.972656 1.671875 20.136719 1.671875 20.820313 C 1.671875 21.527344 2.269531 22.015625 3.0625 22.015625 C 4.453125 22.015625 5.855469 20.738281 6.246094 19.195313 Z M 7.609375 13.769531 "/>
<path style=" stroke:none;fill-rule:evenodd;fill:rgb(0%,0%,0%);fill-opacity:1;" d="M 10.480469 15.167969 C 10.480469 14.96875 10.34375 14.8125 10.117188 14.8125 C 9.855469 14.8125 9.589844 15.070313 9.589844 15.332031 C 9.589844 15.519531 9.726563 15.683594 9.960938 15.683594 C 10.1875 15.683594 10.480469 15.460938 10.480469 15.167969 Z M 10.566406 19.882813 C 10.566406 19.78125 10.480469 19.78125 10.449219 19.78125 C 10.351563 19.78125 10.351563 19.8125 10.304688 19.960938 C 10.128906 20.574219 9.804688 21.171875 9.308594 21.171875 C 9.140625 21.171875 9.070313 21.074219 9.070313 20.847656 C 9.070313 20.605469 9.128906 20.464844 9.355469 19.871094 L 9.738281 18.84375 C 9.855469 18.5625 9.855469 18.539063 9.953125 18.277344 C 10.03125 18.082031 10.078125 17.945313 10.078125 17.757813 C 10.078125 17.320313 9.765625 16.957031 9.277344 16.957031 C 8.355469 16.957031 7.988281 18.375 7.988281 18.460938 C 7.988281 18.5625 8.105469 18.5625 8.105469 18.5625 C 8.199219 18.5625 8.210938 18.539063 8.261719 18.382813 C 8.523438 17.464844 8.914063 17.171875 9.246094 17.171875 C 9.324219 17.171875 9.492188 17.171875 9.492188 17.484375 C 9.492188 17.691406 9.425781 17.894531 9.386719 17.992188 C 9.308594 18.246094 8.867188 19.382813 8.710938 19.804688 C 8.613281 20.058594 8.484375 20.378906 8.484375 20.585938 C 8.484375 21.042969 8.816406 21.386719 9.285156 21.386719 C 10.207031 21.386719 10.566406 19.96875 10.566406 19.882813 Z M 10.566406 19.882813 "/>
<path style=" stroke:none;fill-rule:evenodd;fill:rgb(0%,0%,0%);fill-opacity:1;" d="M 25.234375 14.421875 C 25.234375 14.160156 24.996094 14.160156 24.789063 14.160156 L 16.597656 14.160156 C 16.402344 14.160156 16.152344 14.160156 16.152344 14.410156 C 16.152344 14.671875 16.390625 14.671875 16.597656 14.671875 L 24.789063 14.671875 C 24.984375 14.671875 25.234375 14.671875 25.234375 14.421875 Z M 25.234375 17.011719 C 25.234375 16.746094 24.996094 16.746094 24.789063 16.746094 L 16.597656 16.746094 C 16.402344 16.746094 16.152344 16.746094 16.152344 16.996094 C 16.152344 17.261719 16.390625 17.261719 16.597656 17.261719 L 24.789063 17.261719 C 24.984375 17.261719 25.234375 17.261719 25.234375 17.011719 Z M 25.234375 17.011719 "/>
<path style=" stroke:none;fill-rule:evenodd;fill:rgb(0%,0%,0%);fill-opacity:1;" d="M 42.902344 9.78125 L 42.902344 9.375 L 42.472656 9.375 C 41.25 9.375 41.207031 9.210938 41.207031 8.710938 L 41.207031 0.867188 C 41.207031 0.546875 41.207031 0.53125 40.929688 0.53125 C 40.59375 0.90625 39.898438 1.421875 38.46875 1.421875 L 38.46875 1.824219 C 38.789063 1.824219 39.484375 1.824219 40.246094 1.460938 L 40.246094 8.710938 C 40.246094 9.210938 40.207031 9.375 38.980469 9.375 L 38.550781 9.375 L 38.550781 9.78125 C 38.925781 9.75 40.273438 9.75 40.734375 9.75 C 41.191406 9.75 42.527344 9.75 42.902344 9.78125 Z M 42.902344 9.78125 "/>
<path style="fill:none;stroke-width:0.55798;stroke-linecap:square;stroke-linejoin:miter;stroke:rgb(0%,0%,0%);stroke-opacity:1;stroke-miterlimit:10;" d="M 31.085938 15.726563 L 50.054688 15.726563 "/>
<path style=" stroke:none;fill-rule:evenodd;fill:rgb(0%,0%,0%);fill-opacity:1;" d="M 38.347656 28.777344 L 38.347656 28.375 C 37.652344 28.375 37.304688 28.375 37.289063 27.957031 L 37.289063 25.398438 C 37.289063 24.105469 37.289063 23.714844 36.96875 23.269531 C 36.566406 22.730469 35.914063 22.644531 35.441406 22.644531 C 34.09375 22.644531 33.5625 23.800781 33.453125 24.078125 L 33.4375 24.078125 L 33.4375 22.644531 L 31.546875 22.800781 L 31.546875 23.203125 C 32.492188 23.203125 32.601563 23.300781 32.601563 23.980469 L 32.601563 27.75 C 32.601563 28.375 32.449219 28.375 31.546875 28.375 L 31.546875 28.777344 C 31.90625 28.75 32.660156 28.75 33.046875 28.75 C 33.453125 28.75 34.203125 28.75 34.5625 28.777344 L 34.5625 28.375 C 33.675781 28.375 33.507813 28.375 33.507813 27.75 L 33.507813 25.164063 C 33.507813 23.703125 34.46875 22.925781 35.328125 22.925781 C 36.191406 22.925781 36.386719 23.632813 36.386719 24.480469 L 36.386719 27.75 C 36.386719 28.375 36.234375 28.375 35.328125 28.375 L 35.328125 28.777344 C 35.691406 28.75 36.441406 28.75 36.832031 28.75 C 37.234375 28.75 37.984375 28.75 38.347656 28.777344 Z M 38.347656 28.777344 "/>
<path style=" stroke:none;fill-rule:evenodd;fill:rgb(0%,0%,0%);fill-opacity:1;" d="M 42.054688 28.777344 L 42.054688 28.375 C 41.148438 28.375 41.09375 28.304688 41.09375 27.761719 L 41.09375 22.644531 L 39.203125 22.800781 L 39.203125 23.203125 C 40.09375 23.203125 40.21875 23.285156 40.21875 23.964844 L 40.21875 27.75 C 40.21875 28.375 40.0625 28.375 39.160156 28.375 L 39.160156 28.777344 C 39.550781 28.75 40.21875 28.75 40.621094 28.75 C 40.773438 28.75 41.578125 28.75 42.054688 28.777344 Z M 41.273438 20.378906 C 41.273438 19.960938 40.941406 19.699219 40.605469 19.699219 C 40.21875 19.699219 39.925781 20.003906 39.925781 20.378906 C 39.925781 20.738281 40.230469 21.046875 40.59375 21.046875 C 41.011719 21.046875 41.273438 20.714844 41.273438 20.378906 Z M 41.273438 20.378906 "/>
<path style=" stroke:none;fill-rule:evenodd;fill:rgb(0%,0%,0%);fill-opacity:1;" d="M 49.746094 28.777344 L 49.746094 28.375 C 49.050781 28.375 48.703125 28.375 48.691406 27.957031 L 48.691406 25.398438 C 48.691406 24.105469 48.691406 23.714844 48.371094 23.269531 C 47.96875 22.730469 47.3125 22.644531 46.839844 22.644531 C 45.492188 22.644531 44.960938 23.800781 44.851563 24.078125 L 44.835938 24.078125 L 44.835938 22.644531 L 42.945313 22.800781 L 42.945313 23.203125 C 43.890625 23.203125 44.003906 23.300781 44.003906 23.980469 L 44.003906 27.75 C 44.003906 28.375 43.851563 28.375 42.945313 28.375 L 42.945313 28.777344 C 43.308594 28.75 44.058594 28.75 44.449219 28.75 C 44.851563 28.75 45.601563 28.75 45.964844 28.777344 L 45.964844 28.375 C 45.074219 28.375 44.90625 28.375 44.90625 27.75 L 44.90625 25.164063 C 44.90625 23.703125 45.867188 22.925781 46.730469 22.925781 C 47.59375 22.925781 47.785156 23.632813 47.785156 24.480469 L 47.785156 27.75 C 47.785156 28.375 47.632813 28.375 46.730469 28.375 L 46.730469 28.777344 C 47.089844 28.75 47.84375 28.75 48.230469 28.75 C 48.632813 28.75 49.386719 28.75 49.746094 28.777344 Z M 49.746094 28.777344 "/>
</g>
</svg>
