<?xml version="1.0" encoding="UTF-8"?>
<svg xmlns="http://www.w3.org/2000/svg" xmlns:xlink="http://www.w3.org/1999/xlink" width="177pt" height="75pt" viewBox="0 0 177 75" version="1.1">
<g id="surface80">
<path style=" stroke:none;fill-rule:evenodd;fill:rgb(0%,0%,0%);fill-opacity:1;" d="M 8.347656 10.769531 C 8.347656 10.703125 8.289063 10.644531 8.207031 10.644531 C 8.082031 10.644531 8.070313 10.714844 8.011719 10.925781 C 7.761719 11.882813 7.511719 12.621094 6.953125 12.621094 C 6.539063 12.621094 6.539063 12.160156 6.539063 11.980469 C 6.539063 11.660156 6.578125 11.523438 6.71875 10.9375 L 6.996094 9.796875 L 7.566406 7.53125 C 7.664063 7.183594 7.664063 7.15625 7.664063 7.113281 C 7.664063 6.90625 7.5 6.765625 7.289063 6.765625 C 6.886719 6.765625 6.789063 7.113281 6.703125 7.460938 L 5.71875 11.480469 C 5.71875 11.480469 5.160156 12.621094 4.148438 12.621094 C 3.421875 12.621094 3.285156 11.996094 3.285156 11.480469 C 3.285156 10.6875 3.671875 9.574219 4.035156 8.644531 C 4.203125 8.199219 4.273438 8.019531 4.273438 7.738281 C 4.273438 7.140625 3.839844 6.628906 3.171875 6.628906 C 1.894531 6.628906 1.378906 8.644531 1.378906 8.753906 C 1.378906 8.808594 1.433594 8.878906 1.53125 8.878906 C 1.65625 8.878906 1.671875 8.824219 1.726563 8.628906 C 2.058594 7.433594 2.601563 6.90625 3.132813 6.90625 C 3.269531 6.90625 3.492188 6.917969 3.492188 7.363281 C 3.492188 7.726563 3.339844 8.128906 3.132813 8.65625 C 2.519531 10.3125 2.449219 10.839844 2.449219 11.257813 C 2.449219 12.675781 3.519531 12.898438 4.089844 12.898438 C 4.980469 12.898438 5.46875 12.285156 5.746094 11.953125 C 5.925781 12.730469 6.59375 12.898438 6.929688 12.898438 C 7.371094 12.898438 7.707031 12.605469 7.929688 12.132813 C 8.164063 11.632813 8.347656 10.8125 8.347656 10.769531 Z M 8.347656 10.769531 "/>
<path style=" stroke:none;fill-rule:evenodd;fill:rgb(0%,0%,0%);fill-opacity:1;" d="M 13.046875 5.433594 C 13.046875 5.355469 13.007813 5.257813 12.871094 5.191406 L 11.453125 4.523438 L 12.84375 3.859375 C 12.929688 3.820313 13.046875 3.761719 13.046875 3.605469 C 13.046875 3.449219 12.910156 3.332031 12.785156 3.332031 C 12.746094 3.332031 12.695313 3.339844 12.589844 3.417969 L 11.355469 4.328125 L 11.492188 2.765625 C 11.503906 2.636719 11.492188 2.410156 11.25 2.410156 C 11.09375 2.410156 10.964844 2.539063 10.992188 2.667969 L 10.992188 2.773438 L 11.132813 4.328125 L 9.898438 3.429688 C 9.773438 3.339844 9.773438 3.332031 9.703125 3.332031 C 9.578125 3.332031 9.4375 3.449219 9.4375 3.605469 C 9.4375 3.761719 9.554688 3.820313 9.644531 3.859375 L 11.023438 4.515625 L 9.644531 5.179688 C 9.554688 5.21875 9.4375 5.277344 9.4375 5.433594 C 9.4375 5.589844 9.578125 5.707031 9.703125 5.707031 C 9.742188 5.707031 9.789063 5.699219 9.898438 5.621094 L 11.132813 4.710938 L 10.992188 6.316406 L 10.992188 6.363281 C 10.964844 6.511719 11.101563 6.628906 11.238281 6.628906 C 11.503906 6.628906 11.503906 6.402344 11.492188 6.265625 L 11.355469 4.722656 L 12.421875 5.492188 C 12.539063 5.582031 12.714844 5.707031 12.785156 5.707031 C 12.910156 5.707031 13.046875 5.589844 13.046875 5.433594 Z M 13.046875 5.433594 "/>
<path style=" stroke:none;fill-rule:evenodd;fill:rgb(0%,0%,0%);fill-opacity:1;" d="M 11.582031 10.046875 C 11.582031 9.851563 11.445313 9.695313 11.21875 9.695313 C 10.953125 9.695313 10.691406 9.949219 10.691406 10.214844 C 10.691406 10.398438 10.828125 10.566406 11.0625 10.566406 C 11.289063 10.566406 11.582031 10.339844 11.582031 10.046875 Z M 11.667969 14.761719 C 11.667969 14.664063 11.582031 14.664063 11.550781 14.664063 C 11.453125 14.664063 11.453125 14.691406 11.40625 14.839844 C 11.226563 15.457031 10.90625 16.050781 10.40625 16.050781 C 10.242188 16.050781 10.171875 15.957031 10.171875 15.730469 C 10.171875 15.484375 10.230469 15.347656 10.457031 14.753906 L 10.835938 13.722656 C 10.953125 13.441406 10.953125 13.421875 11.054688 13.15625 C 11.132813 12.960938 11.179688 12.824219 11.179688 12.636719 C 11.179688 12.199219 10.867188 11.835938 10.378906 11.835938 C 9.457031 11.835938 9.085938 13.253906 9.085938 13.34375 C 9.085938 13.441406 9.203125 13.441406 9.203125 13.441406 C 9.300781 13.441406 9.3125 13.421875 9.359375 13.265625 C 9.625 12.347656 10.015625 12.050781 10.347656 12.050781 C 10.425781 12.050781 10.59375 12.050781 10.59375 12.363281 C 10.59375 12.570313 10.523438 12.777344 10.484375 12.875 C 10.40625 13.128906 9.96875 14.261719 9.8125 14.683594 C 9.710938 14.9375 9.585938 15.261719 9.585938 15.464844 C 9.585938 15.925781 9.917969 16.269531 10.386719 16.269531 C 11.308594 16.269531 11.667969 14.847656 11.667969 14.761719 Z M 11.667969 14.761719 "/>
<path style=" stroke:none;fill-rule:evenodd;fill:rgb(0%,0%,0%);fill-opacity:1;" d="M 27.835938 8.003906 C 27.835938 7.738281 27.597656 7.738281 27.390625 7.738281 L 19.199219 7.738281 C 19.003906 7.738281 18.753906 7.738281 18.753906 7.988281 C 18.753906 8.253906 18.992188 8.253906 19.199219 8.253906 L 27.390625 8.253906 C 27.585938 8.253906 27.835938 8.253906 27.835938 8.003906 Z M 27.835938 10.589844 C 27.835938 10.324219 27.597656 10.324219 27.390625 10.324219 L 19.199219 10.324219 C 19.003906 10.324219 18.753906 10.324219 18.753906 10.578125 C 18.753906 10.839844 18.992188 10.839844 19.199219 10.839844 L 27.390625 10.839844 C 27.585938 10.839844 27.835938 10.839844 27.835938 10.589844 Z M 27.835938 10.589844 "/>
<path style=" stroke:none;fill-rule:evenodd;fill:rgb(0%,0%,0%);fill-opacity:1;" d="M 39.847656 10.769531 C 39.847656 10.703125 39.789063 10.644531 39.707031 10.644531 C 39.582031 10.644531 39.570313 10.714844 39.511719 10.925781 C 39.261719 11.882813 39.011719 12.621094 38.453125 12.621094 C 38.039063 12.621094 38.039063 12.160156 38.039063 11.980469 C 38.039063 11.660156 38.078125 11.523438 38.21875 10.9375 L 38.496094 9.796875 L 39.066406 7.53125 C 39.164063 7.183594 39.164063 7.15625 39.164063 7.113281 C 39.164063 6.90625 39 6.765625 38.789063 6.765625 C 38.386719 6.765625 38.289063 7.113281 38.203125 7.460938 L 37.21875 11.480469 C 37.21875 11.480469 36.660156 12.621094 35.648438 12.621094 C 34.921875 12.621094 34.785156 11.996094 34.785156 11.480469 C 34.785156 10.6875 35.171875 9.574219 35.535156 8.644531 C 35.703125 8.199219 35.773438 8.019531 35.773438 7.738281 C 35.773438 7.140625 35.339844 6.628906 34.671875 6.628906 C 33.394531 6.628906 32.878906 8.644531 32.878906 8.753906 C 32.878906 8.808594 32.933594 8.878906 33.03125 8.878906 C 33.15625 8.878906 33.171875 8.824219 33.226563 8.628906 C 33.558594 7.433594 34.101563 6.90625 34.632813 6.90625 C 34.769531 6.90625 34.992188 6.917969 34.992188 7.363281 C 34.992188 7.726563 34.839844 8.128906 34.632813 8.65625 C 34.019531 10.3125 33.949219 10.839844 33.949219 11.257813 C 33.949219 12.675781 35.019531 12.898438 35.589844 12.898438 C 36.480469 12.898438 36.96875 12.285156 37.246094 11.953125 C 37.425781 12.730469 38.09375 12.898438 38.429688 12.898438 C 38.871094 12.898438 39.207031 12.605469 39.429688 12.132813 C 39.664063 11.632813 39.847656 10.8125 39.847656 10.769531 Z M 39.847656 10.769531 "/>
<path style=" stroke:none;fill-rule:evenodd;fill:rgb(0%,0%,0%);fill-opacity:1;" d="M 43.082031 8.648438 C 43.082031 8.449219 42.945313 8.292969 42.71875 8.292969 C 42.453125 8.292969 42.191406 8.550781 42.191406 8.8125 C 42.191406 9 42.328125 9.164063 42.5625 9.164063 C 42.789063 9.164063 43.082031 8.941406 43.082031 8.648438 Z M 43.167969 13.363281 C 43.167969 13.261719 43.082031 13.261719 43.050781 13.261719 C 42.953125 13.261719 42.953125 13.292969 42.90625 13.441406 C 42.726563 14.054688 42.40625 14.652344 41.90625 14.652344 C 41.742188 14.652344 41.671875 14.554688 41.671875 14.332031 C 41.671875 14.085938 41.730469 13.949219 41.957031 13.351563 L 42.335938 12.324219 C 42.453125 12.042969 42.453125 12.019531 42.554688 11.757813 C 42.632813 11.5625 42.679688 11.425781 42.679688 11.238281 C 42.679688 10.800781 42.367188 10.4375 41.878906 10.4375 C 40.957031 10.4375 40.585938 11.855469 40.585938 11.941406 C 40.585938 12.042969 40.703125 12.042969 40.703125 12.042969 C 40.800781 12.042969 40.8125 12.019531 40.859375 11.863281 C 41.125 10.945313 41.515625 10.652344 41.847656 10.652344 C 41.925781 10.652344 42.09375 10.652344 42.09375 10.964844 C 42.09375 11.171875 42.023438 11.375 41.984375 11.472656 C 41.90625 11.726563 41.46875 12.863281 41.3125 13.285156 C 41.210938 13.539063 41.085938 13.859375 41.085938 14.066406 C 41.085938 14.527344 41.417969 14.867188 41.886719 14.867188 C 42.808594 14.867188 43.167969 13.449219 43.167969 13.363281 Z M 43.167969 13.363281 "/>
<path style=" stroke:none;fill-rule:evenodd;fill:rgb(0%,0%,0%);fill-opacity:1;" d="M 56.953125 9.285156 C 56.953125 9.003906 56.691406 9.003906 56.496094 9.003906 L 48.914063 9.003906 C 48.722656 9.003906 48.457031 9.003906 48.457031 9.285156 C 48.457031 9.5625 48.722656 9.5625 48.914063 9.5625 L 56.496094 9.5625 C 56.691406 9.5625 56.953125 9.5625 56.953125 9.285156 Z M 56.953125 9.285156 "/>
<path style=" stroke:none;fill-rule:evenodd;fill:rgb(0%,0%,0%);fill-opacity:1;" d="M 72.230469 12.761719 L 72.230469 12.355469 C 71.535156 12.355469 71.1875 12.355469 71.175781 11.941406 L 71.175781 9.378906 C 71.175781 8.085938 71.175781 7.699219 70.855469 7.253906 C 70.449219 6.710938 69.796875 6.628906 69.324219 6.628906 C 68.171875 6.628906 67.585938 7.460938 67.363281 8.003906 C 67.167969 6.933594 66.417969 6.628906 65.542969 6.628906 C 64.195313 6.628906 63.664063 7.78125 63.554688 8.058594 L 63.539063 8.058594 L 63.539063 6.628906 L 61.648438 6.78125 L 61.648438 7.183594 C 62.59375 7.183594 62.703125 7.28125 62.703125 7.960938 L 62.703125 11.730469 C 62.703125 12.355469 62.550781 12.355469 61.648438 12.355469 L 61.648438 12.761719 C 62.007813 12.730469 62.761719 12.730469 63.148438 12.730469 C 63.554688 12.730469 64.304688 12.730469 64.664063 12.761719 L 64.664063 12.355469 C 63.777344 12.355469 63.609375 12.355469 63.609375 11.730469 L 63.609375 9.144531 C 63.609375 7.683594 64.566406 6.90625 65.429688 6.90625 C 66.292969 6.90625 66.488281 7.613281 66.488281 8.464844 L 66.488281 11.730469 C 66.488281 12.355469 66.335938 12.355469 65.429688 12.355469 L 65.429688 12.761719 C 65.792969 12.730469 66.542969 12.730469 66.933594 12.730469 C 67.335938 12.730469 68.085938 12.730469 68.449219 12.761719 L 68.449219 12.355469 C 67.558594 12.355469 67.390625 12.355469 67.390625 11.730469 L 67.390625 9.144531 C 67.390625 7.683594 68.351563 6.90625 69.214844 6.90625 C 70.074219 6.90625 70.269531 7.613281 70.269531 8.464844 L 70.269531 11.730469 C 70.269531 12.355469 70.117188 12.355469 69.214844 12.355469 L 69.214844 12.761719 C 69.574219 12.730469 70.324219 12.730469 70.714844 12.730469 C 71.117188 12.730469 71.871094 12.730469 72.230469 12.761719 Z M 72.230469 12.761719 "/>
<path style=" stroke:none;fill-rule:evenodd;fill:rgb(0%,0%,0%);fill-opacity:1;" d="M 75.953125 12.761719 L 75.953125 12.355469 C 75.050781 12.355469 74.996094 12.285156 74.996094 11.746094 L 74.996094 6.628906 L 73.101563 6.78125 L 73.101563 7.183594 C 73.992188 7.183594 74.117188 7.265625 74.117188 7.949219 L 74.117188 11.730469 C 74.117188 12.355469 73.964844 12.355469 73.0625 12.355469 L 73.0625 12.761719 C 73.449219 12.730469 74.117188 12.730469 74.519531 12.730469 C 74.675781 12.730469 75.480469 12.730469 75.953125 12.761719 Z M 75.175781 4.359375 C 75.175781 3.941406 74.839844 3.679688 74.507813 3.679688 C 74.117188 3.679688 73.824219 3.984375 73.824219 4.359375 C 73.824219 4.722656 74.132813 5.027344 74.492188 5.027344 C 74.910156 5.027344 75.175781 4.695313 75.175781 4.359375 Z M 75.175781 4.359375 "/>
<path style=" stroke:none;fill-rule:evenodd;fill:rgb(0%,0%,0%);fill-opacity:1;" d="M 83.648438 12.761719 L 83.648438 12.355469 C 82.953125 12.355469 82.605469 12.355469 82.589844 11.941406 L 82.589844 9.378906 C 82.589844 8.085938 82.589844 7.699219 82.269531 7.253906 C 81.867188 6.710938 81.214844 6.628906 80.742188 6.628906 C 79.394531 6.628906 78.863281 7.78125 78.753906 8.058594 L 78.738281 8.058594 L 78.738281 6.628906 L 76.847656 6.78125 L 76.847656 7.183594 C 77.792969 7.183594 77.902344 7.28125 77.902344 7.960938 L 77.902344 11.730469 C 77.902344 12.355469 77.75 12.355469 76.847656 12.355469 L 76.847656 12.761719 C 77.207031 12.730469 77.960938 12.730469 78.347656 12.730469 C 78.753906 12.730469 79.503906 12.730469 79.863281 12.761719 L 79.863281 12.355469 C 78.976563 12.355469 78.808594 12.355469 78.808594 11.730469 L 78.808594 9.144531 C 78.808594 7.683594 79.769531 6.90625 80.628906 6.90625 C 81.492188 6.90625 81.6875 7.613281 81.6875 8.464844 L 81.6875 11.730469 C 81.6875 12.355469 81.535156 12.355469 80.628906 12.355469 L 80.628906 12.761719 C 80.992188 12.730469 81.742188 12.730469 82.132813 12.730469 C 82.535156 12.730469 83.285156 12.730469 83.648438 12.761719 Z M 83.648438 12.761719 "/>
<path style=" stroke:none;fill-rule:evenodd;fill:rgb(0%,0%,0%);fill-opacity:1;" d="M 90.824219 16.140625 C 90.824219 16.097656 90.824219 16.070313 90.585938 15.832031 C 89.195313 14.429688 88.417969 12.132813 88.417969 9.296875 C 88.417969 6.597656 89.070313 4.277344 90.683594 2.636719 C 90.824219 2.511719 90.824219 2.480469 90.824219 2.441406 C 90.824219 2.355469 90.753906 2.332031 90.699219 2.332031 C 90.515625 2.332031 89.375 3.332031 88.695313 4.695313 C 87.984375 6.097656 87.664063 7.585938 87.664063 9.296875 C 87.664063 10.535156 87.859375 12.191406 88.582031 13.675781 C 89.402344 15.347656 90.542969 16.25 90.699219 16.25 C 90.753906 16.25 90.824219 16.222656 90.824219 16.140625 Z M 90.824219 16.140625 "/>
<path style=" stroke:none;fill-rule:evenodd;fill:rgb(0%,0%,0%);fill-opacity:1;" d="M 97.933594 8.308594 C 97.933594 7.15625 97.863281 6.027344 97.363281 4.972656 C 96.792969 3.816406 95.792969 3.511719 95.109375 3.511719 C 94.300781 3.511719 93.316406 3.914063 92.800781 5.070313 C 92.410156 5.945313 92.273438 6.808594 92.273438 8.308594 C 92.273438 9.660156 92.371094 10.675781 92.871094 11.660156 C 93.414063 12.71875 94.371094 13.050781 95.097656 13.050781 C 96.304688 13.050781 97 12.328125 97.402344 11.523438 C 97.90625 10.480469 97.933594 9.117188 97.933594 8.308594 Z M 96.875 8.144531 C 96.875 9.074219 96.875 10.132813 96.722656 10.980469 C 96.457031 12.511719 95.582031 12.773438 95.097656 12.773438 C 94.652344 12.773438 93.746094 12.523438 93.480469 11.007813 C 93.328125 10.171875 93.328125 9.117188 93.328125 8.144531 C 93.328125 7.003906 93.328125 5.972656 93.550781 5.152344 C 93.789063 4.222656 94.496094 3.789063 95.097656 3.789063 C 95.625 3.789063 96.429688 4.109375 96.695313 5.304688 C 96.875 6.097656 96.875 7.199219 96.875 8.144531 Z M 96.875 8.144531 "/>
<path style=" stroke:none;fill-rule:evenodd;fill:rgb(0%,0%,0%);fill-opacity:1;" d="M 101.214844 12.816406 C 101.214844 12.007813 100.949219 11.410156 100.378906 11.410156 C 99.933594 11.410156 99.710938 11.773438 99.710938 12.078125 C 99.710938 12.386719 99.921875 12.761719 100.394531 12.761719 C 100.574219 12.761719 100.726563 12.703125 100.851563 12.578125 C 100.878906 12.550781 100.910156 12.550781 100.910156 12.550781 C 100.910156 12.550781 100.9375 12.746094 100.9375 12.816406 C 100.9375 13.273438 100.851563 14.179688 100.046875 15.082031 C 99.894531 15.25 99.894531 15.304688 99.894531 15.304688 C 99.894531 15.375 99.964844 15.445313 100.03125 15.445313 C 100.144531 15.445313 101.214844 14.414063 101.214844 12.816406 Z M 101.214844 12.816406 "/>
<path style=" stroke:none;fill-rule:evenodd;fill:rgb(0%,0%,0%);fill-opacity:1;" d="M 111.945313 10.769531 C 111.945313 10.703125 111.890625 10.644531 111.808594 10.644531 C 111.679688 10.644531 111.667969 10.714844 111.613281 10.925781 C 111.363281 11.882813 111.109375 12.621094 110.554688 12.621094 C 110.136719 12.621094 110.136719 12.160156 110.136719 11.980469 C 110.136719 11.660156 110.179688 11.523438 110.316406 10.9375 L 110.597656 9.796875 L 111.167969 7.53125 C 111.261719 7.183594 111.261719 7.15625 111.261719 7.113281 C 111.261719 6.90625 111.097656 6.765625 110.886719 6.765625 C 110.484375 6.765625 110.386719 7.113281 110.304688 7.460938 L 109.316406 11.480469 C 109.316406 11.480469 108.761719 12.621094 107.746094 12.621094 C 107.023438 12.621094 106.882813 11.996094 106.882813 11.480469 C 106.882813 10.6875 107.273438 9.574219 107.632813 8.644531 C 107.800781 8.199219 107.871094 8.019531 107.871094 7.738281 C 107.871094 7.140625 107.441406 6.628906 106.769531 6.628906 C 105.492188 6.628906 104.976563 8.644531 104.976563 8.753906 C 104.976563 8.808594 105.035156 8.878906 105.128906 8.878906 C 105.253906 8.878906 105.269531 8.824219 105.324219 8.628906 C 105.660156 7.433594 106.203125 6.90625 106.730469 6.90625 C 106.871094 6.90625 107.089844 6.917969 107.089844 7.363281 C 107.089844 7.726563 106.9375 8.128906 106.730469 8.65625 C 106.117188 10.3125 106.050781 10.839844 106.050781 11.257813 C 106.050781 12.675781 107.121094 12.898438 107.691406 12.898438 C 108.582031 12.898438 109.066406 12.285156 109.34375 11.953125 C 109.523438 12.730469 110.191406 12.898438 110.527344 12.898438 C 110.972656 12.898438 111.304688 12.605469 111.53125 12.132813 C 111.765625 11.632813 111.945313 10.8125 111.945313 10.769531 Z M 111.945313 10.769531 "/>
<path style=" stroke:none;fill-rule:evenodd;fill:rgb(0%,0%,0%);fill-opacity:1;" d="M 116.5 14.761719 L 116.5 14.457031 L 116.1875 14.457031 C 115.308594 14.457031 115.277344 14.347656 115.277344 13.988281 L 115.277344 8.5 C 115.277344 8.265625 115.277344 8.246094 115.050781 8.246094 C 114.445313 8.871094 113.585938 8.871094 113.273438 8.871094 L 113.273438 9.175781 C 113.46875 9.175781 114.046875 9.175781 114.554688 8.921875 L 114.554688 13.988281 C 114.554688 14.339844 114.523438 14.457031 113.644531 14.457031 L 113.332031 14.457031 L 113.332031 14.761719 C 113.675781 14.730469 114.523438 14.730469 114.917969 14.730469 C 115.308594 14.730469 116.160156 14.730469 116.5 14.761719 Z M 116.5 14.761719 "/>
<path style=" stroke:none;fill-rule:evenodd;fill:rgb(0%,0%,0%);fill-opacity:1;" d="M 120.515625 12.816406 C 120.515625 12.007813 120.25 11.410156 119.679688 11.410156 C 119.234375 11.410156 119.011719 11.773438 119.011719 12.078125 C 119.011719 12.386719 119.222656 12.761719 119.691406 12.761719 C 119.875 12.761719 120.027344 12.703125 120.152344 12.578125 C 120.179688 12.550781 120.207031 12.550781 120.207031 12.550781 C 120.207031 12.550781 120.234375 12.746094 120.234375 12.816406 C 120.234375 13.273438 120.152344 14.179688 119.347656 15.082031 C 119.191406 15.25 119.191406 15.304688 119.191406 15.304688 C 119.191406 15.375 119.261719 15.445313 119.332031 15.445313 C 119.441406 15.445313 120.515625 14.414063 120.515625 12.816406 Z M 120.515625 12.816406 "/>
<path style=" stroke:none;fill-rule:evenodd;fill:rgb(0%,0%,0%);fill-opacity:1;" d="M 126.460938 12.09375 C 126.460938 11.691406 126.128906 11.410156 125.792969 11.410156 C 125.390625 11.410156 125.109375 11.746094 125.109375 12.078125 C 125.109375 12.480469 125.445313 12.761719 125.78125 12.761719 C 126.183594 12.761719 126.460938 12.425781 126.460938 12.09375 Z M 126.460938 12.09375 "/>
<path style=" stroke:none;fill-rule:evenodd;fill:rgb(0%,0%,0%);fill-opacity:1;" d="M 132.5625 12.09375 C 132.5625 11.691406 132.226563 11.410156 131.894531 11.410156 C 131.488281 11.410156 131.210938 11.746094 131.210938 12.078125 C 131.210938 12.480469 131.546875 12.761719 131.878906 12.761719 C 132.28125 12.761719 132.5625 12.425781 132.5625 12.09375 Z M 132.5625 12.09375 "/>
<path style=" stroke:none;fill-rule:evenodd;fill:rgb(0%,0%,0%);fill-opacity:1;" d="M 138.660156 12.09375 C 138.660156 11.691406 138.328125 11.410156 137.992188 11.410156 C 137.589844 11.410156 137.3125 11.746094 137.3125 12.078125 C 137.3125 12.480469 137.644531 12.761719 137.980469 12.761719 C 138.382813 12.761719 138.660156 12.425781 138.660156 12.09375 Z M 138.660156 12.09375 "/>
<path style=" stroke:none;fill-rule:evenodd;fill:rgb(0%,0%,0%);fill-opacity:1;" d="M 144.914063 12.816406 C 144.914063 12.007813 144.648438 11.410156 144.078125 11.410156 C 143.636719 11.410156 143.410156 11.773438 143.410156 12.078125 C 143.410156 12.386719 143.621094 12.761719 144.09375 12.761719 C 144.273438 12.761719 144.425781 12.703125 144.550781 12.578125 C 144.578125 12.550781 144.609375 12.550781 144.609375 12.550781 C 144.609375 12.550781 144.636719 12.746094 144.636719 12.816406 C 144.636719 13.273438 144.550781 14.179688 143.746094 15.082031 C 143.59375 15.25 143.59375 15.304688 143.59375 15.304688 C 143.59375 15.375 143.664063 15.445313 143.730469 15.445313 C 143.84375 15.445313 144.914063 14.414063 144.914063 12.816406 Z M 144.914063 12.816406 "/>
<path style=" stroke:none;fill-rule:evenodd;fill:rgb(0%,0%,0%);fill-opacity:1;" d="M 155.746094 10.769531 C 155.746094 10.703125 155.691406 10.644531 155.605469 10.644531 C 155.480469 10.644531 155.46875 10.714844 155.410156 10.925781 C 155.160156 11.882813 154.910156 12.621094 154.355469 12.621094 C 153.9375 12.621094 153.9375 12.160156 153.9375 11.980469 C 153.9375 11.660156 153.980469 11.523438 154.117188 10.9375 L 154.394531 9.796875 L 154.964844 7.53125 C 155.0625 7.183594 155.0625 7.15625 155.0625 7.113281 C 155.0625 6.90625 154.898438 6.765625 154.6875 6.765625 C 154.285156 6.765625 154.1875 7.113281 154.105469 7.460938 L 153.117188 11.480469 C 153.117188 11.480469 152.558594 12.621094 151.546875 12.621094 C 150.820313 12.621094 150.683594 11.996094 150.683594 11.480469 C 150.683594 10.6875 151.070313 9.574219 151.433594 8.644531 C 151.601563 8.199219 151.671875 8.019531 151.671875 7.738281 C 151.671875 7.140625 151.238281 6.628906 150.570313 6.628906 C 149.292969 6.628906 148.777344 8.644531 148.777344 8.753906 C 148.777344 8.808594 148.832031 8.878906 148.929688 8.878906 C 149.054688 8.878906 149.070313 8.824219 149.125 8.628906 C 149.457031 7.433594 150.003906 6.90625 150.53125 6.90625 C 150.667969 6.90625 150.890625 6.917969 150.890625 7.363281 C 150.890625 7.726563 150.738281 8.128906 150.53125 8.65625 C 149.917969 10.3125 149.847656 10.839844 149.847656 11.257813 C 149.847656 12.675781 150.917969 12.898438 151.488281 12.898438 C 152.378906 12.898438 152.867188 12.285156 153.144531 11.953125 C 153.324219 12.730469 153.992188 12.898438 154.328125 12.898438 C 154.769531 12.898438 155.105469 12.605469 155.328125 12.132813 C 155.566406 11.632813 155.746094 10.8125 155.746094 10.769531 Z M 155.746094 10.769531 "/>
<path style=" stroke:none;fill-rule:evenodd;fill:rgb(0%,0%,0%);fill-opacity:1;" d="M 161.335938 14.761719 L 161.335938 14.457031 C 160.824219 14.457031 160.582031 14.457031 160.570313 14.164063 L 160.570313 12.296875 C 160.570313 11.453125 160.570313 11.152344 160.269531 10.800781 C 160.132813 10.632813 159.808594 10.4375 159.242188 10.4375 C 158.527344 10.4375 158.066406 10.855469 157.792969 11.464844 L 157.792969 10.4375 L 156.414063 10.542969 L 156.414063 10.847656 C 157.097656 10.847656 157.179688 10.917969 157.179688 11.394531 L 157.179688 14.015625 C 157.179688 14.457031 157.070313 14.457031 156.414063 14.457031 L 156.414063 14.761719 L 157.519531 14.730469 L 158.617188 14.761719 L 158.617188 14.457031 C 157.960938 14.457031 157.851563 14.457031 157.851563 14.015625 L 157.851563 12.214844 C 157.851563 11.199219 158.546875 10.652344 159.175781 10.652344 C 159.789063 10.652344 159.898438 11.179688 159.898438 11.738281 L 159.898438 14.015625 C 159.898438 14.457031 159.789063 14.457031 159.136719 14.457031 L 159.136719 14.761719 L 160.238281 14.730469 Z M 161.335938 14.761719 "/>
<path style=" stroke:none;fill-rule:evenodd;fill:rgb(0%,0%,0%);fill-opacity:1;" d="M 164.019531 14.761719 L 164.019531 14.457031 C 163.371094 14.457031 163.332031 14.410156 163.332031 14.027344 L 163.332031 10.4375 L 161.964844 10.542969 L 161.964844 10.847656 C 162.597656 10.847656 162.6875 10.90625 162.6875 11.386719 L 162.6875 14.015625 C 162.6875 14.457031 162.578125 14.457031 161.925781 14.457031 L 161.925781 14.761719 L 163 14.730469 C 163.34375 14.730469 163.683594 14.75 164.019531 14.761719 Z M 163.480469 8.851563 C 163.480469 8.589844 163.253906 8.332031 162.960938 8.332031 C 162.628906 8.332031 162.433594 8.609375 162.433594 8.851563 C 162.433594 9.117188 162.65625 9.371094 162.953125 9.371094 C 163.285156 9.371094 163.480469 9.097656 163.480469 8.851563 Z M 163.480469 8.851563 "/>
<path style=" stroke:none;fill-rule:evenodd;fill:rgb(0%,0%,0%);fill-opacity:1;" d="M 169.535156 14.761719 L 169.535156 14.457031 C 169.023438 14.457031 168.78125 14.457031 168.773438 14.164063 L 168.773438 12.296875 C 168.773438 11.453125 168.773438 11.152344 168.46875 10.800781 C 168.332031 10.632813 168.007813 10.4375 167.441406 10.4375 C 166.726563 10.4375 166.269531 10.855469 165.992188 11.464844 L 165.992188 10.4375 L 164.613281 10.542969 L 164.613281 10.847656 C 165.300781 10.847656 165.378906 10.917969 165.378906 11.394531 L 165.378906 14.015625 C 165.378906 14.457031 165.269531 14.457031 164.613281 14.457031 L 164.613281 14.761719 L 165.722656 14.730469 L 166.816406 14.761719 L 166.816406 14.457031 C 166.160156 14.457031 166.050781 14.457031 166.050781 14.015625 L 166.050781 12.214844 C 166.050781 11.199219 166.746094 10.652344 167.375 10.652344 C 167.988281 10.652344 168.097656 11.179688 168.097656 11.738281 L 168.097656 14.015625 C 168.097656 14.457031 167.988281 14.457031 167.335938 14.457031 L 167.335938 14.761719 L 168.441406 14.730469 Z M 169.535156 14.761719 "/>
<path style=" stroke:none;fill-rule:evenodd;fill:rgb(0%,0%,0%);fill-opacity:1;" d="M 174.125 9.296875 C 174.125 8.238281 173.984375 6.515625 173.207031 4.902344 C 172.386719 3.234375 171.246094 2.332031 171.09375 2.332031 C 171.035156 2.332031 170.96875 2.355469 170.96875 2.441406 C 170.96875 2.480469 170.96875 2.511719 171.203125 2.746094 C 172.59375 4.152344 173.371094 6.445313 173.371094 9.285156 C 173.371094 11.980469 172.71875 14.304688 171.105469 15.945313 C 170.96875 16.070313 170.96875 16.097656 170.96875 16.140625 C 170.96875 16.222656 171.035156 16.25 171.09375 16.25 C 171.273438 16.25 172.414063 15.25 173.09375 13.886719 C 173.804688 12.46875 174.125 10.964844 174.125 9.296875 Z M 174.125 9.296875 "/>
<path style=" stroke:none;fill-rule:evenodd;fill:rgb(0%,0%,0%);fill-opacity:1;" d="M 10.210938 35.351563 C 10.222656 35.28125 10.25 35.195313 10.25 35.113281 C 10.25 34.90625 10.085938 34.765625 9.875 34.765625 C 9.75 34.765625 9.457031 34.820313 9.347656 35.238281 L 8.316406 39.328125 C 8.25 39.578125 8.25 39.605469 8.136719 39.757813 C 7.859375 40.148438 7.398438 40.621094 6.734375 40.621094 C 5.953125 40.621094 5.882813 39.855469 5.882813 39.480469 C 5.882813 38.6875 6.257813 37.617188 6.632813 36.617188 C 6.789063 36.210938 6.871094 36.015625 6.871094 35.738281 C 6.871094 35.15625 6.453125 34.625 5.773438 34.625 C 4.492188 34.625 3.976563 36.640625 3.976563 36.753906 C 3.976563 36.808594 4.035156 36.878906 4.132813 36.878906 C 4.257813 36.878906 4.269531 36.824219 4.328125 36.628906 C 4.660156 35.460938 5.1875 34.90625 5.730469 34.90625 C 5.855469 34.90625 6.09375 34.90625 6.09375 35.363281 C 6.09375 35.726563 5.9375 36.128906 5.730469 36.65625 C 5.050781 38.476563 5.050781 38.9375 5.050781 39.273438 C 5.050781 40.59375 5.996094 40.898438 6.691406 40.898438 C 7.09375 40.898438 7.59375 40.773438 8.082031 40.257813 L 8.09375 40.273438 C 7.886719 41.09375 7.746094 41.636719 7.261719 42.316406 C 6.886719 42.84375 6.34375 43.320313 5.660156 43.320313 C 5.492188 43.320313 4.828125 43.289063 4.617188 42.648438 C 4.660156 42.664063 4.757813 42.664063 4.757813 42.664063 C 5.175781 42.664063 5.453125 42.304688 5.453125 41.984375 C 5.453125 41.664063 5.1875 41.550781 4.980469 41.550781 C 4.757813 41.550781 4.269531 41.71875 4.269531 42.398438 C 4.269531 43.109375 4.867188 43.597656 5.660156 43.597656 C 7.050781 43.597656 8.457031 42.316406 8.847656 40.773438 Z M 10.210938 35.351563 "/>
<path style=" stroke:none;fill-rule:evenodd;fill:rgb(0%,0%,0%);fill-opacity:1;" d="M 13.082031 36.746094 C 13.082031 36.550781 12.945313 36.394531 12.71875 36.394531 C 12.453125 36.394531 12.191406 36.648438 12.191406 36.914063 C 12.191406 37.097656 12.328125 37.265625 12.5625 37.265625 C 12.789063 37.265625 13.082031 37.039063 13.082031 36.746094 Z M 13.167969 41.460938 C 13.167969 41.363281 13.082031 41.363281 13.050781 41.363281 C 12.953125 41.363281 12.953125 41.390625 12.90625 41.539063 C 12.726563 42.15625 12.40625 42.75 11.90625 42.75 C 11.742188 42.75 11.671875 42.65625 11.671875 42.429688 C 11.671875 42.183594 11.730469 42.046875 11.957031 41.453125 L 12.335938 40.421875 C 12.453125 40.140625 12.453125 40.121094 12.554688 39.855469 C 12.632813 39.660156 12.679688 39.523438 12.679688 39.335938 C 12.679688 38.898438 12.367188 38.535156 11.878906 38.535156 C 10.957031 38.535156 10.585938 39.953125 10.585938 40.042969 C 10.585938 40.140625 10.703125 40.140625 10.703125 40.140625 C 10.800781 40.140625 10.8125 40.121094 10.859375 39.964844 C 11.125 39.046875 11.515625 38.75 11.847656 38.75 C 11.925781 38.75 12.09375 38.75 12.09375 39.0625 C 12.09375 39.269531 12.023438 39.476563 11.984375 39.574219 C 11.90625 39.828125 11.46875 40.960938 11.3125 41.382813 C 11.210938 41.636719 11.085938 41.960938 11.085938 42.164063 C 11.085938 42.625 11.417969 42.96875 11.886719 42.96875 C 12.808594 42.96875 13.167969 41.546875 13.167969 41.460938 Z M 13.167969 41.460938 "/>
<path style=" stroke:none;fill-rule:evenodd;fill:rgb(0%,0%,0%);fill-opacity:1;" d="M 27.835938 36.003906 C 27.835938 35.738281 27.597656 35.738281 27.390625 35.738281 L 19.199219 35.738281 C 19.003906 35.738281 18.753906 35.738281 18.753906 35.988281 C 18.753906 36.253906 18.992188 36.253906 19.199219 36.253906 L 27.390625 36.253906 C 27.585938 36.253906 27.835938 36.253906 27.835938 36.003906 Z M 27.835938 38.589844 C 27.835938 38.324219 27.597656 38.324219 27.390625 38.324219 L 19.199219 38.324219 C 19.003906 38.324219 18.753906 38.324219 18.753906 38.578125 C 18.753906 38.839844 18.992188 38.839844 19.199219 38.839844 L 27.390625 38.839844 C 27.585938 38.839844 27.835938 38.839844 27.835938 38.589844 Z M 27.835938 38.589844 "/>
<path style=" stroke:none;fill-rule:evenodd;fill:rgb(0%,0%,0%);fill-opacity:1;" d="M 50.148438 29.371094 C 50.148438 29.300781 50.089844 29.246094 50.007813 29.246094 C 49.882813 29.246094 49.867188 29.316406 49.8125 29.523438 C 49.5625 30.484375 49.3125 31.21875 48.753906 31.21875 C 48.335938 31.21875 48.335938 30.761719 48.335938 30.582031 C 48.335938 30.261719 48.378906 30.121094 48.519531 29.539063 L 48.796875 28.398438 L 49.367188 26.128906 C 49.464844 25.78125 49.464844 25.753906 49.464844 25.710938 C 49.464844 25.503906 49.296875 25.367188 49.089844 25.367188 C 48.6875 25.367188 48.589844 25.710938 48.503906 26.0625 L 47.515625 30.078125 C 47.515625 30.078125 46.960938 31.21875 45.945313 31.21875 C 45.222656 31.21875 45.085938 30.59375 45.085938 30.078125 C 45.085938 29.289063 45.472656 28.175781 45.835938 27.242188 C 46 26.800781 46.070313 26.617188 46.070313 26.339844 C 46.070313 25.742188 45.640625 25.226563 44.972656 25.226563 C 43.695313 25.226563 43.179688 27.242188 43.179688 27.355469 C 43.179688 27.410156 43.234375 27.480469 43.332031 27.480469 C 43.457031 27.480469 43.46875 27.425781 43.527344 27.230469 C 43.859375 26.03125 44.402344 25.503906 44.929688 25.503906 C 45.070313 25.503906 45.292969 25.519531 45.292969 25.964844 C 45.292969 26.324219 45.140625 26.726563 44.929688 27.257813 C 44.320313 28.910156 44.25 29.441406 44.25 29.859375 C 44.25 31.277344 45.320313 31.5 45.890625 31.5 C 46.78125 31.5 47.265625 30.886719 47.546875 30.554688 C 47.726563 31.332031 48.394531 31.5 48.726563 31.5 C 49.171875 31.5 49.507813 31.207031 49.730469 30.734375 C 49.964844 30.234375 50.148438 29.414063 50.148438 29.371094 Z M 50.148438 29.371094 "/>
<path style=" stroke:none;fill-rule:evenodd;fill:rgb(0%,0%,0%);fill-opacity:1;" d="M 54.847656 24.734375 C 54.847656 24.65625 54.808594 24.558594 54.671875 24.488281 L 53.253906 23.824219 L 54.640625 23.160156 C 54.730469 23.121094 54.847656 23.0625 54.847656 22.90625 C 54.847656 22.75 54.710938 22.632813 54.585938 22.632813 C 54.546875 22.632813 54.496094 22.640625 54.390625 22.71875 L 53.15625 23.628906 L 53.292969 22.066406 C 53.304688 21.9375 53.292969 21.710938 53.046875 21.710938 C 52.890625 21.710938 52.765625 21.839844 52.792969 21.964844 L 52.792969 22.074219 L 52.929688 23.628906 L 51.699219 22.726563 C 51.570313 22.640625 51.570313 22.632813 51.503906 22.632813 C 51.375 22.632813 51.238281 22.75 51.238281 22.90625 C 51.238281 23.0625 51.355469 23.121094 51.445313 23.160156 L 52.824219 23.816406 L 51.445313 24.480469 C 51.355469 24.519531 51.238281 24.578125 51.238281 24.734375 C 51.238281 24.890625 51.375 25.007813 51.503906 25.007813 C 51.542969 25.007813 51.589844 24.996094 51.699219 24.917969 L 52.929688 24.011719 L 52.792969 25.613281 L 52.792969 25.664063 C 52.765625 25.808594 52.902344 25.925781 53.039063 25.925781 C 53.304688 25.925781 53.304688 25.703125 53.292969 25.566406 L 53.15625 24.019531 L 54.222656 24.792969 C 54.339844 24.878906 54.515625 25.007813 54.585938 25.007813 C 54.710938 25.007813 54.847656 24.890625 54.847656 24.734375 Z M 54.847656 24.734375 "/>
<path style=" stroke:none;fill-rule:evenodd;fill:rgb(0%,0%,0%);fill-opacity:1;" d="M 53.382813 28.847656 C 53.382813 28.648438 53.242188 28.492188 53.019531 28.492188 C 52.753906 28.492188 52.492188 28.75 52.492188 29.011719 C 52.492188 29.199219 52.628906 29.363281 52.863281 29.363281 C 53.085938 29.363281 53.382813 29.140625 53.382813 28.847656 Z M 53.46875 33.5625 C 53.46875 33.460938 53.382813 33.460938 53.351563 33.460938 C 53.253906 33.460938 53.253906 33.492188 53.203125 33.640625 C 53.027344 34.253906 52.707031 34.851563 52.207031 34.851563 C 52.039063 34.851563 51.972656 34.753906 51.972656 34.53125 C 51.972656 34.285156 52.03125 34.148438 52.257813 33.550781 L 52.636719 32.523438 C 52.753906 32.242188 52.753906 32.21875 52.851563 31.957031 C 52.929688 31.761719 52.980469 31.625 52.980469 31.4375 C 52.980469 31 52.667969 30.636719 52.179688 30.636719 C 51.257813 30.636719 50.886719 32.054688 50.886719 32.140625 C 50.886719 32.242188 51.003906 32.242188 51.003906 32.242188 C 51.101563 32.242188 51.113281 32.21875 51.160156 32.0625 C 51.425781 31.144531 51.816406 30.851563 52.148438 30.851563 C 52.226563 30.851563 52.394531 30.851563 52.394531 31.164063 C 52.394531 31.371094 52.324219 31.574219 52.285156 31.671875 C 52.207031 31.925781 51.765625 33.0625 51.609375 33.484375 C 51.511719 33.738281 51.386719 34.058594 51.386719 34.265625 C 51.386719 34.726563 51.71875 35.066406 52.1875 35.066406 C 53.109375 35.066406 53.46875 33.648438 53.46875 33.5625 Z M 53.46875 33.5625 "/>
<path style="fill:none;stroke-width:0.557995;stroke-linecap:square;stroke-linejoin:miter;stroke:rgb(0%,0%,0%);stroke-opacity:1;stroke-miterlimit:10;" d="M 33.71875 37.273438 L 65.035156 37.273438 "/>
<path style=" stroke:none;fill-rule:evenodd;fill:rgb(0%,0%,0%);fill-opacity:1;" d="M 40.136719 46.757813 L 40.136719 46.457031 C 39.625 46.457031 39.382813 46.457031 39.375 46.164063 L 39.375 44.296875 C 39.375 43.453125 39.375 43.148438 39.070313 42.796875 C 38.933594 42.632813 38.609375 42.4375 38.042969 42.4375 C 37.328125 42.4375 36.867188 42.855469 36.59375 43.460938 L 36.59375 42.4375 L 35.214844 42.542969 L 35.214844 42.847656 C 35.898438 42.847656 35.980469 42.914063 35.980469 43.394531 L 35.980469 46.015625 C 35.980469 46.457031 35.871094 46.457031 35.214844 46.457031 L 35.214844 46.757813 L 36.320313 46.730469 L 37.417969 46.757813 L 37.417969 46.457031 C 36.761719 46.457031 36.652344 46.457031 36.652344 46.015625 L 36.652344 44.214844 C 36.652344 43.199219 37.347656 42.652344 37.976563 42.652344 C 38.589844 42.652344 38.699219 43.179688 38.699219 43.738281 L 38.699219 46.015625 C 38.699219 46.457031 38.589844 46.457031 37.9375 46.457031 L 37.9375 46.757813 L 39.039063 46.730469 Z M 40.136719 46.757813 "/>
<path style=" stroke:none;fill-rule:evenodd;fill:rgb(0%,0%,0%);fill-opacity:1;" d="M 42.71875 46.757813 L 42.71875 46.457031 C 42.074219 46.457031 42.035156 46.40625 42.035156 46.027344 L 42.035156 42.4375 L 40.664063 42.542969 L 40.664063 42.847656 C 41.300781 42.847656 41.390625 42.90625 41.390625 43.382813 L 41.390625 46.015625 C 41.390625 46.457031 41.28125 46.457031 40.625 46.457031 L 40.625 46.757813 L 41.703125 46.730469 C 42.042969 46.730469 42.386719 46.75 42.71875 46.757813 Z M 42.179688 40.851563 C 42.179688 40.585938 41.957031 40.332031 41.664063 40.332031 C 41.328125 40.332031 41.132813 40.609375 41.132813 40.851563 C 41.132813 41.117188 41.359375 41.371094 41.652344 41.371094 C 41.984375 41.371094 42.179688 41.097656 42.179688 40.851563 Z M 42.179688 40.851563 "/>
<path style=" stroke:none;fill-rule:evenodd;fill:rgb(0%,0%,0%);fill-opacity:1;" d="M 48.234375 46.757813 L 48.234375 46.457031 C 47.726563 46.457031 47.484375 46.457031 47.472656 46.164063 L 47.472656 44.296875 C 47.472656 43.453125 47.472656 43.148438 47.171875 42.796875 C 47.03125 42.632813 46.710938 42.4375 46.140625 42.4375 C 45.429688 42.4375 44.96875 42.855469 44.695313 43.460938 L 44.695313 42.4375 L 43.316406 42.542969 L 43.316406 42.847656 C 44 42.847656 44.078125 42.914063 44.078125 43.394531 L 44.078125 46.015625 C 44.078125 46.457031 43.972656 46.457031 43.316406 46.457031 L 43.316406 46.757813 L 44.421875 46.730469 L 45.515625 46.757813 L 45.515625 46.457031 C 44.859375 46.457031 44.753906 46.457031 44.753906 46.015625 L 44.753906 44.214844 C 44.753906 43.199219 45.449219 42.652344 46.074219 42.652344 C 46.691406 42.652344 46.796875 43.179688 46.796875 43.738281 L 46.796875 46.015625 C 46.796875 46.457031 46.691406 46.457031 46.035156 46.457031 L 46.035156 46.757813 L 47.140625 46.730469 Z M 48.234375 46.757813 "/>
<path style=" stroke:none;fill-rule:evenodd;fill:rgb(0%,0%,0%);fill-opacity:1;" d="M 40.15625 56.984375 L 35.21875 63.089844 C 35.109375 63.230469 35.09375 63.257813 35.09375 63.3125 C 35.09375 63.46875 35.21875 63.46875 35.472656 63.46875 L 47 63.46875 L 48.195313 60.003906 L 47.847656 60.003906 C 47.5 61.046875 46.570313 61.894531 45.386719 62.296875 C 45.164063 62.367188 44.203125 62.703125 42.160156 62.703125 L 36.25 62.703125 L 41.078125 56.734375 C 41.171875 56.609375 41.203125 56.570313 41.203125 56.511719 C 41.203125 56.457031 41.1875 56.445313 41.101563 56.320313 L 36.585938 50.117188 L 42.089844 50.117188 C 43.675781 50.117188 46.875 50.210938 47.847656 52.8125 L 48.195313 52.8125 L 47 49.558594 L 35.472656 49.558594 C 35.09375 49.558594 35.082031 49.574219 35.082031 50.003906 Z M 40.15625 56.984375 "/>
<path style=" stroke:none;fill-rule:evenodd;fill:rgb(0%,0%,0%);fill-opacity:1;" d="M 36.480469 66.148438 C 36.480469 65.949219 36.34375 65.792969 36.117188 65.792969 C 35.855469 65.792969 35.589844 66.046875 35.589844 66.3125 C 35.589844 66.5 35.726563 66.664063 35.960938 66.664063 C 36.1875 66.664063 36.480469 66.4375 36.480469 66.148438 Z M 36.570313 70.859375 C 36.570313 70.761719 36.480469 70.761719 36.453125 70.761719 C 36.351563 70.761719 36.351563 70.792969 36.304688 70.9375 C 36.128906 71.554688 35.804688 72.152344 35.308594 72.152344 C 35.140625 72.152344 35.070313 72.054688 35.070313 71.828125 C 35.070313 71.585938 35.132813 71.445313 35.355469 70.851563 L 35.738281 69.824219 C 35.855469 69.539063 35.855469 69.519531 35.953125 69.257813 C 36.03125 69.0625 36.078125 68.921875 36.078125 68.738281 C 36.078125 68.296875 35.765625 67.9375 35.277344 67.9375 C 34.359375 67.9375 33.988281 69.355469 33.988281 69.441406 C 33.988281 69.539063 34.105469 69.539063 34.105469 69.539063 C 34.203125 69.539063 34.210938 69.519531 34.261719 69.363281 C 34.523438 68.445313 34.914063 68.152344 35.25 68.152344 C 35.328125 68.152344 35.492188 68.152344 35.492188 68.464844 C 35.492188 68.671875 35.425781 68.875 35.386719 68.972656 C 35.308594 69.226563 34.867188 70.363281 34.710938 70.78125 C 34.613281 71.039063 34.484375 71.359375 34.484375 71.566406 C 34.484375 72.023438 34.820313 72.367188 35.289063 72.367188 C 36.207031 72.367188 36.570313 70.949219 36.570313 70.859375 Z M 36.570313 70.859375 "/>
<path style=" stroke:none;fill-rule:evenodd;fill:rgb(0%,0%,0%);fill-opacity:1;" d="M 44.15625 68.867188 C 44.15625 68.671875 43.96875 68.671875 43.832031 68.671875 L 37.972656 68.671875 C 37.835938 68.671875 37.652344 68.671875 37.652344 68.867188 C 37.652344 69.0625 37.835938 69.0625 37.984375 69.0625 L 43.820313 69.0625 C 43.96875 69.0625 44.15625 69.0625 44.15625 68.867188 Z M 44.15625 70.761719 C 44.15625 70.566406 43.96875 70.566406 43.820313 70.566406 L 37.984375 70.566406 C 37.835938 70.566406 37.652344 70.566406 37.652344 70.761719 C 37.652344 70.957031 37.835938 70.957031 37.972656 70.957031 L 43.832031 70.957031 C 43.96875 70.957031 44.15625 70.957031 44.15625 70.761719 Z M 44.15625 70.761719 "/>
<path style=" stroke:none;fill-rule:evenodd;fill:rgb(0%,0%,0%);fill-opacity:1;" d="M 48.800781 72.257813 L 48.800781 71.957031 L 48.488281 71.957031 C 47.609375 71.957031 47.578125 71.847656 47.578125 71.484375 L 47.578125 66 C 47.578125 65.765625 47.578125 65.746094 47.351563 65.746094 C 46.746094 66.371094 45.886719 66.371094 45.574219 66.371094 L 45.574219 66.675781 C 45.769531 66.675781 46.347656 66.675781 46.855469 66.421875 L 46.855469 71.484375 C 46.855469 71.839844 46.824219 71.957031 45.945313 71.957031 L 45.632813 71.957031 L 45.632813 72.257813 C 45.976563 72.230469 46.824219 72.230469 47.21875 72.230469 C 47.609375 72.230469 48.460938 72.230469 48.800781 72.257813 Z M 48.800781 72.257813 "/>
<path style=" stroke:none;fill-rule:evenodd;fill:rgb(0%,0%,0%);fill-opacity:1;" d="M 59.246094 58.070313 C 59.246094 58 59.191406 57.945313 59.109375 57.945313 C 58.980469 57.945313 58.96875 58.015625 58.914063 58.222656 C 58.664063 59.183594 58.410156 59.921875 57.855469 59.921875 C 57.4375 59.921875 57.4375 59.460938 57.4375 59.28125 C 57.4375 58.960938 57.480469 58.820313 57.617188 58.238281 L 57.898438 57.097656 L 58.46875 54.828125 C 58.5625 54.484375 58.5625 54.453125 58.5625 54.414063 C 58.5625 54.203125 58.398438 54.066406 58.1875 54.066406 C 57.785156 54.066406 57.6875 54.414063 57.605469 54.761719 L 56.617188 58.78125 C 56.617188 58.78125 56.0625 59.921875 55.046875 59.921875 C 54.324219 59.921875 54.183594 59.292969 54.183594 58.78125 C 54.183594 57.988281 54.574219 56.875 54.933594 55.941406 C 55.101563 55.5 55.171875 55.316406 55.171875 55.039063 C 55.171875 54.441406 54.742188 53.925781 54.070313 53.925781 C 52.792969 53.925781 52.277344 55.941406 52.277344 56.054688 C 52.277344 56.109375 52.335938 56.179688 52.429688 56.179688 C 52.554688 56.179688 52.570313 56.125 52.625 55.929688 C 52.960938 54.734375 53.503906 54.203125 54.03125 54.203125 C 54.171875 54.203125 54.390625 54.21875 54.390625 54.664063 C 54.390625 55.023438 54.238281 55.429688 54.03125 55.957031 C 53.417969 57.609375 53.351563 58.140625 53.351563 58.558594 C 53.351563 59.976563 54.421875 60.199219 54.992188 60.199219 C 55.882813 60.199219 56.367188 59.585938 56.644531 59.253906 C 56.828125 60.03125 57.492188 60.199219 57.828125 60.199219 C 58.273438 60.199219 58.605469 59.90625 58.828125 59.433594 C 59.066406 58.933594 59.246094 58.113281 59.246094 58.070313 Z M 59.246094 58.070313 "/>
<path style=" stroke:none;fill-rule:evenodd;fill:rgb(0%,0%,0%);fill-opacity:1;" d="M 63.949219 53.734375 C 63.949219 53.65625 63.910156 53.558594 63.773438 53.488281 L 62.351563 52.824219 L 63.742188 52.160156 C 63.832031 52.121094 63.949219 52.0625 63.949219 51.90625 C 63.949219 51.75 63.8125 51.632813 63.683594 51.632813 C 63.644531 51.632813 63.59375 51.640625 63.488281 51.71875 L 62.257813 52.628906 L 62.390625 51.0625 C 62.402344 50.9375 62.390625 50.710938 62.148438 50.710938 C 61.992188 50.710938 61.863281 50.839844 61.894531 50.964844 L 61.894531 51.074219 L 62.03125 52.628906 L 60.796875 51.726563 C 60.671875 51.640625 60.671875 51.632813 60.601563 51.632813 C 60.476563 51.632813 60.339844 51.75 60.339844 51.90625 C 60.339844 52.0625 60.457031 52.121094 60.542969 52.160156 L 61.921875 52.8125 L 60.542969 53.480469 C 60.457031 53.519531 60.339844 53.578125 60.339844 53.734375 C 60.339844 53.890625 60.476563 54.007813 60.601563 54.007813 C 60.640625 54.007813 60.691406 53.996094 60.796875 53.917969 L 62.03125 53.007813 L 61.894531 54.613281 L 61.894531 54.664063 C 61.863281 54.808594 62 54.925781 62.140625 54.925781 C 62.402344 54.925781 62.402344 54.703125 62.390625 54.566406 L 62.257813 53.019531 L 63.320313 53.792969 C 63.4375 53.878906 63.617188 54.007813 63.683594 54.007813 C 63.8125 54.007813 63.949219 53.890625 63.949219 53.734375 Z M 63.949219 53.734375 "/>
<path style=" stroke:none;fill-rule:evenodd;fill:rgb(0%,0%,0%);fill-opacity:1;" d="M 62.480469 57.746094 C 62.480469 57.550781 62.34375 57.394531 62.117188 57.394531 C 61.855469 57.394531 61.589844 57.648438 61.589844 57.914063 C 61.589844 58.097656 61.726563 58.265625 61.960938 58.265625 C 62.1875 58.265625 62.480469 58.039063 62.480469 57.746094 Z M 62.570313 62.460938 C 62.570313 62.363281 62.480469 62.363281 62.453125 62.363281 C 62.351563 62.363281 62.351563 62.390625 62.304688 62.539063 C 62.128906 63.15625 61.804688 63.75 61.308594 63.75 C 61.140625 63.75 61.070313 63.65625 61.070313 63.429688 C 61.070313 63.183594 61.132813 63.046875 61.355469 62.453125 L 61.738281 61.421875 C 61.855469 61.140625 61.855469 61.121094 61.953125 60.855469 C 62.03125 60.660156 62.078125 60.523438 62.078125 60.335938 C 62.078125 59.898438 61.765625 59.535156 61.277344 59.535156 C 60.359375 59.535156 59.988281 60.953125 59.988281 61.042969 C 59.988281 61.140625 60.105469 61.140625 60.105469 61.140625 C 60.203125 61.140625 60.210938 61.121094 60.261719 60.964844 C 60.523438 60.046875 60.914063 59.75 61.25 59.75 C 61.328125 59.75 61.492188 59.75 61.492188 60.0625 C 61.492188 60.269531 61.425781 60.476563 61.386719 60.574219 C 61.308594 60.828125 60.867188 61.960938 60.710938 62.382813 C 60.613281 62.636719 60.484375 62.960938 60.484375 63.164063 C 60.484375 63.625 60.820313 63.96875 61.289063 63.96875 C 62.207031 63.96875 62.570313 62.546875 62.570313 62.460938 Z M 62.570313 62.460938 "/>
</g>
</svg>
