<?xml version="1.0" encoding="UTF-8"?>
<svg xmlns="http://www.w3.org/2000/svg" xmlns:xlink="http://www.w3.org/1999/xlink" width="146pt" height="34pt" viewBox="0 0 146 34" version="1.1">
<g id="surface1">
<path style=" stroke:none;fill-rule:evenodd;fill:rgb(0%,0%,0%);fill-opacity:1;" d="M 6.476563 10.820313 C 6.476563 10.402344 6.144531 10.136719 5.808594 10.136719 C 5.421875 10.136719 5.128906 10.445313 5.128906 10.820313 C 5.128906 11.179688 5.433594 11.488281 5.796875 11.488281 C 6.214844 11.488281 6.476563 11.152344 6.476563 10.820313 Z M 6.476563 10.820313 "/>
<path style=" stroke:none;fill-rule:evenodd;fill:rgb(0%,0%,0%);fill-opacity:1;" d="M 9.878906 20.375 C 9.878906 19.246094 8.863281 18.132813 7.207031 17.953125 C 8.527344 17.703125 9.488281 16.816406 9.488281 15.769531 C 9.488281 14.574219 8.277344 13.421875 6.457031 13.421875 L 1.601563 13.421875 L 1.601563 13.824219 L 1.882813 13.824219 C 2.882813 13.824219 2.921875 13.964844 2.921875 14.476563 L 2.921875 21.863281 C 2.921875 22.375 2.882813 22.515625 1.882813 22.515625 L 1.601563 22.515625 L 1.601563 22.917969 L 6.832031 22.917969 C 8.625 22.917969 9.878906 21.710938 9.878906 20.375 Z M 8.265625 15.769531 C 8.265625 16.691406 7.539063 17.84375 5.996094 17.84375 L 3.980469 17.84375 L 3.980469 14.378906 C 3.980469 13.921875 4.007813 13.824219 4.621094 13.824219 L 6.375 13.824219 C 7.765625 13.824219 8.265625 15.019531 8.265625 15.769531 Z M 8.613281 20.359375 C 8.613281 21.484375 7.765625 22.515625 6.398438 22.515625 L 4.621094 22.515625 C 4.007813 22.515625 3.980469 22.417969 3.980469 21.960938 L 3.980469 18.121094 L 6.582031 18.121094 C 7.917969 18.121094 8.613281 19.289063 8.613281 20.359375 Z M 8.613281 20.359375 "/>
<path style=" stroke:none;fill-rule:evenodd;fill:rgb(0%,0%,0%);fill-opacity:1;" d="M 24.335938 18.164063 C 24.335938 17.898438 24.097656 17.898438 23.890625 17.898438 L 15.699219 17.898438 C 15.503906 17.898438 15.253906 17.898438 15.253906 18.148438 C 15.253906 18.414063 15.492188 18.414063 15.699219 18.414063 L 23.890625 18.414063 C 24.085938 18.414063 24.335938 18.414063 24.335938 18.164063 Z M 24.335938 20.75 C 24.335938 20.484375 24.097656 20.484375 23.890625 20.484375 L 15.699219 20.484375 C 15.503906 20.484375 15.253906 20.484375 15.253906 20.734375 C 15.253906 21 15.492188 21 15.699219 21 L 23.890625 21 C 24.085938 21 24.335938 21 24.335938 20.75 Z M 24.335938 20.75 "/>
<path style=" stroke:none;fill-rule:evenodd;fill:rgb(0%,0%,0%);fill-opacity:1;" d="M 37.875 20.375 C 37.875 19.246094 36.859375 18.132813 35.207031 17.953125 C 36.527344 17.703125 37.484375 16.816406 37.484375 15.769531 C 37.484375 14.574219 36.277344 13.421875 34.453125 13.421875 L 29.601563 13.421875 L 29.601563 13.824219 L 29.878906 13.824219 C 30.882813 13.824219 30.921875 13.964844 30.921875 14.476563 L 30.921875 21.863281 C 30.921875 22.375 30.882813 22.515625 29.878906 22.515625 L 29.601563 22.515625 L 29.601563 22.917969 L 34.828125 22.917969 C 36.625 22.917969 37.875 21.710938 37.875 20.375 Z M 36.261719 15.769531 C 36.261719 16.691406 35.539063 17.84375 33.996094 17.84375 L 31.980469 17.84375 L 31.980469 14.378906 C 31.980469 13.921875 32.007813 13.824219 32.617188 13.824219 L 34.371094 13.824219 C 35.761719 13.824219 36.261719 15.019531 36.261719 15.769531 Z M 36.609375 20.359375 C 36.609375 21.484375 35.761719 22.515625 34.398438 22.515625 L 32.617188 22.515625 C 32.007813 22.515625 31.980469 22.417969 31.980469 21.960938 L 31.980469 18.121094 L 34.578125 18.121094 C 35.914063 18.121094 36.609375 19.289063 36.609375 20.359375 Z M 36.609375 20.359375 "/>
<path style=" stroke:none;fill-rule:evenodd;fill:rgb(0%,0%,0%);fill-opacity:1;" d="M 44.472656 19.441406 C 44.472656 19.039063 44.136719 18.703125 43.734375 18.703125 C 43.332031 18.703125 42.996094 19.039063 42.996094 19.441406 C 42.996094 19.84375 43.332031 20.179688 43.734375 20.179688 C 44.136719 20.179688 44.472656 19.84375 44.472656 19.441406 Z M 44.472656 19.441406 "/>
<path style=" stroke:none;fill-rule:evenodd;fill:rgb(0%,0%,0%);fill-opacity:1;" d="M 55.476563 1.421875 C 55.476563 1.003906 55.140625 0.738281 54.808594 0.738281 C 54.417969 0.738281 54.125 1.046875 54.125 1.421875 C 54.125 1.78125 54.433594 2.085938 54.792969 2.085938 C 55.210938 2.085938 55.476563 1.753906 55.476563 1.421875 Z M 55.476563 1.421875 "/>
<path style=" stroke:none;fill-rule:evenodd;fill:rgb(0%,0%,0%);fill-opacity:1;" d="M 58.875 10.972656 C 58.875 9.847656 57.859375 8.734375 56.207031 8.554688 C 57.527344 8.304688 58.484375 7.414063 58.484375 6.371094 C 58.484375 5.175781 57.277344 4.019531 55.453125 4.019531 L 50.601563 4.019531 L 50.601563 4.425781 L 50.878906 4.425781 C 51.878906 4.425781 51.921875 4.5625 51.921875 5.078125 L 51.921875 12.464844 C 51.921875 12.976563 51.878906 13.117188 50.878906 13.117188 L 50.601563 13.117188 L 50.601563 13.519531 L 55.828125 13.519531 C 57.625 13.519531 58.875 12.308594 58.875 10.972656 Z M 57.261719 6.371094 C 57.261719 7.289063 56.539063 8.441406 54.996094 8.441406 L 52.980469 8.441406 L 52.980469 4.980469 C 52.980469 4.519531 53.007813 4.425781 53.617188 4.425781 L 55.371094 4.425781 C 56.761719 4.425781 57.261719 5.621094 57.261719 6.371094 Z M 57.609375 10.960938 C 57.609375 12.085938 56.761719 13.117188 55.398438 13.117188 L 53.617188 13.117188 C 53.007813 13.117188 52.980469 13.019531 52.980469 12.558594 L 52.980469 8.722656 L 55.578125 8.722656 C 56.914063 8.722656 57.609375 9.890625 57.609375 10.960938 Z M 57.609375 10.960938 "/>
<path style="fill:none;stroke-width:0.557974;stroke-linecap:square;stroke-linejoin:miter;stroke:rgb(0%,0%,0%);stroke-opacity:1;stroke-miterlimit:10;" d="M 49.980469 19.46875 L 59.652344 19.46875 "/>
<path style=" stroke:none;fill-rule:evenodd;fill:rgb(0%,0%,0%);fill-opacity:1;" d="M 58.875 29.972656 C 58.875 28.847656 57.859375 27.734375 56.207031 27.554688 C 57.527344 27.304688 58.484375 26.414063 58.484375 25.371094 C 58.484375 24.175781 57.277344 23.019531 55.453125 23.019531 L 50.601563 23.019531 L 50.601563 23.421875 L 50.878906 23.421875 C 51.878906 23.421875 51.921875 23.5625 51.921875 24.078125 L 51.921875 31.460938 C 51.921875 31.976563 51.878906 32.117188 50.878906 32.117188 L 50.601563 32.117188 L 50.601563 32.519531 L 55.828125 32.519531 C 57.625 32.519531 58.875 31.308594 58.875 29.972656 Z M 57.261719 25.371094 C 57.261719 26.289063 56.539063 27.441406 54.996094 27.441406 L 52.980469 27.441406 L 52.980469 23.980469 C 52.980469 23.519531 53.007813 23.421875 53.617188 23.421875 L 55.371094 23.421875 C 56.761719 23.421875 57.261719 24.617188 57.261719 25.371094 Z M 57.609375 29.960938 C 57.609375 31.085938 56.761719 32.117188 55.398438 32.117188 L 53.617188 32.117188 C 53.007813 32.117188 52.980469 32.019531 52.980469 31.558594 L 52.980469 27.71875 L 55.578125 27.71875 C 56.914063 27.71875 57.609375 28.890625 57.609375 29.960938 Z M 57.609375 29.960938 "/>
<path style=" stroke:none;fill-rule:evenodd;fill:rgb(0%,0%,0%);fill-opacity:1;" d="M 74.535156 18.164063 C 74.535156 17.898438 74.296875 17.898438 74.089844 17.898438 L 65.898438 17.898438 C 65.703125 17.898438 65.453125 17.898438 65.453125 18.148438 C 65.453125 18.414063 65.6875 18.414063 65.898438 18.414063 L 74.089844 18.414063 C 74.285156 18.414063 74.535156 18.414063 74.535156 18.164063 Z M 74.535156 20.75 C 74.535156 20.484375 74.296875 20.484375 74.089844 20.484375 L 65.898438 20.484375 C 65.703125 20.484375 65.453125 20.484375 65.453125 20.734375 C 65.453125 21 65.6875 21 65.898438 21 L 74.089844 21 C 74.285156 21 74.535156 21 74.535156 20.75 Z M 74.535156 20.75 "/>
<path style=" stroke:none;fill-rule:evenodd;fill:rgb(0%,0%,0%);fill-opacity:1;" d="M 88.074219 20.375 C 88.074219 19.246094 87.058594 18.132813 85.402344 17.953125 C 86.722656 17.703125 87.683594 16.816406 87.683594 15.769531 C 87.683594 14.574219 86.472656 13.421875 84.652344 13.421875 L 79.800781 13.421875 L 79.800781 13.824219 L 80.078125 13.824219 C 81.078125 13.824219 81.121094 13.964844 81.121094 14.476563 L 81.121094 21.863281 C 81.121094 22.375 81.078125 22.515625 80.078125 22.515625 L 79.800781 22.515625 L 79.800781 22.917969 L 85.027344 22.917969 C 86.824219 22.917969 88.074219 21.710938 88.074219 20.375 Z M 86.460938 15.769531 C 86.460938 16.691406 85.738281 17.84375 84.191406 17.84375 L 82.175781 17.84375 L 82.175781 14.378906 C 82.175781 13.921875 82.207031 13.824219 82.816406 13.824219 L 84.570313 13.824219 C 85.960938 13.824219 86.460938 15.019531 86.460938 15.769531 Z M 86.808594 20.359375 C 86.808594 21.484375 85.960938 22.515625 84.597656 22.515625 L 82.816406 22.515625 C 82.207031 22.515625 82.175781 22.417969 82.175781 21.960938 L 82.175781 18.121094 L 84.777344 18.121094 C 86.113281 18.121094 86.808594 19.289063 86.808594 20.359375 Z M 86.808594 20.359375 "/>
<path style=" stroke:none;fill-rule:evenodd;fill:rgb(0%,0%,0%);fill-opacity:1;" d="M 94.671875 19.441406 C 94.671875 19.039063 94.335938 18.703125 93.933594 18.703125 C 93.53125 18.703125 93.195313 19.039063 93.195313 19.441406 C 93.195313 19.84375 93.53125 20.179688 93.933594 20.179688 C 94.335938 20.179688 94.671875 19.84375 94.671875 19.441406 Z M 94.671875 19.441406 "/>
<path style=" stroke:none;fill-rule:evenodd;fill:rgb(0%,0%,0%);fill-opacity:1;" d="M 103.828125 22.363281 C 103.828125 22.28125 103.785156 22.195313 103.699219 22.195313 C 103.660156 22.195313 103.632813 22.210938 103.5625 22.265625 C 103.03125 22.613281 102.519531 22.78125 102.101563 22.78125 C 101.363281 22.78125 100.585938 22.292969 100.585938 20.945313 C 100.585938 20.679688 100.613281 20.320313 100.738281 19.761719 L 103.046875 19.761719 C 103.257813 19.761719 103.492188 19.761719 103.492188 19.539063 C 103.492188 19.359375 103.351563 19.359375 103.101563 19.359375 L 100.851563 19.359375 C 101.195313 18.09375 102.015625 17.328125 103.257813 17.328125 L 103.660156 17.328125 C 103.894531 17.328125 104.105469 17.328125 104.105469 17.105469 C 104.105469 16.925781 103.953125 16.925781 103.699219 16.925781 L 103.226563 16.925781 C 101.515625 16.925781 99.640625 18.289063 99.640625 20.46875 C 99.640625 22.015625 100.683594 23.058594 102.058594 23.058594 C 102.949219 23.058594 103.828125 22.5 103.828125 22.363281 Z M 103.828125 22.363281 "/>
<path style=" stroke:none;fill-rule:evenodd;fill:rgb(0%,0%,0%);fill-opacity:1;" d="M 110.867188 23.226563 C 110.867188 22.378906 110.066406 21.644531 108.980469 21.527344 C 109.925781 21.339844 110.601563 20.714844 110.601563 19.992188 C 110.601563 19.140625 109.703125 18.339844 108.429688 18.339844 L 104.851563 18.339844 L 104.851563 18.640625 L 105.085938 18.640625 C 105.839844 18.640625 105.859375 18.75 105.859375 19.101563 L 105.859375 24.257813 C 105.859375 24.609375 105.839844 24.714844 105.085938 24.714844 L 104.851563 24.714844 L 104.851563 25.019531 L 108.6875 25.019531 C 109.988281 25.019531 110.867188 24.148438 110.867188 23.226563 Z M 109.65625 19.992188 C 109.65625 20.617188 109.175781 21.4375 108.089844 21.4375 L 106.671875 21.4375 L 106.671875 19.035156 C 106.671875 18.710938 106.691406 18.640625 107.148438 18.640625 L 108.363281 18.640625 C 109.3125 18.640625 109.65625 19.472656 109.65625 19.992188 Z M 109.886719 23.21875 C 109.886719 23.914063 109.378906 24.714844 108.371094 24.714844 L 107.148438 24.714844 C 106.691406 24.714844 106.671875 24.648438 106.671875 24.324219 L 106.671875 21.65625 L 108.511719 21.65625 C 109.476563 21.65625 109.886719 22.5625 109.886719 23.21875 Z M 109.886719 23.21875 "/>
<path style=" stroke:none;fill-rule:evenodd;fill:rgb(0%,0%,0%);fill-opacity:1;" d="M 113.386719 25.007813 C 113.386719 24.382813 113.148438 23.980469 112.757813 23.980469 C 112.417969 23.980469 112.242188 24.246094 112.242188 24.5 C 112.242188 24.753906 112.40625 25.019531 112.757813 25.019531 C 112.90625 25.019531 113.042969 24.960938 113.148438 24.863281 C 113.167969 25.632813 112.898438 26.230469 112.464844 26.691406 C 112.40625 26.75 112.398438 26.757813 112.398438 26.796875 C 112.398438 26.867188 112.445313 26.90625 112.496094 26.90625 C 112.613281 26.90625 113.386719 26.132813 113.386719 25.007813 Z M 113.386719 25.007813 "/>
<path style=" stroke:none;fill-rule:evenodd;fill:rgb(0%,0%,0%);fill-opacity:1;" d="M 121.113281 25.019531 L 121.113281 24.714844 L 120.9375 24.714844 C 120.347656 24.714844 120.210938 24.648438 120.105469 24.324219 L 117.992188 18.210938 C 117.941406 18.085938 117.925781 18.015625 117.765625 18.015625 C 117.609375 18.015625 117.582031 18.074219 117.53125 18.210938 L 115.507813 24.0625 C 115.332031 24.558594 114.941406 24.707031 114.414063 24.714844 L 114.414063 25.019531 L 115.410156 24.988281 L 116.535156 25.019531 L 116.535156 24.714844 C 116.046875 24.714844 115.800781 24.46875 115.800781 24.21875 C 115.800781 24.1875 115.808594 24.089844 115.820313 24.070313 L 116.269531 22.789063 L 118.6875 22.789063 L 119.207031 24.285156 C 119.214844 24.324219 119.234375 24.382813 119.234375 24.421875 C 119.234375 24.714844 118.6875 24.714844 118.421875 24.714844 L 118.421875 25.019531 C 118.773438 24.988281 119.457031 24.988281 119.832031 24.988281 Z M 118.578125 22.484375 L 116.378906 22.484375 L 117.472656 19.304688 Z M 118.578125 22.484375 "/>
<path style=" stroke:none;fill-rule:evenodd;fill:rgb(0%,0%,0%);fill-opacity:1;" d="M 127.667969 19.441406 C 127.667969 19.039063 127.335938 18.703125 126.933594 18.703125 C 126.527344 18.703125 126.195313 19.039063 126.195313 19.441406 C 126.195313 19.84375 126.527344 20.179688 126.933594 20.179688 C 127.335938 20.179688 127.667969 19.84375 127.667969 19.441406 Z M 127.667969 19.441406 "/>
<path style=" stroke:none;fill-rule:evenodd;fill:rgb(0%,0%,0%);fill-opacity:1;" d="M 138.972656 1.421875 C 138.972656 1.003906 138.636719 0.738281 138.304688 0.738281 C 137.914063 0.738281 137.621094 1.046875 137.621094 1.421875 C 137.621094 1.78125 137.929688 2.085938 138.289063 2.085938 C 138.707031 2.085938 138.972656 1.753906 138.972656 1.421875 Z M 138.972656 1.421875 "/>
<path style=" stroke:none;fill-rule:evenodd;fill:rgb(0%,0%,0%);fill-opacity:1;" d="M 142.960938 13.519531 L 142.960938 13.117188 C 142.058594 13.117188 141.804688 13.117188 141.613281 12.546875 L 138.582031 3.839844 C 138.523438 3.671875 138.496094 3.589844 138.304688 3.589844 C 138.105469 3.589844 138.078125 3.632813 138.011719 3.855469 L 135.101563 12.171875 C 134.910156 12.742188 134.519531 13.101563 133.628906 13.117188 L 133.628906 13.519531 L 134.964844 13.492188 C 135.355469 13.492188 136.019531 13.492188 136.382813 13.519531 L 136.382813 13.117188 C 135.796875 13.101563 135.453125 12.808594 135.453125 12.421875 C 135.453125 12.335938 135.453125 12.308594 135.519531 12.128906 L 136.160156 10.277344 L 139.664063 10.277344 L 140.429688 12.464844 C 140.5 12.628906 140.5 12.65625 140.5 12.699219 C 140.5 13.117188 139.789063 13.117188 139.441406 13.117188 L 139.441406 13.519531 C 139.761719 13.492188 140.859375 13.492188 141.25 13.492188 C 141.640625 13.492188 142.640625 13.492188 142.960938 13.519531 Z M 139.527344 9.875 L 136.300781 9.875 L 137.914063 5.246094 Z M 139.527344 9.875 "/>
<path style="fill:none;stroke-width:0.557974;stroke-linecap:square;stroke-linejoin:miter;stroke:rgb(0%,0%,0%);stroke-opacity:1;stroke-miterlimit:10;" d="M 133.191406 19.46875 L 143.429688 19.46875 "/>
<path style=" stroke:none;fill-rule:evenodd;fill:rgb(0%,0%,0%);fill-opacity:1;" d="M 142.960938 32.519531 L 142.960938 32.117188 C 142.058594 32.117188 141.804688 32.117188 141.613281 31.546875 L 138.582031 22.839844 C 138.523438 22.671875 138.496094 22.589844 138.304688 22.589844 C 138.105469 22.589844 138.078125 22.632813 138.011719 22.851563 L 135.101563 31.171875 C 134.910156 31.742188 134.519531 32.101563 133.628906 32.117188 L 133.628906 32.519531 L 134.964844 32.492188 C 135.355469 32.492188 136.019531 32.492188 136.382813 32.519531 L 136.382813 32.117188 C 135.796875 32.101563 135.453125 31.808594 135.453125 31.421875 C 135.453125 31.335938 135.453125 31.308594 135.519531 31.128906 L 136.160156 29.277344 L 139.664063 29.277344 L 140.429688 31.460938 C 140.5 31.628906 140.5 31.65625 140.5 31.699219 C 140.5 32.117188 139.789063 32.117188 139.441406 32.117188 L 139.441406 32.519531 C 139.761719 32.492188 140.859375 32.492188 141.25 32.492188 C 141.640625 32.492188 142.640625 32.492188 142.960938 32.519531 Z M 139.527344 28.875 L 136.300781 28.875 L 137.914063 24.242188 Z M 139.527344 28.875 "/>
</g>
</svg>
