<?xml version="1.0" encoding="UTF-8"?>
<svg xmlns="http://www.w3.org/2000/svg" xmlns:xlink="http://www.w3.org/1999/xlink" width="131pt" height="22pt" viewBox="0 0 131 22" version="1.1">
<g id="surface172">
<path style=" stroke:none;fill-rule:evenodd;fill:rgb(0%,0%,0%);fill-opacity:1;" d="M 7.609375 9.75 C 7.621094 9.679688 7.648438 9.597656 7.648438 9.511719 C 7.648438 9.304688 7.484375 9.164063 7.273438 9.164063 C 7.148438 9.164063 6.855469 9.21875 6.746094 9.636719 L 5.714844 13.726563 C 5.648438 13.976563 5.648438 14.003906 5.535156 14.15625 C 5.257813 14.546875 4.800781 15.019531 4.132813 15.019531 C 3.351563 15.019531 3.285156 14.253906 3.285156 13.878906 C 3.285156 13.085938 3.660156 12.015625 4.035156 11.015625 C 4.1875 10.613281 4.269531 10.417969 4.269531 10.140625 C 4.269531 9.554688 3.855469 9.027344 3.171875 9.027344 C 1.894531 9.027344 1.378906 11.042969 1.378906 11.15625 C 1.378906 11.210938 1.433594 11.28125 1.53125 11.28125 C 1.65625 11.28125 1.667969 11.222656 1.726563 11.03125 C 2.058594 9.859375 2.589844 9.304688 3.128906 9.304688 C 3.253906 9.304688 3.492188 9.304688 3.492188 9.765625 C 3.492188 10.125 3.339844 10.527344 3.128906 11.054688 C 2.449219 12.878906 2.449219 13.335938 2.449219 13.671875 C 2.449219 14.992188 3.394531 15.296875 4.089844 15.296875 C 4.492188 15.296875 4.992188 15.171875 5.480469 14.660156 L 5.496094 14.671875 C 5.285156 15.492188 5.144531 16.035156 4.660156 16.714844 C 4.285156 17.246094 3.742188 17.71875 3.058594 17.71875 C 2.894531 17.71875 2.226563 17.691406 2.019531 17.050781 C 2.058594 17.0625 2.15625 17.0625 2.15625 17.0625 C 2.574219 17.0625 2.851563 16.703125 2.851563 16.382813 C 2.851563 16.0625 2.589844 15.949219 2.378906 15.949219 C 2.15625 15.949219 1.667969 16.117188 1.667969 16.800781 C 1.667969 17.507813 2.269531 17.996094 3.058594 17.996094 C 4.449219 17.996094 5.855469 16.714844 6.246094 15.171875 Z M 7.609375 9.75 "/>
<path style=" stroke:none;fill-rule:evenodd;fill:rgb(0%,0%,0%);fill-opacity:1;" d="M 21.832031 10.402344 C 21.832031 10.140625 21.597656 10.140625 21.386719 10.140625 L 13.195313 10.140625 C 13.003906 10.140625 12.753906 10.140625 12.753906 10.390625 C 12.753906 10.652344 12.988281 10.652344 13.195313 10.652344 L 21.386719 10.652344 C 21.582031 10.652344 21.832031 10.652344 21.832031 10.402344 Z M 21.832031 12.992188 C 21.832031 12.726563 21.597656 12.726563 21.386719 12.726563 L 13.195313 12.726563 C 13.003906 12.726563 12.753906 12.726563 12.753906 12.976563 C 12.753906 13.242188 12.988281 13.242188 13.195313 13.242188 L 21.386719 13.242188 C 21.582031 13.242188 21.832031 13.242188 21.832031 12.992188 Z M 21.832031 12.992188 "/>
<path style=" stroke:none;fill-rule:evenodd;fill:rgb(0%,0%,0%);fill-opacity:1;" d="M 29.785156 13.171875 C 29.785156 13.101563 29.726563 13.046875 29.644531 13.046875 C 29.519531 13.046875 29.503906 13.117188 29.449219 13.324219 C 29.199219 14.28125 28.949219 15.019531 28.390625 15.019531 C 27.972656 15.019531 27.972656 14.574219 27.972656 14.382813 C 27.972656 14.324219 27.972656 14.03125 28.074219 13.644531 L 30.035156 5.855469 C 30.046875 5.800781 30.074219 5.714844 30.074219 5.648438 C 30.074219 5.507813 29.910156 5.507813 29.910156 5.507813 L 29.144531 5.578125 C 28.90625 5.589844 28.699219 5.617188 28.449219 5.632813 C 28.113281 5.660156 28.015625 5.675781 28.015625 5.925781 C 28.015625 6.0625 28.15625 6.0625 28.292969 6.0625 C 29.003906 6.0625 29.003906 6.1875 29.003906 6.328125 C 29.003906 6.382813 29.003906 6.414063 28.933594 6.664063 L 27.210938 13.558594 C 27.167969 13.710938 27.140625 13.824219 27.140625 14.046875 C 27.140625 14.742188 27.65625 15.296875 28.363281 15.296875 C 28.824219 15.296875 29.128906 14.992188 29.351563 14.5625 C 29.589844 14.101563 29.785156 13.226563 29.785156 13.171875 Z M 29.785156 13.171875 "/>
<path style=" stroke:none;fill-rule:evenodd;fill:rgb(0%,0%,0%);fill-opacity:1;" d="M 43.652344 11.683594 C 43.652344 11.40625 43.386719 11.40625 43.191406 11.40625 L 35.613281 11.40625 C 35.417969 11.40625 35.15625 11.40625 35.15625 11.683594 C 35.15625 11.960938 35.417969 11.960938 35.613281 11.960938 L 43.191406 11.960938 C 43.386719 11.960938 43.652344 11.960938 43.652344 11.683594 Z M 43.652344 11.683594 "/>
<path style=" stroke:none;fill-rule:evenodd;fill:rgb(0%,0%,0%);fill-opacity:1;" d="M 52.417969 18.539063 C 52.417969 18.496094 52.417969 18.46875 52.183594 18.230469 C 50.792969 16.828125 50.011719 14.53125 50.011719 11.695313 C 50.011719 9 50.667969 6.675781 52.28125 5.035156 C 52.417969 4.910156 52.417969 4.882813 52.417969 4.839844 C 52.417969 4.757813 52.347656 4.730469 52.292969 4.730469 C 52.113281 4.730469 50.972656 5.730469 50.292969 7.09375 C 49.582031 8.5 49.261719 9.984375 49.261719 11.695313 C 49.261719 12.933594 49.457031 14.589844 50.179688 16.074219 C 51 17.746094 52.140625 18.648438 52.292969 18.648438 C 52.347656 18.648438 52.417969 18.621094 52.417969 18.539063 Z M 52.417969 18.539063 "/>
<path style=" stroke:none;fill-rule:evenodd;fill:rgb(0%,0%,0%);fill-opacity:1;" d="M 56.582031 13.171875 C 56.582031 13.101563 56.523438 13.046875 56.441406 13.046875 C 56.316406 13.046875 56.304688 13.117188 56.246094 13.324219 C 55.996094 14.28125 55.746094 15.019531 55.1875 15.019531 C 54.773438 15.019531 54.773438 14.574219 54.773438 14.382813 C 54.773438 14.324219 54.773438 14.03125 54.871094 13.644531 L 56.832031 5.855469 C 56.84375 5.800781 56.871094 5.714844 56.871094 5.648438 C 56.871094 5.507813 56.707031 5.507813 56.707031 5.507813 L 55.941406 5.578125 C 55.703125 5.589844 55.496094 5.617188 55.246094 5.632813 C 54.910156 5.660156 54.8125 5.675781 54.8125 5.925781 C 54.8125 6.0625 54.953125 6.0625 55.09375 6.0625 C 55.800781 6.0625 55.800781 6.1875 55.800781 6.328125 C 55.800781 6.382813 55.800781 6.414063 55.734375 6.664063 L 54.007813 13.558594 C 53.964844 13.710938 53.9375 13.824219 53.9375 14.046875 C 53.9375 14.742188 54.453125 15.296875 55.164063 15.296875 C 55.621094 15.296875 55.925781 14.992188 56.148438 14.5625 C 56.386719 14.101563 56.582031 13.226563 56.582031 13.171875 Z M 56.582031 13.171875 "/>
<path style=" stroke:none;fill-rule:evenodd;fill:rgb(0%,0%,0%);fill-opacity:1;" d="M 70.347656 11.683594 C 70.347656 11.40625 70.085938 11.40625 69.890625 11.40625 L 62.3125 11.40625 C 62.117188 11.40625 61.851563 11.40625 61.851563 11.683594 C 61.851563 11.960938 62.117188 11.960938 62.3125 11.960938 L 69.890625 11.960938 C 70.085938 11.960938 70.347656 11.960938 70.347656 11.683594 Z M 70.347656 11.683594 "/>
<path style=" stroke:none;fill-rule:evenodd;fill:rgb(0%,0%,0%);fill-opacity:1;" d="M 81.832031 12.558594 C 81.914063 12.253906 81.941406 11.945313 81.941406 11.65625 C 81.941406 11.113281 81.816406 10.597656 81.539063 10.179688 C 81.371094 9.929688 81.179688 9.707031 80.925781 9.554688 C 81.078125 9.472656 81.234375 9.375 81.371094 9.261719 C 81.929688 8.84375 82.332031 8.273438 82.484375 7.664063 C 82.527344 7.496094 82.554688 7.316406 82.554688 7.148438 C 82.554688 6.730469 82.414063 6.34375 82.164063 6.035156 C 81.804688 5.589844 81.234375 5.355469 80.578125 5.355469 C 78.9375 5.355469 77.714844 7.257813 77.257813 9.152344 L 75.101563 17.71875 C 75.101563 17.816406 75.15625 17.855469 75.210938 17.855469 L 75.296875 17.855469 C 75.351563 17.855469 75.394531 17.828125 75.40625 17.773438 L 76.378906 13.867188 C 76.574219 14.714844 77.199219 15.296875 78.160156 15.296875 C 78.9375 15.296875 79.757813 15.035156 80.46875 14.507813 C 81.136719 14.003906 81.648438 13.296875 81.832031 12.558594 Z M 80.96875 12.503906 C 80.816406 13.15625 80.496094 13.8125 79.953125 14.296875 C 79.4375 14.769531 78.785156 15.035156 78.160156 15.035156 C 77.171875 15.035156 76.617188 14.253906 76.617188 13.269531 C 76.617188 13.046875 76.644531 12.808594 76.699219 12.558594 L 77.550781 9.195313 C 77.980469 7.441406 79.050781 5.617188 80.578125 5.617188 C 81.054688 5.617188 81.441406 5.828125 81.664063 6.1875 C 81.789063 6.398438 81.84375 6.648438 81.84375 6.914063 C 81.84375 7.132813 81.804688 7.371094 81.75 7.609375 C 81.609375 8.136719 81.371094 8.664063 80.925781 9.070313 C 80.816406 9.164063 80.675781 9.261719 80.550781 9.347656 C 80.273438 9.234375 79.96875 9.179688 79.632813 9.179688 C 79.160156 9.179688 78.589844 9.179688 78.507813 9.511719 C 78.507813 9.554688 78.492188 9.609375 78.492188 9.609375 C 78.492188 9.914063 79.035156 9.914063 79.496094 9.914063 C 79.828125 9.914063 80.175781 9.859375 80.507813 9.734375 C 80.703125 9.890625 80.859375 10.082031 80.953125 10.304688 C 81.09375 10.597656 81.148438 10.929688 81.148438 11.28125 C 81.148438 11.667969 81.078125 12.085938 80.96875 12.503906 Z M 80.148438 9.539063 C 79.941406 9.609375 79.71875 9.652344 79.507813 9.652344 C 79.21875 9.652344 78.785156 9.652344 78.8125 9.570313 C 78.839844 9.445313 79.285156 9.445313 79.621094 9.445313 C 79.8125 9.445313 79.980469 9.472656 80.148438 9.539063 Z M 80.148438 9.539063 "/>
<path style=" stroke:none;fill-rule:evenodd;fill:rgb(0%,0%,0%);fill-opacity:1;" d="M 87.117188 11.695313 C 87.117188 10.640625 86.980469 8.914063 86.203125 7.300781 C 85.378906 5.632813 84.242188 4.730469 84.085938 4.730469 C 84.03125 4.730469 83.960938 4.757813 83.960938 4.839844 C 83.960938 4.882813 83.960938 4.910156 84.199219 5.148438 C 85.589844 6.550781 86.367188 8.84375 86.367188 11.683594 C 86.367188 14.382813 85.714844 16.703125 84.101563 18.34375 C 83.960938 18.46875 83.960938 18.496094 83.960938 18.539063 C 83.960938 18.621094 84.03125 18.648438 84.085938 18.648438 C 84.265625 18.648438 85.40625 17.648438 86.089844 16.285156 C 86.796875 14.867188 87.117188 13.367188 87.117188 11.695313 Z M 87.117188 11.695313 "/>
<path style=" stroke:none;fill-rule:evenodd;fill:rgb(0%,0%,0%);fill-opacity:1;" d="M 94.265625 11.683594 C 94.265625 11.28125 93.933594 10.945313 93.527344 10.945313 C 93.125 10.945313 92.792969 11.28125 92.792969 11.683594 C 92.792969 12.085938 93.125 12.421875 93.527344 12.421875 C 93.933594 12.421875 94.265625 12.085938 94.265625 11.683594 Z M 94.265625 11.683594 "/>
<path style=" stroke:none;fill-rule:evenodd;fill:rgb(0%,0%,0%);fill-opacity:1;" d="M 104.15625 13.503906 C 104.15625 13.421875 104.085938 13.367188 104.003906 13.367188 C 103.890625 13.367188 103.863281 13.433594 103.835938 13.503906 C 103.472656 14.671875 102.542969 14.992188 101.957031 14.992188 C 101.375 14.992188 99.96875 14.601563 99.96875 12.195313 L 99.96875 11.933594 L 103.824219 11.933594 C 104.128906 11.933594 104.15625 11.933594 104.15625 11.667969 C 104.15625 10.265625 103.40625 8.957031 101.722656 8.957031 C 100.136719 8.957031 98.914063 10.390625 98.914063 12.113281 C 98.914063 13.949219 100.332031 15.296875 101.875 15.296875 C 103.53125 15.296875 104.15625 13.796875 104.15625 13.503906 Z M 103.292969 11.667969 L 99.984375 11.667969 C 100.097656 9.484375 101.320313 9.234375 101.707031 9.234375 C 103.195313 9.234375 103.28125 11.195313 103.292969 11.667969 Z M 103.292969 11.667969 "/>
<path style=" stroke:none;fill-rule:evenodd;fill:rgb(0%,0%,0%);fill-opacity:1;" d="M 111.382813 6.914063 C 111.382813 6.71875 111.195313 6.71875 111.0625 6.71875 L 105.730469 6.71875 C 105.59375 6.71875 105.410156 6.71875 105.410156 6.914063 C 105.410156 7.109375 105.59375 7.109375 105.730469 7.109375 L 111.0625 7.109375 C 111.195313 7.109375 111.382813 7.109375 111.382813 6.914063 Z M 111.382813 6.914063 "/>
<path style=" stroke:none;fill-rule:evenodd;fill:rgb(0%,0%,0%);fill-opacity:1;" d="M 116.988281 7.960938 C 116.988281 7.863281 116.898438 7.863281 116.871094 7.863281 C 116.773438 7.863281 116.761719 7.902344 116.734375 8.039063 C 116.535156 8.753906 116.3125 9.25 115.882813 9.25 C 115.695313 9.25 115.570313 9.144531 115.570313 8.792969 C 115.570313 8.625 115.609375 8.402344 115.648438 8.242188 C 115.6875 8.078125 115.6875 8.039063 115.6875 7.941406 C 115.6875 7.304688 115.070313 7.023438 114.238281 6.914063 C 114.542969 6.738281 114.855469 6.425781 115.082031 6.191406 C 115.550781 5.671875 116 5.25 116.480469 5.25 C 116.535156 5.25 116.546875 5.25 116.566406 5.261719 C 116.683594 5.28125 116.691406 5.28125 116.773438 5.339844 C 116.792969 5.347656 116.792969 5.359375 116.8125 5.378906 C 116.339844 5.40625 116.253906 5.789063 116.253906 5.90625 C 116.253906 6.0625 116.363281 6.25 116.625 6.25 C 116.878906 6.25 117.164063 6.035156 117.164063 5.652344 C 117.164063 5.359375 116.9375 5.035156 116.496094 5.035156 C 116.226563 5.035156 115.773438 5.113281 115.070313 5.898438 C 114.738281 6.269531 114.355469 6.660156 113.984375 6.804688 L 115.003906 2.679688 C 115.003906 2.679688 115.003906 2.574219 114.875 2.574219 C 114.648438 2.574219 113.9375 2.652344 113.679688 2.667969 C 113.601563 2.679688 113.496094 2.691406 113.496094 2.867188 C 113.496094 2.984375 113.582031 2.984375 113.730469 2.984375 C 114.199219 2.984375 114.21875 3.050781 114.21875 3.148438 L 114.191406 3.34375 L 112.773438 8.976563 C 112.734375 9.117188 112.734375 9.132813 112.734375 9.195313 C 112.734375 9.417969 112.929688 9.46875 113.015625 9.46875 C 113.144531 9.46875 113.289063 9.378906 113.351563 9.261719 C 113.398438 9.171875 113.839844 7.363281 113.898438 7.121094 C 114.230469 7.148438 115.03125 7.304688 115.03125 7.953125 C 115.03125 8.019531 115.03125 8.058594 115.003906 8.15625 C 114.984375 8.273438 114.964844 8.390625 114.964844 8.5 C 114.964844 9.074219 115.355469 9.46875 115.863281 9.46875 C 116.15625 9.46875 116.417969 9.3125 116.636719 8.949219 C 116.878906 8.519531 116.988281 7.960938 116.988281 7.960938 Z M 116.988281 7.960938 "/>
<path style=" stroke:none;fill-rule:evenodd;fill:rgb(0%,0%,0%);fill-opacity:1;" d="M 124.046875 7.960938 C 124.046875 7.863281 123.957031 7.863281 123.929688 7.863281 C 123.839844 7.863281 123.820313 7.902344 123.800781 7.96875 C 123.476563 9.015625 122.8125 9.25 122.5 9.25 C 122.121094 9.25 121.964844 8.9375 121.964844 8.605469 C 121.964844 8.390625 122.019531 8.175781 122.128906 7.746094 L 122.460938 6.40625 C 122.519531 6.152344 122.746094 5.25 123.429688 5.25 C 123.476563 5.25 123.714844 5.25 123.917969 5.378906 C 123.644531 5.429688 123.449219 5.671875 123.449219 5.90625 C 123.449219 6.0625 123.558594 6.25 123.820313 6.25 C 124.035156 6.25 124.347656 6.074219 124.347656 5.679688 C 124.347656 5.171875 123.773438 5.035156 123.4375 5.035156 C 122.871094 5.035156 122.53125 5.554688 122.410156 5.78125 C 122.167969 5.132813 121.640625 5.035156 121.355469 5.035156 C 120.339844 5.035156 119.78125 6.296875 119.78125 6.542969 C 119.78125 6.640625 119.898438 6.640625 119.898438 6.640625 C 119.976563 6.640625 120.007813 6.621094 120.027344 6.53125 C 120.359375 5.496094 121.003906 5.25 121.335938 5.25 C 121.523438 5.25 121.863281 5.339844 121.863281 5.90625 C 121.863281 6.210938 121.699219 6.867188 121.335938 8.234375 C 121.179688 8.839844 120.839844 9.25 120.40625 9.25 C 120.347656 9.25 120.125 9.25 119.917969 9.125 C 120.164063 9.074219 120.378906 8.871094 120.378906 8.597656 C 120.378906 8.332031 120.164063 8.253906 120.015625 8.253906 C 119.722656 8.253906 119.476563 8.507813 119.476563 8.820313 C 119.476563 9.273438 119.96875 9.46875 120.398438 9.46875 C 121.042969 9.46875 121.394531 8.78125 121.425781 8.722656 C 121.542969 9.085938 121.894531 9.46875 122.480469 9.46875 C 123.488281 9.46875 124.046875 8.203125 124.046875 7.960938 Z M 124.046875 7.960938 "/>
<path style=" stroke:none;fill-rule:evenodd;fill:rgb(0%,0%,0%);fill-opacity:1;" d="M 127.894531 4.574219 C 127.949219 4.355469 127.976563 4.128906 127.976563 3.917969 C 127.976563 3.777344 127.972656 3.652344 127.9375 3.523438 C 127.867188 3.1875 127.691406 2.914063 127.472656 2.675781 C 127.121094 2.28125 126.621094 1.726563 126.621094 1.410156 C 126.621094 1.375 126.628906 1.339844 126.640625 1.3125 C 126.679688 1.242188 126.734375 1.179688 126.8125 1.144531 C 126.875 1.113281 126.9375 1.109375 127.003906 1.109375 L 127.042969 1.109375 C 127.394531 1.128906 127.625 1.363281 127.9375 1.464844 C 127.957031 1.480469 127.984375 1.480469 128.007813 1.480469 C 128.113281 1.480469 128.226563 1.417969 128.28125 1.3125 C 128.300781 1.269531 128.316406 1.226563 128.316406 1.183594 C 128.316406 1.085938 128.253906 1.011719 128.148438 0.988281 C 127.851563 0.917969 127.484375 0.839844 127.203125 0.839844 C 127.15625 0.839844 127.105469 0.847656 127.058594 0.847656 C 126.945313 0.871094 126.832031 0.898438 126.722656 0.960938 C 126.613281 1.023438 126.53125 1.113281 126.472656 1.226563 C 126.417969 1.332031 126.390625 1.453125 126.390625 1.578125 C 126.390625 1.964844 126.628906 2.410156 126.867188 2.808594 C 126.566406 2.871094 126.269531 3.011719 126.011719 3.222656 C 125.644531 3.511719 125.378906 3.914063 125.273438 4.328125 C 125.234375 4.453125 125.222656 4.578125 125.222656 4.707031 C 125.222656 4.988281 125.308594 5.25 125.46875 5.460938 C 125.695313 5.761719 126.066406 5.929688 126.496094 5.929688 C 127.140625 5.929688 127.71875 5.277344 127.894531 4.574219 Z M 127.359375 4.71875 C 127.234375 5.21875 126.9375 5.734375 126.503906 5.734375 C 126.207031 5.734375 125.960938 5.59375 125.835938 5.351563 C 125.765625 5.21875 125.734375 5.066406 125.734375 4.902344 C 125.734375 4.726563 125.765625 4.546875 125.808594 4.367188 C 125.898438 4.011719 126.046875 3.644531 126.339844 3.363281 C 126.523438 3.183594 126.75 3.046875 126.980469 2.992188 L 127.007813 3.039063 C 127.15625 3.28125 127.304688 3.53125 127.375 3.820313 C 127.410156 3.945313 127.425781 4.082031 127.425781 4.214844 C 127.425781 4.382813 127.402344 4.550781 127.359375 4.71875 Z M 127.359375 4.71875 "/>
</g>
</svg>
