<?xml version="1.0" encoding="UTF-8"?>
<svg xmlns="http://www.w3.org/2000/svg" xmlns:xlink="http://www.w3.org/1999/xlink" width="140pt" height="42pt" viewBox="0 0 140 42" version="1.1">
<g id="surface8">
<path style=" stroke:none;fill-rule:evenodd;fill:rgb(0%,0%,0%);fill-opacity:1;" d="M 6.679688 1.371094 C 6.679688 0.953125 6.347656 0.6875 6.011719 0.6875 C 5.621094 0.6875 5.332031 0.996094 5.332031 1.371094 C 5.332031 1.730469 5.636719 2.035156 5.996094 2.035156 C 6.417969 2.035156 6.679688 1.703125 6.679688 1.371094 Z M 6.679688 1.371094 "/>
<path style=" stroke:none;fill-rule:evenodd;fill:rgb(0%,0%,0%);fill-opacity:1;" d="M 10.980469 12.359375 C 10.980469 12.273438 10.980469 12.148438 10.824219 12.148438 C 10.6875 12.148438 10.6875 12.234375 10.671875 12.375 C 10.601563 13.207031 10.199219 13.582031 9.753906 13.582031 C 9.113281 13.582031 8.976563 12.929688 8.863281 12.191406 L 8.726563 11.148438 C 8.628906 10.453125 8.574219 10.007813 8.15625 9.578125 C 8.003906 9.425781 7.640625 9.046875 6.875 8.839844 C 8.253906 8.519531 9.324219 7.644531 9.324219 6.574219 C 9.324219 5.226563 7.753906 4.070313 5.75 4.070313 L 1.59375 4.070313 L 1.59375 4.472656 L 1.871094 4.472656 C 2.871094 4.472656 2.914063 4.613281 2.914063 5.128906 L 2.914063 12.511719 C 2.914063 13.027344 2.871094 13.164063 1.871094 13.164063 L 1.59375 13.164063 L 1.59375 13.570313 C 1.914063 13.539063 3.050781 13.539063 3.457031 13.539063 C 3.859375 13.539063 5.011719 13.539063 5.332031 13.570313 L 5.332031 13.164063 L 5.054688 13.164063 C 4.050781 13.164063 4.011719 13.027344 4.011719 12.511719 L 4.011719 8.953125 L 5.625 8.953125 C 6.167969 8.953125 6.679688 9.105469 7.058594 9.492188 C 7.527344 10.023438 7.527344 10.3125 7.527344 11.273438 C 7.527344 12.375 7.527344 12.734375 8.140625 13.332031 C 8.351563 13.539063 8.933594 13.859375 9.714844 13.859375 C 10.796875 13.859375 10.980469 12.652344 10.980469 12.359375 Z M 8.03125 6.574219 C 8.03125 7.785156 7.375 8.671875 5.566406 8.671875 L 4.011719 8.671875 L 4.011719 5.03125 C 4.011719 4.710938 4.011719 4.542969 4.300781 4.488281 C 4.429688 4.472656 4.847656 4.472656 5.125 4.472656 C 6.25 4.472656 8.03125 4.472656 8.03125 6.574219 Z M 8.03125 6.574219 "/>
<path style=" stroke:none;fill-rule:evenodd;fill:rgb(0%,0%,0%);fill-opacity:1;" d="M 24.738281 8.8125 C 24.738281 8.546875 24.5 8.546875 24.292969 8.546875 L 16.101563 8.546875 C 15.90625 8.546875 15.65625 8.546875 15.65625 8.796875 C 15.65625 9.0625 15.894531 9.0625 16.101563 9.0625 L 24.292969 9.0625 C 24.488281 9.0625 24.738281 9.0625 24.738281 8.8125 Z M 24.738281 11.398438 C 24.738281 11.132813 24.5 11.132813 24.292969 11.132813 L 16.101563 11.132813 C 15.90625 11.132813 15.65625 11.132813 15.65625 11.386719 C 15.65625 11.648438 15.894531 11.648438 16.101563 11.648438 L 24.292969 11.648438 C 24.488281 11.648438 24.738281 11.648438 24.738281 11.398438 Z M 24.738281 11.398438 "/>
<path style=" stroke:none;fill-rule:evenodd;fill:rgb(0%,0%,0%);fill-opacity:1;" d="M 35.632813 9.117188 C 35.632813 7.964844 35.566406 6.839844 35.066406 5.78125 C 34.496094 4.628906 33.492188 4.320313 32.8125 4.320313 C 32.003906 4.320313 31.015625 4.722656 30.503906 5.878906 C 30.113281 6.753906 29.976563 7.617188 29.976563 9.117188 C 29.976563 10.46875 30.070313 11.484375 30.574219 12.46875 C 31.117188 13.527344 32.074219 13.859375 32.796875 13.859375 C 34.007813 13.859375 34.703125 13.136719 35.105469 12.332031 C 35.605469 11.289063 35.632813 9.925781 35.632813 9.117188 Z M 34.578125 8.953125 C 34.578125 9.882813 34.578125 10.941406 34.425781 11.789063 C 34.160156 13.320313 33.285156 13.582031 32.796875 13.582031 C 32.351563 13.582031 31.449219 13.332031 31.183594 11.816406 C 31.03125 10.980469 31.03125 9.925781 31.03125 8.953125 C 31.03125 7.8125 31.03125 6.785156 31.253906 5.960938 C 31.492188 5.03125 32.199219 4.597656 32.796875 4.597656 C 33.324219 4.597656 34.132813 4.917969 34.394531 6.113281 C 34.578125 6.910156 34.578125 8.007813 34.578125 8.953125 Z M 34.578125 8.953125 "/>
<path style=" stroke:none;fill-rule:evenodd;fill:rgb(0%,0%,0%);fill-opacity:1;" d="M 41.972656 10.09375 C 41.972656 9.6875 41.640625 9.355469 41.234375 9.355469 C 40.832031 9.355469 40.5 9.6875 40.5 10.09375 C 40.5 10.496094 40.832031 10.828125 41.234375 10.828125 C 41.640625 10.828125 41.972656 10.496094 41.972656 10.09375 Z M 41.972656 10.09375 "/>
<path style=" stroke:none;fill-rule:evenodd;fill:rgb(0%,0%,0%);fill-opacity:1;" d="M 56.273438 12.359375 C 56.273438 12.273438 56.273438 12.148438 56.121094 12.148438 C 55.980469 12.148438 55.980469 12.234375 55.96875 12.375 C 55.898438 13.207031 55.492188 13.582031 55.046875 13.582031 C 54.410156 13.582031 54.269531 12.929688 54.160156 12.191406 L 54.019531 11.148438 C 53.925781 10.453125 53.867188 10.007813 53.449219 9.578125 C 53.296875 9.425781 52.9375 9.046875 52.171875 8.839844 C 53.546875 8.519531 54.617188 7.644531 54.617188 6.574219 C 54.617188 5.226563 53.046875 4.070313 51.042969 4.070313 L 46.886719 4.070313 L 46.886719 4.472656 L 47.164063 4.472656 C 48.167969 4.472656 48.207031 4.613281 48.207031 5.128906 L 48.207031 12.511719 C 48.207031 13.027344 48.167969 13.164063 47.164063 13.164063 L 46.886719 13.164063 L 46.886719 13.570313 C 47.207031 13.539063 48.347656 13.539063 48.75 13.539063 C 49.152344 13.539063 50.308594 13.539063 50.628906 13.570313 L 50.628906 13.164063 L 50.347656 13.164063 C 49.347656 13.164063 49.308594 13.027344 49.308594 12.511719 L 49.308594 8.953125 L 50.917969 8.953125 C 51.460938 8.953125 51.976563 9.105469 52.351563 9.492188 C 52.824219 10.023438 52.824219 10.3125 52.824219 11.273438 C 52.824219 12.375 52.824219 12.734375 53.4375 13.332031 C 53.644531 13.539063 54.230469 13.859375 55.007813 13.859375 C 56.09375 13.859375 56.273438 12.652344 56.273438 12.359375 Z M 53.324219 6.574219 C 53.324219 7.785156 52.671875 8.671875 50.863281 8.671875 L 49.308594 8.671875 L 49.308594 5.03125 C 49.308594 4.710938 49.308594 4.542969 49.597656 4.488281 C 49.722656 4.472656 50.140625 4.472656 50.417969 4.472656 C 51.546875 4.472656 53.324219 4.472656 53.324219 6.574219 Z M 53.324219 6.574219 "/>
<path style=" stroke:none;fill-rule:evenodd;fill:rgb(0%,0%,0%);fill-opacity:1;" d="M 79.230469 10.105469 C 79.230469 9.84375 78.996094 9.84375 78.785156 9.84375 L 74.949219 9.84375 L 74.949219 6.003906 C 74.949219 5.808594 74.949219 5.558594 74.699219 5.558594 C 74.433594 5.558594 74.433594 5.796875 74.433594 6.003906 L 74.433594 9.84375 L 70.59375 9.84375 C 70.402344 9.84375 70.152344 9.84375 70.152344 10.09375 C 70.152344 10.355469 70.386719 10.355469 70.59375 10.355469 L 74.433594 10.355469 L 74.433594 14.195313 C 74.433594 14.390625 74.433594 14.640625 74.683594 14.640625 C 74.949219 14.640625 74.949219 14.402344 74.949219 14.195313 L 74.949219 10.355469 L 78.785156 10.355469 C 78.980469 10.355469 79.230469 10.355469 79.230469 10.105469 Z M 79.230469 10.105469 "/>
<path style=" stroke:none;fill-rule:evenodd;fill:rgb(0%,0%,0%);fill-opacity:1;" d="M 87.71875 16.949219 C 87.71875 16.90625 87.71875 16.878906 87.480469 16.640625 C 86.089844 15.238281 85.3125 12.941406 85.3125 10.105469 C 85.3125 7.410156 85.964844 5.085938 87.578125 3.445313 C 87.71875 3.320313 87.71875 3.292969 87.71875 3.25 C 87.71875 3.167969 87.648438 3.140625 87.59375 3.140625 C 87.414063 3.140625 86.273438 4.140625 85.589844 5.503906 C 84.882813 6.910156 84.5625 8.394531 84.5625 10.105469 C 84.5625 11.34375 84.757813 13 85.480469 14.484375 C 86.300781 16.15625 87.441406 17.058594 87.59375 17.058594 C 87.648438 17.058594 87.71875 17.03125 87.71875 16.949219 Z M 87.71875 16.949219 "/>
<path style=" stroke:none;fill-rule:evenodd;fill:rgb(0%,0%,0%);fill-opacity:1;" d="M 98.148438 10.09375 C 98.148438 9.8125 97.882813 9.8125 97.6875 9.8125 L 90.109375 9.8125 C 89.917969 9.8125 89.652344 9.8125 89.652344 10.09375 C 89.652344 10.371094 89.917969 10.371094 90.109375 10.371094 L 97.6875 10.371094 C 97.882813 10.371094 98.148438 10.371094 98.148438 10.09375 Z M 98.148438 10.09375 "/>
<path style=" stroke:none;fill-rule:evenodd;fill:rgb(0%,0%,0%);fill-opacity:1;" d="M 105 13.570313 L 105 13.164063 L 104.566406 13.164063 C 103.34375 13.164063 103.300781 13 103.300781 12.5 L 103.300781 4.65625 C 103.300781 4.335938 103.300781 4.320313 103.023438 4.320313 C 102.691406 4.695313 101.996094 5.210938 100.5625 5.210938 L 100.5625 5.613281 C 100.882813 5.613281 101.578125 5.613281 102.339844 5.253906 L 102.339844 12.5 C 102.339844 13 102.300781 13.164063 101.078125 13.164063 L 100.644531 13.164063 L 100.644531 13.570313 C 101.023438 13.539063 102.371094 13.539063 102.828125 13.539063 C 103.289063 13.539063 104.625 13.539063 105 13.570313 Z M 105 13.570313 "/>
<path style=" stroke:none;fill-rule:evenodd;fill:rgb(0%,0%,0%);fill-opacity:1;" d="M 110.019531 10.105469 C 110.019531 9.046875 109.878906 7.324219 109.101563 5.710938 C 108.277344 4.042969 107.140625 3.140625 106.988281 3.140625 C 106.929688 3.140625 106.863281 3.167969 106.863281 3.25 C 106.863281 3.292969 106.863281 3.320313 107.097656 3.558594 C 108.488281 4.960938 109.265625 7.253906 109.265625 10.09375 C 109.265625 12.789063 108.613281 15.113281 107 16.753906 C 106.863281 16.878906 106.863281 16.90625 106.863281 16.949219 C 106.863281 17.03125 106.929688 17.058594 106.988281 17.058594 C 107.167969 17.058594 108.308594 16.058594 108.988281 14.695313 C 109.699219 13.277344 110.019531 11.773438 110.019531 10.105469 Z M 110.019531 10.105469 "/>
<path style=" stroke:none;fill-rule:evenodd;fill:rgb(0%,0%,0%);fill-opacity:1;" d="M 127.164063 10.09375 C 127.164063 9.6875 126.828125 9.355469 126.425781 9.355469 C 126.023438 9.355469 125.6875 9.6875 125.6875 10.09375 C 125.6875 10.496094 126.023438 10.828125 126.425781 10.828125 C 126.828125 10.828125 127.164063 10.496094 127.164063 10.09375 Z M 127.164063 10.09375 "/>
<path style=" stroke:none;fill-rule:evenodd;fill:rgb(0%,0%,0%);fill-opacity:1;" d="M 137.765625 4.472656 L 137.765625 4.070313 C 137.417969 4.097656 136.417969 4.097656 136.011719 4.097656 C 135.554688 4.097656 134.34375 4.097656 133.96875 4.070313 L 133.96875 4.472656 L 134.398438 4.472656 C 135.636719 4.472656 135.679688 4.640625 135.679688 5.140625 L 135.679688 11.523438 C 135.679688 12.761719 135.027344 13.582031 134.273438 13.582031 C 133.980469 13.582031 133.164063 13.472656 132.746094 12.664063 C 133.164063 12.734375 133.578125 12.484375 133.578125 11.984375 C 133.578125 11.648438 133.355469 11.300781 132.882813 11.300781 C 132.5625 11.300781 132.203125 11.496094 132.203125 12.011719 C 132.203125 13 133.105469 13.859375 134.316406 13.859375 C 135.484375 13.859375 136.777344 13.027344 136.777344 11.496094 L 136.777344 5.085938 C 136.777344 4.542969 136.835938 4.472656 137.765625 4.472656 Z M 137.765625 4.472656 "/>
<path style=" stroke:none;fill-rule:evenodd;fill:rgb(0%,0%,0%);fill-opacity:1;" d="M 8.179688 22.867188 C 8.179688 22.449219 7.847656 22.1875 7.511719 22.1875 C 7.121094 22.1875 6.832031 22.492188 6.832031 22.867188 C 6.832031 23.226563 7.136719 23.535156 7.496094 23.535156 C 7.917969 23.535156 8.179688 23.203125 8.179688 22.867188 Z M 8.179688 22.867188 "/>
<path style=" stroke:none;fill-rule:evenodd;fill:rgb(0%,0%,0%);fill-opacity:1;" d="M 10.277344 25.972656 L 10.277344 25.570313 C 9.933594 25.597656 8.929688 25.597656 8.527344 25.597656 C 8.066406 25.597656 6.859375 25.597656 6.480469 25.570313 L 6.480469 25.972656 L 6.914063 25.972656 C 8.152344 25.972656 8.191406 26.140625 8.191406 26.640625 L 8.191406 33.023438 C 8.191406 34.261719 7.539063 35.082031 6.789063 35.082031 C 6.496094 35.082031 5.675781 34.96875 5.257813 34.160156 C 5.675781 34.230469 6.09375 33.980469 6.09375 33.480469 C 6.09375 33.148438 5.871094 32.800781 5.398438 32.800781 C 5.078125 32.800781 4.714844 32.996094 4.714844 33.507813 C 4.714844 34.496094 5.621094 35.359375 6.832031 35.359375 C 7.996094 35.359375 9.292969 34.523438 9.292969 32.996094 L 9.292969 26.585938 C 9.292969 26.042969 9.347656 25.972656 10.277344 25.972656 Z M 10.277344 25.972656 "/>
<path style=" stroke:none;fill-rule:evenodd;fill:rgb(0%,0%,0%);fill-opacity:1;" d="M 24.738281 30.308594 C 24.738281 30.046875 24.5 30.046875 24.292969 30.046875 L 16.101563 30.046875 C 15.90625 30.046875 15.65625 30.046875 15.65625 30.296875 C 15.65625 30.558594 15.894531 30.558594 16.101563 30.558594 L 24.292969 30.558594 C 24.488281 30.558594 24.738281 30.558594 24.738281 30.308594 Z M 24.738281 32.898438 C 24.738281 32.632813 24.5 32.632813 24.292969 32.632813 L 16.101563 32.632813 C 15.90625 32.632813 15.65625 32.632813 15.65625 32.882813 C 15.65625 33.148438 15.894531 33.148438 16.101563 33.148438 L 24.292969 33.148438 C 24.488281 33.148438 24.738281 33.148438 24.738281 32.898438 Z M 24.738281 32.898438 "/>
<path style=" stroke:none;fill-rule:evenodd;fill:rgb(0%,0%,0%);fill-opacity:1;" d="M 35.105469 35.066406 L 35.105469 34.664063 L 34.675781 34.664063 C 33.449219 34.664063 33.410156 34.496094 33.410156 33.996094 L 33.410156 26.152344 C 33.410156 25.832031 33.410156 25.820313 33.128906 25.820313 C 32.796875 26.195313 32.101563 26.710938 30.671875 26.710938 L 30.671875 27.113281 C 30.992188 27.113281 31.6875 27.113281 32.449219 26.75 L 32.449219 33.996094 C 32.449219 34.496094 32.410156 34.664063 31.183594 34.664063 L 30.753906 34.664063 L 30.753906 35.066406 C 31.128906 35.039063 32.476563 35.039063 32.9375 35.039063 C 33.394531 35.039063 34.730469 35.039063 35.105469 35.066406 Z M 35.105469 35.066406 "/>
<path style=" stroke:none;fill-rule:evenodd;fill:rgb(0%,0%,0%);fill-opacity:1;" d="M 41.972656 31.589844 C 41.972656 31.1875 41.640625 30.851563 41.234375 30.851563 C 40.832031 30.851563 40.5 31.1875 40.5 31.589844 C 40.5 31.992188 40.832031 32.328125 41.234375 32.328125 C 41.640625 32.328125 41.972656 31.992188 41.972656 31.589844 Z M 41.972656 31.589844 "/>
<path style=" stroke:none;fill-rule:evenodd;fill:rgb(0%,0%,0%);fill-opacity:1;" d="M 56.273438 33.855469 C 56.273438 33.773438 56.273438 33.648438 56.121094 33.648438 C 55.980469 33.648438 55.980469 33.730469 55.96875 33.871094 C 55.898438 34.707031 55.492188 35.082031 55.046875 35.082031 C 54.410156 35.082031 54.269531 34.425781 54.160156 33.691406 L 54.019531 32.644531 C 53.925781 31.949219 53.867188 31.503906 53.449219 31.074219 C 53.296875 30.921875 52.9375 30.546875 52.171875 30.339844 C 53.546875 30.019531 54.617188 29.140625 54.617188 28.070313 C 54.617188 26.722656 53.046875 25.570313 51.042969 25.570313 L 46.886719 25.570313 L 46.886719 25.972656 L 47.164063 25.972656 C 48.167969 25.972656 48.207031 26.109375 48.207031 26.625 L 48.207031 34.011719 C 48.207031 34.523438 48.167969 34.664063 47.164063 34.664063 L 46.886719 34.664063 L 46.886719 35.066406 C 47.207031 35.039063 48.347656 35.039063 48.75 35.039063 C 49.152344 35.039063 50.308594 35.039063 50.628906 35.066406 L 50.628906 34.664063 L 50.347656 34.664063 C 49.347656 34.664063 49.308594 34.523438 49.308594 34.011719 L 49.308594 30.449219 L 50.917969 30.449219 C 51.460938 30.449219 51.976563 30.601563 52.351563 30.992188 C 52.824219 31.519531 52.824219 31.8125 52.824219 32.769531 C 52.824219 33.871094 52.824219 34.230469 53.4375 34.832031 C 53.644531 35.039063 54.230469 35.359375 55.007813 35.359375 C 56.09375 35.359375 56.273438 34.148438 56.273438 33.855469 Z M 53.324219 28.070313 C 53.324219 29.28125 52.671875 30.171875 50.863281 30.171875 L 49.308594 30.171875 L 49.308594 26.527344 C 49.308594 26.207031 49.308594 26.042969 49.597656 25.984375 C 49.722656 25.972656 50.140625 25.972656 50.417969 25.972656 C 51.546875 25.972656 53.324219 25.972656 53.324219 28.070313 Z M 53.324219 28.070313 "/>
<path style=" stroke:none;fill-rule:evenodd;fill:rgb(0%,0%,0%);fill-opacity:1;" d="M 79.230469 31.605469 C 79.230469 31.339844 78.996094 31.339844 78.785156 31.339844 L 74.949219 31.339844 L 74.949219 27.5 C 74.949219 27.304688 74.949219 27.054688 74.699219 27.054688 C 74.433594 27.054688 74.433594 27.292969 74.433594 27.5 L 74.433594 31.339844 L 70.59375 31.339844 C 70.402344 31.339844 70.152344 31.339844 70.152344 31.589844 C 70.152344 31.855469 70.386719 31.855469 70.59375 31.855469 L 74.433594 31.855469 L 74.433594 35.691406 C 74.433594 35.886719 74.433594 36.136719 74.683594 36.136719 C 74.949219 36.136719 74.949219 35.902344 74.949219 35.691406 L 74.949219 31.855469 L 78.785156 31.855469 C 78.980469 31.855469 79.230469 31.855469 79.230469 31.605469 Z M 79.230469 31.605469 "/>
<path style=" stroke:none;fill-rule:evenodd;fill:rgb(0%,0%,0%);fill-opacity:1;" d="M 89.429688 30.617188 C 89.429688 29.460938 89.359375 28.335938 88.859375 27.28125 C 88.289063 26.125 87.289063 25.820313 86.605469 25.820313 C 85.796875 25.820313 84.8125 26.222656 84.296875 27.375 C 83.90625 28.253906 83.769531 29.117188 83.769531 30.617188 C 83.769531 31.964844 83.867188 32.980469 84.367188 33.96875 C 84.910156 35.023438 85.867188 35.359375 86.59375 35.359375 C 87.800781 35.359375 88.496094 34.636719 88.898438 33.828125 C 89.402344 32.785156 89.429688 31.421875 89.429688 30.617188 Z M 88.371094 30.449219 C 88.371094 31.378906 88.371094 32.4375 88.21875 33.285156 C 87.953125 34.816406 87.078125 35.082031 86.59375 35.082031 C 86.148438 35.082031 85.242188 34.832031 84.976563 33.316406 C 84.824219 32.480469 84.824219 31.421875 84.824219 30.449219 C 84.824219 29.308594 84.824219 28.28125 85.046875 27.460938 C 85.285156 26.527344 85.992188 26.097656 86.59375 26.097656 C 87.121094 26.097656 87.925781 26.417969 88.191406 27.613281 C 88.371094 28.40625 88.371094 29.503906 88.371094 30.449219 Z M 88.371094 30.449219 "/>
<path style=" stroke:none;fill-rule:evenodd;fill:rgb(0%,0%,0%);fill-opacity:1;" d="M 127.164063 31.589844 C 127.164063 31.1875 126.828125 30.851563 126.425781 30.851563 C 126.023438 30.851563 125.6875 31.1875 125.6875 31.589844 C 125.6875 31.992188 126.023438 32.328125 126.425781 32.328125 C 126.828125 32.328125 127.164063 31.992188 127.164063 31.589844 Z M 127.164063 31.589844 "/>
<path style=" stroke:none;fill-rule:evenodd;fill:rgb(0%,0%,0%);fill-opacity:1;" d="M 137.765625 25.972656 L 137.765625 25.570313 C 137.417969 25.597656 136.417969 25.597656 136.011719 25.597656 C 135.554688 25.597656 134.34375 25.597656 133.96875 25.570313 L 133.96875 25.972656 L 134.398438 25.972656 C 135.636719 25.972656 135.679688 26.140625 135.679688 26.640625 L 135.679688 33.023438 C 135.679688 34.261719 135.027344 35.082031 134.273438 35.082031 C 133.980469 35.082031 133.164063 34.96875 132.746094 34.160156 C 133.164063 34.230469 133.578125 33.980469 133.578125 33.480469 C 133.578125 33.148438 133.355469 32.800781 132.882813 32.800781 C 132.5625 32.800781 132.203125 32.996094 132.203125 33.507813 C 132.203125 34.496094 133.105469 35.359375 134.316406 35.359375 C 135.484375 35.359375 136.777344 34.523438 136.777344 32.996094 L 136.777344 26.585938 C 136.777344 26.042969 136.835938 25.972656 137.765625 25.972656 Z M 137.765625 25.972656 "/>
</g>
</svg>
