<?xml version="1.0" encoding="UTF-8"?>
<svg xmlns="http://www.w3.org/2000/svg" xmlns:xlink="http://www.w3.org/1999/xlink" width="144pt" height="42pt" viewBox="0 0 144 42" version="1.1">
<g id="surface4">
<path style=" stroke:none;fill-rule:evenodd;fill:rgb(0%,0%,0%);fill-opacity:1;" d="M 6.679688 1.371094 C 6.679688 0.953125 6.347656 0.6875 6.011719 0.6875 C 5.625 0.6875 5.332031 0.996094 5.332031 1.371094 C 5.332031 1.730469 5.636719 2.035156 6 2.035156 C 6.417969 2.035156 6.679688 1.703125 6.679688 1.371094 Z M 6.679688 1.371094 "/>
<path style=" stroke:none;fill-rule:evenodd;fill:rgb(0%,0%,0%);fill-opacity:1;" d="M 10.980469 12.359375 C 10.980469 12.273438 10.980469 12.148438 10.828125 12.148438 C 10.6875 12.148438 10.6875 12.234375 10.671875 12.375 C 10.601563 13.207031 10.199219 13.582031 9.753906 13.582031 C 9.117188 13.582031 8.976563 12.929688 8.867188 12.191406 L 8.726563 11.148438 C 8.628906 10.453125 8.574219 10.007813 8.15625 9.578125 C 8.003906 9.425781 7.640625 9.046875 6.875 8.839844 C 8.253906 8.519531 9.324219 7.644531 9.324219 6.574219 C 9.324219 5.226563 7.753906 4.070313 5.75 4.070313 L 1.59375 4.070313 L 1.59375 4.472656 L 1.871094 4.472656 C 2.871094 4.472656 2.914063 4.613281 2.914063 5.128906 L 2.914063 12.511719 C 2.914063 13.027344 2.871094 13.164063 1.871094 13.164063 L 1.59375 13.164063 L 1.59375 13.570313 C 1.914063 13.539063 3.050781 13.539063 3.457031 13.539063 C 3.859375 13.539063 5.011719 13.539063 5.332031 13.570313 L 5.332031 13.164063 L 5.054688 13.164063 C 4.054688 13.164063 4.011719 13.027344 4.011719 12.511719 L 4.011719 8.953125 L 5.625 8.953125 C 6.167969 8.953125 6.679688 9.105469 7.058594 9.492188 C 7.53125 10.023438 7.53125 10.3125 7.53125 11.273438 C 7.53125 12.375 7.53125 12.734375 8.140625 13.332031 C 8.351563 13.539063 8.933594 13.859375 9.714844 13.859375 C 10.796875 13.859375 10.980469 12.652344 10.980469 12.359375 Z M 8.03125 6.574219 C 8.03125 7.785156 7.375 8.671875 5.570313 8.671875 L 4.011719 8.671875 L 4.011719 5.03125 C 4.011719 4.710938 4.011719 4.542969 4.304688 4.488281 C 4.429688 4.472656 4.847656 4.472656 5.125 4.472656 C 6.253906 4.472656 8.03125 4.472656 8.03125 6.574219 Z M 8.03125 6.574219 "/>
<path style=" stroke:none;fill-rule:evenodd;fill:rgb(0%,0%,0%);fill-opacity:1;" d="M 24.738281 8.8125 C 24.738281 8.546875 24.5 8.546875 24.292969 8.546875 L 16.101563 8.546875 C 15.910156 8.546875 15.660156 8.546875 15.660156 8.796875 C 15.660156 9.0625 15.894531 9.0625 16.101563 9.0625 L 24.292969 9.0625 C 24.488281 9.0625 24.738281 9.0625 24.738281 8.8125 Z M 24.738281 11.398438 C 24.738281 11.132813 24.5 11.132813 24.292969 11.132813 L 16.101563 11.132813 C 15.910156 11.132813 15.660156 11.132813 15.660156 11.386719 C 15.660156 11.648438 15.894531 11.648438 16.101563 11.648438 L 24.292969 11.648438 C 24.488281 11.648438 24.738281 11.648438 24.738281 11.398438 Z M 24.738281 11.398438 "/>
<path style=" stroke:none;fill-rule:evenodd;fill:rgb(0%,0%,0%);fill-opacity:1;" d="M 41.429688 8.269531 C 41.429688 7.824219 41 7.4375 40.304688 7.4375 C 39.746094 7.4375 39.105469 7.6875 38.523438 8.535156 C 38.425781 7.796875 37.867188 7.4375 37.3125 7.4375 C 36.769531 7.4375 36.492188 7.855469 36.324219 8.160156 C 36.089844 8.660156 35.878906 9.492188 35.878906 9.5625 C 35.878906 9.617188 35.9375 9.6875 36.03125 9.6875 C 36.144531 9.6875 36.15625 9.675781 36.242188 9.355469 C 36.449219 8.519531 36.714844 7.714844 37.269531 7.714844 C 37.605469 7.714844 37.703125 7.949219 37.703125 8.351563 C 37.703125 8.660156 37.5625 9.203125 37.464844 9.632813 L 37.078125 11.132813 L 36.796875 12.273438 C 36.699219 12.636719 36.546875 13.289063 36.546875 13.359375 C 36.546875 13.554688 36.699219 13.707031 36.910156 13.707031 C 37.0625 13.707031 37.328125 13.609375 37.410156 13.332031 C 37.453125 13.21875 37.964844 11.121094 38.050781 10.800781 C 38.117188 10.496094 38.203125 10.203125 38.273438 9.898438 L 38.425781 9.300781 C 38.46875 9.171875 38.84375 8.492188 39.191406 8.1875 C 39.355469 8.035156 39.71875 7.714844 40.289063 7.714844 C 40.511719 7.714844 40.734375 7.757813 40.914063 7.882813 C 40.484375 7.964844 40.261719 8.269531 40.261719 8.578125 C 40.261719 8.910156 40.523438 9.023438 40.71875 9.023438 C 41.109375 9.023438 41.429688 8.6875 41.429688 8.269531 Z M 41.429688 8.269531 "/>
<path style=" stroke:none;fill-rule:evenodd;fill:rgb(0%,0%,0%);fill-opacity:1;" d="M 44.121094 15.566406 L 44.121094 15.265625 C 43.472656 15.265625 43.433594 15.214844 43.433594 14.835938 L 43.433594 11.246094 L 42.066406 11.351563 L 42.066406 11.65625 C 42.703125 11.65625 42.789063 11.714844 42.789063 12.195313 L 42.789063 14.824219 C 42.789063 15.265625 42.683594 15.265625 42.027344 15.265625 L 42.027344 15.566406 L 43.101563 15.539063 C 43.445313 15.539063 43.785156 15.558594 44.121094 15.566406 Z M 43.582031 9.660156 C 43.582031 9.398438 43.355469 9.140625 43.0625 9.140625 C 42.730469 9.140625 42.535156 9.417969 42.535156 9.660156 C 42.535156 9.925781 42.761719 10.179688 43.054688 10.179688 C 43.386719 10.179688 43.582031 9.90625 43.582031 9.660156 Z M 43.582031 9.660156 "/>
<path style=" stroke:none;fill-rule:evenodd;fill:rgb(0%,0%,0%);fill-opacity:1;" d="M 49.636719 15.566406 L 49.636719 15.265625 C 49.128906 15.265625 48.882813 15.265625 48.875 14.972656 L 48.875 13.105469 C 48.875 12.261719 48.875 11.960938 48.570313 11.609375 C 48.433594 11.441406 48.109375 11.246094 47.542969 11.246094 C 46.828125 11.246094 46.371094 11.664063 46.097656 12.273438 L 46.097656 11.246094 L 44.714844 11.351563 L 44.714844 11.65625 C 45.402344 11.65625 45.480469 11.726563 45.480469 12.203125 L 45.480469 14.824219 C 45.480469 15.265625 45.371094 15.265625 44.714844 15.265625 L 44.714844 15.566406 L 45.824219 15.539063 L 46.917969 15.566406 L 46.917969 15.265625 C 46.261719 15.265625 46.152344 15.265625 46.152344 14.824219 L 46.152344 13.023438 C 46.152344 12.007813 46.847656 11.460938 47.476563 11.460938 C 48.089844 11.460938 48.199219 11.988281 48.199219 12.546875 L 48.199219 14.824219 C 48.199219 15.265625 48.089844 15.265625 47.4375 15.265625 L 47.4375 15.566406 L 48.542969 15.539063 Z M 49.636719 15.566406 "/>
<path style=" stroke:none;fill-rule:evenodd;fill:rgb(0%,0%,0%);fill-opacity:1;" d="M 52.75 14.355469 L 52.75 13.796875 L 52.507813 13.796875 L 52.507813 14.335938 C 52.507813 15.058594 52.210938 15.429688 51.851563 15.429688 C 51.195313 15.429688 51.195313 14.542969 51.195313 14.375 L 51.195313 11.65625 L 52.59375 11.65625 L 52.59375 11.351563 L 51.195313 11.351563 L 51.195313 9.554688 L 50.949219 9.554688 C 50.941406 10.355469 50.648438 11.402344 49.6875 11.441406 L 49.6875 11.65625 L 50.519531 11.65625 L 50.519531 14.355469 C 50.519531 15.558594 51.429688 15.675781 51.78125 15.675781 C 52.476563 15.675781 52.75 14.980469 52.75 14.355469 Z M 52.75 14.355469 "/>
<path style=" stroke:none;fill-rule:evenodd;fill:rgb(0%,0%,0%);fill-opacity:1;" d="M 59.574219 10.09375 C 59.574219 9.6875 59.238281 9.355469 58.835938 9.355469 C 58.433594 9.355469 58.097656 9.6875 58.097656 10.09375 C 58.097656 10.496094 58.433594 10.828125 58.835938 10.828125 C 59.238281 10.828125 59.574219 10.496094 59.574219 10.09375 Z M 59.574219 10.09375 "/>
<path style=" stroke:none;fill-rule:evenodd;fill:rgb(0%,0%,0%);fill-opacity:1;" d="M 73.871094 12.359375 C 73.871094 12.273438 73.871094 12.148438 73.71875 12.148438 C 73.582031 12.148438 73.582031 12.234375 73.566406 12.375 C 73.496094 13.207031 73.09375 13.582031 72.648438 13.582031 C 72.007813 13.582031 71.871094 12.929688 71.757813 12.191406 L 71.621094 11.148438 C 71.523438 10.453125 71.464844 10.007813 71.050781 9.578125 C 70.898438 9.425781 70.535156 9.046875 69.769531 8.839844 C 71.148438 8.519531 72.21875 7.644531 72.21875 6.574219 C 72.21875 5.226563 70.648438 4.070313 68.644531 4.070313 L 64.484375 4.070313 L 64.484375 4.472656 L 64.765625 4.472656 C 65.765625 4.472656 65.804688 4.613281 65.804688 5.128906 L 65.804688 12.511719 C 65.804688 13.027344 65.765625 13.164063 64.765625 13.164063 L 64.484375 13.164063 L 64.484375 13.570313 C 64.804688 13.539063 65.945313 13.539063 66.351563 13.539063 C 66.753906 13.539063 67.90625 13.539063 68.226563 13.570313 L 68.226563 13.164063 L 67.949219 13.164063 C 66.945313 13.164063 66.90625 13.027344 66.90625 12.511719 L 66.90625 8.953125 L 68.519531 8.953125 C 69.0625 8.953125 69.574219 9.105469 69.953125 9.492188 C 70.421875 10.023438 70.421875 10.3125 70.421875 11.273438 C 70.421875 12.375 70.421875 12.734375 71.035156 13.332031 C 71.246094 13.539063 71.828125 13.859375 72.605469 13.859375 C 73.691406 13.859375 73.871094 12.652344 73.871094 12.359375 Z M 70.925781 6.574219 C 70.925781 7.785156 70.269531 8.671875 68.460938 8.671875 L 66.90625 8.671875 L 66.90625 5.03125 C 66.90625 4.710938 66.90625 4.542969 67.195313 4.488281 C 67.324219 4.472656 67.742188 4.472656 68.019531 4.472656 C 69.144531 4.472656 70.925781 4.472656 70.925781 6.574219 Z M 70.925781 6.574219 "/>
<path style=" stroke:none;fill-rule:evenodd;fill:rgb(0%,0%,0%);fill-opacity:1;" d="M 94.832031 10.105469 C 94.832031 9.84375 94.59375 9.84375 94.386719 9.84375 L 90.546875 9.84375 L 90.546875 6.003906 C 90.546875 5.808594 90.546875 5.558594 90.296875 5.558594 C 90.035156 5.558594 90.035156 5.796875 90.035156 6.003906 L 90.035156 9.84375 L 86.195313 9.84375 C 86 9.84375 85.75 9.84375 85.75 10.09375 C 85.75 10.355469 85.988281 10.355469 86.195313 10.355469 L 90.035156 10.355469 L 90.035156 14.195313 C 90.035156 14.390625 90.035156 14.640625 90.285156 14.640625 C 90.546875 14.640625 90.546875 14.402344 90.546875 14.195313 L 90.546875 10.355469 L 94.386719 10.355469 C 94.582031 10.355469 94.832031 10.355469 94.832031 10.105469 Z M 94.832031 10.105469 "/>
<path style=" stroke:none;fill-rule:evenodd;fill:rgb(0%,0%,0%);fill-opacity:1;" d="M 111.523438 8.269531 C 111.523438 7.824219 111.089844 7.4375 110.394531 7.4375 C 109.839844 7.4375 109.199219 7.6875 108.613281 8.535156 C 108.515625 7.796875 107.960938 7.4375 107.40625 7.4375 C 106.863281 7.4375 106.585938 7.855469 106.417969 8.160156 C 106.179688 8.660156 105.972656 9.492188 105.972656 9.5625 C 105.972656 9.617188 106.027344 9.6875 106.125 9.6875 C 106.238281 9.6875 106.25 9.675781 106.335938 9.355469 C 106.542969 8.519531 106.804688 7.714844 107.363281 7.714844 C 107.695313 7.714844 107.792969 7.949219 107.792969 8.351563 C 107.792969 8.660156 107.65625 9.203125 107.558594 9.632813 L 107.167969 11.132813 L 106.890625 12.273438 C 106.792969 12.636719 106.640625 13.289063 106.640625 13.359375 C 106.640625 13.554688 106.792969 13.707031 107.003906 13.707031 C 107.15625 13.707031 107.417969 13.609375 107.503906 13.332031 C 107.542969 13.21875 108.058594 11.121094 108.140625 10.800781 C 108.210938 10.496094 108.296875 10.203125 108.363281 9.898438 L 108.515625 9.300781 C 108.558594 9.171875 108.933594 8.492188 109.28125 8.1875 C 109.449219 8.035156 109.8125 7.714844 110.382813 7.714844 C 110.601563 7.714844 110.828125 7.757813 111.007813 7.882813 C 110.574219 7.964844 110.351563 8.269531 110.351563 8.578125 C 110.351563 8.910156 110.617188 9.023438 110.8125 9.023438 C 111.203125 9.023438 111.523438 8.6875 111.523438 8.269531 Z M 111.523438 8.269531 "/>
<path style=" stroke:none;fill-rule:evenodd;fill:rgb(0%,0%,0%);fill-opacity:1;" d="M 115.855469 14.40625 C 115.855469 14.304688 115.777344 14.289063 115.726563 14.289063 C 115.640625 14.289063 115.621094 14.347656 115.601563 14.425781 C 115.257813 15.429688 114.378906 15.429688 114.28125 15.429688 C 113.792969 15.429688 113.402344 15.136719 113.175781 14.777344 C 112.882813 14.304688 112.882813 13.660156 112.882813 13.308594 L 115.609375 13.308594 C 115.828125 13.308594 115.855469 13.308594 115.855469 13.105469 C 115.855469 12.136719 115.328125 11.1875 114.105469 11.1875 C 112.96875 11.1875 112.070313 12.195313 112.070313 13.417969 C 112.070313 14.726563 113.097656 15.675781 114.222656 15.675781 C 115.414063 15.675781 115.855469 14.589844 115.855469 14.40625 Z M 115.210938 13.105469 L 112.890625 13.105469 C 112.953125 11.648438 113.773438 11.402344 114.105469 11.402344 C 115.113281 11.402344 115.210938 12.722656 115.210938 13.105469 Z M 115.210938 13.105469 "/>
<path style=" stroke:none;fill-rule:evenodd;fill:rgb(0%,0%,0%);fill-opacity:1;" d="M 121.144531 15.566406 L 121.144531 15.265625 C 120.613281 15.265625 120.4375 15.246094 120.210938 14.960938 L 118.902344 13.269531 C 119.195313 12.898438 119.566406 12.417969 119.800781 12.164063 C 120.105469 11.8125 120.507813 11.664063 120.964844 11.65625 L 120.964844 11.351563 C 120.710938 11.375 120.417969 11.382813 120.164063 11.382813 C 119.871094 11.382813 119.355469 11.363281 119.226563 11.351563 L 119.226563 11.65625 C 119.433594 11.675781 119.511719 11.804688 119.511719 11.960938 C 119.511719 12.117188 119.410156 12.242188 119.363281 12.300781 L 118.757813 13.0625 L 117.992188 12.078125 C 117.90625 11.980469 117.90625 11.960938 117.90625 11.902344 C 117.90625 11.753906 118.050781 11.664063 118.25 11.65625 L 118.25 11.351563 L 117.191406 11.382813 C 116.988281 11.382813 116.527344 11.375 116.261719 11.351563 L 116.261719 11.65625 C 116.949219 11.65625 116.957031 11.664063 117.417969 12.253906 L 118.386719 13.515625 C 117.925781 14.101563 117.925781 14.121094 117.464844 14.679688 C 116.996094 15.246094 116.417969 15.265625 116.214844 15.265625 L 116.214844 15.566406 C 116.46875 15.546875 116.769531 15.539063 117.027344 15.539063 L 117.953125 15.566406 L 117.953125 15.265625 C 117.738281 15.234375 117.671875 15.109375 117.671875 14.960938 C 117.671875 14.746094 117.953125 14.425781 118.550781 13.71875 L 119.292969 14.699219 C 119.371094 14.804688 119.5 14.960938 119.5 15.019531 C 119.5 15.109375 119.410156 15.253906 119.148438 15.265625 L 119.148438 15.566406 L 120.203125 15.539063 C 120.46875 15.539063 120.847656 15.546875 121.144531 15.566406 Z M 121.144531 15.566406 "/>
<path style=" stroke:none;fill-rule:evenodd;fill:rgb(0%,0%,0%);fill-opacity:1;" d="M 124.542969 14.355469 L 124.542969 13.796875 L 124.296875 13.796875 L 124.296875 14.335938 C 124.296875 15.058594 124.003906 15.429688 123.640625 15.429688 C 122.988281 15.429688 122.988281 14.542969 122.988281 14.375 L 122.988281 11.65625 L 124.386719 11.65625 L 124.386719 11.351563 L 122.988281 11.351563 L 122.988281 9.554688 L 122.742188 9.554688 C 122.734375 10.355469 122.441406 11.402344 121.480469 11.441406 L 121.480469 11.65625 L 122.3125 11.65625 L 122.3125 14.355469 C 122.3125 15.558594 123.222656 15.675781 123.574219 15.675781 C 124.269531 15.675781 124.542969 14.980469 124.542969 14.355469 Z M 124.542969 14.355469 "/>
<path style=" stroke:none;fill-rule:evenodd;fill:rgb(0%,0%,0%);fill-opacity:1;" d="M 131.363281 10.09375 C 131.363281 9.6875 131.03125 9.355469 130.628906 9.355469 C 130.226563 9.355469 129.890625 9.6875 129.890625 10.09375 C 129.890625 10.496094 130.226563 10.828125 130.628906 10.828125 C 131.03125 10.828125 131.363281 10.496094 131.363281 10.09375 Z M 131.363281 10.09375 "/>
<path style=" stroke:none;fill-rule:evenodd;fill:rgb(0%,0%,0%);fill-opacity:1;" d="M 141.867188 4.472656 L 141.867188 4.070313 C 141.519531 4.097656 140.515625 4.097656 140.113281 4.097656 C 139.65625 4.097656 138.445313 4.097656 138.070313 4.070313 L 138.070313 4.472656 L 138.5 4.472656 C 139.738281 4.472656 139.78125 4.640625 139.78125 5.140625 L 139.78125 11.523438 C 139.78125 12.761719 139.125 13.582031 138.375 13.582031 C 138.082031 13.582031 137.261719 13.472656 136.847656 12.664063 C 137.261719 12.734375 137.679688 12.484375 137.679688 11.984375 C 137.679688 11.648438 137.457031 11.300781 136.984375 11.300781 C 136.664063 11.300781 136.304688 11.496094 136.304688 12.011719 C 136.304688 13 137.207031 13.859375 138.417969 13.859375 C 139.585938 13.859375 140.878906 13.027344 140.878906 11.496094 L 140.878906 5.085938 C 140.878906 4.542969 140.933594 4.472656 141.867188 4.472656 Z M 141.867188 4.472656 "/>
<path style=" stroke:none;fill-rule:evenodd;fill:rgb(0%,0%,0%);fill-opacity:1;" d="M 8.179688 22.867188 C 8.179688 22.449219 7.847656 22.1875 7.511719 22.1875 C 7.125 22.1875 6.832031 22.492188 6.832031 22.867188 C 6.832031 23.226563 7.136719 23.535156 7.5 23.535156 C 7.917969 23.535156 8.179688 23.203125 8.179688 22.867188 Z M 8.179688 22.867188 "/>
<path style=" stroke:none;fill-rule:evenodd;fill:rgb(0%,0%,0%);fill-opacity:1;" d="M 10.28125 25.972656 L 10.28125 25.570313 C 9.933594 25.597656 8.929688 25.597656 8.527344 25.597656 C 8.070313 25.597656 6.859375 25.597656 6.484375 25.570313 L 6.484375 25.972656 L 6.914063 25.972656 C 8.152344 25.972656 8.195313 26.140625 8.195313 26.640625 L 8.195313 33.023438 C 8.195313 34.261719 7.539063 35.082031 6.789063 35.082031 C 6.496094 35.082031 5.675781 34.96875 5.261719 34.160156 C 5.675781 34.230469 6.09375 33.980469 6.09375 33.480469 C 6.09375 33.148438 5.871094 32.800781 5.398438 32.800781 C 5.078125 32.800781 4.71875 32.996094 4.71875 33.507813 C 4.71875 34.496094 5.621094 35.359375 6.832031 35.359375 C 8 35.359375 9.292969 34.523438 9.292969 32.996094 L 9.292969 26.585938 C 9.292969 26.042969 9.347656 25.972656 10.28125 25.972656 Z M 10.28125 25.972656 "/>
<path style=" stroke:none;fill-rule:evenodd;fill:rgb(0%,0%,0%);fill-opacity:1;" d="M 24.738281 30.308594 C 24.738281 30.046875 24.5 30.046875 24.292969 30.046875 L 16.101563 30.046875 C 15.910156 30.046875 15.660156 30.046875 15.660156 30.296875 C 15.660156 30.558594 15.894531 30.558594 16.101563 30.558594 L 24.292969 30.558594 C 24.488281 30.558594 24.738281 30.558594 24.738281 30.308594 Z M 24.738281 32.898438 C 24.738281 32.632813 24.5 32.632813 24.292969 32.632813 L 16.101563 32.632813 C 15.910156 32.632813 15.660156 32.632813 15.660156 32.882813 C 15.660156 33.148438 15.894531 33.148438 16.101563 33.148438 L 24.292969 33.148438 C 24.488281 33.148438 24.738281 33.148438 24.738281 32.898438 Z M 24.738281 32.898438 "/>
<path style=" stroke:none;fill-rule:evenodd;fill:rgb(0%,0%,0%);fill-opacity:1;" d="M 40.371094 30.660156 C 40.429688 30.433594 40.429688 30.238281 40.429688 30.183594 C 40.429688 29.378906 39.828125 28.933594 39.203125 28.933594 C 37.800781 28.933594 37.046875 30.964844 37.046875 31.0625 C 37.046875 31.128906 37.105469 31.1875 37.1875 31.1875 C 37.296875 31.1875 37.3125 31.128906 37.382813 30.992188 C 37.9375 29.644531 38.632813 29.210938 39.164063 29.210938 C 39.453125 29.210938 39.609375 29.363281 39.609375 29.851563 C 39.609375 30.183594 39.566406 30.324219 39.507813 30.574219 L 38.1875 35.816406 C 37.925781 36.84375 37.269531 37.625 36.507813 37.625 C 36.449219 37.625 36.15625 37.625 35.894531 37.484375 C 36.226563 37.414063 36.492188 37.152344 36.492188 36.816406 C 36.492188 36.597656 36.324219 36.375 36.019531 36.375 C 35.65625 36.375 35.324219 36.679688 35.324219 37.09375 C 35.324219 37.664063 35.9375 37.902344 36.507813 37.902344 C 37.464844 37.902344 38.730469 37.195313 39.078125 35.804688 Z M 40.941406 26.390625 C 40.941406 26.042969 40.648438 25.929688 40.484375 25.929688 C 40.109375 25.929688 39.789063 26.292969 39.789063 26.597656 C 39.789063 26.804688 39.953125 27.054688 40.261719 27.054688 C 40.582031 27.054688 40.941406 26.75 40.941406 26.390625 Z M 40.941406 26.390625 "/>
<path style=" stroke:none;fill-rule:evenodd;fill:rgb(0%,0%,0%);fill-opacity:1;" d="M 45.261719 36.003906 C 45.261719 35.902344 45.183594 35.886719 45.136719 35.886719 C 45.046875 35.886719 45.027344 35.945313 45.007813 36.023438 C 44.667969 37.027344 43.785156 37.027344 43.6875 37.027344 C 43.199219 37.027344 42.808594 36.734375 42.585938 36.375 C 42.289063 35.902344 42.289063 35.257813 42.289063 34.90625 L 45.019531 34.90625 C 45.234375 34.90625 45.261719 34.90625 45.261719 34.703125 C 45.261719 33.734375 44.734375 32.785156 43.511719 32.785156 C 42.378906 32.785156 41.476563 33.792969 41.476563 35.015625 C 41.476563 36.324219 42.507813 37.273438 43.628906 37.273438 C 44.824219 37.273438 45.261719 36.1875 45.261719 36.003906 Z M 44.617188 34.703125 L 42.300781 34.703125 C 42.359375 33.246094 43.179688 33 43.511719 33 C 44.519531 33 44.617188 34.320313 44.617188 34.703125 Z M 44.617188 34.703125 "/>
<path style=" stroke:none;fill-rule:evenodd;fill:rgb(0%,0%,0%);fill-opacity:1;" d="M 50.550781 37.164063 L 50.550781 36.863281 C 50.023438 36.863281 49.847656 36.84375 49.621094 36.558594 L 48.3125 34.867188 C 48.605469 34.496094 48.976563 34.015625 49.210938 33.761719 C 49.515625 33.410156 49.914063 33.261719 50.375 33.253906 L 50.375 32.949219 C 50.121094 32.972656 49.828125 32.980469 49.574219 32.980469 C 49.277344 32.980469 48.761719 32.960938 48.632813 32.949219 L 48.632813 33.253906 C 48.839844 33.273438 48.917969 33.402344 48.917969 33.558594 C 48.917969 33.714844 48.820313 33.839844 48.769531 33.898438 L 48.164063 34.660156 L 47.402344 33.675781 C 47.3125 33.578125 47.3125 33.558594 47.3125 33.5 C 47.3125 33.351563 47.460938 33.261719 47.65625 33.253906 L 47.65625 32.949219 L 46.597656 32.980469 C 46.394531 32.980469 45.933594 32.972656 45.667969 32.949219 L 45.667969 33.253906 C 46.355469 33.253906 46.363281 33.261719 46.824219 33.851563 L 47.792969 35.113281 C 47.332031 35.699219 47.332031 35.71875 46.871094 36.277344 C 46.402344 36.84375 45.828125 36.863281 45.621094 36.863281 L 45.621094 37.164063 C 45.875 37.144531 46.179688 37.136719 46.433594 37.136719 L 47.363281 37.164063 L 47.363281 36.863281 C 47.148438 36.832031 47.078125 36.707031 47.078125 36.558594 C 47.078125 36.34375 47.363281 36.023438 47.957031 35.316406 L 48.703125 36.296875 C 48.78125 36.402344 48.90625 36.558594 48.90625 36.617188 C 48.90625 36.707031 48.820313 36.851563 48.554688 36.863281 L 48.554688 37.164063 L 49.613281 37.136719 C 49.875 37.136719 50.257813 37.144531 50.550781 37.164063 Z M 50.550781 37.164063 "/>
<path style=" stroke:none;fill-rule:evenodd;fill:rgb(0%,0%,0%);fill-opacity:1;" d="M 53.851563 35.953125 L 53.851563 35.394531 L 53.605469 35.394531 L 53.605469 35.933594 C 53.605469 36.65625 53.3125 37.027344 52.949219 37.027344 C 52.296875 37.027344 52.296875 36.140625 52.296875 35.972656 L 52.296875 33.253906 L 53.695313 33.253906 L 53.695313 32.949219 L 52.296875 32.949219 L 52.296875 31.152344 L 52.050781 31.152344 C 52.039063 31.953125 51.746094 33 50.789063 33.039063 L 50.789063 33.253906 L 51.621094 33.253906 L 51.621094 35.953125 C 51.621094 37.15625 52.53125 37.273438 52.882813 37.273438 C 53.578125 37.273438 53.851563 36.578125 53.851563 35.953125 Z M 53.851563 35.953125 "/>
<path style=" stroke:none;fill-rule:evenodd;fill:rgb(0%,0%,0%);fill-opacity:1;" d="M 60.671875 31.589844 C 60.671875 31.1875 60.339844 30.851563 59.933594 30.851563 C 59.53125 30.851563 59.199219 31.1875 59.199219 31.589844 C 59.199219 31.992188 59.53125 32.328125 59.933594 32.328125 C 60.339844 32.328125 60.671875 31.992188 60.671875 31.589844 Z M 60.671875 31.589844 "/>
<path style=" stroke:none;fill-rule:evenodd;fill:rgb(0%,0%,0%);fill-opacity:1;" d="M 74.972656 33.855469 C 74.972656 33.773438 74.972656 33.648438 74.820313 33.648438 C 74.679688 33.648438 74.679688 33.730469 74.667969 33.871094 C 74.597656 34.707031 74.191406 35.082031 73.746094 35.082031 C 73.109375 35.082031 72.96875 34.425781 72.859375 33.691406 L 72.71875 32.644531 C 72.621094 31.949219 72.566406 31.503906 72.148438 31.074219 C 71.996094 30.921875 71.636719 30.546875 70.871094 30.339844 C 72.246094 30.019531 73.316406 29.140625 73.316406 28.070313 C 73.316406 26.722656 71.746094 25.570313 69.742188 25.570313 L 65.585938 25.570313 L 65.585938 25.972656 L 65.863281 25.972656 C 66.867188 25.972656 66.90625 26.109375 66.90625 26.625 L 66.90625 34.011719 C 66.90625 34.523438 66.867188 34.664063 65.863281 34.664063 L 65.585938 34.664063 L 65.585938 35.066406 C 65.90625 35.039063 67.046875 35.039063 67.449219 35.039063 C 67.851563 35.039063 69.007813 35.039063 69.328125 35.066406 L 69.328125 34.664063 L 69.046875 34.664063 C 68.046875 34.664063 68.007813 34.523438 68.007813 34.011719 L 68.007813 30.449219 L 69.617188 30.449219 C 70.160156 30.449219 70.675781 30.601563 71.050781 30.992188 C 71.523438 31.519531 71.523438 31.8125 71.523438 32.769531 C 71.523438 33.871094 71.523438 34.230469 72.136719 34.832031 C 72.34375 35.039063 72.925781 35.359375 73.707031 35.359375 C 74.792969 35.359375 74.972656 34.148438 74.972656 33.855469 Z M 72.023438 28.070313 C 72.023438 29.28125 71.371094 30.171875 69.5625 30.171875 L 68.007813 30.171875 L 68.007813 26.527344 C 68.007813 26.207031 68.007813 26.042969 68.296875 25.984375 C 68.421875 25.972656 68.839844 25.972656 69.117188 25.972656 C 70.246094 25.972656 72.023438 25.972656 72.023438 28.070313 Z M 72.023438 28.070313 "/>
<path style=" stroke:none;fill-rule:evenodd;fill:rgb(0%,0%,0%);fill-opacity:1;" d="M 94.832031 31.605469 C 94.832031 31.339844 94.59375 31.339844 94.386719 31.339844 L 90.546875 31.339844 L 90.546875 27.5 C 90.546875 27.304688 90.546875 27.054688 90.296875 27.054688 C 90.035156 27.054688 90.035156 27.292969 90.035156 27.5 L 90.035156 31.339844 L 86.195313 31.339844 C 86 31.339844 85.75 31.339844 85.75 31.589844 C 85.75 31.855469 85.988281 31.855469 86.195313 31.855469 L 90.035156 31.855469 L 90.035156 35.691406 C 90.035156 35.886719 90.035156 36.136719 90.285156 36.136719 C 90.546875 36.136719 90.546875 35.902344 90.546875 35.691406 L 90.546875 31.855469 L 94.386719 31.855469 C 94.582031 31.855469 94.832031 31.855469 94.832031 31.605469 Z M 94.832031 31.605469 "/>
<path style=" stroke:none;fill-rule:evenodd;fill:rgb(0%,0%,0%);fill-opacity:1;" d="M 110.464844 30.660156 C 110.519531 30.433594 110.519531 30.238281 110.519531 30.183594 C 110.519531 29.378906 109.921875 28.933594 109.296875 28.933594 C 107.890625 28.933594 107.140625 30.964844 107.140625 31.0625 C 107.140625 31.128906 107.199219 31.1875 107.28125 31.1875 C 107.390625 31.1875 107.40625 31.128906 107.476563 30.992188 C 108.03125 29.644531 108.726563 29.210938 109.253906 29.210938 C 109.546875 29.210938 109.699219 29.363281 109.699219 29.851563 C 109.699219 30.183594 109.65625 30.324219 109.601563 30.574219 L 108.28125 35.816406 C 108.015625 36.84375 107.363281 37.625 106.597656 37.625 C 106.542969 37.625 106.25 37.625 105.988281 37.484375 C 106.320313 37.414063 106.585938 37.152344 106.585938 36.816406 C 106.585938 36.597656 106.417969 36.375 106.113281 36.375 C 105.75 36.375 105.417969 36.679688 105.417969 37.09375 C 105.417969 37.664063 106.027344 37.902344 106.597656 37.902344 C 107.558594 37.902344 108.824219 37.195313 109.171875 35.804688 Z M 111.035156 26.390625 C 111.035156 26.042969 110.742188 25.929688 110.574219 25.929688 C 110.199219 25.929688 109.878906 26.292969 109.878906 26.597656 C 109.878906 26.804688 110.046875 27.054688 110.351563 27.054688 C 110.675781 27.054688 111.035156 26.75 111.035156 26.390625 Z M 111.035156 26.390625 "/>
<path style=" stroke:none;fill-rule:evenodd;fill:rgb(0%,0%,0%);fill-opacity:1;" d="M 113.710938 37.164063 L 113.710938 36.863281 C 113.066406 36.863281 113.027344 36.8125 113.027344 36.433594 L 113.027344 32.84375 L 111.660156 32.949219 L 111.660156 33.253906 C 112.292969 33.253906 112.382813 33.3125 112.382813 33.792969 L 112.382813 36.421875 C 112.382813 36.863281 112.273438 36.863281 111.621094 36.863281 L 111.621094 37.164063 L 112.695313 37.136719 C 113.039063 37.136719 113.378906 37.15625 113.710938 37.164063 Z M 113.175781 31.257813 C 113.175781 30.996094 112.949219 30.738281 112.65625 30.738281 C 112.324219 30.738281 112.128906 31.015625 112.128906 31.257813 C 112.128906 31.523438 112.351563 31.777344 112.648438 31.777344 C 112.980469 31.777344 113.175781 31.503906 113.175781 31.257813 Z M 113.175781 31.257813 "/>
<path style=" stroke:none;fill-rule:evenodd;fill:rgb(0%,0%,0%);fill-opacity:1;" d="M 119.230469 37.164063 L 119.230469 36.863281 C 118.71875 36.863281 118.476563 36.863281 118.464844 36.570313 L 118.464844 34.703125 C 118.464844 33.859375 118.464844 33.558594 118.164063 33.207031 C 118.027344 33.039063 117.703125 32.84375 117.136719 32.84375 C 116.421875 32.84375 115.960938 33.261719 115.6875 33.871094 L 115.6875 32.84375 L 114.308594 32.949219 L 114.308594 33.253906 C 114.992188 33.253906 115.074219 33.324219 115.074219 33.800781 L 115.074219 36.421875 C 115.074219 36.863281 114.964844 36.863281 114.308594 36.863281 L 114.308594 37.164063 L 115.414063 37.136719 L 116.511719 37.164063 L 116.511719 36.863281 C 115.855469 36.863281 115.746094 36.863281 115.746094 36.421875 L 115.746094 34.621094 C 115.746094 33.605469 116.441406 33.058594 117.066406 33.058594 C 117.683594 33.058594 117.792969 33.585938 117.792969 34.144531 L 117.792969 36.421875 C 117.792969 36.863281 117.683594 36.863281 117.027344 36.863281 L 117.027344 37.164063 L 118.132813 37.136719 Z M 119.230469 37.164063 "/>
<path style=" stroke:none;fill-rule:evenodd;fill:rgb(0%,0%,0%);fill-opacity:1;" d="M 122.34375 35.953125 L 122.34375 35.394531 L 122.097656 35.394531 L 122.097656 35.933594 C 122.097656 36.65625 121.804688 37.027344 121.441406 37.027344 C 120.789063 37.027344 120.789063 36.140625 120.789063 35.972656 L 120.789063 33.253906 L 122.1875 33.253906 L 122.1875 32.949219 L 120.789063 32.949219 L 120.789063 31.152344 L 120.542969 31.152344 C 120.535156 31.953125 120.238281 33 119.28125 33.039063 L 119.28125 33.253906 L 120.113281 33.253906 L 120.113281 35.953125 C 120.113281 37.15625 121.023438 37.273438 121.375 37.273438 C 122.070313 37.273438 122.34375 36.578125 122.34375 35.953125 Z M 122.34375 35.953125 "/>
<path style=" stroke:none;fill-rule:evenodd;fill:rgb(0%,0%,0%);fill-opacity:1;" d="M 129.164063 31.589844 C 129.164063 31.1875 128.832031 30.851563 128.429688 30.851563 C 128.023438 30.851563 127.691406 31.1875 127.691406 31.589844 C 127.691406 31.992188 128.023438 32.328125 128.429688 32.328125 C 128.832031 32.328125 129.164063 31.992188 129.164063 31.589844 Z M 129.164063 31.589844 "/>
<path style=" stroke:none;fill-rule:evenodd;fill:rgb(0%,0%,0%);fill-opacity:1;" d="M 139.765625 25.972656 L 139.765625 25.570313 C 139.417969 25.597656 138.417969 25.597656 138.015625 25.597656 C 137.554688 25.597656 136.347656 25.597656 135.96875 25.570313 L 135.96875 25.972656 L 136.398438 25.972656 C 137.636719 25.972656 137.679688 26.140625 137.679688 26.640625 L 137.679688 33.023438 C 137.679688 34.261719 137.027344 35.082031 136.273438 35.082031 C 135.984375 35.082031 135.164063 34.96875 134.746094 34.160156 C 135.164063 34.230469 135.582031 33.980469 135.582031 33.480469 C 135.582031 33.148438 135.359375 32.800781 134.886719 32.800781 C 134.5625 32.800781 134.203125 32.996094 134.203125 33.507813 C 134.203125 34.496094 135.105469 35.359375 136.316406 35.359375 C 137.484375 35.359375 138.777344 34.523438 138.777344 32.996094 L 138.777344 26.585938 C 138.777344 26.042969 138.835938 25.972656 139.765625 25.972656 Z M 139.765625 25.972656 "/>
</g>
</svg>
