<svg width="34" height="34" xmlns="http://www.w3.org/2000/svg" xmlns:xlink="http://www.w3.org/1999/xlink" overflow="hidden"><defs><clipPath id="clip0"><rect x="280" y="332" width="34" height="34"/></clipPath></defs><g clip-path="url(#clip0)" transform="translate(-280 -332)"><path d="M299.833 335.896C299.833 337.461 298.565 338.729 297 338.729 295.435 338.729 294.167 337.461 294.167 335.896 294.167 334.331 295.435 333.062 297 333.062 298.565 333.062 299.833 334.331 299.833 335.896Z" fill="#040469"/><path d="M304.721 350.487 302.737 342.058C302.667 341.775 302.525 341.492 302.312 341.279 301.462 340.571 300.471 340.075 299.337 339.721 298.558 339.579 297.779 339.438 297 339.438 296.221 339.438 295.442 339.579 294.663 339.792 293.529 340.075 292.538 340.642 291.688 341.35 291.475 341.562 291.333 341.846 291.263 342.129L289.279 350.558C289.279 350.629 289.208 350.771 289.208 350.913 289.208 351.692 289.846 352.329 290.625 352.329 291.263 352.329 291.829 351.833 291.971 351.267L293.458 345.104 293.458 364.938 296.292 364.938 296.292 352.188 297.708 352.188 297.708 364.938 300.542 364.938 300.542 345.033 302.029 351.196C302.171 351.763 302.737 352.258 303.375 352.258 304.154 352.258 304.792 351.621 304.792 350.842 304.792 350.7 304.721 350.558 304.721 350.487Z" fill="#040469"/></g></svg>