<svg width="34" height="34" xmlns="http://www.w3.org/2000/svg" xmlns:xlink="http://www.w3.org/1999/xlink" overflow="hidden"><defs><clipPath id="clip0"><rect x="280" y="332" width="34" height="34"/></clipPath></defs><g clip-path="url(#clip0)" transform="translate(-280 -332)"><path d="M299.869 335.896C299.869 337.461 298.6 338.729 297.035 338.729 295.471 338.729 294.202 337.461 294.202 335.896 294.202 334.331 295.471 333.062 297.035 333.062 298.6 333.062 299.869 334.331 299.869 335.896Z" fill="#FF6666"/><path d="M304.756 350.346 302.206 341.562C302.135 341.208 301.923 340.925 301.64 340.783 300.79 340.217 299.798 339.862 298.665 339.579 298.098 339.508 297.602 339.438 297.035 339.438 296.469 339.438 295.973 339.508 295.406 339.579 294.273 339.792 293.281 340.217 292.431 340.783 292.148 340.996 291.935 341.208 291.865 341.562L289.244 350.346C289.031 351.125 289.456 351.904 290.235 352.117 290.377 352.188 290.519 352.188 290.66 352.188 291.298 352.188 291.865 351.763 292.006 351.196L294.202 343.758 294.202 346.237 291.581 355.021 293.494 355.021 293.494 364.938 296.327 364.938 296.327 355.021 297.744 355.021 297.744 364.938 300.577 364.938 300.577 355.021 302.49 355.021 299.869 346.237 299.869 343.758 302.065 351.196C302.277 351.833 302.844 352.188 303.41 352.188 303.552 352.188 303.694 352.188 303.835 352.117 304.544 351.904 304.969 351.125 304.756 350.346Z" fill="#FF6666"/></g></svg>