<?xml version="1.0" encoding="UTF-8"?>
<svg xmlns="http://www.w3.org/2000/svg" xmlns:xlink="http://www.w3.org/1999/xlink" width="228pt" height="19pt" viewBox="0 0 228 19" version="1.1">
<g id="surface48">
<path style=" stroke:none;fill-rule:evenodd;fill:rgb(0%,0%,0%);fill-opacity:1;" d="M 7.605469 7.589844 C 7.621094 7.519531 7.648438 7.4375 7.648438 7.351563 C 7.648438 7.144531 7.480469 7.003906 7.273438 7.003906 C 7.148438 7.003906 6.855469 7.058594 6.742188 7.476563 L 5.714844 11.566406 C 5.644531 11.816406 5.644531 11.84375 5.535156 11.996094 C 5.257813 12.386719 4.796875 12.859375 4.128906 12.859375 C 3.351563 12.859375 3.28125 12.09375 3.28125 11.71875 C 3.28125 10.925781 3.65625 9.855469 4.03125 8.855469 C 4.183594 8.453125 4.269531 8.257813 4.269531 7.980469 C 4.269531 7.394531 3.851563 6.867188 3.167969 6.867188 C 1.890625 6.867188 1.375 8.882813 1.375 8.996094 C 1.375 9.050781 1.429688 9.121094 1.527344 9.121094 C 1.652344 9.121094 1.667969 9.0625 1.722656 8.871094 C 2.054688 7.703125 2.585938 7.144531 3.128906 7.144531 C 3.253906 7.144531 3.488281 7.144531 3.488281 7.605469 C 3.488281 7.964844 3.335938 8.367188 3.128906 8.898438 C 2.445313 10.71875 2.445313 11.175781 2.445313 11.511719 C 2.445313 12.832031 3.390625 13.136719 4.085938 13.136719 C 4.492188 13.136719 4.992188 13.011719 5.476563 12.5 L 5.492188 12.511719 C 5.28125 13.332031 5.144531 13.875 4.65625 14.558594 C 4.28125 15.085938 3.738281 15.558594 3.058594 15.558594 C 2.890625 15.558594 2.222656 15.53125 2.015625 14.890625 C 2.054688 14.902344 2.15625 14.902344 2.15625 14.902344 C 2.570313 14.902344 2.851563 14.542969 2.851563 14.222656 C 2.851563 13.902344 2.585938 13.792969 2.375 13.792969 C 2.15625 13.792969 1.667969 13.957031 1.667969 14.640625 C 1.667969 15.347656 2.265625 15.835938 3.058594 15.835938 C 4.449219 15.835938 5.851563 14.558594 6.242188 13.011719 Z M 7.605469 7.589844 "/>
<path style=" stroke:none;fill-rule:evenodd;fill:rgb(0%,0%,0%);fill-opacity:1;" d="M 21.832031 8.242188 C 21.832031 7.980469 21.59375 7.980469 21.386719 7.980469 L 13.195313 7.980469 C 13 7.980469 12.75 7.980469 12.75 8.230469 C 12.75 8.492188 12.988281 8.492188 13.195313 8.492188 L 21.386719 8.492188 C 21.582031 8.492188 21.832031 8.492188 21.832031 8.242188 Z M 21.832031 10.832031 C 21.832031 10.566406 21.59375 10.566406 21.386719 10.566406 L 13.195313 10.566406 C 13 10.566406 12.75 10.566406 12.75 10.816406 C 12.75 11.082031 12.988281 11.082031 13.195313 11.082031 L 21.386719 11.082031 C 21.582031 11.082031 21.832031 11.082031 21.832031 10.832031 Z M 21.832031 10.832031 "/>
<path style=" stroke:none;fill-rule:evenodd;fill:rgb(0%,0%,0%);fill-opacity:1;" d="M 30.6875 11.34375 C 30.617188 11.582031 30.617188 11.609375 30.421875 11.871094 C 30.117188 12.261719 29.503906 12.859375 28.851563 12.859375 C 28.28125 12.859375 27.960938 12.347656 27.960938 11.527344 C 27.960938 10.761719 28.390625 9.203125 28.65625 8.617188 C 29.128906 7.644531 29.78125 7.144531 30.324219 7.144531 C 31.242188 7.144531 31.421875 8.285156 31.421875 8.398438 C 31.421875 8.398438 31.382813 8.589844 31.367188 8.617188 Z M 33.246094 11.011719 C 33.246094 10.941406 33.1875 10.886719 33.105469 10.886719 C 32.980469 10.886719 32.96875 10.957031 32.910156 11.164063 C 32.703125 11.984375 32.4375 12.859375 31.867188 12.859375 C 31.464844 12.859375 31.4375 12.5 31.4375 12.222656 C 31.4375 11.902344 31.476563 11.746094 31.605469 11.207031 L 31.882813 10.148438 C 32.398438 8.0625 32.523438 7.5625 32.523438 7.476563 C 32.523438 7.285156 32.367188 7.128906 32.160156 7.128906 C 31.714844 7.128906 31.605469 7.617188 31.578125 7.785156 C 31.421875 7.421875 31.046875 6.867188 30.324219 6.867188 C 28.753906 6.867188 27.054688 8.898438 27.054688 10.957031 C 27.054688 12.332031 27.863281 13.136719 28.808594 13.136719 C 29.574219 13.136719 30.226563 12.539063 30.617188 12.082031 C 30.757813 12.902344 31.410156 13.136719 31.828125 13.136719 C 32.242188 13.136719 32.578125 12.886719 32.828125 12.386719 C 33.050781 11.914063 33.246094 11.066406 33.246094 11.011719 Z M 33.246094 11.011719 "/>
<path style=" stroke:none;fill-rule:evenodd;fill:rgb(0%,0%,0%);fill-opacity:1;" d="M 38.199219 11.96875 C 38.199219 11.1875 38.148438 10.402344 37.808594 9.679688 C 37.359375 8.742188 36.554688 8.585938 36.144531 8.585938 C 35.558594 8.585938 34.84375 8.839844 34.445313 9.75 C 34.128906 10.425781 34.082031 11.1875 34.082031 11.96875 C 34.082031 12.703125 34.121094 13.582031 34.523438 14.324219 C 34.941406 15.121094 35.65625 15.316406 36.136719 15.316406 C 36.664063 15.316406 37.40625 15.109375 37.835938 14.179688 C 38.148438 13.503906 38.199219 12.742188 38.199219 11.96875 Z M 37.386719 11.851563 C 37.386719 12.585938 37.386719 13.25 37.28125 13.878906 C 37.132813 14.804688 36.574219 15.097656 36.136719 15.097656 C 35.753906 15.097656 35.175781 14.855469 35 13.917969 C 34.894531 13.328125 34.894531 12.429688 34.894531 11.851563 C 34.894531 11.226563 34.894531 10.582031 34.972656 10.050781 C 35.15625 8.890625 35.890625 8.800781 36.136719 8.800781 C 36.457031 8.800781 37.101563 8.976563 37.289063 9.945313 C 37.386719 10.492188 37.386719 11.234375 37.386719 11.851563 Z M 37.386719 11.851563 "/>
<path style=" stroke:none;fill-rule:evenodd;fill:rgb(0%,0%,0%);fill-opacity:1;" d="M 52.03125 9.535156 C 52.03125 9.273438 51.796875 9.273438 51.585938 9.273438 L 47.75 9.273438 L 47.75 5.433594 C 47.75 5.238281 47.75 4.988281 47.5 4.988281 C 47.234375 4.988281 47.234375 5.226563 47.234375 5.433594 L 47.234375 9.273438 L 43.394531 9.273438 C 43.203125 9.273438 42.953125 9.273438 42.953125 9.523438 C 42.953125 9.785156 43.1875 9.785156 43.394531 9.785156 L 47.234375 9.785156 L 47.234375 13.625 C 47.234375 13.820313 47.234375 14.070313 47.484375 14.070313 C 47.75 14.070313 47.75 13.832031 47.75 13.625 L 47.75 9.785156 L 51.585938 9.785156 C 51.78125 9.785156 52.03125 9.785156 52.03125 9.535156 Z M 52.03125 9.535156 "/>
<path style=" stroke:none;fill-rule:evenodd;fill:rgb(0%,0%,0%);fill-opacity:1;" d="M 60.085938 11.34375 C 60.015625 11.582031 60.015625 11.609375 59.820313 11.871094 C 59.515625 12.261719 58.90625 12.859375 58.25 12.859375 C 57.679688 12.859375 57.359375 12.347656 57.359375 11.527344 C 57.359375 10.761719 57.789063 9.203125 58.054688 8.617188 C 58.527344 7.644531 59.183594 7.144531 59.726563 7.144531 C 60.640625 7.144531 60.824219 8.285156 60.824219 8.398438 C 60.824219 8.398438 60.78125 8.589844 60.765625 8.617188 Z M 62.644531 11.011719 C 62.644531 10.941406 62.589844 10.886719 62.507813 10.886719 C 62.382813 10.886719 62.367188 10.957031 62.3125 11.164063 C 62.101563 11.984375 61.839844 12.859375 61.269531 12.859375 C 60.867188 12.859375 60.835938 12.5 60.835938 12.222656 C 60.835938 11.902344 60.878906 11.746094 61.003906 11.207031 L 61.28125 10.148438 C 61.796875 8.0625 61.921875 7.5625 61.921875 7.476563 C 61.921875 7.285156 61.769531 7.128906 61.5625 7.128906 C 61.117188 7.128906 61.003906 7.617188 60.976563 7.785156 C 60.824219 7.421875 60.445313 6.867188 59.726563 6.867188 C 58.152344 6.867188 56.457031 8.898438 56.457031 10.957031 C 56.457031 12.332031 57.261719 13.136719 58.210938 13.136719 C 58.972656 13.136719 59.625 12.539063 60.015625 12.082031 C 60.15625 12.902344 60.808594 13.136719 61.226563 13.136719 C 61.644531 13.136719 61.976563 12.886719 62.226563 12.386719 C 62.449219 11.914063 62.644531 11.066406 62.644531 11.011719 Z M 62.644531 11.011719 "/>
<path style=" stroke:none;fill-rule:evenodd;fill:rgb(0%,0%,0%);fill-opacity:1;" d="M 67.199219 15.097656 L 67.199219 14.796875 L 66.886719 14.796875 C 66.003906 14.796875 65.976563 14.6875 65.976563 14.324219 L 65.976563 8.839844 C 65.976563 8.605469 65.976563 8.585938 65.75 8.585938 C 65.144531 9.210938 64.28125 9.210938 63.96875 9.210938 L 63.96875 9.515625 C 64.164063 9.515625 64.742188 9.515625 65.25 9.261719 L 65.25 14.324219 C 65.25 14.679688 65.222656 14.796875 64.34375 14.796875 L 64.03125 14.796875 L 64.03125 15.097656 C 64.371094 15.070313 65.222656 15.070313 65.613281 15.070313 C 66.003906 15.070313 66.855469 15.070313 67.199219 15.097656 Z M 67.199219 15.097656 "/>
<path style=" stroke:none;fill-rule:evenodd;fill:rgb(0%,0%,0%);fill-opacity:1;" d="M 74.167969 9.523438 C 74.167969 9.121094 73.835938 8.785156 73.433594 8.785156 C 73.03125 8.785156 72.695313 9.121094 72.695313 9.523438 C 72.695313 9.925781 73.03125 10.261719 73.433594 10.261719 C 73.835938 10.261719 74.167969 9.925781 74.167969 9.523438 Z M 74.167969 9.523438 "/>
<path style=" stroke:none;fill-rule:evenodd;fill:rgb(0%,0%,0%);fill-opacity:1;" d="M 85.84375 11.011719 C 85.84375 10.941406 85.785156 10.886719 85.703125 10.886719 C 85.578125 10.886719 85.566406 10.957031 85.507813 11.164063 C 85.257813 12.121094 85.007813 12.859375 84.449219 12.859375 C 84.035156 12.859375 84.035156 12.402344 84.035156 12.222656 C 84.035156 11.902344 84.074219 11.761719 84.214844 11.175781 L 84.492188 10.035156 L 85.0625 7.769531 C 85.160156 7.421875 85.160156 7.394531 85.160156 7.351563 C 85.160156 7.144531 84.996094 7.003906 84.785156 7.003906 C 84.382813 7.003906 84.285156 7.351563 84.199219 7.703125 L 83.214844 11.71875 C 83.214844 11.71875 82.65625 12.859375 81.644531 12.859375 C 80.917969 12.859375 80.78125 12.234375 80.78125 11.71875 C 80.78125 10.925781 81.167969 9.816406 81.53125 8.882813 C 81.699219 8.4375 81.769531 8.257813 81.769531 7.980469 C 81.769531 7.378906 81.335938 6.867188 80.667969 6.867188 C 79.390625 6.867188 78.875 8.882813 78.875 8.996094 C 78.875 9.050781 78.929688 9.121094 79.027344 9.121094 C 79.152344 9.121094 79.167969 9.0625 79.222656 8.871094 C 79.554688 7.671875 80.097656 7.144531 80.628906 7.144531 C 80.765625 7.144531 80.988281 7.160156 80.988281 7.605469 C 80.988281 7.964844 80.835938 8.367188 80.628906 8.898438 C 80.015625 10.550781 79.945313 11.082031 79.945313 11.496094 C 79.945313 12.917969 81.015625 13.136719 81.585938 13.136719 C 82.476563 13.136719 82.964844 12.527344 83.242188 12.191406 C 83.421875 12.972656 84.089844 13.136719 84.425781 13.136719 C 84.867188 13.136719 85.203125 12.847656 85.425781 12.371094 C 85.660156 11.871094 85.84375 11.050781 85.84375 11.011719 Z M 85.84375 11.011719 "/>
<path style=" stroke:none;fill-rule:evenodd;fill:rgb(0%,0%,0%);fill-opacity:1;" d="M 99.230469 9.535156 C 99.230469 9.273438 98.996094 9.273438 98.785156 9.273438 L 94.949219 9.273438 L 94.949219 5.433594 C 94.949219 5.238281 94.949219 4.988281 94.699219 4.988281 C 94.433594 4.988281 94.433594 5.226563 94.433594 5.433594 L 94.433594 9.273438 L 90.59375 9.273438 C 90.402344 9.273438 90.152344 9.273438 90.152344 9.523438 C 90.152344 9.785156 90.386719 9.785156 90.59375 9.785156 L 94.433594 9.785156 L 94.433594 13.625 C 94.433594 13.820313 94.433594 14.070313 94.683594 14.070313 C 94.949219 14.070313 94.949219 13.832031 94.949219 13.625 L 94.949219 9.785156 L 98.785156 9.785156 C 98.980469 9.785156 99.230469 9.785156 99.230469 9.535156 Z M 99.230469 9.535156 "/>
<path style=" stroke:none;fill-rule:evenodd;fill:rgb(0%,0%,0%);fill-opacity:1;" d="M 107.285156 11.34375 C 107.214844 11.582031 107.214844 11.609375 107.019531 11.871094 C 106.714844 12.261719 106.105469 12.859375 105.449219 12.859375 C 104.878906 12.859375 104.558594 12.347656 104.558594 11.527344 C 104.558594 10.761719 104.992188 9.203125 105.253906 8.617188 C 105.726563 7.644531 106.382813 7.144531 106.925781 7.144531 C 107.839844 7.144531 108.023438 8.285156 108.023438 8.398438 C 108.023438 8.398438 107.980469 8.589844 107.964844 8.617188 Z M 109.84375 11.011719 C 109.84375 10.941406 109.789063 10.886719 109.707031 10.886719 C 109.582031 10.886719 109.566406 10.957031 109.511719 11.164063 C 109.300781 11.984375 109.039063 12.859375 108.46875 12.859375 C 108.066406 12.859375 108.039063 12.5 108.039063 12.222656 C 108.039063 11.902344 108.078125 11.746094 108.203125 11.207031 L 108.484375 10.148438 C 108.996094 8.0625 109.121094 7.5625 109.121094 7.476563 C 109.121094 7.285156 108.96875 7.128906 108.761719 7.128906 C 108.316406 7.128906 108.203125 7.617188 108.175781 7.785156 C 108.023438 7.421875 107.644531 6.867188 106.925781 6.867188 C 105.351563 6.867188 103.65625 8.898438 103.65625 10.957031 C 103.65625 12.332031 104.460938 13.136719 105.410156 13.136719 C 106.171875 13.136719 106.828125 12.539063 107.214844 12.082031 C 107.355469 12.902344 108.007813 13.136719 108.425781 13.136719 C 108.84375 13.136719 109.175781 12.886719 109.425781 12.386719 C 109.648438 11.914063 109.84375 11.066406 109.84375 11.011719 Z M 109.84375 11.011719 "/>
<path style=" stroke:none;fill-rule:evenodd;fill:rgb(0%,0%,0%);fill-opacity:1;" d="M 114.691406 13.398438 L 114.445313 13.398438 C 114.398438 13.691406 114.328125 14.121094 114.230469 14.269531 C 114.164063 14.347656 113.515625 14.347656 113.300781 14.347656 L 111.542969 14.347656 L 112.578125 13.339844 C 114.105469 11.988281 114.691406 11.460938 114.691406 10.480469 C 114.691406 9.367188 113.808594 8.585938 112.617188 8.585938 C 111.511719 8.585938 110.789063 9.484375 110.789063 10.355469 C 110.789063 10.902344 111.277344 10.902344 111.308594 10.902344 C 111.472656 10.902344 111.816406 10.785156 111.816406 10.386719 C 111.816406 10.128906 111.640625 9.875 111.296875 9.875 C 111.21875 9.875 111.199219 9.875 111.167969 9.886719 C 111.394531 9.25 111.921875 8.890625 112.492188 8.890625 C 113.378906 8.890625 113.800781 9.679688 113.800781 10.480469 C 113.800781 11.265625 113.3125 12.039063 112.773438 12.644531 L 110.894531 14.738281 C 110.789063 14.84375 110.789063 14.863281 110.789063 15.097656 L 114.417969 15.097656 Z M 114.691406 13.398438 "/>
<path style=" stroke:none;fill-rule:evenodd;fill:rgb(0%,0%,0%);fill-opacity:1;" d="M 121.46875 9.523438 C 121.46875 9.121094 121.136719 8.785156 120.730469 8.785156 C 120.328125 8.785156 119.996094 9.121094 119.996094 9.523438 C 119.996094 9.925781 120.328125 10.261719 120.730469 10.261719 C 121.136719 10.261719 121.46875 9.925781 121.46875 9.523438 Z M 121.46875 9.523438 "/>
<path style=" stroke:none;fill-rule:evenodd;fill:rgb(0%,0%,0%);fill-opacity:1;" d="M 133.042969 11.011719 C 133.042969 10.941406 132.988281 10.886719 132.90625 10.886719 C 132.777344 10.886719 132.765625 10.957031 132.707031 11.164063 C 132.457031 12.121094 132.207031 12.859375 131.652344 12.859375 C 131.234375 12.859375 131.234375 12.402344 131.234375 12.222656 C 131.234375 11.902344 131.277344 11.761719 131.414063 11.175781 L 131.691406 10.035156 L 132.261719 7.769531 C 132.359375 7.421875 132.359375 7.394531 132.359375 7.351563 C 132.359375 7.144531 132.195313 7.003906 131.984375 7.003906 C 131.582031 7.003906 131.484375 7.351563 131.402344 7.703125 L 130.414063 11.71875 C 130.414063 11.71875 129.855469 12.859375 128.84375 12.859375 C 128.121094 12.859375 127.980469 12.234375 127.980469 11.71875 C 127.980469 10.925781 128.371094 9.816406 128.730469 8.882813 C 128.898438 8.4375 128.96875 8.257813 128.96875 7.980469 C 128.96875 7.378906 128.539063 6.867188 127.867188 6.867188 C 126.589844 6.867188 126.074219 8.882813 126.074219 8.996094 C 126.074219 9.050781 126.128906 9.121094 126.226563 9.121094 C 126.351563 9.121094 126.367188 9.0625 126.421875 8.871094 C 126.753906 7.671875 127.300781 7.144531 127.828125 7.144531 C 127.964844 7.144531 128.1875 7.160156 128.1875 7.605469 C 128.1875 7.964844 128.035156 8.367188 127.828125 8.898438 C 127.214844 10.550781 127.144531 11.082031 127.144531 11.496094 C 127.144531 12.917969 128.214844 13.136719 128.789063 13.136719 C 129.675781 13.136719 130.164063 12.527344 130.441406 12.191406 C 130.621094 12.972656 131.289063 13.136719 131.625 13.136719 C 132.066406 13.136719 132.402344 12.847656 132.625 12.371094 C 132.863281 11.871094 133.042969 11.050781 133.042969 11.011719 Z M 133.042969 11.011719 "/>
<path style=" stroke:none;fill-rule:evenodd;fill:rgb(0%,0%,0%);fill-opacity:1;" d="M 137.890625 5.496094 L 137.644531 5.496094 C 137.597656 5.792969 137.527344 6.222656 137.429688 6.367188 C 137.363281 6.445313 136.714844 6.445313 136.503906 6.445313 L 134.742188 6.445313 L 135.78125 5.4375 C 137.304688 4.089844 137.890625 3.558594 137.890625 2.582031 C 137.890625 1.46875 137.011719 0.683594 135.816406 0.683594 C 134.710938 0.683594 133.988281 1.585938 133.988281 2.457031 C 133.988281 3.003906 134.476563 3.003906 134.507813 3.003906 C 134.671875 3.003906 135.015625 2.886719 135.015625 2.484375 C 135.015625 2.230469 134.839844 1.976563 134.496094 1.976563 C 134.417969 1.976563 134.398438 1.976563 134.371094 1.988281 C 134.59375 1.351563 135.121094 0.988281 135.691406 0.988281 C 136.582031 0.988281 137 1.78125 137 2.582031 C 137 3.363281 136.511719 4.140625 135.972656 4.746094 L 134.097656 6.835938 C 133.988281 6.945313 133.988281 6.964844 133.988281 7.199219 L 137.617188 7.199219 Z M 137.890625 5.496094 "/>
<path style=" stroke:none;fill-rule:evenodd;fill:rgb(0%,0%,0%);fill-opacity:1;" d="M 151.832031 9.535156 C 151.832031 9.273438 151.59375 9.273438 151.386719 9.273438 L 147.546875 9.273438 L 147.546875 5.433594 C 147.546875 5.238281 147.546875 4.988281 147.296875 4.988281 C 147.035156 4.988281 147.035156 5.226563 147.035156 5.433594 L 147.035156 9.273438 L 143.195313 9.273438 C 143 9.273438 142.75 9.273438 142.75 9.523438 C 142.75 9.785156 142.988281 9.785156 143.195313 9.785156 L 147.035156 9.785156 L 147.035156 13.625 C 147.035156 13.820313 147.035156 14.070313 147.285156 14.070313 C 147.546875 14.070313 147.546875 13.832031 147.546875 13.625 L 147.546875 9.785156 L 151.386719 9.785156 C 151.582031 9.785156 151.832031 9.785156 151.832031 9.535156 Z M 151.832031 9.535156 "/>
<path style=" stroke:none;fill-rule:evenodd;fill:rgb(0%,0%,0%);fill-opacity:1;" d="M 158.257813 12.332031 C 158.257813 11.929688 157.925781 11.652344 157.589844 11.652344 C 157.1875 11.652344 156.90625 11.984375 156.90625 12.316406 C 156.90625 12.722656 157.242188 13 157.578125 13 C 157.980469 13 158.257813 12.664063 158.257813 12.332031 Z M 158.257813 12.332031 "/>
<path style=" stroke:none;fill-rule:evenodd;fill:rgb(0%,0%,0%);fill-opacity:1;" d="M 164.359375 12.332031 C 164.359375 11.929688 164.023438 11.652344 163.691406 11.652344 C 163.289063 11.652344 163.007813 11.984375 163.007813 12.316406 C 163.007813 12.722656 163.34375 13 163.675781 13 C 164.082031 13 164.359375 12.664063 164.359375 12.332031 Z M 164.359375 12.332031 "/>
<path style=" stroke:none;fill-rule:evenodd;fill:rgb(0%,0%,0%);fill-opacity:1;" d="M 170.457031 12.332031 C 170.457031 11.929688 170.125 11.652344 169.789063 11.652344 C 169.386719 11.652344 169.109375 11.984375 169.109375 12.316406 C 169.109375 12.722656 169.441406 13 169.777344 13 C 170.179688 13 170.457031 12.664063 170.457031 12.332031 Z M 170.457031 12.332031 "/>
<path style=" stroke:none;fill-rule:evenodd;fill:rgb(0%,0%,0%);fill-opacity:1;" d="M 184.632813 9.535156 C 184.632813 9.273438 184.394531 9.273438 184.1875 9.273438 L 180.347656 9.273438 L 180.347656 5.433594 C 180.347656 5.238281 180.347656 4.988281 180.097656 4.988281 C 179.832031 4.988281 179.832031 5.226563 179.832031 5.433594 L 179.832031 9.273438 L 175.992188 9.273438 C 175.800781 9.273438 175.550781 9.273438 175.550781 9.523438 C 175.550781 9.785156 175.785156 9.785156 175.992188 9.785156 L 179.832031 9.785156 L 179.832031 13.625 C 179.832031 13.820313 179.832031 14.070313 180.082031 14.070313 C 180.347656 14.070313 180.347656 13.832031 180.347656 13.625 L 180.347656 9.785156 L 184.1875 9.785156 C 184.382813 9.785156 184.632813 9.785156 184.632813 9.535156 Z M 184.632813 9.535156 "/>
<path style=" stroke:none;fill-rule:evenodd;fill:rgb(0%,0%,0%);fill-opacity:1;" d="M 192.785156 11.34375 C 192.714844 11.582031 192.714844 11.609375 192.519531 11.871094 C 192.214844 12.261719 191.605469 12.859375 190.949219 12.859375 C 190.378906 12.859375 190.058594 12.347656 190.058594 11.527344 C 190.058594 10.761719 190.488281 9.203125 190.753906 8.617188 C 191.226563 7.644531 191.882813 7.144531 192.425781 7.144531 C 193.339844 7.144531 193.523438 8.285156 193.523438 8.398438 C 193.523438 8.398438 193.480469 8.589844 193.464844 8.617188 Z M 195.34375 11.011719 C 195.34375 10.941406 195.289063 10.886719 195.203125 10.886719 C 195.078125 10.886719 195.066406 10.957031 195.011719 11.164063 C 194.800781 11.984375 194.539063 12.859375 193.96875 12.859375 C 193.566406 12.859375 193.535156 12.5 193.535156 12.222656 C 193.535156 11.902344 193.578125 11.746094 193.703125 11.207031 L 193.980469 10.148438 C 194.496094 8.0625 194.621094 7.5625 194.621094 7.476563 C 194.621094 7.285156 194.46875 7.128906 194.261719 7.128906 C 193.816406 7.128906 193.703125 7.617188 193.675781 7.785156 C 193.523438 7.421875 193.144531 6.867188 192.425781 6.867188 C 190.851563 6.867188 189.15625 8.898438 189.15625 10.957031 C 189.15625 12.332031 189.960938 13.136719 190.90625 13.136719 C 191.671875 13.136719 192.324219 12.539063 192.714844 12.082031 C 192.855469 12.902344 193.507813 13.136719 193.925781 13.136719 C 194.34375 13.136719 194.675781 12.886719 194.925781 12.386719 C 195.148438 11.914063 195.34375 11.066406 195.34375 11.011719 Z M 195.34375 11.011719 "/>
<path style=" stroke:none;fill-rule:evenodd;fill:rgb(0%,0%,0%);fill-opacity:1;" d="M 201.28125 13.699219 C 201.28125 13.601563 201.195313 13.601563 201.164063 13.601563 C 201.070313 13.601563 201.070313 13.632813 201.019531 13.777344 C 200.824219 14.445313 200.503906 14.992188 200.023438 14.992188 C 199.855469 14.992188 199.789063 14.894531 199.789063 14.667969 C 199.789063 14.425781 199.875 14.191406 199.964844 13.972656 C 200.148438 13.457031 200.558594 12.378906 200.558594 11.824219 C 200.558594 11.167969 200.140625 10.777344 199.433594 10.777344 C 198.554688 10.777344 198.074219 11.402344 197.910156 11.628906 C 197.859375 11.078125 197.460938 10.777344 197.011719 10.777344 C 196.558594 10.777344 196.375 11.15625 196.277344 11.332031 C 196.117188 11.667969 195.984375 12.242188 195.984375 12.28125 C 195.984375 12.378906 196.101563 12.378906 196.101563 12.378906 C 196.195313 12.378906 196.207031 12.371094 196.265625 12.15625 C 196.433594 11.460938 196.628906 10.992188 196.980469 10.992188 C 197.175781 10.992188 197.28125 11.117188 197.28125 11.441406 C 197.28125 11.644531 197.253906 11.753906 197.128906 12.261719 L 196.558594 14.523438 C 196.53125 14.667969 196.472656 14.894531 196.472656 14.941406 C 196.472656 15.121094 196.609375 15.207031 196.753906 15.207031 C 196.871094 15.207031 197.050781 15.128906 197.117188 14.933594 C 197.128906 14.914063 197.242188 14.453125 197.304688 14.207031 L 197.519531 13.328125 C 197.578125 13.113281 197.636719 12.898438 197.683594 12.675781 L 197.8125 12.183594 C 197.957031 11.882813 198.476563 10.992188 199.40625 10.992188 C 199.847656 10.992188 199.933594 11.355469 199.933594 11.675781 C 199.933594 12.28125 199.453125 13.535156 199.300781 13.957031 C 199.210938 14.179688 199.199219 14.296875 199.199219 14.40625 C 199.199219 14.863281 199.542969 15.207031 200.003906 15.207031 C 200.921875 15.207031 201.28125 13.777344 201.28125 13.699219 Z M 201.28125 13.699219 "/>
<path style=" stroke:none;fill-rule:evenodd;fill:rgb(0%,0%,0%);fill-opacity:1;" d="M 207.867188 9.523438 C 207.867188 9.121094 207.535156 8.785156 207.132813 8.785156 C 206.730469 8.785156 206.394531 9.121094 206.394531 9.523438 C 206.394531 9.925781 206.730469 10.261719 207.132813 10.261719 C 207.535156 10.261719 207.867188 9.925781 207.867188 9.523438 Z M 207.867188 9.523438 "/>
<path style=" stroke:none;fill-rule:evenodd;fill:rgb(0%,0%,0%);fill-opacity:1;" d="M 219.542969 11.011719 C 219.542969 10.941406 219.488281 10.886719 219.402344 10.886719 C 219.277344 10.886719 219.265625 10.957031 219.207031 11.164063 C 218.957031 12.121094 218.707031 12.859375 218.152344 12.859375 C 217.734375 12.859375 217.734375 12.402344 217.734375 12.222656 C 217.734375 11.902344 217.777344 11.761719 217.914063 11.175781 L 218.191406 10.035156 L 218.761719 7.769531 C 218.859375 7.421875 218.859375 7.394531 218.859375 7.351563 C 218.859375 7.144531 218.695313 7.003906 218.484375 7.003906 C 218.082031 7.003906 217.984375 7.351563 217.902344 7.703125 L 216.914063 11.71875 C 216.914063 11.71875 216.355469 12.859375 215.34375 12.859375 C 214.617188 12.859375 214.480469 12.234375 214.480469 11.71875 C 214.480469 10.925781 214.867188 9.816406 215.230469 8.882813 C 215.398438 8.4375 215.46875 8.257813 215.46875 7.980469 C 215.46875 7.378906 215.035156 6.867188 214.367188 6.867188 C 213.089844 6.867188 212.574219 8.882813 212.574219 8.996094 C 212.574219 9.050781 212.628906 9.121094 212.726563 9.121094 C 212.851563 9.121094 212.867188 9.0625 212.921875 8.871094 C 213.253906 7.671875 213.800781 7.144531 214.328125 7.144531 C 214.464844 7.144531 214.6875 7.160156 214.6875 7.605469 C 214.6875 7.964844 214.535156 8.367188 214.328125 8.898438 C 213.714844 10.550781 213.644531 11.082031 213.644531 11.496094 C 213.644531 12.917969 214.714844 13.136719 215.285156 13.136719 C 216.175781 13.136719 216.664063 12.527344 216.941406 12.191406 C 217.121094 12.972656 217.789063 13.136719 218.125 13.136719 C 218.566406 13.136719 218.902344 12.847656 219.125 12.371094 C 219.363281 11.871094 219.542969 11.050781 219.542969 11.011719 Z M 219.542969 11.011719 "/>
<path style=" stroke:none;fill-rule:evenodd;fill:rgb(0%,0%,0%);fill-opacity:1;" d="M 225.484375 5.800781 C 225.484375 5.703125 225.394531 5.703125 225.367188 5.703125 C 225.269531 5.703125 225.269531 5.730469 225.21875 5.878906 C 225.023438 6.542969 224.703125 7.089844 224.222656 7.089844 C 224.054688 7.089844 223.988281 6.996094 223.988281 6.769531 C 223.988281 6.523438 224.074219 6.289063 224.164063 6.074219 C 224.347656 5.554688 224.761719 4.480469 224.761719 3.921875 C 224.761719 3.269531 224.339844 2.875 223.636719 2.875 C 222.753906 2.875 222.277344 3.503906 222.109375 3.726563 C 222.058594 3.179688 221.660156 2.875 221.210938 2.875 C 220.761719 2.875 220.574219 3.257813 220.476563 3.433594 C 220.320313 3.765625 220.183594 4.34375 220.183594 4.382813 C 220.183594 4.480469 220.300781 4.480469 220.300781 4.480469 C 220.398438 4.480469 220.40625 4.472656 220.464844 4.253906 C 220.632813 3.558594 220.828125 3.09375 221.179688 3.09375 C 221.375 3.09375 221.484375 3.21875 221.484375 3.542969 C 221.484375 3.746094 221.453125 3.855469 221.328125 4.363281 L 220.761719 6.621094 C 220.730469 6.769531 220.671875 6.996094 220.671875 7.042969 C 220.671875 7.21875 220.808594 7.308594 220.953125 7.308594 C 221.070313 7.308594 221.25 7.230469 221.316406 7.035156 C 221.328125 7.015625 221.445313 6.554688 221.503906 6.308594 L 221.71875 5.429688 C 221.777344 5.214844 221.835938 5 221.886719 4.773438 L 222.011719 4.285156 C 222.15625 3.980469 222.675781 3.09375 223.605469 3.09375 C 224.046875 3.09375 224.132813 3.453125 224.132813 3.777344 C 224.132813 4.382813 223.65625 5.632813 223.5 6.054688 C 223.410156 6.28125 223.402344 6.398438 223.402344 6.503906 C 223.402344 6.964844 223.742188 7.308594 224.203125 7.308594 C 225.121094 7.308594 225.484375 5.878906 225.484375 5.800781 Z M 225.484375 5.800781 "/>
</g>
</svg>
