<?xml version="1.0" encoding="UTF-8"?>
<svg xmlns="http://www.w3.org/2000/svg" xmlns:xlink="http://www.w3.org/1999/xlink" width="150pt" height="42pt" viewBox="0 0 150 42" version="1.1">
<g id="surface12">
<path style=" stroke:none;fill-rule:evenodd;fill:rgb(0%,0%,0%);fill-opacity:1;" d="M 6.78125 1.371094 C 6.78125 0.953125 6.445313 0.6875 6.109375 0.6875 C 5.722656 0.6875 5.429688 0.996094 5.429688 1.371094 C 5.429688 1.730469 5.734375 2.035156 6.097656 2.035156 C 6.515625 2.035156 6.78125 1.703125 6.78125 1.371094 Z M 6.78125 1.371094 "/>
<path style=" stroke:none;fill-rule:evenodd;fill:rgb(0%,0%,0%);fill-opacity:1;" d="M 10.769531 13.570313 L 10.769531 13.164063 C 9.867188 13.164063 9.613281 13.164063 9.421875 12.59375 L 6.390625 3.890625 C 6.332031 3.722656 6.304688 3.640625 6.109375 3.640625 C 5.914063 3.640625 5.886719 3.683594 5.820313 3.902344 L 2.910156 12.21875 C 2.71875 12.789063 2.328125 13.152344 1.4375 13.164063 L 1.4375 13.570313 L 2.773438 13.539063 C 3.164063 13.539063 3.832031 13.539063 4.191406 13.570313 L 4.191406 13.164063 C 3.605469 13.152344 3.261719 12.859375 3.261719 12.46875 C 3.261719 12.386719 3.261719 12.359375 3.328125 12.179688 L 3.96875 10.328125 L 7.472656 10.328125 L 8.238281 12.511719 C 8.308594 12.679688 8.308594 12.707031 8.308594 12.75 C 8.308594 13.164063 7.597656 13.164063 7.25 13.164063 L 7.25 13.570313 C 7.570313 13.539063 8.667969 13.539063 9.058594 13.539063 C 9.449219 13.539063 10.449219 13.539063 10.769531 13.570313 Z M 7.335938 9.925781 L 4.109375 9.925781 L 5.71875 5.292969 Z M 7.335938 9.925781 "/>
<path style=" stroke:none;fill-rule:evenodd;fill:rgb(0%,0%,0%);fill-opacity:1;" d="M 24.9375 8.8125 C 24.9375 8.546875 24.699219 8.546875 24.492188 8.546875 L 16.300781 8.546875 C 16.105469 8.546875 15.855469 8.546875 15.855469 8.796875 C 15.855469 9.0625 16.09375 9.0625 16.300781 9.0625 L 24.492188 9.0625 C 24.6875 9.0625 24.9375 9.0625 24.9375 8.8125 Z M 24.9375 11.398438 C 24.9375 11.132813 24.699219 11.132813 24.492188 11.132813 L 16.300781 11.132813 C 16.105469 11.132813 15.855469 11.132813 15.855469 11.386719 C 15.855469 11.648438 16.09375 11.648438 16.300781 11.648438 L 24.492188 11.648438 C 24.6875 11.648438 24.9375 11.648438 24.9375 11.398438 Z M 24.9375 11.398438 "/>
<path style=" stroke:none;fill-rule:evenodd;fill:rgb(0%,0%,0%);fill-opacity:1;" d="M 58.355469 12.75 C 58.355469 12.625 58.257813 12.625 58.214844 12.625 C 58.105469 12.625 58.089844 12.664063 58.050781 12.777344 C 57.925781 13.125 57.605469 13.429688 57.269531 13.429688 C 56.839844 13.429688 56.839844 12.539063 56.839844 11.691406 C 58.257813 9.996094 58.589844 8.226563 58.589844 8.226563 C 58.589844 8.105469 58.480469 8.105469 58.441406 8.105469 C 58.3125 8.105469 58.300781 8.144531 58.246094 8.394531 C 58.0625 9.007813 57.703125 10.09375 56.839844 11.234375 L 56.839844 10.050781 C 56.839844 8.703125 56.074219 7.4375 54.601563 7.4375 C 52.78125 7.4375 50.957031 9.425781 50.957031 11.398438 C 50.957031 12.609375 51.710938 13.707031 53.128906 13.707031 C 53.988281 13.707031 55.019531 13.375 56.003906 12.539063 C 56.199219 13.320313 56.628906 13.707031 57.230469 13.707031 C 57.980469 13.707031 58.355469 12.929688 58.355469 12.75 Z M 55.964844 12.207031 C 54.742188 13.304688 53.640625 13.429688 53.15625 13.429688 C 52.167969 13.429688 51.890625 12.554688 51.890625 11.898438 C 51.890625 11.300781 52.195313 9.882813 52.625 9.117188 C 53.195313 8.144531 53.976563 7.714844 54.601563 7.714844 C 55.949219 7.714844 55.949219 9.480469 55.949219 10.648438 L 55.933594 11.703125 C 55.933594 11.984375 55.949219 12.054688 55.964844 12.207031 Z M 55.964844 12.207031 "/>
<path style=" stroke:none;fill-rule:evenodd;fill:rgb(0%,0%,0%);fill-opacity:1;" d="M 64.96875 10.09375 C 64.96875 9.6875 64.636719 9.355469 64.234375 9.355469 C 63.828125 9.355469 63.496094 9.6875 63.496094 10.09375 C 63.496094 10.496094 63.828125 10.828125 64.234375 10.828125 C 64.636719 10.828125 64.96875 10.496094 64.96875 10.09375 Z M 64.96875 10.09375 "/>
<path style=" stroke:none;fill-rule:evenodd;fill:rgb(0%,0%,0%);fill-opacity:1;" d="M 79.0625 13.570313 L 79.0625 13.164063 C 78.15625 13.164063 77.90625 13.164063 77.710938 12.59375 L 74.683594 3.890625 C 74.625 3.722656 74.597656 3.640625 74.402344 3.640625 C 74.207031 3.640625 74.179688 3.683594 74.113281 3.902344 L 71.203125 12.21875 C 71.011719 12.789063 70.621094 13.152344 69.730469 13.164063 L 69.730469 13.570313 L 71.066406 13.539063 C 71.457031 13.539063 72.121094 13.539063 72.484375 13.570313 L 72.484375 13.164063 C 71.898438 13.152344 71.550781 12.859375 71.550781 12.46875 C 71.550781 12.386719 71.550781 12.359375 71.621094 12.179688 L 72.261719 10.328125 L 75.765625 10.328125 L 76.53125 12.511719 C 76.601563 12.679688 76.601563 12.707031 76.601563 12.75 C 76.601563 13.164063 75.890625 13.164063 75.542969 13.164063 L 75.542969 13.570313 C 75.863281 13.539063 76.960938 13.539063 77.351563 13.539063 C 77.742188 13.539063 78.742188 13.539063 79.0625 13.570313 Z M 75.628906 9.925781 L 72.402344 9.925781 L 74.011719 5.292969 Z M 75.628906 9.925781 "/>
<path style=" stroke:none;fill-rule:evenodd;fill:rgb(0%,0%,0%);fill-opacity:1;" d="M 99.148438 10.09375 C 99.148438 9.8125 98.882813 9.8125 98.6875 9.8125 L 91.109375 9.8125 C 90.917969 9.8125 90.652344 9.8125 90.652344 10.09375 C 90.652344 10.371094 90.917969 10.371094 91.109375 10.371094 L 98.6875 10.371094 C 98.882813 10.371094 99.148438 10.371094 99.148438 10.09375 Z M 99.148438 10.09375 "/>
<path style=" stroke:none;fill-rule:evenodd;fill:rgb(0%,0%,0%);fill-opacity:1;" d="M 107.429688 10.96875 C 107.511719 10.664063 107.539063 10.355469 107.539063 10.0625 C 107.539063 9.523438 107.414063 9.007813 107.136719 8.589844 C 106.96875 8.339844 106.777344 8.117188 106.527344 7.964844 C 106.679688 7.882813 106.832031 7.785156 106.96875 7.671875 C 107.527344 7.253906 107.929688 6.683594 108.082031 6.074219 C 108.125 5.90625 108.152344 5.726563 108.152344 5.558594 C 108.152344 5.140625 108.015625 4.753906 107.765625 4.445313 C 107.402344 4 106.832031 3.765625 106.179688 3.765625 C 104.539063 3.765625 103.3125 5.667969 102.855469 7.5625 L 100.699219 16.128906 C 100.699219 16.222656 100.753906 16.265625 100.808594 16.265625 L 100.894531 16.265625 C 100.949219 16.265625 100.992188 16.238281 101.003906 16.183594 L 101.980469 12.273438 C 102.175781 13.125 102.800781 13.707031 103.757813 13.707031 C 104.539063 13.707031 105.359375 13.445313 106.066406 12.914063 C 106.734375 12.414063 107.25 11.703125 107.429688 10.96875 Z M 106.566406 10.914063 C 106.414063 11.566406 106.09375 12.21875 105.550781 12.707031 C 105.039063 13.179688 104.386719 13.445313 103.757813 13.445313 C 102.769531 13.445313 102.214844 12.664063 102.214844 11.679688 C 102.214844 11.453125 102.242188 11.21875 102.300781 10.96875 L 103.148438 7.605469 C 103.578125 5.851563 104.648438 4.027344 106.179688 4.027344 C 106.652344 4.027344 107.039063 4.238281 107.261719 4.597656 C 107.386719 4.808594 107.445313 5.058594 107.445313 5.324219 C 107.445313 5.542969 107.402344 5.78125 107.347656 6.019531 C 107.207031 6.546875 106.96875 7.074219 106.527344 7.480469 C 106.414063 7.574219 106.277344 7.671875 106.152344 7.757813 C 105.871094 7.644531 105.566406 7.589844 105.234375 7.589844 C 104.761719 7.589844 104.191406 7.589844 104.105469 7.921875 C 104.105469 7.964844 104.09375 8.019531 104.09375 8.019531 C 104.09375 8.324219 104.636719 8.324219 105.09375 8.324219 C 105.425781 8.324219 105.777344 8.269531 106.109375 8.144531 C 106.304688 8.296875 106.457031 8.492188 106.554688 8.714844 C 106.691406 9.007813 106.75 9.339844 106.75 9.6875 C 106.75 10.078125 106.679688 10.496094 106.566406 10.914063 Z M 105.746094 7.949219 C 105.539063 8.019531 105.316406 8.0625 105.109375 8.0625 C 104.816406 8.0625 104.386719 8.0625 104.414063 7.980469 C 104.441406 7.855469 104.882813 7.855469 105.21875 7.855469 C 105.414063 7.855469 105.578125 7.882813 105.746094 7.949219 Z M 105.746094 7.949219 "/>
<path style=" stroke:none;fill-rule:evenodd;fill:rgb(0%,0%,0%);fill-opacity:1;" d="M 114.566406 10.09375 C 114.566406 9.6875 114.230469 9.355469 113.828125 9.355469 C 113.425781 9.355469 113.089844 9.6875 113.089844 10.09375 C 113.089844 10.496094 113.425781 10.828125 113.828125 10.828125 C 114.230469 10.828125 114.566406 10.496094 114.566406 10.09375 Z M 114.566406 10.09375 "/>
<path style=" stroke:none;fill-rule:evenodd;fill:rgb(0%,0%,0%);fill-opacity:1;" d="M 128.65625 13.570313 L 128.65625 13.164063 C 127.753906 13.164063 127.5 13.164063 127.308594 12.59375 L 124.277344 3.890625 C 124.21875 3.722656 124.191406 3.640625 124 3.640625 C 123.800781 3.640625 123.773438 3.683594 123.707031 3.902344 L 120.800781 12.21875 C 120.605469 12.789063 120.214844 13.152344 119.324219 13.164063 L 119.324219 13.570313 L 120.660156 13.539063 C 121.050781 13.539063 121.71875 13.539063 122.078125 13.570313 L 122.078125 13.164063 C 121.492188 13.152344 121.148438 12.859375 121.148438 12.46875 C 121.148438 12.386719 121.148438 12.359375 121.214844 12.179688 L 121.855469 10.328125 L 125.359375 10.328125 L 126.125 12.511719 C 126.195313 12.679688 126.195313 12.707031 126.195313 12.75 C 126.195313 13.164063 125.484375 13.164063 125.136719 13.164063 L 125.136719 13.570313 C 125.457031 13.539063 126.554688 13.539063 126.945313 13.539063 C 127.335938 13.539063 128.335938 13.539063 128.65625 13.570313 Z M 125.222656 9.925781 L 121.996094 9.925781 L 123.609375 5.292969 Z M 125.222656 9.925781 "/>
<path style=" stroke:none;fill-rule:evenodd;fill:rgb(0%,0%,0%);fill-opacity:1;" d="M 134.863281 10.09375 C 134.863281 9.6875 134.527344 9.355469 134.125 9.355469 C 133.722656 9.355469 133.386719 9.6875 133.386719 10.09375 C 133.386719 10.496094 133.722656 10.828125 134.125 10.828125 C 134.527344 10.828125 134.863281 10.496094 134.863281 10.09375 Z M 134.863281 10.09375 "/>
<path style=" stroke:none;fill-rule:evenodd;fill:rgb(0%,0%,0%);fill-opacity:1;" d="M 148.0625 11.023438 C 148.0625 9.898438 147.050781 8.785156 145.394531 8.601563 C 146.714844 8.351563 147.675781 7.464844 147.675781 6.421875 C 147.675781 5.226563 146.464844 4.070313 144.644531 4.070313 L 139.789063 4.070313 L 139.789063 4.472656 L 140.070313 4.472656 C 141.070313 4.472656 141.109375 4.613281 141.109375 5.128906 L 141.109375 12.511719 C 141.109375 13.027344 141.070313 13.164063 140.070313 13.164063 L 139.789063 13.164063 L 139.789063 13.570313 L 145.019531 13.570313 C 146.8125 13.570313 148.0625 12.359375 148.0625 11.023438 Z M 146.449219 6.421875 C 146.449219 7.339844 145.726563 8.492188 144.183594 8.492188 L 142.167969 8.492188 L 142.167969 5.03125 C 142.167969 4.570313 142.195313 4.472656 142.808594 4.472656 L 144.558594 4.472656 C 145.949219 4.472656 146.449219 5.667969 146.449219 6.421875 Z M 146.800781 11.007813 C 146.800781 12.136719 145.949219 13.164063 144.585938 13.164063 L 142.808594 13.164063 C 142.195313 13.164063 142.167969 13.070313 142.167969 12.609375 L 142.167969 8.769531 L 144.769531 8.769531 C 146.105469 8.769531 146.800781 9.9375 146.800781 11.007813 Z M 146.800781 11.007813 "/>
<path style=" stroke:none;fill-rule:evenodd;fill:rgb(0%,0%,0%);fill-opacity:1;" d="M 7.078125 22.867188 C 7.078125 22.449219 6.746094 22.1875 6.410156 22.1875 C 6.023438 22.1875 5.730469 22.492188 5.730469 22.867188 C 5.730469 23.226563 6.035156 23.535156 6.398438 23.535156 C 6.816406 23.535156 7.078125 23.203125 7.078125 22.867188 Z M 7.078125 22.867188 "/>
<path style=" stroke:none;fill-rule:evenodd;fill:rgb(0%,0%,0%);fill-opacity:1;" d="M 10.480469 32.519531 C 10.480469 31.394531 9.464844 30.28125 7.808594 30.101563 C 9.128906 29.851563 10.089844 28.960938 10.089844 27.917969 C 10.089844 26.722656 8.878906 25.570313 7.058594 25.570313 L 2.207031 25.570313 L 2.207031 25.972656 L 2.484375 25.972656 C 3.484375 25.972656 3.527344 26.109375 3.527344 26.625 L 3.527344 34.011719 C 3.527344 34.523438 3.484375 34.664063 2.484375 34.664063 L 2.207031 34.664063 L 2.207031 35.066406 L 7.433594 35.066406 C 9.226563 35.066406 10.480469 33.855469 10.480469 32.519531 Z M 8.867188 27.917969 C 8.867188 28.835938 8.140625 29.988281 6.597656 29.988281 L 4.582031 29.988281 L 4.582031 26.527344 C 4.582031 26.070313 4.613281 25.972656 5.222656 25.972656 L 6.976563 25.972656 C 8.367188 25.972656 8.867188 27.167969 8.867188 27.917969 Z M 9.214844 32.507813 C 9.214844 33.632813 8.367188 34.664063 7 34.664063 L 5.222656 34.664063 C 4.613281 34.664063 4.582031 34.566406 4.582031 34.105469 L 4.582031 30.269531 L 7.183594 30.269531 C 8.519531 30.269531 9.214844 31.4375 9.214844 32.507813 Z M 9.214844 32.507813 "/>
<path style=" stroke:none;fill-rule:evenodd;fill:rgb(0%,0%,0%);fill-opacity:1;" d="M 24.9375 30.308594 C 24.9375 30.046875 24.699219 30.046875 24.492188 30.046875 L 16.300781 30.046875 C 16.105469 30.046875 15.855469 30.046875 15.855469 30.296875 C 15.855469 30.558594 16.09375 30.558594 16.300781 30.558594 L 24.492188 30.558594 C 24.6875 30.558594 24.9375 30.558594 24.9375 30.308594 Z M 24.9375 32.898438 C 24.9375 32.632813 24.699219 32.632813 24.492188 32.632813 L 16.300781 32.632813 C 16.105469 32.632813 15.855469 32.632813 15.855469 32.882813 C 15.855469 33.148438 16.09375 33.148438 16.300781 33.148438 L 24.492188 33.148438 C 24.6875 33.148438 24.9375 33.148438 24.9375 32.898438 Z M 24.9375 32.898438 "/>
<path style=" stroke:none;fill-rule:evenodd;fill:rgb(0%,0%,0%);fill-opacity:1;" d="M 39.253906 31.589844 C 39.253906 31.3125 38.992188 31.3125 38.796875 31.3125 L 31.214844 31.3125 C 31.023438 31.3125 30.757813 31.3125 30.757813 31.589844 C 30.757813 31.867188 31.023438 31.867188 31.214844 31.867188 L 38.796875 31.867188 C 38.992188 31.867188 39.253906 31.867188 39.253906 31.589844 Z M 39.253906 31.589844 "/>
<path style=" stroke:none;fill-rule:evenodd;fill:rgb(0%,0%,0%);fill-opacity:1;" d="M 59.300781 29.183594 C 59.300781 29.183594 59.285156 29.074219 59.160156 29.074219 C 59.160156 29.074219 59.0625 29.074219 59.035156 29.128906 C 59.007813 29.15625 58.519531 30.101563 58.105469 31.046875 C 57.894531 31.519531 57.617188 32.144531 57.15625 33.371094 C 57.128906 32.6875 57.101563 31.617188 56.574219 30.367188 C 56.296875 29.671875 55.824219 28.933594 54.808594 28.933594 C 53.097656 28.933594 52.164063 31.117188 52.164063 31.480469 C 52.164063 31.605469 52.261719 31.605469 52.304688 31.605469 C 52.429688 31.605469 52.429688 31.574219 52.5 31.394531 C 52.792969 30.53125 53.679688 29.851563 54.640625 29.851563 C 56.574219 29.851563 56.851563 32.007813 56.851563 33.382813 C 56.851563 34.261719 56.753906 34.550781 56.671875 34.832031 C 56.40625 35.691406 55.949219 37.414063 55.949219 37.804688 C 55.949219 37.917969 55.988281 38.042969 56.101563 38.042969 C 56.308594 38.042969 56.433594 37.582031 56.589844 37.027344 C 56.921875 35.804688 57.003906 35.191406 57.074219 34.636719 C 57.117188 34.300781 57.910156 32.007813 59.007813 29.824219 C 59.105469 29.601563 59.300781 29.226563 59.300781 29.183594 Z M 59.300781 29.183594 "/>
<path style=" stroke:none;fill-rule:evenodd;fill:rgb(0%,0%,0%);fill-opacity:1;" d="M 65.570313 31.589844 C 65.570313 31.1875 65.234375 30.851563 64.832031 30.851563 C 64.429688 30.851563 64.09375 31.1875 64.09375 31.589844 C 64.09375 31.992188 64.429688 32.328125 64.832031 32.328125 C 65.234375 32.328125 65.570313 31.992188 65.570313 31.589844 Z M 65.570313 31.589844 "/>
<path style=" stroke:none;fill-rule:evenodd;fill:rgb(0%,0%,0%);fill-opacity:1;" d="M 78.671875 32.519531 C 78.671875 31.394531 77.65625 30.28125 76.003906 30.101563 C 77.320313 29.851563 78.28125 28.960938 78.28125 27.917969 C 78.28125 26.722656 77.070313 25.570313 75.25 25.570313 L 70.398438 25.570313 L 70.398438 25.972656 L 70.675781 25.972656 C 71.675781 25.972656 71.71875 26.109375 71.71875 26.625 L 71.71875 34.011719 C 71.71875 34.523438 71.675781 34.664063 70.675781 34.664063 L 70.398438 34.664063 L 70.398438 35.066406 L 75.625 35.066406 C 77.421875 35.066406 78.671875 33.855469 78.671875 32.519531 Z M 77.058594 27.917969 C 77.058594 28.835938 76.335938 29.988281 74.792969 29.988281 L 72.777344 29.988281 L 72.777344 26.527344 C 72.777344 26.070313 72.804688 25.972656 73.414063 25.972656 L 75.167969 25.972656 C 76.558594 25.972656 77.058594 27.167969 77.058594 27.917969 Z M 77.40625 32.507813 C 77.40625 33.632813 76.558594 34.664063 75.195313 34.664063 L 73.414063 34.664063 C 72.804688 34.664063 72.777344 34.566406 72.777344 34.105469 L 72.777344 30.269531 L 75.375 30.269531 C 76.710938 30.269531 77.40625 31.4375 77.40625 32.507813 Z M 77.40625 32.507813 "/>
<path style=" stroke:none;fill-rule:evenodd;fill:rgb(0%,0%,0%);fill-opacity:1;" d="M 101.429688 31.605469 C 101.429688 31.339844 101.191406 31.339844 100.984375 31.339844 L 97.144531 31.339844 L 97.144531 27.5 C 97.144531 27.304688 97.144531 27.054688 96.894531 27.054688 C 96.632813 27.054688 96.632813 27.292969 96.632813 27.5 L 96.632813 31.339844 L 92.792969 31.339844 C 92.597656 31.339844 92.347656 31.339844 92.347656 31.589844 C 92.347656 31.855469 92.585938 31.855469 92.792969 31.855469 L 96.632813 31.855469 L 96.632813 35.691406 C 96.632813 35.886719 96.632813 36.136719 96.882813 36.136719 C 97.144531 36.136719 97.144531 35.902344 97.144531 35.691406 L 97.144531 31.855469 L 100.984375 31.855469 C 101.179688 31.855469 101.429688 31.855469 101.429688 31.605469 Z M 101.429688 31.605469 "/>
<path style=" stroke:none;fill-rule:evenodd;fill:rgb(0%,0%,0%);fill-opacity:1;" d="M 107.410156 32.535156 C 107.535156 32.0625 107.605469 31.574219 107.605469 31.117188 C 107.605469 30.910156 107.589844 30.699219 107.566406 30.492188 C 107.453125 29.835938 107.160156 29.28125 106.785156 28.78125 C 106.171875 28 105.339844 26.917969 105.339844 26.265625 C 105.339844 26.167969 105.367188 26.082031 105.410156 26.015625 C 105.480469 25.875 105.574219 25.761719 105.714844 25.695313 C 105.855469 25.625 106.007813 25.597656 106.144531 25.597656 C 106.769531 25.609375 107.1875 26.027344 107.71875 26.234375 C 107.757813 26.25 107.800781 26.25 107.855469 26.25 C 108.023438 26.25 108.21875 26.152344 108.300781 25.972656 C 108.34375 25.902344 108.371094 25.820313 108.371094 25.761719 C 108.371094 25.597656 108.257813 25.457031 108.105469 25.429688 C 107.617188 25.320313 107.078125 25.179688 106.578125 25.179688 C 106.4375 25.179688 106.296875 25.195313 106.171875 25.21875 C 105.980469 25.25 105.769531 25.304688 105.589844 25.429688 C 105.410156 25.539063 105.253906 25.707031 105.160156 25.890625 C 105.046875 26.097656 104.992188 26.347656 104.992188 26.597656 C 104.992188 27.347656 105.421875 28.226563 105.824219 29.003906 C 105.253906 29.128906 104.699219 29.433594 104.226563 29.851563 C 103.542969 30.449219 103.074219 31.242188 102.878906 32.050781 C 102.808594 32.339844 102.765625 32.632813 102.765625 32.910156 C 102.765625 33.410156 102.890625 33.882813 103.140625 34.273438 C 103.503906 34.84375 104.113281 35.207031 104.894531 35.207031 C 106.105469 35.207031 107.078125 33.882813 107.410156 32.535156 Z M 106.5625 32.800781 C 106.296875 33.828125 105.785156 34.941406 104.894531 34.941406 C 104.335938 34.941406 103.921875 34.605469 103.726563 34.136719 C 103.613281 33.882813 103.574219 33.59375 103.574219 33.300781 C 103.574219 32.910156 103.644531 32.507813 103.738281 32.105469 C 103.921875 31.378906 104.199219 30.644531 104.753906 30.03125 C 105.101563 29.671875 105.519531 29.378906 105.964844 29.265625 L 106.007813 29.335938 C 106.269531 29.851563 106.519531 30.378906 106.644531 30.964844 C 106.6875 31.1875 106.703125 31.421875 106.703125 31.660156 C 106.703125 32.035156 106.660156 32.425781 106.5625 32.800781 Z M 106.5625 32.800781 "/>
<path style=" stroke:none;fill-rule:evenodd;fill:rgb(0%,0%,0%);fill-opacity:1;" d="M 114.566406 31.589844 C 114.566406 31.1875 114.230469 30.851563 113.828125 30.851563 C 113.425781 30.851563 113.089844 31.1875 113.089844 31.589844 C 113.089844 31.992188 113.425781 32.328125 113.828125 32.328125 C 114.230469 32.328125 114.566406 31.992188 114.566406 31.589844 Z M 114.566406 31.589844 "/>
<path style=" stroke:none;fill-rule:evenodd;fill:rgb(0%,0%,0%);fill-opacity:1;" d="M 128.65625 35.066406 L 128.65625 34.664063 C 127.753906 34.664063 127.5 34.664063 127.308594 34.09375 L 124.277344 25.386719 C 124.21875 25.21875 124.191406 25.136719 124 25.136719 C 123.800781 25.136719 123.773438 25.179688 123.707031 25.402344 L 120.800781 33.71875 C 120.605469 34.289063 120.214844 34.648438 119.324219 34.664063 L 119.324219 35.066406 L 120.660156 35.039063 C 121.050781 35.039063 121.71875 35.039063 122.078125 35.066406 L 122.078125 34.664063 C 121.492188 34.648438 121.148438 34.355469 121.148438 33.96875 C 121.148438 33.882813 121.148438 33.855469 121.214844 33.675781 L 121.855469 31.824219 L 125.359375 31.824219 L 126.125 34.011719 C 126.195313 34.175781 126.195313 34.203125 126.195313 34.246094 C 126.195313 34.664063 125.484375 34.664063 125.136719 34.664063 L 125.136719 35.066406 C 125.457031 35.039063 126.554688 35.039063 126.945313 35.039063 C 127.335938 35.039063 128.335938 35.039063 128.65625 35.066406 Z M 125.222656 31.421875 L 121.996094 31.421875 L 123.609375 26.792969 Z M 125.222656 31.421875 "/>
<path style=" stroke:none;fill-rule:evenodd;fill:rgb(0%,0%,0%);fill-opacity:1;" d="M 134.863281 31.589844 C 134.863281 31.1875 134.527344 30.851563 134.125 30.851563 C 133.722656 30.851563 133.386719 31.1875 133.386719 31.589844 C 133.386719 31.992188 133.722656 32.328125 134.125 32.328125 C 134.527344 32.328125 134.863281 31.992188 134.863281 31.589844 Z M 134.863281 31.589844 "/>
<path style=" stroke:none;fill-rule:evenodd;fill:rgb(0%,0%,0%);fill-opacity:1;" d="M 148.0625 32.519531 C 148.0625 31.394531 147.050781 30.28125 145.394531 30.101563 C 146.714844 29.851563 147.675781 28.960938 147.675781 27.917969 C 147.675781 26.722656 146.464844 25.570313 144.644531 25.570313 L 139.789063 25.570313 L 139.789063 25.972656 L 140.070313 25.972656 C 141.070313 25.972656 141.109375 26.109375 141.109375 26.625 L 141.109375 34.011719 C 141.109375 34.523438 141.070313 34.664063 140.070313 34.664063 L 139.789063 34.664063 L 139.789063 35.066406 L 145.019531 35.066406 C 146.8125 35.066406 148.0625 33.855469 148.0625 32.519531 Z M 146.449219 27.917969 C 146.449219 28.835938 145.726563 29.988281 144.183594 29.988281 L 142.167969 29.988281 L 142.167969 26.527344 C 142.167969 26.070313 142.195313 25.972656 142.808594 25.972656 L 144.558594 25.972656 C 145.949219 25.972656 146.449219 27.167969 146.449219 27.917969 Z M 146.800781 32.507813 C 146.800781 33.632813 145.949219 34.664063 144.585938 34.664063 L 142.808594 34.664063 C 142.195313 34.664063 142.167969 34.566406 142.167969 34.105469 L 142.167969 30.269531 L 144.769531 30.269531 C 146.105469 30.269531 146.800781 31.4375 146.800781 32.507813 Z M 146.800781 32.507813 "/>
</g>
</svg>
