<?xml version="1.0" encoding="UTF-8"?>
<svg xmlns="http://www.w3.org/2000/svg" xmlns:xlink="http://www.w3.org/1999/xlink" width="264pt" height="42pt" viewBox="0 0 264 42" version="1.1">
<g id="surface8">
<path style=" stroke:none;fill-rule:evenodd;fill:rgb(0%,0%,0%);fill-opacity:1;" d="M 6.785156 1.371094 C 6.785156 0.953125 6.453125 0.6875 6.117188 0.6875 C 5.730469 0.6875 5.4375 0.996094 5.4375 1.371094 C 5.4375 1.730469 5.742188 2.035156 6.105469 2.035156 C 6.523438 2.035156 6.785156 1.703125 6.785156 1.371094 Z M 6.785156 1.371094 "/>
<path style=" stroke:none;fill-rule:evenodd;fill:rgb(0%,0%,0%);fill-opacity:1;" d="M 10.773438 13.570313 L 10.773438 13.164063 C 9.871094 13.164063 9.621094 13.164063 9.425781 12.59375 L 6.394531 3.890625 C 6.339844 3.722656 6.3125 3.640625 6.117188 3.640625 C 5.921875 3.640625 5.894531 3.683594 5.824219 3.902344 L 2.917969 12.21875 C 2.722656 12.789063 2.335938 13.152344 1.445313 13.164063 L 1.445313 13.570313 L 2.777344 13.539063 C 3.167969 13.539063 3.835938 13.539063 4.199219 13.570313 L 4.199219 13.164063 C 3.613281 13.152344 3.265625 12.859375 3.265625 12.46875 C 3.265625 12.386719 3.265625 12.359375 3.335938 12.179688 L 3.976563 10.328125 L 7.480469 10.328125 L 8.246094 12.511719 C 8.316406 12.679688 8.316406 12.707031 8.316406 12.75 C 8.316406 13.164063 7.605469 13.164063 7.257813 13.164063 L 7.257813 13.570313 C 7.578125 13.539063 8.675781 13.539063 9.0625 13.539063 C 9.453125 13.539063 10.457031 13.539063 10.773438 13.570313 Z M 7.339844 9.925781 L 4.113281 9.925781 L 5.726563 5.292969 Z M 7.339844 9.925781 "/>
<path style=" stroke:none;fill-rule:evenodd;fill:rgb(0%,0%,0%);fill-opacity:1;" d="M 24.945313 8.8125 C 24.945313 8.546875 24.707031 8.546875 24.5 8.546875 L 16.308594 8.546875 C 16.113281 8.546875 15.863281 8.546875 15.863281 8.796875 C 15.863281 9.0625 16.097656 9.0625 16.308594 9.0625 L 24.5 9.0625 C 24.695313 9.0625 24.945313 9.0625 24.945313 8.8125 Z M 24.945313 11.398438 C 24.945313 11.132813 24.707031 11.132813 24.5 11.132813 L 16.308594 11.132813 C 16.113281 11.132813 15.863281 11.132813 15.863281 11.386719 C 15.863281 11.648438 16.097656 11.648438 16.308594 11.648438 L 24.5 11.648438 C 24.695313 11.648438 24.945313 11.648438 24.945313 11.398438 Z M 24.945313 11.398438 "/>
<path style=" stroke:none;fill-rule:evenodd;fill:rgb(0%,0%,0%);fill-opacity:1;" d="M 39.894531 11.914063 C 39.828125 12.148438 39.828125 12.179688 39.632813 12.441406 C 39.324219 12.832031 38.714844 13.429688 38.058594 13.429688 C 37.488281 13.429688 37.171875 12.914063 37.171875 12.09375 C 37.171875 11.328125 37.601563 9.773438 37.867188 9.1875 C 38.335938 8.214844 38.992188 7.714844 39.535156 7.714844 C 40.453125 7.714844 40.632813 8.855469 40.632813 8.964844 C 40.632813 8.964844 40.589844 9.160156 40.578125 9.1875 Z M 42.453125 11.578125 C 42.453125 11.511719 42.398438 11.453125 42.316406 11.453125 C 42.191406 11.453125 42.175781 11.523438 42.121094 11.734375 C 41.914063 12.554688 41.648438 13.429688 41.078125 13.429688 C 40.675781 13.429688 40.648438 13.070313 40.648438 12.789063 C 40.648438 12.46875 40.6875 12.316406 40.8125 11.773438 L 41.09375 10.71875 C 41.605469 8.632813 41.730469 8.132813 41.730469 8.046875 C 41.730469 7.855469 41.578125 7.699219 41.371094 7.699219 C 40.925781 7.699219 40.8125 8.1875 40.785156 8.351563 C 40.632813 7.992188 40.257813 7.4375 39.535156 7.4375 C 37.960938 7.4375 36.265625 9.464844 36.265625 11.523438 C 36.265625 12.902344 37.074219 13.707031 38.019531 13.707031 C 38.78125 13.707031 39.4375 13.109375 39.828125 12.652344 C 39.964844 13.472656 40.617188 13.707031 41.035156 13.707031 C 41.453125 13.707031 41.789063 13.457031 42.039063 12.957031 C 42.257813 12.484375 42.453125 11.636719 42.453125 11.578125 Z M 42.453125 11.578125 "/>
<path style=" stroke:none;fill-rule:evenodd;fill:rgb(0%,0%,0%);fill-opacity:1;" d="M 47.40625 12.4375 C 47.40625 11.65625 47.359375 10.875 47.015625 10.148438 C 46.566406 9.210938 45.765625 9.054688 45.355469 9.054688 C 44.765625 9.054688 44.054688 9.308594 43.652344 10.21875 C 43.339844 10.894531 43.289063 11.65625 43.289063 12.4375 C 43.289063 13.171875 43.328125 14.054688 43.730469 14.796875 C 44.152344 15.589844 44.867188 15.785156 45.34375 15.785156 C 45.871094 15.785156 46.613281 15.578125 47.046875 14.648438 C 47.359375 13.976563 47.40625 13.210938 47.40625 12.4375 Z M 46.597656 12.320313 C 46.597656 13.054688 46.597656 13.71875 46.488281 14.347656 C 46.339844 15.273438 45.785156 15.566406 45.34375 15.566406 C 44.964844 15.566406 44.386719 15.324219 44.210938 14.386719 C 44.101563 13.796875 44.101563 12.898438 44.101563 12.320313 C 44.101563 11.695313 44.101563 11.050781 44.179688 10.523438 C 44.367188 9.359375 45.097656 9.269531 45.34375 9.269531 C 45.667969 9.269531 46.3125 9.445313 46.496094 10.414063 C 46.597656 10.960938 46.597656 11.703125 46.597656 12.320313 Z M 46.597656 12.320313 "/>
<path style=" stroke:none;fill-rule:evenodd;fill:rgb(0%,0%,0%);fill-opacity:1;" d="M 71.140625 10.105469 C 71.140625 9.84375 70.902344 9.84375 70.695313 9.84375 L 66.855469 9.84375 L 66.855469 6.003906 C 66.855469 5.808594 66.855469 5.558594 66.605469 5.558594 C 66.339844 5.558594 66.339844 5.796875 66.339844 6.003906 L 66.339844 9.84375 L 62.503906 9.84375 C 62.308594 9.84375 62.058594 9.84375 62.058594 10.09375 C 62.058594 10.355469 62.292969 10.355469 62.503906 10.355469 L 66.339844 10.355469 L 66.339844 14.195313 C 66.339844 14.390625 66.339844 14.640625 66.589844 14.640625 C 66.855469 14.640625 66.855469 14.402344 66.855469 14.195313 L 66.855469 10.355469 L 70.695313 10.355469 C 70.890625 10.355469 71.140625 10.355469 71.140625 10.105469 Z M 71.140625 10.105469 "/>
<path style=" stroke:none;fill-rule:evenodd;fill:rgb(0%,0%,0%);fill-opacity:1;" d="M 79.191406 11.914063 C 79.121094 12.148438 79.121094 12.179688 78.925781 12.441406 C 78.621094 12.832031 78.011719 13.429688 77.355469 13.429688 C 76.785156 13.429688 76.464844 12.914063 76.464844 12.09375 C 76.464844 11.328125 76.894531 9.773438 77.160156 9.1875 C 77.632813 8.214844 78.289063 7.714844 78.832031 7.714844 C 79.746094 7.714844 79.929688 8.855469 79.929688 8.964844 C 79.929688 8.964844 79.886719 9.160156 79.871094 9.1875 Z M 81.75 11.578125 C 81.75 11.511719 81.695313 11.453125 81.609375 11.453125 C 81.484375 11.453125 81.472656 11.523438 81.414063 11.734375 C 81.207031 12.554688 80.945313 13.429688 80.375 13.429688 C 79.972656 13.429688 79.941406 13.070313 79.941406 12.789063 C 79.941406 12.46875 79.984375 12.316406 80.109375 11.773438 L 80.386719 10.71875 C 80.902344 8.632813 81.027344 8.132813 81.027344 8.046875 C 81.027344 7.855469 80.875 7.699219 80.664063 7.699219 C 80.222656 7.699219 80.109375 8.1875 80.082031 8.351563 C 79.929688 7.992188 79.550781 7.4375 78.832031 7.4375 C 77.257813 7.4375 75.5625 9.464844 75.5625 11.523438 C 75.5625 12.902344 76.367188 13.707031 77.316406 13.707031 C 78.078125 13.707031 78.730469 13.109375 79.121094 12.652344 C 79.261719 13.472656 79.914063 13.707031 80.332031 13.707031 C 80.75 13.707031 81.082031 13.457031 81.332031 12.957031 C 81.554688 12.484375 81.75 11.636719 81.75 11.578125 Z M 81.75 11.578125 "/>
<path style=" stroke:none;fill-rule:evenodd;fill:rgb(0%,0%,0%);fill-opacity:1;" d="M 89.253906 15.371094 C 89.253906 15.265625 89.160156 15.265625 89.03125 15.265625 C 88.425781 15.265625 88.425781 15.195313 88.394531 14.914063 L 87.800781 8.800781 C 87.78125 8.605469 87.78125 8.566406 87.613281 8.566406 C 87.457031 8.566406 87.417969 8.632813 87.359375 8.730469 L 83.953125 14.445313 C 83.5625 15.097656 83.183594 15.234375 82.753906 15.265625 C 82.632813 15.273438 82.546875 15.273438 82.546875 15.460938 C 82.546875 15.519531 82.59375 15.566406 82.671875 15.566406 C 82.9375 15.566406 83.242188 15.539063 83.515625 15.539063 C 83.835938 15.539063 84.179688 15.566406 84.492188 15.566406 C 84.550781 15.566406 84.679688 15.566406 84.679688 15.382813 C 84.679688 15.273438 84.589844 15.265625 84.523438 15.265625 C 84.296875 15.246094 84.0625 15.167969 84.0625 14.921875 C 84.0625 14.804688 84.121094 14.699219 84.199219 14.5625 C 84.269531 14.445313 84.277344 14.445313 84.945313 13.308594 L 87.398438 13.308594 C 87.417969 13.515625 87.554688 14.84375 87.554688 14.941406 C 87.554688 15.234375 87.046875 15.265625 86.851563 15.265625 C 86.714844 15.265625 86.617188 15.265625 86.617188 15.460938 C 86.617188 15.566406 86.753906 15.566406 86.753906 15.566406 C 87.152344 15.566406 87.574219 15.539063 87.972656 15.539063 C 88.21875 15.539063 88.835938 15.566406 89.082031 15.566406 C 89.136719 15.566406 89.253906 15.566406 89.253906 15.371094 Z M 87.367188 13.007813 L 85.128906 13.007813 L 87.054688 9.777344 Z M 87.367188 13.007813 "/>
<path style=" stroke:none;fill-rule:evenodd;fill:rgb(0%,0%,0%);fill-opacity:1;" d="M 95.773438 10.09375 C 95.773438 9.6875 95.4375 9.355469 95.035156 9.355469 C 94.632813 9.355469 94.300781 9.6875 94.300781 10.09375 C 94.300781 10.496094 94.632813 10.828125 95.035156 10.828125 C 95.4375 10.828125 95.773438 10.496094 95.773438 10.09375 Z M 95.773438 10.09375 "/>
<path style=" stroke:none;fill-rule:evenodd;fill:rgb(0%,0%,0%);fill-opacity:1;" d="M 109.863281 13.570313 L 109.863281 13.164063 C 108.960938 13.164063 108.710938 13.164063 108.515625 12.59375 L 105.484375 3.890625 C 105.429688 3.722656 105.402344 3.640625 105.207031 3.640625 C 105.011719 3.640625 104.984375 3.683594 104.914063 3.902344 L 102.007813 12.21875 C 101.8125 12.789063 101.425781 13.152344 100.535156 13.164063 L 100.535156 13.570313 L 101.867188 13.539063 C 102.257813 13.539063 102.925781 13.539063 103.285156 13.570313 L 103.285156 13.164063 C 102.703125 13.152344 102.355469 12.859375 102.355469 12.46875 C 102.355469 12.386719 102.355469 12.359375 102.425781 12.179688 L 103.066406 10.328125 L 106.570313 10.328125 L 107.332031 12.511719 C 107.402344 12.679688 107.402344 12.707031 107.402344 12.75 C 107.402344 13.164063 106.695313 13.164063 106.347656 13.164063 L 106.347656 13.570313 C 106.667969 13.539063 107.765625 13.539063 108.152344 13.539063 C 108.542969 13.539063 109.546875 13.539063 109.863281 13.570313 Z M 106.429688 9.925781 L 103.203125 9.925781 L 104.816406 5.292969 Z M 106.429688 9.925781 "/>
<path style=" stroke:none;fill-rule:evenodd;fill:rgb(0%,0%,0%);fill-opacity:1;" d="M 133.230469 10.105469 C 133.230469 9.84375 132.996094 9.84375 132.789063 9.84375 L 128.949219 9.84375 L 128.949219 6.003906 C 128.949219 5.808594 128.949219 5.558594 128.699219 5.558594 C 128.433594 5.558594 128.433594 5.796875 128.433594 6.003906 L 128.433594 9.84375 L 124.59375 9.84375 C 124.402344 9.84375 124.152344 9.84375 124.152344 10.09375 C 124.152344 10.355469 124.386719 10.355469 124.59375 10.355469 L 128.433594 10.355469 L 128.433594 14.195313 C 128.433594 14.390625 128.433594 14.640625 128.683594 14.640625 C 128.949219 14.640625 128.949219 14.402344 128.949219 14.195313 L 128.949219 10.355469 L 132.789063 10.355469 C 132.980469 10.355469 133.230469 10.355469 133.230469 10.105469 Z M 133.230469 10.105469 "/>
<path style=" stroke:none;fill-rule:evenodd;fill:rgb(0%,0%,0%);fill-opacity:1;" d="M 141.285156 11.914063 C 141.214844 12.148438 141.214844 12.179688 141.019531 12.441406 C 140.714844 12.832031 140.105469 13.429688 139.449219 13.429688 C 138.878906 13.429688 138.558594 12.914063 138.558594 12.09375 C 138.558594 11.328125 138.988281 9.773438 139.253906 9.1875 C 139.726563 8.214844 140.382813 7.714844 140.921875 7.714844 C 141.839844 7.714844 142.019531 8.855469 142.019531 8.964844 C 142.019531 8.964844 141.980469 9.160156 141.964844 9.1875 Z M 143.84375 11.578125 C 143.84375 11.511719 143.789063 11.453125 143.703125 11.453125 C 143.578125 11.453125 143.566406 11.523438 143.507813 11.734375 C 143.300781 12.554688 143.039063 13.429688 142.46875 13.429688 C 142.0625 13.429688 142.035156 13.070313 142.035156 12.789063 C 142.035156 12.46875 142.078125 12.316406 142.203125 11.773438 L 142.480469 10.71875 C 142.996094 8.632813 143.121094 8.132813 143.121094 8.046875 C 143.121094 7.855469 142.96875 7.699219 142.757813 7.699219 C 142.3125 7.699219 142.203125 8.1875 142.175781 8.351563 C 142.019531 7.992188 141.644531 7.4375 140.921875 7.4375 C 139.351563 7.4375 137.65625 9.464844 137.65625 11.523438 C 137.65625 12.902344 138.460938 13.707031 139.40625 13.707031 C 140.171875 13.707031 140.824219 13.109375 141.214844 12.652344 C 141.355469 13.472656 142.007813 13.707031 142.425781 13.707031 C 142.84375 13.707031 143.175781 13.457031 143.425781 12.957031 C 143.648438 12.484375 143.84375 11.636719 143.84375 11.578125 Z M 143.84375 11.578125 "/>
<path style=" stroke:none;fill-rule:evenodd;fill:rgb(0%,0%,0%);fill-opacity:1;" d="M 151.164063 13.457031 C 151.164063 12.75 150.59375 12.183594 149.648438 12.078125 C 150.664063 11.890625 151.691406 11.167969 151.691406 10.238281 C 151.691406 9.515625 151.046875 8.890625 149.871094 8.890625 L 146.585938 8.890625 C 146.402344 8.890625 146.304688 8.890625 146.304688 9.085938 C 146.304688 9.191406 146.390625 9.191406 146.578125 9.191406 C 146.578125 9.191406 146.78125 9.191406 146.949219 9.210938 C 147.125 9.230469 147.210938 9.242188 147.210938 9.367188 C 147.210938 9.40625 147.203125 9.4375 147.171875 9.554688 L 145.863281 14.804688 C 145.765625 15.1875 145.746094 15.265625 144.972656 15.265625 C 144.808594 15.265625 144.710938 15.265625 144.710938 15.460938 C 144.710938 15.566406 144.796875 15.566406 144.972656 15.566406 L 148.464844 15.566406 C 150.011719 15.566406 151.164063 14.414063 151.164063 13.457031 Z M 150.800781 10.199219 C 150.800781 11.058594 149.960938 11.988281 148.769531 11.988281 L 147.339844 11.988281 L 147.945313 9.5625 C 148.035156 9.21875 148.054688 9.191406 148.476563 9.191406 L 149.734375 9.191406 C 150.59375 9.191406 150.800781 9.769531 150.800781 10.199219 Z M 150.253906 13.347656 C 150.253906 14.316406 149.382813 15.265625 148.230469 15.265625 L 146.898438 15.265625 C 146.761719 15.265625 146.742188 15.265625 146.683594 15.253906 C 146.585938 15.246094 146.558594 15.234375 146.558594 15.15625 C 146.558594 15.128906 146.558594 15.109375 146.605469 14.933594 L 147.28125 12.203125 L 149.128906 12.203125 C 150.066406 12.203125 150.253906 12.929688 150.253906 13.347656 Z M 150.253906 13.347656 "/>
<path style=" stroke:none;fill-rule:evenodd;fill:rgb(0%,0%,0%);fill-opacity:1;" d="M 158.464844 10.09375 C 158.464844 9.6875 158.132813 9.355469 157.730469 9.355469 C 157.328125 9.355469 156.992188 9.6875 156.992188 10.09375 C 156.992188 10.496094 157.328125 10.828125 157.730469 10.828125 C 158.132813 10.828125 158.464844 10.496094 158.464844 10.09375 Z M 158.464844 10.09375 "/>
<path style=" stroke:none;fill-rule:evenodd;fill:rgb(0%,0%,0%);fill-opacity:1;" d="M 171.566406 11.023438 C 171.566406 9.898438 170.554688 8.785156 168.898438 8.601563 C 170.21875 8.351563 171.179688 7.464844 171.179688 6.421875 C 171.179688 5.226563 169.96875 4.070313 168.148438 4.070313 L 163.292969 4.070313 L 163.292969 4.472656 L 163.574219 4.472656 C 164.574219 4.472656 164.613281 4.613281 164.613281 5.128906 L 164.613281 12.511719 C 164.613281 13.027344 164.574219 13.164063 163.574219 13.164063 L 163.292969 13.164063 L 163.292969 13.570313 L 168.523438 13.570313 C 170.316406 13.570313 171.566406 12.359375 171.566406 11.023438 Z M 169.953125 6.421875 C 169.953125 7.339844 169.230469 8.492188 167.6875 8.492188 L 165.671875 8.492188 L 165.671875 5.03125 C 165.671875 4.570313 165.699219 4.472656 166.3125 4.472656 L 168.066406 4.472656 C 169.453125 4.472656 169.953125 5.667969 169.953125 6.421875 Z M 170.304688 11.007813 C 170.304688 12.136719 169.453125 13.164063 168.089844 13.164063 L 166.3125 13.164063 C 165.699219 13.164063 165.671875 13.070313 165.671875 12.609375 L 165.671875 8.769531 L 168.273438 8.769531 C 169.609375 8.769531 170.304688 9.9375 170.304688 11.007813 Z M 170.304688 11.007813 "/>
<path style=" stroke:none;fill-rule:evenodd;fill:rgb(0%,0%,0%);fill-opacity:1;" d="M 195.324219 10.105469 C 195.324219 9.84375 195.085938 9.84375 194.878906 9.84375 L 191.042969 9.84375 L 191.042969 6.003906 C 191.042969 5.808594 191.042969 5.558594 190.792969 5.558594 C 190.527344 5.558594 190.527344 5.796875 190.527344 6.003906 L 190.527344 9.84375 L 186.6875 9.84375 C 186.496094 9.84375 186.246094 9.84375 186.246094 10.09375 C 186.246094 10.355469 186.480469 10.355469 186.6875 10.355469 L 190.527344 10.355469 L 190.527344 14.195313 C 190.527344 14.390625 190.527344 14.640625 190.777344 14.640625 C 191.042969 14.640625 191.042969 14.402344 191.042969 14.195313 L 191.042969 10.355469 L 194.878906 10.355469 C 195.074219 10.355469 195.324219 10.355469 195.324219 10.105469 Z M 195.324219 10.105469 "/>
<path style=" stroke:none;fill-rule:evenodd;fill:rgb(0%,0%,0%);fill-opacity:1;" d="M 203.378906 11.914063 C 203.308594 12.148438 203.308594 12.179688 203.113281 12.441406 C 202.808594 12.832031 202.195313 13.429688 201.542969 13.429688 C 200.972656 13.429688 200.652344 12.914063 200.652344 12.09375 C 200.652344 11.328125 201.082031 9.773438 201.347656 9.1875 C 201.820313 8.214844 202.476563 7.714844 203.015625 7.714844 C 203.933594 7.714844 204.113281 8.855469 204.113281 8.964844 C 204.113281 8.964844 204.074219 9.160156 204.058594 9.1875 Z M 205.9375 11.578125 C 205.9375 11.511719 205.878906 11.453125 205.796875 11.453125 C 205.671875 11.453125 205.660156 11.523438 205.601563 11.734375 C 205.394531 12.554688 205.128906 13.429688 204.5625 13.429688 C 204.15625 13.429688 204.128906 13.070313 204.128906 12.789063 C 204.128906 12.46875 204.167969 12.316406 204.296875 11.773438 L 204.574219 10.71875 C 205.089844 8.632813 205.214844 8.132813 205.214844 8.046875 C 205.214844 7.855469 205.0625 7.699219 204.851563 7.699219 C 204.40625 7.699219 204.296875 8.1875 204.269531 8.351563 C 204.113281 7.992188 203.738281 7.4375 203.015625 7.4375 C 201.445313 7.4375 199.75 9.464844 199.75 11.523438 C 199.75 12.902344 200.554688 13.707031 201.5 13.707031 C 202.265625 13.707031 202.917969 13.109375 203.308594 12.652344 C 203.449219 13.472656 204.101563 13.707031 204.519531 13.707031 C 204.9375 13.707031 205.269531 13.457031 205.519531 12.957031 C 205.742188 12.484375 205.9375 11.636719 205.9375 11.578125 Z M 205.9375 11.578125 "/>
<path style=" stroke:none;fill-rule:evenodd;fill:rgb(0%,0%,0%);fill-opacity:1;" d="M 213.441406 15.371094 C 213.441406 15.265625 213.34375 15.265625 213.21875 15.265625 C 212.609375 15.265625 212.609375 15.195313 212.582031 14.914063 L 211.984375 8.800781 C 211.964844 8.605469 211.964844 8.566406 211.800781 8.566406 C 211.644531 8.566406 211.605469 8.632813 211.546875 8.730469 L 208.140625 14.445313 C 207.75 15.097656 207.371094 15.234375 206.9375 15.265625 C 206.820313 15.273438 206.734375 15.273438 206.734375 15.460938 C 206.734375 15.519531 206.78125 15.566406 206.859375 15.566406 C 207.125 15.566406 207.429688 15.539063 207.703125 15.539063 C 208.023438 15.539063 208.367188 15.566406 208.679688 15.566406 C 208.738281 15.566406 208.867188 15.566406 208.867188 15.382813 C 208.867188 15.273438 208.777344 15.265625 208.710938 15.265625 C 208.484375 15.246094 208.25 15.167969 208.25 14.921875 C 208.25 14.804688 208.308594 14.699219 208.386719 14.5625 C 208.457031 14.445313 208.464844 14.445313 209.128906 13.308594 L 211.585938 13.308594 C 211.605469 13.515625 211.742188 14.84375 211.742188 14.941406 C 211.742188 15.234375 211.234375 15.265625 211.035156 15.265625 C 210.898438 15.265625 210.800781 15.265625 210.800781 15.460938 C 210.800781 15.566406 210.9375 15.566406 210.9375 15.566406 C 211.339844 15.566406 211.761719 15.539063 212.160156 15.539063 C 212.40625 15.539063 213.023438 15.566406 213.269531 15.566406 C 213.324219 15.566406 213.441406 15.566406 213.441406 15.371094 Z M 211.554688 13.007813 L 209.316406 13.007813 L 211.242188 9.777344 Z M 211.554688 13.007813 "/>
<path style=" stroke:none;fill-rule:evenodd;fill:rgb(0%,0%,0%);fill-opacity:1;" d="M 220.554688 13.457031 C 220.554688 12.75 219.988281 12.183594 219.039063 12.078125 C 220.058594 11.890625 221.082031 11.167969 221.082031 10.238281 C 221.082031 9.515625 220.4375 8.890625 219.265625 8.890625 L 215.980469 8.890625 C 215.792969 8.890625 215.695313 8.890625 215.695313 9.085938 C 215.695313 9.191406 215.785156 9.191406 215.96875 9.191406 C 215.96875 9.191406 216.175781 9.191406 216.339844 9.210938 C 216.515625 9.230469 216.605469 9.242188 216.605469 9.367188 C 216.605469 9.40625 216.59375 9.4375 216.566406 9.554688 L 215.257813 14.804688 C 215.15625 15.1875 215.136719 15.265625 214.367188 15.265625 C 214.199219 15.265625 214.101563 15.265625 214.101563 15.460938 C 214.101563 15.566406 214.1875 15.566406 214.367188 15.566406 L 217.855469 15.566406 C 219.402344 15.566406 220.554688 14.414063 220.554688 13.457031 Z M 220.195313 10.199219 C 220.195313 11.058594 219.351563 11.988281 218.160156 11.988281 L 216.730469 11.988281 L 217.339844 9.5625 C 217.425781 9.21875 217.445313 9.191406 217.867188 9.191406 L 219.128906 9.191406 C 219.988281 9.191406 220.195313 9.769531 220.195313 10.199219 Z M 219.644531 13.347656 C 219.644531 14.316406 218.777344 15.265625 217.621094 15.265625 L 216.292969 15.265625 C 216.15625 15.265625 216.136719 15.265625 216.078125 15.253906 C 215.980469 15.246094 215.949219 15.234375 215.949219 15.15625 C 215.949219 15.128906 215.949219 15.109375 216 14.933594 L 216.671875 12.203125 L 218.519531 12.203125 C 219.460938 12.203125 219.644531 12.929688 219.644531 13.347656 Z M 219.644531 13.347656 "/>
<path style=" stroke:none;fill-rule:evenodd;fill:rgb(0%,0%,0%);fill-opacity:1;" d="M 227.859375 10.09375 C 227.859375 9.6875 227.523438 9.355469 227.121094 9.355469 C 226.71875 9.355469 226.382813 9.6875 226.382813 10.09375 C 226.382813 10.496094 226.71875 10.828125 227.121094 10.828125 C 227.523438 10.828125 227.859375 10.496094 227.859375 10.09375 Z M 227.859375 10.09375 "/>
<path style=" stroke:none;fill-rule:evenodd;fill:rgb(0%,0%,0%);fill-opacity:1;" d="M 241.949219 13.570313 L 241.949219 13.164063 C 241.046875 13.164063 240.796875 13.164063 240.601563 12.59375 L 237.570313 3.890625 C 237.515625 3.722656 237.484375 3.640625 237.292969 3.640625 C 237.097656 3.640625 237.070313 3.683594 237 3.902344 L 234.09375 12.21875 C 233.898438 12.789063 233.511719 13.152344 232.621094 13.164063 L 232.621094 13.570313 L 233.953125 13.539063 C 234.34375 13.539063 235.011719 13.539063 235.371094 13.570313 L 235.371094 13.164063 C 234.789063 13.152344 234.441406 12.859375 234.441406 12.46875 C 234.441406 12.386719 234.441406 12.359375 234.511719 12.179688 L 235.152344 10.328125 L 238.65625 10.328125 L 239.417969 12.511719 C 239.488281 12.679688 239.488281 12.707031 239.488281 12.75 C 239.488281 13.164063 238.78125 13.164063 238.433594 13.164063 L 238.433594 13.570313 C 238.75 13.539063 239.851563 13.539063 240.238281 13.539063 C 240.628906 13.539063 241.632813 13.539063 241.949219 13.570313 Z M 238.515625 9.925781 L 235.289063 9.925781 L 236.902344 5.292969 Z M 238.515625 9.925781 "/>
<path style=" stroke:none;fill-rule:evenodd;fill:rgb(0%,0%,0%);fill-opacity:1;" d="M 248.15625 10.09375 C 248.15625 9.6875 247.824219 9.355469 247.421875 9.355469 C 247.015625 9.355469 246.683594 9.6875 246.683594 10.09375 C 246.683594 10.496094 247.015625 10.828125 247.421875 10.828125 C 247.824219 10.828125 248.15625 10.496094 248.15625 10.09375 Z M 248.15625 10.09375 "/>
<path style=" stroke:none;fill-rule:evenodd;fill:rgb(0%,0%,0%);fill-opacity:1;" d="M 261.359375 11.023438 C 261.359375 9.898438 260.34375 8.785156 258.6875 8.601563 C 260.007813 8.351563 260.96875 7.464844 260.96875 6.421875 C 260.96875 5.226563 259.757813 4.070313 257.9375 4.070313 L 253.085938 4.070313 L 253.085938 4.472656 L 253.363281 4.472656 C 254.363281 4.472656 254.40625 4.613281 254.40625 5.128906 L 254.40625 12.511719 C 254.40625 13.027344 254.363281 13.164063 253.363281 13.164063 L 253.085938 13.164063 L 253.085938 13.570313 L 258.3125 13.570313 C 260.109375 13.570313 261.359375 12.359375 261.359375 11.023438 Z M 259.746094 6.421875 C 259.746094 7.339844 259.023438 8.492188 257.476563 8.492188 L 255.464844 8.492188 L 255.464844 5.03125 C 255.464844 4.570313 255.492188 4.472656 256.101563 4.472656 L 257.855469 4.472656 C 259.246094 4.472656 259.746094 5.667969 259.746094 6.421875 Z M 260.09375 11.007813 C 260.09375 12.136719 259.246094 13.164063 257.878906 13.164063 L 256.101563 13.164063 C 255.492188 13.164063 255.464844 13.070313 255.464844 12.609375 L 255.464844 8.769531 L 258.0625 8.769531 C 259.398438 8.769531 260.09375 9.9375 260.09375 11.007813 Z M 260.09375 11.007813 "/>
<path style=" stroke:none;fill-rule:evenodd;fill:rgb(0%,0%,0%);fill-opacity:1;" d="M 7.085938 22.867188 C 7.085938 22.449219 6.753906 22.1875 6.417969 22.1875 C 6.027344 22.1875 5.738281 22.492188 5.738281 22.867188 C 5.738281 23.226563 6.042969 23.535156 6.402344 23.535156 C 6.824219 23.535156 7.085938 23.203125 7.085938 22.867188 Z M 7.085938 22.867188 "/>
<path style=" stroke:none;fill-rule:evenodd;fill:rgb(0%,0%,0%);fill-opacity:1;" d="M 10.484375 32.519531 C 10.484375 31.394531 9.46875 30.28125 7.816406 30.101563 C 9.136719 29.851563 10.09375 28.960938 10.09375 27.917969 C 10.09375 26.722656 8.886719 25.570313 7.066406 25.570313 L 2.210938 25.570313 L 2.210938 25.972656 L 2.488281 25.972656 C 3.492188 25.972656 3.53125 26.109375 3.53125 26.625 L 3.53125 34.011719 C 3.53125 34.523438 3.492188 34.664063 2.488281 34.664063 L 2.210938 34.664063 L 2.210938 35.066406 L 7.441406 35.066406 C 9.234375 35.066406 10.484375 33.855469 10.484375 32.519531 Z M 8.871094 27.917969 C 8.871094 28.835938 8.148438 29.988281 6.605469 29.988281 L 4.589844 29.988281 L 4.589844 26.527344 C 4.589844 26.070313 4.617188 25.972656 5.230469 25.972656 L 6.980469 25.972656 C 8.371094 25.972656 8.871094 27.167969 8.871094 27.917969 Z M 9.21875 32.507813 C 9.21875 33.632813 8.371094 34.664063 7.007813 34.664063 L 5.230469 34.664063 C 4.617188 34.664063 4.589844 34.566406 4.589844 34.105469 L 4.589844 30.269531 L 7.191406 30.269531 C 8.527344 30.269531 9.21875 31.4375 9.21875 32.507813 Z M 9.21875 32.507813 "/>
<path style=" stroke:none;fill-rule:evenodd;fill:rgb(0%,0%,0%);fill-opacity:1;" d="M 24.945313 30.308594 C 24.945313 30.046875 24.707031 30.046875 24.5 30.046875 L 16.308594 30.046875 C 16.113281 30.046875 15.863281 30.046875 15.863281 30.296875 C 15.863281 30.558594 16.097656 30.558594 16.308594 30.558594 L 24.5 30.558594 C 24.695313 30.558594 24.945313 30.558594 24.945313 30.308594 Z M 24.945313 32.898438 C 24.945313 32.632813 24.707031 32.632813 24.5 32.632813 L 16.308594 32.632813 C 16.113281 32.632813 15.863281 32.632813 15.863281 32.882813 C 15.863281 33.148438 16.097656 33.148438 16.308594 33.148438 L 24.5 33.148438 C 24.695313 33.148438 24.945313 33.148438 24.945313 32.898438 Z M 24.945313 32.898438 "/>
<path style=" stroke:none;fill-rule:evenodd;fill:rgb(0%,0%,0%);fill-opacity:1;" d="M 41.3125 31.117188 C 41.3125 29.835938 40.589844 28.933594 39.546875 28.933594 C 38.824219 28.933594 38.171875 29.53125 37.90625 29.808594 L 38.921875 25.761719 C 38.9375 25.707031 38.964844 25.625 38.964844 25.554688 C 38.964844 25.414063 38.796875 25.414063 38.796875 25.414063 L 38.03125 25.484375 C 37.796875 25.5 37.585938 25.527344 37.335938 25.539063 C 37.003906 25.570313 36.90625 25.582031 36.90625 25.832031 C 36.90625 25.972656 37.042969 25.972656 37.183594 25.972656 C 37.890625 25.972656 37.890625 26.097656 37.890625 26.234375 C 37.890625 26.332031 37.78125 26.738281 37.726563 26.988281 L 37.394531 28.320313 L 36.40625 32.285156 C 36.335938 32.632813 36.335938 32.871094 36.335938 33.050781 C 36.335938 34.46875 37.128906 35.207031 38.03125 35.207031 C 39.644531 35.207031 41.3125 33.132813 41.3125 31.117188 Z M 39.671875 33.507813 C 39.324219 34.261719 38.6875 34.925781 38.046875 34.925781 C 37.601563 34.925781 37.113281 34.59375 37.113281 33.507813 C 37.113281 33.050781 37.15625 32.785156 37.40625 31.8125 L 37.726563 30.558594 C 37.753906 30.449219 38.574219 29.210938 39.519531 29.210938 C 40.132813 29.210938 40.410156 29.824219 40.410156 30.546875 C 40.410156 31.214844 40.019531 32.785156 39.671875 33.507813 Z M 39.671875 33.507813 "/>
<path style=" stroke:none;fill-rule:evenodd;fill:rgb(0%,0%,0%);fill-opacity:1;" d="M 46.007813 34.035156 C 46.007813 33.253906 45.957031 32.472656 45.617188 31.746094 C 45.167969 30.808594 44.367188 30.652344 43.953125 30.652344 C 43.367188 30.652344 42.652344 30.90625 42.253906 31.816406 C 41.9375 32.492188 41.890625 33.253906 41.890625 34.035156 C 41.890625 34.769531 41.929688 35.652344 42.332031 36.394531 C 42.75 37.1875 43.464844 37.382813 43.945313 37.382813 C 44.472656 37.382813 45.214844 37.175781 45.644531 36.246094 C 45.957031 35.574219 46.007813 34.808594 46.007813 34.035156 Z M 45.195313 33.917969 C 45.195313 34.652344 45.195313 35.316406 45.089844 35.945313 C 44.941406 36.871094 44.382813 37.164063 43.945313 37.164063 C 43.5625 37.164063 42.984375 36.921875 42.8125 35.984375 C 42.703125 35.394531 42.703125 34.496094 42.703125 33.917969 C 42.703125 33.292969 42.703125 32.648438 42.78125 32.121094 C 42.96875 30.957031 43.699219 30.867188 43.945313 30.867188 C 44.265625 30.867188 44.910156 31.042969 45.097656 32.011719 C 45.195313 32.558594 45.195313 33.300781 45.195313 33.917969 Z M 45.195313 33.917969 "/>
<path style=" stroke:none;fill-rule:evenodd;fill:rgb(0%,0%,0%);fill-opacity:1;" d="M 71.140625 31.605469 C 71.140625 31.339844 70.902344 31.339844 70.695313 31.339844 L 66.855469 31.339844 L 66.855469 27.5 C 66.855469 27.304688 66.855469 27.054688 66.605469 27.054688 C 66.339844 27.054688 66.339844 27.292969 66.339844 27.5 L 66.339844 31.339844 L 62.503906 31.339844 C 62.308594 31.339844 62.058594 31.339844 62.058594 31.589844 C 62.058594 31.855469 62.292969 31.855469 62.503906 31.855469 L 66.339844 31.855469 L 66.339844 35.691406 C 66.339844 35.886719 66.339844 36.136719 66.589844 36.136719 C 66.855469 36.136719 66.855469 35.902344 66.855469 35.691406 L 66.855469 31.855469 L 70.695313 31.855469 C 70.890625 31.855469 71.140625 31.855469 71.140625 31.605469 Z M 71.140625 31.605469 "/>
<path style=" stroke:none;fill-rule:evenodd;fill:rgb(0%,0%,0%);fill-opacity:1;" d="M 80.609375 31.117188 C 80.609375 29.835938 79.886719 28.933594 78.84375 28.933594 C 78.121094 28.933594 77.464844 29.53125 77.203125 29.808594 L 78.21875 25.761719 C 78.230469 25.707031 78.261719 25.625 78.261719 25.554688 C 78.261719 25.414063 78.09375 25.414063 78.09375 25.414063 L 77.328125 25.484375 C 77.089844 25.5 76.882813 25.527344 76.632813 25.539063 C 76.300781 25.570313 76.199219 25.582031 76.199219 25.832031 C 76.199219 25.972656 76.339844 25.972656 76.480469 25.972656 C 77.1875 25.972656 77.1875 26.097656 77.1875 26.234375 C 77.1875 26.332031 77.078125 26.738281 77.023438 26.988281 L 76.6875 28.320313 L 75.699219 32.285156 C 75.632813 32.632813 75.632813 32.871094 75.632813 33.050781 C 75.632813 34.46875 76.425781 35.207031 77.328125 35.207031 C 78.941406 35.207031 80.609375 33.132813 80.609375 31.117188 Z M 78.96875 33.507813 C 78.621094 34.261719 77.980469 34.925781 77.339844 34.925781 C 76.894531 34.925781 76.410156 34.59375 76.410156 33.507813 C 76.410156 33.050781 76.453125 32.785156 76.703125 31.8125 L 77.023438 30.558594 C 77.050781 30.449219 77.871094 29.210938 78.816406 29.210938 C 79.425781 29.210938 79.707031 29.824219 79.707031 30.546875 C 79.707031 31.214844 79.316406 32.785156 78.96875 33.507813 Z M 78.96875 33.507813 "/>
<path style=" stroke:none;fill-rule:evenodd;fill:rgb(0%,0%,0%);fill-opacity:1;" d="M 87.855469 36.96875 C 87.855469 36.863281 87.757813 36.863281 87.632813 36.863281 C 87.023438 36.863281 87.023438 36.792969 86.996094 36.511719 L 86.398438 30.398438 C 86.378906 30.203125 86.378906 30.164063 86.214844 30.164063 C 86.054688 30.164063 86.015625 30.230469 85.960938 30.328125 L 82.554688 36.042969 C 82.164063 36.699219 81.78125 36.832031 81.351563 36.863281 C 81.234375 36.871094 81.148438 36.871094 81.148438 37.058594 C 81.148438 37.117188 81.195313 37.164063 81.273438 37.164063 C 81.539063 37.164063 81.84375 37.136719 82.117188 37.136719 C 82.4375 37.136719 82.78125 37.164063 83.09375 37.164063 C 83.152344 37.164063 83.28125 37.164063 83.28125 36.980469 C 83.28125 36.871094 83.191406 36.863281 83.125 36.863281 C 82.898438 36.84375 82.664063 36.765625 82.664063 36.519531 C 82.664063 36.402344 82.722656 36.296875 82.800781 36.160156 C 82.867188 36.042969 82.878906 36.042969 83.542969 34.90625 L 86 34.90625 C 86.015625 35.113281 86.15625 36.441406 86.15625 36.539063 C 86.15625 36.832031 85.648438 36.863281 85.449219 36.863281 C 85.3125 36.863281 85.214844 36.863281 85.214844 37.058594 C 85.214844 37.164063 85.351563 37.164063 85.351563 37.164063 C 85.753906 37.164063 86.175781 37.136719 86.574219 37.136719 C 86.820313 37.136719 87.4375 37.164063 87.679688 37.164063 C 87.738281 37.164063 87.855469 37.164063 87.855469 36.96875 Z M 85.96875 34.605469 L 83.730469 34.605469 L 85.65625 31.375 Z M 85.96875 34.605469 "/>
<path style=" stroke:none;fill-rule:evenodd;fill:rgb(0%,0%,0%);fill-opacity:1;" d="M 94.472656 31.589844 C 94.472656 31.1875 94.140625 30.851563 93.738281 30.851563 C 93.332031 30.851563 93 31.1875 93 31.589844 C 93 31.992188 93.332031 32.328125 93.738281 32.328125 C 94.140625 32.328125 94.472656 31.992188 94.472656 31.589844 Z M 94.472656 31.589844 "/>
<path style=" stroke:none;fill-rule:evenodd;fill:rgb(0%,0%,0%);fill-opacity:1;" d="M 108.464844 35.066406 L 108.464844 34.664063 C 107.5625 34.664063 107.308594 34.664063 107.117188 34.09375 L 104.085938 25.386719 C 104.03125 25.21875 104 25.136719 103.808594 25.136719 C 103.613281 25.136719 103.582031 25.179688 103.515625 25.402344 L 100.609375 33.71875 C 100.414063 34.289063 100.023438 34.648438 99.132813 34.664063 L 99.132813 35.066406 L 100.46875 35.039063 C 100.859375 35.039063 101.527344 35.039063 101.886719 35.066406 L 101.886719 34.664063 C 101.304688 34.648438 100.957031 34.355469 100.957031 33.96875 C 100.957031 33.882813 100.957031 33.855469 101.023438 33.675781 L 101.664063 31.824219 L 105.167969 31.824219 L 105.933594 34.011719 C 106.003906 34.175781 106.003906 34.203125 106.003906 34.246094 C 106.003906 34.664063 105.292969 34.664063 104.945313 34.664063 L 104.945313 35.066406 C 105.265625 35.039063 106.367188 35.039063 106.753906 35.039063 C 107.144531 35.039063 108.144531 35.039063 108.464844 35.066406 Z M 105.03125 31.421875 L 101.804688 31.421875 L 103.417969 26.792969 Z M 105.03125 31.421875 "/>
<path style=" stroke:none;fill-rule:evenodd;fill:rgb(0%,0%,0%);fill-opacity:1;" d="M 133.230469 31.605469 C 133.230469 31.339844 132.996094 31.339844 132.789063 31.339844 L 128.949219 31.339844 L 128.949219 27.5 C 128.949219 27.304688 128.949219 27.054688 128.699219 27.054688 C 128.433594 27.054688 128.433594 27.292969 128.433594 27.5 L 128.433594 31.339844 L 124.59375 31.339844 C 124.402344 31.339844 124.152344 31.339844 124.152344 31.589844 C 124.152344 31.855469 124.386719 31.855469 124.59375 31.855469 L 128.433594 31.855469 L 128.433594 35.691406 C 128.433594 35.886719 128.433594 36.136719 128.683594 36.136719 C 128.949219 36.136719 128.949219 35.902344 128.949219 35.691406 L 128.949219 31.855469 L 132.789063 31.855469 C 132.980469 31.855469 133.230469 31.855469 133.230469 31.605469 Z M 133.230469 31.605469 "/>
<path style=" stroke:none;fill-rule:evenodd;fill:rgb(0%,0%,0%);fill-opacity:1;" d="M 142.703125 31.117188 C 142.703125 29.835938 141.980469 28.933594 140.9375 28.933594 C 140.214844 28.933594 139.558594 29.53125 139.296875 29.808594 L 140.3125 25.761719 C 140.324219 25.707031 140.355469 25.625 140.355469 25.554688 C 140.355469 25.414063 140.1875 25.414063 140.1875 25.414063 L 139.421875 25.484375 C 139.183594 25.5 138.976563 25.527344 138.726563 25.539063 C 138.394531 25.570313 138.292969 25.582031 138.292969 25.832031 C 138.292969 25.972656 138.433594 25.972656 138.570313 25.972656 C 139.28125 25.972656 139.28125 26.097656 139.28125 26.234375 C 139.28125 26.332031 139.171875 26.738281 139.117188 26.988281 L 138.78125 28.320313 L 137.792969 32.285156 C 137.726563 32.632813 137.726563 32.871094 137.726563 33.050781 C 137.726563 34.46875 138.519531 35.207031 139.421875 35.207031 C 141.035156 35.207031 142.703125 33.132813 142.703125 31.117188 Z M 141.0625 33.507813 C 140.714844 34.261719 140.074219 34.925781 139.433594 34.925781 C 138.988281 34.925781 138.503906 34.59375 138.503906 33.507813 C 138.503906 33.050781 138.546875 32.785156 138.796875 31.8125 L 139.117188 30.558594 C 139.144531 30.449219 139.964844 29.210938 140.910156 29.210938 C 141.519531 29.210938 141.796875 29.824219 141.796875 30.546875 C 141.796875 31.214844 141.410156 32.785156 141.0625 33.507813 Z M 141.0625 33.507813 "/>
<path style=" stroke:none;fill-rule:evenodd;fill:rgb(0%,0%,0%);fill-opacity:1;" d="M 149.761719 35.054688 C 149.761719 34.347656 149.195313 33.78125 148.246094 33.675781 C 149.265625 33.488281 150.292969 32.765625 150.292969 31.835938 C 150.292969 31.113281 149.644531 30.488281 148.472656 30.488281 L 145.1875 30.488281 C 145 30.488281 144.902344 30.488281 144.902344 30.683594 C 144.902344 30.789063 144.992188 30.789063 145.179688 30.789063 C 145.179688 30.789063 145.382813 30.789063 145.546875 30.808594 C 145.726563 30.828125 145.8125 30.839844 145.8125 30.964844 C 145.8125 31.003906 145.804688 31.035156 145.773438 31.152344 L 144.464844 36.402344 C 144.363281 36.785156 144.34375 36.863281 143.574219 36.863281 C 143.40625 36.863281 143.308594 36.863281 143.308594 37.058594 C 143.308594 37.164063 143.394531 37.164063 143.574219 37.164063 L 147.066406 37.164063 C 148.609375 37.164063 149.761719 36.011719 149.761719 35.054688 Z M 149.402344 31.796875 C 149.402344 32.65625 148.5625 33.585938 147.367188 33.585938 L 145.941406 33.585938 L 146.546875 31.160156 C 146.632813 30.816406 146.652344 30.789063 147.074219 30.789063 L 148.335938 30.789063 C 149.195313 30.789063 149.402344 31.367188 149.402344 31.796875 Z M 148.855469 34.945313 C 148.855469 35.914063 147.984375 36.863281 146.828125 36.863281 L 145.5 36.863281 C 145.363281 36.863281 145.34375 36.863281 145.285156 36.851563 C 145.1875 36.84375 145.15625 36.832031 145.15625 36.753906 C 145.15625 36.726563 145.15625 36.707031 145.207031 36.53125 L 145.882813 33.800781 L 147.730469 33.800781 C 148.667969 33.800781 148.855469 34.527344 148.855469 34.945313 Z M 148.855469 34.945313 "/>
<path style=" stroke:none;fill-rule:evenodd;fill:rgb(0%,0%,0%);fill-opacity:1;" d="M 157.066406 31.589844 C 157.066406 31.1875 156.734375 30.851563 156.328125 30.851563 C 155.925781 30.851563 155.59375 31.1875 155.59375 31.589844 C 155.59375 31.992188 155.925781 32.328125 156.328125 32.328125 C 156.734375 32.328125 157.066406 31.992188 157.066406 31.589844 Z M 157.066406 31.589844 "/>
<path style=" stroke:none;fill-rule:evenodd;fill:rgb(0%,0%,0%);fill-opacity:1;" d="M 170.269531 32.519531 C 170.269531 31.394531 169.253906 30.28125 167.597656 30.101563 C 168.917969 29.851563 169.878906 28.960938 169.878906 27.917969 C 169.878906 26.722656 168.667969 25.570313 166.847656 25.570313 L 161.996094 25.570313 L 161.996094 25.972656 L 162.273438 25.972656 C 163.273438 25.972656 163.316406 26.109375 163.316406 26.625 L 163.316406 34.011719 C 163.316406 34.523438 163.273438 34.664063 162.273438 34.664063 L 161.996094 34.664063 L 161.996094 35.066406 L 167.222656 35.066406 C 169.015625 35.066406 170.269531 33.855469 170.269531 32.519531 Z M 168.65625 27.917969 C 168.65625 28.835938 167.929688 29.988281 166.386719 29.988281 L 164.371094 29.988281 L 164.371094 26.527344 C 164.371094 26.070313 164.402344 25.972656 165.011719 25.972656 L 166.765625 25.972656 C 168.15625 25.972656 168.65625 27.167969 168.65625 27.917969 Z M 169.003906 32.507813 C 169.003906 33.632813 168.15625 34.664063 166.789063 34.664063 L 165.011719 34.664063 C 164.402344 34.664063 164.371094 34.566406 164.371094 34.105469 L 164.371094 30.269531 L 166.972656 30.269531 C 168.308594 30.269531 169.003906 31.4375 169.003906 32.507813 Z M 169.003906 32.507813 "/>
<path style=" stroke:none;fill-rule:evenodd;fill:rgb(0%,0%,0%);fill-opacity:1;" d="M 195.324219 31.605469 C 195.324219 31.339844 195.085938 31.339844 194.878906 31.339844 L 191.042969 31.339844 L 191.042969 27.5 C 191.042969 27.304688 191.042969 27.054688 190.792969 27.054688 C 190.527344 27.054688 190.527344 27.292969 190.527344 27.5 L 190.527344 31.339844 L 186.6875 31.339844 C 186.496094 31.339844 186.246094 31.339844 186.246094 31.589844 C 186.246094 31.855469 186.480469 31.855469 186.6875 31.855469 L 190.527344 31.855469 L 190.527344 35.691406 C 190.527344 35.886719 190.527344 36.136719 190.777344 36.136719 C 191.042969 36.136719 191.042969 35.902344 191.042969 35.691406 L 191.042969 31.855469 L 194.878906 31.855469 C 195.074219 31.855469 195.324219 31.855469 195.324219 31.605469 Z M 195.324219 31.605469 "/>
<path style=" stroke:none;fill-rule:evenodd;fill:rgb(0%,0%,0%);fill-opacity:1;" d="M 204.796875 31.117188 C 204.796875 29.835938 204.074219 28.933594 203.03125 28.933594 C 202.308594 28.933594 201.652344 29.53125 201.390625 29.808594 L 202.40625 25.761719 C 202.417969 25.707031 202.445313 25.625 202.445313 25.554688 C 202.445313 25.414063 202.28125 25.414063 202.28125 25.414063 L 201.515625 25.484375 C 201.277344 25.5 201.070313 25.527344 200.820313 25.539063 C 200.484375 25.570313 200.386719 25.582031 200.386719 25.832031 C 200.386719 25.972656 200.527344 25.972656 200.664063 25.972656 C 201.375 25.972656 201.375 26.097656 201.375 26.234375 C 201.375 26.332031 201.265625 26.738281 201.210938 26.988281 L 200.875 28.320313 L 199.886719 32.285156 C 199.820313 32.632813 199.820313 32.871094 199.820313 33.050781 C 199.820313 34.46875 200.609375 35.207031 201.515625 35.207031 C 203.128906 35.207031 204.796875 33.132813 204.796875 31.117188 Z M 203.15625 33.507813 C 202.808594 34.261719 202.167969 34.925781 201.527344 34.925781 C 201.082031 34.925781 200.597656 34.59375 200.597656 33.507813 C 200.597656 33.050781 200.640625 32.785156 200.890625 31.8125 L 201.210938 30.558594 C 201.234375 30.449219 202.058594 29.210938 203.003906 29.210938 C 203.613281 29.210938 203.890625 29.824219 203.890625 30.546875 C 203.890625 31.214844 203.503906 32.785156 203.15625 33.507813 Z M 203.15625 33.507813 "/>
<path style=" stroke:none;fill-rule:evenodd;fill:rgb(0%,0%,0%);fill-opacity:1;" d="M 212.042969 36.96875 C 212.042969 36.863281 211.945313 36.863281 211.816406 36.863281 C 211.210938 36.863281 211.210938 36.792969 211.183594 36.511719 L 210.585938 30.398438 C 210.566406 30.203125 210.566406 30.164063 210.398438 30.164063 C 210.242188 30.164063 210.203125 30.230469 210.144531 30.328125 L 206.742188 36.042969 C 206.351563 36.699219 205.96875 36.832031 205.539063 36.863281 C 205.421875 36.871094 205.332031 36.871094 205.332031 37.058594 C 205.332031 37.117188 205.382813 37.164063 205.460938 37.164063 C 205.722656 37.164063 206.03125 37.136719 206.300781 37.136719 C 206.625 37.136719 206.964844 37.164063 207.28125 37.164063 C 207.339844 37.164063 207.464844 37.164063 207.464844 36.980469 C 207.464844 36.871094 207.378906 36.863281 207.308594 36.863281 C 207.085938 36.84375 206.847656 36.765625 206.847656 36.519531 C 206.847656 36.402344 206.910156 36.296875 206.988281 36.160156 C 207.054688 36.042969 207.0625 36.042969 207.730469 34.90625 L 210.183594 34.90625 C 210.203125 35.113281 210.339844 36.441406 210.339844 36.539063 C 210.339844 36.832031 209.832031 36.863281 209.636719 36.863281 C 209.5 36.863281 209.402344 36.863281 209.402344 37.058594 C 209.402344 37.164063 209.539063 37.164063 209.539063 37.164063 C 209.9375 37.164063 210.359375 37.136719 210.761719 37.136719 C 211.007813 37.136719 211.621094 37.164063 211.867188 37.164063 C 211.925781 37.164063 212.042969 37.164063 212.042969 36.96875 Z M 210.15625 34.605469 L 207.917969 34.605469 L 209.84375 31.375 Z M 210.15625 34.605469 "/>
<path style=" stroke:none;fill-rule:evenodd;fill:rgb(0%,0%,0%);fill-opacity:1;" d="M 219.15625 35.054688 C 219.15625 34.347656 218.589844 33.78125 217.640625 33.675781 C 218.65625 33.488281 219.683594 32.765625 219.683594 31.835938 C 219.683594 31.113281 219.039063 30.488281 217.863281 30.488281 L 214.578125 30.488281 C 214.394531 30.488281 214.296875 30.488281 214.296875 30.683594 C 214.296875 30.789063 214.382813 30.789063 214.570313 30.789063 C 214.570313 30.789063 214.773438 30.789063 214.941406 30.808594 C 215.117188 30.828125 215.203125 30.839844 215.203125 30.964844 C 215.203125 31.003906 215.195313 31.035156 215.164063 31.152344 L 213.855469 36.402344 C 213.757813 36.785156 213.738281 36.863281 212.964844 36.863281 C 212.800781 36.863281 212.703125 36.863281 212.703125 37.058594 C 212.703125 37.164063 212.789063 37.164063 212.964844 37.164063 L 216.457031 37.164063 C 218.003906 37.164063 219.15625 36.011719 219.15625 35.054688 Z M 218.796875 31.796875 C 218.796875 32.65625 217.953125 33.585938 216.761719 33.585938 L 215.332031 33.585938 L 215.9375 31.160156 C 216.027344 30.816406 216.046875 30.789063 216.46875 30.789063 L 217.726563 30.789063 C 218.589844 30.789063 218.796875 31.367188 218.796875 31.796875 Z M 218.246094 34.945313 C 218.246094 35.914063 217.375 36.863281 216.222656 36.863281 L 214.890625 36.863281 C 214.753906 36.863281 214.734375 36.863281 214.675781 36.851563 C 214.578125 36.84375 214.550781 36.832031 214.550781 36.753906 C 214.550781 36.726563 214.550781 36.707031 214.597656 36.53125 L 215.273438 33.800781 L 217.121094 33.800781 C 218.058594 33.800781 218.246094 34.527344 218.246094 34.945313 Z M 218.246094 34.945313 "/>
<path style=" stroke:none;fill-rule:evenodd;fill:rgb(0%,0%,0%);fill-opacity:1;" d="M 226.460938 31.589844 C 226.460938 31.1875 226.125 30.851563 225.722656 30.851563 C 225.320313 30.851563 224.984375 31.1875 224.984375 31.589844 C 224.984375 31.992188 225.320313 32.328125 225.722656 32.328125 C 226.125 32.328125 226.460938 31.992188 226.460938 31.589844 Z M 226.460938 31.589844 "/>
<path style=" stroke:none;fill-rule:evenodd;fill:rgb(0%,0%,0%);fill-opacity:1;" d="M 240.550781 35.066406 L 240.550781 34.664063 C 239.648438 34.664063 239.394531 34.664063 239.203125 34.09375 L 236.171875 25.386719 C 236.113281 25.21875 236.085938 25.136719 235.894531 25.136719 C 235.699219 25.136719 235.667969 25.179688 235.601563 25.402344 L 232.695313 33.71875 C 232.5 34.289063 232.109375 34.648438 231.21875 34.664063 L 231.21875 35.066406 L 232.554688 35.039063 C 232.945313 35.039063 233.613281 35.039063 233.972656 35.066406 L 233.972656 34.664063 C 233.386719 34.648438 233.042969 34.355469 233.042969 33.96875 C 233.042969 33.882813 233.042969 33.855469 233.109375 33.675781 L 233.75 31.824219 L 237.253906 31.824219 L 238.019531 34.011719 C 238.089844 34.175781 238.089844 34.203125 238.089844 34.246094 C 238.089844 34.664063 237.378906 34.664063 237.03125 34.664063 L 237.03125 35.066406 C 237.351563 35.039063 238.449219 35.039063 238.839844 35.039063 C 239.230469 35.039063 240.230469 35.039063 240.550781 35.066406 Z M 237.117188 31.421875 L 233.890625 31.421875 L 235.503906 26.792969 Z M 237.117188 31.421875 "/>
<path style=" stroke:none;fill-rule:evenodd;fill:rgb(0%,0%,0%);fill-opacity:1;" d="M 246.757813 31.589844 C 246.757813 31.1875 246.421875 30.851563 246.019531 30.851563 C 245.617188 30.851563 245.28125 31.1875 245.28125 31.589844 C 245.28125 31.992188 245.617188 32.328125 246.019531 32.328125 C 246.421875 32.328125 246.757813 31.992188 246.757813 31.589844 Z M 246.757813 31.589844 "/>
<path style=" stroke:none;fill-rule:evenodd;fill:rgb(0%,0%,0%);fill-opacity:1;" d="M 259.957031 32.519531 C 259.957031 31.394531 258.945313 30.28125 257.289063 30.101563 C 258.609375 29.851563 259.570313 28.960938 259.570313 27.917969 C 259.570313 26.722656 258.359375 25.570313 256.539063 25.570313 L 251.683594 25.570313 L 251.683594 25.972656 L 251.964844 25.972656 C 252.964844 25.972656 253.003906 26.109375 253.003906 26.625 L 253.003906 34.011719 C 253.003906 34.523438 252.964844 34.664063 251.964844 34.664063 L 251.683594 34.664063 L 251.683594 35.066406 L 256.914063 35.066406 C 258.707031 35.066406 259.957031 33.855469 259.957031 32.519531 Z M 258.34375 27.917969 C 258.34375 28.835938 257.621094 29.988281 256.078125 29.988281 L 254.0625 29.988281 L 254.0625 26.527344 C 254.0625 26.070313 254.089844 25.972656 254.703125 25.972656 L 256.453125 25.972656 C 257.84375 25.972656 258.34375 27.167969 258.34375 27.917969 Z M 258.695313 32.507813 C 258.695313 33.632813 257.84375 34.664063 256.480469 34.664063 L 254.703125 34.664063 C 254.089844 34.664063 254.0625 34.566406 254.0625 34.105469 L 254.0625 30.269531 L 256.664063 30.269531 C 258 30.269531 258.695313 31.4375 258.695313 32.507813 Z M 258.695313 32.507813 "/>
</g>
</svg>
