<?xml version="1.0" encoding="UTF-8"?>
<svg xmlns="http://www.w3.org/2000/svg" xmlns:xlink="http://www.w3.org/1999/xlink" width="217pt" height="50pt" viewBox="0 0 217 50" version="1.1">
<g id="surface108">
<path style=" stroke:none;fill-rule:evenodd;fill:rgb(0%,0%,0%);fill-opacity:1;" d="M 7.605469 25.160156 C 7.621094 25.089844 7.648438 25.007813 7.648438 24.921875 C 7.648438 24.714844 7.480469 24.574219 7.273438 24.574219 C 7.148438 24.574219 6.855469 24.628906 6.746094 25.046875 L 5.714844 29.136719 C 5.644531 29.386719 5.644531 29.414063 5.535156 29.566406 C 5.257813 29.957031 4.796875 30.429688 4.128906 30.429688 C 3.351563 30.429688 3.28125 29.664063 3.28125 29.289063 C 3.28125 28.496094 3.65625 27.425781 4.03125 26.425781 C 4.183594 26.023438 4.269531 25.828125 4.269531 25.550781 C 4.269531 24.964844 3.851563 24.4375 3.167969 24.4375 C 1.890625 24.4375 1.375 26.453125 1.375 26.566406 C 1.375 26.621094 1.433594 26.691406 1.527344 26.691406 C 1.652344 26.691406 1.667969 26.632813 1.722656 26.441406 C 2.058594 25.269531 2.585938 24.714844 3.128906 24.714844 C 3.253906 24.714844 3.488281 24.714844 3.488281 25.175781 C 3.488281 25.535156 3.335938 25.9375 3.128906 26.464844 C 2.449219 28.289063 2.449219 28.746094 2.449219 29.082031 C 2.449219 30.402344 3.394531 30.707031 4.089844 30.707031 C 4.492188 30.707031 4.992188 30.582031 5.480469 30.070313 L 5.492188 30.082031 C 5.285156 30.902344 5.144531 31.445313 4.660156 32.125 C 4.285156 32.65625 3.738281 33.128906 3.058594 33.128906 C 2.890625 33.128906 2.222656 33.101563 2.015625 32.460938 C 2.058594 32.472656 2.15625 32.472656 2.15625 32.472656 C 2.574219 32.472656 2.851563 32.113281 2.851563 31.792969 C 2.851563 31.472656 2.585938 31.359375 2.378906 31.359375 C 2.15625 31.359375 1.667969 31.527344 1.667969 32.210938 C 1.667969 32.917969 2.265625 33.40625 3.058594 33.40625 C 4.449219 33.40625 5.855469 32.125 6.246094 30.582031 Z M 7.605469 25.160156 "/>
<path style=" stroke:none;fill-rule:evenodd;fill:rgb(0%,0%,0%);fill-opacity:1;" d="M 21.832031 25.8125 C 21.832031 25.550781 21.59375 25.550781 21.386719 25.550781 L 13.195313 25.550781 C 13.003906 25.550781 12.753906 25.550781 12.753906 25.800781 C 12.753906 26.0625 12.988281 26.0625 13.195313 26.0625 L 21.386719 26.0625 C 21.582031 26.0625 21.832031 26.0625 21.832031 25.8125 Z M 21.832031 28.402344 C 21.832031 28.136719 21.59375 28.136719 21.386719 28.136719 L 13.195313 28.136719 C 13.003906 28.136719 12.753906 28.136719 12.753906 28.386719 C 12.753906 28.652344 12.988281 28.652344 13.195313 28.652344 L 21.386719 28.652344 C 21.582031 28.652344 21.832031 28.652344 21.832031 28.402344 Z M 21.832031 28.402344 "/>
<path style=" stroke:none;fill-rule:evenodd;fill:rgb(0%,0%,0%);fill-opacity:1;" d="M 37.027344 47.679688 C 37.027344 47.640625 37.027344 47.609375 36.945313 47.515625 C 35.609375 45.902344 34.496094 44.121094 33.675781 42.1875 C 31.855469 37.933594 31.132813 32.953125 31.132813 26.972656 C 31.132813 21.050781 31.8125 15.847656 33.871094 11.285156 C 34.679688 9.519531 35.734375 7.878906 36.972656 6.378906 C 37 6.335938 37.027344 6.308594 37.027344 6.253906 C 37.027344 6.113281 36.929688 6.113281 36.722656 6.113281 C 36.511719 6.113281 36.484375 6.113281 36.457031 6.140625 C 36.445313 6.15625 35.582031 6.988281 34.496094 8.519531 C 32.078125 11.941406 30.851563 16.027344 30.226563 20.171875 C 29.894531 22.410156 29.78125 24.691406 29.78125 26.960938 C 29.78125 32.160156 30.4375 37.472656 32.660156 42.230469 C 33.648438 44.34375 34.96875 46.25 36.347656 47.695313 C 36.472656 47.804688 36.484375 47.820313 36.722656 47.820313 C 36.929688 47.820313 37.027344 47.820313 37.027344 47.679688 Z M 37.027344 47.679688 "/>
<path style=" stroke:none;fill-rule:evenodd;fill:rgb(0%,0%,0%);fill-opacity:1;" d="M 44.933594 13.070313 L 44.933594 12.765625 C 44.421875 12.765625 44.179688 12.765625 44.167969 12.472656 L 44.167969 10.605469 C 44.167969 9.761719 44.167969 9.460938 43.867188 9.109375 C 43.730469 8.941406 43.40625 8.746094 42.839844 8.746094 C 42.125 8.746094 41.664063 9.167969 41.390625 9.773438 L 41.390625 8.746094 L 40.011719 8.855469 L 40.011719 9.15625 C 40.695313 9.15625 40.777344 9.226563 40.777344 9.707031 L 40.777344 12.324219 C 40.777344 12.765625 40.667969 12.765625 40.011719 12.765625 L 40.011719 13.070313 L 41.117188 13.039063 L 42.214844 13.070313 L 42.214844 12.765625 C 41.558594 12.765625 41.449219 12.765625 41.449219 12.324219 L 41.449219 10.527344 C 41.449219 9.507813 42.144531 8.960938 42.773438 8.960938 C 43.386719 8.960938 43.496094 9.488281 43.496094 10.046875 L 43.496094 12.324219 C 43.496094 12.765625 43.386719 12.765625 42.734375 12.765625 L 42.734375 13.070313 L 43.835938 13.039063 Z M 44.933594 13.070313 "/>
<path style=" stroke:none;fill-rule:evenodd;fill:rgb(0%,0%,0%);fill-opacity:1;" d="M 47.515625 13.070313 L 47.515625 12.765625 C 46.871094 12.765625 46.832031 12.71875 46.832031 12.335938 L 46.832031 8.746094 L 45.460938 8.855469 L 45.460938 9.15625 C 46.097656 9.15625 46.183594 9.214844 46.183594 9.695313 L 46.183594 12.324219 C 46.183594 12.765625 46.078125 12.765625 45.421875 12.765625 L 45.421875 13.070313 L 46.496094 13.039063 C 46.839844 13.039063 47.183594 13.058594 47.515625 13.070313 Z M 46.976563 7.160156 C 46.976563 6.898438 46.753906 6.644531 46.457031 6.644531 C 46.125 6.644531 45.929688 6.917969 45.929688 7.160156 C 45.929688 7.425781 46.15625 7.679688 46.449219 7.679688 C 46.78125 7.679688 46.976563 7.40625 46.976563 7.160156 Z M 46.976563 7.160156 "/>
<path style=" stroke:none;fill-rule:evenodd;fill:rgb(0%,0%,0%);fill-opacity:1;" d="M 53.03125 13.070313 L 53.03125 12.765625 C 52.523438 12.765625 52.277344 12.765625 52.269531 12.472656 L 52.269531 10.605469 C 52.269531 9.761719 52.269531 9.460938 51.964844 9.109375 C 51.828125 8.941406 51.503906 8.746094 50.9375 8.746094 C 50.222656 8.746094 49.765625 9.167969 49.492188 9.773438 L 49.492188 8.746094 L 48.113281 8.855469 L 48.113281 9.15625 C 48.796875 9.15625 48.875 9.226563 48.875 9.707031 L 48.875 12.324219 C 48.875 12.765625 48.769531 12.765625 48.113281 12.765625 L 48.113281 13.070313 L 49.21875 13.039063 L 50.3125 13.070313 L 50.3125 12.765625 C 49.65625 12.765625 49.550781 12.765625 49.550781 12.324219 L 49.550781 10.527344 C 49.550781 9.507813 50.246094 8.960938 50.871094 8.960938 C 51.488281 8.960938 51.59375 9.488281 51.59375 10.046875 L 51.59375 12.324219 C 51.59375 12.765625 51.488281 12.765625 50.832031 12.765625 L 50.832031 13.070313 L 51.9375 13.039063 Z M 53.03125 13.070313 "/>
<path style=" stroke:none;fill-rule:evenodd;fill:rgb(0%,0%,0%);fill-opacity:1;" d="M 54.582031 36.738281 L 54.582031 35.988281 C 52.730469 35.988281 52.300781 35.347656 52.300781 34.457031 L 52.300781 19.550781 C 52.300781 18.644531 52.746094 18.019531 54.582031 18.019531 L 54.582031 17.269531 L 38.378906 17.269531 L 38.378906 18.019531 C 40.226563 18.019531 40.660156 18.660156 40.660156 19.550781 L 40.660156 34.457031 C 40.660156 35.363281 40.214844 35.988281 38.378906 35.988281 L 38.378906 36.738281 L 45.070313 36.738281 L 45.070313 35.988281 C 43.21875 35.988281 42.789063 35.347656 42.789063 34.457031 L 42.789063 18.019531 L 50.171875 18.019531 L 50.171875 34.457031 C 50.171875 35.363281 49.726563 35.988281 47.890625 35.988281 L 47.890625 36.738281 Z M 54.582031 36.738281 "/>
<path style=" stroke:none;fill-rule:evenodd;fill:rgb(0%,0%,0%);fill-opacity:1;" d="M 41.378906 40.855469 C 41.378906 40.660156 41.242188 40.503906 41.015625 40.503906 C 40.75 40.503906 40.488281 40.757813 40.488281 41.023438 C 40.488281 41.207031 40.625 41.375 40.859375 41.375 C 41.085938 41.375 41.378906 41.148438 41.378906 40.855469 Z M 41.464844 45.570313 C 41.464844 45.472656 41.378906 45.472656 41.347656 45.472656 C 41.25 45.472656 41.25 45.5 41.203125 45.648438 C 41.023438 46.265625 40.703125 46.859375 40.203125 46.859375 C 40.039063 46.859375 39.96875 46.765625 39.96875 46.539063 C 39.96875 46.292969 40.027344 46.15625 40.253906 45.5625 L 40.632813 44.53125 C 40.75 44.25 40.75 44.230469 40.851563 43.964844 C 40.929688 43.769531 40.976563 43.632813 40.976563 43.445313 C 40.976563 43.007813 40.664063 42.644531 40.175781 42.644531 C 39.253906 42.644531 38.882813 44.0625 38.882813 44.152344 C 38.882813 44.25 39 44.25 39 44.25 C 39.097656 44.25 39.109375 44.230469 39.15625 44.074219 C 39.421875 43.15625 39.8125 42.859375 40.144531 42.859375 C 40.222656 42.859375 40.390625 42.859375 40.390625 43.171875 C 40.390625 43.378906 40.320313 43.585938 40.28125 43.683594 C 40.203125 43.9375 39.765625 45.070313 39.609375 45.492188 C 39.507813 45.746094 39.382813 46.070313 39.382813 46.273438 C 39.382813 46.734375 39.714844 47.078125 40.183594 47.078125 C 41.105469 47.078125 41.464844 45.65625 41.464844 45.570313 Z M 41.464844 45.570313 "/>
<path style=" stroke:none;fill-rule:evenodd;fill:rgb(0%,0%,0%);fill-opacity:1;" d="M 48.949219 43.574219 C 48.949219 43.378906 48.765625 43.378906 48.628906 43.378906 L 42.769531 43.378906 C 42.632813 43.378906 42.449219 43.378906 42.449219 43.574219 C 42.449219 43.769531 42.632813 43.769531 42.78125 43.769531 L 48.617188 43.769531 C 48.765625 43.769531 48.949219 43.769531 48.949219 43.574219 Z M 48.949219 45.472656 C 48.949219 45.277344 48.765625 45.277344 48.617188 45.277344 L 42.78125 45.277344 C 42.632813 45.277344 42.449219 45.277344 42.449219 45.472656 C 42.449219 45.667969 42.632813 45.667969 42.769531 45.667969 L 48.628906 45.667969 C 48.765625 45.667969 48.949219 45.667969 48.949219 45.472656 Z M 48.949219 45.472656 "/>
<path style=" stroke:none;fill-rule:evenodd;fill:rgb(0%,0%,0%);fill-opacity:1;" d="M 53.597656 46.96875 L 53.597656 46.664063 L 53.285156 46.664063 C 52.402344 46.664063 52.375 46.558594 52.375 46.195313 L 52.375 40.710938 C 52.375 40.476563 52.375 40.453125 52.148438 40.453125 C 51.542969 41.082031 50.683594 41.082031 50.371094 41.082031 L 50.371094 41.382813 C 50.566406 41.382813 51.144531 41.382813 51.652344 41.128906 L 51.652344 46.195313 C 51.652344 46.546875 51.621094 46.664063 50.742188 46.664063 L 50.429688 46.664063 L 50.429688 46.96875 C 50.769531 46.9375 51.621094 46.9375 52.011719 46.9375 C 52.402344 46.9375 53.253906 46.9375 53.597656 46.96875 Z M 53.597656 46.96875 "/>
<path style=" stroke:none;fill-rule:evenodd;fill:rgb(0%,0%,0%);fill-opacity:1;" d="M 65.042969 28.582031 C 65.042969 28.511719 64.988281 28.457031 64.902344 28.457031 C 64.777344 28.457031 64.765625 28.527344 64.707031 28.734375 C 64.457031 29.691406 64.207031 30.429688 63.652344 30.429688 C 63.234375 30.429688 63.234375 29.972656 63.234375 29.792969 C 63.234375 29.472656 63.277344 29.332031 63.414063 28.746094 L 63.691406 27.605469 L 64.261719 25.339844 C 64.359375 24.992188 64.359375 24.964844 64.359375 24.921875 C 64.359375 24.714844 64.195313 24.574219 63.984375 24.574219 C 63.582031 24.574219 63.484375 24.921875 63.402344 25.269531 L 62.414063 29.289063 C 62.414063 29.289063 61.855469 30.429688 60.84375 30.429688 C 60.121094 30.429688 59.980469 29.804688 59.980469 29.289063 C 59.980469 28.496094 60.371094 27.386719 60.730469 26.453125 C 60.898438 26.007813 60.96875 25.828125 60.96875 25.550781 C 60.96875 24.949219 60.535156 24.4375 59.867188 24.4375 C 58.589844 24.4375 58.074219 26.453125 58.074219 26.566406 C 58.074219 26.621094 58.128906 26.691406 58.226563 26.691406 C 58.351563 26.691406 58.367188 26.632813 58.421875 26.441406 C 58.753906 25.242188 59.300781 24.714844 59.828125 24.714844 C 59.964844 24.714844 60.1875 24.730469 60.1875 25.175781 C 60.1875 25.535156 60.035156 25.9375 59.828125 26.464844 C 59.214844 28.121094 59.144531 28.652344 59.144531 29.066406 C 59.144531 30.488281 60.214844 30.707031 60.785156 30.707031 C 61.675781 30.707031 62.164063 30.097656 62.441406 29.761719 C 62.621094 30.542969 63.289063 30.707031 63.625 30.707031 C 64.066406 30.707031 64.402344 30.417969 64.625 29.941406 C 64.863281 29.441406 65.042969 28.621094 65.042969 28.582031 Z M 65.042969 28.582031 "/>
<path style=" stroke:none;fill-rule:evenodd;fill:rgb(0%,0%,0%);fill-opacity:1;" d="M 72.257813 20.628906 C 72.257813 20.09375 71.992188 19.945313 71.828125 19.945313 C 71.582031 19.945313 71.339844 20.199219 71.339844 20.417969 C 71.339844 20.542969 71.398438 20.601563 71.484375 20.679688 C 71.59375 20.789063 71.835938 21.042969 71.835938 21.511719 C 71.835938 21.84375 71.554688 22.800781 71.300781 23.300781 C 71.042969 23.820313 70.703125 24.160156 70.222656 24.160156 C 69.761719 24.160156 69.5 23.867188 69.5 23.3125 C 69.5 23.035156 69.566406 22.734375 69.605469 22.597656 L 70.019531 20.953125 C 70.066406 20.738281 70.164063 20.378906 70.164063 20.316406 C 70.164063 20.140625 70.027344 20.054688 69.878906 20.054688 C 69.761719 20.054688 69.589844 20.132813 69.519531 20.328125 C 69.488281 20.394531 69.03125 22.265625 68.960938 22.519531 C 68.894531 22.8125 68.875 22.988281 68.875 23.164063 C 68.875 23.273438 68.875 23.292969 68.882813 23.339844 C 68.660156 23.859375 68.363281 24.160156 67.984375 24.160156 C 67.199219 24.160156 67.199219 23.4375 67.199219 23.273438 C 67.199219 22.957031 67.25 22.578125 67.710938 21.375 C 67.816406 21.082031 67.875 20.945313 67.875 20.746094 C 67.875 20.308594 67.554688 19.945313 67.074219 19.945313 C 66.144531 19.945313 65.785156 21.363281 65.785156 21.453125 C 65.785156 21.550781 65.902344 21.550781 65.902344 21.550781 C 65.996094 21.550781 66.007813 21.53125 66.058594 21.375 C 66.320313 20.464844 66.703125 20.160156 67.042969 20.160156 C 67.132813 20.160156 67.289063 20.171875 67.289063 20.484375 C 67.289063 20.730469 67.183594 21.003906 67.113281 21.167969 C 66.683594 22.324219 66.566406 22.773438 66.566406 23.144531 C 66.566406 24.035156 67.222656 24.378906 67.953125 24.378906 C 68.121094 24.378906 68.582031 24.378906 68.972656 23.691406 C 69.226563 24.316406 69.902344 24.378906 70.195313 24.378906 C 70.925781 24.378906 71.359375 23.761719 71.609375 23.175781 C 71.945313 22.410156 72.257813 21.101563 72.257813 20.628906 Z M 72.257813 20.628906 "/>
<path style=" stroke:none;fill-rule:evenodd;fill:rgb(0%,0%,0%);fill-opacity:1;" d="M 74.777344 21.375 C 74.777344 21.261719 74.691406 21.109375 74.496094 21.109375 C 74.304688 21.109375 74.101563 21.292969 74.101563 21.496094 C 74.101563 21.613281 74.191406 21.761719 74.382813 21.761719 C 74.585938 21.761719 74.777344 21.566406 74.777344 21.375 Z M 74.960938 24.765625 C 74.960938 24.671875 74.867188 24.671875 74.847656 24.671875 C 74.75 24.671875 74.742188 24.714844 74.710938 24.792969 C 74.550781 25.355469 74.242188 25.644531 73.96875 25.644531 C 73.828125 25.644531 73.792969 25.550781 73.792969 25.398438 C 73.792969 25.234375 73.839844 25.101563 73.90625 24.949219 L 74.128906 24.386719 L 74.472656 23.492188 C 74.496094 23.421875 74.515625 23.335938 74.515625 23.265625 C 74.515625 22.9375 74.234375 22.667969 73.847656 22.667969 C 73.152344 22.667969 72.828125 23.625 72.828125 23.746094 C 72.828125 23.835938 72.925781 23.835938 72.949219 23.835938 C 73.046875 23.835938 73.054688 23.800781 73.074219 23.722656 C 73.257813 23.121094 73.566406 22.867188 73.828125 22.867188 C 73.9375 22.867188 74.003906 22.921875 74.003906 23.113281 C 74.003906 23.273438 73.960938 23.378906 73.785156 23.816406 L 73.34375 24.949219 C 73.3125 25.039063 73.277344 25.121094 73.277344 25.242188 C 73.277344 25.574219 73.558594 25.839844 73.945313 25.839844 C 74.648438 25.839844 74.960938 24.871094 74.960938 24.765625 Z M 74.960938 24.765625 "/>
<path style=" stroke:none;fill-rule:evenodd;fill:rgb(0%,0%,0%);fill-opacity:1;" d="M 68.277344 28.257813 C 68.277344 28.058594 68.140625 27.902344 67.914063 27.902344 C 67.652344 27.902344 67.386719 28.160156 67.386719 28.421875 C 67.386719 28.609375 67.523438 28.773438 67.757813 28.773438 C 67.984375 28.773438 68.277344 28.550781 68.277344 28.257813 Z M 68.363281 32.96875 C 68.363281 32.871094 68.277344 32.871094 68.246094 32.871094 C 68.148438 32.871094 68.148438 32.902344 68.101563 33.046875 C 67.925781 33.664063 67.601563 34.261719 67.105469 34.261719 C 66.9375 34.261719 66.867188 34.164063 66.867188 33.9375 C 66.867188 33.695313 66.925781 33.554688 67.152344 32.960938 L 67.535156 31.933594 C 67.652344 31.648438 67.652344 31.628906 67.75 31.367188 C 67.828125 31.171875 67.875 31.035156 67.875 30.847656 C 67.875 30.410156 67.5625 30.046875 67.074219 30.046875 C 66.152344 30.046875 65.785156 31.464844 65.785156 31.550781 C 65.785156 31.648438 65.902344 31.648438 65.902344 31.648438 C 65.996094 31.648438 66.007813 31.628906 66.058594 31.472656 C 66.320313 30.554688 66.710938 30.261719 67.042969 30.261719 C 67.121094 30.261719 67.289063 30.261719 67.289063 30.574219 C 67.289063 30.78125 67.222656 30.984375 67.183594 31.082031 C 67.105469 31.335938 66.664063 32.472656 66.507813 32.890625 C 66.410156 33.148438 66.28125 33.46875 66.28125 33.675781 C 66.28125 34.132813 66.613281 34.476563 67.082031 34.476563 C 68.003906 34.476563 68.363281 33.058594 68.363281 32.96875 Z M 68.363281 32.96875 "/>
<path style=" stroke:none;fill-rule:evenodd;fill:rgb(0%,0%,0%);fill-opacity:1;" d="M 84.015625 26.972656 C 84.015625 21.773438 83.363281 16.460938 81.136719 11.703125 C 80.148438 9.589844 78.828125 7.683594 77.453125 6.238281 C 77.328125 6.128906 77.3125 6.113281 77.078125 6.113281 C 76.882813 6.113281 76.773438 6.113281 76.773438 6.253906 C 76.773438 6.308594 76.828125 6.378906 76.855469 6.417969 C 78.1875 8.03125 79.304688 9.8125 80.125 11.746094 C 81.945313 16 82.667969 20.980469 82.667969 26.960938 C 82.667969 32.882813 81.984375 38.085938 79.929688 42.648438 C 79.121094 44.414063 78.0625 46.054688 76.828125 47.554688 C 76.8125 47.585938 76.773438 47.640625 76.773438 47.679688 C 76.773438 47.820313 76.882813 47.820313 77.078125 47.820313 C 77.285156 47.820313 77.3125 47.820313 77.34375 47.792969 C 77.355469 47.777344 78.21875 46.945313 79.304688 45.414063 C 81.722656 41.992188 82.945313 37.90625 83.570313 33.757813 C 83.90625 31.519531 84.015625 29.242188 84.015625 26.972656 Z M 84.015625 26.972656 "/>
<path style=" stroke:none;fill-rule:evenodd;fill:rgb(0%,0%,0%);fill-opacity:1;" d="M 101.523438 5.46875 L 101.523438 5.214844 L 101.257813 5.214844 C 100.554688 5.214844 100.554688 5.125 100.554688 4.894531 L 100.554688 1 C 100.554688 0.808594 100.539063 0.804688 100.34375 0.804688 C 99.890625 1.246094 99.253906 1.25 98.964844 1.25 L 98.964844 1.503906 C 99.132813 1.503906 99.597656 1.503906 99.984375 1.308594 L 99.984375 4.894531 C 99.984375 5.125 99.984375 5.214844 99.28125 5.214844 L 99.011719 5.214844 L 99.011719 5.46875 L 100.265625 5.441406 Z M 101.523438 5.46875 "/>
<path style="fill:none;stroke-width:0.390989;stroke-linecap:square;stroke-linejoin:miter;stroke:rgb(0%,0%,0%);stroke-opacity:1;stroke-miterlimit:10;" d="M 88.527344 6.894531 L 111.875 6.894531 "/>
<path style=" stroke:none;fill-rule:evenodd;fill:rgb(0%,0%,0%);fill-opacity:1;" d="M 93.648438 12.96875 L 93.648438 12.714844 C 93.1875 12.714844 93.117188 12.714844 93.117188 12.414063 L 93.117188 10.839844 C 93.117188 10.226563 92.816406 9.871094 92.0625 9.871094 C 91.488281 9.871094 91.117188 10.183594 90.917969 10.550781 L 90.910156 10.550781 L 90.910156 9.871094 L 89.878906 9.945313 L 89.878906 10.199219 C 90.347656 10.199219 90.40625 10.25 90.40625 10.59375 L 90.40625 12.414063 C 90.40625 12.714844 90.335938 12.714844 89.878906 12.714844 L 89.878906 12.96875 C 89.878906 12.96875 90.382813 12.941406 90.679688 12.941406 C 90.9375 12.941406 91.425781 12.964844 91.488281 12.96875 L 91.488281 12.714844 C 91.03125 12.714844 90.960938 12.714844 90.960938 12.414063 L 90.960938 11.148438 C 90.960938 10.410156 91.542969 10.066406 92.007813 10.066406 C 92.5 10.066406 92.5625 10.453125 92.5625 10.8125 L 92.5625 12.414063 C 92.5625 12.714844 92.492188 12.714844 92.035156 12.714844 L 92.035156 12.96875 C 92.035156 12.96875 92.542969 12.941406 92.835938 12.941406 C 93.097656 12.941406 93.582031 12.964844 93.648438 12.96875 Z M 93.648438 12.96875 "/>
<path style=" stroke:none;fill-rule:evenodd;fill:rgb(0%,0%,0%);fill-opacity:1;" d="M 95.824219 12.96875 L 95.824219 12.714844 C 95.417969 12.714844 95.347656 12.714844 95.347656 12.421875 L 95.347656 9.871094 L 94.3125 9.945313 L 94.3125 10.199219 C 94.757813 10.199219 94.820313 10.242188 94.820313 10.585938 L 94.820313 12.414063 C 94.820313 12.714844 94.75 12.714844 94.292969 12.714844 L 94.292969 12.96875 C 94.292969 12.96875 94.796875 12.941406 95.078125 12.941406 C 95.324219 12.941406 95.578125 12.949219 95.824219 12.96875 Z M 95.4375 8.738281 C 95.4375 8.511719 95.261719 8.332031 95.039063 8.332031 C 94.796875 8.332031 94.636719 8.527344 94.636719 8.730469 C 94.636719 8.957031 94.8125 9.136719 95.039063 9.136719 C 95.277344 9.136719 95.4375 8.941406 95.4375 8.738281 Z M 95.4375 8.738281 "/>
<path style=" stroke:none;fill-rule:evenodd;fill:rgb(0%,0%,0%);fill-opacity:1;" d="M 100.246094 12.96875 L 100.246094 12.714844 C 99.789063 12.714844 99.71875 12.714844 99.71875 12.414063 L 99.71875 10.839844 C 99.71875 10.226563 99.417969 9.871094 98.664063 9.871094 C 98.085938 9.871094 97.714844 10.183594 97.519531 10.550781 L 97.511719 10.550781 L 97.511719 9.871094 L 96.476563 9.945313 L 96.476563 10.199219 C 96.949219 10.199219 97.003906 10.25 97.003906 10.59375 L 97.003906 12.414063 C 97.003906 12.714844 96.933594 12.714844 96.476563 12.714844 L 96.476563 12.96875 C 96.476563 12.96875 96.984375 12.941406 97.28125 12.941406 C 97.539063 12.941406 98.023438 12.964844 98.085938 12.96875 L 98.085938 12.714844 C 97.632813 12.714844 97.5625 12.714844 97.5625 12.414063 L 97.5625 11.148438 C 97.5625 10.410156 98.144531 10.066406 98.609375 10.066406 C 99.101563 10.066406 99.164063 10.453125 99.164063 10.8125 L 99.164063 12.414063 C 99.164063 12.714844 99.09375 12.714844 98.636719 12.714844 L 98.636719 12.96875 C 98.636719 12.96875 99.140625 12.941406 99.4375 12.941406 C 99.699219 12.941406 100.183594 12.964844 100.246094 12.96875 Z M 100.246094 12.96875 "/>
<path style=" stroke:none;fill-rule:evenodd;fill:rgb(0%,0%,0%);fill-opacity:1;" d="M 94.695313 18.011719 C 94.777344 17.925781 94.777344 17.914063 94.777344 17.886719 C 94.777344 17.863281 94.777344 17.847656 94.714844 17.777344 L 92.21875 14.714844 L 95.269531 14.714844 C 96.304688 14.714844 96.84375 14.863281 96.96875 14.890625 C 97.589844 15.058594 98.207031 15.464844 98.445313 16.078125 L 98.6875 16.078125 L 98.019531 14.371094 L 91.558594 14.371094 C 91.402344 14.371094 91.394531 14.375 91.359375 14.410156 C 91.339844 14.433594 91.339844 14.445313 91.339844 14.644531 L 94.160156 18.101563 L 91.421875 21.175781 C 91.339844 21.257813 91.339844 21.273438 91.339844 21.300781 C 91.339844 21.398438 91.429688 21.398438 91.558594 21.398438 L 98.019531 21.398438 L 98.6875 19.59375 L 98.445313 19.59375 C 98.207031 20.230469 97.589844 20.605469 97.089844 20.753906 C 96.949219 20.792969 96.414063 20.957031 95.324219 20.957031 L 92.070313 20.957031 Z M 94.695313 18.011719 "/>
<path style=" stroke:none;fill-rule:evenodd;fill:rgb(0%,0%,0%);fill-opacity:1;" d="M 90.777344 22.675781 C 90.777344 22.5625 90.691406 22.410156 90.496094 22.410156 C 90.304688 22.410156 90.101563 22.589844 90.101563 22.792969 C 90.101563 22.914063 90.191406 23.0625 90.382813 23.0625 C 90.585938 23.0625 90.777344 22.863281 90.777344 22.675781 Z M 90.960938 26.066406 C 90.960938 25.972656 90.867188 25.972656 90.847656 25.972656 C 90.75 25.972656 90.742188 26.015625 90.710938 26.09375 C 90.550781 26.65625 90.242188 26.941406 89.96875 26.941406 C 89.828125 26.941406 89.792969 26.851563 89.792969 26.699219 C 89.792969 26.535156 89.839844 26.402344 89.90625 26.246094 L 90.128906 25.683594 L 90.472656 24.792969 C 90.496094 24.722656 90.515625 24.636719 90.515625 24.566406 C 90.515625 24.238281 90.234375 23.96875 89.847656 23.96875 C 89.152344 23.96875 88.828125 24.925781 88.828125 25.042969 C 88.828125 25.136719 88.925781 25.136719 88.949219 25.136719 C 89.046875 25.136719 89.054688 25.101563 89.074219 25.023438 C 89.257813 24.417969 89.566406 24.167969 89.828125 24.167969 C 89.9375 24.167969 90.003906 24.222656 90.003906 24.410156 C 90.003906 24.574219 89.960938 24.679688 89.785156 25.113281 L 89.34375 26.246094 C 89.3125 26.339844 89.277344 26.421875 89.277344 26.542969 C 89.277344 26.871094 89.558594 27.140625 89.945313 27.140625 C 90.648438 27.140625 90.960938 26.167969 90.960938 26.066406 Z M 90.960938 26.066406 "/>
<path style=" stroke:none;fill-rule:evenodd;fill:rgb(0%,0%,0%);fill-opacity:1;" d="M 96.964844 24.53125 C 96.964844 24.363281 96.796875 24.363281 96.703125 24.363281 L 92.050781 24.363281 C 91.960938 24.363281 91.789063 24.363281 91.789063 24.53125 C 91.789063 24.707031 91.953125 24.707031 92.058594 24.707031 L 96.695313 24.707031 C 96.804688 24.707031 96.964844 24.707031 96.964844 24.53125 Z M 96.964844 26.085938 C 96.964844 25.910156 96.804688 25.910156 96.695313 25.910156 L 92.058594 25.910156 C 91.953125 25.910156 91.789063 25.910156 91.789063 26.085938 C 91.789063 26.253906 91.960938 26.253906 92.050781 26.253906 L 96.703125 26.253906 C 96.796875 26.253906 96.964844 26.253906 96.964844 26.085938 Z M 96.964844 26.085938 "/>
<path style=" stroke:none;fill-rule:evenodd;fill:rgb(0%,0%,0%);fill-opacity:1;" d="M 100.824219 27.070313 L 100.824219 26.816406 L 100.554688 26.816406 C 99.851563 26.816406 99.851563 26.726563 99.851563 26.492188 L 99.851563 22.597656 C 99.851563 22.410156 99.839844 22.402344 99.640625 22.402344 C 99.191406 22.84375 98.554688 22.851563 98.265625 22.851563 L 98.265625 23.105469 C 98.433594 23.105469 98.894531 23.105469 99.285156 22.90625 L 99.285156 26.492188 C 99.285156 26.726563 99.285156 26.816406 98.582031 26.816406 L 98.3125 26.816406 L 98.3125 27.070313 L 99.566406 27.042969 Z M 100.824219 27.070313 "/>
<path style=" stroke:none;fill-rule:evenodd;fill:rgb(0%,0%,0%);fill-opacity:1;" d="M 108.28125 17.019531 C 108.28125 16.488281 107.980469 16.460938 107.929688 16.460938 C 107.746094 16.460938 107.550781 16.652344 107.550781 16.835938 C 107.550781 16.953125 107.621094 17.011719 107.667969 17.050781 C 107.839844 17.191406 107.929688 17.390625 107.929688 17.613281 C 107.929688 17.707031 107.632813 19.441406 106.742188 19.441406 C 106.171875 19.441406 106.171875 18.9375 106.171875 18.816406 C 106.171875 18.628906 106.199219 18.515625 106.300781 18.113281 L 106.496094 17.328125 C 106.542969 17.136719 106.628906 16.800781 106.628906 16.765625 C 106.628906 16.625 106.515625 16.539063 106.398438 16.539063 C 106.265625 16.539063 106.136719 16.625 106.09375 16.742188 C 106.074219 16.800781 106.003906 17.09375 105.953125 17.269531 C 105.855469 17.671875 105.855469 17.683594 105.75 18.078125 C 105.660156 18.464844 105.644531 18.523438 105.640625 18.726563 C 105.667969 18.867188 105.609375 19 105.441406 19.210938 C 105.351563 19.324219 105.207031 19.441406 104.96875 19.441406 C 104.695313 19.441406 104.335938 19.34375 104.335938 18.796875 C 104.335938 18.4375 104.535156 17.917969 104.675781 17.558594 C 104.792969 17.25 104.824219 17.1875 104.824219 17.066406 C 104.824219 16.730469 104.535156 16.46875 104.152344 16.46875 C 103.445313 16.46875 103.128906 17.425781 103.128906 17.542969 C 103.128906 17.636719 103.226563 17.636719 103.246094 17.636719 C 103.347656 17.636719 103.351563 17.601563 103.375 17.523438 C 103.550781 16.941406 103.851563 16.667969 104.132813 16.667969 C 104.253906 16.667969 104.308594 16.742188 104.308594 16.910156 C 104.308594 17.074219 104.246094 17.230469 104.210938 17.320313 C 103.8125 18.347656 103.8125 18.488281 103.8125 18.707031 C 103.8125 19.535156 104.5625 19.640625 104.941406 19.640625 C 105.074219 19.640625 105.417969 19.640625 105.738281 19.167969 C 105.898438 19.484375 106.285156 19.640625 106.714844 19.640625 C 107.339844 19.640625 107.648438 19.097656 107.789063 18.808594 C 108.09375 18.21875 108.28125 17.339844 108.28125 17.019531 Z M 108.28125 17.019531 "/>
<path style=" stroke:none;fill-rule:evenodd;fill:rgb(0%,0%,0%);fill-opacity:1;" d="M 110.875 17.375 C 110.875 17.261719 110.792969 17.109375 110.59375 17.109375 C 110.402344 17.109375 110.199219 17.292969 110.199219 17.496094 C 110.199219 17.613281 110.292969 17.761719 110.480469 17.761719 C 110.6875 17.761719 110.875 17.566406 110.875 17.375 Z M 111.058594 20.765625 C 111.058594 20.671875 110.964844 20.671875 110.945313 20.671875 C 110.847656 20.671875 110.839844 20.714844 110.8125 20.792969 C 110.652344 21.355469 110.339844 21.644531 110.066406 21.644531 C 109.925781 21.644531 109.890625 21.550781 109.890625 21.398438 C 109.890625 21.234375 109.941406 21.101563 110.003906 20.949219 L 110.230469 20.386719 L 110.574219 19.492188 C 110.59375 19.421875 110.613281 19.335938 110.613281 19.265625 C 110.613281 18.9375 110.332031 18.667969 109.949219 18.667969 C 109.25 18.667969 108.929688 19.625 108.929688 19.746094 C 108.929688 19.835938 109.027344 19.835938 109.046875 19.835938 C 109.144531 19.835938 109.152344 19.800781 109.175781 19.722656 C 109.355469 19.121094 109.667969 18.867188 109.925781 18.867188 C 110.039063 18.867188 110.101563 18.921875 110.101563 19.113281 C 110.101563 19.273438 110.0625 19.378906 109.882813 19.816406 L 109.441406 20.949219 C 109.414063 21.039063 109.378906 21.121094 109.378906 21.242188 C 109.378906 21.574219 109.660156 21.839844 110.046875 21.839844 C 110.75 21.839844 111.058594 20.871094 111.058594 20.765625 Z M 111.058594 20.765625 "/>
<path style=" stroke:none;fill-rule:evenodd;fill:rgb(0%,0%,0%);fill-opacity:1;" d="M 118.609375 30.625 C 118.609375 29.816406 118.34375 29.222656 117.777344 29.222656 C 117.332031 29.222656 117.105469 29.582031 117.105469 29.886719 C 117.105469 30.195313 117.316406 30.570313 117.789063 30.570313 C 117.96875 30.570313 118.121094 30.511719 118.246094 30.386719 C 118.277344 30.359375 118.304688 30.359375 118.304688 30.359375 C 118.304688 30.359375 118.332031 30.554688 118.332031 30.625 C 118.332031 31.082031 118.246094 31.988281 117.441406 32.890625 C 117.289063 33.058594 117.289063 33.113281 117.289063 33.113281 C 117.289063 33.183594 117.359375 33.253906 117.425781 33.253906 C 117.539063 33.253906 118.609375 32.222656 118.609375 30.625 Z M 118.609375 30.625 "/>
<path style=" stroke:none;fill-rule:evenodd;fill:rgb(0%,0%,0%);fill-opacity:1;" d="M 144.25 28.832031 C 144.570313 28.023438 145.085938 26.1875 145.085938 25.367188 C 145.085938 24.519531 144.652344 24.4375 144.527344 24.4375 C 144.195313 24.4375 143.886719 24.769531 143.886719 25.046875 C 143.886719 25.214844 143.984375 25.3125 144.054688 25.367188 C 144.179688 25.492188 144.542969 25.871094 144.542969 26.589844 C 144.542969 27.066406 144.152344 28.371094 143.859375 29.023438 C 143.46875 29.875 142.957031 30.429688 142.234375 30.429688 C 141.453125 30.429688 141.203125 29.847656 141.203125 29.207031 C 141.203125 28.804688 141.328125 28.316406 141.386719 28.082031 L 141.96875 25.742188 C 142.039063 25.464844 142.164063 24.980469 142.164063 24.921875 C 142.164063 24.714844 141.996094 24.574219 141.789063 24.574219 C 141.386719 24.574219 141.289063 24.921875 141.203125 25.257813 L 140.425781 28.457031 C 140.371094 28.691406 140.371094 28.84375 140.371094 29.148438 C 140.371094 29.484375 139.925781 30.011719 139.910156 30.042969 C 139.757813 30.195313 139.535156 30.429688 139.105469 30.429688 C 138.007813 30.429688 138.007813 29.386719 138.007813 29.148438 C 138.007813 28.707031 138.101563 28.09375 138.726563 26.441406 C 138.894531 26.007813 138.964844 25.828125 138.964844 25.550781 C 138.964844 24.964844 138.550781 24.4375 137.867188 24.4375 C 136.589844 24.4375 136.070313 26.453125 136.070313 26.566406 C 136.070313 26.621094 136.128906 26.691406 136.226563 26.691406 C 136.351563 26.691406 136.363281 26.632813 136.421875 26.441406 C 136.765625 25.214844 137.308594 24.714844 137.824219 24.714844 C 137.964844 24.714844 138.1875 24.730469 138.1875 25.175781 C 138.1875 25.242188 138.1875 25.535156 137.949219 26.148438 C 137.296875 27.886719 137.15625 28.457031 137.15625 28.984375 C 137.15625 30.445313 138.351563 30.707031 139.0625 30.707031 C 139.300781 30.707031 139.925781 30.707031 140.480469 29.722656 C 140.789063 30.554688 141.648438 30.707031 142.179688 30.707031 C 143.234375 30.707031 143.859375 29.792969 144.25 28.832031 Z M 144.25 28.832031 "/>
<path style=" stroke:none;fill-rule:evenodd;fill:rgb(0%,0%,0%);fill-opacity:1;" d="M 148.175781 26.558594 C 148.175781 26.359375 148.039063 26.203125 147.8125 26.203125 C 147.546875 26.203125 147.285156 26.457031 147.285156 26.722656 C 147.285156 26.910156 147.421875 27.074219 147.65625 27.074219 C 147.878906 27.074219 148.175781 26.847656 148.175781 26.558594 Z M 148.261719 31.269531 C 148.261719 31.171875 148.175781 31.171875 148.144531 31.171875 C 148.046875 31.171875 148.046875 31.203125 148 31.347656 C 147.820313 31.964844 147.5 32.5625 147 32.5625 C 146.835938 32.5625 146.765625 32.464844 146.765625 32.238281 C 146.765625 31.992188 146.824219 31.855469 147.050781 31.261719 L 147.429688 30.234375 C 147.546875 29.949219 147.546875 29.929688 147.648438 29.667969 C 147.726563 29.472656 147.773438 29.332031 147.773438 29.148438 C 147.773438 28.707031 147.460938 28.347656 146.972656 28.347656 C 146.050781 28.347656 145.679688 29.765625 145.679688 29.851563 C 145.679688 29.949219 145.796875 29.949219 145.796875 29.949219 C 145.894531 29.949219 145.90625 29.929688 145.953125 29.773438 C 146.21875 28.855469 146.609375 28.5625 146.941406 28.5625 C 147.019531 28.5625 147.1875 28.5625 147.1875 28.875 C 147.1875 29.082031 147.117188 29.285156 147.078125 29.382813 C 147 29.636719 146.5625 30.773438 146.40625 31.191406 C 146.304688 31.445313 146.179688 31.769531 146.179688 31.976563 C 146.179688 32.433594 146.511719 32.777344 146.980469 32.777344 C 147.902344 32.777344 148.261719 31.359375 148.261719 31.269531 Z M 148.261719 31.269531 "/>
<path style=" stroke:none;fill-rule:evenodd;fill:rgb(0%,0%,0%);fill-opacity:1;" d="M 163.027344 25.8125 C 163.027344 25.550781 162.792969 25.550781 162.585938 25.550781 L 154.390625 25.550781 C 154.199219 25.550781 153.949219 25.550781 153.949219 25.800781 C 153.949219 26.0625 154.183594 26.0625 154.390625 26.0625 L 162.585938 26.0625 C 162.777344 26.0625 163.027344 26.0625 163.027344 25.8125 Z M 163.027344 28.402344 C 163.027344 28.136719 162.792969 28.136719 162.585938 28.136719 L 154.390625 28.136719 C 154.199219 28.136719 153.949219 28.136719 153.949219 28.386719 C 153.949219 28.652344 154.183594 28.652344 154.390625 28.652344 L 162.585938 28.652344 C 162.777344 28.652344 163.027344 28.652344 163.027344 28.402344 Z M 163.027344 28.402344 "/>
<path style=" stroke:none;fill-rule:evenodd;fill:rgb(0%,0%,0%);fill-opacity:1;" d="M 177.265625 24.980469 L 177.265625 24.574219 C 176.914063 24.605469 176.664063 24.605469 176.234375 24.605469 L 175.050781 24.574219 L 175.050781 24.980469 C 175.679688 25.007813 175.847656 25.382813 175.847656 25.644531 C 175.847656 25.644531 175.847656 25.757813 175.789063 25.894531 L 174.511719 29.539063 L 173.117188 25.605469 C 173.050781 25.4375 173.050781 25.410156 173.050781 25.367188 C 173.050781 24.980469 173.566406 24.980469 173.855469 24.980469 L 173.855469 24.574219 C 173.46875 24.605469 172.898438 24.605469 172.492188 24.605469 L 171.242188 24.574219 L 171.242188 24.980469 C 171.769531 24.980469 171.953125 25.007813 172.105469 25.1875 C 172.175781 25.269531 172.339844 25.730469 172.4375 26.007813 L 171.257813 29.398438 L 169.921875 25.617188 C 169.851563 25.4375 169.851563 25.410156 169.851563 25.355469 C 169.851563 24.980469 170.394531 24.980469 170.660156 24.980469 L 170.660156 24.574219 C 170.308594 24.605469 169.613281 24.605469 169.238281 24.605469 L 167.945313 24.574219 L 167.945313 24.980469 C 168.65625 24.980469 168.792969 25.035156 168.949219 25.480469 L 170.699219 30.457031 C 170.753906 30.613281 170.796875 30.707031 170.949219 30.707031 C 171.074219 30.707031 171.144531 30.667969 171.214844 30.445313 L 172.605469 26.480469 L 173.996094 30.445313 C 174.066406 30.667969 174.136719 30.707031 174.261719 30.707031 C 174.414063 30.707031 174.453125 30.613281 174.511719 30.457031 L 176.109375 25.894531 C 176.414063 25.019531 177.027344 24.992188 177.265625 24.980469 Z M 177.265625 24.980469 "/>
<path style=" stroke:none;fill-rule:evenodd;fill:rgb(0%,0%,0%);fill-opacity:1;" d="M 182.855469 28.914063 C 182.855469 28.832031 182.785156 28.777344 182.703125 28.777344 C 182.589844 28.777344 182.566406 28.84375 182.535156 28.914063 C 182.171875 30.082031 181.242188 30.402344 180.660156 30.402344 C 180.074219 30.402344 178.667969 30.011719 178.667969 27.605469 L 178.667969 27.34375 L 182.523438 27.34375 C 182.828125 27.34375 182.855469 27.34375 182.855469 27.078125 C 182.855469 25.675781 182.105469 24.367188 180.421875 24.367188 C 178.835938 24.367188 177.613281 25.800781 177.613281 27.523438 C 177.613281 29.359375 179.03125 30.707031 180.574219 30.707031 C 182.230469 30.707031 182.855469 29.207031 182.855469 28.914063 Z M 181.992188 27.078125 L 178.683594 27.078125 C 178.796875 24.894531 180.019531 24.644531 180.410156 24.644531 C 181.894531 24.644531 181.980469 26.605469 181.992188 27.078125 Z M 181.992188 27.078125 "/>
<path style=" stroke:none;fill-rule:evenodd;fill:rgb(0%,0%,0%);fill-opacity:1;" d="M 186.546875 30.570313 L 186.546875 30.167969 C 185.644531 30.167969 185.585938 30.097656 185.585938 29.554688 L 185.585938 24.4375 L 183.695313 24.589844 L 183.695313 24.992188 C 184.585938 24.992188 184.710938 25.074219 184.710938 25.757813 L 184.710938 29.539063 C 184.710938 30.167969 184.558594 30.167969 183.65625 30.167969 L 183.65625 30.570313 C 184.042969 30.542969 184.710938 30.542969 185.113281 30.542969 C 185.269531 30.542969 186.074219 30.542969 186.546875 30.570313 Z M 185.769531 22.167969 C 185.769531 21.753906 185.433594 21.488281 185.101563 21.488281 C 184.710938 21.488281 184.417969 21.792969 184.417969 22.167969 C 184.417969 22.53125 184.726563 22.835938 185.085938 22.835938 C 185.503906 22.835938 185.769531 22.503906 185.769531 22.167969 Z M 185.769531 22.167969 "/>
<path style=" stroke:none;fill-rule:evenodd;fill:rgb(0%,0%,0%);fill-opacity:1;" d="M 193.601563 24.921875 C 193.601563 24.671875 193.40625 24.285156 192.921875 24.285156 C 192.199219 24.285156 191.65625 24.730469 191.460938 24.9375 C 191.042969 24.617188 190.554688 24.4375 190.027344 24.4375 C 188.777344 24.4375 187.84375 25.382813 187.84375 26.453125 C 187.84375 27.246094 188.328125 27.761719 188.46875 27.886719 C 188.304688 28.09375 188.050781 28.496094 188.050781 29.039063 C 188.050781 29.847656 188.539063 30.195313 188.652344 30.261719 C 188.011719 30.445313 187.371094 30.945313 187.371094 31.667969 C 187.371094 32.625 188.679688 33.421875 190.390625 33.421875 C 192.042969 33.421875 193.421875 32.683594 193.421875 31.640625 C 193.421875 31.292969 193.324219 30.472656 192.488281 30.042969 C 191.78125 29.679688 191.085938 29.679688 189.886719 29.679688 C 189.039063 29.679688 188.941406 29.679688 188.691406 29.414063 C 188.554688 29.273438 188.429688 29.011719 188.429688 28.71875 C 188.429688 28.484375 188.511719 28.246094 188.652344 28.050781 C 189.304688 28.484375 189.863281 28.484375 190.011719 28.484375 C 191.265625 28.484375 192.199219 27.539063 192.199219 26.464844 C 192.199219 26.089844 192.085938 25.5625 191.640625 25.117188 C 192.183594 24.5625 192.835938 24.5625 192.90625 24.5625 C 192.960938 24.5625 193.03125 24.5625 193.085938 24.589844 C 192.949219 24.644531 192.878906 24.785156 192.878906 24.9375 C 192.878906 25.132813 193.015625 25.300781 193.238281 25.300781 C 193.351563 25.300781 193.601563 25.230469 193.601563 24.921875 Z M 191.238281 26.453125 C 191.238281 26.703125 191.238281 27.273438 191 27.648438 C 190.738281 28.050781 190.320313 28.191406 190.027344 28.191406 C 188.804688 28.191406 188.804688 26.785156 188.804688 26.464844 C 188.804688 26.214844 188.804688 25.644531 189.039063 25.269531 C 189.304688 24.867188 189.722656 24.730469 190.011719 24.730469 C 191.238281 24.730469 191.238281 26.132813 191.238281 26.453125 Z M 192.738281 31.652344 C 192.738281 32.472656 191.683594 33.128906 190.402344 33.128906 C 189.066406 33.128906 188.050781 32.445313 188.050781 31.652344 C 188.050781 31.542969 188.078125 31 188.609375 30.640625 C 188.914063 30.445313 189.039063 30.445313 190.011719 30.445313 C 191.167969 30.445313 192.738281 30.445313 192.738281 31.652344 Z M 192.738281 31.652344 "/>
<path style=" stroke:none;fill-rule:evenodd;fill:rgb(0%,0%,0%);fill-opacity:1;" d="M 201.039063 30.570313 L 201.039063 30.167969 C 200.34375 30.167969 200 30.167969 199.984375 29.75 L 199.984375 27.191406 C 199.984375 25.894531 199.984375 25.507813 199.664063 25.0625 C 199.261719 24.519531 198.609375 24.4375 198.132813 24.4375 C 196.9375 24.4375 196.382813 25.339844 196.1875 25.769531 L 196.171875 25.769531 L 196.171875 20.917969 L 194.242188 21.070313 L 194.242188 21.472656 C 195.1875 21.472656 195.296875 21.570313 195.296875 22.253906 L 195.296875 29.539063 C 195.296875 30.167969 195.144531 30.167969 194.242188 30.167969 L 194.242188 30.570313 C 194.601563 30.542969 195.351563 30.542969 195.742188 30.542969 C 196.144531 30.542969 196.898438 30.542969 197.257813 30.570313 L 197.257813 30.167969 C 196.367188 30.167969 196.203125 30.167969 196.203125 29.539063 L 196.203125 26.953125 C 196.203125 25.492188 197.160156 24.714844 198.023438 24.714844 C 198.886719 24.714844 199.078125 25.425781 199.078125 26.273438 L 199.078125 29.539063 C 199.078125 30.167969 198.925781 30.167969 198.023438 30.167969 L 198.023438 30.570313 C 198.382813 30.542969 199.136719 30.542969 199.523438 30.542969 C 199.929688 30.542969 200.679688 30.542969 201.039063 30.570313 Z M 201.039063 30.570313 "/>
<path style=" stroke:none;fill-rule:evenodd;fill:rgb(0%,0%,0%);fill-opacity:1;" d="M 205.527344 28.84375 L 205.527344 28.050781 L 205.222656 28.050781 L 205.222656 28.816406 C 205.222656 29.816406 204.820313 30.402344 204.277344 30.402344 C 203.332031 30.402344 203.332031 29.109375 203.332031 28.871094 L 203.332031 24.980469 L 205.292969 24.980469 L 205.292969 24.574219 L 203.332031 24.574219 L 203.332031 22.015625 L 203.023438 22.015625 C 203.011719 23.324219 202.511719 24.660156 201.246094 24.699219 L 201.246094 24.980469 L 202.429688 24.980469 L 202.429688 28.84375 C 202.429688 30.386719 203.457031 30.707031 204.191406 30.707031 C 205.070313 30.707031 205.527344 29.847656 205.527344 28.84375 Z M 205.527344 28.84375 "/>
<path style=" stroke:none;fill-rule:evenodd;fill:rgb(0%,0%,0%);fill-opacity:1;" d="M 211.289063 28.804688 C 211.289063 28.050781 210.832031 27.605469 210.707031 27.480469 C 210.207031 27.050781 209.828125 26.96875 208.910156 26.800781 C 208.496094 26.71875 207.480469 26.523438 207.480469 25.6875 C 207.480469 25.257813 207.773438 24.617188 209.023438 24.617188 C 210.539063 24.617188 210.621094 25.910156 210.652344 26.339844 C 210.664063 26.453125 210.761719 26.453125 210.804688 26.453125 C 210.957031 26.453125 210.957031 26.382813 210.957031 26.132813 L 210.957031 24.6875 C 210.957031 24.4375 210.957031 24.367188 210.816406 24.367188 C 210.707031 24.367188 210.441406 24.671875 210.34375 24.796875 C 209.914063 24.449219 209.484375 24.367188 209.035156 24.367188 C 207.355469 24.367188 206.855469 25.285156 206.855469 26.050781 C 206.855469 26.203125 206.855469 26.691406 207.382813 27.175781 C 207.828125 27.566406 208.300781 27.664063 208.941406 27.789063 C 209.703125 27.941406 209.886719 27.980469 210.234375 28.261719 C 210.484375 28.46875 210.664063 28.777344 210.664063 29.164063 C 210.664063 29.761719 210.316406 30.429688 209.09375 30.429688 C 208.175781 30.429688 207.507813 29.902344 207.199219 28.511719 C 207.148438 28.261719 207.132813 28.234375 207.132813 28.234375 C 207.105469 28.175781 207.046875 28.175781 207.007813 28.175781 C 206.855469 28.175781 206.855469 28.246094 206.855469 28.496094 L 206.855469 30.386719 C 206.855469 30.640625 206.855469 30.707031 206.992188 30.707031 C 207.0625 30.707031 207.074219 30.695313 207.3125 30.402344 C 207.382813 30.304688 207.382813 30.277344 207.589844 30.054688 C 208.121094 30.707031 208.871094 30.707031 209.109375 30.707031 C 210.566406 30.707031 211.289063 29.902344 211.289063 28.804688 Z M 211.289063 28.804688 "/>
<path style=" stroke:none;fill-rule:evenodd;fill:rgb(0%,0%,0%);fill-opacity:1;" d="M 214.472656 27.65625 C 214.472656 27.460938 214.335938 27.304688 214.109375 27.304688 C 213.847656 27.304688 213.582031 27.558594 213.582031 27.824219 C 213.582031 28.007813 213.71875 28.175781 213.953125 28.175781 C 214.179688 28.175781 214.472656 27.949219 214.472656 27.65625 Z M 214.5625 32.371094 C 214.5625 32.273438 214.472656 32.273438 214.441406 32.273438 C 214.34375 32.273438 214.34375 32.300781 214.296875 32.449219 C 214.121094 33.0625 213.796875 33.660156 213.300781 33.660156 C 213.132813 33.660156 213.0625 33.5625 213.0625 33.339844 C 213.0625 33.09375 213.121094 32.957031 213.347656 32.359375 L 213.730469 31.332031 C 213.847656 31.050781 213.847656 31.03125 213.945313 30.765625 C 214.023438 30.570313 214.070313 30.433594 214.070313 30.246094 C 214.070313 29.808594 213.757813 29.445313 213.269531 29.445313 C 212.351563 29.445313 211.980469 30.863281 211.980469 30.953125 C 211.980469 31.050781 212.097656 31.050781 212.097656 31.050781 C 212.191406 31.050781 212.203125 31.03125 212.253906 30.875 C 212.515625 29.953125 212.90625 29.660156 213.238281 29.660156 C 213.316406 29.660156 213.484375 29.660156 213.484375 29.972656 C 213.484375 30.179688 213.417969 30.382813 213.378906 30.484375 C 213.300781 30.738281 212.859375 31.871094 212.703125 32.292969 C 212.605469 32.546875 212.476563 32.867188 212.476563 33.074219 C 212.476563 33.535156 212.8125 33.875 213.277344 33.875 C 214.199219 33.875 214.5625 32.457031 214.5625 32.371094 Z M 214.5625 32.371094 "/>
</g>
</svg>
