<?xml version="1.0" encoding="UTF-8"?>
<svg xmlns="http://www.w3.org/2000/svg" xmlns:xlink="http://www.w3.org/1999/xlink" width="101pt" height="28pt" viewBox="0 0 101 28" version="1.1">
<g id="surface28">
<path style=" stroke:none;fill-rule:evenodd;fill:rgb(0%,0%,0%);fill-opacity:1;" d="M 5.972656 8.601563 C 5.972656 8.183594 5.640625 7.917969 5.304688 7.917969 C 4.917969 7.917969 4.625 8.226563 4.625 8.601563 C 4.625 8.960938 4.929688 9.265625 5.292969 9.265625 C 5.710938 9.265625 5.972656 8.933594 5.972656 8.601563 Z M 5.972656 8.601563 "/>
<path style=" stroke:none;fill-rule:evenodd;fill:rgb(0%,0%,0%);fill-opacity:1;" d="M 7.675781 15.011719 C 7.675781 14.941406 7.621094 14.886719 7.535156 14.886719 C 7.410156 14.886719 7.398438 14.957031 7.355469 15.066406 C 6.980469 16.289063 6.175781 16.859375 5.546875 16.859375 C 5.0625 16.859375 4.796875 16.5 4.796875 15.929688 C 4.796875 15.625 4.851563 15.398438 5.074219 14.484375 L 5.5625 12.59375 C 5.769531 11.757813 6.246094 11.144531 6.882813 11.144531 C 6.882813 11.144531 7.300781 11.144531 7.59375 11.328125 C 7.148438 11.410156 6.980469 11.742188 6.980469 12.007813 C 6.980469 12.339844 7.246094 12.453125 7.441406 12.453125 C 7.855469 12.453125 8.148438 12.089844 8.148438 11.714844 C 8.148438 11.132813 7.480469 10.867188 6.898438 10.867188 C 6.050781 10.867188 5.574219 11.703125 5.449219 11.964844 C 5.128906 10.921875 4.269531 10.867188 4.019531 10.867188 C 2.601563 10.867188 1.847656 12.6875 1.847656 12.996094 C 1.847656 13.050781 1.90625 13.121094 2.003906 13.121094 C 2.113281 13.121094 2.140625 13.035156 2.167969 12.980469 C 2.640625 11.4375 3.574219 11.144531 3.976563 11.144531 C 4.601563 11.144531 4.726563 11.730469 4.726563 12.0625 C 4.726563 12.367188 4.644531 12.6875 4.476563 13.355469 L 4.003906 15.261719 C 3.796875 16.09375 3.394531 16.859375 2.65625 16.859375 C 2.585938 16.859375 2.238281 16.859375 1.945313 16.679688 C 2.449219 16.582031 2.558594 16.164063 2.558594 16 C 2.558594 15.71875 2.347656 15.554688 2.085938 15.554688 C 1.753906 15.554688 1.390625 15.84375 1.390625 16.289063 C 1.390625 16.875 2.042969 17.140625 2.640625 17.140625 C 3.308594 17.140625 3.78125 16.609375 4.074219 16.039063 C 4.296875 16.859375 4.992188 17.140625 5.507813 17.140625 C 6.925781 17.140625 7.675781 15.316406 7.675781 15.011719 Z M 7.675781 15.011719 "/>
<path style=" stroke:none;fill-rule:evenodd;fill:rgb(0%,0%,0%);fill-opacity:1;" d="M 22.433594 12.242188 C 22.433594 11.980469 22.195313 11.980469 21.988281 11.980469 L 13.796875 11.980469 C 13.601563 11.980469 13.351563 11.980469 13.351563 12.230469 C 13.351563 12.492188 13.589844 12.492188 13.796875 12.492188 L 21.988281 12.492188 C 22.183594 12.492188 22.433594 12.492188 22.433594 12.242188 Z M 22.433594 14.832031 C 22.433594 14.566406 22.195313 14.566406 21.988281 14.566406 L 13.796875 14.566406 C 13.601563 14.566406 13.351563 14.566406 13.351563 14.816406 C 13.351563 15.082031 13.589844 15.082031 13.796875 15.082031 L 21.988281 15.082031 C 22.183594 15.082031 22.433594 15.082031 22.433594 14.832031 Z M 22.433594 14.832031 "/>
<path style=" stroke:none;fill-rule:evenodd;fill:rgb(0%,0%,0%);fill-opacity:1;" d="M 33.023438 11.703125 C 33.023438 11.257813 32.59375 10.867188 31.898438 10.867188 C 31.34375 10.867188 30.703125 11.117188 30.117188 11.964844 C 30.019531 11.226563 29.464844 10.867188 28.90625 10.867188 C 28.367188 10.867188 28.085938 11.285156 27.921875 11.589844 C 27.683594 12.089844 27.476563 12.925781 27.476563 12.996094 C 27.476563 13.050781 27.53125 13.121094 27.628906 13.121094 C 27.738281 13.121094 27.753906 13.105469 27.835938 12.785156 C 28.046875 11.953125 28.308594 11.144531 28.867188 11.144531 C 29.199219 11.144531 29.296875 11.382813 29.296875 11.785156 C 29.296875 12.089844 29.15625 12.632813 29.0625 13.0625 L 28.671875 14.566406 L 28.394531 15.707031 C 28.296875 16.070313 28.144531 16.722656 28.144531 16.789063 C 28.144531 16.984375 28.296875 17.140625 28.503906 17.140625 C 28.65625 17.140625 28.921875 17.042969 29.003906 16.765625 C 29.046875 16.652344 29.5625 14.550781 29.644531 14.234375 C 29.714844 13.925781 29.796875 13.632813 29.867188 13.328125 L 30.019531 12.730469 C 30.0625 12.605469 30.4375 11.921875 30.785156 11.617188 C 30.953125 11.464844 31.316406 11.144531 31.886719 11.144531 C 32.105469 11.144531 32.328125 11.1875 32.511719 11.3125 C 32.078125 11.394531 31.855469 11.703125 31.855469 12.007813 C 31.855469 12.339844 32.121094 12.453125 32.316406 12.453125 C 32.703125 12.453125 33.023438 12.117188 33.023438 11.703125 Z M 33.023438 11.703125 "/>
<path style=" stroke:none;fill-rule:evenodd;fill:rgb(0%,0%,0%);fill-opacity:1;" d="M 40.375 15.011719 C 40.375 14.941406 40.320313 14.886719 40.234375 14.886719 C 40.109375 14.886719 40.097656 14.957031 40.058594 15.066406 C 39.679688 16.289063 38.875 16.859375 38.246094 16.859375 C 37.761719 16.859375 37.496094 16.5 37.496094 15.929688 C 37.496094 15.625 37.550781 15.398438 37.773438 14.484375 L 38.261719 12.59375 C 38.46875 11.757813 38.945313 11.144531 39.582031 11.144531 C 39.582031 11.144531 40 11.144531 40.292969 11.328125 C 39.847656 11.410156 39.679688 11.742188 39.679688 12.007813 C 39.679688 12.339844 39.945313 12.453125 40.140625 12.453125 C 40.558594 12.453125 40.847656 12.089844 40.847656 11.714844 C 40.847656 11.132813 40.183594 10.867188 39.597656 10.867188 C 38.75 10.867188 38.273438 11.703125 38.148438 11.964844 C 37.828125 10.921875 36.96875 10.867188 36.71875 10.867188 C 35.300781 10.867188 34.546875 12.6875 34.546875 12.996094 C 34.546875 13.050781 34.605469 13.121094 34.703125 13.121094 C 34.8125 13.121094 34.839844 13.035156 34.871094 12.980469 C 35.339844 11.4375 36.273438 11.144531 36.675781 11.144531 C 37.300781 11.144531 37.425781 11.730469 37.425781 12.0625 C 37.425781 12.367188 37.34375 12.6875 37.175781 13.355469 L 36.703125 15.261719 C 36.496094 16.09375 36.09375 16.859375 35.355469 16.859375 C 35.285156 16.859375 34.9375 16.859375 34.644531 16.679688 C 35.148438 16.582031 35.257813 16.164063 35.257813 16 C 35.257813 15.71875 35.046875 15.554688 34.785156 15.554688 C 34.453125 15.554688 34.089844 15.84375 34.089844 16.289063 C 34.089844 16.875 34.746094 17.140625 35.339844 17.140625 C 36.007813 17.140625 36.480469 16.609375 36.773438 16.039063 C 36.996094 16.859375 37.691406 17.140625 38.207031 17.140625 C 39.625 17.140625 40.375 15.316406 40.375 15.011719 Z M 40.375 15.011719 "/>
<path style=" stroke:none;fill-rule:evenodd;fill:rgb(0%,0%,0%);fill-opacity:1;" d="M 50.863281 25.910156 C 50.890625 25.921875 51.015625 26.0625 51.03125 26.0625 L 51.335938 26.0625 C 51.375 26.0625 51.488281 26.046875 51.488281 25.921875 C 51.488281 25.867188 51.460938 25.839844 51.433594 25.796875 C 50.929688 25.296875 50.179688 24.53125 49.320313 23.003906 C 47.816406 20.332031 47.261719 16.898438 47.261719 13.5625 C 47.261719 7.386719 49.011719 3.757813 51.445313 1.292969 C 51.488281 1.25 51.488281 1.210938 51.488281 1.183594 C 51.488281 1.042969 51.390625 1.042969 51.222656 1.042969 C 51.042969 1.042969 51.015625 1.042969 50.890625 1.15625 C 49.570313 2.296875 48.082031 4.226563 47.121094 7.164063 C 46.523438 9 46.203125 11.238281 46.203125 13.546875 C 46.203125 16.84375 46.800781 20.570313 48.984375 23.796875 C 49.359375 24.335938 49.875 24.90625 49.875 24.921875 C 50.015625 25.089844 50.207031 25.3125 50.320313 25.410156 Z M 50.863281 25.910156 "/>
<path style=" stroke:none;fill-rule:evenodd;fill:rgb(0%,0%,0%);fill-opacity:1;" d="M 57.800781 17 L 57.800781 16.597656 L 57.371094 16.597656 C 56.148438 16.597656 56.105469 16.429688 56.105469 15.929688 L 56.105469 8.085938 C 56.105469 7.765625 56.105469 7.75 55.828125 7.75 C 55.492188 8.125 54.796875 8.640625 53.367188 8.640625 L 53.367188 9.046875 C 53.6875 9.046875 54.382813 9.046875 55.144531 8.683594 L 55.144531 15.929688 C 55.144531 16.429688 55.105469 16.597656 53.878906 16.597656 L 53.449219 16.597656 L 53.449219 17 C 53.824219 16.972656 55.171875 16.972656 55.632813 16.972656 C 56.089844 16.972656 57.425781 16.972656 57.800781 17 Z M 57.800781 17 "/>
<path style=" stroke:none;fill-rule:evenodd;fill:rgb(0%,0%,0%);fill-opacity:1;" d="M 71.652344 13.523438 C 71.652344 13.246094 71.386719 13.246094 71.191406 13.246094 L 63.613281 13.246094 C 63.417969 13.246094 63.15625 13.246094 63.15625 13.523438 C 63.15625 13.800781 63.417969 13.800781 63.613281 13.800781 L 71.191406 13.800781 C 71.386719 13.800781 71.652344 13.800781 71.652344 13.523438 Z M 71.652344 13.523438 "/>
<path style=" stroke:none;fill-rule:evenodd;fill:rgb(0%,0%,0%);fill-opacity:1;" d="M 86.273438 5.609375 C 86.273438 5.542969 86.21875 5.484375 86.136719 5.484375 C 86.011719 5.484375 85.996094 5.554688 85.957031 5.667969 C 85.578125 6.890625 84.773438 7.460938 84.148438 7.460938 C 83.660156 7.460938 83.398438 7.101563 83.398438 6.53125 C 83.398438 6.222656 83.453125 6 83.675781 5.082031 L 84.160156 3.191406 C 84.371094 2.355469 84.84375 1.746094 85.484375 1.746094 C 85.484375 1.746094 85.898438 1.746094 86.191406 1.925781 C 85.746094 2.007813 85.578125 2.34375 85.578125 2.609375 C 85.578125 2.941406 85.84375 3.054688 86.039063 3.054688 C 86.457031 3.054688 86.75 2.691406 86.75 2.316406 C 86.75 1.730469 86.082031 1.46875 85.496094 1.46875 C 84.648438 1.46875 84.175781 2.300781 84.050781 2.566406 C 83.730469 1.523438 82.867188 1.46875 82.617188 1.46875 C 81.199219 1.46875 80.449219 3.289063 80.449219 3.59375 C 80.449219 3.648438 80.503906 3.71875 80.601563 3.71875 C 80.710938 3.71875 80.742188 3.636719 80.769531 3.582031 C 81.242188 2.039063 82.171875 1.746094 82.578125 1.746094 C 83.203125 1.746094 83.328125 2.328125 83.328125 2.664063 C 83.328125 2.96875 83.242188 3.289063 83.078125 3.957031 L 82.605469 5.859375 C 82.394531 6.695313 81.992188 7.460938 81.253906 7.460938 C 81.1875 7.460938 80.835938 7.460938 80.546875 7.28125 C 81.046875 7.183594 81.15625 6.765625 81.15625 6.597656 C 81.15625 6.320313 80.949219 6.152344 80.683594 6.152344 C 80.351563 6.152344 79.988281 6.445313 79.988281 6.890625 C 79.988281 7.476563 80.644531 7.738281 81.242188 7.738281 C 81.910156 7.738281 82.382813 7.210938 82.671875 6.640625 C 82.894531 7.460938 83.589844 7.738281 84.105469 7.738281 C 85.523438 7.738281 86.273438 5.917969 86.273438 5.609375 Z M 86.273438 5.609375 "/>
<path style="fill:none;stroke-width:0.557999;stroke-linecap:square;stroke-linejoin:miter;stroke:rgb(0%,0%,0%);stroke-opacity:1;stroke-miterlimit:10;" d="M 77.148438 13.546875 L 89.769531 13.546875 "/>
<path style=" stroke:none;fill-rule:evenodd;fill:rgb(0%,0%,0%);fill-opacity:1;" d="M 87.15625 26.335938 C 87.15625 26.195313 87.03125 26.195313 86.890625 26.195313 C 86.375 26.183594 86.195313 26.070313 85.984375 25.570313 L 84.054688 20.980469 C 84.039063 20.9375 83.984375 20.828125 83.984375 20.789063 C 83.984375 20.789063 84 20.757813 84.234375 20.578125 L 85.582031 19.523438 C 87.445313 18.074219 88.058594 17.585938 89.019531 17.503906 C 89.117188 17.492188 89.253906 17.492188 89.253906 17.253906 C 89.253906 17.171875 89.210938 17.101563 89.101563 17.101563 C 88.949219 17.101563 88.78125 17.128906 88.628906 17.128906 L 88.101563 17.128906 C 87.667969 17.128906 87.210938 17.101563 86.792969 17.101563 C 86.695313 17.101563 86.53125 17.101563 86.53125 17.351563 C 86.53125 17.492188 86.625 17.503906 86.710938 17.503906 C 86.863281 17.519531 87.042969 17.574219 87.042969 17.769531 C 87.042969 18.046875 86.625 18.382813 86.515625 18.464844 L 81.0625 22.707031 L 82.21875 18.117188 C 82.34375 17.644531 82.371094 17.503906 83.359375 17.503906 C 83.621094 17.503906 83.746094 17.503906 83.746094 17.242188 C 83.746094 17.101563 83.609375 17.101563 83.539063 17.101563 C 83.289063 17.101563 82.996094 17.128906 82.734375 17.128906 L 81.089844 17.128906 C 80.839844 17.128906 80.535156 17.101563 80.285156 17.101563 C 80.171875 17.101563 80.019531 17.101563 80.019531 17.367188 C 80.019531 17.503906 80.144531 17.503906 80.355469 17.503906 C 81.203125 17.503906 81.203125 17.617188 81.203125 17.769531 C 81.203125 17.769531 81.203125 17.878906 81.148438 18.089844 L 79.269531 25.570313 C 79.144531 26.058594 79.117188 26.195313 78.144531 26.195313 C 77.878906 26.195313 77.738281 26.195313 77.738281 26.445313 C 77.738281 26.601563 77.867188 26.601563 77.949219 26.601563 C 78.210938 26.601563 78.492188 26.570313 78.753906 26.570313 L 80.382813 26.570313 C 80.648438 26.570313 80.9375 26.601563 81.203125 26.601563 C 81.3125 26.601563 81.46875 26.601563 81.46875 26.335938 C 81.46875 26.195313 81.34375 26.195313 81.132813 26.195313 C 80.285156 26.195313 80.285156 26.085938 80.285156 25.945313 C 80.285156 25.847656 80.367188 25.5 80.421875 25.277344 L 80.964844 23.125 L 83.078125 21.46875 L 84.789063 25.5 C 84.832031 25.585938 84.859375 25.667969 84.859375 25.765625 C 84.859375 26.183594 84.304688 26.195313 84.179688 26.195313 C 84.054688 26.195313 83.914063 26.195313 83.914063 26.460938 C 83.914063 26.601563 84.066406 26.601563 84.109375 26.601563 C 84.59375 26.601563 85.109375 26.570313 85.597656 26.570313 L 86.265625 26.570313 C 86.472656 26.570313 86.710938 26.601563 86.917969 26.601563 C 87 26.601563 87.15625 26.601563 87.15625 26.335938 Z M 87.15625 26.335938 "/>
<path style=" stroke:none;fill-rule:evenodd;fill:rgb(0%,0%,0%);fill-opacity:1;" d="M 96.785156 13.546875 C 96.785156 9.554688 95.851563 5.3125 93.113281 2.183594 C 92.917969 1.960938 92.40625 1.417969 92.070313 1.125 C 91.972656 1.042969 91.945313 1.042969 91.765625 1.042969 C 91.625 1.042969 91.5 1.042969 91.5 1.183594 C 91.5 1.238281 91.554688 1.292969 91.585938 1.320313 C 92.054688 1.808594 92.808594 2.574219 93.671875 4.101563 C 95.171875 6.773438 95.726563 10.207031 95.726563 13.546875 C 95.726563 19.582031 94.058594 23.265625 91.554688 25.8125 C 91.527344 25.839844 91.5 25.882813 91.5 25.921875 C 91.5 26.0625 91.625 26.0625 91.765625 26.0625 C 91.945313 26.0625 91.972656 26.0625 92.097656 25.953125 C 93.421875 24.8125 94.90625 22.878906 95.867188 19.945313 C 96.480469 18.039063 96.785156 15.785156 96.785156 13.546875 Z M 96.785156 13.546875 "/>
</g>
</svg>
