<svg width="484" height="330" xmlns="http://www.w3.org/2000/svg" xmlns:xlink="http://www.w3.org/1999/xlink" overflow="hidden"><defs><clipPath id="clip0"><rect x="2062" y="1144" width="484" height="330"/></clipPath><clipPath id="clip1"><rect x="2216" y="1144" width="331" height="330"/></clipPath><clipPath id="clip2"><rect x="2216" y="1144" width="331" height="330"/></clipPath><clipPath id="clip3"><rect x="2216" y="1144" width="331" height="330"/></clipPath></defs><g clip-path="url(#clip0)" transform="translate(-2062 -1144)"><g clip-path="url(#clip1)"><g clip-path="url(#clip2)"><g clip-path="url(#clip3)"><path d="M2240.25 1319.41 2497.24 1319.41 2466.66 1349.98C2462.67 1353.97 2462.67 1360.43 2466.66 1364.42 2470.65 1368.41 2477.11 1368.41 2481.1 1364.42L2529.19 1316.31C2533.17 1312.52 2533.33 1306.21 2529.53 1302.22 2529.42 1302.1 2529.3 1301.99 2529.19 1301.88L2481.09 1253.79C2477.29 1249.8 2470.98 1249.65 2466.99 1253.44 2466.88 1253.55 2466.76 1253.67 2466.65 1253.79 2462.66 1257.58 2462.51 1263.89 2466.31 1267.88 2466.42 1268 2466.53 1268.11 2466.65 1268.22L2497.23 1298.82 2240.25 1298.82C2234.56 1298.82 2229.94 1303.44 2229.94 1309.13 2229.94 1314.83 2234.56 1319.44 2240.25 1319.44Z" fill="#4C7088"/></g></g></g><path d="M2072.5 1309.5 2249.76 1309.5" stroke="#4C7088" stroke-width="20.625" stroke-linecap="round" stroke-linejoin="round" stroke-miterlimit="10" fill="#FFFFFF" fill-rule="evenodd"/><path d="M2130.5 1335C2130.5 1327.54 2136.77 1321.5 2144.5 1321.5 2152.23 1321.5 2158.5 1327.54 2158.5 1335 2158.5 1342.46 2152.23 1348.5 2144.5 1348.5 2136.77 1348.5 2130.5 1342.46 2130.5 1335Z" stroke="#C2C2C2" stroke-width="1.14583" stroke-miterlimit="8" fill="#4C7088" fill-rule="evenodd"/><path d="M2188.5 1335C2188.5 1327.54 2194.77 1321.5 2202.5 1321.5 2210.23 1321.5 2216.5 1327.54 2216.5 1335 2216.5 1342.46 2210.23 1348.5 2202.5 1348.5 2194.77 1348.5 2188.5 1342.46 2188.5 1335Z" stroke="#C2C2C2" stroke-width="1.14583" stroke-miterlimit="8" fill="#4C7088" fill-rule="evenodd"/><path d="M2246.5 1335C2246.5 1327.54 2252.54 1321.5 2260 1321.5 2267.46 1321.5 2273.5 1327.54 2273.5 1335 2273.5 1342.46 2267.46 1348.5 2260 1348.5 2252.54 1348.5 2246.5 1342.46 2246.5 1335Z" stroke="#C2C2C2" stroke-width="1.14583" stroke-miterlimit="8" fill="#4C7088" fill-rule="evenodd"/><path d="M2303.5 1335C2303.5 1327.54 2309.77 1321.5 2317.5 1321.5 2325.23 1321.5 2331.5 1327.54 2331.5 1335 2331.5 1342.46 2325.23 1348.5 2317.5 1348.5 2309.77 1348.5 2303.5 1342.46 2303.5 1335Z" stroke="#C2C2C2" stroke-width="1.14583" stroke-miterlimit="8" fill="#4C7088" fill-rule="evenodd"/><path d="M2361.5 1335C2361.5 1327.54 2367.77 1321.5 2375.5 1321.5 2383.23 1321.5 2389.5 1327.54 2389.5 1335 2389.5 1342.46 2383.23 1348.5 2375.5 1348.5 2367.77 1348.5 2361.5 1342.46 2361.5 1335Z" stroke="#C2C2C2" stroke-width="1.14583" stroke-miterlimit="8" fill="#4C7088" fill-rule="evenodd"/><rect x="2130.5" y="1180.5" width="113" height="104" stroke="#C2C2C2" stroke-width="1.14583" stroke-miterlimit="8" fill="#4C7088"/><rect x="2271.5" y="1223.5" width="64" height="61.0002" stroke="#C2C2C2" stroke-width="1.14583" stroke-miterlimit="8" fill="#4C7088"/><rect x="2363.5" y="1223.5" width="64" height="61.0002" stroke="#C2C2C2" stroke-width="1.14583" stroke-miterlimit="8" fill="#4C7088"/></g></svg>