<svg width="96" height="96" xmlns="http://www.w3.org/2000/svg" xmlns:xlink="http://www.w3.org/1999/xlink" overflow="hidden"><defs><clipPath id="clip0"><rect x="592" y="333" width="96" height="96"/></clipPath></defs><g clip-path="url(#clip0)" transform="translate(-592 -333)"><path d="M612 373 668 373 668 377 612 377Z" fill="#4C7088"/><path d="M612 381 668 381 668 385 612 385Z" fill="#4C7088"/><path d="M655 407 655 419 668 419 668 407ZM660 411 657 411 657 409 660 409Z" fill="#4C7088"/><path d="M640 407 640 419 653 419 653 407ZM645 411 642 411 642 409 645 409Z" fill="#4C7088"/><path d="M655 393 655 405 668 405 668 393ZM660 397 657 397 657 395 660 395Z" fill="#4C7088"/><path d="M640 393 640 405 653 405 653 393ZM645 397 642 397 642 395 645 395Z" fill="#4C7088"/><path d="M625 407 625 419 638 419 638 407ZM630 411 627 411 627 409 630 409Z" fill="#4C7088"/><path d="M678 419 678 359.59 640 344 602 359.59 602 419 608 419 608 369 672 369 672 419 678 419Z" fill="#4C7088"/></g></svg>