<svg width="96" height="96" xmlns="http://www.w3.org/2000/svg" xmlns:xlink="http://www.w3.org/1999/xlink" overflow="hidden"><defs><clipPath id="clip0"><rect x="587" y="333" width="96" height="96"/></clipPath></defs><g clip-path="url(#clip0)" transform="translate(-587 -333)"><path d="M678.288 370.022C678.226 369.125 677.574 368.38 676.693 368.2L666.119 366.041C665.461 365.905 664.779 366.11 664.306 366.586L662.17 368.721 647.97 354.521C647.799 357.431 646.228 360.077 643.756 361.621L656.513 374.378 654.45 376.442C653.981 376.911 653.775 377.581 653.9 378.232L655.945 388.916C656.116 389.809 656.869 390.474 657.776 390.535L668.382 391.242C668.427 391.242 668.472 391.247 668.517 391.247 669.622 391.283 670.546 390.417 670.583 389.312 670.619 388.208 669.753 387.283 668.648 387.247L659.582 386.647 658.027 378.522 666.374 370.175 674.4 371.81 675.006 380.894C675.079 381.997 676.033 382.832 677.136 382.758 678.239 382.685 679.073 381.731 679 380.628Z" fill="#4C7088"/><path d="M629.941 383.941C629.942 380.727 629.023 377.579 627.292 374.87L620.236 383.3C616.585 387.677 610.077 388.265 605.701 384.613 601.324 380.962 600.736 374.455 604.387 370.078 604.784 369.602 605.224 369.162 605.7 368.765L605.96 368.547C599.931 371.298 596.062 377.314 596.06 383.941L596.06 403 629.941 403Z" fill="#4C7088"/><path d="M630 354C630 353.391 630.062 352.784 630.184 352.188L607.623 371.065C604.524 373.661 604.117 378.278 606.713 381.377 609.31 384.476 613.927 384.883 617.025 382.287 617.355 382.011 617.659 381.706 617.935 381.377L634.388 361.714C631.671 360.093 630.005 357.164 630 354ZM614.923 376.906C614.142 377.687 612.876 377.687 612.095 376.906 611.313 376.125 611.313 374.859 612.094 374.078 612.875 373.297 614.141 373.297 614.923 374.078 614.923 374.078 614.923 374.078 614.923 374.078 615.704 374.859 615.704 376.125 614.923 376.906Z" fill="#4C7088"/><path d="M630 407 596 407C593.791 407 592 408.791 592 411L592 415 634 415 634 411C634 408.791 632.209 407 630 407Z" fill="#4C7088"/><path d="M639 348C635.686 348 633 350.686 633 354 633 357.314 635.686 360 639 360 642.314 360 645 357.314 645 354 645 350.686 642.314 348 639 348ZM639 355.5C638.172 355.5 637.5 354.828 637.5 354 637.5 353.172 638.172 352.5 639 352.5 639.828 352.5 640.5 353.172 640.5 354 640.5 354.828 639.828 355.5 639 355.5Z" fill="#4C7088"/></g></svg>