<?xml version="1.0" encoding="UTF-8"?>
<svg xmlns="http://www.w3.org/2000/svg" xmlns:xlink="http://www.w3.org/1999/xlink" width="126pt" height="19pt" viewBox="0 0 126 19" version="1.1">
<g id="surface136">
<path style=" stroke:none;fill-rule:evenodd;fill:rgb(0%,0%,0%);fill-opacity:1;" d="M 7.605469 7.589844 C 7.621094 7.519531 7.648438 7.4375 7.648438 7.351563 C 7.648438 7.144531 7.480469 7.007813 7.273438 7.007813 C 7.148438 7.007813 6.855469 7.0625 6.746094 7.476563 L 5.714844 11.566406 C 5.644531 11.816406 5.644531 11.84375 5.535156 12 C 5.257813 12.386719 4.796875 12.859375 4.128906 12.859375 C 3.351563 12.859375 3.28125 12.09375 3.28125 11.71875 C 3.28125 10.929688 3.65625 9.855469 4.03125 8.855469 C 4.183594 8.453125 4.269531 8.257813 4.269531 7.980469 C 4.269531 7.394531 3.851563 6.867188 3.167969 6.867188 C 1.890625 6.867188 1.375 8.882813 1.375 8.996094 C 1.375 9.050781 1.433594 9.121094 1.527344 9.121094 C 1.652344 9.121094 1.667969 9.0625 1.722656 8.871094 C 2.058594 7.703125 2.585938 7.144531 3.128906 7.144531 C 3.253906 7.144531 3.488281 7.144531 3.488281 7.605469 C 3.488281 7.964844 3.335938 8.367188 3.128906 8.898438 C 2.449219 10.71875 2.449219 11.179688 2.449219 11.511719 C 2.449219 12.832031 3.394531 13.140625 4.089844 13.140625 C 4.492188 13.140625 4.992188 13.015625 5.480469 12.5 L 5.492188 12.511719 C 5.285156 13.335938 5.144531 13.875 4.660156 14.558594 C 4.285156 15.085938 3.738281 15.558594 3.058594 15.558594 C 2.890625 15.558594 2.222656 15.53125 2.015625 14.890625 C 2.058594 14.90625 2.15625 14.90625 2.15625 14.90625 C 2.574219 14.90625 2.851563 14.542969 2.851563 14.222656 C 2.851563 13.90625 2.585938 13.792969 2.378906 13.792969 C 2.15625 13.792969 1.667969 13.960938 1.667969 14.640625 C 1.667969 15.351563 2.265625 15.835938 3.058594 15.835938 C 4.449219 15.835938 5.855469 14.558594 6.246094 13.015625 Z M 7.605469 7.589844 "/>
<path style=" stroke:none;fill-rule:evenodd;fill:rgb(0%,0%,0%);fill-opacity:1;" d="M 21.832031 8.242188 C 21.832031 7.980469 21.597656 7.980469 21.386719 7.980469 L 13.195313 7.980469 C 13.003906 7.980469 12.753906 7.980469 12.753906 8.230469 C 12.753906 8.492188 12.988281 8.492188 13.195313 8.492188 L 21.386719 8.492188 C 21.582031 8.492188 21.832031 8.492188 21.832031 8.242188 Z M 21.832031 10.832031 C 21.832031 10.566406 21.597656 10.566406 21.386719 10.566406 L 13.195313 10.566406 C 13.003906 10.566406 12.753906 10.566406 12.753906 10.816406 C 12.753906 11.082031 12.988281 11.082031 13.195313 11.082031 L 21.386719 11.082031 C 21.582031 11.082031 21.832031 11.082031 21.832031 10.832031 Z M 21.832031 10.832031 "/>
<path style=" stroke:none;fill-rule:evenodd;fill:rgb(0%,0%,0%);fill-opacity:1;" d="M 33.105469 7.589844 C 33.121094 7.519531 33.148438 7.4375 33.148438 7.351563 C 33.148438 7.144531 32.980469 7.007813 32.773438 7.007813 C 32.648438 7.007813 32.355469 7.0625 32.246094 7.476563 L 31.214844 11.566406 C 31.144531 11.816406 31.144531 11.84375 31.035156 12 C 30.757813 12.386719 30.296875 12.859375 29.628906 12.859375 C 28.851563 12.859375 28.78125 12.09375 28.78125 11.71875 C 28.78125 10.929688 29.15625 9.855469 29.53125 8.855469 C 29.683594 8.453125 29.769531 8.257813 29.769531 7.980469 C 29.769531 7.394531 29.351563 6.867188 28.667969 6.867188 C 27.390625 6.867188 26.875 8.882813 26.875 8.996094 C 26.875 9.050781 26.933594 9.121094 27.027344 9.121094 C 27.152344 9.121094 27.167969 9.0625 27.222656 8.871094 C 27.558594 7.703125 28.085938 7.144531 28.628906 7.144531 C 28.753906 7.144531 28.988281 7.144531 28.988281 7.605469 C 28.988281 7.964844 28.835938 8.367188 28.628906 8.898438 C 27.949219 10.71875 27.949219 11.179688 27.949219 11.511719 C 27.949219 12.832031 28.894531 13.140625 29.589844 13.140625 C 29.992188 13.140625 30.492188 13.015625 30.980469 12.5 L 30.992188 12.511719 C 30.785156 13.335938 30.644531 13.875 30.160156 14.558594 C 29.785156 15.085938 29.238281 15.558594 28.558594 15.558594 C 28.390625 15.558594 27.722656 15.53125 27.515625 14.890625 C 27.558594 14.90625 27.65625 14.90625 27.65625 14.90625 C 28.074219 14.90625 28.351563 14.542969 28.351563 14.222656 C 28.351563 13.90625 28.085938 13.792969 27.878906 13.792969 C 27.65625 13.792969 27.167969 13.960938 27.167969 14.640625 C 27.167969 15.351563 27.765625 15.835938 28.558594 15.835938 C 29.949219 15.835938 31.355469 14.558594 31.746094 13.015625 Z M 33.105469 7.589844 "/>
<path style=" stroke:none;fill-rule:evenodd;fill:rgb(0%,0%,0%);fill-opacity:1;" d="M 37.699219 11.96875 C 37.699219 11.1875 37.652344 10.40625 37.308594 9.679688 C 36.859375 8.742188 36.058594 8.585938 35.644531 8.585938 C 35.058594 8.585938 34.34375 8.839844 33.945313 9.75 C 33.628906 10.425781 33.582031 11.1875 33.582031 11.96875 C 33.582031 12.703125 33.621094 13.585938 34.023438 14.328125 C 34.441406 15.121094 35.15625 15.316406 35.636719 15.316406 C 36.164063 15.316406 36.90625 15.109375 37.339844 14.179688 C 37.652344 13.507813 37.699219 12.742188 37.699219 11.96875 Z M 36.886719 11.851563 C 36.886719 12.585938 36.886719 13.25 36.78125 13.878906 C 36.632813 14.804688 36.074219 15.101563 35.636719 15.101563 C 35.253906 15.101563 34.675781 14.855469 34.503906 13.917969 C 34.394531 13.328125 34.394531 12.429688 34.394531 11.851563 C 34.394531 11.226563 34.394531 10.582031 34.472656 10.054688 C 34.660156 8.890625 35.390625 8.800781 35.636719 8.800781 C 35.957031 8.800781 36.605469 8.976563 36.789063 9.945313 C 36.886719 10.492188 36.886719 11.234375 36.886719 11.851563 Z M 36.886719 11.851563 "/>
<path style=" stroke:none;fill-rule:evenodd;fill:rgb(0%,0%,0%);fill-opacity:1;" d="M 51.53125 9.539063 C 51.53125 9.273438 51.296875 9.273438 51.085938 9.273438 L 47.25 9.273438 L 47.25 5.433594 C 47.25 5.238281 47.25 4.988281 47 4.988281 C 46.734375 4.988281 46.734375 5.226563 46.734375 5.433594 L 46.734375 9.273438 L 42.894531 9.273438 C 42.703125 9.273438 42.453125 9.273438 42.453125 9.523438 C 42.453125 9.789063 42.6875 9.789063 42.894531 9.789063 L 46.734375 9.789063 L 46.734375 13.625 C 46.734375 13.820313 46.734375 14.070313 46.984375 14.070313 C 47.25 14.070313 47.25 13.835938 47.25 13.625 L 47.25 9.789063 L 51.085938 9.789063 C 51.28125 9.789063 51.53125 9.789063 51.53125 9.539063 Z M 51.53125 9.539063 "/>
<path style=" stroke:none;fill-rule:evenodd;fill:rgb(0%,0%,0%);fill-opacity:1;" d="M 59.921875 16.378906 C 59.921875 16.335938 59.921875 16.308594 59.683594 16.074219 C 58.292969 14.667969 57.515625 12.375 57.515625 9.539063 C 57.515625 6.839844 58.167969 4.515625 59.78125 2.875 C 59.921875 2.75 59.921875 2.722656 59.921875 2.679688 C 59.921875 2.597656 59.851563 2.570313 59.796875 2.570313 C 59.613281 2.570313 58.472656 3.570313 57.792969 4.933594 C 57.082031 6.339844 56.761719 7.828125 56.761719 9.539063 C 56.761719 10.773438 56.957031 12.429688 57.679688 13.917969 C 58.5 15.585938 59.640625 16.492188 59.796875 16.492188 C 59.851563 16.492188 59.921875 16.460938 59.921875 16.378906 Z M 59.921875 16.378906 "/>
<path style=" stroke:none;fill-rule:evenodd;fill:rgb(0%,0%,0%);fill-opacity:1;" d="M 66.402344 13 L 66.402344 12.597656 L 65.96875 12.597656 C 64.746094 12.597656 64.703125 12.429688 64.703125 11.929688 L 64.703125 4.085938 C 64.703125 3.765625 64.703125 3.75 64.425781 3.75 C 64.09375 4.125 63.398438 4.640625 61.964844 4.640625 L 61.964844 5.046875 C 62.285156 5.046875 62.980469 5.046875 63.746094 4.683594 L 63.746094 11.929688 C 63.746094 12.429688 63.703125 12.597656 62.480469 12.597656 L 62.046875 12.597656 L 62.046875 13 C 62.425781 12.972656 63.773438 12.972656 64.234375 12.972656 C 64.691406 12.972656 66.027344 12.972656 66.402344 13 Z M 66.402344 13 "/>
<path style=" stroke:none;fill-rule:evenodd;fill:rgb(0%,0%,0%);fill-opacity:1;" d="M 80.25 9.523438 C 80.25 9.246094 79.988281 9.246094 79.792969 9.246094 L 72.210938 9.246094 C 72.019531 9.246094 71.753906 9.246094 71.753906 9.523438 C 71.753906 9.800781 72.019531 9.800781 72.210938 9.800781 L 79.792969 9.800781 C 79.988281 9.800781 80.25 9.800781 80.25 9.523438 Z M 80.25 9.523438 "/>
<path style=" stroke:none;fill-rule:evenodd;fill:rgb(0%,0%,0%);fill-opacity:1;" d="M 91.207031 7.589844 C 91.21875 7.519531 91.246094 7.4375 91.246094 7.351563 C 91.246094 7.144531 91.082031 7.007813 90.871094 7.007813 C 90.746094 7.007813 90.453125 7.0625 90.34375 7.476563 L 89.3125 11.566406 C 89.246094 11.816406 89.246094 11.84375 89.132813 12 C 88.855469 12.386719 88.398438 12.859375 87.730469 12.859375 C 86.949219 12.859375 86.882813 12.09375 86.882813 11.71875 C 86.882813 10.929688 87.257813 9.855469 87.632813 8.855469 C 87.785156 8.453125 87.867188 8.257813 87.867188 7.980469 C 87.867188 7.394531 87.453125 6.867188 86.769531 6.867188 C 85.492188 6.867188 84.976563 8.882813 84.976563 8.996094 C 84.976563 9.050781 85.03125 9.121094 85.128906 9.121094 C 85.253906 9.121094 85.265625 9.0625 85.324219 8.871094 C 85.65625 7.703125 86.1875 7.144531 86.726563 7.144531 C 86.851563 7.144531 87.089844 7.144531 87.089844 7.605469 C 87.089844 7.964844 86.9375 8.367188 86.726563 8.898438 C 86.046875 10.71875 86.046875 11.179688 86.046875 11.511719 C 86.046875 12.832031 86.992188 13.140625 87.6875 13.140625 C 88.089844 13.140625 88.589844 13.015625 89.078125 12.5 L 89.09375 12.511719 C 88.882813 13.335938 88.742188 13.875 88.257813 14.558594 C 87.882813 15.085938 87.339844 15.558594 86.65625 15.558594 C 86.492188 15.558594 85.824219 15.53125 85.617188 14.890625 C 85.65625 14.90625 85.753906 14.90625 85.753906 14.90625 C 86.171875 14.90625 86.449219 14.542969 86.449219 14.222656 C 86.449219 13.90625 86.1875 13.792969 85.976563 13.792969 C 85.753906 13.792969 85.265625 13.960938 85.265625 14.640625 C 85.265625 15.351563 85.867188 15.835938 86.65625 15.835938 C 88.046875 15.835938 89.453125 14.558594 89.84375 13.015625 Z M 91.207031 7.589844 "/>
<path style=" stroke:none;fill-rule:evenodd;fill:rgb(0%,0%,0%);fill-opacity:1;" d="M 95.699219 11.96875 C 95.699219 11.1875 95.648438 10.40625 95.308594 9.679688 C 94.859375 8.742188 94.054688 8.585938 93.644531 8.585938 C 93.058594 8.585938 92.34375 8.839844 91.945313 9.75 C 91.628906 10.425781 91.582031 11.1875 91.582031 11.96875 C 91.582031 12.703125 91.621094 13.585938 92.023438 14.328125 C 92.441406 15.121094 93.15625 15.316406 93.636719 15.316406 C 94.164063 15.316406 94.90625 15.109375 95.335938 14.179688 C 95.648438 13.507813 95.699219 12.742188 95.699219 11.96875 Z M 94.886719 11.851563 C 94.886719 12.585938 94.886719 13.25 94.78125 13.878906 C 94.632813 14.804688 94.074219 15.101563 93.636719 15.101563 C 93.253906 15.101563 92.675781 14.855469 92.5 13.917969 C 92.394531 13.328125 92.394531 12.429688 92.394531 11.851563 C 92.394531 11.226563 92.394531 10.582031 92.472656 10.054688 C 92.65625 8.890625 93.390625 8.800781 93.636719 8.800781 C 93.957031 8.800781 94.601563 8.976563 94.789063 9.945313 C 94.886719 10.492188 94.886719 11.234375 94.886719 11.851563 Z M 94.886719 11.851563 "/>
<path style=" stroke:none;fill-rule:evenodd;fill:rgb(0%,0%,0%);fill-opacity:1;" d="M 100.523438 9.539063 C 100.523438 8.480469 100.382813 6.757813 99.605469 5.140625 C 98.78125 3.472656 97.644531 2.570313 97.492188 2.570313 C 97.433594 2.570313 97.367188 2.597656 97.367188 2.679688 C 97.367188 2.722656 97.367188 2.75 97.601563 2.988281 C 98.992188 4.390625 99.769531 6.6875 99.769531 9.523438 C 99.769531 12.222656 99.117188 14.542969 97.503906 16.183594 C 97.367188 16.308594 97.367188 16.335938 97.367188 16.378906 C 97.367188 16.460938 97.433594 16.492188 97.492188 16.492188 C 97.671875 16.492188 98.808594 15.488281 99.492188 14.125 C 100.203125 12.707031 100.523438 11.207031 100.523438 9.539063 Z M 100.523438 9.539063 "/>
<path style=" stroke:none;fill-rule:evenodd;fill:rgb(0%,0%,0%);fill-opacity:1;" d="M 107.667969 9.523438 C 107.667969 9.121094 107.335938 8.785156 106.933594 8.785156 C 106.53125 8.785156 106.195313 9.121094 106.195313 9.523438 C 106.195313 9.925781 106.53125 10.261719 106.933594 10.261719 C 107.335938 10.261719 107.667969 9.925781 107.667969 9.523438 Z M 107.667969 9.523438 "/>
<path style=" stroke:none;fill-rule:evenodd;fill:rgb(0%,0%,0%);fill-opacity:1;" d="M 119.34375 11.011719 C 119.34375 10.941406 119.289063 10.886719 119.203125 10.886719 C 119.078125 10.886719 119.066406 10.957031 119.007813 11.164063 C 118.757813 12.125 118.507813 12.859375 117.953125 12.859375 C 117.535156 12.859375 117.535156 12.402344 117.535156 12.222656 C 117.535156 11.902344 117.578125 11.761719 117.714844 11.179688 L 117.992188 10.039063 L 118.5625 7.769531 C 118.660156 7.421875 118.660156 7.394531 118.660156 7.351563 C 118.660156 7.144531 118.496094 7.007813 118.285156 7.007813 C 117.882813 7.007813 117.785156 7.351563 117.703125 7.703125 L 116.714844 11.71875 C 116.714844 11.71875 116.15625 12.859375 115.144531 12.859375 C 114.417969 12.859375 114.28125 12.234375 114.28125 11.71875 C 114.28125 10.929688 114.667969 9.816406 115.03125 8.882813 C 115.199219 8.4375 115.269531 8.257813 115.269531 7.980469 C 115.269531 7.382813 114.835938 6.867188 114.167969 6.867188 C 112.890625 6.867188 112.375 8.882813 112.375 8.996094 C 112.375 9.050781 112.429688 9.121094 112.527344 9.121094 C 112.652344 9.121094 112.667969 9.0625 112.722656 8.871094 C 113.054688 7.671875 113.597656 7.144531 114.128906 7.144531 C 114.265625 7.144531 114.488281 7.160156 114.488281 7.605469 C 114.488281 7.964844 114.335938 8.367188 114.128906 8.898438 C 113.515625 10.550781 113.445313 11.082031 113.445313 11.5 C 113.445313 12.917969 114.515625 13.140625 115.085938 13.140625 C 115.976563 13.140625 116.464844 12.527344 116.742188 12.195313 C 116.921875 12.972656 117.589844 13.140625 117.925781 13.140625 C 118.367188 13.140625 118.703125 12.847656 118.925781 12.375 C 119.164063 11.875 119.34375 11.054688 119.34375 11.011719 Z M 119.34375 11.011719 "/>
<path style=" stroke:none;fill-rule:evenodd;fill:rgb(0%,0%,0%);fill-opacity:1;" d="M 123.671875 5.683594 C 123.671875 5.332031 123.488281 5.085938 123.371094 4.96875 C 123.105469 4.695313 122.820313 4.648438 122.390625 4.558594 C 122.039063 4.480469 121.648438 4.414063 121.648438 3.972656 C 121.648438 3.6875 121.882813 3.09375 122.742188 3.09375 C 122.988281 3.09375 123.476563 3.160156 123.625 3.542969 C 123.347656 3.550781 123.15625 3.765625 123.15625 3.984375 C 123.15625 4.117188 123.242188 4.265625 123.457031 4.265625 C 123.671875 4.265625 123.90625 4.101563 123.90625 3.71875 C 123.90625 3.277344 123.488281 2.875 122.742188 2.875 C 121.453125 2.875 121.089844 3.875 121.089844 4.304688 C 121.089844 5.066406 121.816406 5.214844 122.097656 5.273438 C 122.605469 5.371094 123.117188 5.476563 123.117188 6.015625 C 123.117188 6.269531 122.890625 7.09375 121.714844 7.09375 C 121.578125 7.09375 120.828125 7.09375 120.601563 6.574219 C 120.972656 6.625 121.21875 6.328125 121.21875 6.054688 C 121.21875 5.832031 121.0625 5.714844 120.855469 5.714844 C 120.601563 5.714844 120.308594 5.917969 120.308594 6.359375 C 120.308594 6.914063 120.867188 7.308594 121.707031 7.308594 C 123.292969 7.308594 123.671875 6.125 123.671875 5.683594 Z M 123.671875 5.683594 "/>
</g>
</svg>
