<svg width="96" height="96" xmlns="http://www.w3.org/2000/svg" xmlns:xlink="http://www.w3.org/1999/xlink" overflow="hidden"><defs><clipPath id="clip0"><rect x="587" y="333" width="96" height="96"/></clipPath></defs><g clip-path="url(#clip0)" transform="translate(-587 -333)"><path d="M614.716 371.384C613.792 371.538 612.898 371.842 612.072 372.284 611.881 372.39 611.69 372.507 611.501 372.634 607.337 375.42 605.678 379.034 604.075 382.528 603.661 383.428 603.233 384.364 602.763 385.281 600.052 390.581 596.604 393.705 591.583 395.422L590.691 395.728C590.169 395.907 589.89 396.476 590.07 396.998 590.134 397.187 590.254 397.352 590.413 397.472L591.166 398.04C594.441 400.38 598.332 401.704 602.354 401.846 604.488 401.855 606.596 401.38 608.52 400.456 613.576 398.03 615.514 393.229 616.393 389.323L616.393 403.839C616.37 405.49 617.654 406.865 619.303 406.953 620.93 407.031 622.312 405.776 622.39 404.149 622.393 404.084 622.394 404.018 622.393 403.953L622.393 395.853C623.944 396.766 625.915 396.52 627.193 395.253L631.57 390.877 648.406 394.8 648.406 403.833C648.372 405.471 649.613 406.855 651.245 407 652.899 407.089 654.313 405.82 654.402 404.165 654.405 404.11 654.406 404.055 654.406 404L654.406 393.742 663.242 402.578C664.413 403.75 666.313 403.751 667.485 402.58 667.539 402.525 667.592 402.469 667.642 402.41 668.65 401.156 668.533 399.34 667.374 398.224L658.639 389.489 661.707 387.317C663.156 386.292 664.396 385 665.362 383.511L668.749 378.291 673.122 379.048C674.752 379.33 676.43 379.088 677.913 378.356L679.048 377.796C679.895 377.378 680.243 376.352 679.825 375.505 679.719 375.29 679.57 375.1 679.386 374.947L675.408 371.632 673.63 367.941C672.906 366.436 671.748 365.182 670.306 364.341L667.822 362.892 662.2 356.63C661.821 356.207 661.171 356.172 660.748 356.552 660.531 356.747 660.407 357.025 660.407 357.317L660.407 363.632 652.146 370.275C650.451 371.637 648.284 372.268 646.123 372.028L630.967 370.339C627.1 369.986 623.205 370.086 619.361 370.639 618.616 370.768 618.076 370.809 615.809 371.176ZM607.223 397.75C602.771 399.886 598.147 398.402 595.415 397.07 599.359 395.059 602.596 391.892 604.692 387.992 605.022 389.624 605.077 391.3 604.855 392.951L604.536 394.9 606.495 394.691C608.268 394.467 610.012 394.058 611.7 393.472 610.688 395.328 609.123 396.824 607.223 397.75Z" fill="#4C7088"/><path d="M625.406 398.314 625.406 404C625.406 405.657 626.749 407 628.406 407 630.063 407 631.406 405.657 631.406 404L631.406 393.87 628.606 396.67C627.74 397.542 626.62 398.118 625.406 398.314Z" fill="#4C7088"/></g></svg>