<svg width="96" height="96" xmlns="http://www.w3.org/2000/svg" xmlns:xlink="http://www.w3.org/1999/xlink" overflow="hidden"><defs><clipPath id="clip0"><rect x="587" y="333" width="96" height="96"/></clipPath></defs><g clip-path="url(#clip0)" transform="translate(-587 -333)"><path d="M671.6 384.6 666.5 375.9C664.7 372.9 661.8 370.9 658.5 370.2 658.8 367.1 658.3 363.4 657.1 359.6 654.2 351.3 644.4 347 644.4 347 644.4 347 643.3 349 642.3 352 645.4 353.7 648.7 356.2 650.9 359.9 652.9 363.4 654.2 366.9 654.6 370L652.5 370C652 367.2 650.9 364 649.1 360.9 644.7 353.2 634.2 351 634.2 351 634.2 351 630.9 361.2 635.3 368.9 635.8 369.8 636.4 370.7 637 371.6 634.3 370.6 631.5 370.1 628.5 370.1 619 370.1 610.8 375.5 606.8 383.3 606.2 383.1 605.6 383 605 383 600.6 383 597 386.6 597 391 597 395.2 600.3 398.7 604.4 399 605.6 405.7 609.6 411.4 615.1 415L636 415C637.7 415 639 413.7 639 412 639 410.3 637.7 409 636 409L626.9 409C631.9 407.5 635.5 402.9 635.5 397.5 635.5 390.9 630.1 385.5 623.5 385.5 622.4 385.5 621.4 385.6 620.4 385.9 619.6 386.1 618.8 385.6 618.6 384.8 618.4 384 618.9 383.2 619.7 383 621 382.7 622.3 382.5 623.6 382.5 631.9 382.5 638.6 389.2 638.6 397.5 638.6 401.1 637.3 404.4 635.2 407 637.1 407 639.2 405.9 641.4 404.4L643.2 412.6C643.4 414 644.6 415 646 415 646.2 415 646.4 415 646.6 414.9 647.9 414.6 648.8 413.5 648.9 412.2L649 412.6C649.4 414 650.6 415 652 415 652.2 415 652.4 415 652.6 414.9 654.2 414.5 655.2 412.9 654.9 411.3L651.8 396.9C653.9 395.8 655.9 395 658 395 661.3 395 664.6 394.6 667.8 393.8 669.8 393.3 671.4 391.8 672 389.9L672.1 389.6C672.7 387.9 672.5 386.1 671.6 384.6Z" fill="#4C7088"/></g></svg>