<?xml version="1.0" encoding="UTF-8"?>
<svg xmlns="http://www.w3.org/2000/svg" xmlns:xlink="http://www.w3.org/1999/xlink" width="113pt" height="32pt" viewBox="0 0 113 32" version="1.1">
<g id="surface204">
<path style=" stroke:none;fill-rule:evenodd;fill:rgb(0%,0%,0%);fill-opacity:1;" d="M 7.605469 14.324219 C 7.621094 14.253906 7.648438 14.167969 7.648438 14.085938 C 7.648438 13.878906 7.480469 13.738281 7.273438 13.738281 C 7.148438 13.738281 6.855469 13.792969 6.742188 14.210938 L 5.714844 18.300781 C 5.644531 18.550781 5.644531 18.578125 5.535156 18.730469 C 5.257813 19.121094 4.796875 19.59375 4.128906 19.59375 C 3.351563 19.59375 3.28125 18.828125 3.28125 18.453125 C 3.28125 17.660156 3.65625 16.589844 4.03125 15.589844 C 4.183594 15.183594 4.269531 14.988281 4.269531 14.710938 C 4.269531 14.128906 3.851563 13.601563 3.167969 13.601563 C 1.890625 13.601563 1.375 15.613281 1.375 15.726563 C 1.375 15.78125 1.429688 15.851563 1.527344 15.851563 C 1.652344 15.851563 1.667969 15.796875 1.722656 15.601563 C 2.054688 14.433594 2.585938 13.878906 3.128906 13.878906 C 3.253906 13.878906 3.488281 13.878906 3.488281 14.335938 C 3.488281 14.699219 3.335938 15.101563 3.128906 15.628906 C 2.445313 17.449219 2.445313 17.910156 2.445313 18.246094 C 2.445313 19.566406 3.390625 19.871094 4.085938 19.871094 C 4.492188 19.871094 4.992188 19.746094 5.476563 19.230469 L 5.492188 19.246094 C 5.28125 20.066406 5.144531 20.609375 4.65625 21.289063 C 4.28125 21.816406 3.738281 22.292969 3.058594 22.292969 C 2.890625 22.292969 2.222656 22.261719 2.015625 21.621094 C 2.054688 21.636719 2.15625 21.636719 2.15625 21.636719 C 2.570313 21.636719 2.851563 21.277344 2.851563 20.957031 C 2.851563 20.636719 2.585938 20.523438 2.375 20.523438 C 2.15625 20.523438 1.667969 20.691406 1.667969 21.371094 C 1.667969 22.082031 2.265625 22.570313 3.058594 22.570313 C 4.449219 22.570313 5.851563 21.289063 6.242188 19.746094 Z M 7.605469 14.324219 "/>
<path style=" stroke:none;fill-rule:evenodd;fill:rgb(0%,0%,0%);fill-opacity:1;" d="M 21.832031 14.976563 C 21.832031 14.710938 21.59375 14.710938 21.386719 14.710938 L 13.195313 14.710938 C 13 14.710938 12.75 14.710938 12.75 14.960938 C 12.75 15.226563 12.988281 15.226563 13.195313 15.226563 L 21.386719 15.226563 C 21.582031 15.226563 21.832031 15.226563 21.832031 14.976563 Z M 21.832031 17.5625 C 21.832031 17.296875 21.59375 17.296875 21.386719 17.296875 L 13.195313 17.296875 C 13 17.296875 12.75 17.296875 12.75 17.550781 C 12.75 17.8125 12.988281 17.8125 13.195313 17.8125 L 21.386719 17.8125 C 21.582031 17.8125 21.832031 17.8125 21.832031 17.5625 Z M 21.832031 17.5625 "/>
<path style=" stroke:none;fill-rule:evenodd;fill:rgb(0%,0%,0%);fill-opacity:1;" d="M 36.152344 16.253906 C 36.152344 15.976563 35.886719 15.976563 35.691406 15.976563 L 28.113281 15.976563 C 27.917969 15.976563 27.65625 15.976563 27.65625 16.253906 C 27.65625 16.535156 27.917969 16.535156 28.113281 16.535156 L 35.691406 16.535156 C 35.886719 16.535156 36.152344 16.535156 36.152344 16.253906 Z M 36.152344 16.253906 "/>
<path style=" stroke:none;fill-rule:evenodd;fill:rgb(0%,0%,0%);fill-opacity:1;" d="M 44.007813 14.324219 C 44.019531 14.253906 44.046875 14.167969 44.046875 14.085938 C 44.046875 13.878906 43.882813 13.738281 43.671875 13.738281 C 43.546875 13.738281 43.253906 13.792969 43.144531 14.210938 L 42.113281 18.300781 C 42.046875 18.550781 42.046875 18.578125 41.933594 18.730469 C 41.65625 19.121094 41.195313 19.59375 40.53125 19.59375 C 39.75 19.59375 39.679688 18.828125 39.679688 18.453125 C 39.679688 17.660156 40.054688 16.589844 40.429688 15.589844 C 40.585938 15.183594 40.667969 14.988281 40.667969 14.710938 C 40.667969 14.128906 40.25 13.601563 39.570313 13.601563 C 38.289063 13.601563 37.773438 15.613281 37.773438 15.726563 C 37.773438 15.78125 37.832031 15.851563 37.929688 15.851563 C 38.054688 15.851563 38.066406 15.796875 38.125 15.601563 C 38.457031 14.433594 38.984375 13.878906 39.527344 13.878906 C 39.652344 13.878906 39.890625 13.878906 39.890625 14.335938 C 39.890625 14.699219 39.734375 15.101563 39.527344 15.628906 C 38.847656 17.449219 38.847656 17.910156 38.847656 18.246094 C 38.847656 19.566406 39.792969 19.871094 40.488281 19.871094 C 40.890625 19.871094 41.390625 19.746094 41.878906 19.230469 L 41.890625 19.246094 C 41.683594 20.066406 41.542969 20.609375 41.058594 21.289063 C 40.683594 21.816406 40.140625 22.292969 39.457031 22.292969 C 39.289063 22.292969 38.625 22.261719 38.414063 21.621094 C 38.457031 21.636719 38.554688 21.636719 38.554688 21.636719 C 38.972656 21.636719 39.25 21.277344 39.25 20.957031 C 39.25 20.636719 38.984375 20.523438 38.777344 20.523438 C 38.554688 20.523438 38.066406 20.691406 38.066406 21.371094 C 38.066406 22.082031 38.664063 22.570313 39.457031 22.570313 C 40.847656 22.570313 42.253906 21.289063 42.644531 19.746094 Z M 44.007813 14.324219 "/>
<path style=" stroke:none;fill-rule:evenodd;fill:rgb(0%,0%,0%);fill-opacity:1;" d="M 51.953125 21.832031 L 51.953125 21.527344 C 51.445313 21.527344 51.199219 21.527344 51.1875 21.234375 L 51.1875 19.367188 C 51.1875 18.527344 51.1875 18.222656 50.886719 17.871094 C 50.746094 17.703125 50.425781 17.507813 49.859375 17.507813 C 49.035156 17.507813 48.605469 18.097656 48.441406 18.46875 C 48.300781 17.617188 47.578125 17.507813 47.140625 17.507813 C 46.425781 17.507813 45.964844 17.929688 45.691406 18.535156 L 45.691406 17.507813 L 44.3125 17.617188 L 44.3125 17.917969 C 44.996094 17.917969 45.078125 17.988281 45.078125 18.46875 L 45.078125 21.089844 C 45.078125 21.527344 44.96875 21.527344 44.3125 21.527344 L 44.3125 21.832031 L 45.417969 21.800781 L 46.515625 21.832031 L 46.515625 21.527344 C 45.859375 21.527344 45.75 21.527344 45.75 21.089844 L 45.75 19.289063 C 45.75 18.269531 46.445313 17.722656 47.070313 17.722656 C 47.6875 17.722656 47.792969 18.253906 47.792969 18.808594 L 47.792969 21.089844 C 47.792969 21.527344 47.6875 21.527344 47.03125 21.527344 L 47.03125 21.832031 L 48.136719 21.800781 L 49.230469 21.832031 L 49.230469 21.527344 C 48.578125 21.527344 48.46875 21.527344 48.46875 21.089844 L 48.46875 19.289063 C 48.46875 18.269531 49.164063 17.722656 49.789063 17.722656 C 50.40625 17.722656 50.515625 18.253906 50.515625 18.808594 L 50.515625 21.089844 C 50.515625 21.527344 50.40625 21.527344 49.75 21.527344 L 49.75 21.832031 L 50.855469 21.800781 Z M 51.953125 21.832031 "/>
<path style=" stroke:none;fill-rule:evenodd;fill:rgb(0%,0%,0%);fill-opacity:1;" d="M 56.921875 20.960938 L 56.921875 20.414063 L 56.679688 20.414063 L 56.679688 20.960938 C 56.679688 21.527344 56.433594 21.589844 56.328125 21.589844 C 56.003906 21.589844 55.964844 21.148438 55.964844 21.097656 L 55.964844 19.144531 C 55.964844 18.730469 55.964844 18.351563 55.613281 17.988281 C 55.230469 17.605469 54.742188 17.449219 54.273438 17.449219 C 53.472656 17.449219 52.796875 17.910156 52.796875 18.554688 C 52.796875 18.847656 52.992188 19.015625 53.246094 19.015625 C 53.519531 19.015625 53.695313 18.820313 53.695313 18.566406 C 53.695313 18.449219 53.644531 18.125 53.195313 18.113281 C 53.460938 17.773438 53.941406 17.664063 54.253906 17.664063 C 54.730469 17.664063 55.289063 18.046875 55.289063 18.917969 L 55.289063 19.277344 C 54.792969 19.308594 54.105469 19.339844 53.488281 19.632813 C 52.757813 19.964844 52.511719 20.472656 52.511719 20.902344 C 52.511719 21.695313 53.460938 21.941406 54.078125 21.941406 C 54.722656 21.941406 55.171875 21.546875 55.359375 21.089844 C 55.398438 21.480469 55.660156 21.890625 56.121094 21.890625 C 56.328125 21.890625 56.921875 21.753906 56.921875 20.960938 Z M 55.289063 20.464844 C 55.289063 21.390625 54.585938 21.722656 54.144531 21.722656 C 53.667969 21.722656 53.265625 21.382813 53.265625 20.894531 C 53.265625 20.355469 53.675781 19.542969 55.289063 19.484375 Z M 55.289063 20.464844 "/>
<path style=" stroke:none;fill-rule:evenodd;fill:rgb(0%,0%,0%);fill-opacity:1;" d="M 62.144531 21.832031 L 62.144531 21.527344 C 61.617188 21.527344 61.441406 21.507813 61.214844 21.226563 L 59.90625 19.535156 C 60.199219 19.160156 60.570313 18.683594 60.804688 18.429688 C 61.109375 18.074219 61.511719 17.929688 61.96875 17.917969 L 61.96875 17.617188 C 61.714844 17.636719 61.421875 17.648438 61.167969 17.648438 C 60.875 17.648438 60.355469 17.625 60.230469 17.617188 L 60.230469 17.917969 C 60.433594 17.941406 60.511719 18.066406 60.511719 18.222656 C 60.511719 18.378906 60.414063 18.507813 60.367188 18.566406 L 59.761719 19.328125 L 58.996094 18.339844 C 58.910156 18.242188 58.910156 18.222656 58.910156 18.164063 C 58.910156 18.019531 59.054688 17.929688 59.25 17.917969 L 59.25 17.617188 L 58.195313 17.648438 C 57.988281 17.648438 57.527344 17.636719 57.265625 17.617188 L 57.265625 17.917969 C 57.949219 17.917969 57.960938 17.929688 58.417969 18.515625 L 59.386719 19.777344 C 58.929688 20.363281 58.929688 20.386719 58.46875 20.941406 C 58 21.507813 57.421875 21.527344 57.214844 21.527344 L 57.214844 21.832031 C 57.472656 21.8125 57.773438 21.800781 58.027344 21.800781 L 58.957031 21.832031 L 58.957031 21.527344 C 58.742188 21.5 58.675781 21.371094 58.675781 21.226563 C 58.675781 21.011719 58.957031 20.6875 59.554688 19.984375 L 60.296875 20.960938 C 60.375 21.070313 60.503906 21.226563 60.503906 21.285156 C 60.503906 21.371094 60.414063 21.519531 60.152344 21.527344 L 60.152344 21.832031 L 61.207031 21.800781 C 61.472656 21.800781 61.851563 21.8125 62.144531 21.832031 Z M 62.144531 21.832031 "/>
<path style=" stroke:none;fill-rule:evenodd;fill:rgb(0%,0%,0%);fill-opacity:1;" d="M 68.46875 16.253906 C 68.46875 15.851563 68.136719 15.519531 67.730469 15.519531 C 67.328125 15.519531 66.996094 15.851563 66.996094 16.253906 C 66.996094 16.660156 67.328125 16.992188 67.730469 16.992188 C 68.136719 16.992188 68.46875 16.660156 68.46875 16.253906 Z M 68.46875 16.253906 "/>
<path style=" stroke:none;fill-rule:evenodd;fill:rgb(0%,0%,0%);fill-opacity:1;" d="M 79.394531 8.089844 C 79.394531 7.882813 79.394531 7.492188 78.949219 7.046875 C 78.601563 6.714844 78.269531 6.644531 77.519531 6.492188 C 77.144531 6.40625 76.542969 6.28125 76.542969 5.65625 C 76.542969 5.378906 76.792969 4.378906 78.117188 4.378906 C 78.699219 4.378906 79.269531 4.601563 79.410156 5.101563 C 78.796875 5.101563 78.769531 5.644531 78.769531 5.644531 C 78.769531 5.9375 79.035156 6.019531 79.160156 6.019531 C 79.355469 6.019531 79.742188 5.867188 79.742188 5.28125 C 79.742188 4.699219 79.214844 4.101563 78.128906 4.101563 C 76.308594 4.101563 75.820313 5.53125 75.820313 6.101563 C 75.820313 7.160156 76.851563 7.382813 77.167969 7.449219 C 77.40625 7.492188 77.78125 7.574219 77.863281 7.589844 C 78.046875 7.644531 78.671875 7.867188 78.671875 8.535156 C 78.671875 8.96875 78.28125 10.09375 76.667969 10.09375 C 76.378906 10.09375 75.332031 10.050781 75.054688 9.289063 C 75.613281 9.355469 75.890625 8.925781 75.890625 8.621094 C 75.890625 8.328125 75.695313 8.175781 75.417969 8.175781 C 75.113281 8.175781 74.707031 8.410156 74.707031 9.039063 C 74.707031 9.859375 75.542969 10.371094 76.65625 10.371094 C 78.769531 10.371094 79.394531 8.8125 79.394531 8.089844 Z M 79.394531 8.089844 "/>
<path style=" stroke:none;fill-rule:evenodd;fill:rgb(0%,0%,0%);fill-opacity:1;" d="M 85.710938 3.835938 C 85.710938 3.734375 85.621094 3.734375 85.59375 3.734375 C 85.496094 3.734375 85.484375 3.773438 85.457031 3.914063 C 85.320313 4.460938 85.132813 5.125 84.722656 5.125 C 84.515625 5.125 84.417969 5 84.417969 4.675781 C 84.417969 4.460938 84.535156 4 84.613281 3.65625 L 84.886719 2.601563 C 84.917969 2.453125 85.015625 2.082031 85.054688 1.9375 C 85.105469 1.710938 85.203125 1.339844 85.203125 1.28125 C 85.203125 1.105469 85.066406 1.015625 84.917969 1.015625 C 84.871094 1.015625 84.613281 1.027344 84.535156 1.359375 L 83.800781 4.304688 C 83.792969 4.34375 83.402344 5.125 82.6875 5.125 C 82.179688 5.125 82.082031 4.683594 82.082031 4.324219 C 82.082031 3.773438 82.355469 3.003906 82.609375 2.328125 C 82.726563 2.035156 82.777344 1.898438 82.777344 1.710938 C 82.777344 1.273438 82.464844 0.910156 81.972656 0.910156 C 81.042969 0.910156 80.683594 2.328125 80.683594 2.414063 C 80.683594 2.515625 80.800781 2.515625 80.800781 2.515625 C 80.898438 2.515625 80.910156 2.492188 80.957031 2.335938 C 81.199219 1.488281 81.574219 1.125 81.945313 1.125 C 82.03125 1.125 82.191406 1.132813 82.191406 1.445313 C 82.191406 1.683594 82.082031 1.964844 82.023438 2.113281 C 81.660156 3.082031 81.457031 3.6875 81.457031 4.167969 C 81.457031 5.09375 82.128906 5.339844 82.660156 5.339844 C 83.304688 5.339844 83.65625 4.898438 83.824219 4.683594 C 83.929688 5.085938 84.273438 5.339844 84.691406 5.339844 C 85.035156 5.339844 85.261719 5.117188 85.417969 4.804688 C 85.582031 4.449219 85.710938 3.835938 85.710938 3.835938 Z M 85.710938 3.835938 "/>
<path style=" stroke:none;fill-rule:evenodd;fill:rgb(0%,0%,0%);fill-opacity:1;" d="M 99.25 6.757813 C 99.25 6.476563 98.988281 6.476563 98.792969 6.476563 L 91.210938 6.476563 C 91.019531 6.476563 90.753906 6.476563 90.753906 6.757813 C 90.753906 7.035156 91.019531 7.035156 91.210938 7.035156 L 98.792969 7.035156 C 98.988281 7.035156 99.25 7.035156 99.25 6.757813 Z M 99.25 6.757813 "/>
<path style=" stroke:none;fill-rule:evenodd;fill:rgb(0%,0%,0%);fill-opacity:1;" d="M 109.199219 10.234375 L 109.199219 9.828125 L 108.769531 9.828125 C 107.546875 9.828125 107.503906 9.664063 107.503906 9.164063 L 107.503906 1.320313 C 107.503906 1 107.503906 0.984375 107.226563 0.984375 C 106.894531 1.359375 106.195313 1.875 104.765625 1.875 L 104.765625 2.277344 C 105.085938 2.277344 105.78125 2.277344 106.542969 1.914063 L 106.542969 9.164063 C 106.542969 9.664063 106.503906 9.828125 105.277344 9.828125 L 104.847656 9.828125 L 104.847656 10.234375 C 105.222656 10.203125 106.570313 10.203125 107.03125 10.203125 C 107.488281 10.203125 108.824219 10.203125 109.199219 10.234375 Z M 109.199219 10.234375 "/>
<path style="fill:none;stroke-width:0.557995;stroke-linecap:square;stroke-linejoin:miter;stroke:rgb(0%,0%,0%);stroke-opacity:1;stroke-miterlimit:10;" d="M 73.96875 16.207031 L 110.367188 16.207031 "/>
<path style=" stroke:none;fill-rule:evenodd;fill:rgb(0%,0%,0%);fill-opacity:1;" d="M 79.496094 27.089844 C 79.496094 26.882813 79.496094 26.492188 79.050781 26.046875 C 78.703125 25.714844 78.367188 25.644531 77.617188 25.492188 C 77.242188 25.40625 76.644531 25.28125 76.644531 24.65625 C 76.644531 24.378906 76.894531 23.378906 78.214844 23.378906 C 78.800781 23.378906 79.371094 23.597656 79.507813 24.101563 C 78.898438 24.101563 78.871094 24.644531 78.871094 24.644531 C 78.871094 24.933594 79.132813 25.019531 79.257813 25.019531 C 79.453125 25.019531 79.84375 24.863281 79.84375 24.28125 C 79.84375 23.699219 79.316406 23.097656 78.230469 23.097656 C 76.410156 23.097656 75.921875 24.53125 75.921875 25.101563 C 75.921875 26.160156 76.949219 26.378906 77.269531 26.449219 C 77.507813 26.492188 77.882813 26.574219 77.964844 26.589844 C 78.144531 26.644531 78.773438 26.867188 78.773438 27.535156 C 78.773438 27.964844 78.382813 29.09375 76.769531 29.09375 C 76.476563 29.09375 75.433594 29.050781 75.15625 28.285156 C 75.710938 28.355469 75.988281 27.925781 75.988281 27.621094 C 75.988281 27.328125 75.796875 27.175781 75.519531 27.175781 C 75.210938 27.175781 74.808594 27.410156 74.808594 28.035156 C 74.808594 28.855469 75.644531 29.371094 76.753906 29.371094 C 78.871094 29.371094 79.496094 27.8125 79.496094 27.089844 Z M 79.496094 27.089844 "/>
<path style=" stroke:none;fill-rule:evenodd;fill:rgb(0%,0%,0%);fill-opacity:1;" d="M 85.808594 23.832031 C 85.808594 23.734375 85.722656 23.734375 85.691406 23.734375 C 85.59375 23.734375 85.585938 23.773438 85.554688 23.910156 C 85.417969 24.457031 85.234375 25.125 84.824219 25.125 C 84.617188 25.125 84.519531 24.996094 84.519531 24.675781 C 84.519531 24.457031 84.636719 24 84.714844 23.65625 L 84.988281 22.601563 C 85.019531 22.453125 85.117188 22.082031 85.15625 21.933594 C 85.203125 21.710938 85.300781 21.339844 85.300781 21.28125 C 85.300781 21.105469 85.164063 21.015625 85.019531 21.015625 C 84.96875 21.015625 84.714844 21.027344 84.636719 21.359375 L 83.902344 24.300781 C 83.894531 24.339844 83.503906 25.125 82.789063 25.125 C 82.277344 25.125 82.183594 24.683594 82.183594 24.324219 C 82.183594 23.773438 82.457031 23.003906 82.710938 22.328125 C 82.828125 22.035156 82.875 21.894531 82.875 21.710938 C 82.875 21.269531 82.5625 20.910156 82.074219 20.910156 C 81.144531 20.910156 80.785156 22.328125 80.785156 22.414063 C 80.785156 22.511719 80.902344 22.511719 80.902344 22.511719 C 80.996094 22.511719 81.007813 22.492188 81.058594 22.335938 C 81.300781 21.488281 81.671875 21.125 82.042969 21.125 C 82.132813 21.125 82.289063 21.132813 82.289063 21.445313 C 82.289063 21.683594 82.183594 21.964844 82.121094 22.113281 C 81.761719 23.082031 81.554688 23.6875 81.554688 24.167969 C 81.554688 25.09375 82.230469 25.339844 82.757813 25.339844 C 83.402344 25.339844 83.757813 24.898438 83.921875 24.683594 C 84.03125 25.085938 84.371094 25.339844 84.792969 25.339844 C 85.136719 25.339844 85.359375 25.113281 85.515625 24.800781 C 85.683594 24.449219 85.808594 23.832031 85.808594 23.832031 Z M 85.808594 23.832031 "/>
<path style=" stroke:none;fill-rule:evenodd;fill:rgb(0%,0%,0%);fill-opacity:1;" d="M 99.53125 25.769531 C 99.53125 25.503906 99.292969 25.503906 99.085938 25.503906 L 95.246094 25.503906 L 95.246094 21.667969 C 95.246094 21.472656 95.246094 21.222656 94.996094 21.222656 C 94.734375 21.222656 94.734375 21.457031 94.734375 21.667969 L 94.734375 25.503906 L 90.894531 25.503906 C 90.699219 25.503906 90.449219 25.503906 90.449219 25.753906 C 90.449219 26.019531 90.6875 26.019531 90.894531 26.019531 L 94.734375 26.019531 L 94.734375 29.859375 C 94.734375 30.050781 94.734375 30.300781 94.984375 30.300781 C 95.246094 30.300781 95.246094 30.066406 95.246094 29.859375 L 95.246094 26.019531 L 99.085938 26.019531 C 99.28125 26.019531 99.53125 26.019531 99.53125 25.769531 Z M 99.53125 25.769531 "/>
<path style=" stroke:none;fill-rule:evenodd;fill:rgb(0%,0%,0%);fill-opacity:1;" d="M 109.101563 29.230469 L 109.101563 28.828125 L 108.667969 28.828125 C 107.445313 28.828125 107.402344 28.660156 107.402344 28.160156 L 107.402344 20.316406 C 107.402344 19.996094 107.402344 19.984375 107.125 19.984375 C 106.792969 20.359375 106.097656 20.875 104.664063 20.875 L 104.664063 21.277344 C 104.984375 21.277344 105.679688 21.277344 106.445313 20.914063 L 106.445313 28.160156 C 106.445313 28.660156 106.402344 28.828125 105.179688 28.828125 L 104.746094 28.828125 L 104.746094 29.230469 C 105.125 29.203125 106.472656 29.203125 106.933594 29.203125 C 107.390625 29.203125 108.726563 29.203125 109.101563 29.230469 Z M 109.101563 29.230469 "/>
</g>
</svg>
