<?xml version="1.0" encoding="UTF-8"?>
<svg xmlns="http://www.w3.org/2000/svg" xmlns:xlink="http://www.w3.org/1999/xlink" width="74pt" height="19pt" viewBox="0 0 74 19" version="1.1">
<g id="surface84">
<path style=" stroke:none;fill-rule:evenodd;fill:rgb(0%,0%,0%);fill-opacity:1;" d="M 7.605469 7.589844 C 7.621094 7.519531 7.648438 7.4375 7.648438 7.351563 C 7.648438 7.144531 7.480469 7.007813 7.273438 7.007813 C 7.148438 7.007813 6.855469 7.0625 6.742188 7.476563 L 5.714844 11.566406 C 5.644531 11.816406 5.644531 11.84375 5.535156 12 C 5.257813 12.386719 4.796875 12.859375 4.128906 12.859375 C 3.351563 12.859375 3.28125 12.09375 3.28125 11.71875 C 3.28125 10.929688 3.65625 9.855469 4.03125 8.855469 C 4.183594 8.453125 4.269531 8.257813 4.269531 7.980469 C 4.269531 7.394531 3.851563 6.867188 3.167969 6.867188 C 1.890625 6.867188 1.375 8.882813 1.375 8.996094 C 1.375 9.050781 1.429688 9.121094 1.527344 9.121094 C 1.652344 9.121094 1.667969 9.0625 1.722656 8.871094 C 2.054688 7.703125 2.585938 7.144531 3.128906 7.144531 C 3.253906 7.144531 3.488281 7.144531 3.488281 7.605469 C 3.488281 7.964844 3.335938 8.367188 3.128906 8.898438 C 2.445313 10.71875 2.445313 11.179688 2.445313 11.511719 C 2.445313 12.832031 3.390625 13.140625 4.085938 13.140625 C 4.492188 13.140625 4.992188 13.015625 5.476563 12.5 L 5.492188 12.511719 C 5.28125 13.335938 5.144531 13.875 4.65625 14.558594 C 4.28125 15.085938 3.738281 15.558594 3.058594 15.558594 C 2.890625 15.558594 2.222656 15.53125 2.015625 14.890625 C 2.054688 14.90625 2.15625 14.90625 2.15625 14.90625 C 2.570313 14.90625 2.851563 14.542969 2.851563 14.222656 C 2.851563 13.90625 2.585938 13.792969 2.375 13.792969 C 2.15625 13.792969 1.667969 13.960938 1.667969 14.640625 C 1.667969 15.351563 2.265625 15.835938 3.058594 15.835938 C 4.449219 15.835938 5.851563 14.558594 6.242188 13.015625 Z M 7.605469 7.589844 "/>
<path style=" stroke:none;fill-rule:evenodd;fill:rgb(0%,0%,0%);fill-opacity:1;" d="M 10.476563 8.988281 C 10.476563 8.789063 10.339844 8.632813 10.117188 8.632813 C 9.851563 8.632813 9.585938 8.890625 9.585938 9.152344 C 9.585938 9.339844 9.726563 9.503906 9.960938 9.503906 C 10.183594 9.503906 10.476563 9.28125 10.476563 8.988281 Z M 10.566406 13.703125 C 10.566406 13.601563 10.476563 13.601563 10.449219 13.601563 C 10.351563 13.601563 10.351563 13.632813 10.300781 13.78125 C 10.125 14.394531 9.804688 14.992188 9.304688 14.992188 C 9.136719 14.992188 9.070313 14.894531 9.070313 14.671875 C 9.070313 14.425781 9.128906 14.289063 9.351563 13.691406 L 9.734375 12.664063 C 9.851563 12.382813 9.851563 12.359375 9.949219 12.097656 C 10.027344 11.902344 10.078125 11.765625 10.078125 11.578125 C 10.078125 11.140625 9.765625 10.777344 9.273438 10.777344 C 8.355469 10.777344 7.984375 12.195313 7.984375 12.28125 C 7.984375 12.382813 8.101563 12.382813 8.101563 12.382813 C 8.199219 12.382813 8.210938 12.359375 8.257813 12.203125 C 8.523438 11.285156 8.914063 10.992188 9.246094 10.992188 C 9.324219 10.992188 9.492188 10.992188 9.492188 11.304688 C 9.492188 11.511719 9.421875 11.714844 9.382813 11.8125 C 9.304688 12.066406 8.863281 13.203125 8.707031 13.625 C 8.609375 13.878906 8.484375 14.199219 8.484375 14.40625 C 8.484375 14.867188 8.816406 15.207031 9.285156 15.207031 C 10.203125 15.207031 10.566406 13.789063 10.566406 13.703125 Z M 10.566406 13.703125 "/>
<path style=" stroke:none;fill-rule:evenodd;fill:rgb(0%,0%,0%);fill-opacity:1;" d="M 25.230469 8.242188 C 25.230469 7.980469 24.996094 7.980469 24.785156 7.980469 L 16.59375 7.980469 C 16.402344 7.980469 16.152344 7.980469 16.152344 8.230469 C 16.152344 8.492188 16.386719 8.492188 16.59375 8.492188 L 24.785156 8.492188 C 24.980469 8.492188 25.230469 8.492188 25.230469 8.242188 Z M 25.230469 10.832031 C 25.230469 10.566406 24.996094 10.566406 24.785156 10.566406 L 16.59375 10.566406 C 16.402344 10.566406 16.152344 10.566406 16.152344 10.816406 C 16.152344 11.082031 16.386719 11.082031 16.59375 11.082031 L 24.785156 11.082031 C 24.980469 11.082031 25.230469 11.082031 25.230469 10.832031 Z M 25.230469 10.832031 "/>
<path style=" stroke:none;fill-rule:evenodd;fill:rgb(0%,0%,0%);fill-opacity:1;" d="M 37.242188 11.011719 C 37.242188 10.941406 37.1875 10.886719 37.105469 10.886719 C 36.976563 10.886719 36.964844 10.957031 36.910156 11.164063 C 36.660156 12.125 36.40625 12.859375 35.851563 12.859375 C 35.433594 12.859375 35.433594 12.402344 35.433594 12.222656 C 35.433594 11.902344 35.476563 11.761719 35.613281 11.179688 L 35.894531 10.039063 L 36.464844 7.769531 C 36.558594 7.421875 36.558594 7.394531 36.558594 7.351563 C 36.558594 7.144531 36.394531 7.007813 36.183594 7.007813 C 35.78125 7.007813 35.683594 7.351563 35.601563 7.703125 L 34.613281 11.71875 C 34.613281 11.71875 34.058594 12.859375 33.042969 12.859375 C 32.320313 12.859375 32.179688 12.234375 32.179688 11.71875 C 32.179688 10.929688 32.570313 9.816406 32.929688 8.882813 C 33.097656 8.4375 33.167969 8.257813 33.167969 7.980469 C 33.167969 7.382813 32.738281 6.867188 32.066406 6.867188 C 30.789063 6.867188 30.273438 8.882813 30.273438 8.996094 C 30.273438 9.050781 30.332031 9.121094 30.425781 9.121094 C 30.550781 9.121094 30.566406 9.0625 30.621094 8.871094 C 30.957031 7.671875 31.5 7.144531 32.027344 7.144531 C 32.167969 7.144531 32.386719 7.160156 32.386719 7.605469 C 32.386719 7.964844 32.234375 8.367188 32.027344 8.898438 C 31.414063 10.550781 31.347656 11.082031 31.347656 11.5 C 31.347656 12.917969 32.417969 13.140625 32.988281 13.140625 C 33.878906 13.140625 34.363281 12.527344 34.640625 12.195313 C 34.824219 12.972656 35.488281 13.140625 35.824219 13.140625 C 36.269531 13.140625 36.601563 12.847656 36.824219 12.375 C 37.0625 11.875 37.242188 11.054688 37.242188 11.011719 Z M 37.242188 11.011719 "/>
<path style=" stroke:none;fill-rule:evenodd;fill:rgb(0%,0%,0%);fill-opacity:1;" d="M 42.089844 13.398438 L 41.847656 13.398438 C 41.796875 13.691406 41.730469 14.121094 41.628906 14.269531 C 41.5625 14.347656 40.917969 14.347656 40.703125 14.347656 L 38.941406 14.347656 L 39.980469 13.339844 C 41.503906 11.988281 42.089844 11.460938 42.089844 10.484375 C 42.089844 9.367188 41.210938 8.585938 40.019531 8.585938 C 38.910156 8.585938 38.1875 9.484375 38.1875 10.355469 C 38.1875 10.90625 38.675781 10.90625 38.707031 10.90625 C 38.871094 10.90625 39.214844 10.785156 39.214844 10.386719 C 39.214844 10.132813 39.039063 9.875 38.695313 9.875 C 38.617188 9.875 38.597656 9.875 38.570313 9.886719 C 38.792969 9.25 39.324219 8.890625 39.890625 8.890625 C 40.78125 8.890625 41.199219 9.679688 41.199219 10.484375 C 41.199219 11.265625 40.710938 12.039063 40.175781 12.644531 L 38.296875 14.738281 C 38.1875 14.84375 38.1875 14.867188 38.1875 15.101563 L 41.816406 15.101563 Z M 42.089844 13.398438 "/>
<path style=" stroke:none;fill-rule:evenodd;fill:rgb(0%,0%,0%);fill-opacity:1;" d="M 48.769531 9.523438 C 48.769531 9.121094 48.433594 8.785156 48.03125 8.785156 C 47.628906 8.785156 47.292969 9.121094 47.292969 9.523438 C 47.292969 9.925781 47.628906 10.261719 48.03125 10.261719 C 48.433594 10.261719 48.769531 9.925781 48.769531 9.523438 Z M 48.769531 9.523438 "/>
<path style=" stroke:none;fill-rule:evenodd;fill:rgb(0%,0%,0%);fill-opacity:1;" d="M 60.441406 11.011719 C 60.441406 10.941406 60.386719 10.886719 60.304688 10.886719 C 60.175781 10.886719 60.164063 10.957031 60.109375 11.164063 C 59.859375 12.125 59.605469 12.859375 59.050781 12.859375 C 58.632813 12.859375 58.632813 12.402344 58.632813 12.222656 C 58.632813 11.902344 58.675781 11.761719 58.8125 11.179688 L 59.09375 10.039063 L 59.664063 7.769531 C 59.757813 7.421875 59.757813 7.394531 59.757813 7.351563 C 59.757813 7.144531 59.59375 7.007813 59.382813 7.007813 C 58.980469 7.007813 58.882813 7.351563 58.800781 7.703125 L 57.8125 11.71875 C 57.8125 11.71875 57.257813 12.859375 56.242188 12.859375 C 55.519531 12.859375 55.378906 12.234375 55.378906 11.71875 C 55.378906 10.929688 55.769531 9.816406 56.128906 8.882813 C 56.296875 8.4375 56.367188 8.257813 56.367188 7.980469 C 56.367188 7.382813 55.9375 6.867188 55.269531 6.867188 C 53.988281 6.867188 53.472656 8.882813 53.472656 8.996094 C 53.472656 9.050781 53.53125 9.121094 53.625 9.121094 C 53.75 9.121094 53.765625 9.0625 53.820313 8.871094 C 54.15625 7.671875 54.699219 7.144531 55.226563 7.144531 C 55.367188 7.144531 55.589844 7.160156 55.589844 7.605469 C 55.589844 7.964844 55.433594 8.367188 55.226563 8.898438 C 54.613281 10.550781 54.546875 11.082031 54.546875 11.5 C 54.546875 12.917969 55.617188 13.140625 56.1875 13.140625 C 57.078125 13.140625 57.5625 12.527344 57.839844 12.195313 C 58.023438 12.972656 58.6875 13.140625 59.023438 13.140625 C 59.46875 13.140625 59.800781 12.847656 60.023438 12.375 C 60.261719 11.875 60.441406 11.054688 60.441406 11.011719 Z M 60.441406 11.011719 "/>
<path style=" stroke:none;fill-rule:evenodd;fill:rgb(0%,0%,0%);fill-opacity:1;" d="M 64.996094 15.101563 L 64.996094 14.796875 L 64.683594 14.796875 C 63.804688 14.796875 63.773438 14.6875 63.773438 14.328125 L 63.773438 8.839844 C 63.773438 8.605469 63.773438 8.585938 63.546875 8.585938 C 62.941406 9.210938 62.082031 9.210938 61.769531 9.210938 L 61.769531 9.515625 C 61.964844 9.515625 62.542969 9.515625 63.050781 9.261719 L 63.050781 14.328125 C 63.050781 14.679688 63.019531 14.796875 62.140625 14.796875 L 61.828125 14.796875 L 61.828125 15.101563 C 62.171875 15.070313 63.019531 15.070313 63.414063 15.070313 C 63.804688 15.070313 64.65625 15.070313 64.996094 15.101563 Z M 64.996094 15.101563 "/>
<path style=" stroke:none;fill-rule:evenodd;fill:rgb(0%,0%,0%);fill-opacity:1;" d="M 67.785156 15.089844 C 67.785156 14.445313 67.539063 14.0625 67.15625 14.0625 C 66.835938 14.0625 66.640625 14.308594 66.640625 14.582031 C 66.640625 14.84375 66.835938 15.101563 67.15625 15.101563 C 67.273438 15.101563 67.402344 15.0625 67.5 14.972656 C 67.53125 14.953125 67.546875 14.945313 67.546875 14.945313 C 67.546875 14.945313 67.570313 14.953125 67.570313 15.089844 C 67.570313 15.8125 67.226563 16.402344 66.902344 16.722656 C 66.796875 16.832031 66.796875 16.851563 66.796875 16.878906 C 66.796875 16.949219 66.84375 16.988281 66.894531 16.988281 C 67 16.988281 67.785156 16.234375 67.785156 15.089844 Z M 67.785156 15.089844 "/>
<path style=" stroke:none;fill-rule:evenodd;fill:rgb(0%,0%,0%);fill-opacity:1;" d="M 71.277344 8.988281 C 71.277344 8.789063 71.140625 8.632813 70.914063 8.632813 C 70.648438 8.632813 70.386719 8.890625 70.386719 9.152344 C 70.386719 9.339844 70.523438 9.503906 70.757813 9.503906 C 70.984375 9.503906 71.277344 9.28125 71.277344 8.988281 Z M 71.363281 13.703125 C 71.363281 13.601563 71.277344 13.601563 71.246094 13.601563 C 71.148438 13.601563 71.148438 13.632813 71.101563 13.78125 C 70.921875 14.394531 70.601563 14.992188 70.101563 14.992188 C 69.9375 14.992188 69.867188 14.894531 69.867188 14.671875 C 69.867188 14.425781 69.925781 14.289063 70.152344 13.691406 L 70.53125 12.664063 C 70.648438 12.382813 70.648438 12.359375 70.75 12.097656 C 70.828125 11.902344 70.875 11.765625 70.875 11.578125 C 70.875 11.140625 70.5625 10.777344 70.074219 10.777344 C 69.152344 10.777344 68.78125 12.195313 68.78125 12.28125 C 68.78125 12.382813 68.898438 12.382813 68.898438 12.382813 C 68.996094 12.382813 69.007813 12.359375 69.054688 12.203125 C 69.320313 11.285156 69.710938 10.992188 70.042969 10.992188 C 70.121094 10.992188 70.289063 10.992188 70.289063 11.304688 C 70.289063 11.511719 70.21875 11.714844 70.179688 11.8125 C 70.101563 12.066406 69.664063 13.203125 69.507813 13.625 C 69.40625 13.878906 69.28125 14.199219 69.28125 14.40625 C 69.28125 14.867188 69.613281 15.207031 70.082031 15.207031 C 71.003906 15.207031 71.363281 13.789063 71.363281 13.703125 Z M 71.363281 13.703125 "/>
</g>
</svg>
