<?xml version="1.0" encoding="UTF-8"?>
<svg xmlns="http://www.w3.org/2000/svg" xmlns:xlink="http://www.w3.org/1999/xlink" width="80pt" height="19pt" viewBox="0 0 80 19" version="1.1">
<g id="surface92">
<path style=" stroke:none;fill-rule:evenodd;fill:rgb(0%,0%,0%);fill-opacity:1;" d="M 7.609375 7.589844 C 7.621094 7.519531 7.648438 7.4375 7.648438 7.351563 C 7.648438 7.144531 7.484375 7.007813 7.273438 7.007813 C 7.148438 7.007813 6.855469 7.0625 6.746094 7.476563 L 5.714844 11.566406 C 5.648438 11.816406 5.648438 11.84375 5.535156 12 C 5.257813 12.386719 4.800781 12.859375 4.132813 12.859375 C 3.351563 12.859375 3.285156 12.09375 3.285156 11.71875 C 3.285156 10.929688 3.660156 9.855469 4.035156 8.855469 C 4.1875 8.453125 4.269531 8.257813 4.269531 7.980469 C 4.269531 7.394531 3.855469 6.867188 3.171875 6.867188 C 1.894531 6.867188 1.378906 8.882813 1.378906 8.996094 C 1.378906 9.050781 1.433594 9.121094 1.53125 9.121094 C 1.65625 9.121094 1.667969 9.0625 1.726563 8.871094 C 2.058594 7.703125 2.589844 7.144531 3.128906 7.144531 C 3.253906 7.144531 3.492188 7.144531 3.492188 7.605469 C 3.492188 7.964844 3.339844 8.367188 3.128906 8.898438 C 2.449219 10.71875 2.449219 11.179688 2.449219 11.511719 C 2.449219 12.832031 3.394531 13.140625 4.089844 13.140625 C 4.492188 13.140625 4.992188 13.015625 5.480469 12.5 L 5.496094 12.511719 C 5.285156 13.335938 5.144531 13.875 4.660156 14.558594 C 4.285156 15.085938 3.742188 15.558594 3.058594 15.558594 C 2.894531 15.558594 2.226563 15.53125 2.019531 14.890625 C 2.058594 14.90625 2.15625 14.90625 2.15625 14.90625 C 2.574219 14.90625 2.851563 14.542969 2.851563 14.222656 C 2.851563 13.90625 2.589844 13.792969 2.378906 13.792969 C 2.15625 13.792969 1.667969 13.960938 1.667969 14.640625 C 1.667969 15.351563 2.269531 15.835938 3.058594 15.835938 C 4.449219 15.835938 5.855469 14.558594 6.246094 13.015625 Z M 7.609375 7.589844 "/>
<path style=" stroke:none;fill-rule:evenodd;fill:rgb(0%,0%,0%);fill-opacity:1;" d="M 10.480469 8.988281 C 10.480469 8.789063 10.34375 8.632813 10.117188 8.632813 C 9.855469 8.632813 9.589844 8.890625 9.589844 9.152344 C 9.589844 9.339844 9.726563 9.503906 9.960938 9.503906 C 10.1875 9.503906 10.480469 9.28125 10.480469 8.988281 Z M 10.566406 13.703125 C 10.566406 13.601563 10.480469 13.601563 10.449219 13.601563 C 10.351563 13.601563 10.351563 13.632813 10.304688 13.78125 C 10.128906 14.394531 9.804688 14.992188 9.308594 14.992188 C 9.140625 14.992188 9.070313 14.894531 9.070313 14.671875 C 9.070313 14.425781 9.128906 14.289063 9.355469 13.691406 L 9.738281 12.664063 C 9.855469 12.382813 9.855469 12.359375 9.953125 12.097656 C 10.03125 11.902344 10.078125 11.765625 10.078125 11.578125 C 10.078125 11.140625 9.765625 10.777344 9.277344 10.777344 C 8.355469 10.777344 7.988281 12.195313 7.988281 12.28125 C 7.988281 12.382813 8.105469 12.382813 8.105469 12.382813 C 8.199219 12.382813 8.210938 12.359375 8.261719 12.203125 C 8.523438 11.285156 8.914063 10.992188 9.246094 10.992188 C 9.324219 10.992188 9.492188 10.992188 9.492188 11.304688 C 9.492188 11.511719 9.425781 11.714844 9.386719 11.8125 C 9.308594 12.066406 8.867188 13.203125 8.710938 13.625 C 8.613281 13.878906 8.484375 14.199219 8.484375 14.40625 C 8.484375 14.867188 8.816406 15.207031 9.285156 15.207031 C 10.207031 15.207031 10.566406 13.789063 10.566406 13.703125 Z M 10.566406 13.703125 "/>
<path style=" stroke:none;fill-rule:evenodd;fill:rgb(0%,0%,0%);fill-opacity:1;" d="M 25.234375 8.242188 C 25.234375 7.980469 24.996094 7.980469 24.789063 7.980469 L 16.597656 7.980469 C 16.402344 7.980469 16.152344 7.980469 16.152344 8.230469 C 16.152344 8.492188 16.390625 8.492188 16.597656 8.492188 L 24.789063 8.492188 C 24.984375 8.492188 25.234375 8.492188 25.234375 8.242188 Z M 25.234375 10.832031 C 25.234375 10.566406 24.996094 10.566406 24.789063 10.566406 L 16.597656 10.566406 C 16.402344 10.566406 16.152344 10.566406 16.152344 10.816406 C 16.152344 11.082031 16.390625 11.082031 16.597656 11.082031 L 24.789063 11.082031 C 24.984375 11.082031 25.234375 11.082031 25.234375 10.832031 Z M 25.234375 10.832031 "/>
<path style=" stroke:none;fill-rule:evenodd;fill:rgb(0%,0%,0%);fill-opacity:1;" d="M 37.246094 11.011719 C 37.246094 10.941406 37.191406 10.886719 37.105469 10.886719 C 36.980469 10.886719 36.96875 10.957031 36.910156 11.164063 C 36.660156 12.125 36.410156 12.859375 35.855469 12.859375 C 35.4375 12.859375 35.4375 12.402344 35.4375 12.222656 C 35.4375 11.902344 35.480469 11.761719 35.617188 11.179688 L 35.894531 10.039063 L 36.464844 7.769531 C 36.5625 7.421875 36.5625 7.394531 36.5625 7.351563 C 36.5625 7.144531 36.398438 7.007813 36.1875 7.007813 C 35.785156 7.007813 35.6875 7.351563 35.605469 7.703125 L 34.617188 11.71875 C 34.617188 11.71875 34.058594 12.859375 33.046875 12.859375 C 32.324219 12.859375 32.183594 12.234375 32.183594 11.71875 C 32.183594 10.929688 32.574219 9.816406 32.933594 8.882813 C 33.101563 8.4375 33.171875 8.257813 33.171875 7.980469 C 33.171875 7.382813 32.738281 6.867188 32.070313 6.867188 C 30.792969 6.867188 30.277344 8.882813 30.277344 8.996094 C 30.277344 9.050781 30.332031 9.121094 30.429688 9.121094 C 30.554688 9.121094 30.570313 9.0625 30.625 8.871094 C 30.957031 7.671875 31.503906 7.144531 32.03125 7.144531 C 32.167969 7.144531 32.390625 7.160156 32.390625 7.605469 C 32.390625 7.964844 32.238281 8.367188 32.03125 8.898438 C 31.417969 10.550781 31.347656 11.082031 31.347656 11.5 C 31.347656 12.917969 32.417969 13.140625 32.988281 13.140625 C 33.878906 13.140625 34.367188 12.527344 34.644531 12.195313 C 34.824219 12.972656 35.492188 13.140625 35.828125 13.140625 C 36.269531 13.140625 36.605469 12.847656 36.828125 12.375 C 37.066406 11.875 37.246094 11.054688 37.246094 11.011719 Z M 37.246094 11.011719 "/>
<path style=" stroke:none;fill-rule:evenodd;fill:rgb(0%,0%,0%);fill-opacity:1;" d="M 41.800781 15.101563 L 41.800781 14.796875 L 41.488281 14.796875 C 40.605469 14.796875 40.578125 14.6875 40.578125 14.328125 L 40.578125 8.839844 C 40.578125 8.605469 40.578125 8.585938 40.351563 8.585938 C 39.746094 9.210938 38.886719 9.210938 38.574219 9.210938 L 38.574219 9.515625 C 38.769531 9.515625 39.347656 9.515625 39.855469 9.261719 L 39.855469 14.328125 C 39.855469 14.679688 39.824219 14.796875 38.945313 14.796875 L 38.632813 14.796875 L 38.632813 15.101563 C 38.972656 15.070313 39.824219 15.070313 40.214844 15.070313 C 40.605469 15.070313 41.457031 15.070313 41.800781 15.101563 Z M 41.800781 15.101563 "/>
<path style=" stroke:none;fill-rule:evenodd;fill:rgb(0%,0%,0%);fill-opacity:1;" d="M 44.488281 15.089844 C 44.488281 14.445313 44.242188 14.0625 43.863281 14.0625 C 43.539063 14.0625 43.34375 14.308594 43.34375 14.582031 C 43.34375 14.84375 43.539063 15.101563 43.863281 15.101563 C 43.980469 15.101563 44.105469 15.0625 44.203125 14.972656 C 44.234375 14.953125 44.253906 14.945313 44.253906 14.945313 C 44.253906 14.945313 44.273438 14.953125 44.273438 15.089844 C 44.273438 15.8125 43.929688 16.402344 43.605469 16.722656 C 43.5 16.832031 43.5 16.851563 43.5 16.878906 C 43.5 16.949219 43.550781 16.988281 43.597656 16.988281 C 43.707031 16.988281 44.488281 16.234375 44.488281 15.089844 Z M 44.488281 15.089844 "/>
<path style=" stroke:none;fill-rule:evenodd;fill:rgb(0%,0%,0%);fill-opacity:1;" d="M 48.078125 8.988281 C 48.078125 8.789063 47.941406 8.632813 47.71875 8.632813 C 47.453125 8.632813 47.1875 8.890625 47.1875 9.152344 C 47.1875 9.339844 47.328125 9.503906 47.5625 9.503906 C 47.785156 9.503906 48.078125 9.28125 48.078125 8.988281 Z M 48.167969 13.703125 C 48.167969 13.601563 48.078125 13.601563 48.050781 13.601563 C 47.953125 13.601563 47.953125 13.632813 47.902344 13.78125 C 47.726563 14.394531 47.40625 14.992188 46.90625 14.992188 C 46.738281 14.992188 46.671875 14.894531 46.671875 14.671875 C 46.671875 14.425781 46.730469 14.289063 46.953125 13.691406 L 47.335938 12.664063 C 47.453125 12.382813 47.453125 12.359375 47.550781 12.097656 C 47.628906 11.902344 47.679688 11.765625 47.679688 11.578125 C 47.679688 11.140625 47.367188 10.777344 46.875 10.777344 C 45.957031 10.777344 45.585938 12.195313 45.585938 12.28125 C 45.585938 12.382813 45.703125 12.382813 45.703125 12.382813 C 45.800781 12.382813 45.8125 12.359375 45.859375 12.203125 C 46.125 11.285156 46.515625 10.992188 46.847656 10.992188 C 46.925781 10.992188 47.09375 10.992188 47.09375 11.304688 C 47.09375 11.511719 47.023438 11.714844 46.984375 11.8125 C 46.90625 12.066406 46.464844 13.203125 46.308594 13.625 C 46.210938 13.878906 46.085938 14.199219 46.085938 14.40625 C 46.085938 14.867188 46.417969 15.207031 46.886719 15.207031 C 47.804688 15.207031 48.167969 13.789063 48.167969 13.703125 Z M 48.167969 13.703125 "/>
<path style=" stroke:none;fill-rule:evenodd;fill:rgb(0%,0%,0%);fill-opacity:1;" d="M 54.871094 9.523438 C 54.871094 9.121094 54.539063 8.785156 54.132813 8.785156 C 53.730469 8.785156 53.398438 9.121094 53.398438 9.523438 C 53.398438 9.925781 53.730469 10.261719 54.132813 10.261719 C 54.539063 10.261719 54.871094 9.925781 54.871094 9.523438 Z M 54.871094 9.523438 "/>
<path style=" stroke:none;fill-rule:evenodd;fill:rgb(0%,0%,0%);fill-opacity:1;" d="M 66.546875 11.011719 C 66.546875 10.941406 66.488281 10.886719 66.40625 10.886719 C 66.28125 10.886719 66.265625 10.957031 66.210938 11.164063 C 65.960938 12.125 65.710938 12.859375 65.152344 12.859375 C 64.734375 12.859375 64.734375 12.402344 64.734375 12.222656 C 64.734375 11.902344 64.777344 11.761719 64.917969 11.179688 L 65.195313 10.039063 L 65.765625 7.769531 C 65.863281 7.421875 65.863281 7.394531 65.863281 7.351563 C 65.863281 7.144531 65.695313 7.007813 65.488281 7.007813 C 65.085938 7.007813 64.988281 7.351563 64.902344 7.703125 L 63.914063 11.71875 C 63.914063 11.71875 63.359375 12.859375 62.34375 12.859375 C 61.621094 12.859375 61.484375 12.234375 61.484375 11.71875 C 61.484375 10.929688 61.871094 9.816406 62.234375 8.882813 C 62.398438 8.4375 62.46875 8.257813 62.46875 7.980469 C 62.46875 7.382813 62.039063 6.867188 61.371094 6.867188 C 60.09375 6.867188 59.578125 8.882813 59.578125 8.996094 C 59.578125 9.050781 59.632813 9.121094 59.730469 9.121094 C 59.855469 9.121094 59.867188 9.0625 59.925781 8.871094 C 60.257813 7.671875 60.800781 7.144531 61.328125 7.144531 C 61.46875 7.144531 61.691406 7.160156 61.691406 7.605469 C 61.691406 7.964844 61.539063 8.367188 61.328125 8.898438 C 60.71875 10.550781 60.648438 11.082031 60.648438 11.5 C 60.648438 12.917969 61.71875 13.140625 62.289063 13.140625 C 63.179688 13.140625 63.664063 12.527344 63.945313 12.195313 C 64.125 12.972656 64.792969 13.140625 65.125 13.140625 C 65.570313 13.140625 65.90625 12.847656 66.128906 12.375 C 66.363281 11.875 66.546875 11.054688 66.546875 11.011719 Z M 66.546875 11.011719 "/>
<path style=" stroke:none;fill-rule:evenodd;fill:rgb(0%,0%,0%);fill-opacity:1;" d="M 71.394531 13.398438 L 71.148438 13.398438 C 71.101563 13.691406 71.03125 14.121094 70.933594 14.269531 C 70.867188 14.347656 70.21875 14.347656 70.003906 14.347656 L 68.242188 14.347656 L 69.28125 13.339844 C 70.804688 11.988281 71.394531 11.460938 71.394531 10.484375 C 71.394531 9.367188 70.511719 8.585938 69.320313 8.585938 C 68.214844 8.585938 67.492188 9.484375 67.492188 10.355469 C 67.492188 10.90625 67.980469 10.90625 68.007813 10.90625 C 68.175781 10.90625 68.515625 10.785156 68.515625 10.386719 C 68.515625 10.132813 68.34375 9.875 68 9.875 C 67.921875 9.875 67.902344 9.875 67.871094 9.886719 C 68.097656 9.25 68.625 8.890625 69.191406 8.890625 C 70.082031 8.890625 70.503906 9.679688 70.503906 10.484375 C 70.503906 11.265625 70.015625 12.039063 69.476563 12.644531 L 67.597656 14.738281 C 67.492188 14.84375 67.492188 14.867188 67.492188 15.101563 L 71.117188 15.101563 Z M 71.394531 13.398438 "/>
<path style=" stroke:none;fill-rule:evenodd;fill:rgb(0%,0%,0%);fill-opacity:1;" d="M 73.789063 15.089844 C 73.789063 14.445313 73.542969 14.0625 73.160156 14.0625 C 72.839844 14.0625 72.640625 14.308594 72.640625 14.582031 C 72.640625 14.84375 72.839844 15.101563 73.160156 15.101563 C 73.277344 15.101563 73.40625 15.0625 73.503906 14.972656 C 73.53125 14.953125 73.550781 14.945313 73.550781 14.945313 C 73.550781 14.945313 73.570313 14.953125 73.570313 15.089844 C 73.570313 15.8125 73.230469 16.402344 72.90625 16.722656 C 72.796875 16.832031 72.796875 16.851563 72.796875 16.878906 C 72.796875 16.949219 72.847656 16.988281 72.898438 16.988281 C 73.003906 16.988281 73.789063 16.234375 73.789063 15.089844 Z M 73.789063 15.089844 "/>
<path style=" stroke:none;fill-rule:evenodd;fill:rgb(0%,0%,0%);fill-opacity:1;" d="M 77.378906 8.988281 C 77.378906 8.789063 77.242188 8.632813 77.015625 8.632813 C 76.753906 8.632813 76.488281 8.890625 76.488281 9.152344 C 76.488281 9.339844 76.625 9.503906 76.859375 9.503906 C 77.085938 9.503906 77.378906 9.28125 77.378906 8.988281 Z M 77.46875 13.703125 C 77.46875 13.601563 77.378906 13.601563 77.351563 13.601563 C 77.25 13.601563 77.25 13.632813 77.203125 13.78125 C 77.027344 14.394531 76.703125 14.992188 76.207031 14.992188 C 76.039063 14.992188 75.96875 14.894531 75.96875 14.671875 C 75.96875 14.425781 76.03125 14.289063 76.253906 13.691406 L 76.636719 12.664063 C 76.753906 12.382813 76.753906 12.359375 76.851563 12.097656 C 76.929688 11.902344 76.976563 11.765625 76.976563 11.578125 C 76.976563 11.140625 76.664063 10.777344 76.175781 10.777344 C 75.257813 10.777344 74.886719 12.195313 74.886719 12.28125 C 74.886719 12.382813 75.003906 12.382813 75.003906 12.382813 C 75.101563 12.382813 75.109375 12.359375 75.160156 12.203125 C 75.421875 11.285156 75.8125 10.992188 76.148438 10.992188 C 76.226563 10.992188 76.390625 10.992188 76.390625 11.304688 C 76.390625 11.511719 76.324219 11.714844 76.285156 11.8125 C 76.207031 12.066406 75.765625 13.203125 75.609375 13.625 C 75.511719 13.878906 75.382813 14.199219 75.382813 14.40625 C 75.382813 14.867188 75.71875 15.207031 76.1875 15.207031 C 77.105469 15.207031 77.46875 13.789063 77.46875 13.703125 Z M 77.46875 13.703125 "/>
</g>
</svg>
