<svg width="96" height="96" xmlns="http://www.w3.org/2000/svg" xmlns:xlink="http://www.w3.org/1999/xlink" overflow="hidden"><defs><clipPath id="clip0"><rect x="587" y="333" width="96" height="96"/></clipPath></defs><g clip-path="url(#clip0)" transform="translate(-587 -333)"><path d="M674.945 352.25 673.006 352.25 673.006 345.8C673.006 345.358 672.648 345 672.206 345L671.17 345C670.905 345 670.651 345.105 670.463 345.293L666.006 349.75 664.365 349.75C663.495 349.75 662.66 350.096 662.045 350.711L656.506 356.25 652.433 356.99C651.607 357.141 651.007 357.86 651.006 358.7L651.006 361.25 647.384 364.872C646.479 365.777 645.37 366.454 644.151 366.845L607.6 378.566C602.838 380.091 599.112 383.832 597.606 388.6L594.006 400 601.006 396.889 601.006 412.884C600.982 414.536 602.266 415.911 603.916 416 605.543 416.078 606.925 414.823 607.003 413.196 607.006 413.131 607.007 413.065 607.006 413L607.006 399.7C608.557 400.613 610.528 400.367 611.806 399.1L617.106 393.8 637.006 397.164 637.006 412.831C636.971 414.47 638.212 415.855 639.845 416 641.5 416.089 642.913 414.82 643.002 413.165 643.005 413.11 643.006 413.055 643.006 413L643.006 398.134 647.006 398.617 647.006 412.831C646.971 414.47 648.212 415.855 649.845 416 651.5 416.089 652.913 414.82 653.002 413.165 653.005 413.11 653.006 413.055 653.006 413L653.006 397.944 667.771 376.921C668.584 375.821 669.153 374.559 669.437 373.221L672.345 359.515C672.45 359.019 672.696 358.564 673.055 358.205L675.317 355.943C675.758 355.502 676.006 354.904 676.006 354.28L676.006 353.31C676.005 352.724 675.531 352.25 674.945 352.25Z" fill="#4C7088"/><path d="M613.206 400.5C612.577 401.114 611.828 401.59 611.006 401.9L611.006 413C611.006 414.657 612.349 416 614.006 416 615.663 416 617.006 414.657 617.006 413L617.006 399.7C618.557 400.613 620.528 400.367 621.806 399.1L624.221 396.652 617.938 395.735Z" fill="#4C7088"/></g></svg>