<?xml version="1.0" encoding="UTF-8"?>
<svg xmlns="http://www.w3.org/2000/svg" xmlns:xlink="http://www.w3.org/1999/xlink" width="130pt" height="33pt" viewBox="0 0 130 33" version="1.1">
<g id="surface4">
<path style=" stroke:none;fill-rule:evenodd;fill:rgb(0%,0%,0%);fill-opacity:1;" d="M 7.609375 16.828125 C 7.625 16.757813 7.652344 16.675781 7.652344 16.589844 C 7.652344 16.382813 7.484375 16.246094 7.277344 16.246094 C 7.152344 16.246094 6.859375 16.300781 6.75 16.714844 L 5.71875 20.804688 C 5.648438 21.054688 5.648438 21.082031 5.539063 21.238281 C 5.261719 21.625 4.800781 22.097656 4.132813 22.097656 C 3.355469 22.097656 3.285156 21.332031 3.285156 20.957031 C 3.285156 20.167969 3.660156 19.09375 4.035156 18.09375 C 4.1875 17.691406 4.273438 17.496094 4.273438 17.21875 C 4.273438 16.632813 3.855469 16.105469 3.171875 16.105469 C 1.894531 16.105469 1.378906 18.121094 1.378906 18.234375 C 1.378906 18.289063 1.4375 18.359375 1.53125 18.359375 C 1.65625 18.359375 1.671875 18.300781 1.726563 18.109375 C 2.0625 16.941406 2.589844 16.382813 3.132813 16.382813 C 3.257813 16.382813 3.492188 16.382813 3.492188 16.84375 C 3.492188 17.203125 3.339844 17.605469 3.132813 18.136719 C 2.453125 19.957031 2.453125 20.417969 2.453125 20.75 C 2.453125 22.070313 3.398438 22.378906 4.09375 22.378906 C 4.496094 22.378906 4.996094 22.253906 5.484375 21.738281 L 5.496094 21.75 C 5.289063 22.574219 5.148438 23.113281 4.664063 23.796875 C 4.289063 24.324219 3.742188 24.796875 3.0625 24.796875 C 2.894531 24.796875 2.226563 24.769531 2.019531 24.128906 C 2.0625 24.144531 2.160156 24.144531 2.160156 24.144531 C 2.578125 24.144531 2.855469 23.78125 2.855469 23.460938 C 2.855469 23.144531 2.589844 23.03125 2.382813 23.03125 C 2.160156 23.03125 1.671875 23.199219 1.671875 23.878906 C 1.671875 24.589844 2.269531 25.074219 3.0625 25.074219 C 4.453125 25.074219 5.859375 23.796875 6.25 22.253906 Z M 7.609375 16.828125 "/>
<path style=" stroke:none;fill-rule:evenodd;fill:rgb(0%,0%,0%);fill-opacity:1;" d="M 21.835938 17.480469 C 21.835938 17.21875 21.597656 17.21875 21.390625 17.21875 L 13.199219 17.21875 C 13.003906 17.21875 12.753906 17.21875 12.753906 17.46875 C 12.753906 17.730469 12.992188 17.730469 13.199219 17.730469 L 21.390625 17.730469 C 21.585938 17.730469 21.835938 17.730469 21.835938 17.480469 Z M 21.835938 20.070313 C 21.835938 19.804688 21.597656 19.804688 21.390625 19.804688 L 13.199219 19.804688 C 13.003906 19.804688 12.753906 19.804688 12.753906 20.054688 C 12.753906 20.320313 12.992188 20.320313 13.199219 20.320313 L 21.390625 20.320313 C 21.585938 20.320313 21.835938 20.320313 21.835938 20.070313 Z M 21.835938 20.070313 "/>
<path style=" stroke:none;fill-rule:evenodd;fill:rgb(0%,0%,0%);fill-opacity:1;" d="M 31.152344 12.839844 L 31.152344 12.4375 C 30.261719 12.4375 30.09375 12.4375 30.09375 11.808594 L 30.09375 3.1875 L 28.160156 3.339844 L 28.160156 3.746094 C 29.105469 3.746094 29.21875 3.839844 29.21875 4.523438 L 29.21875 11.808594 C 29.21875 12.4375 29.066406 12.4375 28.160156 12.4375 L 28.160156 12.839844 C 28.550781 12.8125 29.230469 12.8125 29.648438 12.8125 C 30.066406 12.8125 30.761719 12.8125 31.152344 12.839844 Z M 31.152344 12.839844 "/>
<path style=" stroke:none;fill-rule:evenodd;fill:rgb(0%,0%,0%);fill-opacity:1;" d="M 37.882813 9.863281 C 37.882813 8.070313 36.523438 6.636719 34.910156 6.636719 C 33.242188 6.636719 31.917969 8.109375 31.917969 9.863281 C 31.917969 11.644531 33.308594 12.976563 34.894531 12.976563 C 36.535156 12.976563 37.882813 11.617188 37.882813 9.863281 Z M 36.828125 9.738281 C 36.828125 10.226563 36.828125 11.085938 36.46875 11.742188 C 36.078125 12.40625 35.4375 12.671875 34.910156 12.671875 C 34.394531 12.671875 33.769531 12.449219 33.367188 11.769531 C 32.988281 11.140625 32.976563 10.320313 32.976563 9.738281 C 32.976563 9.210938 32.976563 8.359375 33.40625 7.734375 C 33.796875 7.136719 34.410156 6.914063 34.894531 6.914063 C 35.4375 6.914063 36.023438 7.164063 36.398438 7.707031 C 36.828125 8.347656 36.828125 9.222656 36.828125 9.738281 Z M 36.828125 9.738281 "/>
<path style=" stroke:none;fill-rule:evenodd;fill:rgb(0%,0%,0%);fill-opacity:1;" d="M 44.90625 7.191406 C 44.90625 6.941406 44.710938 6.554688 44.226563 6.554688 C 43.503906 6.554688 42.960938 7 42.765625 7.207031 C 42.347656 6.886719 41.863281 6.707031 41.332031 6.707031 C 40.082031 6.707031 39.148438 7.652344 39.148438 8.722656 C 39.148438 9.515625 39.636719 10.03125 39.773438 10.15625 C 39.609375 10.363281 39.359375 10.765625 39.359375 11.308594 C 39.359375 12.117188 39.84375 12.464844 39.957031 12.53125 C 39.316406 12.714844 38.675781 13.214844 38.675781 13.9375 C 38.675781 14.898438 39.984375 15.691406 41.695313 15.691406 C 43.351563 15.691406 44.726563 14.953125 44.726563 13.910156 C 44.726563 13.5625 44.628906 12.742188 43.796875 12.3125 C 43.085938 11.949219 42.390625 11.949219 41.195313 11.949219 C 40.34375 11.949219 40.25 11.949219 40 11.683594 C 39.859375 11.546875 39.734375 11.28125 39.734375 10.988281 C 39.734375 10.753906 39.816406 10.515625 39.957031 10.320313 C 40.609375 10.753906 41.167969 10.753906 41.320313 10.753906 C 42.570313 10.753906 43.503906 9.808594 43.503906 8.734375 C 43.503906 8.359375 43.390625 7.832031 42.945313 7.386719 C 43.488281 6.832031 44.140625 6.832031 44.210938 6.832031 C 44.265625 6.832031 44.335938 6.832031 44.390625 6.859375 C 44.253906 6.914063 44.183594 7.054688 44.183594 7.207031 C 44.183594 7.402344 44.324219 7.570313 44.546875 7.570313 C 44.65625 7.570313 44.90625 7.5 44.90625 7.191406 Z M 42.542969 8.722656 C 42.542969 8.972656 42.542969 9.542969 42.304688 9.917969 C 42.042969 10.320313 41.625 10.460938 41.332031 10.460938 C 40.109375 10.460938 40.109375 9.054688 40.109375 8.734375 C 40.109375 8.484375 40.109375 7.914063 40.34375 7.539063 C 40.609375 7.136719 41.027344 7 41.320313 7 C 42.542969 7 42.542969 8.402344 42.542969 8.722656 Z M 44.046875 13.921875 C 44.046875 14.742188 42.988281 15.398438 41.710938 15.398438 C 40.375 15.398438 39.359375 14.71875 39.359375 13.921875 C 39.359375 13.8125 39.386719 13.269531 39.914063 12.910156 C 40.21875 12.714844 40.34375 12.714844 41.320313 12.714844 C 42.472656 12.714844 44.046875 12.714844 44.046875 13.921875 Z M 44.046875 13.921875 "/>
<path style=" stroke:none;fill-rule:evenodd;fill:rgb(0%,0%,0%);fill-opacity:1;" d="M 49.921875 16.21875 C 49.921875 16.175781 49.921875 16.148438 49.683594 15.910156 C 48.292969 14.507813 47.515625 12.210938 47.515625 9.375 C 47.515625 6.679688 48.167969 4.355469 49.78125 2.714844 C 49.921875 2.589844 49.921875 2.5625 49.921875 2.519531 C 49.921875 2.4375 49.851563 2.410156 49.796875 2.410156 C 49.613281 2.410156 48.472656 3.410156 47.792969 4.773438 C 47.082031 6.179688 46.761719 7.664063 46.761719 9.375 C 46.761719 10.613281 46.957031 12.269531 47.683594 13.757813 C 48.503906 15.425781 49.644531 16.328125 49.796875 16.328125 C 49.851563 16.328125 49.921875 16.300781 49.921875 16.21875 Z M 49.921875 16.21875 "/>
<path style=" stroke:none;fill-rule:evenodd;fill:rgb(0%,0%,0%);fill-opacity:1;" d="M 56.511719 11.324219 C 56.511719 11.238281 56.429688 11.171875 56.375 11.171875 C 56.332031 11.171875 56.320313 11.183594 56.195313 11.308594 C 55.304688 12.492188 53.984375 12.699219 53.453125 12.699219 C 52.660156 12.699219 52.246094 12.074219 52.246094 11.046875 C 52.246094 10.851563 52.246094 10.503906 52.453125 9.613281 L 53.191406 9.613281 C 53.566406 9.613281 54.511719 9.585938 55.179688 9.335938 C 56.234375 8.929688 56.332031 8.125 56.332031 7.875 C 56.332031 7.261719 55.804688 6.707031 54.886719 6.707031 C 53.425781 6.707031 51.328125 8.027344 51.328125 10.503906 C 51.328125 11.960938 52.160156 12.976563 53.425781 12.976563 C 55.316406 12.976563 56.511719 11.503906 56.511719 11.324219 Z M 55.914063 7.875 C 55.914063 9.335938 53.691406 9.335938 53.105469 9.335938 L 52.523438 9.335938 C 53.121094 7.191406 54.441406 6.984375 54.886719 6.984375 C 55.5 6.984375 55.914063 7.34375 55.914063 7.875 Z M 55.914063 7.875 "/>
<path style=" stroke:none;fill-rule:evenodd;fill:rgb(0%,0%,0%);fill-opacity:1;" d="M 61.792969 6.339844 C 61.792969 6.242188 61.703125 6.242188 61.675781 6.242188 C 61.578125 6.242188 61.566406 6.28125 61.539063 6.417969 C 61.34375 7.132813 61.117188 7.632813 60.6875 7.632813 C 60.5 7.632813 60.375 7.523438 60.375 7.171875 C 60.375 7.007813 60.414063 6.78125 60.453125 6.625 C 60.492188 6.457031 60.492188 6.417969 60.492188 6.320313 C 60.492188 5.683594 59.875 5.402344 59.042969 5.292969 C 59.347656 5.117188 59.660156 4.804688 59.886719 4.570313 C 60.355469 4.050781 60.804688 3.632813 61.285156 3.632813 C 61.34375 3.632813 61.351563 3.632813 61.371094 3.640625 C 61.488281 3.660156 61.5 3.660156 61.578125 3.71875 C 61.597656 3.730469 61.597656 3.738281 61.617188 3.757813 C 61.148438 3.789063 61.058594 4.167969 61.058594 4.285156 C 61.058594 4.441406 61.167969 4.628906 61.429688 4.628906 C 61.683594 4.628906 61.96875 4.414063 61.96875 4.035156 C 61.96875 3.738281 61.742188 3.417969 61.304688 3.417969 C 61.03125 3.417969 60.578125 3.496094 59.875 4.277344 C 59.542969 4.648438 59.160156 5.039063 58.789063 5.1875 L 59.808594 1.058594 C 59.808594 1.058594 59.808594 0.953125 59.679688 0.953125 C 59.453125 0.953125 58.742188 1.03125 58.484375 1.050781 C 58.40625 1.058594 58.300781 1.070313 58.300781 1.246094 C 58.300781 1.363281 58.390625 1.363281 58.535156 1.363281 C 59.003906 1.363281 59.023438 1.429688 59.023438 1.527344 L 58.996094 1.722656 L 57.578125 7.359375 C 57.539063 7.496094 57.539063 7.515625 57.539063 7.574219 C 57.539063 7.796875 57.734375 7.847656 57.820313 7.847656 C 57.949219 7.847656 58.09375 7.757813 58.15625 7.640625 C 58.203125 7.554688 58.644531 5.746094 58.703125 5.5 C 59.035156 5.527344 59.835938 5.683594 59.835938 6.332031 C 59.835938 6.398438 59.835938 6.4375 59.808594 6.535156 C 59.789063 6.652344 59.769531 6.769531 59.769531 6.878906 C 59.769531 7.453125 60.160156 7.847656 60.667969 7.847656 C 60.960938 7.847656 61.226563 7.691406 61.441406 7.328125 C 61.683594 6.898438 61.792969 6.339844 61.792969 6.339844 Z M 61.792969 6.339844 "/>
<path style=" stroke:none;fill-rule:evenodd;fill:rgb(0%,0%,0%);fill-opacity:1;" d="M 64.277344 5.292969 C 64.277344 5.011719 64.042969 4.777344 63.757813 4.777344 C 63.476563 4.777344 63.242188 5.011719 63.242188 5.292969 C 63.242188 5.578125 63.476563 5.8125 63.757813 5.8125 C 64.042969 5.8125 64.277344 5.578125 64.277344 5.292969 Z M 64.277344 5.292969 "/>
<path style=" stroke:none;fill-rule:evenodd;fill:rgb(0%,0%,0%);fill-opacity:1;" d="M 70.410156 6.339844 C 70.410156 6.242188 70.324219 6.242188 70.292969 6.242188 C 70.195313 6.242188 70.183594 6.28125 70.15625 6.417969 C 70.019531 6.964844 69.832031 7.632813 69.421875 7.632813 C 69.214844 7.632813 69.121094 7.503906 69.121094 7.179688 C 69.121094 6.964844 69.238281 6.507813 69.316406 6.164063 L 69.589844 5.109375 C 69.617188 4.960938 69.714844 4.589844 69.753906 4.441406 C 69.804688 4.21875 69.902344 3.847656 69.902344 3.789063 C 69.902344 3.613281 69.765625 3.523438 69.617188 3.523438 C 69.570313 3.523438 69.316406 3.535156 69.238281 3.867188 L 68.503906 6.808594 C 68.492188 6.847656 68.101563 7.632813 67.386719 7.632813 C 66.878906 7.632813 66.78125 7.191406 66.78125 6.828125 C 66.78125 6.28125 67.054688 5.511719 67.308594 4.835938 C 67.425781 4.542969 67.476563 4.402344 67.476563 4.21875 C 67.476563 3.777344 67.164063 3.417969 66.675781 3.417969 C 65.746094 3.417969 65.382813 4.835938 65.382813 4.921875 C 65.382813 5.019531 65.5 5.019531 65.5 5.019531 C 65.597656 5.019531 65.609375 5 65.65625 4.84375 C 65.902344 3.996094 66.273438 3.632813 66.644531 3.632813 C 66.730469 3.632813 66.890625 3.640625 66.890625 3.953125 C 66.890625 4.191406 66.78125 4.472656 66.722656 4.621094 C 66.363281 5.589844 66.15625 6.195313 66.15625 6.675781 C 66.15625 7.601563 66.832031 7.847656 67.359375 7.847656 C 68.003906 7.847656 68.355469 7.40625 68.523438 7.191406 C 68.628906 7.59375 68.972656 7.847656 69.394531 7.847656 C 69.734375 7.847656 69.960938 7.621094 70.117188 7.308594 C 70.285156 6.957031 70.410156 6.339844 70.410156 6.339844 Z M 70.410156 6.339844 "/>
<path style=" stroke:none;fill-rule:evenodd;fill:rgb(0%,0%,0%);fill-opacity:1;" d="M 84.128906 9.375 C 84.128906 9.113281 83.894531 9.113281 83.683594 9.113281 L 79.847656 9.113281 L 79.847656 5.273438 C 79.847656 5.078125 79.847656 4.828125 79.597656 4.828125 C 79.332031 4.828125 79.332031 5.066406 79.332031 5.273438 L 79.332031 9.113281 L 75.492188 9.113281 C 75.300781 9.113281 75.050781 9.113281 75.050781 9.363281 C 75.050781 9.625 75.285156 9.625 75.492188 9.625 L 79.332031 9.625 L 79.332031 13.464844 C 79.332031 13.660156 79.332031 13.910156 79.582031 13.910156 C 79.847656 13.910156 79.847656 13.671875 79.847656 13.464844 L 79.847656 9.625 L 83.683594 9.625 C 83.878906 9.625 84.128906 9.625 84.128906 9.375 Z M 84.128906 9.375 "/>
<path style=" stroke:none;fill-rule:evenodd;fill:rgb(0%,0%,0%);fill-opacity:1;" d="M 93.808594 11.324219 C 93.808594 11.238281 93.726563 11.171875 93.671875 11.171875 C 93.628906 11.171875 93.617188 11.183594 93.492188 11.308594 C 92.601563 12.492188 91.28125 12.699219 90.75 12.699219 C 89.957031 12.699219 89.542969 12.074219 89.542969 11.046875 C 89.542969 10.851563 89.542969 10.503906 89.75 9.613281 L 90.488281 9.613281 C 90.863281 9.613281 91.808594 9.585938 92.476563 9.335938 C 93.53125 8.929688 93.628906 8.125 93.628906 7.875 C 93.628906 7.261719 93.101563 6.707031 92.183594 6.707031 C 90.722656 6.707031 88.625 8.027344 88.625 10.503906 C 88.625 11.960938 89.457031 12.976563 90.722656 12.976563 C 92.613281 12.976563 93.808594 11.503906 93.808594 11.324219 Z M 93.210938 7.875 C 93.210938 9.335938 90.988281 9.335938 90.402344 9.335938 L 89.820313 9.335938 C 90.417969 7.191406 91.738281 6.984375 92.183594 6.984375 C 92.796875 6.984375 93.210938 7.34375 93.210938 7.875 Z M 93.210938 7.875 "/>
<path style=" stroke:none;fill-rule:evenodd;fill:rgb(0%,0%,0%);fill-opacity:1;" d="M 99.089844 6.339844 C 99.089844 6.242188 99 6.242188 98.972656 6.242188 C 98.875 6.242188 98.863281 6.28125 98.835938 6.417969 C 98.640625 7.132813 98.414063 7.632813 97.984375 7.632813 C 97.796875 7.632813 97.671875 7.523438 97.671875 7.171875 C 97.671875 7.007813 97.710938 6.78125 97.75 6.625 C 97.789063 6.457031 97.789063 6.417969 97.789063 6.320313 C 97.789063 5.683594 97.171875 5.402344 96.339844 5.292969 C 96.644531 5.117188 96.957031 4.804688 97.183594 4.570313 C 97.652344 4.050781 98.101563 3.632813 98.582031 3.632813 C 98.640625 3.632813 98.648438 3.632813 98.667969 3.640625 C 98.785156 3.660156 98.796875 3.660156 98.875 3.71875 C 98.894531 3.730469 98.894531 3.738281 98.914063 3.757813 C 98.445313 3.789063 98.355469 4.167969 98.355469 4.285156 C 98.355469 4.441406 98.464844 4.628906 98.726563 4.628906 C 98.980469 4.628906 99.265625 4.414063 99.265625 4.035156 C 99.265625 3.738281 99.039063 3.417969 98.601563 3.417969 C 98.328125 3.417969 97.875 3.496094 97.171875 4.277344 C 96.839844 4.648438 96.457031 5.039063 96.085938 5.1875 L 97.105469 1.058594 C 97.105469 1.058594 97.105469 0.953125 96.976563 0.953125 C 96.75 0.953125 96.039063 1.03125 95.78125 1.050781 C 95.703125 1.058594 95.597656 1.070313 95.597656 1.246094 C 95.597656 1.363281 95.6875 1.363281 95.832031 1.363281 C 96.300781 1.363281 96.320313 1.429688 96.320313 1.527344 L 96.292969 1.722656 L 94.875 7.359375 C 94.835938 7.496094 94.835938 7.515625 94.835938 7.574219 C 94.835938 7.796875 95.03125 7.847656 95.117188 7.847656 C 95.246094 7.847656 95.390625 7.757813 95.453125 7.640625 C 95.5 7.554688 95.941406 5.746094 96 5.5 C 96.332031 5.527344 97.132813 5.683594 97.132813 6.332031 C 97.132813 6.398438 97.132813 6.4375 97.105469 6.535156 C 97.085938 6.652344 97.066406 6.769531 97.066406 6.878906 C 97.066406 7.453125 97.457031 7.847656 97.964844 7.847656 C 98.257813 7.847656 98.523438 7.691406 98.738281 7.328125 C 98.980469 6.898438 99.089844 6.339844 99.089844 6.339844 Z M 99.089844 6.339844 "/>
<path style=" stroke:none;fill-rule:evenodd;fill:rgb(0%,0%,0%);fill-opacity:1;" d="M 101.574219 5.292969 C 101.574219 5.011719 101.339844 4.777344 101.054688 4.777344 C 100.773438 4.777344 100.539063 5.011719 100.539063 5.292969 C 100.539063 5.578125 100.773438 5.8125 101.054688 5.8125 C 101.339844 5.8125 101.574219 5.578125 101.574219 5.292969 Z M 101.574219 5.292969 "/>
<path style=" stroke:none;fill-rule:evenodd;fill:rgb(0%,0%,0%);fill-opacity:1;" d="M 107.707031 6.339844 C 107.707031 6.242188 107.617188 6.242188 107.589844 6.242188 C 107.492188 6.242188 107.480469 6.28125 107.453125 6.417969 C 107.316406 6.964844 107.128906 7.632813 106.71875 7.632813 C 106.511719 7.632813 106.417969 7.503906 106.417969 7.179688 C 106.417969 6.964844 106.535156 6.507813 106.613281 6.164063 L 106.886719 5.109375 C 106.914063 4.960938 107.011719 4.589844 107.050781 4.441406 C 107.101563 4.21875 107.199219 3.847656 107.199219 3.789063 C 107.199219 3.613281 107.0625 3.523438 106.914063 3.523438 C 106.867188 3.523438 106.613281 3.535156 106.535156 3.867188 L 105.800781 6.808594 C 105.789063 6.847656 105.398438 7.632813 104.683594 7.632813 C 104.175781 7.632813 104.078125 7.191406 104.078125 6.828125 C 104.078125 6.28125 104.351563 5.511719 104.605469 4.835938 C 104.722656 4.542969 104.773438 4.402344 104.773438 4.21875 C 104.773438 3.777344 104.460938 3.417969 103.972656 3.417969 C 103.042969 3.417969 102.679688 4.835938 102.679688 4.921875 C 102.679688 5.019531 102.796875 5.019531 102.796875 5.019531 C 102.894531 5.019531 102.90625 5 102.953125 4.84375 C 103.199219 3.996094 103.570313 3.632813 103.941406 3.632813 C 104.03125 3.632813 104.1875 3.640625 104.1875 3.953125 C 104.1875 4.191406 104.078125 4.472656 104.019531 4.621094 C 103.660156 5.589844 103.453125 6.195313 103.453125 6.675781 C 103.453125 7.601563 104.128906 7.847656 104.65625 7.847656 C 105.300781 7.847656 105.652344 7.40625 105.820313 7.191406 C 105.925781 7.59375 106.269531 7.847656 106.691406 7.847656 C 107.03125 7.847656 107.257813 7.621094 107.414063 7.308594 C 107.582031 6.957031 107.707031 6.339844 107.707031 6.339844 Z M 107.707031 6.339844 "/>
<path style=" stroke:none;fill-rule:evenodd;fill:rgb(0%,0%,0%);fill-opacity:1;" d="M 114.300781 9.238281 L 114.300781 8.984375 C 113.84375 8.984375 113.773438 8.984375 113.773438 8.683594 L 113.773438 7.109375 C 113.773438 6.496094 113.472656 6.140625 112.71875 6.140625 C 112.164063 6.140625 111.785156 6.441406 111.597656 6.792969 C 111.453125 6.292969 111.074219 6.140625 110.5625 6.140625 C 109.984375 6.140625 109.613281 6.453125 109.414063 6.820313 L 109.410156 6.820313 L 109.410156 6.140625 L 108.375 6.214844 L 108.375 6.46875 C 108.847656 6.46875 108.902344 6.519531 108.902344 6.863281 L 108.902344 8.683594 C 108.902344 8.984375 108.832031 8.984375 108.375 8.984375 L 108.375 9.238281 C 108.375 9.238281 108.882813 9.210938 109.175781 9.210938 C 109.4375 9.210938 109.921875 9.234375 109.984375 9.238281 L 109.984375 8.984375 C 109.527344 8.984375 109.457031 8.984375 109.457031 8.683594 L 109.457031 7.417969 C 109.457031 6.679688 110.039063 6.335938 110.503906 6.335938 C 110.996094 6.335938 111.0625 6.722656 111.0625 7.082031 L 111.0625 8.683594 C 111.0625 8.984375 110.992188 8.984375 110.535156 8.984375 L 110.535156 9.238281 C 110.535156 9.238281 111.039063 9.210938 111.335938 9.210938 C 111.597656 9.210938 112.078125 9.234375 112.144531 9.238281 L 112.144531 8.984375 C 111.6875 8.984375 111.617188 8.984375 111.617188 8.683594 L 111.617188 7.417969 C 111.617188 6.679688 112.199219 6.335938 112.664063 6.335938 C 113.15625 6.335938 113.21875 6.722656 113.21875 7.082031 L 113.21875 8.683594 C 113.21875 8.984375 113.148438 8.984375 112.691406 8.984375 L 112.691406 9.238281 C 112.691406 9.238281 113.199219 9.210938 113.492188 9.210938 C 113.753906 9.210938 114.238281 9.234375 114.300781 9.238281 Z M 114.300781 9.238281 "/>
<path style=" stroke:none;fill-rule:evenodd;fill:rgb(0%,0%,0%);fill-opacity:1;" d="M 116.523438 9.238281 L 116.523438 8.984375 C 116.113281 8.984375 116.042969 8.984375 116.042969 8.691406 L 116.042969 6.140625 L 115.007813 6.214844 L 115.007813 6.46875 C 115.453125 6.46875 115.515625 6.511719 115.515625 6.855469 L 115.515625 8.683594 C 115.515625 8.984375 115.445313 8.984375 114.988281 8.984375 L 114.988281 9.238281 C 114.988281 9.238281 115.496094 9.210938 115.777344 9.210938 C 116.023438 9.210938 116.273438 9.21875 116.523438 9.238281 Z M 116.132813 5.007813 C 116.132813 4.785156 115.960938 4.601563 115.734375 4.601563 C 115.496094 4.601563 115.332031 4.796875 115.332031 5 C 115.332031 5.226563 115.507813 5.410156 115.734375 5.410156 C 115.972656 5.410156 116.132813 5.210938 116.132813 5.007813 Z M 116.132813 5.007813 "/>
<path style=" stroke:none;fill-rule:evenodd;fill:rgb(0%,0%,0%);fill-opacity:1;" d="M 120.941406 9.238281 L 120.941406 8.984375 C 120.484375 8.984375 120.414063 8.984375 120.414063 8.683594 L 120.414063 7.109375 C 120.414063 6.496094 120.113281 6.140625 119.359375 6.140625 C 118.785156 6.140625 118.414063 6.453125 118.214844 6.820313 L 118.207031 6.820313 L 118.207031 6.140625 L 117.175781 6.214844 L 117.175781 6.46875 C 117.644531 6.46875 117.703125 6.519531 117.703125 6.863281 L 117.703125 8.683594 C 117.703125 8.984375 117.632813 8.984375 117.175781 8.984375 L 117.175781 9.238281 C 117.175781 9.238281 117.679688 9.210938 117.976563 9.210938 C 118.234375 9.210938 118.722656 9.234375 118.785156 9.238281 L 118.785156 8.984375 C 118.328125 8.984375 118.257813 8.984375 118.257813 8.683594 L 118.257813 7.417969 C 118.257813 6.679688 118.839844 6.335938 119.304688 6.335938 C 119.796875 6.335938 119.859375 6.722656 119.859375 7.082031 L 119.859375 8.683594 C 119.859375 8.984375 119.789063 8.984375 119.332031 8.984375 L 119.332031 9.238281 C 119.332031 9.238281 119.839844 9.210938 120.132813 9.210938 C 120.394531 9.210938 120.878906 9.234375 120.941406 9.238281 Z M 120.941406 9.238281 "/>
<path style=" stroke:none;fill-rule:evenodd;fill:rgb(0%,0%,0%);fill-opacity:1;" d="M 126.117188 9.375 C 126.117188 8.320313 125.976563 6.59375 125.199219 4.980469 C 124.378906 3.3125 123.238281 2.410156 123.085938 2.410156 C 123.027344 2.410156 122.960938 2.4375 122.960938 2.519531 C 122.960938 2.5625 122.960938 2.589844 123.195313 2.828125 C 124.585938 4.230469 125.363281 6.523438 125.363281 9.363281 C 125.363281 12.0625 124.710938 14.382813 123.101563 16.023438 C 122.960938 16.148438 122.960938 16.175781 122.960938 16.21875 C 122.960938 16.300781 123.027344 16.328125 123.085938 16.328125 C 123.265625 16.328125 124.40625 15.328125 125.085938 13.964844 C 125.796875 12.546875 126.117188 11.046875 126.117188 9.375 Z M 126.117188 9.375 "/>
<path style="fill:none;stroke-width:0.557954;stroke-linecap:square;stroke-linejoin:miter;stroke:rgb(0%,0%,0%);stroke-opacity:1;stroke-miterlimit:10;" d="M 27.722656 18.789063 L 127.53125 18.789063 "/>
<path style=" stroke:none;fill-rule:evenodd;fill:rgb(0%,0%,0%);fill-opacity:1;" d="M 80.472656 29.847656 C 80.472656 29.78125 80.417969 29.722656 80.335938 29.722656 C 80.210938 29.722656 80.195313 29.78125 80.140625 30 C 79.945313 30.726563 79.652344 31.699219 78.945313 31.699219 C 78.664063 31.699219 78.484375 31.558594 78.484375 31.03125 C 78.484375 30.765625 78.539063 30.460938 78.597656 30.25 C 78.652344 30 78.652344 29.988281 78.652344 29.820313 C 78.652344 29 77.914063 28.542969 76.636719 28.375 C 77.136719 28.070313 77.636719 27.527344 77.832031 27.316406 C 78.625 26.429688 79.167969 25.984375 79.804688 25.984375 C 80.125 25.984375 80.210938 26.066406 80.304688 26.148438 C 79.792969 26.203125 79.597656 26.566406 79.597656 26.84375 C 79.597656 27.179688 79.863281 27.289063 80.054688 27.289063 C 80.433594 27.289063 80.765625 26.96875 80.765625 26.523438 C 80.765625 26.121094 80.445313 25.703125 79.820313 25.703125 C 79.054688 25.703125 78.429688 26.246094 77.441406 27.359375 C 77.304688 27.527344 76.789063 28.054688 76.273438 28.25 L 77.707031 22.535156 C 77.71875 22.480469 77.75 22.394531 77.75 22.324219 C 77.75 22.1875 77.582031 22.1875 77.582031 22.1875 L 76.816406 22.253906 C 76.578125 22.269531 76.371094 22.296875 76.121094 22.3125 C 75.789063 22.339844 75.6875 22.355469 75.6875 22.605469 C 75.6875 22.742188 75.828125 22.742188 75.96875 22.742188 C 76.675781 22.742188 76.675781 22.867188 76.675781 23.007813 C 76.675781 23.0625 76.675781 23.089844 76.609375 23.339844 L 74.617188 31.296875 C 74.5625 31.503906 74.5625 31.53125 74.5625 31.617188 C 74.5625 31.921875 74.800781 31.976563 74.9375 31.976563 C 75.328125 31.976563 75.410156 31.671875 75.523438 31.238281 C 75.648438 30.726563 75.59375 30.921875 76.175781 28.640625 C 77.179688 28.75 77.777344 29.167969 77.777344 29.835938 C 77.777344 29.917969 77.777344 29.972656 77.734375 30.183594 C 77.679688 30.390625 77.679688 30.558594 77.679688 30.628906 C 77.679688 31.433594 78.207031 31.976563 78.914063 31.976563 C 79.554688 31.976563 79.890625 31.390625 80 31.199219 C 80.292969 30.683594 80.472656 29.90625 80.472656 29.847656 Z M 80.472656 29.847656 "/>
</g>
</svg>
