<?xml version="1.0" encoding="UTF-8"?>
<svg xmlns="http://www.w3.org/2000/svg" xmlns:xlink="http://www.w3.org/1999/xlink" width="374pt" height="34pt" viewBox="0 0 374 34" version="1.1">
<g id="surface9">
<path style=" stroke:none;fill-rule:evenodd;fill:rgb(0%,0%,0%);fill-opacity:1;" d="M 7.625 18.238281 C 7.640625 18.167969 7.667969 18.082031 7.667969 18 C 7.667969 17.789062 7.5 17.652344 7.289062 17.652344 C 7.164062 17.652344 6.871094 17.707031 6.761719 18.125 L 5.726562 22.226562 C 5.65625 22.476562 5.65625 22.503906 5.546875 22.65625 C 5.265625 23.046875 4.808594 23.523438 4.136719 23.523438 C 3.359375 23.523438 3.289062 22.757812 3.289062 22.378906 C 3.289062 21.585938 3.664062 20.511719 4.039062 19.507812 C 4.195312 19.101562 4.277344 18.90625 4.277344 18.628906 C 4.277344 18.042969 3.859375 17.511719 3.175781 17.511719 C 1.890625 17.511719 1.375 19.535156 1.375 19.644531 C 1.375 19.703125 1.433594 19.773438 1.53125 19.773438 C 1.65625 19.773438 1.667969 19.714844 1.726562 19.519531 C 2.058594 18.347656 2.589844 17.789062 3.132812 17.789062 C 3.257812 17.789062 3.496094 17.789062 3.496094 18.25 C 3.496094 18.613281 3.34375 19.019531 3.132812 19.546875 C 2.449219 21.375 2.449219 21.835938 2.449219 22.171875 C 2.449219 23.496094 3.398438 23.800781 4.097656 23.800781 C 4.5 23.800781 5.003906 23.675781 5.492188 23.160156 L 5.503906 23.175781 C 5.296875 23.996094 5.15625 24.539062 4.667969 25.226562 C 4.292969 25.753906 3.746094 26.226562 3.0625 26.226562 C 2.898438 26.226562 2.226562 26.203125 2.019531 25.558594 C 2.058594 25.574219 2.15625 25.574219 2.15625 25.574219 C 2.578125 25.574219 2.855469 25.210938 2.855469 24.890625 C 2.855469 24.570312 2.589844 24.457031 2.382812 24.457031 C 2.15625 24.457031 1.667969 24.625 1.667969 25.308594 C 1.667969 26.019531 2.269531 26.507812 3.0625 26.507812 C 4.460938 26.507812 5.867188 25.226562 6.257812 23.675781 Z M 7.625 18.238281 "/>
<path style=" stroke:none;fill-rule:evenodd;fill:rgb(0%,0%,0%);fill-opacity:1;" d="M 21.859375 18.890625 C 21.859375 18.628906 21.625 18.628906 21.414062 18.628906 L 13.199219 18.628906 C 13.003906 18.628906 12.753906 18.628906 12.753906 18.878906 C 12.753906 19.144531 12.992188 19.144531 13.199219 19.144531 L 21.414062 19.144531 C 21.609375 19.144531 21.859375 19.144531 21.859375 18.890625 Z M 21.859375 21.484375 C 21.859375 21.222656 21.625 21.222656 21.414062 21.222656 L 13.199219 21.222656 C 13.003906 21.222656 12.753906 21.222656 12.753906 21.472656 C 12.753906 21.738281 12.992188 21.738281 13.199219 21.738281 L 21.414062 21.738281 C 21.609375 21.738281 21.859375 21.738281 21.859375 21.484375 Z M 21.859375 21.484375 "/>
<path style=" stroke:none;fill-rule:evenodd;fill:rgb(0%,0%,0%);fill-opacity:1;" d="M 33.863281 21.667969 C 33.863281 21.597656 33.808594 21.542969 33.726562 21.542969 C 33.601562 21.542969 33.585938 21.613281 33.53125 21.820312 C 33.277344 22.785156 33.027344 23.523438 32.46875 23.523438 C 32.050781 23.523438 32.050781 23.0625 32.050781 22.882812 C 32.050781 22.5625 32.09375 22.421875 32.234375 21.835938 L 32.511719 20.691406 L 33.082031 18.417969 C 33.179688 18.070312 33.179688 18.042969 33.179688 18 C 33.179688 17.789062 33.015625 17.652344 32.804688 17.652344 C 32.398438 17.652344 32.300781 18 32.21875 18.347656 L 31.226562 22.378906 C 31.226562 22.378906 30.671875 23.523438 29.652344 23.523438 C 28.925781 23.523438 28.789062 22.894531 28.789062 22.378906 C 28.789062 21.585938 29.179688 20.46875 29.539062 19.535156 C 29.707031 19.085938 29.777344 18.90625 29.777344 18.628906 C 29.777344 18.027344 29.34375 17.511719 28.675781 17.511719 C 27.390625 17.511719 26.875 19.535156 26.875 19.644531 C 26.875 19.703125 26.933594 19.773438 27.03125 19.773438 C 27.15625 19.773438 27.167969 19.714844 27.226562 19.519531 C 27.558594 18.320312 28.105469 17.789062 28.632812 17.789062 C 28.773438 17.789062 28.996094 17.804688 28.996094 18.25 C 28.996094 18.613281 28.84375 19.019531 28.632812 19.546875 C 28.019531 21.207031 27.949219 21.738281 27.949219 22.15625 C 27.949219 23.578125 29.023438 23.800781 29.597656 23.800781 C 30.488281 23.800781 30.976562 23.1875 31.257812 22.851562 C 31.4375 23.632812 32.105469 23.800781 32.441406 23.800781 C 32.886719 23.800781 33.222656 23.507812 33.445312 23.035156 C 33.683594 22.53125 33.863281 21.710938 33.863281 21.667969 Z M 33.863281 21.667969 "/>
<path style=" stroke:none;fill-rule:evenodd;fill:rgb(0%,0%,0%);fill-opacity:1;" d="M 38.539062 16.4375 C 38.539062 16.359375 38.496094 16.265625 38.359375 16.195312 L 36.945312 15.53125 L 38.332031 14.867188 C 38.421875 14.828125 38.539062 14.769531 38.539062 14.613281 C 38.539062 14.457031 38.398438 14.339844 38.273438 14.339844 C 38.234375 14.339844 38.183594 14.351562 38.078125 14.429688 L 36.847656 15.335938 L 36.984375 13.773438 C 36.996094 13.648438 36.984375 13.421875 36.742188 13.421875 C 36.585938 13.421875 36.457031 13.550781 36.488281 13.675781 L 36.488281 13.785156 L 36.625 15.335938 L 35.394531 14.4375 C 35.265625 14.351562 35.265625 14.339844 35.199219 14.339844 C 35.070312 14.339844 34.933594 14.457031 34.933594 14.613281 C 34.933594 14.769531 35.050781 14.828125 35.140625 14.867188 L 36.515625 15.523438 L 35.140625 16.1875 C 35.050781 16.226562 34.933594 16.28125 34.933594 16.4375 C 34.933594 16.59375 35.070312 16.710938 35.199219 16.710938 C 35.238281 16.710938 35.285156 16.703125 35.394531 16.625 L 36.625 15.71875 L 36.488281 17.320312 L 36.488281 17.367188 C 36.457031 17.515625 36.59375 17.632812 36.730469 17.632812 C 36.996094 17.632812 36.996094 17.40625 36.984375 17.269531 L 36.847656 15.726562 L 37.914062 16.5 C 38.03125 16.585938 38.203125 16.710938 38.273438 16.710938 C 38.398438 16.710938 38.539062 16.59375 38.539062 16.4375 Z M 38.539062 16.4375 "/>
<path style=" stroke:none;fill-rule:evenodd;fill:rgb(0%,0%,0%);fill-opacity:1;" d="M 52.660156 20.1875 C 52.660156 19.925781 52.421875 19.925781 52.214844 19.925781 L 48.363281 19.925781 L 48.363281 16.074219 C 48.363281 15.878906 48.363281 15.628906 48.113281 15.628906 C 47.847656 15.628906 47.847656 15.867188 47.847656 16.074219 L 47.847656 19.925781 L 44 19.925781 C 43.804688 19.925781 43.550781 19.925781 43.550781 20.175781 C 43.550781 20.441406 43.789062 20.441406 44 20.441406 L 47.847656 20.441406 L 47.847656 24.289062 C 47.847656 24.484375 47.847656 24.734375 48.097656 24.734375 C 48.363281 24.734375 48.363281 24.5 48.363281 24.289062 L 48.363281 20.441406 L 52.214844 20.441406 C 52.410156 20.441406 52.660156 20.441406 52.660156 20.1875 Z M 52.660156 20.1875 "/>
<path style=" stroke:none;fill-rule:evenodd;fill:rgb(0%,0%,0%);fill-opacity:1;" d="M 61.160156 13.363281 L 61.160156 12.957031 C 60.265625 12.957031 60.097656 12.957031 60.097656 12.328125 L 60.097656 3.683594 L 58.160156 3.835938 L 58.160156 4.242188 C 59.109375 4.242188 59.21875 4.339844 59.21875 5.023438 L 59.21875 12.328125 C 59.21875 12.957031 59.066406 12.957031 58.160156 12.957031 L 58.160156 13.363281 C 58.550781 13.335938 59.234375 13.335938 59.652344 13.335938 C 60.070312 13.335938 60.769531 13.335938 61.160156 13.363281 Z M 61.160156 13.363281 "/>
<path style=" stroke:none;fill-rule:evenodd;fill:rgb(0%,0%,0%);fill-opacity:1;" d="M 67.902344 10.378906 C 67.902344 8.578125 66.535156 7.140625 64.917969 7.140625 C 63.242188 7.140625 61.917969 8.621094 61.917969 10.378906 C 61.917969 12.164062 63.3125 13.5 64.902344 13.5 C 66.546875 13.5 67.902344 12.132812 67.902344 10.378906 Z M 66.839844 10.25 C 66.839844 10.742188 66.839844 11.605469 66.480469 12.261719 C 66.089844 12.929688 65.445312 13.195312 64.917969 13.195312 C 64.402344 13.195312 63.773438 12.972656 63.367188 12.289062 C 62.992188 11.660156 62.976562 10.835938 62.976562 10.25 C 62.976562 9.722656 62.976562 8.871094 63.410156 8.242188 C 63.800781 7.644531 64.414062 7.421875 64.902344 7.421875 C 65.445312 7.421875 66.03125 7.671875 66.410156 8.214844 C 66.839844 8.859375 66.839844 9.734375 66.839844 10.25 Z M 66.839844 10.25 "/>
<path style=" stroke:none;fill-rule:evenodd;fill:rgb(0%,0%,0%);fill-opacity:1;" d="M 74.925781 7.699219 C 74.925781 7.449219 74.730469 7.058594 74.242188 7.058594 C 73.515625 7.058594 72.972656 7.503906 72.777344 7.714844 C 72.359375 7.394531 71.871094 7.210938 71.339844 7.210938 C 70.085938 7.210938 69.152344 8.160156 69.152344 9.234375 C 69.152344 10.03125 69.636719 10.546875 69.777344 10.671875 C 69.609375 10.878906 69.359375 11.285156 69.359375 11.828125 C 69.359375 12.636719 69.847656 12.984375 69.957031 13.054688 C 69.316406 13.238281 68.675781 13.738281 68.675781 14.464844 C 68.675781 15.425781 69.988281 16.222656 71.703125 16.222656 C 73.363281 16.222656 74.742188 15.484375 74.742188 14.4375 C 74.742188 14.085938 74.644531 13.265625 73.808594 12.832031 C 73.097656 12.46875 72.398438 12.46875 71.199219 12.46875 C 70.347656 12.46875 70.253906 12.46875 70 12.203125 C 69.863281 12.066406 69.734375 11.800781 69.734375 11.507812 C 69.734375 11.269531 69.820312 11.03125 69.957031 10.835938 C 70.613281 11.269531 71.171875 11.269531 71.324219 11.269531 C 72.582031 11.269531 73.515625 10.320312 73.515625 9.25 C 73.515625 8.871094 73.402344 8.339844 72.957031 7.894531 C 73.503906 7.335938 74.15625 7.335938 74.226562 7.335938 C 74.28125 7.335938 74.351562 7.335938 74.410156 7.367188 C 74.269531 7.421875 74.199219 7.5625 74.199219 7.714844 C 74.199219 7.910156 74.339844 8.078125 74.5625 8.078125 C 74.671875 8.078125 74.925781 8.007812 74.925781 7.699219 Z M 72.554688 9.234375 C 72.554688 9.484375 72.554688 10.054688 72.316406 10.433594 C 72.050781 10.835938 71.632812 10.976562 71.339844 10.976562 C 70.113281 10.976562 70.113281 9.570312 70.113281 9.25 C 70.113281 8.996094 70.113281 8.425781 70.347656 8.046875 C 70.613281 7.644531 71.035156 7.503906 71.324219 7.503906 C 72.554688 7.503906 72.554688 8.914062 72.554688 9.234375 Z M 74.058594 14.449219 C 74.058594 15.273438 73 15.929688 71.714844 15.929688 C 70.378906 15.929688 69.359375 15.246094 69.359375 14.449219 C 69.359375 14.339844 69.386719 13.796875 69.917969 13.433594 C 70.222656 13.238281 70.347656 13.238281 71.324219 13.238281 C 72.484375 13.238281 74.058594 13.238281 74.058594 14.449219 Z M 74.058594 14.449219 "/>
<path style=" stroke:none;fill-rule:evenodd;fill:rgb(0%,0%,0%);fill-opacity:1;" d="M 80.515625 18.226562 L 83.195312 18.226562 L 83.195312 17.671875 L 81.074219 17.671875 L 81.074219 2.0625 L 83.195312 2.0625 L 83.195312 1.503906 L 80.515625 1.503906 Z M 80.515625 18.226562 "/>
<path style=" stroke:none;fill-rule:evenodd;fill:rgb(0%,0%,0%);fill-opacity:1;" d="M 89.328125 11.84375 C 89.328125 11.757812 89.246094 11.6875 89.191406 11.6875 C 89.148438 11.6875 89.132812 11.703125 89.007812 11.828125 C 88.117188 13.015625 86.792969 13.222656 86.261719 13.222656 C 85.464844 13.222656 85.046875 12.59375 85.046875 11.5625 C 85.046875 11.367188 85.046875 11.019531 85.257812 10.125 L 85.996094 10.125 C 86.371094 10.125 87.320312 10.097656 87.988281 9.847656 C 89.050781 9.445312 89.148438 8.632812 89.148438 8.382812 C 89.148438 7.769531 88.617188 7.210938 87.699219 7.210938 C 86.234375 7.210938 84.128906 8.535156 84.128906 11.019531 C 84.128906 12.484375 84.964844 13.5 86.234375 13.5 C 88.128906 13.5 89.328125 12.023438 89.328125 11.84375 Z M 88.730469 8.382812 C 88.730469 9.847656 86.496094 9.847656 85.910156 9.847656 L 85.324219 9.847656 C 85.925781 7.699219 87.25 7.492188 87.699219 7.492188 C 88.3125 7.492188 88.730469 7.851562 88.730469 8.382812 Z M 88.730469 8.382812 "/>
<path style=" stroke:none;fill-rule:evenodd;fill:rgb(0%,0%,0%);fill-opacity:1;" d="M 94.582031 6.964844 C 94.582031 6.867188 94.496094 6.867188 94.464844 6.867188 C 94.367188 6.867188 94.359375 6.90625 94.328125 7.042969 C 94.132812 7.757812 93.910156 8.253906 93.480469 8.253906 C 93.292969 8.253906 93.167969 8.148438 93.167969 7.796875 C 93.167969 7.628906 93.207031 7.40625 93.246094 7.25 C 93.285156 7.082031 93.285156 7.042969 93.285156 6.945312 C 93.285156 6.3125 92.667969 6.03125 91.839844 5.921875 C 92.144531 5.746094 92.457031 5.433594 92.679688 5.199219 C 93.148438 4.679688 93.597656 4.261719 94.074219 4.261719 C 94.132812 4.261719 94.144531 4.261719 94.164062 4.273438 C 94.28125 4.289062 94.289062 4.289062 94.367188 4.351562 C 94.386719 4.359375 94.386719 4.367188 94.40625 4.390625 C 93.9375 4.417969 93.851562 4.796875 93.851562 4.914062 C 93.851562 5.070312 93.957031 5.257812 94.222656 5.257812 C 94.476562 5.257812 94.757812 5.042969 94.757812 4.664062 C 94.757812 4.367188 94.535156 4.046875 94.09375 4.046875 C 93.820312 4.046875 93.371094 4.125 92.667969 4.90625 C 92.339844 5.277344 91.957031 5.667969 91.585938 5.8125 L 92.601562 1.695312 C 92.601562 1.695312 92.601562 1.585938 92.472656 1.585938 C 92.25 1.585938 91.535156 1.664062 91.285156 1.683594 C 91.207031 1.695312 91.097656 1.703125 91.097656 1.878906 C 91.097656 1.996094 91.183594 1.996094 91.332031 1.996094 C 91.800781 1.996094 91.820312 2.066406 91.820312 2.164062 L 91.792969 2.359375 L 90.375 7.980469 C 90.335938 8.117188 90.335938 8.136719 90.335938 8.195312 C 90.335938 8.421875 90.53125 8.46875 90.621094 8.46875 C 90.746094 8.46875 90.894531 8.382812 90.949219 8.265625 C 91 8.175781 91.441406 6.371094 91.496094 6.125 C 91.832031 6.15625 92.628906 6.3125 92.628906 6.957031 C 92.628906 7.023438 92.628906 7.0625 92.601562 7.160156 C 92.582031 7.277344 92.5625 7.394531 92.5625 7.503906 C 92.5625 8.078125 92.953125 8.46875 93.460938 8.46875 C 93.753906 8.46875 94.015625 8.3125 94.230469 7.953125 C 94.476562 7.523438 94.582031 6.964844 94.582031 6.964844 Z M 94.582031 6.964844 "/>
<path style=" stroke:none;fill-rule:evenodd;fill:rgb(0%,0%,0%);fill-opacity:1;" d="M 97.074219 5.921875 C 97.074219 5.640625 96.839844 5.40625 96.558594 5.40625 C 96.273438 5.40625 96.039062 5.640625 96.039062 5.921875 C 96.039062 6.203125 96.273438 6.4375 96.558594 6.4375 C 96.839844 6.4375 97.074219 6.203125 97.074219 5.921875 Z M 97.074219 5.921875 "/>
<path style=" stroke:none;fill-rule:evenodd;fill:rgb(0%,0%,0%);fill-opacity:1;" d="M 101.128906 10.707031 C 101.128906 10.675781 101.128906 10.65625 100.964844 10.492188 C 99.746094 9.261719 99.433594 7.414062 99.433594 5.921875 C 99.433594 4.222656 99.800781 2.523438 101.003906 1.304688 C 101.128906 1.1875 101.128906 1.167969 101.128906 1.136719 C 101.128906 1.070312 101.089844 1.039062 101.03125 1.039062 C 100.933594 1.039062 100.058594 1.703125 99.480469 2.945312 C 98.984375 4.015625 98.867188 5.101562 98.867188 5.921875 C 98.867188 6.683594 98.972656 7.863281 99.511719 8.96875 C 100.097656 10.167969 100.933594 10.804688 101.03125 10.804688 C 101.089844 10.804688 101.128906 10.773438 101.128906 10.707031 Z M 101.128906 10.707031 "/>
<path style=" stroke:none;fill-rule:evenodd;fill:rgb(0%,0%,0%);fill-opacity:1;" d="M 107 6.964844 C 107 6.867188 106.914062 6.867188 106.882812 6.867188 C 106.785156 6.867188 106.777344 6.90625 106.746094 7.042969 C 106.609375 7.589844 106.425781 8.253906 106.015625 8.253906 C 105.808594 8.253906 105.710938 8.128906 105.710938 7.804688 C 105.710938 7.589844 105.828125 7.132812 105.90625 6.789062 L 106.179688 5.734375 C 106.210938 5.589844 106.308594 5.21875 106.347656 5.070312 C 106.394531 4.847656 106.492188 4.476562 106.492188 4.417969 C 106.492188 4.242188 106.355469 4.15625 106.210938 4.15625 C 106.160156 4.15625 105.90625 4.164062 105.828125 4.496094 L 105.097656 7.433594 C 105.085938 7.472656 104.695312 8.253906 103.984375 8.253906 C 103.476562 8.253906 103.378906 7.816406 103.378906 7.453125 C 103.378906 6.90625 103.652344 6.136719 103.90625 5.460938 C 104.023438 5.171875 104.070312 5.03125 104.070312 4.847656 C 104.070312 4.40625 103.757812 4.046875 103.269531 4.046875 C 102.34375 4.046875 101.980469 5.460938 101.980469 5.550781 C 101.980469 5.648438 102.097656 5.648438 102.097656 5.648438 C 102.195312 5.648438 102.207031 5.628906 102.253906 5.472656 C 102.5 4.625 102.871094 4.261719 103.242188 4.261719 C 103.328125 4.261719 103.484375 4.273438 103.484375 4.585938 C 103.484375 4.820312 103.378906 5.101562 103.320312 5.25 C 102.957031 6.214844 102.753906 6.820312 102.753906 7.296875 C 102.753906 8.226562 103.425781 8.46875 103.953125 8.46875 C 104.597656 8.46875 104.949219 8.03125 105.117188 7.816406 C 105.222656 8.214844 105.566406 8.46875 105.984375 8.46875 C 106.328125 8.46875 106.550781 8.246094 106.707031 7.933594 C 106.875 7.582031 107 6.964844 107 6.964844 Z M 107 6.964844 "/>
<path style=" stroke:none;fill-rule:evenodd;fill:rgb(0%,0%,0%);fill-opacity:1;" d="M 114.074219 5.921875 C 114.074219 5.726562 113.890625 5.726562 113.75 5.726562 L 108.433594 5.726562 C 108.292969 5.726562 108.109375 5.726562 108.109375 5.921875 C 108.109375 6.117188 108.292969 6.117188 108.433594 6.117188 L 113.75 6.117188 C 113.890625 6.117188 114.074219 6.117188 114.074219 5.921875 Z M 114.074219 5.921875 "/>
<path style=" stroke:none;fill-rule:evenodd;fill:rgb(0%,0%,0%);fill-opacity:1;" d="M 120.199219 6.964844 C 120.199219 6.867188 120.113281 6.867188 120.082031 6.867188 C 119.984375 6.867188 119.976562 6.90625 119.945312 7.042969 C 119.808594 7.589844 119.625 8.253906 119.214844 8.253906 C 119.011719 8.253906 118.910156 8.128906 118.910156 7.804688 C 118.910156 7.589844 119.027344 7.132812 119.105469 6.789062 L 119.378906 5.734375 C 119.410156 5.589844 119.507812 5.21875 119.546875 5.070312 C 119.597656 4.847656 119.691406 4.476562 119.691406 4.417969 C 119.691406 4.242188 119.558594 4.15625 119.410156 4.15625 C 119.363281 4.15625 119.105469 4.164062 119.027344 4.496094 L 118.296875 7.433594 C 118.285156 7.472656 117.894531 8.253906 117.183594 8.253906 C 116.675781 8.253906 116.578125 7.816406 116.578125 7.453125 C 116.578125 6.90625 116.851562 6.136719 117.105469 5.460938 C 117.222656 5.171875 117.269531 5.03125 117.269531 4.847656 C 117.269531 4.40625 116.957031 4.046875 116.472656 4.046875 C 115.542969 4.046875 115.183594 5.460938 115.183594 5.550781 C 115.183594 5.648438 115.300781 5.648438 115.300781 5.648438 C 115.398438 5.648438 115.40625 5.628906 115.453125 5.472656 C 115.699219 4.625 116.070312 4.261719 116.441406 4.261719 C 116.527344 4.261719 116.683594 4.273438 116.683594 4.585938 C 116.683594 4.820312 116.578125 5.101562 116.519531 5.25 C 116.15625 6.214844 115.953125 6.820312 115.953125 7.296875 C 115.953125 8.226562 116.625 8.46875 117.152344 8.46875 C 117.800781 8.46875 118.152344 8.03125 118.316406 7.816406 C 118.425781 8.214844 118.765625 8.46875 119.183594 8.46875 C 119.527344 8.46875 119.75 8.246094 119.90625 7.933594 C 120.074219 7.582031 120.199219 6.964844 120.199219 6.964844 Z M 120.199219 6.964844 "/>
<path style=" stroke:none;fill-rule:evenodd;fill:rgb(0%,0%,0%);fill-opacity:1;" d="M 123.957031 3.667969 C 123.957031 3.535156 123.859375 3.492188 123.816406 3.472656 L 122.75 3.027344 L 123.78125 2.578125 C 123.882812 2.539062 123.957031 2.503906 123.957031 2.378906 C 123.957031 2.28125 123.875 2.15625 123.742188 2.15625 C 123.6875 2.15625 123.664062 2.167969 123.597656 2.21875 L 122.632812 2.851562 L 122.738281 1.804688 L 122.75 1.714844 C 122.75 1.632812 122.675781 1.519531 122.535156 1.519531 C 122.394531 1.519531 122.320312 1.625 122.320312 1.714844 L 122.4375 2.851562 L 121.480469 2.21875 C 121.390625 2.160156 121.355469 2.15625 121.328125 2.15625 C 121.195312 2.15625 121.113281 2.28125 121.113281 2.378906 C 121.113281 2.503906 121.191406 2.539062 121.285156 2.578125 L 122.320312 3.019531 L 121.285156 3.464844 C 121.191406 3.507812 121.113281 3.542969 121.113281 3.667969 C 121.113281 3.765625 121.195312 3.890625 121.328125 3.890625 C 121.386719 3.890625 121.40625 3.875 121.476562 3.828125 L 122.429688 3.195312 L 122.320312 4.328125 C 122.320312 4.421875 122.394531 4.523438 122.535156 4.523438 C 122.675781 4.523438 122.75 4.414062 122.75 4.328125 C 122.75 4.289062 122.632812 3.222656 122.632812 3.195312 L 123.492188 3.765625 C 123.679688 3.890625 123.691406 3.890625 123.742188 3.890625 C 123.875 3.890625 123.957031 3.765625 123.957031 3.667969 Z M 123.957031 3.667969 "/>
<path style=" stroke:none;fill-rule:evenodd;fill:rgb(0%,0%,0%);fill-opacity:1;" d="M 127.820312 5.921875 C 127.820312 5.160156 127.710938 3.976562 127.175781 2.875 C 126.589844 1.675781 125.75 1.039062 125.652344 1.039062 C 125.59375 1.039062 125.554688 1.078125 125.554688 1.136719 C 125.554688 1.167969 125.554688 1.1875 125.742188 1.363281 C 126.695312 2.328125 127.253906 3.882812 127.253906 5.921875 C 127.253906 7.589844 126.894531 9.308594 125.683594 10.539062 C 125.554688 10.65625 125.554688 10.675781 125.554688 10.707031 C 125.554688 10.765625 125.59375 10.804688 125.652344 10.804688 C 125.75 10.804688 126.628906 10.140625 127.203125 8.898438 C 127.703125 7.824219 127.820312 6.742188 127.820312 5.921875 Z M 127.820312 5.921875 "/>
<path style=" stroke:none;fill-rule:evenodd;fill:rgb(0%,0%,0%);fill-opacity:1;" d="M 142.257812 9.890625 C 142.257812 9.625 142.023438 9.625 141.8125 9.625 L 137.964844 9.625 L 137.964844 5.773438 C 137.964844 5.578125 137.964844 5.328125 137.710938 5.328125 C 137.445312 5.328125 137.445312 5.566406 137.445312 5.773438 L 137.445312 9.625 L 133.597656 9.625 C 133.402344 9.625 133.152344 9.625 133.152344 9.875 C 133.152344 10.140625 133.390625 10.140625 133.597656 10.140625 L 137.445312 10.140625 L 137.445312 13.992188 C 137.445312 14.1875 137.445312 14.4375 137.699219 14.4375 C 137.964844 14.4375 137.964844 14.199219 137.964844 13.992188 L 137.964844 10.140625 L 141.8125 10.140625 C 142.007812 10.140625 142.257812 10.140625 142.257812 9.890625 Z M 142.257812 9.890625 "/>
<path style=" stroke:none;fill-rule:evenodd;fill:rgb(0%,0%,0%);fill-opacity:1;" d="M 152.027344 11.84375 C 152.027344 11.757812 151.945312 11.6875 151.890625 11.6875 C 151.847656 11.6875 151.832031 11.703125 151.707031 11.828125 C 150.816406 13.015625 149.492188 13.222656 148.960938 13.222656 C 148.164062 13.222656 147.746094 12.59375 147.746094 11.5625 C 147.746094 11.367188 147.746094 11.019531 147.957031 10.125 L 148.695312 10.125 C 149.070312 10.125 150.019531 10.097656 150.691406 9.847656 C 151.75 9.445312 151.847656 8.632812 151.847656 8.382812 C 151.847656 7.769531 151.316406 7.210938 150.398438 7.210938 C 148.933594 7.210938 146.828125 8.535156 146.828125 11.019531 C 146.828125 12.484375 147.664062 13.5 148.933594 13.5 C 150.828125 13.5 152.027344 12.023438 152.027344 11.84375 Z M 151.429688 8.382812 C 151.429688 9.847656 149.195312 9.847656 148.613281 9.847656 L 148.027344 9.847656 C 148.625 7.699219 149.949219 7.492188 150.398438 7.492188 C 151.011719 7.492188 151.429688 7.851562 151.429688 8.382812 Z M 151.429688 8.382812 "/>
<path style=" stroke:none;fill-rule:evenodd;fill:rgb(0%,0%,0%);fill-opacity:1;" d="M 157.28125 6.964844 C 157.28125 6.867188 157.195312 6.867188 157.164062 6.867188 C 157.066406 6.867188 157.058594 6.90625 157.027344 7.042969 C 156.832031 7.757812 156.609375 8.253906 156.179688 8.253906 C 155.992188 8.253906 155.867188 8.148438 155.867188 7.796875 C 155.867188 7.628906 155.90625 7.40625 155.945312 7.25 C 155.984375 7.082031 155.984375 7.042969 155.984375 6.945312 C 155.984375 6.3125 155.367188 6.03125 154.539062 5.921875 C 154.84375 5.746094 155.15625 5.433594 155.378906 5.199219 C 155.847656 4.679688 156.296875 4.261719 156.777344 4.261719 C 156.832031 4.261719 156.84375 4.261719 156.863281 4.273438 C 156.980469 4.289062 156.988281 4.289062 157.066406 4.351562 C 157.085938 4.359375 157.085938 4.367188 157.105469 4.390625 C 156.636719 4.417969 156.550781 4.796875 156.550781 4.914062 C 156.550781 5.070312 156.65625 5.257812 156.921875 5.257812 C 157.175781 5.257812 157.457031 5.042969 157.457031 4.664062 C 157.457031 4.367188 157.234375 4.046875 156.792969 4.046875 C 156.519531 4.046875 156.070312 4.125 155.367188 4.90625 C 155.039062 5.277344 154.65625 5.667969 154.285156 5.8125 L 155.300781 1.695312 C 155.300781 1.695312 155.300781 1.585938 155.171875 1.585938 C 154.949219 1.585938 154.238281 1.664062 153.984375 1.683594 C 153.90625 1.695312 153.796875 1.703125 153.796875 1.878906 C 153.796875 1.996094 153.882812 1.996094 154.03125 1.996094 C 154.5 1.996094 154.519531 2.066406 154.519531 2.164062 L 154.492188 2.359375 L 153.074219 7.980469 C 153.035156 8.117188 153.035156 8.136719 153.035156 8.195312 C 153.035156 8.421875 153.230469 8.46875 153.320312 8.46875 C 153.445312 8.46875 153.59375 8.382812 153.652344 8.265625 C 153.699219 8.175781 154.140625 6.371094 154.195312 6.125 C 154.53125 6.15625 155.328125 6.3125 155.328125 6.957031 C 155.328125 7.023438 155.328125 7.0625 155.300781 7.160156 C 155.28125 7.277344 155.261719 7.394531 155.261719 7.503906 C 155.261719 8.078125 155.652344 8.46875 156.160156 8.46875 C 156.453125 8.46875 156.714844 8.3125 156.929688 7.953125 C 157.175781 7.523438 157.28125 6.964844 157.28125 6.964844 Z M 157.28125 6.964844 "/>
<path style=" stroke:none;fill-rule:evenodd;fill:rgb(0%,0%,0%);fill-opacity:1;" d="M 159.773438 5.921875 C 159.773438 5.640625 159.539062 5.40625 159.257812 5.40625 C 158.972656 5.40625 158.738281 5.640625 158.738281 5.921875 C 158.738281 6.203125 158.972656 6.4375 159.257812 6.4375 C 159.539062 6.4375 159.773438 6.203125 159.773438 5.921875 Z M 159.773438 5.921875 "/>
<path style=" stroke:none;fill-rule:evenodd;fill:rgb(0%,0%,0%);fill-opacity:1;" d="M 163.828125 10.707031 C 163.828125 10.675781 163.828125 10.65625 163.664062 10.492188 C 162.445312 9.261719 162.132812 7.414062 162.132812 5.921875 C 162.132812 4.222656 162.5 2.523438 163.703125 1.304688 C 163.828125 1.1875 163.828125 1.167969 163.828125 1.136719 C 163.828125 1.070312 163.789062 1.039062 163.734375 1.039062 C 163.632812 1.039062 162.757812 1.703125 162.179688 2.945312 C 161.683594 4.015625 161.566406 5.101562 161.566406 5.921875 C 161.566406 6.683594 161.671875 7.863281 162.210938 8.96875 C 162.796875 10.167969 163.632812 10.804688 163.734375 10.804688 C 163.789062 10.804688 163.828125 10.773438 163.828125 10.707031 Z M 163.828125 10.707031 "/>
<path style=" stroke:none;fill-rule:evenodd;fill:rgb(0%,0%,0%);fill-opacity:1;" d="M 169.699219 6.964844 C 169.699219 6.867188 169.613281 6.867188 169.582031 6.867188 C 169.484375 6.867188 169.476562 6.90625 169.445312 7.042969 C 169.308594 7.589844 169.125 8.253906 168.714844 8.253906 C 168.507812 8.253906 168.410156 8.128906 168.410156 7.804688 C 168.410156 7.589844 168.527344 7.132812 168.605469 6.789062 L 168.878906 5.734375 C 168.910156 5.589844 169.007812 5.21875 169.046875 5.070312 C 169.09375 4.847656 169.191406 4.476562 169.191406 4.417969 C 169.191406 4.242188 169.054688 4.15625 168.910156 4.15625 C 168.863281 4.15625 168.605469 4.164062 168.527344 4.496094 L 167.796875 7.433594 C 167.785156 7.472656 167.394531 8.253906 166.683594 8.253906 C 166.175781 8.253906 166.078125 7.816406 166.078125 7.453125 C 166.078125 6.90625 166.351562 6.136719 166.605469 5.460938 C 166.722656 5.171875 166.769531 5.03125 166.769531 4.847656 C 166.769531 4.40625 166.457031 4.046875 165.96875 4.046875 C 165.042969 4.046875 164.679688 5.460938 164.679688 5.550781 C 164.679688 5.648438 164.796875 5.648438 164.796875 5.648438 C 164.894531 5.648438 164.90625 5.628906 164.953125 5.472656 C 165.199219 4.625 165.570312 4.261719 165.941406 4.261719 C 166.027344 4.261719 166.183594 4.273438 166.183594 4.585938 C 166.183594 4.820312 166.078125 5.101562 166.019531 5.25 C 165.65625 6.214844 165.453125 6.820312 165.453125 7.296875 C 165.453125 8.226562 166.125 8.46875 166.652344 8.46875 C 167.296875 8.46875 167.652344 8.03125 167.816406 7.816406 C 167.921875 8.214844 168.265625 8.46875 168.683594 8.46875 C 169.027344 8.46875 169.25 8.246094 169.40625 7.933594 C 169.574219 7.582031 169.699219 6.964844 169.699219 6.964844 Z M 169.699219 6.964844 "/>
<path style=" stroke:none;fill-rule:evenodd;fill:rgb(0%,0%,0%);fill-opacity:1;" d="M 176.253906 9.761719 L 176.253906 9.511719 C 175.800781 9.511719 175.730469 9.511719 175.730469 9.210938 L 175.730469 7.648438 C 175.730469 7.042969 175.429688 6.6875 174.683594 6.6875 C 174.132812 6.6875 173.757812 6.988281 173.566406 7.335938 C 173.429688 6.839844 173.054688 6.6875 172.542969 6.6875 C 171.972656 6.6875 171.601562 7 171.40625 7.363281 L 171.398438 7.363281 L 171.398438 6.6875 L 170.375 6.765625 L 170.375 7.015625 C 170.84375 7.015625 170.898438 7.0625 170.898438 7.40625 L 170.898438 9.210938 C 170.898438 9.511719 170.828125 9.511719 170.375 9.511719 L 170.375 9.761719 C 170.375 9.761719 170.875 9.734375 171.171875 9.734375 C 171.429688 9.734375 171.910156 9.757812 171.972656 9.761719 L 171.972656 9.511719 C 171.519531 9.511719 171.449219 9.511719 171.449219 9.210938 L 171.449219 7.957031 C 171.449219 7.222656 172.027344 6.882812 172.488281 6.882812 C 172.976562 6.882812 173.039062 7.265625 173.039062 7.621094 L 173.039062 9.210938 C 173.039062 9.511719 172.96875 9.511719 172.515625 9.511719 L 172.515625 9.761719 C 172.515625 9.761719 173.019531 9.734375 173.3125 9.734375 C 173.566406 9.734375 174.050781 9.757812 174.113281 9.761719 L 174.113281 9.511719 C 173.660156 9.511719 173.589844 9.511719 173.589844 9.210938 L 173.589844 7.957031 C 173.589844 7.222656 174.167969 6.882812 174.628906 6.882812 C 175.117188 6.882812 175.179688 7.265625 175.179688 7.621094 L 175.179688 9.210938 C 175.179688 9.511719 175.109375 9.511719 174.65625 9.511719 L 174.65625 9.761719 C 174.65625 9.761719 175.160156 9.734375 175.453125 9.734375 C 175.710938 9.734375 176.191406 9.757812 176.253906 9.761719 Z M 176.253906 9.761719 "/>
<path style=" stroke:none;fill-rule:evenodd;fill:rgb(0%,0%,0%);fill-opacity:1;" d="M 178.410156 9.761719 L 178.410156 9.511719 C 178.003906 9.511719 177.933594 9.511719 177.933594 9.21875 L 177.933594 6.6875 L 176.910156 6.765625 L 176.910156 7.015625 C 177.351562 7.015625 177.414062 7.054688 177.414062 7.398438 L 177.414062 9.210938 C 177.414062 9.511719 177.34375 9.511719 176.890625 9.511719 L 176.890625 9.761719 C 176.890625 9.761719 177.390625 9.734375 177.671875 9.734375 C 177.914062 9.734375 178.164062 9.742188 178.410156 9.761719 Z M 178.023438 5.5625 C 178.023438 5.339844 177.851562 5.160156 177.628906 5.160156 C 177.390625 5.160156 177.230469 5.355469 177.230469 5.558594 C 177.230469 5.78125 177.40625 5.960938 177.628906 5.960938 C 177.867188 5.960938 178.023438 5.765625 178.023438 5.5625 Z M 178.023438 5.5625 "/>
<path style=" stroke:none;fill-rule:evenodd;fill:rgb(0%,0%,0%);fill-opacity:1;" d="M 182.914062 9.761719 L 182.914062 9.511719 C 182.460938 9.511719 182.390625 9.511719 182.390625 9.210938 L 182.390625 7.648438 C 182.390625 7.042969 182.089844 6.6875 181.34375 6.6875 C 180.769531 6.6875 180.402344 7 180.207031 7.363281 L 180.199219 7.363281 L 180.199219 6.6875 L 179.175781 6.765625 L 179.175781 7.015625 C 179.640625 7.015625 179.699219 7.0625 179.699219 7.40625 L 179.699219 9.210938 C 179.699219 9.511719 179.628906 9.511719 179.175781 9.511719 L 179.175781 9.761719 C 179.175781 9.761719 179.675781 9.734375 179.96875 9.734375 C 180.226562 9.734375 180.710938 9.757812 180.769531 9.761719 L 180.769531 9.511719 C 180.316406 9.511719 180.25 9.511719 180.25 9.210938 L 180.25 7.957031 C 180.25 7.222656 180.828125 6.882812 181.289062 6.882812 C 181.777344 6.882812 181.839844 7.265625 181.839844 7.621094 L 181.839844 9.210938 C 181.839844 9.511719 181.769531 9.511719 181.316406 9.511719 L 181.316406 9.761719 C 181.316406 9.761719 181.816406 9.734375 182.109375 9.734375 C 182.367188 9.734375 182.851562 9.757812 182.914062 9.761719 Z M 182.914062 9.761719 "/>
<path style=" stroke:none;fill-rule:evenodd;fill:rgb(0%,0%,0%);fill-opacity:1;" d="M 190.472656 5.921875 C 190.472656 5.726562 190.289062 5.726562 190.152344 5.726562 L 184.832031 5.726562 C 184.691406 5.726562 184.507812 5.726562 184.507812 5.921875 C 184.507812 6.117188 184.691406 6.117188 184.832031 6.117188 L 190.152344 6.117188 C 190.289062 6.117188 190.472656 6.117188 190.472656 5.921875 Z M 190.472656 5.921875 "/>
<path style=" stroke:none;fill-rule:evenodd;fill:rgb(0%,0%,0%);fill-opacity:1;" d="M 196.601562 6.964844 C 196.601562 6.867188 196.511719 6.867188 196.480469 6.867188 C 196.382812 6.867188 196.375 6.90625 196.34375 7.042969 C 196.210938 7.589844 196.023438 8.253906 195.613281 8.253906 C 195.410156 8.253906 195.3125 8.128906 195.3125 7.804688 C 195.3125 7.589844 195.429688 7.132812 195.507812 6.789062 L 195.777344 5.734375 C 195.808594 5.589844 195.90625 5.21875 195.945312 5.070312 C 195.996094 4.847656 196.09375 4.476562 196.09375 4.417969 C 196.09375 4.242188 195.957031 4.15625 195.808594 4.15625 C 195.761719 4.15625 195.507812 4.164062 195.429688 4.496094 L 194.695312 7.433594 C 194.6875 7.472656 194.296875 8.253906 193.582031 8.253906 C 193.074219 8.253906 192.976562 7.816406 192.976562 7.453125 C 192.976562 6.90625 193.25 6.136719 193.503906 5.460938 C 193.621094 5.171875 193.671875 5.03125 193.671875 4.847656 C 193.671875 4.40625 193.355469 4.046875 192.871094 4.046875 C 191.941406 4.046875 191.582031 5.460938 191.582031 5.550781 C 191.582031 5.648438 191.699219 5.648438 191.699219 5.648438 C 191.796875 5.648438 191.804688 5.628906 191.855469 5.472656 C 192.097656 4.625 192.46875 4.261719 192.839844 4.261719 C 192.929688 4.261719 193.085938 4.273438 193.085938 4.585938 C 193.085938 4.820312 192.976562 5.101562 192.917969 5.25 C 192.558594 6.214844 192.351562 6.820312 192.351562 7.296875 C 192.351562 8.226562 193.027344 8.46875 193.554688 8.46875 C 194.199219 8.46875 194.550781 8.03125 194.714844 7.816406 C 194.824219 8.214844 195.164062 8.46875 195.585938 8.46875 C 195.925781 8.46875 196.148438 8.246094 196.304688 7.933594 C 196.472656 7.582031 196.601562 6.964844 196.601562 6.964844 Z M 196.601562 6.964844 "/>
<path style=" stroke:none;fill-rule:evenodd;fill:rgb(0%,0%,0%);fill-opacity:1;" d="M 200.355469 3.667969 C 200.355469 3.535156 200.257812 3.492188 200.21875 3.472656 L 199.152344 3.027344 L 200.183594 2.578125 C 200.28125 2.539062 200.355469 2.503906 200.355469 2.378906 C 200.355469 2.28125 200.273438 2.15625 200.140625 2.15625 C 200.085938 2.15625 200.0625 2.167969 199.996094 2.21875 L 199.03125 2.851562 L 199.136719 1.804688 L 199.152344 1.714844 C 199.152344 1.632812 199.074219 1.519531 198.933594 1.519531 C 198.796875 1.519531 198.71875 1.625 198.71875 1.714844 L 198.835938 2.851562 L 197.882812 2.21875 C 197.789062 2.160156 197.757812 2.15625 197.726562 2.15625 C 197.59375 2.15625 197.511719 2.28125 197.511719 2.378906 C 197.511719 2.503906 197.589844 2.539062 197.6875 2.578125 L 198.71875 3.019531 L 197.6875 3.464844 C 197.589844 3.507812 197.511719 3.542969 197.511719 3.667969 C 197.511719 3.765625 197.59375 3.890625 197.726562 3.890625 C 197.785156 3.890625 197.804688 3.875 197.875 3.828125 L 198.828125 3.195312 L 198.71875 4.328125 C 198.71875 4.421875 198.796875 4.523438 198.933594 4.523438 C 199.074219 4.523438 199.152344 4.414062 199.152344 4.328125 C 199.152344 4.289062 199.03125 3.222656 199.03125 3.195312 L 199.890625 3.765625 C 200.078125 3.890625 200.09375 3.890625 200.140625 3.890625 C 200.273438 3.890625 200.355469 3.765625 200.355469 3.667969 Z M 200.355469 3.667969 "/>
<path style=" stroke:none;fill-rule:evenodd;fill:rgb(0%,0%,0%);fill-opacity:1;" d="M 204.21875 5.921875 C 204.21875 5.160156 204.113281 3.976562 203.574219 2.875 C 202.988281 1.675781 202.148438 1.039062 202.054688 1.039062 C 201.992188 1.039062 201.953125 1.078125 201.953125 1.136719 C 201.953125 1.167969 201.953125 1.1875 202.140625 1.363281 C 203.097656 2.328125 203.652344 3.882812 203.652344 5.921875 C 203.652344 7.589844 203.292969 9.308594 202.082031 10.539062 C 201.953125 10.65625 201.953125 10.675781 201.953125 10.707031 C 201.953125 10.765625 201.992188 10.804688 202.054688 10.804688 C 202.148438 10.804688 203.027344 10.140625 203.605469 8.898438 C 204.101562 7.824219 204.21875 6.742188 204.21875 5.921875 Z M 204.21875 5.921875 "/>
<path style=" stroke:none;fill-rule:evenodd;fill:rgb(0%,0%,0%);fill-opacity:1;" d="M 208.683594 18.226562 L 208.683594 1.503906 L 206.003906 1.503906 L 206.003906 2.0625 L 208.125 2.0625 L 208.125 17.671875 L 206.003906 17.671875 L 206.003906 18.226562 Z M 208.683594 18.226562 "/>
<path style="fill:none;stroke-width:0.557995;stroke-linecap:square;stroke-linejoin:miter;stroke:rgb(0%,0%,0%);stroke-opacity:1;stroke-miterlimit:10;" d="M 57.695312 20.210938 L 211.550781 20.210938 "/>
<path style=" stroke:none;fill-rule:evenodd;fill:rgb(0%,0%,0%);fill-opacity:1;" d="M 137.492188 31.269531 C 137.492188 31.199219 137.4375 31.140625 137.355469 31.140625 C 137.230469 31.140625 137.214844 31.199219 137.15625 31.421875 C 136.960938 32.148438 136.671875 33.125 135.960938 33.125 C 135.679688 33.125 135.5 32.984375 135.5 32.453125 C 135.5 32.1875 135.554688 31.882812 135.613281 31.671875 C 135.664062 31.421875 135.664062 31.40625 135.664062 31.242188 C 135.664062 30.417969 134.925781 29.957031 133.644531 29.789062 C 134.144531 29.484375 134.648438 28.9375 134.84375 28.730469 C 135.636719 27.835938 136.183594 27.390625 136.824219 27.390625 C 137.144531 27.390625 137.230469 27.476562 137.328125 27.558594 C 136.808594 27.613281 136.613281 27.976562 136.613281 28.253906 C 136.613281 28.589844 136.878906 28.703125 137.074219 28.703125 C 137.453125 28.703125 137.785156 28.382812 137.785156 27.933594 C 137.785156 27.53125 137.464844 27.109375 136.835938 27.109375 C 136.070312 27.109375 135.441406 27.65625 134.453125 28.773438 C 134.3125 28.9375 133.796875 29.46875 133.28125 29.664062 L 134.71875 23.929688 C 134.730469 23.875 134.757812 23.792969 134.757812 23.722656 C 134.757812 23.582031 134.59375 23.582031 134.59375 23.582031 L 133.824219 23.652344 C 133.585938 23.667969 133.378906 23.695312 133.128906 23.707031 C 132.792969 23.734375 132.695312 23.75 132.695312 24 C 132.695312 24.140625 132.835938 24.140625 132.976562 24.140625 C 133.6875 24.140625 133.6875 24.265625 133.6875 24.40625 C 133.6875 24.460938 133.6875 24.488281 133.617188 24.742188 L 131.621094 32.71875 C 131.566406 32.929688 131.566406 32.957031 131.566406 33.039062 C 131.566406 33.347656 131.804688 33.402344 131.941406 33.402344 C 132.332031 33.402344 132.414062 33.09375 132.527344 32.664062 C 132.652344 32.148438 132.597656 32.34375 133.183594 30.054688 C 134.1875 30.164062 134.789062 30.585938 134.789062 31.253906 C 134.789062 31.335938 134.789062 31.394531 134.746094 31.601562 C 134.691406 31.8125 134.691406 31.980469 134.691406 32.046875 C 134.691406 32.859375 135.222656 33.402344 135.933594 33.402344 C 136.574219 33.402344 136.90625 32.816406 137.019531 32.621094 C 137.3125 32.105469 137.492188 31.324219 137.492188 31.269531 Z M 137.492188 31.269531 "/>
<path style=" stroke:none;fill-rule:evenodd;fill:rgb(0%,0%,0%);fill-opacity:1;" d="M 235.992188 18.054688 L 235.992188 17.652344 C 235.644531 17.679688 235.394531 17.679688 234.960938 17.679688 L 233.777344 17.652344 L 233.777344 18.054688 C 234.402344 18.082031 234.570312 18.460938 234.570312 18.726562 C 234.570312 18.726562 234.570312 18.835938 234.515625 18.976562 L 233.230469 22.628906 L 231.835938 18.683594 C 231.769531 18.515625 231.769531 18.488281 231.769531 18.445312 C 231.769531 18.054688 232.285156 18.054688 232.574219 18.054688 L 232.574219 17.652344 C 232.1875 17.679688 231.613281 17.679688 231.210938 17.679688 L 229.953125 17.652344 L 229.953125 18.054688 C 230.484375 18.054688 230.664062 18.082031 230.820312 18.265625 C 230.890625 18.347656 231.054688 18.808594 231.152344 19.085938 L 229.96875 22.492188 L 228.628906 18.695312 C 228.5625 18.515625 228.5625 18.488281 228.5625 18.433594 C 228.5625 18.054688 229.105469 18.054688 229.367188 18.054688 L 229.367188 17.652344 C 229.019531 17.679688 228.324219 17.679688 227.945312 17.679688 L 226.648438 17.652344 L 226.648438 18.054688 C 227.359375 18.054688 227.5 18.109375 227.652344 18.558594 L 229.410156 23.550781 C 229.46875 23.703125 229.507812 23.800781 229.660156 23.800781 C 229.785156 23.800781 229.855469 23.757812 229.925781 23.539062 L 231.320312 19.5625 L 232.714844 23.539062 C 232.785156 23.757812 232.855469 23.800781 232.980469 23.800781 C 233.132812 23.800781 233.175781 23.703125 233.230469 23.550781 L 234.835938 18.976562 C 235.144531 18.097656 235.757812 18.070312 235.992188 18.054688 Z M 235.992188 18.054688 "/>
<path style=" stroke:none;fill-rule:evenodd;fill:rgb(0%,0%,0%);fill-opacity:1;" d="M 239.660156 23.664062 L 239.660156 23.257812 C 238.753906 23.257812 238.695312 23.1875 238.695312 22.644531 L 238.695312 17.511719 L 236.800781 17.664062 L 236.800781 18.070312 C 237.691406 18.070312 237.816406 18.152344 237.816406 18.835938 L 237.816406 22.628906 C 237.816406 23.257812 237.664062 23.257812 236.757812 23.257812 L 236.757812 23.664062 C 237.148438 23.632812 237.816406 23.632812 238.222656 23.632812 C 238.375 23.632812 239.1875 23.632812 239.660156 23.664062 Z M 238.878906 15.238281 C 238.878906 14.820312 238.542969 14.554688 238.207031 14.554688 C 237.816406 14.554688 237.527344 14.859375 237.527344 15.238281 C 237.527344 15.601562 237.832031 15.90625 238.195312 15.90625 C 238.613281 15.90625 238.878906 15.574219 238.878906 15.238281 Z M 238.878906 15.238281 "/>
<path style=" stroke:none;fill-rule:evenodd;fill:rgb(0%,0%,0%);fill-opacity:1;" d="M 244.644531 21.933594 L 244.644531 21.136719 L 244.339844 21.136719 L 244.339844 21.90625 C 244.339844 22.910156 243.933594 23.496094 243.390625 23.496094 C 242.441406 23.496094 242.441406 22.199219 242.441406 21.960938 L 242.441406 18.054688 L 244.40625 18.054688 L 244.40625 17.652344 L 242.441406 17.652344 L 242.441406 15.085938 L 242.132812 15.085938 C 242.121094 16.394531 241.617188 17.734375 240.351562 17.777344 L 240.351562 18.054688 L 241.535156 18.054688 L 241.535156 21.933594 C 241.535156 23.480469 242.566406 23.800781 243.304688 23.800781 C 244.183594 23.800781 244.644531 22.9375 244.644531 21.933594 Z M 244.644531 21.933594 "/>
<path style=" stroke:none;fill-rule:evenodd;fill:rgb(0%,0%,0%);fill-opacity:1;" d="M 252.664062 23.664062 L 252.664062 23.257812 C 251.964844 23.257812 251.617188 23.257812 251.605469 22.839844 L 251.605469 20.273438 C 251.605469 18.976562 251.605469 18.585938 251.285156 18.140625 C 250.878906 17.59375 250.222656 17.511719 249.75 17.511719 C 248.550781 17.511719 247.992188 18.417969 247.796875 18.851562 L 247.78125 18.851562 L 247.78125 13.984375 L 245.84375 14.136719 L 245.84375 14.539062 C 246.792969 14.539062 246.902344 14.640625 246.902344 15.320312 L 246.902344 22.628906 C 246.902344 23.257812 246.75 23.257812 245.84375 23.257812 L 245.84375 23.664062 C 246.207031 23.632812 246.960938 23.632812 247.351562 23.632812 C 247.753906 23.632812 248.507812 23.632812 248.871094 23.664062 L 248.871094 23.257812 C 247.976562 23.257812 247.8125 23.257812 247.8125 22.628906 L 247.8125 20.035156 C 247.8125 18.570312 248.773438 17.789062 249.636719 17.789062 C 250.503906 17.789062 250.699219 18.5 250.699219 19.351562 L 250.699219 22.628906 C 250.699219 23.257812 250.542969 23.257812 249.636719 23.257812 L 249.636719 23.664062 C 250 23.632812 250.753906 23.632812 251.144531 23.632812 C 251.550781 23.632812 252.300781 23.632812 252.664062 23.664062 Z M 252.664062 23.664062 "/>
<path style=" stroke:none;fill-rule:evenodd;fill:rgb(0%,0%,0%);fill-opacity:1;" d="M 273.960938 21.667969 C 273.960938 21.597656 273.90625 21.542969 273.824219 21.542969 C 273.699219 21.542969 273.683594 21.613281 273.628906 21.820312 C 273.375 22.785156 273.125 23.523438 272.566406 23.523438 C 272.148438 23.523438 272.148438 23.0625 272.148438 22.882812 C 272.148438 22.5625 272.1875 22.421875 272.332031 21.835938 L 272.609375 20.691406 L 273.179688 18.417969 C 273.277344 18.070312 273.277344 18.042969 273.277344 18 C 273.277344 17.789062 273.113281 17.652344 272.902344 17.652344 C 272.496094 17.652344 272.398438 18 272.316406 18.347656 L 271.324219 22.378906 C 271.324219 22.378906 270.765625 23.523438 269.75 23.523438 C 269.023438 23.523438 268.886719 22.894531 268.886719 22.378906 C 268.886719 21.585938 269.277344 20.46875 269.636719 19.535156 C 269.804688 19.085938 269.875 18.90625 269.875 18.628906 C 269.875 18.027344 269.441406 17.511719 268.773438 17.511719 C 267.488281 17.511719 266.972656 19.535156 266.972656 19.644531 C 266.972656 19.703125 267.03125 19.773438 267.128906 19.773438 C 267.253906 19.773438 267.265625 19.714844 267.324219 19.519531 C 267.65625 18.320312 268.203125 17.789062 268.730469 17.789062 C 268.871094 17.789062 269.09375 17.804688 269.09375 18.25 C 269.09375 18.613281 268.941406 19.019531 268.730469 19.546875 C 268.117188 21.207031 268.046875 21.738281 268.046875 22.15625 C 268.046875 23.578125 269.121094 23.800781 269.695312 23.800781 C 270.585938 23.800781 271.074219 23.1875 271.351562 22.851562 C 271.535156 23.632812 272.203125 23.800781 272.539062 23.800781 C 272.984375 23.800781 273.320312 23.507812 273.542969 23.035156 C 273.78125 22.53125 273.960938 21.710938 273.960938 21.667969 Z M 273.960938 21.667969 "/>
<path style=" stroke:none;fill-rule:evenodd;fill:rgb(0%,0%,0%);fill-opacity:1;" d="M 278.636719 16.4375 C 278.636719 16.359375 278.59375 16.265625 278.457031 16.195312 L 277.042969 15.53125 L 278.429688 14.867188 C 278.515625 14.828125 278.636719 14.769531 278.636719 14.613281 C 278.636719 14.457031 278.496094 14.339844 278.371094 14.339844 C 278.332031 14.339844 278.285156 14.351562 278.175781 14.429688 L 276.945312 15.335938 L 277.082031 13.773438 C 277.09375 13.648438 277.082031 13.421875 276.839844 13.421875 C 276.679688 13.421875 276.554688 13.550781 276.585938 13.675781 L 276.585938 13.785156 L 276.71875 15.335938 L 275.492188 14.4375 C 275.363281 14.351562 275.363281 14.339844 275.296875 14.339844 C 275.167969 14.339844 275.03125 14.457031 275.03125 14.613281 C 275.03125 14.769531 275.148438 14.828125 275.238281 14.867188 L 276.613281 15.523438 L 275.238281 16.1875 C 275.148438 16.226562 275.03125 16.28125 275.03125 16.4375 C 275.03125 16.59375 275.167969 16.710938 275.296875 16.710938 C 275.335938 16.710938 275.382812 16.703125 275.492188 16.625 L 276.71875 15.71875 L 276.585938 17.320312 L 276.585938 17.367188 C 276.554688 17.515625 276.691406 17.632812 276.828125 17.632812 C 277.09375 17.632812 277.09375 17.40625 277.082031 17.269531 L 276.945312 15.726562 L 278.011719 16.5 C 278.128906 16.585938 278.300781 16.710938 278.371094 16.710938 C 278.496094 16.710938 278.636719 16.59375 278.636719 16.4375 Z M 278.636719 16.4375 "/>
<path style=" stroke:none;fill-rule:evenodd;fill:rgb(0%,0%,0%);fill-opacity:1;" d="M 293.457031 18.890625 C 293.457031 18.628906 293.21875 18.628906 293.011719 18.628906 L 284.796875 18.628906 C 284.601562 18.628906 284.351562 18.628906 284.351562 18.878906 C 284.351562 19.144531 284.589844 19.144531 284.796875 19.144531 L 293.011719 19.144531 C 293.207031 19.144531 293.457031 19.144531 293.457031 18.890625 Z M 293.457031 21.484375 C 293.457031 21.222656 293.21875 21.222656 293.011719 21.222656 L 284.796875 21.222656 C 284.601562 21.222656 284.351562 21.222656 284.351562 21.472656 C 284.351562 21.738281 284.589844 21.738281 284.796875 21.738281 L 293.011719 21.738281 C 293.207031 21.738281 293.457031 21.738281 293.457031 21.484375 Z M 293.457031 21.484375 "/>
<path style=" stroke:none;fill-rule:evenodd;fill:rgb(0%,0%,0%);fill-opacity:1;" d="M 309.15625 23.664062 L 309.15625 23.257812 C 308.460938 23.257812 308.109375 23.257812 308.097656 22.839844 L 308.097656 20.273438 C 308.097656 18.976562 308.097656 18.585938 307.777344 18.140625 C 307.371094 17.59375 306.71875 17.511719 306.242188 17.511719 C 305.085938 17.511719 304.5 18.347656 304.273438 18.890625 C 304.082031 17.820312 303.328125 17.511719 302.449219 17.511719 C 301.09375 17.511719 300.566406 18.667969 300.457031 18.949219 L 300.441406 18.949219 L 300.441406 17.511719 L 298.542969 17.664062 L 298.542969 18.070312 C 299.492188 18.070312 299.601562 18.167969 299.601562 18.851562 L 299.601562 22.628906 C 299.601562 23.257812 299.449219 23.257812 298.542969 23.257812 L 298.542969 23.664062 C 298.90625 23.632812 299.660156 23.632812 300.050781 23.632812 C 300.457031 23.632812 301.207031 23.632812 301.570312 23.664062 L 301.570312 23.257812 C 300.675781 23.257812 300.511719 23.257812 300.511719 22.628906 L 300.511719 20.035156 C 300.511719 18.570312 301.472656 17.789062 302.339844 17.789062 C 303.203125 17.789062 303.398438 18.5 303.398438 19.351562 L 303.398438 22.628906 C 303.398438 23.257812 303.242188 23.257812 302.339844 23.257812 L 302.339844 23.664062 C 302.699219 23.632812 303.453125 23.632812 303.84375 23.632812 C 304.25 23.632812 305.003906 23.632812 305.363281 23.664062 L 305.363281 23.257812 C 304.46875 23.257812 304.304688 23.257812 304.304688 22.628906 L 304.304688 20.035156 C 304.304688 18.570312 305.265625 17.789062 306.132812 17.789062 C 306.996094 17.789062 307.191406 18.5 307.191406 19.351562 L 307.191406 22.628906 C 307.191406 23.257812 307.039062 23.257812 306.132812 23.257812 L 306.132812 23.664062 C 306.492188 23.632812 307.246094 23.632812 307.636719 23.632812 C 308.042969 23.632812 308.796875 23.632812 309.15625 23.664062 Z M 309.15625 23.664062 "/>
<path style=" stroke:none;fill-rule:evenodd;fill:rgb(0%,0%,0%);fill-opacity:1;" d="M 316.109375 22.421875 L 316.109375 21.640625 L 315.800781 21.640625 L 315.800781 22.421875 C 315.800781 23.214844 315.464844 23.328125 315.273438 23.328125 C 314.742188 23.328125 314.742188 22.589844 314.742188 22.378906 L 314.742188 19.9375 C 314.742188 19.1875 314.742188 18.628906 314.128906 18.082031 C 313.640625 17.636719 313.011719 17.441406 312.398438 17.441406 C 311.253906 17.441406 310.375 18.195312 310.375 19.101562 C 310.375 19.507812 310.640625 19.703125 310.960938 19.703125 C 311.296875 19.703125 311.53125 19.464844 311.53125 19.128906 C 311.53125 18.558594 311.03125 18.558594 310.820312 18.558594 C 311.140625 17.972656 311.8125 17.71875 312.371094 17.71875 C 313.011719 17.71875 313.835938 18.25 313.835938 19.507812 L 313.835938 20.0625 C 311.03125 20.105469 309.96875 21.277344 309.96875 22.351562 C 309.96875 23.453125 311.253906 23.800781 312.105469 23.800781 C 313.023438 23.800781 313.652344 23.242188 313.917969 22.574219 C 313.972656 23.230469 314.40625 23.734375 315.007812 23.734375 C 315.300781 23.734375 316.109375 23.539062 316.109375 22.421875 Z M 313.835938 21.695312 C 313.835938 23.0625 312.816406 23.523438 312.21875 23.523438 C 311.53125 23.523438 310.960938 23.019531 310.960938 22.351562 C 310.960938 20.511719 313.332031 20.34375 313.835938 20.316406 Z M 313.835938 21.695312 "/>
<path style=" stroke:none;fill-rule:evenodd;fill:rgb(0%,0%,0%);fill-opacity:1;" d="M 323.453125 23.664062 L 323.453125 23.257812 C 322.714844 23.257812 322.464844 23.230469 322.128906 22.785156 L 320.300781 20.371094 C 320.707031 19.839844 321.292969 19.085938 321.558594 18.796875 C 322.128906 18.152344 322.785156 18.054688 323.230469 18.054688 L 323.230469 17.652344 C 322.632812 17.679688 322.601562 17.679688 322.058594 17.679688 L 320.804688 17.652344 L 320.804688 18.054688 C 320.984375 18.082031 321.210938 18.167969 321.210938 18.488281 C 321.210938 18.726562 321.082031 18.878906 321 18.992188 L 320.105469 20.121094 L 319.019531 18.683594 C 318.976562 18.628906 318.894531 18.5 318.894531 18.40625 C 318.894531 18.320312 318.964844 18.070312 319.382812 18.054688 L 319.382812 17.652344 C 319.03125 17.679688 318.320312 17.679688 317.945312 17.679688 L 316.605469 17.652344 L 316.605469 18.054688 C 317.316406 18.054688 317.582031 18.082031 317.875 18.460938 L 319.507812 20.59375 C 319.535156 20.621094 319.589844 20.707031 319.589844 20.746094 C 319.589844 20.789062 318.503906 22.15625 318.363281 22.335938 C 317.75 23.089844 317.136719 23.242188 316.535156 23.257812 L 316.535156 23.664062 C 317.066406 23.632812 317.09375 23.632812 317.695312 23.632812 L 318.949219 23.664062 L 318.949219 23.257812 C 318.613281 23.214844 318.558594 23.007812 318.558594 22.8125 C 318.558594 22.589844 318.65625 22.476562 318.796875 22.296875 L 319.800781 21 L 320.945312 22.492188 C 321.179688 22.796875 321.179688 22.824219 321.179688 22.910156 C 321.179688 23.019531 321.070312 23.242188 320.691406 23.257812 L 320.691406 23.664062 C 321.054688 23.632812 321.738281 23.632812 322.128906 23.632812 Z M 323.453125 23.664062 "/>
<path style=" stroke:none;fill-rule:evenodd;fill:rgb(0%,0%,0%);fill-opacity:1;" d="M 328.328125 27.050781 C 328.328125 27.007812 328.328125 26.980469 328.09375 26.746094 C 326.699219 25.335938 325.917969 23.035156 325.917969 20.1875 C 325.917969 17.484375 326.570312 15.15625 328.191406 13.507812 C 328.328125 13.382812 328.328125 13.355469 328.328125 13.3125 C 328.328125 13.230469 328.261719 13.203125 328.203125 13.203125 C 328.023438 13.203125 326.878906 14.207031 326.195312 15.574219 C 325.484375 16.980469 325.164062 18.472656 325.164062 20.1875 C 325.164062 21.429688 325.359375 23.089844 326.085938 24.582031 C 326.90625 26.257812 328.050781 27.164062 328.203125 27.164062 C 328.261719 27.164062 328.328125 27.136719 328.328125 27.050781 Z M 328.328125 27.050781 "/>
<path style=" stroke:none;fill-rule:evenodd;fill:rgb(0%,0%,0%);fill-opacity:1;" d="M 336.460938 21.667969 C 336.460938 21.597656 336.40625 21.542969 336.320312 21.542969 C 336.195312 21.542969 336.183594 21.613281 336.125 21.820312 C 335.875 22.785156 335.625 23.523438 335.066406 23.523438 C 334.648438 23.523438 334.648438 23.0625 334.648438 22.882812 C 334.648438 22.5625 334.6875 22.421875 334.828125 21.835938 L 335.109375 20.691406 L 335.679688 18.417969 C 335.777344 18.070312 335.777344 18.042969 335.777344 18 C 335.777344 17.789062 335.609375 17.652344 335.402344 17.652344 C 334.996094 17.652344 334.898438 18 334.816406 18.347656 L 333.824219 22.378906 C 333.824219 22.378906 333.265625 23.523438 332.25 23.523438 C 331.523438 23.523438 331.386719 22.894531 331.386719 22.378906 C 331.386719 21.585938 331.773438 20.46875 332.136719 19.535156 C 332.304688 19.085938 332.375 18.90625 332.375 18.628906 C 332.375 18.027344 331.941406 17.511719 331.273438 17.511719 C 329.988281 17.511719 329.472656 19.535156 329.472656 19.644531 C 329.472656 19.703125 329.53125 19.773438 329.625 19.773438 C 329.753906 19.773438 329.765625 19.714844 329.820312 19.519531 C 330.15625 18.320312 330.703125 17.789062 331.230469 17.789062 C 331.371094 17.789062 331.59375 17.804688 331.59375 18.25 C 331.59375 18.613281 331.441406 19.019531 331.230469 19.546875 C 330.617188 21.207031 330.546875 21.738281 330.546875 22.15625 C 330.546875 23.578125 331.621094 23.800781 332.195312 23.800781 C 333.085938 23.800781 333.574219 23.1875 333.851562 22.851562 C 334.035156 23.632812 334.703125 23.800781 335.039062 23.800781 C 335.484375 23.800781 335.820312 23.507812 336.042969 23.035156 C 336.28125 22.53125 336.460938 21.710938 336.460938 21.667969 Z M 336.460938 21.667969 "/>
<path style=" stroke:none;fill-rule:evenodd;fill:rgb(0%,0%,0%);fill-opacity:1;" d="M 339.617188 23.71875 C 339.617188 22.910156 339.351562 22.308594 338.78125 22.308594 C 338.332031 22.308594 338.109375 22.671875 338.109375 22.980469 C 338.109375 23.285156 338.320312 23.664062 338.792969 23.664062 C 338.976562 23.664062 339.128906 23.605469 339.253906 23.480469 C 339.28125 23.453125 339.308594 23.453125 339.308594 23.453125 C 339.308594 23.453125 339.335938 23.648438 339.335938 23.71875 C 339.335938 24.179688 339.253906 25.085938 338.445312 25.992188 C 338.292969 26.160156 338.292969 26.214844 338.292969 26.214844 C 338.292969 26.285156 338.359375 26.355469 338.429688 26.355469 C 338.542969 26.355469 339.617188 25.320312 339.617188 23.71875 Z M 339.617188 23.71875 "/>
<path style=" stroke:none;fill-rule:evenodd;fill:rgb(0%,0%,0%);fill-opacity:1;" d="M 350.359375 21.667969 C 350.359375 21.597656 350.304688 21.542969 350.222656 21.542969 C 350.097656 21.542969 350.082031 21.613281 350.027344 21.820312 C 349.773438 22.785156 349.523438 23.523438 348.964844 23.523438 C 348.546875 23.523438 348.546875 23.0625 348.546875 22.882812 C 348.546875 22.5625 348.589844 22.421875 348.730469 21.835938 L 349.007812 20.691406 L 349.578125 18.417969 C 349.675781 18.070312 349.675781 18.042969 349.675781 18 C 349.675781 17.789062 349.511719 17.652344 349.300781 17.652344 C 348.898438 17.652344 348.796875 18 348.714844 18.347656 L 347.726562 22.378906 C 347.726562 22.378906 347.167969 23.523438 346.148438 23.523438 C 345.421875 23.523438 345.285156 22.894531 345.285156 22.378906 C 345.285156 21.585938 345.675781 20.46875 346.039062 19.535156 C 346.203125 19.085938 346.273438 18.90625 346.273438 18.628906 C 346.273438 18.027344 345.839844 17.511719 345.171875 17.511719 C 343.890625 17.511719 343.375 19.535156 343.375 19.644531 C 343.375 19.703125 343.429688 19.773438 343.527344 19.773438 C 343.652344 19.773438 343.664062 19.714844 343.722656 19.519531 C 344.054688 18.320312 344.601562 17.789062 345.128906 17.789062 C 345.269531 17.789062 345.492188 17.804688 345.492188 18.25 C 345.492188 18.613281 345.339844 19.019531 345.128906 19.546875 C 344.515625 21.207031 344.445312 21.738281 344.445312 22.15625 C 344.445312 23.578125 345.523438 23.800781 346.09375 23.800781 C 346.984375 23.800781 347.472656 23.1875 347.753906 22.851562 C 347.933594 23.632812 348.601562 23.800781 348.9375 23.800781 C 349.382812 23.800781 349.71875 23.507812 349.941406 23.035156 C 350.179688 22.53125 350.359375 21.710938 350.359375 21.667969 Z M 350.359375 21.667969 "/>
<path style=" stroke:none;fill-rule:evenodd;fill:rgb(0%,0%,0%);fill-opacity:1;" d="M 358.734375 25.761719 L 358.734375 25.460938 C 358.226562 25.460938 357.984375 25.460938 357.972656 25.167969 L 357.972656 23.300781 C 357.972656 22.460938 357.972656 22.160156 357.667969 21.808594 C 357.53125 21.640625 357.210938 21.445312 356.644531 21.445312 C 355.824219 21.445312 355.394531 22.03125 355.230469 22.40625 C 355.089844 21.554688 354.371094 21.445312 353.929688 21.445312 C 353.21875 21.445312 352.757812 21.867188 352.484375 22.472656 L 352.484375 21.445312 L 351.109375 21.554688 L 351.109375 21.859375 C 351.792969 21.859375 351.871094 21.925781 351.871094 22.40625 L 351.871094 25.019531 C 351.871094 25.460938 351.761719 25.460938 351.109375 25.460938 L 351.109375 25.761719 L 352.210938 25.734375 L 353.304688 25.761719 L 353.304688 25.460938 C 352.652344 25.460938 352.542969 25.460938 352.542969 25.019531 L 352.542969 23.222656 C 352.542969 22.210938 353.238281 21.664062 353.863281 21.664062 C 354.476562 21.664062 354.585938 22.1875 354.585938 22.746094 L 354.585938 25.019531 C 354.585938 25.460938 354.476562 25.460938 353.824219 25.460938 L 353.824219 25.761719 L 354.925781 25.734375 L 356.019531 25.761719 L 356.019531 25.460938 C 355.367188 25.460938 355.257812 25.460938 355.257812 25.019531 L 355.257812 23.222656 C 355.257812 22.210938 355.953125 21.664062 356.578125 21.664062 C 357.191406 21.664062 357.296875 22.1875 357.296875 22.746094 L 357.296875 25.019531 C 357.296875 25.460938 357.191406 25.460938 356.539062 25.460938 L 356.539062 25.761719 L 357.640625 25.734375 Z M 358.734375 25.761719 "/>
<path style=" stroke:none;fill-rule:evenodd;fill:rgb(0%,0%,0%);fill-opacity:1;" d="M 361.308594 25.761719 L 361.308594 25.460938 C 360.664062 25.460938 360.625 25.410156 360.625 25.03125 L 360.625 21.445312 L 359.257812 21.554688 L 359.257812 21.859375 C 359.890625 21.859375 359.980469 21.914062 359.980469 22.394531 L 359.980469 25.019531 C 359.980469 25.460938 359.875 25.460938 359.21875 25.460938 L 359.21875 25.761719 L 360.292969 25.734375 C 360.632812 25.734375 360.976562 25.753906 361.308594 25.761719 Z M 360.773438 19.867188 C 360.773438 19.601562 360.546875 19.347656 360.253906 19.347656 C 359.921875 19.347656 359.726562 19.621094 359.726562 19.867188 C 359.726562 20.128906 359.953125 20.382812 360.242188 20.382812 C 360.578125 20.382812 360.773438 20.109375 360.773438 19.867188 Z M 360.773438 19.867188 "/>
<path style=" stroke:none;fill-rule:evenodd;fill:rgb(0%,0%,0%);fill-opacity:1;" d="M 366.820312 25.761719 L 366.820312 25.460938 C 366.3125 25.460938 366.070312 25.460938 366.058594 25.167969 L 366.058594 23.300781 C 366.058594 22.460938 366.058594 22.160156 365.753906 21.808594 C 365.617188 21.640625 365.296875 21.445312 364.730469 21.445312 C 364.019531 21.445312 363.558594 21.867188 363.285156 22.472656 L 363.285156 21.445312 L 361.910156 21.554688 L 361.910156 21.859375 C 362.589844 21.859375 362.667969 21.925781 362.667969 22.40625 L 362.667969 25.019531 C 362.667969 25.460938 362.5625 25.460938 361.910156 25.460938 L 361.910156 25.761719 L 363.011719 25.734375 L 364.105469 25.761719 L 364.105469 25.460938 C 363.453125 25.460938 363.34375 25.460938 363.34375 25.019531 L 363.34375 23.222656 C 363.34375 22.210938 364.039062 21.664062 364.664062 21.664062 C 365.277344 21.664062 365.382812 22.1875 365.382812 22.746094 L 365.382812 25.019531 C 365.382812 25.460938 365.277344 25.460938 364.625 25.460938 L 364.625 25.761719 L 365.726562 25.734375 Z M 366.820312 25.761719 "/>
<path style=" stroke:none;fill-rule:evenodd;fill:rgb(0%,0%,0%);fill-opacity:1;" d="M 371.429688 20.1875 C 371.429688 19.128906 371.289062 17.398438 370.507812 15.78125 C 369.683594 14.109375 368.542969 13.203125 368.386719 13.203125 C 368.335938 13.203125 368.261719 13.230469 368.261719 13.3125 C 368.261719 13.355469 368.261719 13.382812 368.5 13.621094 C 369.894531 15.03125 370.675781 17.328125 370.675781 20.175781 C 370.675781 22.882812 370.019531 25.210938 368.402344 26.855469 C 368.261719 26.980469 368.261719 27.007812 368.261719 27.050781 C 368.261719 27.136719 368.335938 27.164062 368.386719 27.164062 C 368.570312 27.164062 369.714844 26.160156 370.398438 24.792969 C 371.109375 23.371094 371.429688 21.863281 371.429688 20.1875 Z M 371.429688 20.1875 "/>
</g>
</svg>
