<?xml version="1.0" encoding="UTF-8"?>
<svg xmlns="http://www.w3.org/2000/svg" xmlns:xlink="http://www.w3.org/1999/xlink" width="60pt" height="45pt" viewBox="0 0 60 45" version="1.1">
<g id="surface128">
<path style=" stroke:none;fill-rule:evenodd;fill:rgb(0%,0%,0%);fill-opacity:1;" d="M 7.609375 20.589844 C 7.621094 20.519531 7.648438 20.4375 7.648438 20.351563 C 7.648438 20.144531 7.484375 20.007813 7.273438 20.007813 C 7.148438 20.007813 6.855469 20.0625 6.746094 20.476563 L 5.714844 24.566406 C 5.648438 24.816406 5.648438 24.84375 5.535156 25 C 5.257813 25.386719 4.800781 25.859375 4.132813 25.859375 C 3.351563 25.859375 3.285156 25.09375 3.285156 24.71875 C 3.285156 23.929688 3.660156 22.855469 4.035156 21.855469 C 4.1875 21.453125 4.269531 21.257813 4.269531 20.980469 C 4.269531 20.394531 3.855469 19.867188 3.171875 19.867188 C 1.894531 19.867188 1.378906 21.882813 1.378906 21.996094 C 1.378906 22.050781 1.433594 22.121094 1.53125 22.121094 C 1.65625 22.121094 1.667969 22.0625 1.726563 21.871094 C 2.058594 20.703125 2.589844 20.144531 3.128906 20.144531 C 3.253906 20.144531 3.492188 20.144531 3.492188 20.605469 C 3.492188 20.964844 3.339844 21.367188 3.128906 21.898438 C 2.449219 23.71875 2.449219 24.179688 2.449219 24.511719 C 2.449219 25.832031 3.394531 26.140625 4.089844 26.140625 C 4.492188 26.140625 4.992188 26.015625 5.480469 25.5 L 5.496094 25.511719 C 5.285156 26.335938 5.144531 26.875 4.660156 27.558594 C 4.285156 28.085938 3.742188 28.558594 3.058594 28.558594 C 2.894531 28.558594 2.226563 28.53125 2.019531 27.890625 C 2.058594 27.90625 2.15625 27.90625 2.15625 27.90625 C 2.574219 27.90625 2.851563 27.542969 2.851563 27.222656 C 2.851563 26.90625 2.589844 26.792969 2.378906 26.792969 C 2.15625 26.792969 1.667969 26.960938 1.667969 27.640625 C 1.667969 28.351563 2.269531 28.835938 3.058594 28.835938 C 4.449219 28.835938 5.855469 27.558594 6.246094 26.015625 Z M 7.609375 20.589844 "/>
<path style=" stroke:none;fill-rule:evenodd;fill:rgb(0%,0%,0%);fill-opacity:1;" d="M 21.835938 21.242188 C 21.835938 20.980469 21.597656 20.980469 21.390625 20.980469 L 13.199219 20.980469 C 13.003906 20.980469 12.753906 20.980469 12.753906 21.230469 C 12.753906 21.492188 12.988281 21.492188 13.199219 21.492188 L 21.390625 21.492188 C 21.585938 21.492188 21.835938 21.492188 21.835938 21.242188 Z M 21.835938 23.832031 C 21.835938 23.566406 21.597656 23.566406 21.390625 23.566406 L 13.199219 23.566406 C 13.003906 23.566406 12.753906 23.566406 12.753906 23.816406 C 12.753906 24.082031 12.988281 24.082031 13.199219 24.082031 L 21.390625 24.082031 C 21.585938 24.082031 21.835938 24.082031 21.835938 23.832031 Z M 21.835938 23.832031 "/>
<path style=" stroke:none;fill-rule:evenodd;fill:rgb(0%,0%,0%);fill-opacity:1;" d="M 33.933594 8.5 L 33.933594 8.195313 C 33.425781 8.195313 33.183594 8.195313 33.171875 7.902344 L 33.171875 6.035156 C 33.171875 5.195313 33.171875 4.890625 32.871094 4.539063 C 32.730469 4.371094 32.410156 4.175781 31.839844 4.175781 C 31.128906 4.175781 30.667969 4.597656 30.394531 5.203125 L 30.394531 4.175781 L 29.015625 4.285156 L 29.015625 4.585938 C 29.699219 4.585938 29.777344 4.65625 29.777344 5.136719 L 29.777344 7.757813 C 29.777344 8.195313 29.671875 8.195313 29.015625 8.195313 L 29.015625 8.5 L 30.121094 8.46875 L 31.214844 8.5 L 31.214844 8.195313 C 30.558594 8.195313 30.453125 8.195313 30.453125 7.757813 L 30.453125 5.957031 C 30.453125 4.9375 31.148438 4.390625 31.773438 4.390625 C 32.390625 4.390625 32.496094 4.921875 32.496094 5.476563 L 32.496094 7.757813 C 32.496094 8.195313 32.390625 8.195313 31.734375 8.195313 L 31.734375 8.5 L 32.839844 8.46875 Z M 33.933594 8.5 "/>
<path style=" stroke:none;fill-rule:evenodd;fill:rgb(0%,0%,0%);fill-opacity:1;" d="M 36.519531 8.5 L 36.519531 8.195313 C 35.871094 8.195313 35.832031 8.148438 35.832031 7.765625 L 35.832031 4.175781 L 34.464844 4.285156 L 34.464844 4.585938 C 35.097656 4.585938 35.1875 4.648438 35.1875 5.125 L 35.1875 7.757813 C 35.1875 8.195313 35.082031 8.195313 34.425781 8.195313 L 34.425781 8.5 L 35.5 8.46875 C 35.84375 8.46875 36.183594 8.492188 36.519531 8.5 Z M 35.980469 2.59375 C 35.980469 2.328125 35.753906 2.074219 35.460938 2.074219 C 35.128906 2.074219 34.933594 2.347656 34.933594 2.59375 C 34.933594 2.855469 35.160156 3.109375 35.453125 3.109375 C 35.785156 3.109375 35.980469 2.835938 35.980469 2.59375 Z M 35.980469 2.59375 "/>
<path style=" stroke:none;fill-rule:evenodd;fill:rgb(0%,0%,0%);fill-opacity:1;" d="M 42.035156 8.5 L 42.035156 8.195313 C 41.527344 8.195313 41.28125 8.195313 41.273438 7.902344 L 41.273438 6.035156 C 41.273438 5.195313 41.273438 4.890625 40.96875 4.539063 C 40.832031 4.371094 40.507813 4.175781 39.941406 4.175781 C 39.226563 4.175781 38.769531 4.597656 38.496094 5.203125 L 38.496094 4.175781 L 37.113281 4.285156 L 37.113281 4.585938 C 37.800781 4.585938 37.878906 4.65625 37.878906 5.136719 L 37.878906 7.757813 C 37.878906 8.195313 37.769531 8.195313 37.113281 8.195313 L 37.113281 8.5 L 38.222656 8.46875 L 39.316406 8.5 L 39.316406 8.195313 C 38.660156 8.195313 38.550781 8.195313 38.550781 7.757813 L 38.550781 5.957031 C 38.550781 4.9375 39.246094 4.390625 39.875 4.390625 C 40.488281 4.390625 40.597656 4.921875 40.597656 5.476563 L 40.597656 7.757813 C 40.597656 8.195313 40.488281 8.195313 39.835938 8.195313 L 39.835938 8.5 L 40.941406 8.46875 Z M 42.035156 8.5 "/>
<path style=" stroke:none;fill-rule:evenodd;fill:rgb(0%,0%,0%);fill-opacity:1;" d="M 43.484375 32.171875 L 43.484375 31.417969 C 41.632813 31.417969 41.203125 30.78125 41.203125 29.890625 L 41.203125 14.980469 C 41.203125 14.078125 41.648438 13.453125 43.484375 13.453125 L 43.484375 12.699219 L 27.28125 12.699219 L 27.28125 13.453125 C 29.128906 13.453125 29.5625 14.089844 29.5625 14.980469 L 29.5625 29.890625 C 29.5625 30.792969 29.117188 31.417969 27.28125 31.417969 L 27.28125 32.171875 L 33.972656 32.171875 L 33.972656 31.417969 C 32.121094 31.417969 31.691406 30.78125 31.691406 29.890625 L 31.691406 13.453125 L 39.074219 13.453125 L 39.074219 29.890625 C 39.074219 30.792969 38.628906 31.417969 36.792969 31.417969 L 36.792969 32.171875 Z M 43.484375 32.171875 "/>
<path style=" stroke:none;fill-rule:evenodd;fill:rgb(0%,0%,0%);fill-opacity:1;" d="M 30.28125 36.289063 C 30.28125 36.089844 30.144531 35.933594 29.917969 35.933594 C 29.652344 35.933594 29.390625 36.1875 29.390625 36.453125 C 29.390625 36.640625 29.527344 36.804688 29.761719 36.804688 C 29.988281 36.804688 30.28125 36.578125 30.28125 36.289063 Z M 30.367188 41 C 30.367188 40.902344 30.28125 40.902344 30.25 40.902344 C 30.152344 40.902344 30.152344 40.933594 30.105469 41.078125 C 29.925781 41.695313 29.605469 42.292969 29.105469 42.292969 C 28.941406 42.292969 28.871094 42.195313 28.871094 41.96875 C 28.871094 41.726563 28.929688 41.585938 29.15625 40.992188 L 29.535156 39.964844 C 29.652344 39.679688 29.652344 39.660156 29.753906 39.398438 C 29.832031 39.203125 29.878906 39.0625 29.878906 38.878906 C 29.878906 38.4375 29.566406 38.078125 29.078125 38.078125 C 28.15625 38.078125 27.785156 39.496094 27.785156 39.582031 C 27.785156 39.679688 27.902344 39.679688 27.902344 39.679688 C 28 39.679688 28.011719 39.660156 28.058594 39.503906 C 28.324219 38.585938 28.714844 38.292969 29.046875 38.292969 C 29.125 38.292969 29.292969 38.292969 29.292969 38.605469 C 29.292969 38.8125 29.222656 39.015625 29.183594 39.113281 C 29.105469 39.367188 28.667969 40.503906 28.511719 40.921875 C 28.410156 41.179688 28.285156 41.5 28.285156 41.707031 C 28.285156 42.164063 28.617188 42.507813 29.085938 42.507813 C 30.007813 42.507813 30.367188 41.089844 30.367188 41 Z M 30.367188 41 "/>
<path style=" stroke:none;fill-rule:evenodd;fill:rgb(0%,0%,0%);fill-opacity:1;" d="M 37.953125 39.007813 C 37.953125 38.8125 37.769531 38.8125 37.632813 38.8125 L 31.773438 38.8125 C 31.636719 38.8125 31.449219 38.8125 31.449219 39.007813 C 31.449219 39.203125 31.636719 39.203125 31.78125 39.203125 L 37.621094 39.203125 C 37.769531 39.203125 37.953125 39.203125 37.953125 39.007813 Z M 37.953125 40.902344 C 37.953125 40.707031 37.769531 40.707031 37.621094 40.707031 L 31.78125 40.707031 C 31.636719 40.707031 31.449219 40.707031 31.449219 40.902344 C 31.449219 41.097656 31.636719 41.097656 31.773438 41.097656 L 37.632813 41.097656 C 37.769531 41.097656 37.953125 41.097656 37.953125 40.902344 Z M 37.953125 40.902344 "/>
<path style=" stroke:none;fill-rule:evenodd;fill:rgb(0%,0%,0%);fill-opacity:1;" d="M 42.601563 42.398438 L 42.601563 42.097656 L 42.289063 42.097656 C 41.40625 42.097656 41.378906 41.988281 41.378906 41.625 L 41.378906 36.140625 C 41.378906 35.90625 41.378906 35.886719 41.152344 35.886719 C 40.546875 36.511719 39.683594 36.511719 39.371094 36.511719 L 39.371094 36.816406 C 39.566406 36.816406 40.144531 36.816406 40.652344 36.5625 L 40.652344 41.625 C 40.652344 41.980469 40.625 42.097656 39.746094 42.097656 L 39.433594 42.097656 L 39.433594 42.398438 C 39.773438 42.371094 40.625 42.371094 41.015625 42.371094 C 41.40625 42.371094 42.257813 42.371094 42.601563 42.398438 Z M 42.601563 42.398438 "/>
<path style=" stroke:none;fill-rule:evenodd;fill:rgb(0%,0%,0%);fill-opacity:1;" d="M 54.046875 24.011719 C 54.046875 23.941406 53.988281 23.886719 53.90625 23.886719 C 53.78125 23.886719 53.769531 23.957031 53.710938 24.164063 C 53.460938 25.125 53.210938 25.859375 52.652344 25.859375 C 52.238281 25.859375 52.238281 25.402344 52.238281 25.222656 C 52.238281 24.902344 52.277344 24.761719 52.417969 24.179688 L 52.695313 23.039063 L 53.265625 20.769531 C 53.363281 20.421875 53.363281 20.394531 53.363281 20.351563 C 53.363281 20.144531 53.199219 20.007813 52.988281 20.007813 C 52.585938 20.007813 52.488281 20.351563 52.402344 20.703125 L 51.417969 24.71875 C 51.417969 24.71875 50.859375 25.859375 49.847656 25.859375 C 49.121094 25.859375 48.984375 25.234375 48.984375 24.71875 C 48.984375 23.929688 49.371094 22.816406 49.734375 21.882813 C 49.902344 21.4375 49.972656 21.257813 49.972656 20.980469 C 49.972656 20.382813 49.539063 19.867188 48.871094 19.867188 C 47.59375 19.867188 47.078125 21.882813 47.078125 21.996094 C 47.078125 22.050781 47.132813 22.121094 47.230469 22.121094 C 47.355469 22.121094 47.371094 22.0625 47.425781 21.871094 C 47.757813 20.671875 48.300781 20.144531 48.832031 20.144531 C 48.96875 20.144531 49.191406 20.160156 49.191406 20.605469 C 49.191406 20.964844 49.039063 21.367188 48.832031 21.898438 C 48.21875 23.550781 48.148438 24.082031 48.148438 24.5 C 48.148438 25.917969 49.21875 26.140625 49.789063 26.140625 C 50.679688 26.140625 51.167969 25.527344 51.445313 25.195313 C 51.625 25.972656 52.292969 26.140625 52.628906 26.140625 C 53.070313 26.140625 53.40625 25.847656 53.628906 25.375 C 53.863281 24.875 54.046875 24.054688 54.046875 24.011719 Z M 54.046875 24.011719 "/>
<path style=" stroke:none;fill-rule:evenodd;fill:rgb(0%,0%,0%);fill-opacity:1;" d="M 57.179688 21.988281 C 57.179688 21.789063 57.042969 21.632813 56.816406 21.632813 C 56.554688 21.632813 56.289063 21.890625 56.289063 22.152344 C 56.289063 22.339844 56.425781 22.503906 56.660156 22.503906 C 56.886719 22.503906 57.179688 22.28125 57.179688 21.988281 Z M 57.269531 26.703125 C 57.269531 26.601563 57.179688 26.601563 57.152344 26.601563 C 57.050781 26.601563 57.050781 26.632813 57.003906 26.78125 C 56.828125 27.394531 56.503906 27.992188 56.007813 27.992188 C 55.839844 27.992188 55.769531 27.894531 55.769531 27.671875 C 55.769531 27.425781 55.832031 27.289063 56.054688 26.691406 L 56.4375 25.664063 C 56.554688 25.382813 56.554688 25.359375 56.652344 25.097656 C 56.730469 24.902344 56.777344 24.765625 56.777344 24.578125 C 56.777344 24.140625 56.464844 23.777344 55.976563 23.777344 C 55.058594 23.777344 54.6875 25.195313 54.6875 25.28125 C 54.6875 25.382813 54.804688 25.382813 54.804688 25.382813 C 54.902344 25.382813 54.910156 25.359375 54.960938 25.203125 C 55.222656 24.285156 55.613281 23.992188 55.949219 23.992188 C 56.027344 23.992188 56.191406 23.992188 56.191406 24.304688 C 56.191406 24.511719 56.125 24.714844 56.085938 24.8125 C 56.007813 25.066406 55.566406 26.203125 55.410156 26.625 C 55.3125 26.878906 55.183594 27.199219 55.183594 27.40625 C 55.183594 27.867188 55.519531 28.207031 55.988281 28.207031 C 56.90625 28.207031 57.269531 26.789063 57.269531 26.703125 Z M 57.269531 26.703125 "/>
</g>
</svg>
