<?xml version="1.0" encoding="UTF-8"?>
<svg xmlns="http://www.w3.org/2000/svg" xmlns:xlink="http://www.w3.org/1999/xlink" width="87pt" height="19pt" viewBox="0 0 87 19" version="1.1">
<g id="surface88">
<path style=" stroke:none;fill-rule:evenodd;fill:rgb(0%,0%,0%);fill-opacity:1;" d="M 7.609375 7.589844 C 7.621094 7.519531 7.648438 7.4375 7.648438 7.351563 C 7.648438 7.144531 7.484375 7.007813 7.273438 7.007813 C 7.148438 7.007813 6.855469 7.0625 6.746094 7.476563 L 5.714844 11.566406 C 5.648438 11.816406 5.648438 11.84375 5.535156 12 C 5.257813 12.386719 4.796875 12.859375 4.132813 12.859375 C 3.351563 12.859375 3.28125 12.09375 3.28125 11.71875 C 3.28125 10.929688 3.65625 9.855469 4.03125 8.855469 C 4.1875 8.453125 4.269531 8.257813 4.269531 7.980469 C 4.269531 7.394531 3.851563 6.867188 3.171875 6.867188 C 1.890625 6.867188 1.375 8.882813 1.375 8.996094 C 1.375 9.050781 1.433594 9.121094 1.53125 9.121094 C 1.65625 9.121094 1.667969 9.0625 1.726563 8.871094 C 2.058594 7.703125 2.585938 7.144531 3.128906 7.144531 C 3.253906 7.144531 3.492188 7.144531 3.492188 7.605469 C 3.492188 7.964844 3.335938 8.367188 3.128906 8.898438 C 2.449219 10.71875 2.449219 11.179688 2.449219 11.511719 C 2.449219 12.832031 3.394531 13.140625 4.089844 13.140625 C 4.492188 13.140625 4.992188 13.015625 5.480469 12.5 L 5.492188 12.511719 C 5.285156 13.335938 5.144531 13.875 4.660156 14.558594 C 4.285156 15.085938 3.742188 15.558594 3.058594 15.558594 C 2.890625 15.558594 2.226563 15.53125 2.015625 14.890625 C 2.058594 14.90625 2.15625 14.90625 2.15625 14.90625 C 2.574219 14.90625 2.851563 14.542969 2.851563 14.222656 C 2.851563 13.90625 2.585938 13.792969 2.378906 13.792969 C 2.15625 13.792969 1.667969 13.960938 1.667969 14.640625 C 1.667969 15.351563 2.265625 15.835938 3.058594 15.835938 C 4.449219 15.835938 5.855469 14.558594 6.246094 13.015625 Z M 7.609375 7.589844 "/>
<path style=" stroke:none;fill-rule:evenodd;fill:rgb(0%,0%,0%);fill-opacity:1;" d="M 10.480469 8.988281 C 10.480469 8.789063 10.34375 8.632813 10.117188 8.632813 C 9.851563 8.632813 9.589844 8.890625 9.589844 9.152344 C 9.589844 9.339844 9.726563 9.503906 9.960938 9.503906 C 10.1875 9.503906 10.480469 9.28125 10.480469 8.988281 Z M 10.566406 13.703125 C 10.566406 13.601563 10.480469 13.601563 10.449219 13.601563 C 10.351563 13.601563 10.351563 13.632813 10.304688 13.78125 C 10.125 14.394531 9.804688 14.992188 9.304688 14.992188 C 9.140625 14.992188 9.070313 14.894531 9.070313 14.671875 C 9.070313 14.425781 9.128906 14.289063 9.355469 13.691406 L 9.734375 12.664063 C 9.851563 12.382813 9.851563 12.359375 9.953125 12.097656 C 10.03125 11.902344 10.078125 11.765625 10.078125 11.578125 C 10.078125 11.140625 9.765625 10.777344 9.277344 10.777344 C 8.355469 10.777344 7.984375 12.195313 7.984375 12.28125 C 7.984375 12.382813 8.101563 12.382813 8.101563 12.382813 C 8.199219 12.382813 8.210938 12.359375 8.257813 12.203125 C 8.523438 11.285156 8.914063 10.992188 9.246094 10.992188 C 9.324219 10.992188 9.492188 10.992188 9.492188 11.304688 C 9.492188 11.511719 9.421875 11.714844 9.382813 11.8125 C 9.304688 12.066406 8.867188 13.203125 8.710938 13.625 C 8.609375 13.878906 8.484375 14.199219 8.484375 14.40625 C 8.484375 14.867188 8.816406 15.207031 9.285156 15.207031 C 10.207031 15.207031 10.566406 13.789063 10.566406 13.703125 Z M 10.566406 13.703125 "/>
<path style=" stroke:none;fill-rule:evenodd;fill:rgb(0%,0%,0%);fill-opacity:1;" d="M 25.234375 8.242188 C 25.234375 7.980469 24.996094 7.980469 24.789063 7.980469 L 16.597656 7.980469 C 16.402344 7.980469 16.152344 7.980469 16.152344 8.230469 C 16.152344 8.492188 16.390625 8.492188 16.597656 8.492188 L 24.789063 8.492188 C 24.984375 8.492188 25.234375 8.492188 25.234375 8.242188 Z M 25.234375 10.832031 C 25.234375 10.566406 24.996094 10.566406 24.789063 10.566406 L 16.597656 10.566406 C 16.402344 10.566406 16.152344 10.566406 16.152344 10.816406 C 16.152344 11.082031 16.390625 11.082031 16.597656 11.082031 L 24.789063 11.082031 C 24.984375 11.082031 25.234375 11.082031 25.234375 10.832031 Z M 25.234375 10.832031 "/>
<path style=" stroke:none;fill-rule:evenodd;fill:rgb(0%,0%,0%);fill-opacity:1;" d="M 37.246094 11.011719 C 37.246094 10.941406 37.1875 10.886719 37.105469 10.886719 C 36.980469 10.886719 36.964844 10.957031 36.910156 11.164063 C 36.660156 12.125 36.410156 12.859375 35.851563 12.859375 C 35.433594 12.859375 35.433594 12.402344 35.433594 12.222656 C 35.433594 11.902344 35.476563 11.761719 35.617188 11.179688 L 35.894531 10.039063 L 36.464844 7.769531 C 36.5625 7.421875 36.5625 7.394531 36.5625 7.351563 C 36.5625 7.144531 36.394531 7.007813 36.1875 7.007813 C 35.785156 7.007813 35.6875 7.351563 35.601563 7.703125 L 34.613281 11.71875 C 34.613281 11.71875 34.058594 12.859375 33.046875 12.859375 C 32.320313 12.859375 32.183594 12.234375 32.183594 11.71875 C 32.183594 10.929688 32.570313 9.816406 32.933594 8.882813 C 33.097656 8.4375 33.171875 8.257813 33.171875 7.980469 C 33.171875 7.382813 32.738281 6.867188 32.070313 6.867188 C 30.792969 6.867188 30.277344 8.882813 30.277344 8.996094 C 30.277344 9.050781 30.332031 9.121094 30.429688 9.121094 C 30.554688 9.121094 30.570313 9.0625 30.625 8.871094 C 30.957031 7.671875 31.5 7.144531 32.027344 7.144531 C 32.167969 7.144531 32.390625 7.160156 32.390625 7.605469 C 32.390625 7.964844 32.238281 8.367188 32.027344 8.898438 C 31.417969 10.550781 31.347656 11.082031 31.347656 11.5 C 31.347656 12.917969 32.417969 13.140625 32.988281 13.140625 C 33.878906 13.140625 34.363281 12.527344 34.644531 12.195313 C 34.824219 12.972656 35.492188 13.140625 35.824219 13.140625 C 36.269531 13.140625 36.605469 12.847656 36.828125 12.375 C 37.0625 11.875 37.246094 11.054688 37.246094 11.011719 Z M 37.246094 11.011719 "/>
<path style=" stroke:none;fill-rule:evenodd;fill:rgb(0%,0%,0%);fill-opacity:1;" d="M 41.800781 15.101563 L 41.800781 14.796875 L 41.488281 14.796875 C 40.605469 14.796875 40.574219 14.6875 40.574219 14.328125 L 40.574219 8.839844 C 40.574219 8.605469 40.574219 8.585938 40.351563 8.585938 C 39.746094 9.210938 38.882813 9.210938 38.570313 9.210938 L 38.570313 9.515625 C 38.765625 9.515625 39.34375 9.515625 39.851563 9.261719 L 39.851563 14.328125 C 39.851563 14.679688 39.824219 14.796875 38.941406 14.796875 L 38.628906 14.796875 L 38.628906 15.101563 C 38.972656 15.070313 39.824219 15.070313 40.214844 15.070313 C 40.605469 15.070313 41.457031 15.070313 41.800781 15.101563 Z M 41.800781 15.101563 "/>
<path style=" stroke:none;fill-rule:evenodd;fill:rgb(0%,0%,0%);fill-opacity:1;" d="M 44.488281 15.089844 C 44.488281 14.445313 44.242188 14.0625 43.859375 14.0625 C 43.539063 14.0625 43.339844 14.308594 43.339844 14.582031 C 43.339844 14.84375 43.539063 15.101563 43.859375 15.101563 C 43.976563 15.101563 44.105469 15.0625 44.203125 14.972656 C 44.230469 14.953125 44.25 14.945313 44.25 14.945313 C 44.25 14.945313 44.269531 14.953125 44.269531 15.089844 C 44.269531 15.8125 43.929688 16.402344 43.605469 16.722656 C 43.496094 16.832031 43.496094 16.851563 43.496094 16.878906 C 43.496094 16.949219 43.546875 16.988281 43.597656 16.988281 C 43.703125 16.988281 44.488281 16.234375 44.488281 15.089844 Z M 44.488281 15.089844 "/>
<path style=" stroke:none;fill-rule:evenodd;fill:rgb(0%,0%,0%);fill-opacity:1;" d="M 48.078125 8.988281 C 48.078125 8.789063 47.941406 8.632813 47.714844 8.632813 C 47.453125 8.632813 47.1875 8.890625 47.1875 9.152344 C 47.1875 9.339844 47.324219 9.503906 47.558594 9.503906 C 47.785156 9.503906 48.078125 9.28125 48.078125 8.988281 Z M 48.167969 13.703125 C 48.167969 13.601563 48.078125 13.601563 48.050781 13.601563 C 47.949219 13.601563 47.949219 13.632813 47.902344 13.78125 C 47.726563 14.394531 47.402344 14.992188 46.90625 14.992188 C 46.738281 14.992188 46.667969 14.894531 46.667969 14.671875 C 46.667969 14.425781 46.730469 14.289063 46.953125 13.691406 L 47.335938 12.664063 C 47.453125 12.382813 47.453125 12.359375 47.550781 12.097656 C 47.628906 11.902344 47.675781 11.765625 47.675781 11.578125 C 47.675781 11.140625 47.363281 10.777344 46.875 10.777344 C 45.957031 10.777344 45.585938 12.195313 45.585938 12.28125 C 45.585938 12.382813 45.703125 12.382813 45.703125 12.382813 C 45.800781 12.382813 45.808594 12.359375 45.859375 12.203125 C 46.121094 11.285156 46.511719 10.992188 46.847656 10.992188 C 46.925781 10.992188 47.089844 10.992188 47.089844 11.304688 C 47.089844 11.511719 47.023438 11.714844 46.984375 11.8125 C 46.90625 12.066406 46.464844 13.203125 46.308594 13.625 C 46.210938 13.878906 46.082031 14.199219 46.082031 14.40625 C 46.082031 14.867188 46.417969 15.207031 46.886719 15.207031 C 47.804688 15.207031 48.167969 13.789063 48.167969 13.703125 Z M 48.167969 13.703125 "/>
<path style=" stroke:none;fill-rule:evenodd;fill:rgb(0%,0%,0%);fill-opacity:1;" d="M 62.035156 9.539063 C 62.035156 9.273438 61.796875 9.273438 61.589844 9.273438 L 57.75 9.273438 L 57.75 5.433594 C 57.75 5.238281 57.75 4.988281 57.5 4.988281 C 57.234375 4.988281 57.234375 5.226563 57.234375 5.433594 L 57.234375 9.273438 L 53.394531 9.273438 C 53.203125 9.273438 52.953125 9.273438 52.953125 9.523438 C 52.953125 9.789063 53.1875 9.789063 53.394531 9.789063 L 57.234375 9.789063 L 57.234375 13.625 C 57.234375 13.820313 57.234375 14.070313 57.484375 14.070313 C 57.75 14.070313 57.75 13.835938 57.75 13.625 L 57.75 9.789063 L 61.589844 9.789063 C 61.785156 9.789063 62.035156 9.789063 62.035156 9.539063 Z M 62.035156 9.539063 "/>
<path style=" stroke:none;fill-rule:evenodd;fill:rgb(0%,0%,0%);fill-opacity:1;" d="M 73.246094 11.011719 C 73.246094 10.941406 73.1875 10.886719 73.105469 10.886719 C 72.980469 10.886719 72.964844 10.957031 72.910156 11.164063 C 72.660156 12.125 72.410156 12.859375 71.851563 12.859375 C 71.433594 12.859375 71.433594 12.402344 71.433594 12.222656 C 71.433594 11.902344 71.476563 11.761719 71.617188 11.179688 L 71.894531 10.039063 L 72.464844 7.769531 C 72.5625 7.421875 72.5625 7.394531 72.5625 7.351563 C 72.5625 7.144531 72.394531 7.007813 72.1875 7.007813 C 71.785156 7.007813 71.6875 7.351563 71.601563 7.703125 L 70.613281 11.71875 C 70.613281 11.71875 70.058594 12.859375 69.042969 12.859375 C 68.320313 12.859375 68.183594 12.234375 68.183594 11.71875 C 68.183594 10.929688 68.570313 9.816406 68.933594 8.882813 C 69.097656 8.4375 69.167969 8.257813 69.167969 7.980469 C 69.167969 7.382813 68.738281 6.867188 68.070313 6.867188 C 66.792969 6.867188 66.277344 8.882813 66.277344 8.996094 C 66.277344 9.050781 66.332031 9.121094 66.429688 9.121094 C 66.554688 9.121094 66.566406 9.0625 66.625 8.871094 C 66.957031 7.671875 67.5 7.144531 68.027344 7.144531 C 68.167969 7.144531 68.390625 7.160156 68.390625 7.605469 C 68.390625 7.964844 68.238281 8.367188 68.027344 8.898438 C 67.417969 10.550781 67.347656 11.082031 67.347656 11.5 C 67.347656 12.917969 68.417969 13.140625 68.988281 13.140625 C 69.878906 13.140625 70.363281 12.527344 70.644531 12.195313 C 70.824219 12.972656 71.492188 13.140625 71.824219 13.140625 C 72.269531 13.140625 72.605469 12.847656 72.828125 12.375 C 73.0625 11.875 73.246094 11.054688 73.246094 11.011719 Z M 73.246094 11.011719 "/>
<path style=" stroke:none;fill-rule:evenodd;fill:rgb(0%,0%,0%);fill-opacity:1;" d="M 78.09375 13.398438 L 77.847656 13.398438 C 77.800781 13.691406 77.730469 14.121094 77.632813 14.269531 C 77.566406 14.347656 76.917969 14.347656 76.703125 14.347656 L 74.941406 14.347656 L 75.980469 13.339844 C 77.503906 11.988281 78.09375 11.460938 78.09375 10.484375 C 78.09375 9.367188 77.210938 8.585938 76.019531 8.585938 C 74.914063 8.585938 74.191406 9.484375 74.191406 10.355469 C 74.191406 10.90625 74.679688 10.90625 74.707031 10.90625 C 74.875 10.90625 75.214844 10.785156 75.214844 10.386719 C 75.214844 10.132813 75.042969 9.875 74.699219 9.875 C 74.621094 9.875 74.601563 9.875 74.570313 9.886719 C 74.796875 9.25 75.324219 8.890625 75.890625 8.890625 C 76.78125 8.890625 77.203125 9.679688 77.203125 10.484375 C 77.203125 11.265625 76.714844 12.039063 76.175781 12.644531 L 74.296875 14.738281 C 74.191406 14.84375 74.191406 14.867188 74.191406 15.101563 L 77.816406 15.101563 Z M 78.09375 13.398438 "/>
<path style=" stroke:none;fill-rule:evenodd;fill:rgb(0%,0%,0%);fill-opacity:1;" d="M 80.585938 15.089844 C 80.585938 14.445313 80.339844 14.0625 79.960938 14.0625 C 79.636719 14.0625 79.441406 14.308594 79.441406 14.582031 C 79.441406 14.84375 79.636719 15.101563 79.960938 15.101563 C 80.078125 15.101563 80.207031 15.0625 80.300781 14.972656 C 80.332031 14.953125 80.351563 14.945313 80.351563 14.945313 C 80.351563 14.945313 80.371094 14.953125 80.371094 15.089844 C 80.371094 15.8125 80.027344 16.402344 79.707031 16.722656 C 79.597656 16.832031 79.597656 16.851563 79.597656 16.878906 C 79.597656 16.949219 79.648438 16.988281 79.695313 16.988281 C 79.804688 16.988281 80.585938 16.234375 80.585938 15.089844 Z M 80.585938 15.089844 "/>
<path style=" stroke:none;fill-rule:evenodd;fill:rgb(0%,0%,0%);fill-opacity:1;" d="M 84.078125 8.988281 C 84.078125 8.789063 83.941406 8.632813 83.714844 8.632813 C 83.453125 8.632813 83.1875 8.890625 83.1875 9.152344 C 83.1875 9.339844 83.324219 9.503906 83.558594 9.503906 C 83.785156 9.503906 84.078125 9.28125 84.078125 8.988281 Z M 84.167969 13.703125 C 84.167969 13.601563 84.078125 13.601563 84.050781 13.601563 C 83.949219 13.601563 83.949219 13.632813 83.902344 13.78125 C 83.726563 14.394531 83.402344 14.992188 82.90625 14.992188 C 82.738281 14.992188 82.667969 14.894531 82.667969 14.671875 C 82.667969 14.425781 82.730469 14.289063 82.953125 13.691406 L 83.335938 12.664063 C 83.453125 12.382813 83.453125 12.359375 83.550781 12.097656 C 83.628906 11.902344 83.675781 11.765625 83.675781 11.578125 C 83.675781 11.140625 83.363281 10.777344 82.875 10.777344 C 81.957031 10.777344 81.585938 12.195313 81.585938 12.28125 C 81.585938 12.382813 81.703125 12.382813 81.703125 12.382813 C 81.800781 12.382813 81.808594 12.359375 81.859375 12.203125 C 82.121094 11.285156 82.511719 10.992188 82.847656 10.992188 C 82.925781 10.992188 83.089844 10.992188 83.089844 11.304688 C 83.089844 11.511719 83.023438 11.714844 82.984375 11.8125 C 82.90625 12.066406 82.464844 13.203125 82.308594 13.625 C 82.210938 13.878906 82.082031 14.199219 82.082031 14.40625 C 82.082031 14.867188 82.417969 15.207031 82.886719 15.207031 C 83.804688 15.207031 84.167969 13.789063 84.167969 13.703125 Z M 84.167969 13.703125 "/>
</g>
</svg>
