<?xml version="1.0" encoding="UTF-8"?>
<svg xmlns="http://www.w3.org/2000/svg" xmlns:xlink="http://www.w3.org/1999/xlink" width="99pt" height="45pt" viewBox="0 0 99 45" version="1.1">
<g id="surface68">
<path style=" stroke:none;fill-rule:evenodd;fill:rgb(0%,0%,0%);fill-opacity:1;" d="M 7.609375 20.589844 C 7.621094 20.519531 7.648438 20.4375 7.648438 20.351563 C 7.648438 20.144531 7.484375 20.007813 7.273438 20.007813 C 7.148438 20.007813 6.855469 20.0625 6.746094 20.476563 L 5.714844 24.566406 C 5.648438 24.816406 5.648438 24.84375 5.535156 25 C 5.257813 25.386719 4.800781 25.859375 4.132813 25.859375 C 3.351563 25.859375 3.285156 25.09375 3.285156 24.71875 C 3.285156 23.929688 3.660156 22.855469 4.035156 21.855469 C 4.1875 21.453125 4.269531 21.257813 4.269531 20.980469 C 4.269531 20.394531 3.855469 19.867188 3.171875 19.867188 C 1.894531 19.867188 1.378906 21.882813 1.378906 21.996094 C 1.378906 22.050781 1.433594 22.121094 1.53125 22.121094 C 1.65625 22.121094 1.667969 22.0625 1.726563 21.871094 C 2.058594 20.703125 2.589844 20.144531 3.128906 20.144531 C 3.253906 20.144531 3.492188 20.144531 3.492188 20.605469 C 3.492188 20.964844 3.339844 21.367188 3.128906 21.898438 C 2.449219 23.71875 2.449219 24.179688 2.449219 24.511719 C 2.449219 25.832031 3.394531 26.140625 4.089844 26.140625 C 4.492188 26.140625 4.992188 26.015625 5.480469 25.5 L 5.496094 25.511719 C 5.285156 26.335938 5.144531 26.875 4.660156 27.558594 C 4.285156 28.085938 3.742188 28.558594 3.058594 28.558594 C 2.894531 28.558594 2.226563 28.53125 2.019531 27.890625 C 2.058594 27.90625 2.15625 27.90625 2.15625 27.90625 C 2.574219 27.90625 2.851563 27.542969 2.851563 27.222656 C 2.851563 26.90625 2.589844 26.792969 2.378906 26.792969 C 2.15625 26.792969 1.667969 26.960938 1.667969 27.640625 C 1.667969 28.351563 2.269531 28.835938 3.058594 28.835938 C 4.449219 28.835938 5.855469 27.558594 6.246094 26.015625 Z M 7.609375 20.589844 "/>
<path style=" stroke:none;fill-rule:evenodd;fill:rgb(0%,0%,0%);fill-opacity:1;" d="M 21.835938 21.242188 C 21.835938 20.980469 21.597656 20.980469 21.390625 20.980469 L 13.199219 20.980469 C 13.003906 20.980469 12.753906 20.980469 12.753906 21.230469 C 12.753906 21.492188 12.988281 21.492188 13.199219 21.492188 L 21.390625 21.492188 C 21.585938 21.492188 21.835938 21.492188 21.835938 21.242188 Z M 21.835938 23.832031 C 21.835938 23.566406 21.597656 23.566406 21.390625 23.566406 L 13.199219 23.566406 C 13.003906 23.566406 12.753906 23.566406 12.753906 23.816406 C 12.753906 24.082031 12.988281 24.082031 13.199219 24.082031 L 21.390625 24.082031 C 21.585938 24.082031 21.835938 24.082031 21.835938 23.832031 Z M 21.835938 23.832031 "/>
<path style=" stroke:none;fill-rule:evenodd;fill:rgb(0%,0%,0%);fill-opacity:1;" d="M 35.035156 8.5 L 35.035156 8.195313 C 34.527344 8.195313 34.28125 8.195313 34.273438 7.902344 L 34.273438 6.035156 C 34.273438 5.195313 34.273438 4.890625 33.96875 4.539063 C 33.832031 4.371094 33.507813 4.175781 32.941406 4.175781 C 32.226563 4.175781 31.769531 4.597656 31.496094 5.203125 L 31.496094 4.175781 L 30.113281 4.285156 L 30.113281 4.585938 C 30.800781 4.585938 30.878906 4.65625 30.878906 5.136719 L 30.878906 7.757813 C 30.878906 8.195313 30.769531 8.195313 30.113281 8.195313 L 30.113281 8.5 L 31.222656 8.46875 L 32.316406 8.5 L 32.316406 8.195313 C 31.660156 8.195313 31.550781 8.195313 31.550781 7.757813 L 31.550781 5.957031 C 31.550781 4.9375 32.246094 4.390625 32.875 4.390625 C 33.488281 4.390625 33.597656 4.921875 33.597656 5.476563 L 33.597656 7.757813 C 33.597656 8.195313 33.488281 8.195313 32.835938 8.195313 L 32.835938 8.5 L 33.941406 8.46875 Z M 35.035156 8.5 "/>
<path style=" stroke:none;fill-rule:evenodd;fill:rgb(0%,0%,0%);fill-opacity:1;" d="M 37.617188 8.5 L 37.617188 8.195313 C 36.972656 8.195313 36.933594 8.148438 36.933594 7.765625 L 36.933594 4.175781 L 35.566406 4.285156 L 35.566406 4.585938 C 36.199219 4.585938 36.289063 4.648438 36.289063 5.125 L 36.289063 7.757813 C 36.289063 8.195313 36.179688 8.195313 35.527344 8.195313 L 35.527344 8.5 L 36.601563 8.46875 C 36.941406 8.46875 37.285156 8.492188 37.617188 8.5 Z M 37.082031 2.59375 C 37.082031 2.328125 36.855469 2.074219 36.5625 2.074219 C 36.230469 2.074219 36.035156 2.347656 36.035156 2.59375 C 36.035156 2.855469 36.257813 3.109375 36.550781 3.109375 C 36.886719 3.109375 37.082031 2.835938 37.082031 2.59375 Z M 37.082031 2.59375 "/>
<path style=" stroke:none;fill-rule:evenodd;fill:rgb(0%,0%,0%);fill-opacity:1;" d="M 43.234375 8.5 L 43.234375 8.195313 C 42.726563 8.195313 42.480469 8.195313 42.472656 7.902344 L 42.472656 6.035156 C 42.472656 5.195313 42.472656 4.890625 42.167969 4.539063 C 42.03125 4.371094 41.707031 4.175781 41.140625 4.175781 C 40.425781 4.175781 39.96875 4.597656 39.695313 5.203125 L 39.695313 4.175781 L 38.316406 4.285156 L 38.316406 4.585938 C 39 4.585938 39.078125 4.65625 39.078125 5.136719 L 39.078125 7.757813 C 39.078125 8.195313 38.972656 8.195313 38.316406 8.195313 L 38.316406 8.5 L 39.421875 8.46875 L 40.515625 8.5 L 40.515625 8.195313 C 39.859375 8.195313 39.753906 8.195313 39.753906 7.757813 L 39.753906 5.957031 C 39.753906 4.9375 40.449219 4.390625 41.074219 4.390625 C 41.691406 4.390625 41.796875 4.921875 41.796875 5.476563 L 41.796875 7.757813 C 41.796875 8.195313 41.691406 8.195313 41.035156 8.195313 L 41.035156 8.5 L 42.140625 8.46875 Z M 43.234375 8.5 "/>
<path style=" stroke:none;fill-rule:evenodd;fill:rgb(0%,0%,0%);fill-opacity:1;" d="M 44.109375 32.171875 L 45.792969 27.71875 L 45.445313 27.71875 C 44.902344 29.164063 43.425781 30.113281 41.828125 30.53125 C 41.535156 30.597656 40.171875 30.960938 37.503906 30.960938 L 29.117188 30.960938 L 36.195313 22.65625 C 36.292969 22.546875 36.320313 22.503906 36.320313 22.433594 C 36.320313 22.40625 36.320313 22.367188 36.222656 22.226563 L 29.742188 13.367188 L 37.363281 13.367188 C 39.226563 13.367188 40.492188 13.5625 40.617188 13.589844 C 41.371094 13.703125 42.578125 13.9375 43.675781 14.632813 C 44.027344 14.855469 44.972656 15.480469 45.445313 16.609375 L 45.792969 16.609375 L 44.109375 12.699219 L 27.671875 12.699219 C 27.351563 12.699219 27.335938 12.714844 27.292969 12.796875 C 27.28125 12.839844 27.28125 13.101563 27.28125 13.257813 L 34.636719 23.324219 L 27.433594 31.765625 C 27.292969 31.933594 27.292969 32.003906 27.292969 32.015625 C 27.292969 32.171875 27.417969 32.171875 27.671875 32.171875 Z M 44.109375 32.171875 "/>
<path style=" stroke:none;fill-rule:evenodd;fill:rgb(0%,0%,0%);fill-opacity:1;" d="M 31.480469 36.289063 C 31.480469 36.089844 31.34375 35.933594 31.117188 35.933594 C 30.855469 35.933594 30.589844 36.1875 30.589844 36.453125 C 30.589844 36.640625 30.726563 36.804688 30.960938 36.804688 C 31.1875 36.804688 31.480469 36.578125 31.480469 36.289063 Z M 31.566406 41 C 31.566406 40.902344 31.480469 40.902344 31.449219 40.902344 C 31.351563 40.902344 31.351563 40.933594 31.304688 41.078125 C 31.128906 41.695313 30.804688 42.292969 30.308594 42.292969 C 30.140625 42.292969 30.070313 42.195313 30.070313 41.96875 C 30.070313 41.726563 30.128906 41.585938 30.355469 40.992188 L 30.738281 39.964844 C 30.855469 39.679688 30.855469 39.660156 30.953125 39.398438 C 31.03125 39.203125 31.078125 39.0625 31.078125 38.878906 C 31.078125 38.4375 30.765625 38.078125 30.277344 38.078125 C 29.355469 38.078125 28.988281 39.496094 28.988281 39.582031 C 28.988281 39.679688 29.105469 39.679688 29.105469 39.679688 C 29.199219 39.679688 29.210938 39.660156 29.261719 39.503906 C 29.523438 38.585938 29.914063 38.292969 30.246094 38.292969 C 30.324219 38.292969 30.492188 38.292969 30.492188 38.605469 C 30.492188 38.8125 30.425781 39.015625 30.386719 39.113281 C 30.308594 39.367188 29.867188 40.503906 29.710938 40.921875 C 29.613281 41.179688 29.484375 41.5 29.484375 41.707031 C 29.484375 42.164063 29.816406 42.507813 30.285156 42.507813 C 31.207031 42.507813 31.566406 41.089844 31.566406 41 Z M 31.566406 41 "/>
<path style=" stroke:none;fill-rule:evenodd;fill:rgb(0%,0%,0%);fill-opacity:1;" d="M 39.054688 39.007813 C 39.054688 38.8125 38.867188 38.8125 38.730469 38.8125 L 32.871094 38.8125 C 32.734375 38.8125 32.550781 38.8125 32.550781 39.007813 C 32.550781 39.203125 32.734375 39.203125 32.882813 39.203125 L 38.722656 39.203125 C 38.867188 39.203125 39.054688 39.203125 39.054688 39.007813 Z M 39.054688 40.902344 C 39.054688 40.707031 38.867188 40.707031 38.722656 40.707031 L 32.882813 40.707031 C 32.734375 40.707031 32.550781 40.707031 32.550781 40.902344 C 32.550781 41.097656 32.734375 41.097656 32.871094 41.097656 L 38.730469 41.097656 C 38.867188 41.097656 39.054688 41.097656 39.054688 40.902344 Z M 39.054688 40.902344 "/>
<path style=" stroke:none;fill-rule:evenodd;fill:rgb(0%,0%,0%);fill-opacity:1;" d="M 43.699219 42.398438 L 43.699219 42.097656 L 43.386719 42.097656 C 42.507813 42.097656 42.476563 41.988281 42.476563 41.625 L 42.476563 36.140625 C 42.476563 35.90625 42.476563 35.886719 42.253906 35.886719 C 41.644531 36.511719 40.785156 36.511719 40.472656 36.511719 L 40.472656 36.816406 C 40.667969 36.816406 41.246094 36.816406 41.753906 36.5625 L 41.753906 41.625 C 41.753906 41.980469 41.722656 42.097656 40.84375 42.097656 L 40.53125 42.097656 L 40.53125 42.398438 C 40.875 42.371094 41.722656 42.371094 42.117188 42.371094 C 42.507813 42.371094 43.359375 42.371094 43.699219 42.398438 Z M 43.699219 42.398438 "/>
<path style=" stroke:none;fill-rule:evenodd;fill:rgb(0%,0%,0%);fill-opacity:1;" d="M 56.347656 24.011719 C 56.347656 23.941406 56.289063 23.886719 56.207031 23.886719 C 56.082031 23.886719 56.066406 23.957031 56.011719 24.164063 C 55.761719 25.125 55.511719 25.859375 54.953125 25.859375 C 54.535156 25.859375 54.535156 25.402344 54.535156 25.222656 C 54.535156 24.902344 54.578125 24.761719 54.71875 24.179688 L 54.996094 23.039063 L 55.566406 20.769531 C 55.664063 20.421875 55.664063 20.394531 55.664063 20.351563 C 55.664063 20.144531 55.496094 20.007813 55.289063 20.007813 C 54.886719 20.007813 54.789063 20.351563 54.703125 20.703125 L 53.714844 24.71875 C 53.714844 24.71875 53.160156 25.859375 52.144531 25.859375 C 51.421875 25.859375 51.285156 25.234375 51.285156 24.71875 C 51.285156 23.929688 51.671875 22.816406 52.035156 21.882813 C 52.199219 21.4375 52.269531 21.257813 52.269531 20.980469 C 52.269531 20.382813 51.839844 19.867188 51.171875 19.867188 C 49.894531 19.867188 49.378906 21.882813 49.378906 21.996094 C 49.378906 22.050781 49.433594 22.121094 49.53125 22.121094 C 49.65625 22.121094 49.667969 22.0625 49.726563 21.871094 C 50.058594 20.671875 50.601563 20.144531 51.128906 20.144531 C 51.269531 20.144531 51.492188 20.160156 51.492188 20.605469 C 51.492188 20.964844 51.339844 21.367188 51.128906 21.898438 C 50.519531 23.550781 50.449219 24.082031 50.449219 24.5 C 50.449219 25.917969 51.519531 26.140625 52.089844 26.140625 C 52.980469 26.140625 53.464844 25.527344 53.746094 25.195313 C 53.925781 25.972656 54.59375 26.140625 54.925781 26.140625 C 55.371094 26.140625 55.707031 25.847656 55.929688 25.375 C 56.164063 24.875 56.347656 24.054688 56.347656 24.011719 Z M 56.347656 24.011719 "/>
<path style=" stroke:none;fill-rule:evenodd;fill:rgb(0%,0%,0%);fill-opacity:1;" d="M 60.902344 28.101563 L 60.902344 27.796875 L 60.589844 27.796875 C 59.707031 27.796875 59.675781 27.6875 59.675781 27.328125 L 59.675781 21.839844 C 59.675781 21.605469 59.675781 21.585938 59.453125 21.585938 C 58.847656 22.210938 57.984375 22.210938 57.671875 22.210938 L 57.671875 22.515625 C 57.867188 22.515625 58.445313 22.515625 58.953125 22.261719 L 58.953125 27.328125 C 58.953125 27.679688 58.925781 27.796875 58.042969 27.796875 L 57.730469 27.796875 L 57.730469 28.101563 C 58.074219 28.070313 58.925781 28.070313 59.316406 28.070313 C 59.707031 28.070313 60.558594 28.070313 60.902344 28.101563 Z M 60.902344 28.101563 "/>
<path style=" stroke:none;fill-rule:evenodd;fill:rgb(0%,0%,0%);fill-opacity:1;" d="M 63.6875 28.089844 C 63.6875 27.445313 63.441406 27.0625 63.0625 27.0625 C 62.738281 27.0625 62.542969 27.308594 62.542969 27.582031 C 62.542969 27.84375 62.738281 28.101563 63.0625 28.101563 C 63.179688 28.101563 63.308594 28.0625 63.402344 27.972656 C 63.433594 27.953125 63.453125 27.945313 63.453125 27.945313 C 63.453125 27.945313 63.472656 27.953125 63.472656 28.089844 C 63.472656 28.8125 63.128906 29.402344 62.808594 29.722656 C 62.699219 29.832031 62.699219 29.851563 62.699219 29.878906 C 62.699219 29.949219 62.75 29.988281 62.796875 29.988281 C 62.90625 29.988281 63.6875 29.234375 63.6875 28.089844 Z M 63.6875 28.089844 "/>
<path style=" stroke:none;fill-rule:evenodd;fill:rgb(0%,0%,0%);fill-opacity:1;" d="M 67.179688 21.988281 C 67.179688 21.789063 67.042969 21.632813 66.816406 21.632813 C 66.554688 21.632813 66.289063 21.890625 66.289063 22.152344 C 66.289063 22.339844 66.425781 22.503906 66.660156 22.503906 C 66.886719 22.503906 67.179688 22.28125 67.179688 21.988281 Z M 67.269531 26.703125 C 67.269531 26.601563 67.179688 26.601563 67.152344 26.601563 C 67.050781 26.601563 67.050781 26.632813 67.003906 26.78125 C 66.828125 27.394531 66.503906 27.992188 66.007813 27.992188 C 65.839844 27.992188 65.769531 27.894531 65.769531 27.671875 C 65.769531 27.425781 65.832031 27.289063 66.054688 26.691406 L 66.4375 25.664063 C 66.554688 25.382813 66.554688 25.359375 66.652344 25.097656 C 66.730469 24.902344 66.777344 24.765625 66.777344 24.578125 C 66.777344 24.140625 66.464844 23.777344 65.976563 23.777344 C 65.058594 23.777344 64.6875 25.195313 64.6875 25.28125 C 64.6875 25.382813 64.804688 25.382813 64.804688 25.382813 C 64.902344 25.382813 64.910156 25.359375 64.960938 25.203125 C 65.222656 24.285156 65.613281 23.992188 65.949219 23.992188 C 66.027344 23.992188 66.191406 23.992188 66.191406 24.304688 C 66.191406 24.511719 66.125 24.714844 66.085938 24.8125 C 66.007813 25.066406 65.566406 26.203125 65.410156 26.625 C 65.3125 26.878906 65.183594 27.199219 65.183594 27.40625 C 65.183594 27.867188 65.519531 28.207031 65.988281 28.207031 C 66.90625 28.207031 67.269531 26.789063 67.269531 26.703125 Z M 67.269531 26.703125 "/>
<path style=" stroke:none;fill-rule:evenodd;fill:rgb(0%,0%,0%);fill-opacity:1;" d="M 73.972656 22.523438 C 73.972656 22.121094 73.636719 21.785156 73.234375 21.785156 C 72.832031 21.785156 72.496094 22.121094 72.496094 22.523438 C 72.496094 22.925781 72.832031 23.261719 73.234375 23.261719 C 73.636719 23.261719 73.972656 22.925781 73.972656 22.523438 Z M 73.972656 22.523438 "/>
<path style=" stroke:none;fill-rule:evenodd;fill:rgb(0%,0%,0%);fill-opacity:1;" d="M 85.644531 24.011719 C 85.644531 23.941406 85.589844 23.886719 85.507813 23.886719 C 85.378906 23.886719 85.367188 23.957031 85.3125 24.164063 C 85.0625 25.125 84.808594 25.859375 84.253906 25.859375 C 83.835938 25.859375 83.835938 25.402344 83.835938 25.222656 C 83.835938 24.902344 83.878906 24.761719 84.019531 24.179688 L 84.296875 23.039063 L 84.867188 20.769531 C 84.964844 20.421875 84.964844 20.394531 84.964844 20.351563 C 84.964844 20.144531 84.796875 20.007813 84.589844 20.007813 C 84.183594 20.007813 84.089844 20.351563 84.003906 20.703125 L 83.015625 24.71875 C 83.015625 24.71875 82.460938 25.859375 81.445313 25.859375 C 80.722656 25.859375 80.582031 25.234375 80.582031 24.71875 C 80.582031 23.929688 80.972656 22.816406 81.332031 21.882813 C 81.5 21.4375 81.570313 21.257813 81.570313 20.980469 C 81.570313 20.382813 81.140625 19.867188 80.472656 19.867188 C 79.191406 19.867188 78.675781 21.882813 78.675781 21.996094 C 78.675781 22.050781 78.734375 22.121094 78.832031 22.121094 C 78.957031 22.121094 78.96875 22.0625 79.027344 21.871094 C 79.359375 20.671875 79.902344 20.144531 80.429688 20.144531 C 80.570313 20.144531 80.792969 20.160156 80.792969 20.605469 C 80.792969 20.964844 80.636719 21.367188 80.429688 21.898438 C 79.816406 23.550781 79.75 24.082031 79.75 24.5 C 79.75 25.917969 80.820313 26.140625 81.390625 26.140625 C 82.28125 26.140625 82.765625 25.527344 83.042969 25.195313 C 83.226563 25.972656 83.894531 26.140625 84.226563 26.140625 C 84.671875 26.140625 85.003906 25.847656 85.230469 25.375 C 85.464844 24.875 85.644531 24.054688 85.644531 24.011719 Z M 85.644531 24.011719 "/>
<path style=" stroke:none;fill-rule:evenodd;fill:rgb(0%,0%,0%);fill-opacity:1;" d="M 90.496094 26.398438 L 90.25 26.398438 C 90.199219 26.691406 90.132813 27.121094 90.035156 27.269531 C 89.964844 27.347656 89.320313 27.347656 89.105469 27.347656 L 87.34375 27.347656 L 88.382813 26.339844 C 89.90625 24.988281 90.496094 24.460938 90.496094 23.484375 C 90.496094 22.367188 89.613281 21.585938 88.421875 21.585938 C 87.316406 21.585938 86.589844 22.484375 86.589844 23.355469 C 86.589844 23.90625 87.082031 23.90625 87.109375 23.90625 C 87.277344 23.90625 87.617188 23.785156 87.617188 23.386719 C 87.617188 23.132813 87.441406 22.875 87.097656 22.875 C 87.019531 22.875 87.003906 22.875 86.972656 22.886719 C 87.199219 22.25 87.726563 21.890625 88.292969 21.890625 C 89.183594 21.890625 89.605469 22.679688 89.605469 23.484375 C 89.605469 24.265625 89.113281 25.039063 88.578125 25.644531 L 86.699219 27.738281 C 86.589844 27.84375 86.589844 27.867188 86.589844 28.101563 L 90.21875 28.101563 Z M 90.496094 26.398438 "/>
<path style=" stroke:none;fill-rule:evenodd;fill:rgb(0%,0%,0%);fill-opacity:1;" d="M 92.988281 28.089844 C 92.988281 27.445313 92.742188 27.0625 92.363281 27.0625 C 92.039063 27.0625 91.84375 27.308594 91.84375 27.582031 C 91.84375 27.84375 92.039063 28.101563 92.363281 28.101563 C 92.480469 28.101563 92.605469 28.0625 92.703125 27.972656 C 92.734375 27.953125 92.753906 27.945313 92.753906 27.945313 C 92.753906 27.945313 92.773438 27.953125 92.773438 28.089844 C 92.773438 28.8125 92.429688 29.402344 92.105469 29.722656 C 92 29.832031 92 29.851563 92 29.878906 C 92 29.949219 92.050781 29.988281 92.097656 29.988281 C 92.207031 29.988281 92.988281 29.234375 92.988281 28.089844 Z M 92.988281 28.089844 "/>
<path style=" stroke:none;fill-rule:evenodd;fill:rgb(0%,0%,0%);fill-opacity:1;" d="M 96.480469 21.988281 C 96.480469 21.789063 96.34375 21.632813 96.117188 21.632813 C 95.855469 21.632813 95.589844 21.890625 95.589844 22.152344 C 95.589844 22.339844 95.726563 22.503906 95.960938 22.503906 C 96.1875 22.503906 96.480469 22.28125 96.480469 21.988281 Z M 96.566406 26.703125 C 96.566406 26.601563 96.480469 26.601563 96.449219 26.601563 C 96.351563 26.601563 96.351563 26.632813 96.304688 26.78125 C 96.128906 27.394531 95.804688 27.992188 95.308594 27.992188 C 95.140625 27.992188 95.070313 27.894531 95.070313 27.671875 C 95.070313 27.425781 95.128906 27.289063 95.355469 26.691406 L 95.738281 25.664063 C 95.855469 25.382813 95.855469 25.359375 95.953125 25.097656 C 96.03125 24.902344 96.078125 24.765625 96.078125 24.578125 C 96.078125 24.140625 95.765625 23.777344 95.277344 23.777344 C 94.355469 23.777344 93.988281 25.195313 93.988281 25.28125 C 93.988281 25.382813 94.105469 25.382813 94.105469 25.382813 C 94.199219 25.382813 94.210938 25.359375 94.261719 25.203125 C 94.523438 24.285156 94.914063 23.992188 95.246094 23.992188 C 95.324219 23.992188 95.492188 23.992188 95.492188 24.304688 C 95.492188 24.511719 95.425781 24.714844 95.386719 24.8125 C 95.308594 25.066406 94.867188 26.203125 94.710938 26.625 C 94.613281 26.878906 94.484375 27.199219 94.484375 27.40625 C 94.484375 27.867188 94.816406 28.207031 95.285156 28.207031 C 96.207031 28.207031 96.566406 26.789063 96.566406 26.703125 Z M 96.566406 26.703125 "/>
</g>
</svg>
