<svg width="96" height="96" xmlns="http://www.w3.org/2000/svg" xmlns:xlink="http://www.w3.org/1999/xlink" xml:space="preserve" overflow="hidden"><g transform="translate(-592 -312)"><g><path d="M640 356C635 356 631 352 631 347 631 342 635 338 640 338 645 338 649 342 649 347 649 352 645 356 640 356ZM640 326C633.1 326 626.6 329.4 622.7 335.2 618.8 340.9 618 348.2 620.5 354.7L630 375.7 638.2 392.9C638.5 393.6 639.2 394 640 394 640.8 394 641.5 393.6 641.8 392.9L650 375.7 659.5 354.7C662 348.2 661.2 340.9 657.3 335.2 653.4 329.4 646.9 326 640 326Z" fill="#FF9900" fill-rule="nonzero" fill-opacity="1"/></g></g></svg>