<svg width="97" height="96" xmlns="http://www.w3.org/2000/svg" xmlns:xlink="http://www.w3.org/1999/xlink" xml:space="preserve" overflow="hidden"><g transform="translate(-529 -312)"><g><g><g><g><path d="M554 379.5 602 379.5 602 398.5 554 398.5Z" fill="#FF9900" fill-rule="nonzero" fill-opacity="1"/><path d="M596 350.5 596 360.5 560 360.5 560 326.5 582 326.5 582 340.5 596 340.5 596 350.5ZM588 326.9 594.9 334.5 588 334.5 588 326.9ZM544 364.5C541.8 364.5 540 362.7 540 360.5 540 358.3 541.8 356.5 544 356.5 546.2 356.5 548 358.3 548 360.5 548 362.7 546.2 364.5 544 364.5ZM618 350.5 602 350.5 602 333.3 590.3 320.5 554 320.5 554 350.5 538 350.5C535.8 350.5 534 352.3 534 354.5L534 394.5C534 396.7 535.8 398.5 538 398.5L550 398.5 550 375.5 606 375.5 606 398.5 618 398.5C620.2 398.5 622 396.7 622 394.5L622 354.5C622 352.3 620.2 350.5 618 350.5Z" fill="#FF9900" fill-rule="nonzero" fill-opacity="1"/><path d="M564 344.5 592 344.5 592 348.5 564 348.5Z" fill="#FF9900" fill-rule="nonzero" fill-opacity="1"/><path d="M564 336.5 578 336.5 578 340.5 564 340.5Z" fill="#FF9900" fill-rule="nonzero" fill-opacity="1"/><path d="M564 352.5 592 352.5 592 356.5 564 356.5Z" fill="#FF9900" fill-rule="nonzero" fill-opacity="1"/></g></g></g></g></g></svg>