<svg width="96" height="96" xmlns="http://www.w3.org/2000/svg" xmlns:xlink="http://www.w3.org/1999/xlink" xml:space="preserve" overflow="hidden"><g transform="translate(-592 -312)"><g><path d="M656 342C656 350.837 648.837 358 640 358 631.163 358 624 350.837 624 342 624 333.163 631.163 326 640 326 648.837 326 656 333.163 656 342Z" fill="#FF9900" fill-rule="nonzero" fill-opacity="1"/><path d="M672 394 672 378C672 375.6 670.8 373.2 668.8 371.6 664.4 368 658.8 365.6 653.2 364 649.2 362.8 644.8 362 640 362 635.6 362 631.2 362.8 626.8 364 621.2 365.6 615.6 368.4 611.2 371.6 609.2 373.2 608 375.6 608 378L608 394 672 394Z" fill="#FF9900" fill-rule="nonzero" fill-opacity="1"/></g></g></svg>