<svg width="96" height="96" xmlns="http://www.w3.org/2000/svg" xmlns:xlink="http://www.w3.org/1999/xlink" xml:space="preserve" overflow="hidden"><g transform="translate(-592 -312)"><g><path d="M631.2 341.2C632 340.4 632.5 339.3 632.5 338.1 632.5 336.9 632 335.8 631.2 335L617.4 321.3C616.6 320.5 615.5 320 614.4 320 613.3 320 612.1 320.5 611.3 321.3L609.8 322.8 629.7 342.7 631.2 341.2Z" fill="#FF9900" fill-rule="nonzero" fill-opacity="1"/><path d="M651.3 376.5C650.9 376.9 650.3 377.1 649.8 377.1 649.3 377.1 648.7 376.9 648.3 376.5L623.5 351.8C623.1 351.4 622.9 350.8 622.9 350.3 622.9 349.8 623.1 349.2 623.5 348.8L626.6 345.8 606.7 325.9C605.4 327.2 604.2 328.4 603.4 329.2 601.4 331.1 600.2 333.6 600.1 336.3 599.8 340.8 600.9 345.1 602.4 349.3 604 353 606.1 356.5 608.4 359.8 616.6 372.1 626.9 382.8 638.9 391.3 640.9 392.8 643 394.1 645.2 395.3 650.2 397.8 655.5 399.6 661.2 400 665 400.3 668.8 398.8 671.4 396L674.1 393.3 654.3 373.4 651.3 376.5Z" fill="#FF9900" fill-rule="nonzero" fill-opacity="1"/><path d="M678.7 382.6 664.9 368.8C664.1 368 663 367.5 661.8 367.5 660.6 367.5 659.5 368 658.7 368.8L657.2 370.4 677.1 390.3 678.6 388.8C679.4 388 679.9 386.9 679.9 385.7 679.9 384.5 679.5 383.4 678.7 382.6Z" fill="#FF9900" fill-rule="nonzero" fill-opacity="1"/></g></g></svg>