<svg width="96" height="96" xmlns="http://www.w3.org/2000/svg" xmlns:xlink="http://www.w3.org/1999/xlink" xml:space="preserve" overflow="hidden"><g transform="translate(-544 -312)"><g><path d="M597.5 391.5C604 383.5 611.2 373.4 611.9 362L623.9 362C623 376.9 611.9 389 597.5 391.5ZM560.1 362 572.1 362C572.9 373.4 580 383.5 586.5 391.5 572.1 389 561 376.9 560.1 362ZM586.5 328.5C580 336.5 572.8 346.6 572.1 358L560.1 358C561 343.1 572.1 331 586.5 328.5ZM594 362 607.9 362C607.1 372.3 600.4 381.6 594 389.5L594 362ZM590 362 590 389.5C583.6 381.6 576.9 372.3 576.1 362L590 362ZM594 330.5C600.4 338.4 607.1 347.6 607.9 358L594 358 594 330.5ZM590 358 576.1 358C576.9 347.7 583.6 338.4 590 330.5L590 358ZM623.9 358 611.9 358C611.2 346.6 604 336.5 597.5 328.5 611.9 331 623 343.1 623.9 358ZM592 322C571 322 554 339 554 360 554 381 571 398 592 398 613 398 630 381 630 360 630 339 613 322 592 322Z" fill="#FF9900" fill-rule="nonzero" fill-opacity="1"/></g></g></svg>