<svg width="96" height="96" xmlns="http://www.w3.org/2000/svg" xmlns:xlink="http://www.w3.org/1999/xlink" xml:space="preserve" overflow="hidden"><g transform="translate(-592 -312)"><g><path d="M600 332 600 388 680 388 680 332 600 332ZM641.4 366.9C640.6 367.7 639.4 367.7 638.6 366.9L609 338 671.1 338 641.4 366.9ZM625.5 359.7 606 379.3 606 340.6 625.5 359.7ZM628.4 362.5 635.9 369.8C637.1 370.9 638.6 371.5 640.1 371.5 641.6 371.5 643.1 370.9 644.3 369.8L651.8 362.5 671.2 382 608.9 382 628.4 362.5ZM654.5 359.7 674 340.7 674 379.2 654.5 359.7Z" fill="#FF9900" fill-rule="nonzero" fill-opacity="1"/></g></g></svg>