<svg width="96" height="96" xmlns="http://www.w3.org/2000/svg" xmlns:xlink="http://www.w3.org/1999/xlink" overflow="hidden"><defs><clipPath id="clip0"><rect x="587" y="333" width="96" height="96"/></clipPath></defs><g clip-path="url(#clip0)" transform="translate(-587 -333)"><path d="M636.996 349.629C638.279 347.921 639.633 346.832 639.633 344.999 639.633 342.441 638.002 340.999 635.002 340.999 632.002 340.999 630.37 342.441 630.37 344.999 630.37 346.826 631.717 347.914 632.996 349.613L632.997 353.079C630.512 353.254 628.062 353.762 625.713 354.589 626.047 353.446 626.453 352.556 626.049 351.574 625.429 350.065 624.117 349.611 622.348 350.338 620.579 351.066 619.967 352.312 620.587 353.82 620.989 354.797 621.897 355.147 622.933 355.72L622.939 355.735C620.684 356.819 618.583 358.2 616.693 359.841L614.25 357.399C613.949 355.284 614.137 353.556 612.841 352.259 611.033 350.451 608.859 350.585 606.738 352.706 604.617 354.828 604.482 357.001 606.291 358.81 607.583 360.101 609.304 359.919 611.409 360.216L613.864 362.669C612.202 364.579 610.806 366.705 609.715 368.989L609.678 368.974C609.106 367.939 608.756 367.03 607.779 366.628 606.271 366.008 605.025 366.62 604.297 368.389 603.57 370.158 604.024 371.47 605.533 372.09 606.515 372.494 607.406 372.088 608.549 371.754L608.575 371.765C607.76 374.092 607.259 376.517 607.084 378.976L603.661 378.977C601.953 377.694 600.863 376.339 599.031 376.339 596.473 376.339 595.031 377.97 595.031 380.97 595.031 383.97 596.473 385.602 599.031 385.602 600.857 385.602 601.946 384.256 603.644 382.977L607.081 382.976C607.253 385.451 607.755 387.892 608.575 390.233L608.549 390.243C607.406 389.909 606.515 389.504 605.533 389.908 604.024 390.528 603.57 391.84 604.297 393.608 605.025 395.377 606.271 395.99 607.779 395.369 608.756 394.967 609.106 394.059 609.678 393.023L609.714 393.008C610.802 395.284 612.192 397.403 613.845 399.308L611.432 401.722C609.317 402.023 607.588 401.835 606.291 403.131 604.482 404.94 604.617 407.113 606.738 409.234 608.859 411.356 611.033 411.49 612.841 409.681 614.133 408.389 613.951 406.668 614.247 404.563L616.672 402.137C618.567 403.787 620.675 405.174 622.939 406.263L622.933 406.278C621.897 406.851 620.989 407.2 620.587 408.177 619.967 409.686 620.579 410.932 622.348 411.659 624.117 412.387 625.428 411.932 626.049 410.424 626.453 409.442 626.047 408.551 625.713 407.408 628.066 408.237 630.519 408.745 633.008 408.92L633.008 412.311C631.725 414.019 630.37 415.109 630.37 416.942 630.37 419.5 632.002 420.942 635.002 420.942 638.002 420.942 639.633 419.5 639.633 416.942 639.633 415.115 638.287 414.026 637.008 412.328L637.008 408.919C639.457 408.746 641.873 408.25 644.192 407.442 643.86 408.569 643.467 409.452 643.867 410.424 644.487 411.932 645.798 412.387 647.567 411.659 649.336 410.932 649.949 409.686 649.328 408.177 648.929 407.207 648.031 406.856 647.005 406.29 649.296 405.197 651.427 403.797 653.341 402.131L655.754 404.542C656.054 406.656 655.867 408.385 657.162 409.681 658.971 411.49 661.145 411.356 663.266 409.234 665.387 407.113 665.521 404.94 663.713 403.131 662.421 401.839 660.699 402.021 658.594 401.725L656.168 399.3C657.803 397.415 659.181 395.32 660.263 393.071 660.82 394.087 661.174 394.974 662.136 395.369 663.645 395.99 664.891 395.378 665.618 393.608 666.346 391.84 665.891 390.528 664.383 389.908 663.421 389.512 662.545 389.893 661.435 390.223 662.253 387.881 662.755 385.44 662.926 382.965L666.343 382.964C668.051 384.247 669.141 385.602 670.973 385.602 673.531 385.602 674.973 383.97 674.973 380.97 674.973 377.97 673.531 376.339 670.973 376.339 669.147 376.339 668.058 377.685 666.359 378.964L662.921 378.965C662.746 376.513 662.246 374.095 661.435 371.775 662.545 372.105 663.421 372.486 664.383 372.09 665.891 371.47 666.346 370.158 665.618 368.389 664.891 366.62 663.645 366.008 662.136 366.628 661.174 367.024 660.82 367.911 660.263 368.926 659.173 366.662 657.784 364.554 656.134 362.659L658.573 360.219C660.688 359.918 662.417 360.106 663.713 358.81 665.521 357.001 665.387 354.828 663.266 352.706 661.145 350.585 658.971 350.451 657.162 352.259 655.871 353.551 656.053 355.273 655.756 357.379L653.303 359.833C651.398 358.181 649.28 356.794 647.005 355.707 648.031 355.142 648.929 354.79 649.328 353.82 649.949 352.312 649.336 351.066 647.567 350.338 645.799 349.611 644.487 350.065 643.867 351.574 643.467 352.546 643.86 353.429 644.192 354.555 641.869 353.747 639.45 353.25 636.997 353.078ZM618.445 382.839C617.429 383.855 615.781 383.855 614.765 382.839 613.749 381.822 613.749 380.175 614.765 379.159 615.781 378.143 617.429 378.143 618.445 379.159 619.461 380.175 619.461 381.822 618.445 382.838 618.445 382.839 618.445 382.839 618.445 382.839ZM626.724 394.797C625.2 396.322 622.729 396.322 621.204 394.797 619.68 393.273 619.68 390.802 621.204 389.278 622.728 387.754 625.2 387.754 626.724 389.278 626.724 389.278 626.724 389.278 626.724 389.278 628.248 390.802 628.248 393.273 626.724 394.797ZM626.724 372.72C625.2 374.244 622.728 374.244 621.204 372.72 619.68 371.196 619.68 368.724 621.204 367.2 622.728 365.676 625.2 365.676 626.724 367.2 628.248 368.724 628.248 371.195 626.724 372.72ZM636.843 401.237C635.827 402.253 634.179 402.253 633.163 401.237 632.147 400.221 632.147 398.573 633.163 397.557 634.179 396.541 635.827 396.541 636.843 397.557 637.859 398.573 637.859 400.221 636.843 401.237ZM651.561 379.159C652.577 378.143 654.225 378.143 655.241 379.159 656.257 380.175 656.257 381.823 655.241 382.839 654.225 383.855 652.577 383.855 651.561 382.839 650.545 381.823 650.545 380.175 651.561 379.159ZM643.282 367.2C644.806 365.676 647.278 365.676 648.802 367.2 650.326 368.724 650.326 371.196 648.802 372.72 647.277 374.244 644.806 374.244 643.282 372.72 641.758 371.196 641.758 368.725 643.282 367.201 643.282 367.201 643.282 367.2 643.282 367.2ZM643.282 389.278C644.806 387.754 647.277 387.754 648.802 389.278 650.326 390.802 650.326 393.273 648.802 394.797 647.277 396.321 644.806 396.321 643.282 394.797 641.758 393.273 641.758 390.802 643.282 389.278 643.282 389.278 643.282 389.278 643.282 389.278ZM637.763 383.758C636.238 385.283 633.767 385.283 632.243 383.758 630.719 382.234 630.719 379.763 632.243 378.239 633.767 376.715 636.238 376.715 637.763 378.239 639.287 379.763 639.287 382.234 637.763 383.758 637.763 383.758 637.763 383.758 637.763 383.758ZM636.843 364.44C635.827 365.457 634.179 365.457 633.163 364.44 632.147 363.424 632.147 361.777 633.163 360.761 634.179 359.745 635.827 359.745 636.843 360.761 637.859 361.777 637.859 363.424 636.843 364.44 636.843 364.44 636.843 364.44 636.843 364.44Z" fill="#4C7088"/></g></svg>