<?xml version="1.0" encoding="UTF-8"?>
<svg xmlns="http://www.w3.org/2000/svg" xmlns:xlink="http://www.w3.org/1999/xlink" width="97pt" height="19pt" viewBox="0 0 97 19" version="1.1">
<g id="surface164">
<path style=" stroke:none;fill-rule:evenodd;fill:rgb(0%,0%,0%);fill-opacity:1;" d="M 7.605469 7.589844 C 7.621094 7.519531 7.648438 7.4375 7.648438 7.351563 C 7.648438 7.144531 7.480469 7.007813 7.273438 7.007813 C 7.148438 7.007813 6.855469 7.0625 6.746094 7.476563 L 5.714844 11.566406 C 5.644531 11.816406 5.644531 11.84375 5.535156 12 C 5.257813 12.386719 4.796875 12.859375 4.128906 12.859375 C 3.351563 12.859375 3.28125 12.09375 3.28125 11.71875 C 3.28125 10.929688 3.65625 9.855469 4.03125 8.855469 C 4.183594 8.453125 4.269531 8.257813 4.269531 7.980469 C 4.269531 7.394531 3.851563 6.867188 3.167969 6.867188 C 1.890625 6.867188 1.375 8.882813 1.375 8.996094 C 1.375 9.050781 1.433594 9.121094 1.527344 9.121094 C 1.652344 9.121094 1.667969 9.0625 1.722656 8.871094 C 2.058594 7.703125 2.585938 7.144531 3.128906 7.144531 C 3.253906 7.144531 3.488281 7.144531 3.488281 7.605469 C 3.488281 7.964844 3.335938 8.367188 3.128906 8.898438 C 2.449219 10.71875 2.449219 11.179688 2.449219 11.511719 C 2.449219 12.832031 3.394531 13.140625 4.089844 13.140625 C 4.492188 13.140625 4.992188 13.015625 5.480469 12.5 L 5.492188 12.511719 C 5.285156 13.335938 5.144531 13.875 4.660156 14.558594 C 4.285156 15.085938 3.738281 15.558594 3.058594 15.558594 C 2.890625 15.558594 2.222656 15.53125 2.015625 14.890625 C 2.058594 14.90625 2.15625 14.90625 2.15625 14.90625 C 2.574219 14.90625 2.851563 14.542969 2.851563 14.222656 C 2.851563 13.90625 2.585938 13.792969 2.378906 13.792969 C 2.15625 13.792969 1.667969 13.960938 1.667969 14.640625 C 1.667969 15.351563 2.265625 15.835938 3.058594 15.835938 C 4.449219 15.835938 5.855469 14.558594 6.246094 13.015625 Z M 7.605469 7.589844 "/>
<path style=" stroke:none;fill-rule:evenodd;fill:rgb(0%,0%,0%);fill-opacity:1;" d="M 21.832031 8.242188 C 21.832031 7.980469 21.597656 7.980469 21.386719 7.980469 L 13.195313 7.980469 C 13.003906 7.980469 12.753906 7.980469 12.753906 8.230469 C 12.753906 8.492188 12.988281 8.492188 13.195313 8.492188 L 21.386719 8.492188 C 21.582031 8.492188 21.832031 8.492188 21.832031 8.242188 Z M 21.832031 10.832031 C 21.832031 10.566406 21.597656 10.566406 21.386719 10.566406 L 13.195313 10.566406 C 13.003906 10.566406 12.753906 10.566406 12.753906 10.816406 C 12.753906 11.082031 12.988281 11.082031 13.195313 11.082031 L 21.386719 11.082031 C 21.582031 11.082031 21.832031 11.082031 21.832031 10.832031 Z M 21.832031 10.832031 "/>
<path style=" stroke:none;fill-rule:evenodd;fill:rgb(0%,0%,0%);fill-opacity:1;" d="M 33.105469 7.589844 C 33.121094 7.519531 33.148438 7.4375 33.148438 7.351563 C 33.148438 7.144531 32.980469 7.007813 32.773438 7.007813 C 32.648438 7.007813 32.355469 7.0625 32.242188 7.476563 L 31.214844 11.566406 C 31.144531 11.816406 31.144531 11.84375 31.035156 12 C 30.757813 12.386719 30.296875 12.859375 29.628906 12.859375 C 28.851563 12.859375 28.78125 12.09375 28.78125 11.71875 C 28.78125 10.929688 29.15625 9.855469 29.53125 8.855469 C 29.683594 8.453125 29.769531 8.257813 29.769531 7.980469 C 29.769531 7.394531 29.351563 6.867188 28.667969 6.867188 C 27.390625 6.867188 26.875 8.882813 26.875 8.996094 C 26.875 9.050781 26.933594 9.121094 27.027344 9.121094 C 27.152344 9.121094 27.167969 9.0625 27.222656 8.871094 C 27.558594 7.703125 28.085938 7.144531 28.628906 7.144531 C 28.753906 7.144531 28.988281 7.144531 28.988281 7.605469 C 28.988281 7.964844 28.835938 8.367188 28.628906 8.898438 C 27.945313 10.71875 27.945313 11.179688 27.945313 11.511719 C 27.945313 12.832031 28.890625 13.140625 29.585938 13.140625 C 29.992188 13.140625 30.492188 13.015625 30.976563 12.5 L 30.992188 12.511719 C 30.78125 13.335938 30.644531 13.875 30.15625 14.558594 C 29.78125 15.085938 29.238281 15.558594 28.558594 15.558594 C 28.390625 15.558594 27.722656 15.53125 27.515625 14.890625 C 27.558594 14.90625 27.65625 14.90625 27.65625 14.90625 C 28.070313 14.90625 28.351563 14.542969 28.351563 14.222656 C 28.351563 13.90625 28.085938 13.792969 27.878906 13.792969 C 27.65625 13.792969 27.167969 13.960938 27.167969 14.640625 C 27.167969 15.351563 27.765625 15.835938 28.558594 15.835938 C 29.949219 15.835938 31.351563 14.558594 31.742188 13.015625 Z M 33.105469 7.589844 "/>
<path style=" stroke:none;fill-rule:evenodd;fill:rgb(0%,0%,0%);fill-opacity:1;" d="M 37.699219 11.96875 C 37.699219 11.1875 37.648438 10.40625 37.308594 9.679688 C 36.859375 8.742188 36.054688 8.585938 35.644531 8.585938 C 35.058594 8.585938 34.34375 8.839844 33.945313 9.75 C 33.628906 10.425781 33.582031 11.1875 33.582031 11.96875 C 33.582031 12.703125 33.621094 13.585938 34.023438 14.328125 C 34.441406 15.121094 35.15625 15.316406 35.636719 15.316406 C 36.164063 15.316406 36.90625 15.109375 37.335938 14.179688 C 37.648438 13.507813 37.699219 12.742188 37.699219 11.96875 Z M 36.886719 11.851563 C 36.886719 12.585938 36.886719 13.25 36.78125 13.878906 C 36.632813 14.804688 36.074219 15.101563 35.636719 15.101563 C 35.253906 15.101563 34.675781 14.855469 34.5 13.917969 C 34.394531 13.328125 34.394531 12.429688 34.394531 11.851563 C 34.394531 11.226563 34.394531 10.582031 34.472656 10.054688 C 34.65625 8.890625 35.390625 8.800781 35.636719 8.800781 C 35.957031 8.800781 36.601563 8.976563 36.789063 9.945313 C 36.886719 10.492188 36.886719 11.234375 36.886719 11.851563 Z M 36.886719 11.851563 "/>
<path style=" stroke:none;fill-rule:evenodd;fill:rgb(0%,0%,0%);fill-opacity:1;" d="M 44.371094 9.523438 C 44.371094 9.121094 44.035156 8.785156 43.632813 8.785156 C 43.230469 8.785156 42.894531 9.121094 42.894531 9.523438 C 42.894531 9.925781 43.230469 10.261719 43.632813 10.261719 C 44.035156 10.261719 44.371094 9.925781 44.371094 9.523438 Z M 44.371094 9.523438 "/>
<path style=" stroke:none;fill-rule:evenodd;fill:rgb(0%,0%,0%);fill-opacity:1;" d="M 53.121094 16.378906 C 53.121094 16.335938 53.121094 16.308594 52.882813 16.074219 C 51.492188 14.667969 50.714844 12.375 50.714844 9.539063 C 50.714844 6.839844 51.367188 4.515625 52.980469 2.875 C 53.121094 2.75 53.121094 2.722656 53.121094 2.679688 C 53.121094 2.597656 53.050781 2.570313 52.996094 2.570313 C 52.8125 2.570313 51.671875 3.570313 50.992188 4.933594 C 50.28125 6.339844 49.960938 7.828125 49.960938 9.539063 C 49.960938 10.773438 50.15625 12.429688 50.882813 13.917969 C 51.703125 15.585938 52.84375 16.492188 52.996094 16.492188 C 53.050781 16.492188 53.121094 16.460938 53.121094 16.378906 Z M 53.121094 16.378906 "/>
<path style=" stroke:none;fill-rule:evenodd;fill:rgb(0%,0%,0%);fill-opacity:1;" d="M 59.703125 13 L 59.703125 12.597656 L 59.269531 12.597656 C 58.046875 12.597656 58.003906 12.429688 58.003906 11.929688 L 58.003906 4.085938 C 58.003906 3.765625 58.003906 3.75 57.726563 3.75 C 57.394531 4.125 56.699219 4.640625 55.265625 4.640625 L 55.265625 5.046875 C 55.585938 5.046875 56.28125 5.046875 57.046875 4.683594 L 57.046875 11.929688 C 57.046875 12.429688 57.003906 12.597656 55.78125 12.597656 L 55.347656 12.597656 L 55.347656 13 C 55.726563 12.972656 57.074219 12.972656 57.53125 12.972656 C 57.992188 12.972656 59.328125 12.972656 59.703125 13 Z M 59.703125 13 "/>
<path style=" stroke:none;fill-rule:evenodd;fill:rgb(0%,0%,0%);fill-opacity:1;" d="M 73.550781 9.523438 C 73.550781 9.246094 73.289063 9.246094 73.09375 9.246094 L 65.511719 9.246094 C 65.320313 9.246094 65.054688 9.246094 65.054688 9.523438 C 65.054688 9.800781 65.320313 9.800781 65.511719 9.800781 L 73.09375 9.800781 C 73.289063 9.800781 73.550781 9.800781 73.550781 9.523438 Z M 73.550781 9.523438 "/>
<path style=" stroke:none;fill-rule:evenodd;fill:rgb(0%,0%,0%);fill-opacity:1;" d="M 85.144531 11.011719 C 85.144531 10.941406 85.085938 10.886719 85.003906 10.886719 C 84.878906 10.886719 84.863281 10.957031 84.808594 11.164063 C 84.558594 12.125 84.308594 12.859375 83.75 12.859375 C 83.335938 12.859375 83.335938 12.402344 83.335938 12.222656 C 83.335938 11.902344 83.375 11.761719 83.515625 11.179688 L 83.792969 10.039063 L 84.363281 7.769531 C 84.460938 7.421875 84.460938 7.394531 84.460938 7.351563 C 84.460938 7.144531 84.292969 7.007813 84.085938 7.007813 C 83.683594 7.007813 83.585938 7.351563 83.5 7.703125 L 82.515625 11.71875 C 82.515625 11.71875 81.957031 12.859375 80.945313 12.859375 C 80.21875 12.859375 80.082031 12.234375 80.082031 11.71875 C 80.082031 10.929688 80.46875 9.816406 80.832031 8.882813 C 81 8.4375 81.070313 8.257813 81.070313 7.980469 C 81.070313 7.382813 80.636719 6.867188 79.96875 6.867188 C 78.691406 6.867188 78.175781 8.882813 78.175781 8.996094 C 78.175781 9.050781 78.230469 9.121094 78.328125 9.121094 C 78.453125 9.121094 78.46875 9.0625 78.523438 8.871094 C 78.855469 7.671875 79.398438 7.144531 79.929688 7.144531 C 80.066406 7.144531 80.289063 7.160156 80.289063 7.605469 C 80.289063 7.964844 80.136719 8.367188 79.929688 8.898438 C 79.316406 10.550781 79.246094 11.082031 79.246094 11.5 C 79.246094 12.917969 80.316406 13.140625 80.886719 13.140625 C 81.777344 13.140625 82.265625 12.527344 82.542969 12.195313 C 82.722656 12.972656 83.390625 13.140625 83.726563 13.140625 C 84.167969 13.140625 84.503906 12.847656 84.726563 12.375 C 84.960938 11.875 85.144531 11.054688 85.144531 11.011719 Z M 85.144531 11.011719 "/>
<path style=" stroke:none;fill-rule:evenodd;fill:rgb(0%,0%,0%);fill-opacity:1;" d="M 89.472656 5.683594 C 89.472656 5.332031 89.285156 5.085938 89.167969 4.96875 C 88.90625 4.695313 88.621094 4.648438 88.191406 4.558594 C 87.839844 4.480469 87.449219 4.414063 87.449219 3.972656 C 87.449219 3.6875 87.683594 3.09375 88.542969 3.09375 C 88.789063 3.09375 89.277344 3.160156 89.425781 3.542969 C 89.148438 3.550781 88.953125 3.765625 88.953125 3.984375 C 88.953125 4.117188 89.042969 4.265625 89.257813 4.265625 C 89.472656 4.265625 89.707031 4.101563 89.707031 3.71875 C 89.707031 3.277344 89.285156 2.875 88.542969 2.875 C 87.253906 2.875 86.890625 3.875 86.890625 4.304688 C 86.890625 5.066406 87.613281 5.214844 87.898438 5.273438 C 88.40625 5.371094 88.914063 5.476563 88.914063 6.015625 C 88.914063 6.269531 88.691406 7.09375 87.515625 7.09375 C 87.378906 7.09375 86.625 7.09375 86.402344 6.574219 C 86.773438 6.625 87.019531 6.328125 87.019531 6.054688 C 87.019531 5.832031 86.863281 5.714844 86.65625 5.714844 C 86.402344 5.714844 86.109375 5.917969 86.109375 6.359375 C 86.109375 6.914063 86.664063 7.308594 87.507813 7.308594 C 89.089844 7.308594 89.472656 6.125 89.472656 5.683594 Z M 89.472656 5.683594 "/>
<path style=" stroke:none;fill-rule:evenodd;fill:rgb(0%,0%,0%);fill-opacity:1;" d="M 94.621094 9.539063 C 94.621094 8.480469 94.480469 6.757813 93.703125 5.140625 C 92.882813 3.472656 91.742188 2.570313 91.589844 2.570313 C 91.535156 2.570313 91.464844 2.597656 91.464844 2.679688 C 91.464844 2.722656 91.464844 2.75 91.699219 2.988281 C 93.089844 4.390625 93.871094 6.6875 93.871094 9.523438 C 93.871094 12.222656 93.214844 14.542969 91.605469 16.183594 C 91.464844 16.308594 91.464844 16.335938 91.464844 16.378906 C 91.464844 16.460938 91.535156 16.492188 91.589844 16.492188 C 91.769531 16.492188 92.910156 15.488281 93.589844 14.125 C 94.300781 12.707031 94.621094 11.207031 94.621094 9.539063 Z M 94.621094 9.539063 "/>
</g>
</svg>
