<?xml version="1.0" encoding="UTF-8"?>
<svg xmlns="http://www.w3.org/2000/svg" xmlns:xlink="http://www.w3.org/1999/xlink" width="54pt" height="19pt" viewBox="0 0 54 19" version="1.1">
<g id="surface144">
<path style=" stroke:none;fill-rule:evenodd;fill:rgb(0%,0%,0%);fill-opacity:1;" d="M 7.609375 7.589844 C 7.621094 7.519531 7.648438 7.4375 7.648438 7.351563 C 7.648438 7.144531 7.484375 7.003906 7.273438 7.003906 C 7.148438 7.003906 6.855469 7.058594 6.746094 7.476563 L 5.714844 11.566406 C 5.648438 11.816406 5.648438 11.84375 5.535156 12 C 5.257813 12.386719 4.796875 12.859375 4.132813 12.859375 C 3.351563 12.859375 3.28125 12.09375 3.28125 11.71875 C 3.28125 10.929688 3.65625 9.855469 4.03125 8.855469 C 4.1875 8.453125 4.269531 8.257813 4.269531 7.980469 C 4.269531 7.394531 3.851563 6.867188 3.171875 6.867188 C 1.890625 6.867188 1.375 8.882813 1.375 8.996094 C 1.375 9.050781 1.433594 9.121094 1.53125 9.121094 C 1.65625 9.121094 1.667969 9.0625 1.726563 8.871094 C 2.058594 7.699219 2.585938 7.144531 3.128906 7.144531 C 3.253906 7.144531 3.492188 7.144531 3.492188 7.605469 C 3.492188 7.964844 3.335938 8.367188 3.128906 8.894531 C 2.449219 10.71875 2.449219 11.179688 2.449219 11.511719 C 2.449219 12.832031 3.394531 13.140625 4.089844 13.140625 C 4.492188 13.140625 4.992188 13.015625 5.480469 12.5 L 5.492188 12.511719 C 5.285156 13.335938 5.144531 13.875 4.660156 14.558594 C 4.285156 15.085938 3.742188 15.558594 3.058594 15.558594 C 2.890625 15.558594 2.226563 15.53125 2.015625 14.890625 C 2.058594 14.90625 2.15625 14.90625 2.15625 14.90625 C 2.574219 14.90625 2.851563 14.542969 2.851563 14.222656 C 2.851563 13.90625 2.585938 13.792969 2.378906 13.792969 C 2.15625 13.792969 1.667969 13.960938 1.667969 14.640625 C 1.667969 15.351563 2.265625 15.835938 3.058594 15.835938 C 4.449219 15.835938 5.855469 14.558594 6.246094 13.015625 Z M 7.609375 7.589844 "/>
<path style=" stroke:none;fill-rule:evenodd;fill:rgb(0%,0%,0%);fill-opacity:1;" d="M 21.835938 8.242188 C 21.835938 7.980469 21.597656 7.980469 21.390625 7.980469 L 13.195313 7.980469 C 13.003906 7.980469 12.753906 7.980469 12.753906 8.230469 C 12.753906 8.492188 12.988281 8.492188 13.195313 8.492188 L 21.390625 8.492188 C 21.585938 8.492188 21.835938 8.492188 21.835938 8.242188 Z M 21.835938 10.832031 C 21.835938 10.566406 21.597656 10.566406 21.390625 10.566406 L 13.195313 10.566406 C 13.003906 10.566406 12.753906 10.566406 12.753906 10.816406 C 12.753906 11.082031 12.988281 11.082031 13.195313 11.082031 L 21.390625 11.082031 C 21.585938 11.082031 21.835938 11.082031 21.835938 10.832031 Z M 21.835938 10.832031 "/>
<path style=" stroke:none;fill-rule:evenodd;fill:rgb(0%,0%,0%);fill-opacity:1;" d="M 33.109375 7.589844 C 33.125 7.519531 33.148438 7.4375 33.148438 7.351563 C 33.148438 7.144531 32.984375 7.003906 32.773438 7.003906 C 32.648438 7.003906 32.359375 7.058594 32.246094 7.476563 L 31.21875 11.566406 C 31.148438 11.816406 31.148438 11.84375 31.035156 12 C 30.757813 12.386719 30.300781 12.859375 29.632813 12.859375 C 28.851563 12.859375 28.785156 12.09375 28.785156 11.71875 C 28.785156 10.929688 29.160156 9.855469 29.535156 8.855469 C 29.6875 8.453125 29.769531 8.257813 29.769531 7.980469 C 29.769531 7.394531 29.355469 6.867188 28.671875 6.867188 C 27.394531 6.867188 26.878906 8.882813 26.878906 8.996094 C 26.878906 9.050781 26.933594 9.121094 27.03125 9.121094 C 27.15625 9.121094 27.167969 9.0625 27.226563 8.871094 C 27.558594 7.699219 28.089844 7.144531 28.628906 7.144531 C 28.753906 7.144531 28.992188 7.144531 28.992188 7.605469 C 28.992188 7.964844 28.839844 8.367188 28.628906 8.894531 C 27.949219 10.71875 27.949219 11.179688 27.949219 11.511719 C 27.949219 12.832031 28.894531 13.140625 29.589844 13.140625 C 29.992188 13.140625 30.492188 13.015625 30.980469 12.5 L 30.996094 12.511719 C 30.785156 13.335938 30.644531 13.875 30.160156 14.558594 C 29.785156 15.085938 29.242188 15.558594 28.558594 15.558594 C 28.394531 15.558594 27.726563 15.53125 27.519531 14.890625 C 27.558594 14.90625 27.65625 14.90625 27.65625 14.90625 C 28.074219 14.90625 28.351563 14.542969 28.351563 14.222656 C 28.351563 13.90625 28.089844 13.792969 27.878906 13.792969 C 27.65625 13.792969 27.167969 13.960938 27.167969 14.640625 C 27.167969 15.351563 27.769531 15.835938 28.558594 15.835938 C 29.949219 15.835938 31.355469 14.558594 31.746094 13.015625 Z M 33.109375 7.589844 "/>
<path style=" stroke:none;fill-rule:evenodd;fill:rgb(0%,0%,0%);fill-opacity:1;" d="M 37.800781 7.199219 L 37.800781 6.894531 L 37.488281 6.894531 C 36.609375 6.894531 36.578125 6.789063 36.578125 6.425781 L 36.578125 0.941406 C 36.578125 0.707031 36.578125 0.683594 36.351563 0.683594 C 35.746094 1.3125 34.886719 1.3125 34.574219 1.3125 L 34.574219 1.613281 C 34.769531 1.613281 35.347656 1.613281 35.855469 1.359375 L 35.855469 6.425781 C 35.855469 6.777344 35.824219 6.894531 34.945313 6.894531 L 34.632813 6.894531 L 34.632813 7.199219 C 34.976563 7.167969 35.824219 7.167969 36.21875 7.167969 C 36.609375 7.167969 37.460938 7.167969 37.800781 7.199219 Z M 37.800781 7.199219 "/>
<path style=" stroke:none;fill-rule:evenodd;fill:rgb(0%,0%,0%);fill-opacity:1;" d="M 45.390625 4.753906 C 45.390625 4.558594 45.203125 4.558594 45.070313 4.558594 L 39.738281 4.558594 C 39.601563 4.558594 39.414063 4.558594 39.414063 4.753906 C 39.414063 4.949219 39.601563 4.949219 39.738281 4.949219 L 45.070313 4.949219 C 45.203125 4.949219 45.390625 4.949219 45.390625 4.753906 Z M 45.390625 4.753906 "/>
<path style=" stroke:none;fill-rule:evenodd;fill:rgb(0%,0%,0%);fill-opacity:1;" d="M 51.515625 5.800781 C 51.515625 5.703125 51.425781 5.703125 51.398438 5.703125 C 51.300781 5.703125 51.289063 5.742188 51.261719 5.878906 C 51.125 6.425781 50.9375 7.089844 50.527344 7.089844 C 50.320313 7.089844 50.222656 6.964844 50.222656 6.640625 C 50.222656 6.425781 50.339844 5.964844 50.417969 5.625 L 50.691406 4.566406 C 50.722656 4.421875 50.820313 4.050781 50.859375 3.902344 C 50.910156 3.675781 51.007813 3.308594 51.007813 3.246094 C 51.007813 3.070313 50.871094 2.984375 50.722656 2.984375 C 50.675781 2.984375 50.417969 2.992188 50.339844 3.324219 L 49.605469 6.269531 C 49.597656 6.308594 49.207031 7.089844 48.492188 7.089844 C 47.984375 7.089844 47.886719 6.652344 47.886719 6.289063 C 47.886719 5.742188 48.160156 4.96875 48.414063 4.292969 C 48.53125 4 48.578125 3.863281 48.578125 3.675781 C 48.578125 3.238281 48.265625 2.875 47.777344 2.875 C 46.847656 2.875 46.488281 4.292969 46.488281 4.382813 C 46.488281 4.480469 46.605469 4.480469 46.605469 4.480469 C 46.703125 4.480469 46.710938 4.460938 46.761719 4.304688 C 47.003906 3.453125 47.375 3.089844 47.75 3.089844 C 47.835938 3.089844 47.992188 3.101563 47.992188 3.414063 C 47.992188 3.648438 47.886719 3.933594 47.828125 4.078125 C 47.464844 5.046875 47.257813 5.652344 47.257813 6.132813 C 47.257813 7.0625 47.933594 7.308594 48.460938 7.308594 C 49.109375 7.308594 49.460938 6.867188 49.625 6.652344 C 49.734375 7.050781 50.078125 7.308594 50.496094 7.308594 C 50.839844 7.308594 51.066406 7.082031 51.222656 6.769531 C 51.386719 6.417969 51.515625 5.800781 51.515625 5.800781 Z M 51.515625 5.800781 "/>
<path style=" stroke:none;fill-rule:evenodd;fill:rgb(0%,0%,0%);fill-opacity:1;" d="M 37.703125 13.269531 C 37.703125 12.488281 37.652344 11.703125 37.3125 10.980469 C 36.859375 10.042969 36.058594 9.886719 35.648438 9.886719 C 35.0625 9.886719 34.347656 10.140625 33.945313 11.050781 C 33.632813 11.726563 33.585938 12.488281 33.585938 13.269531 C 33.585938 14.003906 33.625 14.882813 34.023438 15.625 C 34.445313 16.421875 35.160156 16.617188 35.640625 16.617188 C 36.167969 16.617188 36.910156 16.410156 37.339844 15.480469 C 37.652344 14.804688 37.703125 14.042969 37.703125 13.269531 Z M 36.890625 13.152344 C 36.890625 13.886719 36.890625 14.550781 36.78125 15.179688 C 36.636719 16.105469 36.078125 16.398438 35.640625 16.398438 C 35.257813 16.398438 34.679688 16.15625 34.503906 15.21875 C 34.398438 14.628906 34.398438 13.730469 34.398438 13.152344 C 34.398438 12.527344 34.398438 11.882813 34.476563 11.351563 C 34.660156 10.1875 35.394531 10.101563 35.640625 10.101563 C 35.960938 10.101563 36.605469 10.277344 36.792969 11.246094 C 36.890625 11.792969 36.890625 12.535156 36.890625 13.152344 Z M 36.890625 13.152344 "/>
</g>
</svg>
