<?xml version="1.0" encoding="UTF-8"?>
<svg xmlns="http://www.w3.org/2000/svg" xmlns:xlink="http://www.w3.org/1999/xlink" width="58pt" height="20pt" viewBox="0 0 58 20" version="1.1">
<g id="surface1">
<path style=" stroke:none;fill-rule:evenodd;fill:rgb(0%,0%,0%);fill-opacity:1;" d="M 6.476563 1.339844 C 6.476563 0.921875 6.140625 0.660156 5.808594 0.660156 C 5.417969 0.660156 5.125 0.964844 5.125 1.339844 C 5.125 1.699219 5.433594 2.007813 5.792969 2.007813 C 6.210938 2.007813 6.476563 1.675781 6.476563 1.339844 Z M 6.476563 1.339844 "/>
<path style=" stroke:none;fill-rule:evenodd;fill:rgb(0%,0%,0%);fill-opacity:1;" d="M 9.875 10.992188 C 9.875 9.867188 8.859375 8.753906 7.207031 8.574219 C 8.527344 8.324219 9.484375 7.433594 9.484375 6.390625 C 9.484375 5.195313 8.277344 4.039063 6.453125 4.039063 L 1.601563 4.039063 L 1.601563 4.445313 L 1.878906 4.445313 C 2.882813 4.445313 2.921875 4.582031 2.921875 5.097656 L 2.921875 12.480469 C 2.921875 12.996094 2.882813 13.132813 1.878906 13.132813 L 1.601563 13.132813 L 1.601563 13.539063 L 6.828125 13.539063 C 8.625 13.539063 9.875 12.328125 9.875 10.992188 Z M 8.261719 6.390625 C 8.261719 7.308594 7.539063 8.460938 5.996094 8.460938 L 3.980469 8.460938 L 3.980469 5 C 3.980469 4.539063 4.007813 4.445313 4.617188 4.445313 L 6.371094 4.445313 C 7.761719 4.445313 8.261719 5.640625 8.261719 6.390625 Z M 8.609375 10.980469 C 8.609375 12.105469 7.761719 13.132813 6.398438 13.132813 L 4.617188 13.132813 C 4.007813 13.132813 3.980469 13.039063 3.980469 12.578125 L 3.980469 8.738281 L 6.578125 8.738281 C 7.914063 8.738281 8.609375 9.910156 8.609375 10.980469 Z M 8.609375 10.980469 "/>
<path style=" stroke:none;fill-rule:evenodd;fill:rgb(0%,0%,0%);fill-opacity:1;" d="M 24.332031 8.78125 C 24.332031 8.519531 24.09375 8.519531 23.886719 8.519531 L 15.695313 8.519531 C 15.503906 8.519531 15.253906 8.519531 15.253906 8.769531 C 15.253906 9.03125 15.488281 9.03125 15.695313 9.03125 L 23.886719 9.03125 C 24.082031 9.03125 24.332031 9.03125 24.332031 8.78125 Z M 24.332031 11.371094 C 24.332031 11.105469 24.09375 11.105469 23.886719 11.105469 L 15.695313 11.105469 C 15.503906 11.105469 15.253906 11.105469 15.253906 11.355469 C 15.253906 11.621094 15.488281 11.621094 15.695313 11.621094 L 23.886719 11.621094 C 24.082031 11.621094 24.332031 11.621094 24.332031 11.371094 Z M 24.332031 11.371094 "/>
<path style=" stroke:none;fill-rule:evenodd;fill:rgb(0%,0%,0%);fill-opacity:1;" d="M 35.671875 11.550781 C 35.671875 11.480469 35.617188 11.425781 35.535156 11.425781 C 35.410156 11.425781 35.394531 11.480469 35.339844 11.703125 C 35.144531 12.425781 34.851563 13.398438 34.144531 13.398438 C 33.863281 13.398438 33.683594 13.257813 33.683594 12.730469 C 33.683594 12.46875 33.738281 12.160156 33.796875 11.953125 C 33.851563 11.703125 33.851563 11.6875 33.851563 11.519531 C 33.851563 10.699219 33.113281 10.242188 31.835938 10.074219 C 32.335938 9.769531 32.835938 9.226563 33.03125 9.019531 C 33.824219 8.128906 34.367188 7.683594 35.003906 7.683594 C 35.324219 7.683594 35.410156 7.765625 35.503906 7.851563 C 34.992188 7.90625 34.796875 8.269531 34.796875 8.546875 C 34.796875 8.878906 35.0625 8.992188 35.253906 8.992188 C 35.632813 8.992188 35.964844 8.671875 35.964844 8.226563 C 35.964844 7.824219 35.644531 7.40625 35.019531 7.40625 C 34.253906 7.40625 33.628906 7.949219 32.640625 9.058594 C 32.503906 9.226563 31.988281 9.753906 31.472656 9.949219 L 32.90625 4.234375 C 32.917969 4.179688 32.949219 4.09375 32.949219 4.027344 C 32.949219 3.886719 32.78125 3.886719 32.78125 3.886719 L 32.015625 3.957031 C 31.78125 3.96875 31.570313 4 31.320313 4.011719 C 30.988281 4.039063 30.890625 4.054688 30.890625 4.304688 C 30.890625 4.445313 31.027344 4.445313 31.167969 4.445313 C 31.875 4.445313 31.875 4.570313 31.875 4.707031 C 31.875 4.765625 31.875 4.792969 31.808594 5.042969 L 29.820313 12.996094 C 29.765625 13.203125 29.765625 13.230469 29.765625 13.316406 C 29.765625 13.621094 30 13.675781 30.140625 13.675781 C 30.527344 13.675781 30.609375 13.371094 30.722656 12.9375 C 30.847656 12.425781 30.792969 12.621094 31.375 10.339844 C 32.378906 10.449219 32.976563 10.867188 32.976563 11.535156 C 32.976563 11.621094 32.976563 11.675781 32.933594 11.882813 C 32.878906 12.089844 32.878906 12.257813 32.878906 12.328125 C 32.878906 13.132813 33.40625 13.675781 34.113281 13.675781 C 34.753906 13.675781 35.089844 13.09375 35.199219 12.898438 C 35.492188 12.382813 35.671875 11.605469 35.671875 11.550781 Z M 35.671875 11.550781 "/>
<path style=" stroke:none;fill-rule:evenodd;fill:rgb(0%,0%,0%);fill-opacity:1;" d="M 42.367188 10.0625 C 42.367188 9.660156 42.03125 9.324219 41.628906 9.324219 C 41.226563 9.324219 40.890625 9.660156 40.890625 10.0625 C 40.890625 10.464844 41.226563 10.800781 41.628906 10.800781 C 42.03125 10.800781 42.367188 10.464844 42.367188 10.0625 Z M 42.367188 10.0625 "/>
<path style=" stroke:none;fill-rule:evenodd;fill:rgb(0%,0%,0%);fill-opacity:1;" d="M 52.46875 1.339844 C 52.46875 0.921875 52.132813 0.660156 51.800781 0.660156 C 51.410156 0.660156 51.117188 0.964844 51.117188 1.339844 C 51.117188 1.699219 51.425781 2.007813 51.785156 2.007813 C 52.203125 2.007813 52.46875 1.675781 52.46875 1.339844 Z M 52.46875 1.339844 "/>
<path style=" stroke:none;fill-rule:evenodd;fill:rgb(0%,0%,0%);fill-opacity:1;" d="M 56.457031 13.539063 L 56.457031 13.132813 C 55.554688 13.132813 55.300781 13.132813 55.109375 12.5625 L 52.078125 3.859375 C 52.019531 3.691406 51.992188 3.609375 51.800781 3.609375 C 51.605469 3.609375 51.574219 3.652344 51.507813 3.875 L 48.601563 12.1875 C 48.40625 12.757813 48.015625 13.121094 47.125 13.132813 L 47.125 13.539063 L 48.460938 13.507813 C 48.851563 13.507813 49.519531 13.507813 49.878906 13.539063 L 49.878906 13.132813 C 49.292969 13.121094 48.949219 12.828125 48.949219 12.4375 C 48.949219 12.355469 48.949219 12.328125 49.015625 12.148438 L 49.65625 10.296875 L 53.160156 10.296875 L 53.925781 12.480469 C 53.996094 12.648438 53.996094 12.675781 53.996094 12.71875 C 53.996094 13.132813 53.285156 13.132813 52.9375 13.132813 L 52.9375 13.539063 C 53.257813 13.507813 54.355469 13.507813 54.746094 13.507813 C 55.136719 13.507813 56.136719 13.507813 56.457031 13.539063 Z M 53.023438 9.894531 L 49.796875 9.894531 L 51.410156 5.265625 Z M 53.023438 9.894531 "/>
</g>
</svg>
