<?xml version="1.0" encoding="UTF-8"?>
<svg xmlns="http://www.w3.org/2000/svg" xmlns:xlink="http://www.w3.org/1999/xlink" width="298pt" height="35pt" viewBox="0 0 298 35" version="1.1">
<g id="surface4">
<path style=" stroke:none;fill-rule:evenodd;fill:rgb(0%,0%,0%);fill-opacity:1;" d="M 7.609375 16.820313 C 7.621094 16.75 7.648438 16.667969 7.648438 16.582031 C 7.648438 16.375 7.484375 16.234375 7.273438 16.234375 C 7.148438 16.234375 6.855469 16.289063 6.746094 16.707031 L 5.714844 20.796875 C 5.648438 21.046875 5.648438 21.074219 5.535156 21.226563 C 5.257813 21.617188 4.796875 22.089844 4.132813 22.089844 C 3.351563 22.089844 3.28125 21.324219 3.28125 20.949219 C 3.28125 20.15625 3.65625 19.085938 4.03125 18.085938 C 4.1875 17.683594 4.269531 17.488281 4.269531 17.210938 C 4.269531 16.625 3.851563 16.097656 3.171875 16.097656 C 1.890625 16.097656 1.375 18.113281 1.375 18.226563 C 1.375 18.28125 1.433594 18.351563 1.53125 18.351563 C 1.65625 18.351563 1.667969 18.292969 1.726563 18.101563 C 2.058594 16.929688 2.585938 16.375 3.128906 16.375 C 3.253906 16.375 3.492188 16.375 3.492188 16.835938 C 3.492188 17.195313 3.335938 17.597656 3.128906 18.125 C 2.449219 19.949219 2.449219 20.40625 2.449219 20.742188 C 2.449219 22.0625 3.394531 22.367188 4.089844 22.367188 C 4.492188 22.367188 4.992188 22.242188 5.480469 21.730469 L 5.492188 21.742188 C 5.285156 22.5625 5.144531 23.105469 4.660156 23.789063 C 4.285156 24.316406 3.742188 24.789063 3.058594 24.789063 C 2.890625 24.789063 2.226563 24.761719 2.015625 24.121094 C 2.058594 24.132813 2.15625 24.132813 2.15625 24.132813 C 2.574219 24.132813 2.851563 23.773438 2.851563 23.453125 C 2.851563 23.132813 2.585938 23.023438 2.378906 23.023438 C 2.15625 23.023438 1.667969 23.1875 1.667969 23.871094 C 1.667969 24.578125 2.265625 25.066406 3.058594 25.066406 C 4.449219 25.066406 5.855469 23.789063 6.246094 22.242188 Z M 7.609375 16.820313 "/>
<path style=" stroke:none;fill-rule:evenodd;fill:rgb(0%,0%,0%);fill-opacity:1;" d="M 21.835938 17.472656 C 21.835938 17.210938 21.597656 17.210938 21.390625 17.210938 L 13.195313 17.210938 C 13.003906 17.210938 12.753906 17.210938 12.753906 17.460938 C 12.753906 17.722656 12.988281 17.722656 13.195313 17.722656 L 21.390625 17.722656 C 21.585938 17.722656 21.835938 17.722656 21.835938 17.472656 Z M 21.835938 20.0625 C 21.835938 19.796875 21.597656 19.796875 21.390625 19.796875 L 13.195313 19.796875 C 13.003906 19.796875 12.753906 19.796875 12.753906 20.046875 C 12.753906 20.3125 12.988281 20.3125 13.195313 20.3125 L 21.390625 20.3125 C 21.585938 20.3125 21.835938 20.3125 21.835938 20.0625 Z M 21.835938 20.0625 "/>
<path style=" stroke:none;fill-rule:evenodd;fill:rgb(0%,0%,0%);fill-opacity:1;" d="M 36.152344 18.753906 C 36.152344 18.476563 35.886719 18.476563 35.691406 18.476563 L 28.113281 18.476563 C 27.921875 18.476563 27.65625 18.476563 27.65625 18.753906 C 27.65625 19.03125 27.921875 19.03125 28.113281 19.03125 L 35.691406 19.03125 C 35.886719 19.03125 36.152344 19.03125 36.152344 18.753906 Z M 36.152344 18.753906 "/>
<path style=" stroke:none;fill-rule:evenodd;fill:rgb(0%,0%,0%);fill-opacity:1;" d="M 42.050781 12.828125 L 42.050781 12.425781 C 41.160156 12.425781 40.992188 12.425781 40.992188 11.800781 L 40.992188 3.179688 L 39.058594 3.332031 L 39.058594 3.734375 C 40.003906 3.734375 40.117188 3.832031 40.117188 4.511719 L 40.117188 11.800781 C 40.117188 12.425781 39.964844 12.425781 39.058594 12.425781 L 39.058594 12.828125 C 39.449219 12.800781 40.128906 12.800781 40.546875 12.800781 C 40.964844 12.800781 41.660156 12.800781 42.050781 12.828125 Z M 42.050781 12.828125 "/>
<path style=" stroke:none;fill-rule:evenodd;fill:rgb(0%,0%,0%);fill-opacity:1;" d="M 48.785156 9.851563 C 48.785156 8.058594 47.421875 6.625 45.808594 6.625 C 44.140625 6.625 42.816406 8.101563 42.816406 9.851563 C 42.816406 11.632813 44.207031 12.96875 45.792969 12.96875 C 47.433594 12.96875 48.785156 11.605469 48.785156 9.851563 Z M 47.726563 9.726563 C 47.726563 10.214844 47.726563 11.078125 47.367188 11.730469 C 46.976563 12.398438 46.335938 12.664063 45.808594 12.664063 C 45.292969 12.664063 44.667969 12.441406 44.265625 11.757813 C 43.886719 11.132813 43.875 10.3125 43.875 9.726563 C 43.875 9.199219 43.875 8.351563 44.304688 7.726563 C 44.695313 7.128906 45.308594 6.90625 45.792969 6.90625 C 46.335938 6.90625 46.921875 7.15625 47.296875 7.699219 C 47.726563 8.335938 47.726563 9.214844 47.726563 9.726563 Z M 47.726563 9.726563 "/>
<path style=" stroke:none;fill-rule:evenodd;fill:rgb(0%,0%,0%);fill-opacity:1;" d="M 55.808594 7.183594 C 55.808594 6.933594 55.613281 6.542969 55.125 6.542969 C 54.402344 6.542969 53.859375 6.988281 53.664063 7.195313 C 53.246094 6.878906 52.761719 6.695313 52.230469 6.695313 C 50.980469 6.695313 50.050781 7.640625 50.050781 8.710938 C 50.050781 9.507813 50.535156 10.019531 50.675781 10.144531 C 50.507813 10.355469 50.257813 10.757813 50.257813 11.300781 C 50.257813 12.105469 50.746094 12.453125 50.855469 12.523438 C 50.214844 12.703125 49.574219 13.203125 49.574219 13.929688 C 49.574219 14.886719 50.882813 15.679688 52.59375 15.679688 C 54.25 15.679688 55.625 14.945313 55.625 13.898438 C 55.625 13.554688 55.527344 12.734375 54.695313 12.300781 C 53.984375 11.9375 53.289063 11.9375 52.09375 11.9375 C 51.246094 11.9375 51.148438 11.9375 50.898438 11.675781 C 50.757813 11.535156 50.632813 11.273438 50.632813 10.980469 C 50.632813 10.742188 50.714844 10.507813 50.855469 10.3125 C 51.511719 10.742188 52.066406 10.742188 52.21875 10.742188 C 53.46875 10.742188 54.402344 9.796875 54.402344 8.726563 C 54.402344 8.351563 54.292969 7.824219 53.847656 7.378906 C 54.386719 6.820313 55.042969 6.820313 55.113281 6.820313 C 55.167969 6.820313 55.238281 6.820313 55.292969 6.851563 C 55.152344 6.90625 55.082031 7.042969 55.082031 7.195313 C 55.082031 7.390625 55.222656 7.558594 55.445313 7.558594 C 55.558594 7.558594 55.808594 7.488281 55.808594 7.183594 Z M 53.441406 8.710938 C 53.441406 8.964844 53.441406 9.535156 53.207031 9.910156 C 52.941406 10.3125 52.523438 10.453125 52.230469 10.453125 C 51.007813 10.453125 51.007813 9.046875 51.007813 8.726563 C 51.007813 8.476563 51.007813 7.90625 51.246094 7.53125 C 51.511719 7.128906 51.925781 6.988281 52.21875 6.988281 C 53.441406 6.988281 53.441406 8.394531 53.441406 8.710938 Z M 54.945313 13.914063 C 54.945313 14.734375 53.886719 15.390625 52.609375 15.390625 C 51.273438 15.390625 50.257813 14.707031 50.257813 13.914063 C 50.257813 13.804688 50.285156 13.261719 50.8125 12.898438 C 51.121094 12.703125 51.246094 12.703125 52.21875 12.703125 C 53.371094 12.703125 54.945313 12.703125 54.945313 13.914063 Z M 54.945313 13.914063 "/>
<path style=" stroke:none;fill-rule:evenodd;fill:rgb(0%,0%,0%);fill-opacity:1;" d="M 60.722656 16.210938 C 60.722656 16.167969 60.722656 16.140625 60.484375 15.902344 C 59.09375 14.5 58.316406 12.203125 58.316406 9.367188 C 58.316406 6.667969 58.96875 4.347656 60.582031 2.703125 C 60.722656 2.578125 60.722656 2.550781 60.722656 2.511719 C 60.722656 2.425781 60.652344 2.398438 60.597656 2.398438 C 60.414063 2.398438 59.273438 3.398438 58.59375 4.765625 C 57.882813 6.167969 57.5625 7.65625 57.5625 9.367188 C 57.5625 10.605469 57.757813 12.257813 58.480469 13.746094 C 59.300781 15.417969 60.441406 16.320313 60.597656 16.320313 C 60.652344 16.320313 60.722656 16.292969 60.722656 16.210938 Z M 60.722656 16.210938 "/>
<path style=" stroke:none;fill-rule:evenodd;fill:rgb(0%,0%,0%);fill-opacity:1;" d="M 67.3125 11.3125 C 67.3125 11.230469 67.230469 11.160156 67.175781 11.160156 C 67.132813 11.160156 67.121094 11.175781 66.996094 11.300781 C 66.105469 12.480469 64.785156 12.691406 64.253906 12.691406 C 63.460938 12.691406 63.042969 12.0625 63.042969 11.035156 C 63.042969 10.839844 63.042969 10.492188 63.253906 9.601563 L 63.988281 9.601563 C 64.367188 9.601563 65.3125 9.574219 65.980469 9.324219 C 67.035156 8.921875 67.132813 8.117188 67.132813 7.863281 C 67.132813 7.253906 66.605469 6.695313 65.6875 6.695313 C 64.226563 6.695313 62.128906 8.015625 62.128906 10.492188 C 62.128906 11.953125 62.960938 12.96875 64.226563 12.96875 C 66.117188 12.96875 67.3125 11.496094 67.3125 11.3125 Z M 66.714844 7.863281 C 66.714844 9.324219 64.492188 9.324219 63.90625 9.324219 L 63.324219 9.324219 C 63.921875 7.183594 65.242188 6.976563 65.6875 6.976563 C 66.300781 6.976563 66.714844 7.335938 66.714844 7.863281 Z M 66.714844 7.863281 "/>
<path style=" stroke:none;fill-rule:evenodd;fill:rgb(0%,0%,0%);fill-opacity:1;" d="M 74.589844 5.285156 C 74.589844 5.089844 74.402344 5.089844 74.265625 5.089844 L 68.933594 5.089844 C 68.796875 5.089844 68.613281 5.089844 68.613281 5.285156 C 68.613281 5.480469 68.796875 5.480469 68.933594 5.480469 L 74.265625 5.480469 C 74.402344 5.480469 74.589844 5.480469 74.589844 5.285156 Z M 74.589844 5.285156 "/>
<path style=" stroke:none;fill-rule:evenodd;fill:rgb(0%,0%,0%);fill-opacity:1;" d="M 80.191406 6.332031 C 80.191406 6.234375 80.105469 6.234375 80.074219 6.234375 C 79.980469 6.234375 79.96875 6.273438 79.941406 6.410156 C 79.742188 7.125 79.519531 7.621094 79.089844 7.621094 C 78.902344 7.621094 78.777344 7.515625 78.777344 7.164063 C 78.777344 6.996094 78.816406 6.773438 78.855469 6.613281 C 78.894531 6.449219 78.894531 6.410156 78.894531 6.3125 C 78.894531 5.675781 78.277344 5.390625 77.445313 5.285156 C 77.746094 5.109375 78.0625 4.796875 78.285156 4.5625 C 78.753906 4.042969 79.207031 3.621094 79.683594 3.621094 C 79.742188 3.621094 79.753906 3.621094 79.773438 3.632813 C 79.890625 3.652344 79.898438 3.652344 79.980469 3.710938 C 79.996094 3.71875 79.996094 3.730469 80.019531 3.75 C 79.546875 3.777344 79.460938 4.160156 79.460938 4.277344 C 79.460938 4.433594 79.566406 4.617188 79.832031 4.617188 C 80.085938 4.617188 80.371094 4.40625 80.371094 4.023438 C 80.371094 3.730469 80.144531 3.40625 79.703125 3.40625 C 79.429688 3.40625 78.980469 3.484375 78.277344 4.265625 C 77.945313 4.640625 77.5625 5.03125 77.191406 5.175781 L 78.207031 1.050781 C 78.207031 1.050781 78.207031 0.941406 78.082031 0.941406 C 77.855469 0.941406 77.140625 1.019531 76.886719 1.039063 C 76.808594 1.050781 76.703125 1.058594 76.703125 1.234375 C 76.703125 1.351563 76.789063 1.351563 76.9375 1.351563 C 77.40625 1.351563 77.425781 1.421875 77.425781 1.519531 L 77.394531 1.714844 L 75.976563 7.347656 C 75.9375 7.484375 75.9375 7.503906 75.9375 7.5625 C 75.9375 7.789063 76.132813 7.835938 76.222656 7.835938 C 76.347656 7.835938 76.496094 7.75 76.554688 7.632813 C 76.605469 7.542969 77.042969 5.734375 77.101563 5.492188 C 77.433594 5.519531 78.238281 5.675781 78.238281 6.320313 C 78.238281 6.390625 78.238281 6.429688 78.207031 6.527344 C 78.1875 6.644531 78.167969 6.761719 78.167969 6.867188 C 78.167969 7.445313 78.558594 7.835938 79.066406 7.835938 C 79.363281 7.835938 79.625 7.679688 79.839844 7.320313 C 80.085938 6.890625 80.191406 6.332031 80.191406 6.332031 Z M 80.191406 6.332031 "/>
<path style=" stroke:none;fill-rule:evenodd;fill:rgb(0%,0%,0%);fill-opacity:1;" d="M 82.679688 5.285156 C 82.679688 5 82.445313 4.765625 82.160156 4.765625 C 81.878906 4.765625 81.640625 5 81.640625 5.285156 C 81.640625 5.570313 81.878906 5.804688 82.160156 5.804688 C 82.445313 5.804688 82.679688 5.570313 82.679688 5.285156 Z M 82.679688 5.285156 "/>
<path style=" stroke:none;fill-rule:evenodd;fill:rgb(0%,0%,0%);fill-opacity:1;" d="M 88.351563 6.332031 C 88.351563 6.234375 88.265625 6.234375 88.234375 6.234375 C 88.144531 6.234375 88.125 6.273438 88.105469 6.339844 C 87.785156 7.386719 87.117188 7.621094 86.804688 7.621094 C 86.425781 7.621094 86.269531 7.308594 86.269531 6.976563 C 86.269531 6.761719 86.328125 6.546875 86.433594 6.117188 L 86.765625 4.777344 C 86.824219 4.523438 87.050781 3.621094 87.734375 3.621094 C 87.785156 3.621094 88.019531 3.621094 88.222656 3.75 C 87.949219 3.796875 87.753906 4.042969 87.753906 4.277344 C 87.753906 4.433594 87.863281 4.617188 88.125 4.617188 C 88.34375 4.617188 88.65625 4.445313 88.65625 4.050781 C 88.65625 3.542969 88.078125 3.40625 87.746094 3.40625 C 87.179688 3.40625 86.835938 3.925781 86.71875 4.148438 C 86.472656 3.503906 85.945313 3.40625 85.660156 3.40625 C 84.644531 3.40625 84.085938 4.667969 84.085938 4.914063 C 84.085938 5.011719 84.203125 5.011719 84.203125 5.011719 C 84.28125 5.011719 84.3125 4.992188 84.332031 4.902344 C 84.664063 3.867188 85.308594 3.621094 85.640625 3.621094 C 85.828125 3.621094 86.171875 3.710938 86.171875 4.277344 C 86.171875 4.578125 86.003906 5.234375 85.640625 6.605469 C 85.484375 7.210938 85.144531 7.621094 84.710938 7.621094 C 84.65625 7.621094 84.429688 7.621094 84.222656 7.496094 C 84.46875 7.445313 84.683594 7.242188 84.683594 6.96875 C 84.683594 6.703125 84.46875 6.625 84.320313 6.625 C 84.027344 6.625 83.785156 6.878906 83.785156 7.191406 C 83.785156 7.640625 84.273438 7.835938 84.703125 7.835938 C 85.347656 7.835938 85.699219 7.152344 85.730469 7.09375 C 85.847656 7.457031 86.199219 7.835938 86.785156 7.835938 C 87.792969 7.835938 88.351563 6.574219 88.351563 6.332031 Z M 88.351563 6.332031 "/>
<path style=" stroke:none;fill-rule:evenodd;fill:rgb(0%,0%,0%);fill-opacity:1;" d="M 102.53125 9.367188 C 102.53125 9.101563 102.296875 9.101563 102.089844 9.101563 L 98.25 9.101563 L 98.25 5.265625 C 98.25 5.070313 98.25 4.820313 98 4.820313 C 97.734375 4.820313 97.734375 5.054688 97.734375 5.265625 L 97.734375 9.101563 L 93.894531 9.101563 C 93.703125 9.101563 93.453125 9.101563 93.453125 9.351563 C 93.453125 9.617188 93.6875 9.617188 93.894531 9.617188 L 97.734375 9.617188 L 97.734375 13.457031 C 97.734375 13.648438 97.734375 13.898438 97.984375 13.898438 C 98.25 13.898438 98.25 13.664063 98.25 13.457031 L 98.25 9.617188 L 102.089844 9.617188 C 102.28125 9.617188 102.53125 9.617188 102.53125 9.367188 Z M 102.53125 9.367188 "/>
<path style=" stroke:none;fill-rule:evenodd;fill:rgb(0%,0%,0%);fill-opacity:1;" d="M 112.214844 11.3125 C 112.214844 11.230469 112.128906 11.160156 112.074219 11.160156 C 112.03125 11.160156 112.019531 11.175781 111.894531 11.300781 C 111.003906 12.480469 109.683594 12.691406 109.152344 12.691406 C 108.359375 12.691406 107.945313 12.0625 107.945313 11.035156 C 107.945313 10.839844 107.945313 10.492188 108.152344 9.601563 L 108.890625 9.601563 C 109.265625 9.601563 110.210938 9.574219 110.878906 9.324219 C 111.933594 8.921875 112.03125 8.117188 112.03125 7.863281 C 112.03125 7.253906 111.503906 6.695313 110.585938 6.695313 C 109.128906 6.695313 107.027344 8.015625 107.027344 10.492188 C 107.027344 11.953125 107.859375 12.96875 109.128906 12.96875 C 111.015625 12.96875 112.214844 11.496094 112.214844 11.3125 Z M 111.617188 7.863281 C 111.617188 9.324219 109.390625 9.324219 108.804688 9.324219 L 108.222656 9.324219 C 108.820313 7.183594 110.140625 6.976563 110.585938 6.976563 C 111.199219 6.976563 111.617188 7.335938 111.617188 7.863281 Z M 111.617188 7.863281 "/>
<path style=" stroke:none;fill-rule:evenodd;fill:rgb(0%,0%,0%);fill-opacity:1;" d="M 119.585938 5.285156 C 119.585938 5.089844 119.402344 5.089844 119.265625 5.089844 L 113.933594 5.089844 C 113.796875 5.089844 113.613281 5.089844 113.613281 5.285156 C 113.613281 5.480469 113.796875 5.480469 113.933594 5.480469 L 119.265625 5.480469 C 119.402344 5.480469 119.585938 5.480469 119.585938 5.285156 Z M 119.585938 5.285156 "/>
<path style=" stroke:none;fill-rule:evenodd;fill:rgb(0%,0%,0%);fill-opacity:1;" d="M 125.191406 6.332031 C 125.191406 6.234375 125.105469 6.234375 125.074219 6.234375 C 124.976563 6.234375 124.964844 6.273438 124.9375 6.410156 C 124.742188 7.125 124.515625 7.621094 124.085938 7.621094 C 123.902344 7.621094 123.773438 7.515625 123.773438 7.164063 C 123.773438 6.996094 123.8125 6.773438 123.851563 6.613281 C 123.890625 6.449219 123.890625 6.410156 123.890625 6.3125 C 123.890625 5.675781 123.273438 5.390625 122.445313 5.285156 C 122.746094 5.109375 123.0625 4.796875 123.285156 4.5625 C 123.753906 4.042969 124.203125 3.621094 124.683594 3.621094 C 124.742188 3.621094 124.753906 3.621094 124.773438 3.632813 C 124.890625 3.652344 124.898438 3.652344 124.976563 3.710938 C 124.996094 3.71875 124.996094 3.730469 125.015625 3.75 C 124.546875 3.777344 124.457031 4.160156 124.457031 4.277344 C 124.457031 4.433594 124.566406 4.617188 124.832031 4.617188 C 125.082031 4.617188 125.367188 4.40625 125.367188 4.023438 C 125.367188 3.730469 125.144531 3.40625 124.703125 3.40625 C 124.429688 3.40625 123.980469 3.484375 123.273438 4.265625 C 122.945313 4.640625 122.5625 5.03125 122.191406 5.175781 L 123.207031 1.050781 C 123.207031 1.050781 123.207031 0.941406 123.078125 0.941406 C 122.855469 0.941406 122.140625 1.019531 121.886719 1.039063 C 121.808594 1.050781 121.703125 1.058594 121.703125 1.234375 C 121.703125 1.351563 121.789063 1.351563 121.9375 1.351563 C 122.40625 1.351563 122.425781 1.421875 122.425781 1.519531 L 122.394531 1.714844 L 120.976563 7.347656 C 120.9375 7.484375 120.9375 7.503906 120.9375 7.5625 C 120.9375 7.789063 121.132813 7.835938 121.222656 7.835938 C 121.347656 7.835938 121.496094 7.75 121.554688 7.632813 C 121.601563 7.542969 122.042969 5.734375 122.101563 5.492188 C 122.433594 5.519531 123.234375 5.675781 123.234375 6.320313 C 123.234375 6.390625 123.234375 6.429688 123.207031 6.527344 C 123.1875 6.644531 123.167969 6.761719 123.167969 6.867188 C 123.167969 7.445313 123.558594 7.835938 124.066406 7.835938 C 124.359375 7.835938 124.625 7.679688 124.839844 7.320313 C 125.082031 6.890625 125.191406 6.332031 125.191406 6.332031 Z M 125.191406 6.332031 "/>
<path style=" stroke:none;fill-rule:evenodd;fill:rgb(0%,0%,0%);fill-opacity:1;" d="M 127.675781 5.285156 C 127.675781 5 127.445313 4.765625 127.160156 4.765625 C 126.875 4.765625 126.640625 5 126.640625 5.285156 C 126.640625 5.570313 126.875 5.804688 127.160156 5.804688 C 127.445313 5.804688 127.675781 5.570313 127.675781 5.285156 Z M 127.675781 5.285156 "/>
<path style=" stroke:none;fill-rule:evenodd;fill:rgb(0%,0%,0%);fill-opacity:1;" d="M 132.597656 7.730469 L 132.597656 7.425781 L 132.285156 7.425781 C 131.40625 7.425781 131.375 7.320313 131.375 6.957031 L 131.375 1.46875 C 131.375 1.234375 131.375 1.214844 131.148438 1.214844 C 130.542969 1.84375 129.683594 1.84375 129.371094 1.84375 L 129.371094 2.144531 C 129.566406 2.144531 130.144531 2.144531 130.652344 1.890625 L 130.652344 6.957031 C 130.652344 7.308594 130.621094 7.425781 129.742188 7.425781 L 129.429688 7.425781 L 129.429688 7.730469 C 129.773438 7.699219 130.621094 7.699219 131.011719 7.699219 C 131.40625 7.699219 132.253906 7.699219 132.597656 7.730469 Z M 132.597656 7.730469 "/>
<path style=" stroke:none;fill-rule:evenodd;fill:rgb(0%,0%,0%);fill-opacity:1;" d="M 137.722656 9.367188 C 137.722656 8.308594 137.582031 6.585938 136.804688 4.972656 C 135.984375 3.304688 134.84375 2.398438 134.691406 2.398438 C 134.632813 2.398438 134.566406 2.425781 134.566406 2.511719 C 134.566406 2.550781 134.566406 2.578125 134.800781 2.816406 C 136.191406 4.222656 136.96875 6.515625 136.96875 9.351563 C 136.96875 12.050781 136.316406 14.375 134.703125 16.015625 C 134.566406 16.140625 134.566406 16.167969 134.566406 16.210938 C 134.566406 16.292969 134.632813 16.320313 134.691406 16.320313 C 134.871094 16.320313 136.011719 15.320313 136.691406 13.957031 C 137.402344 12.539063 137.722656 11.035156 137.722656 9.367188 Z M 137.722656 9.367188 "/>
<path style="fill:none;stroke-width:0.557991;stroke-linecap:square;stroke-linejoin:miter;stroke:rgb(0%,0%,0%);stroke-opacity:1;stroke-miterlimit:10;" d="M 38.570313 18.785156 L 139.15625 18.785156 "/>
<path style=" stroke:none;fill-rule:evenodd;fill:rgb(0%,0%,0%);fill-opacity:1;" d="M 91.773438 29.839844 C 91.773438 29.773438 91.71875 29.714844 91.636719 29.714844 C 91.511719 29.714844 91.496094 29.773438 91.441406 29.992188 C 91.246094 30.71875 90.953125 31.691406 90.246094 31.691406 C 89.96875 31.691406 89.789063 31.550781 89.789063 31.023438 C 89.789063 30.757813 89.84375 30.453125 89.898438 30.242188 C 89.953125 29.992188 89.953125 29.980469 89.953125 29.8125 C 89.953125 28.992188 89.21875 28.535156 87.9375 28.367188 C 88.4375 28.0625 88.9375 27.519531 89.132813 27.308594 C 89.925781 26.421875 90.46875 25.976563 91.109375 25.976563 C 91.429688 25.976563 91.511719 26.058594 91.609375 26.140625 C 91.09375 26.195313 90.898438 26.558594 90.898438 26.835938 C 90.898438 27.171875 91.164063 27.28125 91.359375 27.28125 C 91.734375 27.28125 92.066406 26.960938 92.066406 26.515625 C 92.066406 26.113281 91.746094 25.695313 91.121094 25.695313 C 90.355469 25.695313 89.730469 26.238281 88.742188 27.351563 C 88.605469 27.519531 88.089844 28.046875 87.574219 28.242188 L 89.007813 22.523438 C 89.023438 22.46875 89.050781 22.386719 89.050781 22.316406 C 89.050781 22.179688 88.882813 22.179688 88.882813 22.179688 L 88.117188 22.246094 C 87.882813 22.261719 87.671875 22.289063 87.421875 22.304688 C 87.089844 22.332031 86.992188 22.34375 86.992188 22.59375 C 86.992188 22.734375 87.128906 22.734375 87.269531 22.734375 C 87.976563 22.734375 87.976563 22.859375 87.976563 23 C 87.976563 23.054688 87.976563 23.082031 87.910156 23.332031 L 85.921875 31.289063 C 85.867188 31.496094 85.867188 31.523438 85.867188 31.609375 C 85.867188 31.914063 86.101563 31.96875 86.242188 31.96875 C 86.628906 31.96875 86.710938 31.664063 86.824219 31.230469 C 86.949219 30.71875 86.894531 30.914063 87.476563 28.632813 C 88.480469 28.742188 89.078125 29.160156 89.078125 29.828125 C 89.078125 29.910156 89.078125 29.964844 89.035156 30.175781 C 88.980469 30.382813 88.980469 30.550781 88.980469 30.621094 C 88.980469 31.425781 89.507813 31.96875 90.21875 31.96875 C 90.859375 31.96875 91.191406 31.382813 91.304688 31.191406 C 91.59375 30.675781 91.773438 29.898438 91.773438 29.839844 Z M 91.773438 29.839844 "/>
<path style=" stroke:none;fill-rule:evenodd;fill:rgb(0%,0%,0%);fill-opacity:1;" d="M 146.167969 18.753906 C 146.167969 18.351563 145.835938 18.015625 145.433594 18.015625 C 145.03125 18.015625 144.695313 18.351563 144.695313 18.753906 C 144.695313 19.15625 145.03125 19.492188 145.433594 19.492188 C 145.835938 19.492188 146.167969 19.15625 146.167969 18.753906 Z M 146.167969 18.753906 "/>
<path style=" stroke:none;fill-rule:evenodd;fill:rgb(0%,0%,0%);fill-opacity:1;" d="M 157.742188 20.242188 C 157.742188 20.171875 157.6875 20.117188 157.605469 20.117188 C 157.476563 20.117188 157.464844 20.1875 157.40625 20.394531 C 157.15625 21.351563 156.90625 22.089844 156.351563 22.089844 C 155.933594 22.089844 155.933594 21.632813 155.933594 21.453125 C 155.933594 21.132813 155.976563 20.992188 156.113281 20.40625 L 156.394531 19.265625 L 156.964844 17 C 157.058594 16.652344 157.058594 16.625 157.058594 16.582031 C 157.058594 16.375 156.894531 16.234375 156.683594 16.234375 C 156.28125 16.234375 156.183594 16.582031 156.101563 16.929688 L 155.113281 20.949219 C 155.113281 20.949219 154.558594 22.089844 153.542969 22.089844 C 152.820313 22.089844 152.679688 21.464844 152.679688 20.949219 C 152.679688 20.15625 153.070313 19.046875 153.429688 18.113281 C 153.597656 17.667969 153.667969 17.488281 153.667969 17.210938 C 153.667969 16.609375 153.238281 16.097656 152.566406 16.097656 C 151.289063 16.097656 150.773438 18.113281 150.773438 18.226563 C 150.773438 18.28125 150.832031 18.351563 150.925781 18.351563 C 151.050781 18.351563 151.066406 18.292969 151.121094 18.101563 C 151.457031 16.902344 152 16.375 152.527344 16.375 C 152.667969 16.375 152.886719 16.390625 152.886719 16.835938 C 152.886719 17.195313 152.734375 17.597656 152.527344 18.125 C 151.914063 19.78125 151.847656 20.3125 151.847656 20.726563 C 151.847656 22.148438 152.917969 22.367188 153.488281 22.367188 C 154.378906 22.367188 154.863281 21.757813 155.140625 21.421875 C 155.320313 22.203125 155.988281 22.367188 156.324219 22.367188 C 156.769531 22.367188 157.101563 22.078125 157.328125 21.601563 C 157.5625 21.101563 157.742188 20.28125 157.742188 20.242188 Z M 157.742188 20.242188 "/>
<path style=" stroke:none;fill-rule:evenodd;fill:rgb(0%,0%,0%);fill-opacity:1;" d="M 166.152344 24.328125 L 166.152344 24.027344 C 165.644531 24.027344 165.398438 24.027344 165.386719 23.734375 L 165.386719 21.867188 C 165.386719 21.023438 165.386719 20.71875 165.085938 20.367188 C 164.945313 20.203125 164.625 20.007813 164.058594 20.007813 C 163.238281 20.007813 162.804688 20.59375 162.640625 20.964844 C 162.503906 20.113281 161.777344 20.007813 161.339844 20.007813 C 160.625 20.007813 160.164063 20.425781 159.890625 21.03125 L 159.890625 20.007813 L 158.511719 20.113281 L 158.511719 20.417969 C 159.195313 20.417969 159.277344 20.484375 159.277344 20.964844 L 159.277344 23.585938 C 159.277344 24.027344 159.167969 24.027344 158.511719 24.027344 L 158.511719 24.328125 L 159.617188 24.300781 L 160.714844 24.328125 L 160.714844 24.027344 C 160.058594 24.027344 159.949219 24.027344 159.949219 23.585938 L 159.949219 21.785156 C 159.949219 20.769531 160.644531 20.222656 161.269531 20.222656 C 161.886719 20.222656 161.992188 20.75 161.992188 21.308594 L 161.992188 23.585938 C 161.992188 24.027344 161.886719 24.027344 161.230469 24.027344 L 161.230469 24.328125 L 162.335938 24.300781 L 163.433594 24.328125 L 163.433594 24.027344 C 162.777344 24.027344 162.667969 24.027344 162.667969 23.585938 L 162.667969 21.785156 C 162.667969 20.769531 163.363281 20.222656 163.988281 20.222656 C 164.605469 20.222656 164.714844 20.75 164.714844 21.308594 L 164.714844 23.585938 C 164.714844 24.027344 164.605469 24.027344 163.949219 24.027344 L 163.949219 24.328125 L 165.054688 24.300781 Z M 166.152344 24.328125 "/>
<path style=" stroke:none;fill-rule:evenodd;fill:rgb(0%,0%,0%);fill-opacity:1;" d="M 171.023438 23.460938 L 171.023438 22.910156 L 170.777344 22.910156 L 170.777344 23.460938 C 170.777344 24.027344 170.53125 24.085938 170.425781 24.085938 C 170.105469 24.085938 170.066406 23.644531 170.066406 23.597656 L 170.066406 21.640625 C 170.066406 21.230469 170.066406 20.847656 169.714844 20.484375 C 169.332031 20.105469 168.84375 19.949219 168.371094 19.949219 C 167.570313 19.949219 166.894531 20.40625 166.894531 21.054688 C 166.894531 21.347656 167.089844 21.511719 167.347656 21.511719 C 167.617188 21.511719 167.796875 21.316406 167.796875 21.0625 C 167.796875 20.945313 167.746094 20.625 167.296875 20.613281 C 167.5625 20.269531 168.039063 20.164063 168.355469 20.164063 C 168.832031 20.164063 169.390625 20.542969 169.390625 21.414063 L 169.390625 21.777344 C 168.890625 21.804688 168.207031 21.835938 167.589844 22.128906 C 166.855469 22.460938 166.613281 22.96875 166.613281 23.398438 C 166.613281 24.191406 167.5625 24.4375 168.175781 24.4375 C 168.820313 24.4375 169.273438 24.046875 169.457031 23.585938 C 169.496094 23.976563 169.761719 24.390625 170.222656 24.390625 C 170.425781 24.390625 171.023438 24.25 171.023438 23.460938 Z M 169.390625 22.960938 C 169.390625 23.890625 168.683594 24.222656 168.246094 24.222656 C 167.765625 24.222656 167.363281 23.878906 167.363281 23.390625 C 167.363281 22.851563 167.777344 22.039063 169.390625 21.984375 Z M 169.390625 22.960938 "/>
<path style=" stroke:none;fill-rule:evenodd;fill:rgb(0%,0%,0%);fill-opacity:1;" d="M 176.246094 24.328125 L 176.246094 24.027344 C 175.71875 24.027344 175.539063 24.007813 175.316406 23.722656 L 174.007813 22.03125 C 174.300781 21.660156 174.671875 21.179688 174.90625 20.925781 C 175.210938 20.574219 175.609375 20.425781 176.070313 20.417969 L 176.070313 20.113281 C 175.816406 20.132813 175.523438 20.144531 175.269531 20.144531 C 174.972656 20.144531 174.457031 20.125 174.328125 20.113281 L 174.328125 20.417969 C 174.535156 20.4375 174.613281 20.5625 174.613281 20.71875 C 174.613281 20.875 174.515625 21.003906 174.464844 21.0625 L 173.859375 21.824219 L 173.097656 20.835938 C 173.007813 20.742188 173.007813 20.71875 173.007813 20.664063 C 173.007813 20.515625 173.15625 20.425781 173.351563 20.417969 L 173.351563 20.113281 L 172.292969 20.144531 C 172.089844 20.144531 171.628906 20.132813 171.363281 20.113281 L 171.363281 20.417969 C 172.050781 20.417969 172.058594 20.425781 172.519531 21.015625 L 173.488281 22.273438 C 173.027344 22.863281 173.027344 22.882813 172.566406 23.4375 C 172.097656 24.007813 171.523438 24.027344 171.316406 24.027344 L 171.316406 24.328125 C 171.570313 24.308594 171.875 24.300781 172.128906 24.300781 L 173.058594 24.328125 L 173.058594 24.027344 C 172.84375 23.996094 172.773438 23.871094 172.773438 23.722656 C 172.773438 23.507813 173.058594 23.1875 173.652344 22.480469 L 174.398438 23.460938 C 174.476563 23.566406 174.601563 23.722656 174.601563 23.78125 C 174.601563 23.871094 174.515625 24.015625 174.25 24.027344 L 174.25 24.328125 L 175.308594 24.300781 C 175.570313 24.300781 175.953125 24.308594 176.246094 24.328125 Z M 176.246094 24.328125 "/>
<path style=" stroke:none;fill-rule:evenodd;fill:rgb(0%,0%,0%);fill-opacity:1;" d="M 193.210938 22.285156 C 193.210938 21.476563 192.945313 20.882813 192.375 20.882813 C 191.933594 20.882813 191.707031 21.242188 191.707031 21.546875 C 191.707031 21.855469 191.917969 22.230469 192.390625 22.230469 C 192.570313 22.230469 192.722656 22.171875 192.847656 22.046875 C 192.875 22.019531 192.90625 22.019531 192.90625 22.019531 C 192.90625 22.019531 192.933594 22.214844 192.933594 22.285156 C 192.933594 22.742188 192.847656 23.648438 192.042969 24.550781 C 191.890625 24.71875 191.890625 24.773438 191.890625 24.773438 C 191.890625 24.84375 191.960938 24.914063 192.027344 24.914063 C 192.140625 24.914063 193.210938 23.882813 193.210938 22.285156 Z M 193.210938 22.285156 "/>
<path style=" stroke:none;fill-rule:evenodd;fill:rgb(0%,0%,0%);fill-opacity:1;" d="M 219.867188 16.640625 L 219.867188 16.234375 C 219.519531 16.265625 219.269531 16.265625 218.835938 16.265625 L 217.652344 16.234375 L 217.652344 16.640625 C 218.28125 16.667969 218.449219 17.042969 218.449219 17.304688 C 218.449219 17.304688 218.449219 17.417969 218.390625 17.554688 L 217.113281 21.199219 L 215.722656 17.265625 C 215.652344 17.097656 215.652344 17.070313 215.652344 17.027344 C 215.652344 16.640625 216.167969 16.640625 216.460938 16.640625 L 216.460938 16.234375 C 216.070313 16.265625 215.5 16.265625 215.097656 16.265625 L 213.84375 16.234375 L 213.84375 16.640625 C 214.375 16.640625 214.554688 16.667969 214.707031 16.847656 C 214.777344 16.929688 214.941406 17.390625 215.039063 17.667969 L 213.859375 21.0625 L 212.523438 17.277344 C 212.453125 17.097656 212.453125 17.070313 212.453125 17.015625 C 212.453125 16.640625 212.996094 16.640625 213.261719 16.640625 L 213.261719 16.234375 C 212.914063 16.265625 212.21875 16.265625 211.84375 16.265625 L 210.546875 16.234375 L 210.546875 16.640625 C 211.257813 16.640625 211.394531 16.695313 211.550781 17.140625 L 213.304688 22.117188 C 213.355469 22.273438 213.398438 22.367188 213.554688 22.367188 C 213.679688 22.367188 213.746094 22.328125 213.816406 22.105469 L 215.207031 18.140625 L 216.597656 22.105469 C 216.667969 22.328125 216.738281 22.367188 216.863281 22.367188 C 217.015625 22.367188 217.058594 22.273438 217.113281 22.117188 L 218.710938 17.554688 C 219.019531 16.679688 219.628906 16.652344 219.867188 16.640625 Z M 219.867188 16.640625 "/>
<path style=" stroke:none;fill-rule:evenodd;fill:rgb(0%,0%,0%);fill-opacity:1;" d="M 223.550781 22.230469 L 223.550781 21.828125 C 222.644531 21.828125 222.589844 21.757813 222.589844 21.214844 L 222.589844 16.097656 L 220.699219 16.25 L 220.699219 16.652344 C 221.589844 16.652344 221.714844 16.734375 221.714844 17.417969 L 221.714844 21.199219 C 221.714844 21.828125 221.5625 21.828125 220.65625 21.828125 L 220.65625 22.230469 C 221.046875 22.203125 221.714844 22.203125 222.117188 22.203125 C 222.269531 22.203125 223.074219 22.203125 223.550781 22.230469 Z M 222.769531 13.828125 C 222.769531 13.414063 222.4375 13.148438 222.101563 13.148438 C 221.714844 13.148438 221.421875 13.453125 221.421875 13.828125 C 221.421875 14.191406 221.726563 14.496094 222.089844 14.496094 C 222.507813 14.496094 222.769531 14.164063 222.769531 13.828125 Z M 222.769531 13.828125 "/>
<path style=" stroke:none;fill-rule:evenodd;fill:rgb(0%,0%,0%);fill-opacity:1;" d="M 228.53125 20.503906 L 228.53125 19.710938 L 228.226563 19.710938 L 228.226563 20.476563 C 228.226563 21.476563 227.824219 22.0625 227.28125 22.0625 C 226.335938 22.0625 226.335938 20.769531 226.335938 20.53125 L 226.335938 16.640625 L 228.296875 16.640625 L 228.296875 16.234375 L 226.335938 16.234375 L 226.335938 13.675781 L 226.027344 13.675781 C 226.015625 14.984375 225.515625 16.320313 224.25 16.359375 L 224.25 16.640625 L 225.429688 16.640625 L 225.429688 20.503906 C 225.429688 22.046875 226.460938 22.367188 227.195313 22.367188 C 228.074219 22.367188 228.53125 21.507813 228.53125 20.503906 Z M 228.53125 20.503906 "/>
<path style=" stroke:none;fill-rule:evenodd;fill:rgb(0%,0%,0%);fill-opacity:1;" d="M 236.542969 22.230469 L 236.542969 21.828125 C 235.847656 21.828125 235.5 21.828125 235.488281 21.410156 L 235.488281 18.851563 C 235.488281 17.554688 235.488281 17.167969 235.167969 16.722656 C 234.765625 16.179688 234.109375 16.097656 233.636719 16.097656 C 232.441406 16.097656 231.886719 17 231.691406 17.429688 L 231.675781 17.429688 L 231.675781 12.578125 L 229.742188 12.730469 L 229.742188 13.132813 C 230.6875 13.132813 230.800781 13.230469 230.800781 13.914063 L 230.800781 21.199219 C 230.800781 21.828125 230.644531 21.828125 229.742188 21.828125 L 229.742188 22.230469 C 230.105469 22.203125 230.855469 22.203125 231.246094 22.203125 C 231.648438 22.203125 232.398438 22.203125 232.761719 22.230469 L 232.761719 21.828125 C 231.871094 21.828125 231.703125 21.828125 231.703125 21.199219 L 231.703125 18.613281 C 231.703125 17.152344 232.664063 16.375 233.527344 16.375 C 234.390625 16.375 234.582031 17.085938 234.582031 17.933594 L 234.582031 21.199219 C 234.582031 21.828125 234.429688 21.828125 233.527344 21.828125 L 233.527344 22.230469 C 233.886719 22.203125 234.640625 22.203125 235.027344 22.203125 C 235.429688 22.203125 236.183594 22.203125 236.542969 22.230469 Z M 236.542969 22.230469 "/>
<path style=" stroke:none;fill-rule:evenodd;fill:rgb(0%,0%,0%);fill-opacity:1;" d="M 248.074219 20.242188 C 248.074219 20.171875 248.019531 20.117188 247.933594 20.117188 C 247.808594 20.117188 247.792969 20.1875 247.753906 20.296875 C 247.378906 21.519531 246.570313 22.089844 245.945313 22.089844 C 245.457031 22.089844 245.195313 21.730469 245.195313 21.160156 C 245.195313 20.851563 245.25 20.628906 245.472656 19.710938 L 245.957031 17.820313 C 246.167969 16.984375 246.640625 16.375 247.28125 16.375 C 247.28125 16.375 247.699219 16.375 247.988281 16.554688 C 247.542969 16.640625 247.378906 16.972656 247.378906 17.238281 C 247.378906 17.570313 247.640625 17.683594 247.835938 17.683594 C 248.253906 17.683594 248.546875 17.320313 248.546875 16.945313 C 248.546875 16.359375 247.878906 16.097656 247.292969 16.097656 C 246.445313 16.097656 245.972656 16.929688 245.847656 17.195313 C 245.527344 16.152344 244.667969 16.097656 244.414063 16.097656 C 242.996094 16.097656 242.246094 17.917969 242.246094 18.226563 C 242.246094 18.28125 242.304688 18.351563 242.398438 18.351563 C 242.511719 18.351563 242.539063 18.265625 242.566406 18.210938 C 243.039063 16.667969 243.972656 16.375 244.375 16.375 C 245 16.375 245.125 16.960938 245.125 17.292969 C 245.125 17.597656 245.042969 17.917969 244.875 18.585938 L 244.402344 20.492188 C 244.191406 21.324219 243.789063 22.089844 243.054688 22.089844 C 242.984375 22.089844 242.636719 22.089844 242.34375 21.910156 C 242.84375 21.8125 242.957031 21.394531 242.957031 21.226563 C 242.957031 20.949219 242.746094 20.78125 242.480469 20.78125 C 242.148438 20.78125 241.785156 21.074219 241.785156 21.519531 C 241.785156 22.105469 242.441406 22.367188 243.039063 22.367188 C 243.707031 22.367188 244.179688 21.839844 244.472656 21.269531 C 244.691406 22.089844 245.390625 22.367188 245.902344 22.367188 C 247.324219 22.367188 248.074219 20.546875 248.074219 20.242188 Z M 248.074219 20.242188 "/>
<path style=" stroke:none;fill-rule:evenodd;fill:rgb(0%,0%,0%);fill-opacity:1;" d="M 262.832031 17.472656 C 262.832031 17.210938 262.59375 17.210938 262.386719 17.210938 L 254.191406 17.210938 C 254 17.210938 253.75 17.210938 253.75 17.460938 C 253.75 17.722656 253.984375 17.722656 254.191406 17.722656 L 262.386719 17.722656 C 262.582031 17.722656 262.832031 17.722656 262.832031 17.472656 Z M 262.832031 20.0625 C 262.832031 19.796875 262.59375 19.796875 262.386719 19.796875 L 254.191406 19.796875 C 254 19.796875 253.75 19.796875 253.75 20.046875 C 253.75 20.3125 253.984375 20.3125 254.191406 20.3125 L 262.386719 20.3125 C 262.582031 20.3125 262.832031 20.3125 262.832031 20.0625 Z M 262.832031 20.0625 "/>
<path style=" stroke:none;fill-rule:evenodd;fill:rgb(0%,0%,0%);fill-opacity:1;" d="M 285.441406 10.839844 C 285.441406 10.773438 285.386719 10.714844 285.300781 10.714844 C 285.175781 10.714844 285.164063 10.785156 285.105469 10.992188 C 284.855469 11.953125 284.605469 12.691406 284.050781 12.691406 C 283.632813 12.691406 283.632813 12.230469 283.632813 12.050781 C 283.632813 11.730469 283.675781 11.59375 283.8125 11.007813 L 284.089844 9.867188 L 284.660156 7.601563 C 284.757813 7.253906 284.757813 7.226563 284.757813 7.183594 C 284.757813 6.976563 284.59375 6.835938 284.382813 6.835938 C 283.980469 6.835938 283.882813 7.183594 283.800781 7.53125 L 282.8125 11.550781 C 282.8125 11.550781 282.253906 12.691406 281.242188 12.691406 C 280.515625 12.691406 280.378906 12.0625 280.378906 11.550781 C 280.378906 10.757813 280.765625 9.644531 281.128906 8.710938 C 281.296875 8.269531 281.367188 8.085938 281.367188 7.808594 C 281.367188 7.210938 280.933594 6.695313 280.265625 6.695313 C 278.988281 6.695313 278.472656 8.710938 278.472656 8.824219 C 278.472656 8.878906 278.527344 8.949219 278.625 8.949219 C 278.75 8.949219 278.765625 8.894531 278.820313 8.699219 C 279.152344 7.503906 279.695313 6.976563 280.226563 6.976563 C 280.363281 6.976563 280.585938 6.988281 280.585938 7.433594 C 280.585938 7.796875 280.433594 8.199219 280.226563 8.726563 C 279.613281 10.382813 279.542969 10.910156 279.542969 11.328125 C 279.542969 12.746094 280.613281 12.96875 281.183594 12.96875 C 282.074219 12.96875 282.5625 12.355469 282.839844 12.023438 C 283.019531 12.800781 283.6875 12.96875 284.023438 12.96875 C 284.464844 12.96875 284.800781 12.675781 285.023438 12.203125 C 285.261719 11.703125 285.441406 10.882813 285.441406 10.839844 Z M 285.441406 10.839844 "/>
<path style="fill:none;stroke-width:0.557991;stroke-linecap:square;stroke-linejoin:miter;stroke:rgb(0%,0%,0%);stroke-opacity:1;stroke-miterlimit:10;" d="M 268.734375 18.785156 L 295.175781 18.785156 "/>
<path style=" stroke:none;fill-rule:evenodd;fill:rgb(0%,0%,0%);fill-opacity:1;" d="M 276.042969 29.839844 C 276.042969 29.773438 275.984375 29.714844 275.902344 29.714844 C 275.773438 29.714844 275.761719 29.785156 275.707031 29.992188 C 275.457031 30.953125 275.207031 31.691406 274.648438 31.691406 C 274.230469 31.691406 274.230469 31.230469 274.230469 31.050781 C 274.230469 30.730469 274.273438 30.59375 274.414063 30.007813 L 274.691406 28.867188 L 275.261719 26.601563 C 275.359375 26.253906 275.359375 26.226563 275.359375 26.183594 C 275.359375 25.976563 275.191406 25.835938 274.984375 25.835938 C 274.582031 25.835938 274.484375 26.183594 274.398438 26.53125 L 273.410156 30.550781 C 273.410156 30.550781 272.855469 31.691406 271.839844 31.691406 C 271.117188 31.691406 270.976563 31.0625 270.976563 30.550781 C 270.976563 29.757813 271.367188 28.644531 271.726563 27.710938 C 271.894531 27.269531 271.964844 27.085938 271.964844 26.808594 C 271.964844 26.210938 271.535156 25.695313 270.867188 25.695313 C 269.589844 25.695313 269.074219 27.710938 269.074219 27.824219 C 269.074219 27.878906 269.128906 27.949219 269.226563 27.949219 C 269.351563 27.949219 269.363281 27.894531 269.421875 27.699219 C 269.753906 26.503906 270.296875 25.976563 270.824219 25.976563 C 270.964844 25.976563 271.1875 25.988281 271.1875 26.433594 C 271.1875 26.796875 271.035156 27.199219 270.824219 27.726563 C 270.214844 29.382813 270.144531 29.910156 270.144531 30.328125 C 270.144531 31.746094 271.214844 31.96875 271.785156 31.96875 C 272.675781 31.96875 273.160156 31.355469 273.4375 31.023438 C 273.621094 31.800781 274.289063 31.96875 274.621094 31.96875 C 275.066406 31.96875 275.398438 31.675781 275.625 31.203125 C 275.859375 30.703125 276.042969 29.882813 276.042969 29.839844 Z M 276.042969 29.839844 "/>
<path style=" stroke:none;fill-rule:evenodd;fill:rgb(0%,0%,0%);fill-opacity:1;" d="M 284.449219 33.929688 L 284.449219 33.625 C 283.941406 33.625 283.695313 33.625 283.6875 33.332031 L 283.6875 31.464844 C 283.6875 30.625 283.6875 30.320313 283.382813 29.96875 C 283.246094 29.800781 282.925781 29.605469 282.355469 29.605469 C 281.535156 29.605469 281.101563 30.195313 280.9375 30.566406 C 280.800781 29.714844 280.078125 29.605469 279.636719 29.605469 C 278.921875 29.605469 278.464844 30.027344 278.1875 30.632813 L 278.1875 29.605469 L 276.808594 29.714844 L 276.808594 30.015625 C 277.496094 30.015625 277.574219 30.085938 277.574219 30.566406 L 277.574219 33.1875 C 277.574219 33.625 277.464844 33.625 276.808594 33.625 L 276.808594 33.929688 L 277.917969 33.898438 L 279.011719 33.929688 L 279.011719 33.625 C 278.355469 33.625 278.246094 33.625 278.246094 33.1875 L 278.246094 31.386719 C 278.246094 30.367188 278.941406 29.820313 279.570313 29.820313 C 280.183594 29.820313 280.292969 30.351563 280.292969 30.90625 L 280.292969 33.1875 C 280.292969 33.625 280.183594 33.625 279.53125 33.625 L 279.53125 33.929688 L 280.636719 33.898438 L 281.730469 33.929688 L 281.730469 33.625 C 281.074219 33.625 280.96875 33.625 280.96875 33.1875 L 280.96875 31.386719 C 280.96875 30.367188 281.660156 29.820313 282.289063 29.820313 C 282.902344 29.820313 283.011719 30.351563 283.011719 30.90625 L 283.011719 33.1875 C 283.011719 33.625 282.902344 33.625 282.25 33.625 L 282.25 33.929688 L 283.351563 33.898438 Z M 284.449219 33.929688 "/>
<path style=" stroke:none;fill-rule:evenodd;fill:rgb(0%,0%,0%);fill-opacity:1;" d="M 289.320313 33.058594 L 289.320313 32.511719 L 289.078125 32.511719 L 289.078125 33.058594 C 289.078125 33.625 288.832031 33.6875 288.726563 33.6875 C 288.402344 33.6875 288.363281 33.246094 288.363281 33.195313 L 288.363281 31.242188 C 288.363281 30.828125 288.363281 30.449219 288.011719 30.085938 C 287.628906 29.703125 287.140625 29.546875 286.671875 29.546875 C 285.871094 29.546875 285.195313 30.007813 285.195313 30.652344 C 285.195313 30.945313 285.390625 31.113281 285.644531 31.113281 C 285.917969 31.113281 286.09375 30.917969 286.09375 30.664063 C 286.09375 30.546875 286.042969 30.222656 285.59375 30.210938 C 285.859375 29.871094 286.339844 29.761719 286.652344 29.761719 C 287.128906 29.761719 287.6875 30.144531 287.6875 31.015625 L 287.6875 31.375 C 287.1875 31.40625 286.503906 31.4375 285.886719 31.730469 C 285.15625 32.0625 284.910156 32.570313 284.910156 33 C 284.910156 33.792969 285.859375 34.039063 286.476563 34.039063 C 287.121094 34.039063 287.570313 33.644531 287.757813 33.1875 C 287.796875 33.578125 288.058594 33.988281 288.519531 33.988281 C 288.726563 33.988281 289.320313 33.851563 289.320313 33.058594 Z M 287.6875 32.5625 C 287.6875 33.488281 286.984375 33.820313 286.542969 33.820313 C 286.0625 33.820313 285.664063 33.480469 285.664063 32.992188 C 285.664063 32.453125 286.074219 31.640625 287.6875 31.582031 Z M 287.6875 32.5625 "/>
<path style=" stroke:none;fill-rule:evenodd;fill:rgb(0%,0%,0%);fill-opacity:1;" d="M 294.542969 33.929688 L 294.542969 33.625 C 294.015625 33.625 293.839844 33.605469 293.613281 33.324219 L 292.304688 31.632813 C 292.597656 31.257813 292.96875 30.78125 293.203125 30.527344 C 293.507813 30.171875 293.90625 30.027344 294.367188 30.015625 L 294.367188 29.714844 C 294.113281 29.734375 293.820313 29.742188 293.566406 29.742188 C 293.273438 29.742188 292.753906 29.722656 292.628906 29.714844 L 292.628906 30.015625 C 292.832031 30.039063 292.910156 30.164063 292.910156 30.320313 C 292.910156 30.476563 292.8125 30.605469 292.765625 30.664063 L 292.15625 31.425781 L 291.394531 30.4375 C 291.304688 30.339844 291.304688 30.320313 291.304688 30.261719 C 291.304688 30.117188 291.453125 30.027344 291.648438 30.015625 L 291.648438 29.714844 L 290.59375 29.742188 C 290.386719 29.742188 289.925781 29.734375 289.664063 29.714844 L 289.664063 30.015625 C 290.347656 30.015625 290.359375 30.027344 290.816406 30.613281 L 291.785156 31.875 C 291.328125 32.460938 291.328125 32.484375 290.867188 33.039063 C 290.398438 33.605469 289.820313 33.625 289.613281 33.625 L 289.613281 33.929688 C 289.867188 33.910156 290.171875 33.898438 290.425781 33.898438 L 291.355469 33.929688 L 291.355469 33.625 C 291.140625 33.597656 291.070313 33.46875 291.070313 33.324219 C 291.070313 33.109375 291.355469 32.785156 291.953125 32.082031 L 292.695313 33.058594 C 292.773438 33.167969 292.898438 33.324219 292.898438 33.382813 C 292.898438 33.46875 292.8125 33.617188 292.550781 33.625 L 292.550781 33.929688 L 293.605469 33.898438 C 293.867188 33.898438 294.25 33.910156 294.542969 33.929688 Z M 294.542969 33.929688 "/>
</g>
</svg>
