<?xml version="1.0" encoding="UTF-8"?>
<svg xmlns="http://www.w3.org/2000/svg" xmlns:xlink="http://www.w3.org/1999/xlink" width="39pt" height="30pt" viewBox="0 0 39 30" version="1.1">
<g id="surface40">
<path style=" stroke:none;fill-rule:evenodd;fill:rgb(0%,0%,0%);fill-opacity:1;" d="M 7.9375 13.492188 C 7.9375 13.1875 7.675781 13.1875 7.425781 13.1875 L 3.601563 13.1875 C 3.28125 13.1875 2.808594 13.1875 2.167969 13.867188 C 1.808594 14.269531 1.363281 15.007813 1.363281 15.089844 C 1.363281 15.175781 1.433594 15.203125 1.515625 15.203125 C 1.613281 15.203125 1.628906 15.160156 1.695313 15.078125 C 2.417969 13.9375 3.144531 13.9375 3.488281 13.9375 L 4.644531 13.9375 L 3.199219 18.707031 C 3.128906 18.914063 3.128906 18.945313 3.128906 18.984375 C 3.128906 19.136719 3.226563 19.332031 3.503906 19.332031 C 3.933594 19.332031 4.003906 18.957031 4.046875 18.746094 L 4.992188 13.9375 L 7.300781 13.9375 C 7.480469 13.9375 7.9375 13.9375 7.9375 13.492188 Z M 7.9375 13.492188 "/>
<path style=" stroke:none;fill-rule:evenodd;fill:rgb(0%,0%,0%);fill-opacity:1;" d="M 22.234375 14.421875 C 22.234375 14.160156 21.996094 14.160156 21.789063 14.160156 L 13.59375 14.160156 C 13.402344 14.160156 13.152344 14.160156 13.152344 14.410156 C 13.152344 14.671875 13.386719 14.671875 13.59375 14.671875 L 21.789063 14.671875 C 21.984375 14.671875 22.234375 14.671875 22.234375 14.421875 Z M 22.234375 17.011719 C 22.234375 16.746094 21.996094 16.746094 21.789063 16.746094 L 13.59375 16.746094 C 13.402344 16.746094 13.152344 16.746094 13.152344 16.996094 C 13.152344 17.261719 13.386719 17.261719 13.59375 17.261719 L 21.789063 17.261719 C 21.984375 17.261719 22.234375 17.261719 22.234375 17.011719 Z M 22.234375 17.011719 "/>
<path style=" stroke:none;fill-rule:evenodd;fill:rgb(0%,0%,0%);fill-opacity:1;" d="M 34.300781 9.78125 L 34.300781 9.375 L 33.871094 9.375 C 32.644531 9.375 32.605469 9.210938 32.605469 8.710938 L 32.605469 0.867188 C 32.605469 0.546875 32.605469 0.53125 32.324219 0.53125 C 31.992188 0.90625 31.296875 1.421875 29.863281 1.421875 L 29.863281 1.824219 C 30.183594 1.824219 30.878906 1.824219 31.644531 1.460938 L 31.644531 8.710938 C 31.644531 9.210938 31.605469 9.375 30.378906 9.375 L 29.949219 9.375 L 29.949219 9.78125 C 30.324219 9.75 31.671875 9.75 32.132813 9.75 C 32.589844 9.75 33.925781 9.75 34.300781 9.78125 Z M 34.300781 9.78125 "/>
<path style="fill:none;stroke-width:0.55798;stroke-linecap:square;stroke-linejoin:miter;stroke:rgb(0%,0%,0%);stroke-opacity:1;stroke-miterlimit:10;" d="M 28.050781 15.726563 L 36.015625 15.726563 "/>
<path style=" stroke:none;fill-rule:evenodd;fill:rgb(0%,0%,0%);fill-opacity:1;" d="M 35.539063 28.808594 C 35.539063 28.75 35.527344 28.738281 35.46875 28.683594 C 35.34375 28.527344 35.246094 28.277344 35.191406 28.113281 L 32.394531 20.113281 C 32.050781 19.128906 30.949219 19.128906 30.769531 19.128906 C 30.6875 19.128906 30.535156 19.128906 30.535156 19.265625 C 30.535156 19.378906 30.617188 19.390625 30.6875 19.40625 C 30.894531 19.433594 31.0625 19.460938 31.285156 19.867188 C 31.421875 20.128906 32.855469 24.316406 32.855469 24.316406 C 32.855469 24.316406 32.839844 24.34375 32.730469 24.453125 L 29.113281 28.113281 C 28.949219 28.277344 28.835938 28.390625 28.835938 28.570313 C 28.835938 28.765625 29.003906 28.933594 29.226563 28.933594 C 29.28125 28.933594 29.433594 28.902344 29.519531 28.820313 C 29.738281 28.613281 31.730469 26.179688 32.996094 24.675781 L 34.230469 28.207031 C 34.300781 28.417969 34.371094 28.613281 34.566406 28.792969 C 34.707031 28.917969 34.734375 28.917969 35.121094 28.917969 L 35.386719 28.917969 C 35.441406 28.917969 35.539063 28.917969 35.539063 28.808594 Z M 35.539063 28.808594 "/>
</g>
</svg>
