<?xml version="1.0" encoding="UTF-8"?>
<svg xmlns="http://www.w3.org/2000/svg" xmlns:xlink="http://www.w3.org/1999/xlink" width="194pt" height="32pt" viewBox="0 0 194 32" version="1.1">
<g id="surface44">
<path style=" stroke:none;fill-rule:evenodd;fill:rgb(0%,0%,0%);fill-opacity:1;" d="M 5.242188 18.867188 C 5.242188 18.785156 5.183594 18.742188 5.101563 18.742188 C 5.101563 18.742188 5.015625 18.742188 4.992188 18.800781 C 4.992188 18.800781 4.960938 18.828125 4.863281 19.050781 C 4.574219 19.746094 3.933594 20.71875 3.125 20.71875 C 2.710938 20.71875 2.679688 20.371094 2.679688 20.066406 C 2.679688 20.066406 2.679688 19.789063 2.722656 19.621094 L 3.808594 15.269531 L 5.085938 15.269531 C 5.351563 15.269531 5.492188 15.269531 5.492188 15.019531 C 5.492188 14.863281 5.40625 14.863281 5.128906 14.863281 L 3.90625 14.863281 L 4.421875 12.832031 C 4.476563 12.640625 4.476563 12.613281 4.476563 12.515625 C 4.476563 12.292969 4.296875 12.167969 4.113281 12.167969 C 4.003906 12.167969 3.683594 12.207031 3.570313 12.652344 L 3.03125 14.863281 L 1.722656 14.863281 C 1.445313 14.863281 1.320313 14.863281 1.320313 15.128906 C 1.320313 15.269531 1.414063 15.269531 1.679688 15.269531 L 2.917969 15.269531 L 2 18.9375 C 1.890625 19.425781 1.847656 19.5625 1.847656 19.746094 C 1.847656 20.398438 2.304688 20.996094 3.085938 20.996094 C 4.488281 20.996094 5.242188 18.96875 5.242188 18.867188 Z M 5.242188 18.867188 "/>
<path style=" stroke:none;fill-rule:evenodd;fill:rgb(0%,0%,0%);fill-opacity:1;" d="M 10.011719 23.457031 L 10.011719 23.152344 L 9.699219 23.152344 C 8.816406 23.152344 8.785156 23.046875 8.785156 22.683594 L 8.785156 17.199219 C 8.785156 16.964844 8.785156 16.945313 8.5625 16.945313 C 7.957031 17.570313 7.09375 17.570313 6.78125 17.570313 L 6.78125 17.875 C 6.976563 17.875 7.554688 17.875 8.0625 17.617188 L 8.0625 22.683594 C 8.0625 23.035156 8.035156 23.152344 7.15625 23.152344 L 6.84375 23.152344 L 6.84375 23.457031 C 7.183594 23.425781 8.035156 23.425781 8.425781 23.425781 C 8.816406 23.425781 9.667969 23.425781 10.011719 23.457031 Z M 10.011719 23.457031 "/>
<path style=" stroke:none;fill-rule:evenodd;fill:rgb(0%,0%,0%);fill-opacity:1;" d="M 15.152344 16.316406 C 15.152344 16.210938 15.066406 16.121094 14.957031 16.121094 C 14.890625 16.121094 14.820313 16.152344 14.792969 16.210938 L 11.398438 25.53125 C 11.347656 25.65625 11.347656 25.707031 11.347656 25.707031 C 11.347656 25.816406 11.4375 25.902344 11.542969 25.902344 C 11.671875 25.902344 11.703125 25.832031 11.761719 25.667969 L 15.105469 16.492188 C 15.152344 16.367188 15.152344 16.316406 15.152344 16.316406 Z M 15.152344 16.316406 "/>
<path style=" stroke:none;fill-rule:evenodd;fill:rgb(0%,0%,0%);fill-opacity:1;" d="M 20.101563 21.757813 L 19.859375 21.757813 C 19.808594 22.050781 19.742188 22.480469 19.640625 22.625 C 19.574219 22.703125 18.929688 22.703125 18.714844 22.703125 L 16.953125 22.703125 L 17.992188 21.695313 C 19.515625 20.347656 20.101563 19.820313 20.101563 18.839844 C 20.101563 17.726563 19.222656 16.945313 18.03125 16.945313 C 16.921875 16.945313 16.199219 17.84375 16.199219 18.714844 C 16.199219 19.261719 16.6875 19.261719 16.71875 19.261719 C 16.882813 19.261719 17.226563 19.144531 17.226563 18.742188 C 17.226563 18.488281 17.050781 18.234375 16.707031 18.234375 C 16.628906 18.234375 16.609375 18.234375 16.582031 18.246094 C 16.804688 17.609375 17.335938 17.246094 17.902344 17.246094 C 18.792969 17.246094 19.210938 18.039063 19.210938 18.839844 C 19.210938 19.625 18.722656 20.398438 18.1875 21.003906 L 16.308594 23.09375 C 16.199219 23.203125 16.199219 23.222656 16.199219 23.457031 L 19.828125 23.457031 Z M 20.101563 21.757813 "/>
<path style=" stroke:none;fill-rule:evenodd;fill:rgb(0%,0%,0%);fill-opacity:1;" d="M 34.742188 16.101563 C 34.742188 15.839844 34.503906 15.839844 34.296875 15.839844 L 26.105469 15.839844 C 25.910156 15.839844 25.660156 15.839844 25.660156 16.085938 C 25.660156 16.351563 25.898438 16.351563 26.105469 16.351563 L 34.296875 16.351563 C 34.492188 16.351563 34.742188 16.351563 34.742188 16.101563 Z M 34.742188 18.6875 C 34.742188 18.421875 34.503906 18.421875 34.296875 18.421875 L 26.105469 18.421875 C 25.910156 18.421875 25.660156 18.421875 25.660156 18.675781 C 25.660156 18.9375 25.898438 18.9375 26.105469 18.9375 L 34.296875 18.9375 C 34.492188 18.9375 34.742188 18.9375 34.742188 18.6875 Z M 34.742188 18.6875 "/>
<path style=" stroke:none;fill-rule:evenodd;fill:rgb(0%,0%,0%);fill-opacity:1;" d="M 44.054688 11.457031 L 44.054688 11.054688 C 43.167969 11.054688 43 11.054688 43 10.429688 L 43 1.808594 L 41.066406 1.960938 L 41.066406 2.363281 C 42.011719 2.363281 42.125 2.460938 42.125 3.140625 L 42.125 10.429688 C 42.125 11.054688 41.972656 11.054688 41.066406 11.054688 L 41.066406 11.457031 C 41.457031 11.429688 42.136719 11.429688 42.554688 11.429688 C 42.972656 11.429688 43.667969 11.429688 44.054688 11.457031 Z M 44.054688 11.457031 "/>
<path style=" stroke:none;fill-rule:evenodd;fill:rgb(0%,0%,0%);fill-opacity:1;" d="M 50.789063 8.484375 C 50.789063 6.6875 49.425781 5.257813 47.816406 5.257813 C 46.148438 5.257813 44.824219 6.730469 44.824219 8.484375 C 44.824219 10.261719 46.214844 11.597656 47.800781 11.597656 C 49.441406 11.597656 50.789063 10.234375 50.789063 8.484375 Z M 49.734375 8.359375 C 49.734375 8.84375 49.734375 9.707031 49.371094 10.359375 C 48.984375 11.027344 48.34375 11.292969 47.816406 11.292969 C 47.300781 11.292969 46.675781 11.070313 46.273438 10.386719 C 45.894531 9.761719 45.882813 8.941406 45.882813 8.359375 C 45.882813 7.828125 45.882813 6.980469 46.3125 6.355469 C 46.703125 5.757813 47.3125 5.535156 47.800781 5.535156 C 48.34375 5.535156 48.929688 5.785156 49.300781 6.328125 C 49.734375 6.96875 49.734375 7.84375 49.734375 8.359375 Z M 49.734375 8.359375 "/>
<path style=" stroke:none;fill-rule:evenodd;fill:rgb(0%,0%,0%);fill-opacity:1;" d="M 57.914063 5.8125 C 57.914063 5.5625 57.71875 5.171875 57.230469 5.171875 C 56.507813 5.171875 55.964844 5.617188 55.769531 5.828125 C 55.355469 5.507813 54.867188 5.328125 54.339844 5.328125 C 53.085938 5.328125 52.15625 6.273438 52.15625 7.34375 C 52.15625 8.136719 52.640625 8.648438 52.78125 8.773438 C 52.613281 8.984375 52.363281 9.386719 52.363281 9.929688 C 52.363281 10.734375 52.851563 11.082031 52.960938 11.152344 C 52.324219 11.332031 51.683594 11.832031 51.683594 12.558594 C 51.683594 13.515625 52.988281 14.308594 54.699219 14.308594 C 56.355469 14.308594 57.730469 13.574219 57.730469 12.527344 C 57.730469 12.183594 57.632813 11.363281 56.800781 10.929688 C 56.089844 10.566406 55.394531 10.566406 54.199219 10.566406 C 53.351563 10.566406 53.253906 10.566406 53.003906 10.304688 C 52.863281 10.164063 52.738281 9.902344 52.738281 9.609375 C 52.738281 9.371094 52.824219 9.136719 52.960938 8.941406 C 53.617188 9.371094 54.171875 9.371094 54.324219 9.371094 C 55.574219 9.371094 56.507813 8.429688 56.507813 7.355469 C 56.507813 6.980469 56.398438 6.453125 55.953125 6.007813 C 56.492188 5.453125 57.148438 5.453125 57.21875 5.453125 C 57.273438 5.453125 57.34375 5.453125 57.398438 5.480469 C 57.257813 5.535156 57.1875 5.671875 57.1875 5.828125 C 57.1875 6.023438 57.328125 6.1875 57.550781 6.1875 C 57.664063 6.1875 57.914063 6.117188 57.914063 5.8125 Z M 55.550781 7.34375 C 55.550781 7.59375 55.550781 8.164063 55.3125 8.539063 C 55.046875 8.941406 54.628906 9.082031 54.339844 9.082031 C 53.113281 9.082031 53.113281 7.675781 53.113281 7.355469 C 53.113281 7.105469 53.113281 6.535156 53.351563 6.160156 C 53.617188 5.757813 54.035156 5.617188 54.324219 5.617188 C 55.550781 5.617188 55.550781 7.023438 55.550781 7.34375 Z M 57.050781 12.542969 C 57.050781 13.363281 55.996094 14.019531 54.714844 14.019531 C 53.378906 14.019531 52.363281 13.335938 52.363281 12.542969 C 52.363281 12.433594 52.390625 11.890625 52.917969 11.527344 C 53.226563 11.332031 53.351563 11.332031 54.324219 11.332031 C 55.480469 11.332031 57.050781 11.332031 57.050781 12.542969 Z M 57.050781 12.542969 "/>
<path style=" stroke:none;fill-rule:evenodd;fill:rgb(0%,0%,0%);fill-opacity:1;" d="M 62.828125 14.839844 C 62.828125 14.796875 62.828125 14.769531 62.589844 14.53125 C 61.199219 13.128906 60.421875 10.832031 60.421875 7.996094 C 60.421875 5.296875 61.074219 2.976563 62.6875 1.335938 C 62.828125 1.210938 62.828125 1.183594 62.828125 1.140625 C 62.828125 1.058594 62.757813 1.03125 62.703125 1.03125 C 62.519531 1.03125 61.378906 2.03125 60.699219 3.394531 C 59.988281 4.796875 59.667969 6.285156 59.667969 7.996094 C 59.667969 9.234375 59.863281 10.886719 60.585938 12.375 C 61.40625 14.046875 62.546875 14.949219 62.703125 14.949219 C 62.757813 14.949219 62.828125 14.921875 62.828125 14.839844 Z M 62.828125 14.839844 "/>
<path style=" stroke:none;fill-rule:evenodd;fill:rgb(0%,0%,0%);fill-opacity:1;" d="M 69.722656 9.125 L 69.417969 9.125 C 69.378906 9.359375 69.265625 10.125 69.128906 10.347656 C 69.027344 10.472656 68.238281 10.472656 67.820313 10.472656 L 65.246094 10.472656 C 65.621094 10.152344 66.472656 9.261719 66.832031 8.925781 C 68.945313 6.980469 69.722656 6.257813 69.722656 4.882813 C 69.722656 3.28125 68.457031 2.210938 66.847656 2.210938 C 65.230469 2.210938 64.285156 3.585938 64.285156 4.785156 C 64.285156 5.492188 64.898438 5.492188 64.941406 5.492188 C 65.230469 5.492188 65.59375 5.285156 65.59375 4.839844 C 65.59375 4.449219 65.332031 4.1875 64.941406 4.1875 C 64.816406 4.1875 64.789063 4.1875 64.746094 4.199219 C 65.011719 3.253906 65.761719 2.613281 66.664063 2.613281 C 67.847656 2.613281 68.570313 3.601563 68.570313 4.882813 C 68.570313 6.0625 67.886719 7.09375 67.097656 7.984375 L 64.285156 11.125 L 64.285156 11.457031 L 69.363281 11.457031 Z M 69.722656 9.125 "/>
<path style=" stroke:none;fill-rule:evenodd;fill:rgb(0%,0%,0%);fill-opacity:1;" d="M 74.328125 7.996094 C 74.328125 6.9375 74.1875 5.214844 73.410156 3.601563 C 72.585938 1.933594 71.449219 1.03125 71.296875 1.03125 C 71.238281 1.03125 71.171875 1.058594 71.171875 1.140625 C 71.171875 1.183594 71.171875 1.210938 71.40625 1.449219 C 72.796875 2.851563 73.574219 5.144531 73.574219 7.984375 C 73.574219 10.679688 72.921875 13.003906 71.308594 14.644531 C 71.171875 14.769531 71.171875 14.796875 71.171875 14.839844 C 71.171875 14.921875 71.238281 14.949219 71.296875 14.949219 C 71.476563 14.949219 72.617188 13.949219 73.296875 12.585938 C 74.007813 11.167969 74.328125 9.664063 74.328125 7.996094 Z M 74.328125 7.996094 "/>
<path style="fill:none;stroke-width:0.557937;stroke-linecap:square;stroke-linejoin:miter;stroke:rgb(0%,0%,0%);stroke-opacity:1;stroke-miterlimit:10;" d="M 40.644531 17.40625 L 75.726563 17.40625 "/>
<path style=" stroke:none;fill-rule:evenodd;fill:rgb(0%,0%,0%);fill-opacity:1;" d="M 61.648438 30.484375 C 61.648438 30.429688 61.632813 30.414063 61.578125 30.359375 C 61.453125 30.207031 61.355469 29.957031 61.296875 29.789063 L 58.503906 21.792969 C 58.15625 20.804688 57.058594 20.804688 56.875 20.804688 C 56.792969 20.804688 56.640625 20.804688 56.640625 20.945313 C 56.640625 21.054688 56.722656 21.070313 56.792969 21.085938 C 57 21.113281 57.167969 21.140625 57.390625 21.542969 C 57.53125 21.808594 58.960938 25.992188 58.960938 25.992188 C 58.960938 25.992188 58.949219 26.019531 58.835938 26.132813 L 55.222656 29.789063 C 55.054688 29.957031 54.945313 30.066406 54.945313 30.246094 C 54.945313 30.441406 55.113281 30.609375 55.332031 30.609375 C 55.390625 30.609375 55.542969 30.582031 55.625 30.5 C 55.847656 30.289063 57.835938 27.855469 59.101563 26.355469 L 60.339844 29.886719 C 60.410156 30.09375 60.476563 30.289063 60.671875 30.46875 C 60.8125 30.59375 60.839844 30.59375 61.230469 30.59375 L 61.492188 30.59375 C 61.550781 30.59375 61.648438 30.59375 61.648438 30.484375 Z M 61.648438 30.484375 "/>
<path style=" stroke:none;fill-rule:evenodd;fill:rgb(0%,0%,0%);fill-opacity:1;" d="M 90.636719 16.101563 C 90.636719 15.839844 90.398438 15.839844 90.191406 15.839844 L 82 15.839844 C 81.804688 15.839844 81.554688 15.839844 81.554688 16.085938 C 81.554688 16.351563 81.792969 16.351563 82 16.351563 L 90.191406 16.351563 C 90.386719 16.351563 90.636719 16.351563 90.636719 16.101563 Z M 90.636719 18.6875 C 90.636719 18.421875 90.398438 18.421875 90.191406 18.421875 L 82 18.421875 C 81.804688 18.421875 81.554688 18.421875 81.554688 18.675781 C 81.554688 18.9375 81.792969 18.9375 82 18.9375 L 90.191406 18.9375 C 90.386719 18.9375 90.636719 18.9375 90.636719 18.6875 Z M 90.636719 18.6875 "/>
<path style=" stroke:none;fill-rule:evenodd;fill:rgb(0%,0%,0%);fill-opacity:1;" d="M 98.75 20.859375 L 98.75 20.453125 C 97.863281 20.453125 97.695313 20.453125 97.695313 19.828125 L 97.695313 11.207031 L 95.761719 11.359375 L 95.761719 11.761719 C 96.707031 11.761719 96.816406 11.859375 96.816406 12.542969 L 96.816406 19.828125 C 96.816406 20.453125 96.664063 20.453125 95.761719 20.453125 L 95.761719 20.859375 C 96.152344 20.828125 96.832031 20.828125 97.25 20.828125 C 97.667969 20.828125 98.359375 20.828125 98.75 20.859375 Z M 98.75 20.859375 "/>
<path style=" stroke:none;fill-rule:evenodd;fill:rgb(0%,0%,0%);fill-opacity:1;" d="M 105.484375 17.882813 C 105.484375 16.085938 104.121094 14.65625 102.507813 14.65625 C 100.839844 14.65625 99.519531 16.128906 99.519531 17.882813 C 99.519531 19.664063 100.910156 20.996094 102.496094 20.996094 C 104.136719 20.996094 105.484375 19.632813 105.484375 17.882813 Z M 104.429688 17.757813 C 104.429688 18.242188 104.429688 19.105469 104.066406 19.757813 C 103.675781 20.425781 103.039063 20.691406 102.507813 20.691406 C 101.992188 20.691406 101.367188 20.46875 100.964844 19.789063 C 100.589844 19.160156 100.574219 18.339844 100.574219 17.757813 C 100.574219 17.226563 100.574219 16.378906 101.007813 15.753906 C 101.398438 15.15625 102.007813 14.933594 102.496094 14.933594 C 103.039063 14.933594 103.621094 15.183594 103.996094 15.726563 C 104.429688 16.367188 104.429688 17.242188 104.429688 17.757813 Z M 104.429688 17.757813 "/>
<path style=" stroke:none;fill-rule:evenodd;fill:rgb(0%,0%,0%);fill-opacity:1;" d="M 112.507813 15.210938 C 112.507813 14.960938 112.3125 14.574219 111.824219 14.574219 C 111.101563 14.574219 110.558594 15.019531 110.363281 15.226563 C 109.949219 14.90625 109.460938 14.726563 108.933594 14.726563 C 107.679688 14.726563 106.75 15.671875 106.75 16.742188 C 106.75 17.535156 107.234375 18.046875 107.375 18.171875 C 107.207031 18.382813 106.957031 18.785156 106.957031 19.328125 C 106.957031 20.132813 107.445313 20.484375 107.554688 20.550781 C 106.917969 20.734375 106.277344 21.234375 106.277344 21.957031 C 106.277344 22.914063 107.582031 23.707031 109.292969 23.707031 C 110.949219 23.707031 112.324219 22.972656 112.324219 21.929688 C 112.324219 21.582031 112.226563 20.761719 111.394531 20.328125 C 110.683594 19.96875 109.988281 19.96875 108.792969 19.96875 C 107.945313 19.96875 107.847656 19.96875 107.597656 19.703125 C 107.457031 19.5625 107.332031 19.300781 107.332031 19.007813 C 107.332031 18.773438 107.417969 18.535156 107.554688 18.339844 C 108.210938 18.773438 108.765625 18.773438 108.917969 18.773438 C 110.167969 18.773438 111.101563 17.828125 111.101563 16.753906 C 111.101563 16.378906 110.992188 15.851563 110.546875 15.40625 C 111.089844 14.851563 111.742188 14.851563 111.8125 14.851563 C 111.867188 14.851563 111.9375 14.851563 111.992188 14.878906 C 111.851563 14.933594 111.785156 15.074219 111.785156 15.226563 C 111.785156 15.421875 111.921875 15.589844 112.144531 15.589844 C 112.257813 15.589844 112.507813 15.519531 112.507813 15.210938 Z M 110.140625 16.742188 C 110.140625 16.992188 110.140625 17.5625 109.90625 17.9375 C 109.640625 18.339844 109.222656 18.480469 108.933594 18.480469 C 107.707031 18.480469 107.707031 17.074219 107.707031 16.753906 C 107.707031 16.503906 107.707031 15.933594 107.945313 15.558594 C 108.210938 15.15625 108.628906 15.019531 108.917969 15.019531 C 110.140625 15.019531 110.140625 16.421875 110.140625 16.742188 Z M 111.644531 21.941406 C 111.644531 22.761719 110.589844 23.417969 109.308594 23.417969 C 107.972656 23.417969 106.957031 22.734375 106.957031 21.941406 C 106.957031 21.832031 106.984375 21.289063 107.515625 20.929688 C 107.820313 20.734375 107.945313 20.734375 108.917969 20.734375 C 110.074219 20.734375 111.644531 20.734375 111.644531 21.941406 Z M 111.644531 21.941406 "/>
<path style=" stroke:none;fill-rule:evenodd;fill:rgb(0%,0%,0%);fill-opacity:1;" d="M 117.417969 24.238281 C 117.417969 24.195313 117.417969 24.167969 117.183594 23.929688 C 115.792969 22.527344 115.015625 20.230469 115.015625 17.394531 C 115.015625 14.699219 115.667969 12.375 117.28125 10.734375 C 117.417969 10.609375 117.417969 10.582031 117.417969 10.539063 C 117.417969 10.457031 117.351563 10.429688 117.292969 10.429688 C 117.113281 10.429688 115.972656 11.429688 115.292969 12.792969 C 114.582031 14.199219 114.261719 15.683594 114.261719 17.394531 C 114.261719 18.632813 114.457031 20.289063 115.179688 21.773438 C 116 23.445313 117.140625 24.347656 117.292969 24.347656 C 117.351563 24.347656 117.417969 24.320313 117.417969 24.238281 Z M 117.417969 24.238281 "/>
<path style=" stroke:none;fill-rule:evenodd;fill:rgb(0%,0%,0%);fill-opacity:1;" d="M 124.316406 18.523438 L 124.011719 18.523438 C 123.972656 18.757813 123.859375 19.523438 123.722656 19.746094 C 123.621094 19.871094 122.832031 19.871094 122.414063 19.871094 L 119.839844 19.871094 C 120.214844 19.550781 121.066406 18.660156 121.425781 18.328125 C 123.539063 16.378906 124.316406 15.65625 124.316406 14.28125 C 124.316406 12.679688 123.050781 11.609375 121.441406 11.609375 C 119.828125 11.609375 118.878906 12.988281 118.878906 14.183594 C 118.878906 14.894531 119.492188 14.894531 119.535156 14.894531 C 119.828125 14.894531 120.1875 14.683594 120.1875 14.238281 C 120.1875 13.847656 119.925781 13.585938 119.535156 13.585938 C 119.410156 13.585938 119.382813 13.585938 119.339844 13.597656 C 119.605469 12.652344 120.355469 12.011719 121.257813 12.011719 C 122.441406 12.011719 123.164063 13 123.164063 14.28125 C 123.164063 15.464844 122.480469 16.492188 121.691406 17.382813 L 118.878906 20.523438 L 118.878906 20.859375 L 123.957031 20.859375 Z M 124.316406 18.523438 "/>
<path style=" stroke:none;fill-rule:evenodd;fill:rgb(0%,0%,0%);fill-opacity:1;" d="M 129.019531 17.394531 C 129.019531 16.335938 128.882813 14.613281 128.105469 13 C 127.28125 11.332031 126.144531 10.429688 125.988281 10.429688 C 125.933594 10.429688 125.863281 10.457031 125.863281 10.539063 C 125.863281 10.582031 125.863281 10.609375 126.101563 10.847656 C 127.492188 12.25 128.269531 14.542969 128.269531 17.382813 C 128.269531 20.078125 127.617188 22.402344 126.003906 24.042969 C 125.863281 24.167969 125.863281 24.195313 125.863281 24.238281 C 125.863281 24.320313 125.933594 24.347656 125.988281 24.347656 C 126.167969 24.347656 127.308594 23.347656 127.992188 21.984375 C 128.699219 20.566406 129.019531 19.0625 129.019531 17.394531 Z M 129.019531 17.394531 "/>
<path style=" stroke:none;fill-rule:evenodd;fill:rgb(0%,0%,0%);fill-opacity:1;" d="M 139.636719 15.171875 C 139.636719 14.863281 139.371094 14.863281 139.121094 14.863281 L 135.296875 14.863281 C 134.980469 14.863281 134.503906 14.863281 133.867188 15.546875 C 133.503906 15.949219 133.058594 16.6875 133.058594 16.769531 C 133.058594 16.851563 133.128906 16.878906 133.210938 16.878906 C 133.3125 16.878906 133.324219 16.839844 133.394531 16.753906 C 134.117188 15.613281 134.839844 15.613281 135.1875 15.613281 L 136.339844 15.613281 L 134.894531 20.382813 C 134.824219 20.59375 134.824219 20.621094 134.824219 20.664063 C 134.824219 20.816406 134.921875 21.011719 135.199219 21.011719 C 135.632813 21.011719 135.703125 20.636719 135.742188 20.425781 L 136.6875 15.613281 L 138.996094 15.613281 C 139.179688 15.613281 139.636719 15.613281 139.636719 15.171875 Z M 139.636719 15.171875 "/>
<path style=" stroke:none;fill-rule:evenodd;fill:rgb(0%,0%,0%);fill-opacity:1;" d="M 154.121094 14.574219 C 154.121094 14.28125 154.027344 14.15625 153.929688 14.15625 C 153.789063 14.15625 153.746094 14.390625 153.734375 14.53125 C 153.679688 15.476563 152.703125 16.058594 151.816406 16.058594 C 150.980469 16.058594 150.355469 15.644531 149.410156 15.019531 C 148.808594 14.628906 148.074219 14.140625 147.183594 14.140625 C 145.90625 14.140625 144.875 15.113281 144.875 16.40625 C 144.875 16.714844 144.972656 16.824219 145.070313 16.824219 C 145.222656 16.824219 145.265625 16.574219 145.265625 16.503906 C 145.335938 15.335938 146.488281 14.917969 147.183594 14.917969 C 148.019531 14.917969 148.644531 15.335938 149.589844 15.964844 C 150.1875 16.351563 150.925781 16.839844 151.816406 16.839844 C 153.09375 16.839844 154.121094 15.867188 154.121094 14.574219 Z M 154.121094 17.828125 C 154.121094 17.535156 154.027344 17.394531 153.929688 17.394531 C 153.777344 17.394531 153.746094 17.632813 153.734375 17.839844 C 153.664063 18.632813 152.800781 19.300781 151.816406 19.300781 C 150.980469 19.300781 150.355469 18.882813 149.410156 18.257813 C 148.808594 17.867188 148.074219 17.382813 147.183594 17.382813 C 145.90625 17.382813 144.875 18.355469 144.875 19.648438 C 144.875 19.953125 144.972656 20.066406 145.070313 20.066406 C 145.222656 20.066406 145.265625 19.8125 145.265625 19.746094 C 145.335938 18.578125 146.488281 18.160156 147.183594 18.160156 C 148.019531 18.160156 148.644531 18.578125 149.589844 19.203125 C 150.1875 19.59375 150.925781 20.078125 151.816406 20.078125 C 153.121094 20.078125 154.121094 19.0625 154.121094 17.828125 Z M 154.121094 17.828125 "/>
<path style=" stroke:none;fill-rule:evenodd;fill:rgb(0%,0%,0%);fill-opacity:1;" d="M 165.023438 16.40625 C 165.023438 15.253906 164.957031 14.128906 164.457031 13.070313 C 163.886719 11.917969 162.882813 11.609375 162.203125 11.609375 C 161.394531 11.609375 160.40625 12.011719 159.894531 13.167969 C 159.503906 14.042969 159.363281 14.90625 159.363281 16.40625 C 159.363281 17.757813 159.460938 18.773438 159.964844 19.757813 C 160.507813 20.816406 161.464844 21.148438 162.1875 21.148438 C 163.398438 21.148438 164.09375 20.425781 164.496094 19.621094 C 164.996094 18.578125 165.023438 17.214844 165.023438 16.40625 Z M 163.96875 16.242188 C 163.96875 17.171875 163.96875 18.230469 163.816406 19.078125 C 163.550781 20.609375 162.675781 20.871094 162.1875 20.871094 C 161.742188 20.871094 160.839844 20.621094 160.574219 19.105469 C 160.421875 18.269531 160.421875 17.214844 160.421875 16.242188 C 160.421875 15.101563 160.421875 14.074219 160.644531 13.25 C 160.882813 12.320313 161.589844 11.886719 162.1875 11.886719 C 162.714844 11.886719 163.523438 12.207031 163.785156 13.402344 C 163.96875 14.199219 163.96875 15.296875 163.96875 16.242188 Z M 163.96875 16.242188 "/>
<path style=" stroke:none;fill-rule:evenodd;fill:rgb(0%,0%,0%);fill-opacity:1;" d="M 168.152344 20.191406 C 168.152344 19.789063 167.820313 19.507813 167.484375 19.507813 C 167.082031 19.507813 166.804688 19.84375 166.804688 20.175781 C 166.804688 20.578125 167.136719 20.859375 167.472656 20.859375 C 167.875 20.859375 168.152344 20.523438 168.152344 20.191406 Z M 168.152344 20.191406 "/>
<path style=" stroke:none;fill-rule:evenodd;fill:rgb(0%,0%,0%);fill-opacity:1;" d="M 175.625 18.019531 C 175.625 16.171875 174.332031 14.933594 172.941406 14.933594 C 171.703125 14.933594 171.242188 16.003906 171.105469 16.394531 L 171.105469 16.019531 C 171.105469 12.5 172.816406 11.945313 173.566406 11.945313 C 174.066406 11.945313 174.566406 12.097656 174.832031 12.515625 C 174.664063 12.515625 174.136719 12.515625 174.136719 13.085938 C 174.136719 13.390625 174.34375 13.652344 174.707031 13.652344 C 175.054688 13.652344 175.289063 13.445313 175.289063 13.042969 C 175.289063 12.320313 174.761719 11.609375 173.550781 11.609375 C 171.800781 11.609375 169.964844 13.402344 169.964844 16.460938 C 169.964844 20.289063 171.632813 21.148438 172.816406 21.148438 C 174.332031 21.148438 175.625 19.828125 175.625 18.019531 Z M 174.484375 18.007813 C 174.484375 18.714844 174.484375 19.34375 174.21875 19.871094 C 173.871094 20.539063 173.371094 20.773438 172.816406 20.773438 C 171.9375 20.773438 171.523438 19.996094 171.398438 19.703125 C 171.273438 19.34375 171.132813 18.660156 171.132813 17.6875 C 171.132813 16.589844 171.632813 15.210938 172.882813 15.210938 C 173.648438 15.210938 174.050781 15.726563 174.261719 16.199219 C 174.484375 16.714844 174.484375 17.410156 174.484375 18.007813 Z M 174.484375 18.007813 "/>
<path style=" stroke:none;fill-rule:evenodd;fill:rgb(0%,0%,0%);fill-opacity:1;" d="M 182.421875 16.28125 C 182.421875 12.542969 180.867188 11.609375 179.640625 11.609375 C 178.113281 11.609375 176.761719 12.890625 176.761719 14.726563 C 176.761719 16.5625 178.058594 17.8125 179.449219 17.8125 C 180.476563 17.8125 181.003906 17.0625 181.285156 16.351563 L 181.285156 16.8125 C 181.285156 20.09375 179.824219 20.773438 178.988281 20.773438 C 178.652344 20.773438 177.917969 20.734375 177.570313 20.246094 L 177.652344 20.246094 C 177.75 20.273438 178.25 20.191406 178.25 19.675781 C 178.25 19.371094 178.042969 19.105469 177.679688 19.105469 C 177.320313 19.105469 177.097656 19.34375 177.097656 19.703125 C 177.097656 20.566406 177.792969 21.148438 179 21.148438 C 180.738281 21.148438 182.421875 19.300781 182.421875 16.28125 Z M 181.253906 15.03125 C 181.253906 16.199219 180.726563 17.535156 179.5 17.535156 C 178.625 17.535156 178.25 16.824219 178.125 16.5625 C 177.902344 16.03125 177.902344 15.363281 177.902344 14.738281 C 177.902344 13.960938 177.902344 13.292969 178.265625 12.722656 C 178.515625 12.347656 178.890625 11.945313 179.640625 11.945313 C 180.433594 11.945313 180.835938 12.640625 180.976563 12.957031 C 181.253906 13.640625 181.253906 14.824219 181.253906 15.03125 Z M 181.253906 15.03125 "/>
<path style=" stroke:none;fill-rule:evenodd;fill:rgb(0%,0%,0%);fill-opacity:1;" d="M 192.332031 15.171875 C 192.332031 14.863281 192.066406 14.863281 191.816406 14.863281 L 187.992188 14.863281 C 187.671875 14.863281 187.199219 14.863281 186.5625 15.546875 C 186.199219 15.949219 185.753906 16.6875 185.753906 16.769531 C 185.753906 16.851563 185.824219 16.878906 185.90625 16.878906 C 186.003906 16.878906 186.019531 16.839844 186.085938 16.753906 C 186.8125 15.613281 187.535156 15.613281 187.878906 15.613281 L 189.035156 15.613281 L 187.589844 20.382813 C 187.519531 20.59375 187.519531 20.621094 187.519531 20.664063 C 187.519531 20.816406 187.617188 21.011719 187.894531 21.011719 C 188.324219 21.011719 188.398438 20.636719 188.4375 20.425781 L 189.382813 15.613281 L 191.691406 15.613281 C 191.871094 15.613281 192.332031 15.613281 192.332031 15.171875 Z M 192.332031 15.171875 "/>
</g>
</svg>
