<?xml version="1.0" encoding="UTF-8"?>
<svg xmlns="http://www.w3.org/2000/svg" xmlns:xlink="http://www.w3.org/1999/xlink" width="50pt" height="28pt" viewBox="0 0 50 28" version="1.1">
<g id="surface36">
<path style=" stroke:none;fill-rule:evenodd;fill:rgb(0%,0%,0%);fill-opacity:1;" d="M 5.976563 8 C 5.976563 7.582031 5.640625 7.320313 5.304688 7.320313 C 4.917969 7.320313 4.625 7.625 4.625 8 C 4.625 8.359375 4.929688 8.667969 5.292969 8.667969 C 5.710938 8.667969 5.976563 8.335938 5.976563 8 Z M 5.976563 8 "/>
<path style=" stroke:none;fill-rule:evenodd;fill:rgb(0%,0%,0%);fill-opacity:1;" d="M 7.675781 14.410156 C 7.675781 14.34375 7.621094 14.285156 7.539063 14.285156 C 7.414063 14.285156 7.398438 14.355469 7.359375 14.46875 C 6.980469 15.691406 6.175781 16.261719 5.546875 16.261719 C 5.0625 16.261719 4.796875 15.902344 4.796875 15.332031 C 4.796875 15.023438 4.851563 14.800781 5.078125 13.882813 L 5.5625 11.992188 C 5.773438 11.15625 6.246094 10.546875 6.882813 10.546875 C 6.882813 10.546875 7.300781 10.546875 7.59375 10.726563 C 7.148438 10.808594 6.980469 11.144531 6.980469 11.40625 C 6.980469 11.742188 7.246094 11.851563 7.441406 11.851563 C 7.859375 11.851563 8.148438 11.492188 8.148438 11.117188 C 8.148438 10.53125 7.484375 10.265625 6.898438 10.265625 C 6.050781 10.265625 5.578125 11.101563 5.453125 11.367188 C 5.132813 10.320313 4.269531 10.265625 4.019531 10.265625 C 2.601563 10.265625 1.851563 12.089844 1.851563 12.394531 C 1.851563 12.449219 1.90625 12.519531 2.003906 12.519531 C 2.113281 12.519531 2.140625 12.4375 2.171875 12.382813 C 2.640625 10.835938 3.574219 10.546875 3.976563 10.546875 C 4.601563 10.546875 4.726563 11.128906 4.726563 11.464844 C 4.726563 11.769531 4.644531 12.089844 4.476563 12.757813 L 4.007813 14.660156 C 3.796875 15.496094 3.394531 16.261719 2.65625 16.261719 C 2.585938 16.261719 2.238281 16.261719 1.945313 16.082031 C 2.449219 15.984375 2.558594 15.566406 2.558594 15.398438 C 2.558594 15.121094 2.351563 14.953125 2.085938 14.953125 C 1.753906 14.953125 1.390625 15.246094 1.390625 15.691406 C 1.390625 16.277344 2.046875 16.539063 2.640625 16.539063 C 3.3125 16.539063 3.78125 16.011719 4.074219 15.441406 C 4.296875 16.261719 4.992188 16.539063 5.507813 16.539063 C 6.925781 16.539063 7.675781 14.71875 7.675781 14.410156 Z M 7.675781 14.410156 "/>
<path style=" stroke:none;fill-rule:evenodd;fill:rgb(0%,0%,0%);fill-opacity:1;" d="M 22.433594 11.644531 C 22.433594 11.378906 22.199219 11.378906 21.988281 11.378906 L 13.796875 11.378906 C 13.601563 11.378906 13.351563 11.378906 13.351563 11.628906 C 13.351563 11.894531 13.589844 11.894531 13.796875 11.894531 L 21.988281 11.894531 C 22.183594 11.894531 22.433594 11.894531 22.433594 11.644531 Z M 22.433594 14.230469 C 22.433594 13.964844 22.199219 13.964844 21.988281 13.964844 L 13.796875 13.964844 C 13.601563 13.964844 13.351563 13.964844 13.351563 14.21875 C 13.351563 14.480469 13.589844 14.480469 13.796875 14.480469 L 21.988281 14.480469 C 22.183594 14.480469 22.433594 14.480469 22.433594 14.230469 Z M 22.433594 14.230469 "/>
<path style=" stroke:none;fill-rule:evenodd;fill:rgb(0%,0%,0%);fill-opacity:1;" d="M 36.753906 12.925781 C 36.753906 12.644531 36.488281 12.644531 36.292969 12.644531 L 28.714844 12.644531 C 28.519531 12.644531 28.257813 12.644531 28.257813 12.925781 C 28.257813 13.203125 28.519531 13.203125 28.714844 13.203125 L 36.292969 13.203125 C 36.488281 13.203125 36.753906 13.203125 36.753906 12.925781 Z M 36.753906 12.925781 "/>
<path style=" stroke:none;fill-rule:evenodd;fill:rgb(0%,0%,0%);fill-opacity:1;" d="M 45.878906 5.011719 C 45.878906 4.941406 45.824219 4.886719 45.738281 4.886719 C 45.613281 4.886719 45.601563 4.957031 45.558594 5.066406 C 45.183594 6.289063 44.375 6.859375 43.75 6.859375 C 43.265625 6.859375 43 6.5 43 5.929688 C 43 5.625 43.054688 5.398438 43.277344 4.484375 L 43.765625 2.59375 C 43.972656 1.757813 44.445313 1.144531 45.085938 1.144531 C 45.085938 1.144531 45.503906 1.144531 45.796875 1.328125 C 45.351563 1.410156 45.183594 1.742188 45.183594 2.007813 C 45.183594 2.339844 45.445313 2.453125 45.640625 2.453125 C 46.058594 2.453125 46.351563 2.089844 46.351563 1.714844 C 46.351563 1.132813 45.683594 0.867188 45.101563 0.867188 C 44.25 0.867188 43.777344 1.703125 43.652344 1.964844 C 43.332031 0.921875 42.472656 0.867188 42.21875 0.867188 C 40.800781 0.867188 40.050781 2.6875 40.050781 2.996094 C 40.050781 3.050781 40.105469 3.121094 40.203125 3.121094 C 40.316406 3.121094 40.34375 3.035156 40.371094 2.980469 C 40.84375 1.4375 41.777344 1.144531 42.179688 1.144531 C 42.804688 1.144531 42.929688 1.730469 42.929688 2.0625 C 42.929688 2.367188 42.847656 2.6875 42.679688 3.355469 L 42.207031 5.261719 C 42 6.09375 41.59375 6.859375 40.859375 6.859375 C 40.789063 6.859375 40.441406 6.859375 40.148438 6.679688 C 40.648438 6.582031 40.761719 6.164063 40.761719 6 C 40.761719 5.71875 40.550781 5.554688 40.285156 5.554688 C 39.953125 5.554688 39.589844 5.84375 39.589844 6.289063 C 39.589844 6.875 40.246094 7.140625 40.84375 7.140625 C 41.511719 7.140625 41.984375 6.609375 42.277344 6.039063 C 42.5 6.859375 43.195313 7.140625 43.710938 7.140625 C 45.128906 7.140625 45.878906 5.316406 45.878906 5.011719 Z M 45.878906 5.011719 "/>
<path style="fill:none;stroke-width:0.55802;stroke-linecap:square;stroke-linejoin:miter;stroke:rgb(0%,0%,0%);stroke-opacity:1;stroke-miterlimit:10;" d="M 39.175781 12.949219 L 46.9375 12.949219 "/>
<path style=" stroke:none;fill-rule:evenodd;fill:rgb(0%,0%,0%);fill-opacity:1;" d="M 46.242188 20.3125 C 46.242188 20.007813 45.976563 20.007813 45.726563 20.007813 L 41.902344 20.007813 C 41.585938 20.007813 41.109375 20.007813 40.472656 20.6875 C 40.109375 21.089844 39.664063 21.828125 39.664063 21.910156 C 39.664063 21.996094 39.734375 22.023438 39.816406 22.023438 C 39.914063 22.023438 39.929688 21.980469 39.996094 21.898438 C 40.722656 20.757813 41.445313 20.757813 41.792969 20.757813 L 42.945313 20.757813 L 41.5 25.527344 C 41.429688 25.738281 41.429688 25.765625 41.429688 25.804688 C 41.429688 25.957031 41.527344 26.152344 41.804688 26.152344 C 42.238281 26.152344 42.308594 25.777344 42.347656 25.570313 L 43.292969 20.757813 L 45.601563 20.757813 C 45.785156 20.757813 46.242188 20.757813 46.242188 20.3125 Z M 46.242188 20.3125 "/>
</g>
</svg>
