<?xml version="1.0" encoding="UTF-8"?>
<svg xmlns="http://www.w3.org/2000/svg" xmlns:xlink="http://www.w3.org/1999/xlink" width="100pt" height="42pt" viewBox="0 0 100 42" version="1.1">
<g id="surface16">
<path style=" stroke:none;fill-rule:evenodd;fill:rgb(0%,0%,0%);fill-opacity:1;" d="M 6.777344 1.371094 C 6.777344 0.953125 6.445313 0.6875 6.109375 0.6875 C 5.71875 0.6875 5.429688 0.996094 5.429688 1.371094 C 5.429688 1.730469 5.734375 2.035156 6.09375 2.035156 C 6.515625 2.035156 6.777344 1.703125 6.777344 1.371094 Z M 6.777344 1.371094 "/>
<path style=" stroke:none;fill-rule:evenodd;fill:rgb(0%,0%,0%);fill-opacity:1;" d="M 10.765625 13.570313 L 10.765625 13.164063 C 9.863281 13.164063 9.613281 13.164063 9.417969 12.59375 L 6.386719 3.890625 C 6.332031 3.722656 6.304688 3.640625 6.109375 3.640625 C 5.914063 3.640625 5.886719 3.683594 5.816406 3.902344 L 2.910156 12.21875 C 2.714844 12.789063 2.328125 13.152344 1.4375 13.164063 L 1.4375 13.570313 L 2.769531 13.539063 C 3.160156 13.539063 3.828125 13.539063 4.191406 13.570313 L 4.191406 13.164063 C 3.605469 13.152344 3.257813 12.859375 3.257813 12.46875 C 3.257813 12.386719 3.257813 12.359375 3.328125 12.179688 L 3.96875 10.328125 L 7.472656 10.328125 L 8.234375 12.511719 C 8.304688 12.679688 8.304688 12.707031 8.304688 12.75 C 8.304688 13.164063 7.597656 13.164063 7.25 13.164063 L 7.25 13.570313 C 7.570313 13.539063 8.667969 13.539063 9.054688 13.539063 C 9.445313 13.539063 10.449219 13.539063 10.765625 13.570313 Z M 7.332031 9.925781 L 4.105469 9.925781 L 5.71875 5.292969 Z M 7.332031 9.925781 "/>
<path style=" stroke:none;fill-rule:evenodd;fill:rgb(0%,0%,0%);fill-opacity:1;" d="M 24.9375 8.8125 C 24.9375 8.546875 24.699219 8.546875 24.492188 8.546875 L 16.300781 8.546875 C 16.105469 8.546875 15.855469 8.546875 15.855469 8.796875 C 15.855469 9.0625 16.089844 9.0625 16.300781 9.0625 L 24.492188 9.0625 C 24.6875 9.0625 24.9375 9.0625 24.9375 8.8125 Z M 24.9375 11.398438 C 24.9375 11.132813 24.699219 11.132813 24.492188 11.132813 L 16.300781 11.132813 C 16.105469 11.132813 15.855469 11.132813 15.855469 11.386719 C 15.855469 11.648438 16.089844 11.648438 16.300781 11.648438 L 24.492188 11.648438 C 24.6875 11.648438 24.9375 11.648438 24.9375 11.398438 Z M 24.9375 11.398438 "/>
<path style=" stroke:none;fill-rule:evenodd;fill:rgb(0%,0%,0%);fill-opacity:1;" d="M 39.886719 11.914063 C 39.820313 12.148438 39.820313 12.179688 39.625 12.441406 C 39.316406 12.832031 38.707031 13.429688 38.050781 13.429688 C 37.480469 13.429688 37.164063 12.914063 37.164063 12.09375 C 37.164063 11.328125 37.59375 9.773438 37.859375 9.1875 C 38.328125 8.214844 38.984375 7.714844 39.527344 7.714844 C 40.445313 7.714844 40.625 8.855469 40.625 8.964844 C 40.625 8.964844 40.582031 9.160156 40.570313 9.1875 Z M 42.445313 11.578125 C 42.445313 11.511719 42.390625 11.453125 42.308594 11.453125 C 42.183594 11.453125 42.167969 11.523438 42.113281 11.734375 C 41.902344 12.554688 41.640625 13.429688 41.070313 13.429688 C 40.667969 13.429688 40.640625 13.070313 40.640625 12.789063 C 40.640625 12.46875 40.679688 12.316406 40.804688 11.773438 L 41.082031 10.71875 C 41.597656 8.632813 41.722656 8.132813 41.722656 8.046875 C 41.722656 7.855469 41.570313 7.699219 41.363281 7.699219 C 40.917969 7.699219 40.804688 8.1875 40.777344 8.351563 C 40.625 7.992188 40.25 7.4375 39.527344 7.4375 C 37.953125 7.4375 36.257813 9.464844 36.257813 11.523438 C 36.257813 12.902344 37.0625 13.707031 38.011719 13.707031 C 38.773438 13.707031 39.429688 13.109375 39.820313 12.652344 C 39.957031 13.472656 40.609375 13.707031 41.027344 13.707031 C 41.445313 13.707031 41.777344 13.457031 42.027344 12.957031 C 42.25 12.484375 42.445313 11.636719 42.445313 11.578125 Z M 42.445313 11.578125 "/>
<path style=" stroke:none;fill-rule:evenodd;fill:rgb(0%,0%,0%);fill-opacity:1;" d="M 49.953125 15.371094 C 49.953125 15.265625 49.855469 15.265625 49.726563 15.265625 C 49.121094 15.265625 49.121094 15.195313 49.089844 14.914063 L 48.496094 8.800781 C 48.476563 8.605469 48.476563 8.566406 48.308594 8.566406 C 48.152344 8.566406 48.113281 8.632813 48.054688 8.730469 L 44.652344 14.445313 C 44.261719 15.097656 43.878906 15.234375 43.449219 15.265625 C 43.332031 15.273438 43.242188 15.273438 43.242188 15.460938 C 43.242188 15.519531 43.292969 15.566406 43.371094 15.566406 C 43.632813 15.566406 43.9375 15.539063 44.210938 15.539063 C 44.535156 15.539063 44.875 15.566406 45.191406 15.566406 C 45.246094 15.566406 45.375 15.566406 45.375 15.382813 C 45.375 15.273438 45.285156 15.265625 45.21875 15.265625 C 44.996094 15.246094 44.757813 15.167969 44.757813 14.921875 C 44.757813 14.804688 44.816406 14.699219 44.894531 14.5625 C 44.964844 14.445313 44.972656 14.445313 45.640625 13.308594 L 48.09375 13.308594 C 48.113281 13.515625 48.25 14.84375 48.25 14.941406 C 48.25 15.234375 47.742188 15.265625 47.546875 15.265625 C 47.410156 15.265625 47.3125 15.265625 47.3125 15.460938 C 47.3125 15.566406 47.449219 15.566406 47.449219 15.566406 C 47.847656 15.566406 48.269531 15.539063 48.671875 15.539063 C 48.914063 15.539063 49.53125 15.566406 49.777344 15.566406 C 49.835938 15.566406 49.953125 15.566406 49.953125 15.371094 Z M 48.066406 13.007813 L 45.824219 13.007813 L 47.753906 9.777344 Z M 48.066406 13.007813 "/>
<path style=" stroke:none;fill-rule:evenodd;fill:rgb(0%,0%,0%);fill-opacity:1;" d="M 57.066406 13.457031 C 57.066406 12.75 56.496094 12.183594 55.550781 12.078125 C 56.566406 11.890625 57.59375 11.167969 57.59375 10.238281 C 57.59375 9.515625 56.949219 8.890625 55.773438 8.890625 L 52.488281 8.890625 C 52.304688 8.890625 52.203125 8.890625 52.203125 9.085938 C 52.203125 9.191406 52.292969 9.191406 52.480469 9.191406 C 52.480469 9.191406 52.683594 9.191406 52.851563 9.210938 C 53.027344 9.230469 53.113281 9.242188 53.113281 9.367188 C 53.113281 9.40625 53.105469 9.4375 53.074219 9.554688 L 51.765625 14.804688 C 51.667969 15.1875 51.648438 15.265625 50.875 15.265625 C 50.710938 15.265625 50.609375 15.265625 50.609375 15.460938 C 50.609375 15.566406 50.699219 15.566406 50.875 15.566406 L 54.367188 15.566406 C 55.910156 15.566406 57.066406 14.414063 57.066406 13.457031 Z M 56.703125 10.199219 C 56.703125 11.058594 55.863281 11.988281 54.671875 11.988281 L 53.242188 11.988281 L 53.847656 9.5625 C 53.9375 9.21875 53.957031 9.191406 54.375 9.191406 L 55.636719 9.191406 C 56.496094 9.191406 56.703125 9.769531 56.703125 10.199219 Z M 56.15625 13.347656 C 56.15625 14.316406 55.285156 15.265625 54.132813 15.265625 L 52.800781 15.265625 C 52.664063 15.265625 52.644531 15.265625 52.585938 15.253906 C 52.488281 15.246094 52.460938 15.234375 52.460938 15.15625 C 52.460938 15.128906 52.460938 15.109375 52.507813 14.933594 L 53.183594 12.203125 L 55.03125 12.203125 C 55.96875 12.203125 56.15625 12.929688 56.15625 13.347656 Z M 56.15625 13.347656 "/>
<path style=" stroke:none;fill-rule:evenodd;fill:rgb(0%,0%,0%);fill-opacity:1;" d="M 64.367188 10.09375 C 64.367188 9.6875 64.035156 9.355469 63.632813 9.355469 C 63.226563 9.355469 62.894531 9.6875 62.894531 10.09375 C 62.894531 10.496094 63.226563 10.828125 63.632813 10.828125 C 64.035156 10.828125 64.367188 10.496094 64.367188 10.09375 Z M 64.367188 10.09375 "/>
<path style=" stroke:none;fill-rule:evenodd;fill:rgb(0%,0%,0%);fill-opacity:1;" d="M 78.460938 13.570313 L 78.460938 13.164063 C 77.554688 13.164063 77.304688 13.164063 77.109375 12.59375 L 74.082031 3.890625 C 74.023438 3.722656 73.996094 3.640625 73.800781 3.640625 C 73.605469 3.640625 73.578125 3.683594 73.511719 3.902344 L 70.601563 12.21875 C 70.410156 12.789063 70.019531 13.152344 69.128906 13.164063 L 69.128906 13.570313 L 70.464844 13.539063 C 70.855469 13.539063 71.519531 13.539063 71.882813 13.570313 L 71.882813 13.164063 C 71.296875 13.152344 70.949219 12.859375 70.949219 12.46875 C 70.949219 12.386719 70.949219 12.359375 71.019531 12.179688 L 71.660156 10.328125 L 75.164063 10.328125 L 75.929688 12.511719 C 76 12.679688 76 12.707031 76 12.75 C 76 13.164063 75.289063 13.164063 74.941406 13.164063 L 74.941406 13.570313 C 75.261719 13.539063 76.359375 13.539063 76.75 13.539063 C 77.140625 13.539063 78.140625 13.539063 78.460938 13.570313 Z M 75.027344 9.925781 L 71.800781 9.925781 L 73.410156 5.292969 Z M 75.027344 9.925781 "/>
<path style=" stroke:none;fill-rule:evenodd;fill:rgb(0%,0%,0%);fill-opacity:1;" d="M 84.667969 10.09375 C 84.667969 9.6875 84.332031 9.355469 83.929688 9.355469 C 83.527344 9.355469 83.191406 9.6875 83.191406 10.09375 C 83.191406 10.496094 83.527344 10.828125 83.929688 10.828125 C 84.332031 10.828125 84.667969 10.496094 84.667969 10.09375 Z M 84.667969 10.09375 "/>
<path style=" stroke:none;fill-rule:evenodd;fill:rgb(0%,0%,0%);fill-opacity:1;" d="M 97.867188 11.023438 C 97.867188 9.898438 96.851563 8.785156 95.199219 8.601563 C 96.519531 8.351563 97.476563 7.464844 97.476563 6.421875 C 97.476563 5.226563 96.269531 4.070313 94.445313 4.070313 L 89.59375 4.070313 L 89.59375 4.472656 L 89.871094 4.472656 C 90.875 4.472656 90.914063 4.613281 90.914063 5.128906 L 90.914063 12.511719 C 90.914063 13.027344 90.875 13.164063 89.871094 13.164063 L 89.59375 13.164063 L 89.59375 13.570313 L 94.820313 13.570313 C 96.617188 13.570313 97.867188 12.359375 97.867188 11.023438 Z M 96.253906 6.421875 C 96.253906 7.339844 95.53125 8.492188 93.988281 8.492188 L 91.972656 8.492188 L 91.972656 5.03125 C 91.972656 4.570313 92 4.472656 92.609375 4.472656 L 94.363281 4.472656 C 95.753906 4.472656 96.253906 5.667969 96.253906 6.421875 Z M 96.601563 11.007813 C 96.601563 12.136719 95.753906 13.164063 94.390625 13.164063 L 92.609375 13.164063 C 92 13.164063 91.972656 13.070313 91.972656 12.609375 L 91.972656 8.769531 L 94.570313 8.769531 C 95.90625 8.769531 96.601563 9.9375 96.601563 11.007813 Z M 96.601563 11.007813 "/>
<path style=" stroke:none;fill-rule:evenodd;fill:rgb(0%,0%,0%);fill-opacity:1;" d="M 7.078125 22.867188 C 7.078125 22.449219 6.742188 22.1875 6.410156 22.1875 C 6.019531 22.1875 5.726563 22.492188 5.726563 22.867188 C 5.726563 23.226563 6.035156 23.535156 6.394531 23.535156 C 6.8125 23.535156 7.078125 23.203125 7.078125 22.867188 Z M 7.078125 22.867188 "/>
<path style=" stroke:none;fill-rule:evenodd;fill:rgb(0%,0%,0%);fill-opacity:1;" d="M 10.476563 32.519531 C 10.476563 31.394531 9.460938 30.28125 7.808594 30.101563 C 9.128906 29.851563 10.085938 28.960938 10.085938 27.917969 C 10.085938 26.722656 8.878906 25.570313 7.054688 25.570313 L 2.203125 25.570313 L 2.203125 25.972656 L 2.480469 25.972656 C 3.484375 25.972656 3.523438 26.109375 3.523438 26.625 L 3.523438 34.011719 C 3.523438 34.523438 3.484375 34.664063 2.480469 34.664063 L 2.203125 34.664063 L 2.203125 35.066406 L 7.429688 35.066406 C 9.226563 35.066406 10.476563 33.855469 10.476563 32.519531 Z M 8.863281 27.917969 C 8.863281 28.835938 8.140625 29.988281 6.597656 29.988281 L 4.582031 29.988281 L 4.582031 26.527344 C 4.582031 26.070313 4.609375 25.972656 5.21875 25.972656 L 6.972656 25.972656 C 8.363281 25.972656 8.863281 27.167969 8.863281 27.917969 Z M 9.210938 32.507813 C 9.210938 33.632813 8.363281 34.664063 7 34.664063 L 5.21875 34.664063 C 4.609375 34.664063 4.582031 34.566406 4.582031 34.105469 L 4.582031 30.269531 L 7.179688 30.269531 C 8.515625 30.269531 9.210938 31.4375 9.210938 32.507813 Z M 9.210938 32.507813 "/>
<path style=" stroke:none;fill-rule:evenodd;fill:rgb(0%,0%,0%);fill-opacity:1;" d="M 24.9375 30.308594 C 24.9375 30.046875 24.699219 30.046875 24.492188 30.046875 L 16.300781 30.046875 C 16.105469 30.046875 15.855469 30.046875 15.855469 30.296875 C 15.855469 30.558594 16.089844 30.558594 16.300781 30.558594 L 24.492188 30.558594 C 24.6875 30.558594 24.9375 30.558594 24.9375 30.308594 Z M 24.9375 32.898438 C 24.9375 32.632813 24.699219 32.632813 24.492188 32.632813 L 16.300781 32.632813 C 16.105469 32.632813 15.855469 32.632813 15.855469 32.882813 C 15.855469 33.148438 16.089844 33.148438 16.300781 33.148438 L 24.492188 33.148438 C 24.6875 33.148438 24.9375 33.148438 24.9375 32.898438 Z M 24.9375 32.898438 "/>
<path style=" stroke:none;fill-rule:evenodd;fill:rgb(0%,0%,0%);fill-opacity:1;" d="M 41.304688 31.117188 C 41.304688 29.835938 40.582031 28.933594 39.539063 28.933594 C 38.816406 28.933594 38.164063 29.53125 37.898438 29.808594 L 38.914063 25.761719 C 38.929688 25.707031 38.957031 25.625 38.957031 25.554688 C 38.957031 25.414063 38.789063 25.414063 38.789063 25.414063 L 38.023438 25.484375 C 37.789063 25.5 37.578125 25.527344 37.328125 25.539063 C 36.996094 25.570313 36.898438 25.582031 36.898438 25.832031 C 36.898438 25.972656 37.035156 25.972656 37.175781 25.972656 C 37.882813 25.972656 37.882813 26.097656 37.882813 26.234375 C 37.882813 26.332031 37.773438 26.738281 37.71875 26.988281 L 37.382813 28.320313 L 36.398438 32.285156 C 36.328125 32.632813 36.328125 32.871094 36.328125 33.050781 C 36.328125 34.46875 37.121094 35.207031 38.023438 35.207031 C 39.636719 35.207031 41.304688 33.132813 41.304688 31.117188 Z M 39.664063 33.507813 C 39.316406 34.261719 38.679688 34.925781 38.039063 34.925781 C 37.59375 34.925781 37.105469 34.59375 37.105469 33.507813 C 37.105469 33.050781 37.148438 32.785156 37.398438 31.8125 L 37.71875 30.558594 C 37.746094 30.449219 38.566406 29.210938 39.511719 29.210938 C 40.125 29.210938 40.402344 29.824219 40.402344 30.546875 C 40.402344 31.214844 40.011719 32.785156 39.664063 33.507813 Z M 39.664063 33.507813 "/>
<path style=" stroke:none;fill-rule:evenodd;fill:rgb(0%,0%,0%);fill-opacity:1;" d="M 48.550781 36.96875 C 48.550781 36.863281 48.453125 36.863281 48.328125 36.863281 C 47.722656 36.863281 47.722656 36.792969 47.691406 36.511719 L 47.097656 30.398438 C 47.074219 30.203125 47.074219 30.164063 46.910156 30.164063 C 46.753906 30.164063 46.714844 30.230469 46.65625 30.328125 L 43.25 36.042969 C 42.859375 36.699219 42.480469 36.832031 42.050781 36.863281 C 41.929688 36.871094 41.84375 36.871094 41.84375 37.058594 C 41.84375 37.117188 41.890625 37.164063 41.96875 37.164063 C 42.234375 37.164063 42.539063 37.136719 42.8125 37.136719 C 43.132813 37.136719 43.476563 37.164063 43.789063 37.164063 C 43.847656 37.164063 43.976563 37.164063 43.976563 36.980469 C 43.976563 36.871094 43.886719 36.863281 43.820313 36.863281 C 43.59375 36.84375 43.359375 36.765625 43.359375 36.519531 C 43.359375 36.402344 43.417969 36.296875 43.496094 36.160156 C 43.566406 36.042969 43.574219 36.042969 44.238281 34.90625 L 46.695313 34.90625 C 46.714844 35.113281 46.851563 36.441406 46.851563 36.539063 C 46.851563 36.832031 46.34375 36.863281 46.144531 36.863281 C 46.011719 36.863281 45.910156 36.863281 45.910156 37.058594 C 45.910156 37.164063 46.050781 37.164063 46.050781 37.164063 C 46.449219 37.164063 46.871094 37.136719 47.269531 37.136719 C 47.515625 37.136719 48.132813 37.164063 48.375 37.164063 C 48.433594 37.164063 48.550781 37.164063 48.550781 36.96875 Z M 46.664063 34.605469 L 44.425781 34.605469 L 46.351563 31.375 Z M 46.664063 34.605469 "/>
<path style=" stroke:none;fill-rule:evenodd;fill:rgb(0%,0%,0%);fill-opacity:1;" d="M 55.664063 35.054688 C 55.664063 34.347656 55.097656 33.78125 54.148438 33.675781 C 55.167969 33.488281 56.191406 32.765625 56.191406 31.835938 C 56.191406 31.113281 55.546875 30.488281 54.375 30.488281 L 51.089844 30.488281 C 50.902344 30.488281 50.804688 30.488281 50.804688 30.683594 C 50.804688 30.789063 50.894531 30.789063 51.078125 30.789063 C 51.078125 30.789063 51.285156 30.789063 51.449219 30.808594 C 51.625 30.828125 51.714844 30.839844 51.714844 30.964844 C 51.714844 31.003906 51.703125 31.035156 51.675781 31.152344 L 50.367188 36.402344 C 50.265625 36.785156 50.246094 36.863281 49.476563 36.863281 C 49.308594 36.863281 49.210938 36.863281 49.210938 37.058594 C 49.210938 37.164063 49.296875 37.164063 49.476563 37.164063 L 52.96875 37.164063 C 54.511719 37.164063 55.664063 36.011719 55.664063 35.054688 Z M 55.304688 31.796875 C 55.304688 32.65625 54.460938 33.585938 53.269531 33.585938 L 51.84375 33.585938 L 52.449219 31.160156 C 52.535156 30.816406 52.554688 30.789063 52.976563 30.789063 L 54.238281 30.789063 C 55.097656 30.789063 55.304688 31.367188 55.304688 31.796875 Z M 54.757813 34.945313 C 54.757813 35.914063 53.886719 36.863281 52.730469 36.863281 L 51.402344 36.863281 C 51.265625 36.863281 51.246094 36.863281 51.1875 36.851563 C 51.089844 36.84375 51.058594 36.832031 51.058594 36.753906 C 51.058594 36.726563 51.058594 36.707031 51.109375 36.53125 L 51.78125 33.800781 L 53.632813 33.800781 C 54.570313 33.800781 54.757813 34.527344 54.757813 34.945313 Z M 54.757813 34.945313 "/>
<path style=" stroke:none;fill-rule:evenodd;fill:rgb(0%,0%,0%);fill-opacity:1;" d="M 62.96875 31.589844 C 62.96875 31.1875 62.632813 30.851563 62.230469 30.851563 C 61.828125 30.851563 61.496094 31.1875 61.496094 31.589844 C 61.496094 31.992188 61.828125 32.328125 62.230469 32.328125 C 62.632813 32.328125 62.96875 31.992188 62.96875 31.589844 Z M 62.96875 31.589844 "/>
<path style=" stroke:none;fill-rule:evenodd;fill:rgb(0%,0%,0%);fill-opacity:1;" d="M 77.058594 35.066406 L 77.058594 34.664063 C 76.15625 34.664063 75.90625 34.664063 75.710938 34.09375 L 72.679688 25.386719 C 72.625 25.21875 72.597656 25.136719 72.402344 25.136719 C 72.207031 25.136719 72.179688 25.179688 72.109375 25.402344 L 69.203125 33.71875 C 69.007813 34.289063 68.621094 34.648438 67.730469 34.664063 L 67.730469 35.066406 L 69.0625 35.039063 C 69.453125 35.039063 70.121094 35.039063 70.480469 35.066406 L 70.480469 34.664063 C 69.898438 34.648438 69.550781 34.355469 69.550781 33.96875 C 69.550781 33.882813 69.550781 33.855469 69.621094 33.675781 L 70.261719 31.824219 L 73.765625 31.824219 L 74.527344 34.011719 C 74.597656 34.175781 74.597656 34.203125 74.597656 34.246094 C 74.597656 34.664063 73.890625 34.664063 73.542969 34.664063 L 73.542969 35.066406 C 73.863281 35.039063 74.960938 35.039063 75.347656 35.039063 C 75.738281 35.039063 76.742188 35.039063 77.058594 35.066406 Z M 73.625 31.421875 L 70.398438 31.421875 L 72.011719 26.792969 Z M 73.625 31.421875 "/>
<path style=" stroke:none;fill-rule:evenodd;fill:rgb(0%,0%,0%);fill-opacity:1;" d="M 83.265625 31.589844 C 83.265625 31.1875 82.933594 30.851563 82.53125 30.851563 C 82.125 30.851563 81.792969 31.1875 81.792969 31.589844 C 81.792969 31.992188 82.125 32.328125 82.53125 32.328125 C 82.933594 32.328125 83.265625 31.992188 83.265625 31.589844 Z M 83.265625 31.589844 "/>
<path style=" stroke:none;fill-rule:evenodd;fill:rgb(0%,0%,0%);fill-opacity:1;" d="M 96.46875 32.519531 C 96.46875 31.394531 95.453125 30.28125 93.796875 30.101563 C 95.117188 29.851563 96.078125 28.960938 96.078125 27.917969 C 96.078125 26.722656 94.867188 25.570313 93.046875 25.570313 L 88.195313 25.570313 L 88.195313 25.972656 L 88.472656 25.972656 C 89.472656 25.972656 89.515625 26.109375 89.515625 26.625 L 89.515625 34.011719 C 89.515625 34.523438 89.472656 34.664063 88.472656 34.664063 L 88.195313 34.664063 L 88.195313 35.066406 L 93.421875 35.066406 C 95.21875 35.066406 96.46875 33.855469 96.46875 32.519531 Z M 94.855469 27.917969 C 94.855469 28.835938 94.132813 29.988281 92.585938 29.988281 L 90.574219 29.988281 L 90.574219 26.527344 C 90.574219 26.070313 90.601563 25.972656 91.210938 25.972656 L 92.964844 25.972656 C 94.355469 25.972656 94.855469 27.167969 94.855469 27.917969 Z M 95.203125 32.507813 C 95.203125 33.632813 94.355469 34.664063 92.992188 34.664063 L 91.210938 34.664063 C 90.601563 34.664063 90.574219 34.566406 90.574219 34.105469 L 90.574219 30.269531 L 93.171875 30.269531 C 94.507813 30.269531 95.203125 31.4375 95.203125 32.507813 Z M 95.203125 32.507813 "/>
</g>
</svg>
