<?xml version="1.0" encoding="UTF-8"?>
<svg xmlns="http://www.w3.org/2000/svg" xmlns:xlink="http://www.w3.org/1999/xlink" width="174pt" height="42pt" viewBox="0 0 174 42" version="1.1">
<g id="surface20">
<path style=" stroke:none;fill-rule:evenodd;fill:rgb(0%,0%,0%);fill-opacity:1;" d="M 6.785156 1.371094 C 6.785156 0.953125 6.449219 0.6875 6.117188 0.6875 C 5.726563 0.6875 5.433594 0.996094 5.433594 1.371094 C 5.433594 1.730469 5.742188 2.035156 6.101563 2.035156 C 6.519531 2.035156 6.785156 1.703125 6.785156 1.371094 Z M 6.785156 1.371094 "/>
<path style=" stroke:none;fill-rule:evenodd;fill:rgb(0%,0%,0%);fill-opacity:1;" d="M 10.773438 13.570313 L 10.773438 13.164063 C 9.871094 13.164063 9.617188 13.164063 9.425781 12.59375 L 6.394531 3.890625 C 6.335938 3.722656 6.308594 3.640625 6.117188 3.640625 C 5.921875 3.640625 5.890625 3.683594 5.824219 3.902344 L 2.914063 12.21875 C 2.722656 12.789063 2.332031 13.152344 1.441406 13.164063 L 1.441406 13.570313 L 2.777344 13.539063 C 3.167969 13.539063 3.835938 13.539063 4.195313 13.570313 L 4.195313 13.164063 C 3.609375 13.152344 3.265625 12.859375 3.265625 12.46875 C 3.265625 12.386719 3.265625 12.359375 3.332031 12.179688 L 3.972656 10.328125 L 7.476563 10.328125 L 8.242188 12.511719 C 8.3125 12.679688 8.3125 12.707031 8.3125 12.75 C 8.3125 13.164063 7.601563 13.164063 7.253906 13.164063 L 7.253906 13.570313 C 7.574219 13.539063 8.671875 13.539063 9.0625 13.539063 C 9.453125 13.539063 10.453125 13.539063 10.773438 13.570313 Z M 7.339844 9.925781 L 4.113281 9.925781 L 5.726563 5.292969 Z M 7.339844 9.925781 "/>
<path style=" stroke:none;fill-rule:evenodd;fill:rgb(0%,0%,0%);fill-opacity:1;" d="M 24.941406 8.8125 C 24.941406 8.546875 24.703125 8.546875 24.496094 8.546875 L 16.304688 8.546875 C 16.113281 8.546875 15.863281 8.546875 15.863281 8.796875 C 15.863281 9.0625 16.097656 9.0625 16.304688 9.0625 L 24.496094 9.0625 C 24.691406 9.0625 24.941406 9.0625 24.941406 8.8125 Z M 24.941406 11.398438 C 24.941406 11.132813 24.703125 11.132813 24.496094 11.132813 L 16.304688 11.132813 C 16.113281 11.132813 15.863281 11.132813 15.863281 11.386719 C 15.863281 11.648438 16.097656 11.648438 16.304688 11.648438 L 24.496094 11.648438 C 24.691406 11.648438 24.941406 11.648438 24.941406 11.398438 Z M 24.941406 11.398438 "/>
<path style=" stroke:none;fill-rule:evenodd;fill:rgb(0%,0%,0%);fill-opacity:1;" d="M 39.894531 11.914063 C 39.824219 12.148438 39.824219 12.179688 39.628906 12.441406 C 39.324219 12.832031 38.710938 13.429688 38.058594 13.429688 C 37.488281 13.429688 37.167969 12.914063 37.167969 12.09375 C 37.167969 11.328125 37.597656 9.773438 37.863281 9.1875 C 38.335938 8.214844 38.988281 7.714844 39.53125 7.714844 C 40.449219 7.714844 40.628906 8.855469 40.628906 8.964844 C 40.628906 8.964844 40.589844 9.160156 40.574219 9.1875 Z M 42.453125 11.578125 C 42.453125 11.511719 42.394531 11.453125 42.3125 11.453125 C 42.1875 11.453125 42.175781 11.523438 42.117188 11.734375 C 41.910156 12.554688 41.644531 13.429688 41.074219 13.429688 C 40.671875 13.429688 40.644531 13.070313 40.644531 12.789063 C 40.644531 12.46875 40.683594 12.316406 40.8125 11.773438 L 41.089844 10.71875 C 41.605469 8.632813 41.730469 8.132813 41.730469 8.046875 C 41.730469 7.855469 41.574219 7.699219 41.367188 7.699219 C 40.921875 7.699219 40.8125 8.1875 40.785156 8.351563 C 40.628906 7.992188 40.253906 7.4375 39.53125 7.4375 C 37.960938 7.4375 36.265625 9.464844 36.265625 11.523438 C 36.265625 12.902344 37.070313 13.707031 38.015625 13.707031 C 38.78125 13.707031 39.433594 13.109375 39.824219 12.652344 C 39.964844 13.472656 40.617188 13.707031 41.035156 13.707031 C 41.449219 13.707031 41.785156 13.457031 42.035156 12.957031 C 42.257813 12.484375 42.453125 11.636719 42.453125 11.578125 Z M 42.453125 11.578125 "/>
<path style=" stroke:none;fill-rule:evenodd;fill:rgb(0%,0%,0%);fill-opacity:1;" d="M 47.40625 12.4375 C 47.40625 11.65625 47.355469 10.875 47.015625 10.148438 C 46.5625 9.210938 45.761719 9.054688 45.351563 9.054688 C 44.765625 9.054688 44.050781 9.308594 43.652344 10.21875 C 43.335938 10.894531 43.289063 11.65625 43.289063 12.4375 C 43.289063 13.171875 43.328125 14.054688 43.730469 14.796875 C 44.148438 15.589844 44.863281 15.785156 45.34375 15.785156 C 45.871094 15.785156 46.613281 15.578125 47.042969 14.648438 C 47.355469 13.976563 47.40625 13.210938 47.40625 12.4375 Z M 46.59375 12.320313 C 46.59375 13.054688 46.59375 13.71875 46.484375 14.347656 C 46.339844 15.273438 45.78125 15.566406 45.34375 15.566406 C 44.960938 15.566406 44.382813 15.324219 44.207031 14.386719 C 44.101563 13.796875 44.101563 12.898438 44.101563 12.320313 C 44.101563 11.695313 44.101563 11.050781 44.179688 10.523438 C 44.363281 9.359375 45.097656 9.269531 45.34375 9.269531 C 45.664063 9.269531 46.308594 9.445313 46.496094 10.414063 C 46.59375 10.960938 46.59375 11.703125 46.59375 12.320313 Z M 46.59375 12.320313 "/>
<path style=" stroke:none;fill-rule:evenodd;fill:rgb(0%,0%,0%);fill-opacity:1;" d="M 71.136719 10.105469 C 71.136719 9.84375 70.898438 9.84375 70.691406 9.84375 L 66.851563 9.84375 L 66.851563 6.003906 C 66.851563 5.808594 66.851563 5.558594 66.601563 5.558594 C 66.339844 5.558594 66.339844 5.796875 66.339844 6.003906 L 66.339844 9.84375 L 62.5 9.84375 C 62.304688 9.84375 62.054688 9.84375 62.054688 10.09375 C 62.054688 10.355469 62.292969 10.355469 62.5 10.355469 L 66.339844 10.355469 L 66.339844 14.195313 C 66.339844 14.390625 66.339844 14.640625 66.589844 14.640625 C 66.851563 14.640625 66.851563 14.402344 66.851563 14.195313 L 66.851563 10.355469 L 70.691406 10.355469 C 70.886719 10.355469 71.136719 10.355469 71.136719 10.105469 Z M 71.136719 10.105469 "/>
<path style=" stroke:none;fill-rule:evenodd;fill:rgb(0%,0%,0%);fill-opacity:1;" d="M 79.1875 11.914063 C 79.121094 12.148438 79.121094 12.179688 78.925781 12.441406 C 78.617188 12.832031 78.007813 13.429688 77.351563 13.429688 C 76.78125 13.429688 76.464844 12.914063 76.464844 12.09375 C 76.464844 11.328125 76.894531 9.773438 77.160156 9.1875 C 77.632813 8.214844 78.285156 7.714844 78.828125 7.714844 C 79.746094 7.714844 79.925781 8.855469 79.925781 8.964844 C 79.925781 8.964844 79.882813 9.160156 79.871094 9.1875 Z M 81.746094 11.578125 C 81.746094 11.511719 81.691406 11.453125 81.609375 11.453125 C 81.484375 11.453125 81.46875 11.523438 81.414063 11.734375 C 81.207031 12.554688 80.941406 13.429688 80.371094 13.429688 C 79.96875 13.429688 79.941406 13.070313 79.941406 12.789063 C 79.941406 12.46875 79.980469 12.316406 80.109375 11.773438 L 80.386719 10.71875 C 80.898438 8.632813 81.023438 8.132813 81.023438 8.046875 C 81.023438 7.855469 80.871094 7.699219 80.664063 7.699219 C 80.21875 7.699219 80.109375 8.1875 80.078125 8.351563 C 79.925781 7.992188 79.550781 7.4375 78.828125 7.4375 C 77.257813 7.4375 75.558594 9.464844 75.558594 11.523438 C 75.558594 12.902344 76.367188 13.707031 77.3125 13.707031 C 78.078125 13.707031 78.730469 13.109375 79.121094 12.652344 C 79.257813 13.472656 79.914063 13.707031 80.328125 13.707031 C 80.746094 13.707031 81.082031 13.457031 81.332031 12.957031 C 81.550781 12.484375 81.746094 11.636719 81.746094 11.578125 Z M 81.746094 11.578125 "/>
<path style=" stroke:none;fill-rule:evenodd;fill:rgb(0%,0%,0%);fill-opacity:1;" d="M 89.253906 15.371094 C 89.253906 15.265625 89.15625 15.265625 89.027344 15.265625 C 88.421875 15.265625 88.421875 15.195313 88.390625 14.914063 L 87.796875 8.800781 C 87.777344 8.605469 87.777344 8.566406 87.613281 8.566406 C 87.453125 8.566406 87.414063 8.632813 87.355469 8.730469 L 83.953125 14.445313 C 83.5625 15.097656 83.179688 15.234375 82.75 15.265625 C 82.632813 15.273438 82.542969 15.273438 82.542969 15.460938 C 82.542969 15.519531 82.59375 15.566406 82.671875 15.566406 C 82.933594 15.566406 83.238281 15.539063 83.511719 15.539063 C 83.835938 15.539063 84.175781 15.566406 84.492188 15.566406 C 84.550781 15.566406 84.675781 15.566406 84.675781 15.382813 C 84.675781 15.273438 84.589844 15.265625 84.519531 15.265625 C 84.296875 15.246094 84.058594 15.167969 84.058594 14.921875 C 84.058594 14.804688 84.121094 14.699219 84.199219 14.5625 C 84.265625 14.445313 84.277344 14.445313 84.941406 13.308594 L 87.394531 13.308594 C 87.414063 13.515625 87.550781 14.84375 87.550781 14.941406 C 87.550781 15.234375 87.042969 15.265625 86.847656 15.265625 C 86.710938 15.265625 86.613281 15.265625 86.613281 15.460938 C 86.613281 15.566406 86.75 15.566406 86.75 15.566406 C 87.152344 15.566406 87.574219 15.539063 87.972656 15.539063 C 88.21875 15.539063 88.832031 15.566406 89.078125 15.566406 C 89.136719 15.566406 89.253906 15.566406 89.253906 15.371094 Z M 87.367188 13.007813 L 85.128906 13.007813 L 87.054688 9.777344 Z M 87.367188 13.007813 "/>
<path style=" stroke:none;fill-rule:evenodd;fill:rgb(0%,0%,0%);fill-opacity:1;" d="M 95.769531 10.09375 C 95.769531 9.6875 95.4375 9.355469 95.035156 9.355469 C 94.632813 9.355469 94.296875 9.6875 94.296875 10.09375 C 94.296875 10.496094 94.632813 10.828125 95.035156 10.828125 C 95.4375 10.828125 95.769531 10.496094 95.769531 10.09375 Z M 95.769531 10.09375 "/>
<path style=" stroke:none;fill-rule:evenodd;fill:rgb(0%,0%,0%);fill-opacity:1;" d="M 109.863281 13.570313 L 109.863281 13.164063 C 108.957031 13.164063 108.707031 13.164063 108.515625 12.59375 L 105.484375 3.890625 C 105.425781 3.722656 105.398438 3.640625 105.207031 3.640625 C 105.007813 3.640625 104.980469 3.683594 104.914063 3.902344 L 102.003906 12.21875 C 101.8125 12.789063 101.421875 13.152344 100.53125 13.164063 L 100.53125 13.570313 L 101.867188 13.539063 C 102.257813 13.539063 102.921875 13.539063 103.285156 13.570313 L 103.285156 13.164063 C 102.699219 13.152344 102.351563 12.859375 102.351563 12.46875 C 102.351563 12.386719 102.351563 12.359375 102.421875 12.179688 L 103.0625 10.328125 L 106.566406 10.328125 L 107.332031 12.511719 C 107.402344 12.679688 107.402344 12.707031 107.402344 12.75 C 107.402344 13.164063 106.691406 13.164063 106.34375 13.164063 L 106.34375 13.570313 C 106.664063 13.539063 107.761719 13.539063 108.152344 13.539063 C 108.542969 13.539063 109.542969 13.539063 109.863281 13.570313 Z M 106.429688 9.925781 L 103.203125 9.925781 L 104.8125 5.292969 Z M 106.429688 9.925781 "/>
<path style=" stroke:none;fill-rule:evenodd;fill:rgb(0%,0%,0%);fill-opacity:1;" d="M 133.230469 10.105469 C 133.230469 9.84375 132.992188 9.84375 132.785156 9.84375 L 128.945313 9.84375 L 128.945313 6.003906 C 128.945313 5.808594 128.945313 5.558594 128.695313 5.558594 C 128.429688 5.558594 128.429688 5.796875 128.429688 6.003906 L 128.429688 9.84375 L 124.59375 9.84375 C 124.398438 9.84375 124.148438 9.84375 124.148438 10.09375 C 124.148438 10.355469 124.386719 10.355469 124.59375 10.355469 L 128.429688 10.355469 L 128.429688 14.195313 C 128.429688 14.390625 128.429688 14.640625 128.679688 14.640625 C 128.945313 14.640625 128.945313 14.402344 128.945313 14.195313 L 128.945313 10.355469 L 132.785156 10.355469 C 132.980469 10.355469 133.230469 10.355469 133.230469 10.105469 Z M 133.230469 10.105469 "/>
<path style=" stroke:none;fill-rule:evenodd;fill:rgb(0%,0%,0%);fill-opacity:1;" d="M 141.28125 11.914063 C 141.214844 12.148438 141.214844 12.179688 141.019531 12.441406 C 140.710938 12.832031 140.101563 13.429688 139.445313 13.429688 C 138.875 13.429688 138.558594 12.914063 138.558594 12.09375 C 138.558594 11.328125 138.988281 9.773438 139.253906 9.1875 C 139.722656 8.214844 140.378906 7.714844 140.921875 7.714844 C 141.839844 7.714844 142.019531 8.855469 142.019531 8.964844 C 142.019531 8.964844 141.976563 9.160156 141.964844 9.1875 Z M 143.839844 11.578125 C 143.839844 11.511719 143.785156 11.453125 143.703125 11.453125 C 143.578125 11.453125 143.5625 11.523438 143.507813 11.734375 C 143.300781 12.554688 143.035156 13.429688 142.464844 13.429688 C 142.0625 13.429688 142.035156 13.070313 142.035156 12.789063 C 142.035156 12.46875 142.074219 12.316406 142.199219 11.773438 L 142.480469 10.71875 C 142.992188 8.632813 143.117188 8.132813 143.117188 8.046875 C 143.117188 7.855469 142.964844 7.699219 142.757813 7.699219 C 142.3125 7.699219 142.199219 8.1875 142.171875 8.351563 C 142.019531 7.992188 141.644531 7.4375 140.921875 7.4375 C 139.347656 7.4375 137.652344 9.464844 137.652344 11.523438 C 137.652344 12.902344 138.460938 13.707031 139.40625 13.707031 C 140.167969 13.707031 140.824219 13.109375 141.214844 12.652344 C 141.351563 13.472656 142.003906 13.707031 142.421875 13.707031 C 142.839844 13.707031 143.175781 13.457031 143.425781 12.957031 C 143.644531 12.484375 143.839844 11.636719 143.839844 11.578125 Z M 143.839844 11.578125 "/>
<path style=" stroke:none;fill-rule:evenodd;fill:rgb(0%,0%,0%);fill-opacity:1;" d="M 151.160156 13.457031 C 151.160156 12.75 150.59375 12.183594 149.644531 12.078125 C 150.664063 11.890625 151.6875 11.167969 151.6875 10.238281 C 151.6875 9.515625 151.042969 8.890625 149.871094 8.890625 L 146.585938 8.890625 C 146.398438 8.890625 146.300781 8.890625 146.300781 9.085938 C 146.300781 9.191406 146.390625 9.191406 146.574219 9.191406 C 146.574219 9.191406 146.78125 9.191406 146.945313 9.210938 C 147.121094 9.230469 147.210938 9.242188 147.210938 9.367188 C 147.210938 9.40625 147.199219 9.4375 147.171875 9.554688 L 145.863281 14.804688 C 145.761719 15.1875 145.742188 15.265625 144.972656 15.265625 C 144.804688 15.265625 144.707031 15.265625 144.707031 15.460938 C 144.707031 15.566406 144.792969 15.566406 144.972656 15.566406 L 148.460938 15.566406 C 150.007813 15.566406 151.160156 14.414063 151.160156 13.457031 Z M 150.800781 10.199219 C 150.800781 11.058594 149.957031 11.988281 148.765625 11.988281 L 147.335938 11.988281 L 147.945313 9.5625 C 148.03125 9.21875 148.050781 9.191406 148.472656 9.191406 L 149.734375 9.191406 C 150.59375 9.191406 150.800781 9.769531 150.800781 10.199219 Z M 150.25 13.347656 C 150.25 14.316406 149.382813 15.265625 148.226563 15.265625 L 146.898438 15.265625 C 146.757813 15.265625 146.742188 15.265625 146.683594 15.253906 C 146.585938 15.246094 146.554688 15.234375 146.554688 15.15625 C 146.554688 15.128906 146.554688 15.109375 146.605469 14.933594 L 147.277344 12.203125 L 149.125 12.203125 C 150.066406 12.203125 150.25 12.929688 150.25 13.347656 Z M 150.25 13.347656 "/>
<path style=" stroke:none;fill-rule:evenodd;fill:rgb(0%,0%,0%);fill-opacity:1;" d="M 158.464844 10.09375 C 158.464844 9.6875 158.128906 9.355469 157.726563 9.355469 C 157.324219 9.355469 156.988281 9.6875 156.988281 10.09375 C 156.988281 10.496094 157.324219 10.828125 157.726563 10.828125 C 158.128906 10.828125 158.464844 10.496094 158.464844 10.09375 Z M 158.464844 10.09375 "/>
<path style=" stroke:none;fill-rule:evenodd;fill:rgb(0%,0%,0%);fill-opacity:1;" d="M 171.566406 11.023438 C 171.566406 9.898438 170.550781 8.785156 168.894531 8.601563 C 170.214844 8.351563 171.175781 7.464844 171.175781 6.421875 C 171.175781 5.226563 169.964844 4.070313 168.144531 4.070313 L 163.292969 4.070313 L 163.292969 4.472656 L 163.570313 4.472656 C 164.570313 4.472656 164.613281 4.613281 164.613281 5.128906 L 164.613281 12.511719 C 164.613281 13.027344 164.570313 13.164063 163.570313 13.164063 L 163.292969 13.164063 L 163.292969 13.570313 L 168.519531 13.570313 C 170.316406 13.570313 171.566406 12.359375 171.566406 11.023438 Z M 169.953125 6.421875 C 169.953125 7.339844 169.230469 8.492188 167.683594 8.492188 L 165.671875 8.492188 L 165.671875 5.03125 C 165.671875 4.570313 165.699219 4.472656 166.308594 4.472656 L 168.0625 4.472656 C 169.453125 4.472656 169.953125 5.667969 169.953125 6.421875 Z M 170.300781 11.007813 C 170.300781 12.136719 169.453125 13.164063 168.089844 13.164063 L 166.308594 13.164063 C 165.699219 13.164063 165.671875 13.070313 165.671875 12.609375 L 165.671875 8.769531 L 168.269531 8.769531 C 169.605469 8.769531 170.300781 9.9375 170.300781 11.007813 Z M 170.300781 11.007813 "/>
<path style=" stroke:none;fill-rule:evenodd;fill:rgb(0%,0%,0%);fill-opacity:1;" d="M 7.085938 22.867188 C 7.085938 22.449219 6.75 22.1875 6.414063 22.1875 C 6.027344 22.1875 5.734375 22.492188 5.734375 22.867188 C 5.734375 23.226563 6.039063 23.535156 6.402344 23.535156 C 6.820313 23.535156 7.085938 23.203125 7.085938 22.867188 Z M 7.085938 22.867188 "/>
<path style=" stroke:none;fill-rule:evenodd;fill:rgb(0%,0%,0%);fill-opacity:1;" d="M 10.484375 32.519531 C 10.484375 31.394531 9.46875 30.28125 7.8125 30.101563 C 9.132813 29.851563 10.09375 28.960938 10.09375 27.917969 C 10.09375 26.722656 8.882813 25.570313 7.0625 25.570313 L 2.210938 25.570313 L 2.210938 25.972656 L 2.488281 25.972656 C 3.488281 25.972656 3.53125 26.109375 3.53125 26.625 L 3.53125 34.011719 C 3.53125 34.523438 3.488281 34.664063 2.488281 34.664063 L 2.210938 34.664063 L 2.210938 35.066406 L 7.4375 35.066406 C 9.234375 35.066406 10.484375 33.855469 10.484375 32.519531 Z M 8.871094 27.917969 C 8.871094 28.835938 8.148438 29.988281 6.601563 29.988281 L 4.585938 29.988281 L 4.585938 26.527344 C 4.585938 26.070313 4.617188 25.972656 5.226563 25.972656 L 6.980469 25.972656 C 8.371094 25.972656 8.871094 27.167969 8.871094 27.917969 Z M 9.21875 32.507813 C 9.21875 33.632813 8.371094 34.664063 7.007813 34.664063 L 5.226563 34.664063 C 4.617188 34.664063 4.585938 34.566406 4.585938 34.105469 L 4.585938 30.269531 L 7.1875 30.269531 C 8.523438 30.269531 9.21875 31.4375 9.21875 32.507813 Z M 9.21875 32.507813 "/>
<path style=" stroke:none;fill-rule:evenodd;fill:rgb(0%,0%,0%);fill-opacity:1;" d="M 24.941406 30.308594 C 24.941406 30.046875 24.703125 30.046875 24.496094 30.046875 L 16.304688 30.046875 C 16.113281 30.046875 15.863281 30.046875 15.863281 30.296875 C 15.863281 30.558594 16.097656 30.558594 16.304688 30.558594 L 24.496094 30.558594 C 24.691406 30.558594 24.941406 30.558594 24.941406 30.308594 Z M 24.941406 32.898438 C 24.941406 32.632813 24.703125 32.632813 24.496094 32.632813 L 16.304688 32.632813 C 16.113281 32.632813 15.863281 32.632813 15.863281 32.882813 C 15.863281 33.148438 16.097656 33.148438 16.304688 33.148438 L 24.496094 33.148438 C 24.691406 33.148438 24.941406 33.148438 24.941406 32.898438 Z M 24.941406 32.898438 "/>
<path style=" stroke:none;fill-rule:evenodd;fill:rgb(0%,0%,0%);fill-opacity:1;" d="M 41.3125 31.117188 C 41.3125 29.835938 40.589844 28.933594 39.546875 28.933594 C 38.824219 28.933594 38.167969 29.53125 37.90625 29.808594 L 38.917969 25.761719 C 38.933594 25.707031 38.960938 25.625 38.960938 25.554688 C 38.960938 25.414063 38.792969 25.414063 38.792969 25.414063 L 38.03125 25.484375 C 37.792969 25.5 37.585938 25.527344 37.335938 25.539063 C 37 25.570313 36.902344 25.582031 36.902344 25.832031 C 36.902344 25.972656 37.042969 25.972656 37.179688 25.972656 C 37.890625 25.972656 37.890625 26.097656 37.890625 26.234375 C 37.890625 26.332031 37.78125 26.738281 37.726563 26.988281 L 37.390625 28.320313 L 36.402344 32.285156 C 36.335938 32.632813 36.335938 32.871094 36.335938 33.050781 C 36.335938 34.46875 37.125 35.207031 38.03125 35.207031 C 39.644531 35.207031 41.3125 33.132813 41.3125 31.117188 Z M 39.671875 33.507813 C 39.324219 34.261719 38.683594 34.925781 38.042969 34.925781 C 37.597656 34.925781 37.113281 34.59375 37.113281 33.507813 C 37.113281 33.050781 37.15625 32.785156 37.40625 31.8125 L 37.726563 30.558594 C 37.75 30.449219 38.574219 29.210938 39.519531 29.210938 C 40.128906 29.210938 40.40625 29.824219 40.40625 30.546875 C 40.40625 31.214844 40.019531 32.785156 39.671875 33.507813 Z M 39.671875 33.507813 "/>
<path style=" stroke:none;fill-rule:evenodd;fill:rgb(0%,0%,0%);fill-opacity:1;" d="M 46.003906 34.035156 C 46.003906 33.253906 45.957031 32.472656 45.613281 31.746094 C 45.164063 30.808594 44.363281 30.652344 43.953125 30.652344 C 43.363281 30.652344 42.652344 30.90625 42.25 31.816406 C 41.9375 32.492188 41.886719 33.253906 41.886719 34.035156 C 41.886719 34.769531 41.925781 35.652344 42.328125 36.394531 C 42.75 37.1875 43.464844 37.382813 43.941406 37.382813 C 44.472656 37.382813 45.214844 37.175781 45.644531 36.246094 C 45.957031 35.574219 46.003906 34.808594 46.003906 34.035156 Z M 45.195313 33.917969 C 45.195313 34.652344 45.195313 35.316406 45.085938 35.945313 C 44.941406 36.871094 44.382813 37.164063 43.941406 37.164063 C 43.5625 37.164063 42.984375 36.921875 42.808594 35.984375 C 42.699219 35.394531 42.699219 34.496094 42.699219 33.917969 C 42.699219 33.292969 42.699219 32.648438 42.777344 32.121094 C 42.964844 30.957031 43.699219 30.867188 43.941406 30.867188 C 44.265625 30.867188 44.910156 31.042969 45.097656 32.011719 C 45.195313 32.558594 45.195313 33.300781 45.195313 33.917969 Z M 45.195313 33.917969 "/>
<path style=" stroke:none;fill-rule:evenodd;fill:rgb(0%,0%,0%);fill-opacity:1;" d="M 71.136719 31.605469 C 71.136719 31.339844 70.898438 31.339844 70.691406 31.339844 L 66.851563 31.339844 L 66.851563 27.5 C 66.851563 27.304688 66.851563 27.054688 66.601563 27.054688 C 66.339844 27.054688 66.339844 27.292969 66.339844 27.5 L 66.339844 31.339844 L 62.5 31.339844 C 62.304688 31.339844 62.054688 31.339844 62.054688 31.589844 C 62.054688 31.855469 62.292969 31.855469 62.5 31.855469 L 66.339844 31.855469 L 66.339844 35.691406 C 66.339844 35.886719 66.339844 36.136719 66.589844 36.136719 C 66.851563 36.136719 66.851563 35.902344 66.851563 35.691406 L 66.851563 31.855469 L 70.691406 31.855469 C 70.886719 31.855469 71.136719 31.855469 71.136719 31.605469 Z M 71.136719 31.605469 "/>
<path style=" stroke:none;fill-rule:evenodd;fill:rgb(0%,0%,0%);fill-opacity:1;" d="M 80.609375 31.117188 C 80.609375 29.835938 79.882813 28.933594 78.84375 28.933594 C 78.117188 28.933594 77.464844 29.53125 77.199219 29.808594 L 78.214844 25.761719 C 78.230469 25.707031 78.257813 25.625 78.257813 25.554688 C 78.257813 25.414063 78.089844 25.414063 78.089844 25.414063 L 77.324219 25.484375 C 77.089844 25.5 76.882813 25.527344 76.628906 25.539063 C 76.296875 25.570313 76.199219 25.582031 76.199219 25.832031 C 76.199219 25.972656 76.335938 25.972656 76.476563 25.972656 C 77.1875 25.972656 77.1875 26.097656 77.1875 26.234375 C 77.1875 26.332031 77.074219 26.738281 77.019531 26.988281 L 76.6875 28.320313 L 75.699219 32.285156 C 75.628906 32.632813 75.628906 32.871094 75.628906 33.050781 C 75.628906 34.46875 76.421875 35.207031 77.324219 35.207031 C 78.9375 35.207031 80.609375 33.132813 80.609375 31.117188 Z M 78.96875 33.507813 C 78.617188 34.261719 77.980469 34.925781 77.339844 34.925781 C 76.894531 34.925781 76.40625 34.59375 76.40625 33.507813 C 76.40625 33.050781 76.449219 32.785156 76.699219 31.8125 L 77.019531 30.558594 C 77.046875 30.449219 77.867188 29.210938 78.8125 29.210938 C 79.425781 29.210938 79.703125 29.824219 79.703125 30.546875 C 79.703125 31.214844 79.3125 32.785156 78.96875 33.507813 Z M 78.96875 33.507813 "/>
<path style=" stroke:none;fill-rule:evenodd;fill:rgb(0%,0%,0%);fill-opacity:1;" d="M 87.855469 36.96875 C 87.855469 36.863281 87.757813 36.863281 87.628906 36.863281 C 87.023438 36.863281 87.023438 36.792969 86.992188 36.511719 L 86.398438 30.398438 C 86.378906 30.203125 86.378906 30.164063 86.210938 30.164063 C 86.054688 30.164063 86.015625 30.230469 85.957031 30.328125 L 82.550781 36.042969 C 82.160156 36.699219 81.78125 36.832031 81.351563 36.863281 C 81.234375 36.871094 81.144531 36.871094 81.144531 37.058594 C 81.144531 37.117188 81.191406 37.164063 81.273438 37.164063 C 81.535156 37.164063 81.839844 37.136719 82.113281 37.136719 C 82.433594 37.136719 82.777344 37.164063 83.089844 37.164063 C 83.148438 37.164063 83.277344 37.164063 83.277344 36.980469 C 83.277344 36.871094 83.1875 36.863281 83.121094 36.863281 C 82.894531 36.84375 82.660156 36.765625 82.660156 36.519531 C 82.660156 36.402344 82.71875 36.296875 82.796875 36.160156 C 82.867188 36.042969 82.875 36.042969 83.542969 34.90625 L 85.996094 34.90625 C 86.015625 35.113281 86.152344 36.441406 86.152344 36.539063 C 86.152344 36.832031 85.644531 36.863281 85.449219 36.863281 C 85.3125 36.863281 85.214844 36.863281 85.214844 37.058594 C 85.214844 37.164063 85.351563 37.164063 85.351563 37.164063 C 85.75 37.164063 86.171875 37.136719 86.574219 37.136719 C 86.816406 37.136719 87.433594 37.164063 87.679688 37.164063 C 87.738281 37.164063 87.855469 37.164063 87.855469 36.96875 Z M 85.964844 34.605469 L 83.726563 34.605469 L 85.652344 31.375 Z M 85.964844 34.605469 "/>
<path style=" stroke:none;fill-rule:evenodd;fill:rgb(0%,0%,0%);fill-opacity:1;" d="M 94.472656 31.589844 C 94.472656 31.1875 94.136719 30.851563 93.734375 30.851563 C 93.332031 30.851563 92.996094 31.1875 92.996094 31.589844 C 92.996094 31.992188 93.332031 32.328125 93.734375 32.328125 C 94.136719 32.328125 94.472656 31.992188 94.472656 31.589844 Z M 94.472656 31.589844 "/>
<path style=" stroke:none;fill-rule:evenodd;fill:rgb(0%,0%,0%);fill-opacity:1;" d="M 108.460938 35.066406 L 108.460938 34.664063 C 107.558594 34.664063 107.308594 34.664063 107.113281 34.09375 L 104.082031 25.386719 C 104.027344 25.21875 104 25.136719 103.804688 25.136719 C 103.609375 25.136719 103.582031 25.179688 103.511719 25.402344 L 100.605469 33.71875 C 100.410156 34.289063 100.023438 34.648438 99.132813 34.664063 L 99.132813 35.066406 L 100.464844 35.039063 C 100.855469 35.039063 101.523438 35.039063 101.882813 35.066406 L 101.882813 34.664063 C 101.300781 34.648438 100.953125 34.355469 100.953125 33.96875 C 100.953125 33.882813 100.953125 33.855469 101.023438 33.675781 L 101.664063 31.824219 L 105.167969 31.824219 L 105.929688 34.011719 C 106.003906 34.175781 106.003906 34.203125 106.003906 34.246094 C 106.003906 34.664063 105.292969 34.664063 104.945313 34.664063 L 104.945313 35.066406 C 105.265625 35.039063 106.363281 35.039063 106.753906 35.039063 C 107.140625 35.039063 108.144531 35.039063 108.460938 35.066406 Z M 105.027344 31.421875 L 101.800781 31.421875 L 103.414063 26.792969 Z M 105.027344 31.421875 "/>
<path style=" stroke:none;fill-rule:evenodd;fill:rgb(0%,0%,0%);fill-opacity:1;" d="M 133.230469 31.605469 C 133.230469 31.339844 132.992188 31.339844 132.785156 31.339844 L 128.945313 31.339844 L 128.945313 27.5 C 128.945313 27.304688 128.945313 27.054688 128.695313 27.054688 C 128.429688 27.054688 128.429688 27.292969 128.429688 27.5 L 128.429688 31.339844 L 124.59375 31.339844 C 124.398438 31.339844 124.148438 31.339844 124.148438 31.589844 C 124.148438 31.855469 124.386719 31.855469 124.59375 31.855469 L 128.429688 31.855469 L 128.429688 35.691406 C 128.429688 35.886719 128.429688 36.136719 128.679688 36.136719 C 128.945313 36.136719 128.945313 35.902344 128.945313 35.691406 L 128.945313 31.855469 L 132.785156 31.855469 C 132.980469 31.855469 133.230469 31.855469 133.230469 31.605469 Z M 133.230469 31.605469 "/>
<path style=" stroke:none;fill-rule:evenodd;fill:rgb(0%,0%,0%);fill-opacity:1;" d="M 142.699219 31.117188 C 142.699219 29.835938 141.976563 28.933594 140.933594 28.933594 C 140.210938 28.933594 139.558594 29.53125 139.292969 29.808594 L 140.308594 25.761719 C 140.324219 25.707031 140.351563 25.625 140.351563 25.554688 C 140.351563 25.414063 140.183594 25.414063 140.183594 25.414063 L 139.417969 25.484375 C 139.183594 25.5 138.972656 25.527344 138.722656 25.539063 C 138.390625 25.570313 138.292969 25.582031 138.292969 25.832031 C 138.292969 25.972656 138.429688 25.972656 138.570313 25.972656 C 139.28125 25.972656 139.28125 26.097656 139.28125 26.234375 C 139.28125 26.332031 139.167969 26.738281 139.113281 26.988281 L 138.78125 28.320313 L 137.792969 32.285156 C 137.722656 32.632813 137.722656 32.871094 137.722656 33.050781 C 137.722656 34.46875 138.515625 35.207031 139.417969 35.207031 C 141.03125 35.207031 142.699219 33.132813 142.699219 31.117188 Z M 141.058594 33.507813 C 140.710938 34.261719 140.074219 34.925781 139.433594 34.925781 C 138.988281 34.925781 138.5 34.59375 138.5 33.507813 C 138.5 33.050781 138.542969 32.785156 138.792969 31.8125 L 139.113281 30.558594 C 139.140625 30.449219 139.960938 29.210938 140.90625 29.210938 C 141.519531 29.210938 141.796875 29.824219 141.796875 30.546875 C 141.796875 31.214844 141.40625 32.785156 141.058594 33.507813 Z M 141.058594 33.507813 "/>
<path style=" stroke:none;fill-rule:evenodd;fill:rgb(0%,0%,0%);fill-opacity:1;" d="M 149.761719 35.054688 C 149.761719 34.347656 149.195313 33.78125 148.246094 33.675781 C 149.261719 33.488281 150.289063 32.765625 150.289063 31.835938 C 150.289063 31.113281 149.644531 30.488281 148.46875 30.488281 L 145.183594 30.488281 C 145 30.488281 144.902344 30.488281 144.902344 30.683594 C 144.902344 30.789063 144.988281 30.789063 145.175781 30.789063 C 145.175781 30.789063 145.378906 30.789063 145.546875 30.808594 C 145.722656 30.828125 145.808594 30.839844 145.808594 30.964844 C 145.808594 31.003906 145.800781 31.035156 145.769531 31.152344 L 144.460938 36.402344 C 144.363281 36.785156 144.34375 36.863281 143.570313 36.863281 C 143.40625 36.863281 143.308594 36.863281 143.308594 37.058594 C 143.308594 37.164063 143.394531 37.164063 143.570313 37.164063 L 147.0625 37.164063 C 148.609375 37.164063 149.761719 36.011719 149.761719 35.054688 Z M 149.398438 31.796875 C 149.398438 32.65625 148.558594 33.585938 147.367188 33.585938 L 145.9375 33.585938 L 146.542969 31.160156 C 146.632813 30.816406 146.652344 30.789063 147.074219 30.789063 L 148.332031 30.789063 C 149.195313 30.789063 149.398438 31.367188 149.398438 31.796875 Z M 148.851563 34.945313 C 148.851563 35.914063 147.980469 36.863281 146.828125 36.863281 L 145.496094 36.863281 C 145.359375 36.863281 145.339844 36.863281 145.28125 36.851563 C 145.183594 36.84375 145.15625 36.832031 145.15625 36.753906 C 145.15625 36.726563 145.15625 36.707031 145.203125 36.53125 L 145.878906 33.800781 L 147.726563 33.800781 C 148.664063 33.800781 148.851563 34.527344 148.851563 34.945313 Z M 148.851563 34.945313 "/>
<path style=" stroke:none;fill-rule:evenodd;fill:rgb(0%,0%,0%);fill-opacity:1;" d="M 157.066406 31.589844 C 157.066406 31.1875 156.730469 30.851563 156.328125 30.851563 C 155.925781 30.851563 155.589844 31.1875 155.589844 31.589844 C 155.589844 31.992188 155.925781 32.328125 156.328125 32.328125 C 156.730469 32.328125 157.066406 31.992188 157.066406 31.589844 Z M 157.066406 31.589844 "/>
<path style=" stroke:none;fill-rule:evenodd;fill:rgb(0%,0%,0%);fill-opacity:1;" d="M 170.265625 32.519531 C 170.265625 31.394531 169.25 30.28125 167.597656 30.101563 C 168.917969 29.851563 169.875 28.960938 169.875 27.917969 C 169.875 26.722656 168.667969 25.570313 166.84375 25.570313 L 161.992188 25.570313 L 161.992188 25.972656 L 162.269531 25.972656 C 163.273438 25.972656 163.3125 26.109375 163.3125 26.625 L 163.3125 34.011719 C 163.3125 34.523438 163.273438 34.664063 162.269531 34.664063 L 161.992188 34.664063 L 161.992188 35.066406 L 167.21875 35.066406 C 169.015625 35.066406 170.265625 33.855469 170.265625 32.519531 Z M 168.652344 27.917969 C 168.652344 28.835938 167.929688 29.988281 166.386719 29.988281 L 164.371094 29.988281 L 164.371094 26.527344 C 164.371094 26.070313 164.398438 25.972656 165.007813 25.972656 L 166.761719 25.972656 C 168.152344 25.972656 168.652344 27.167969 168.652344 27.917969 Z M 169 32.507813 C 169 33.632813 168.152344 34.664063 166.789063 34.664063 L 165.007813 34.664063 C 164.398438 34.664063 164.371094 34.566406 164.371094 34.105469 L 164.371094 30.269531 L 166.96875 30.269531 C 168.304688 30.269531 169 31.4375 169 32.507813 Z M 169 32.507813 "/>
</g>
</svg>
